%TF.GenerationSoftware,KiCad,Pcbnew,4.0.2+dfsg1-stable*%
%TF.CreationDate,2018-12-22T18:31:29+01:00*%
%TF.ProjectId,usbavrfloppy,757362617672666C6F7070792E6B6963,rev?*%
%TF.FileFunction,Other,User*%
%FSLAX46Y46*%
G04 Gerber Fmt 4.6, Leading zero omitted, Abs format (unit mm)*
G04 Created by KiCad (PCBNEW 4.0.2+dfsg1-stable) date Sat 22 Dec 2018 18:31:29 CET*
%MOMM*%
G01*
G04 APERTURE LIST*
%ADD10C,0.100000*%
%ADD11C,0.300000*%
G04 APERTURE END LIST*
D10*
D11*
X91419429Y-81947430D02*
X91419429Y-81233144D01*
X90705143Y-81161715D01*
X90776571Y-81233144D01*
X90848000Y-81376001D01*
X90848000Y-81733144D01*
X90776571Y-81876001D01*
X90705143Y-81947430D01*
X90562286Y-82018858D01*
X90205143Y-82018858D01*
X90062286Y-81947430D01*
X89990857Y-81876001D01*
X89919429Y-81733144D01*
X89919429Y-81376001D01*
X89990857Y-81233144D01*
X90062286Y-81161715D01*
X89919429Y-83447429D02*
X89919429Y-82590286D01*
X89919429Y-83018858D02*
X91419429Y-83018858D01*
X91205143Y-82876001D01*
X91062286Y-82733143D01*
X90990857Y-82590286D01*
X89990857Y-84161714D02*
X89919429Y-84161714D01*
X89776571Y-84090286D01*
X89705143Y-84018857D01*
X91419429Y-84661715D02*
X91419429Y-85590286D01*
X90848000Y-85090286D01*
X90848000Y-85304572D01*
X90776571Y-85447429D01*
X90705143Y-85518858D01*
X90562286Y-85590286D01*
X90205143Y-85590286D01*
X90062286Y-85518858D01*
X89990857Y-85447429D01*
X89919429Y-85304572D01*
X89919429Y-84876000D01*
X89990857Y-84733143D01*
X90062286Y-84661715D01*
X91419429Y-86518857D02*
X91419429Y-86661714D01*
X91348000Y-86804571D01*
X91276571Y-86876000D01*
X91133714Y-86947429D01*
X90848000Y-87018857D01*
X90490857Y-87018857D01*
X90205143Y-86947429D01*
X90062286Y-86876000D01*
X89990857Y-86804571D01*
X89919429Y-86661714D01*
X89919429Y-86518857D01*
X89990857Y-86376000D01*
X90062286Y-86304571D01*
X90205143Y-86233143D01*
X90490857Y-86161714D01*
X90848000Y-86161714D01*
X91133714Y-86233143D01*
X91276571Y-86304571D01*
X91348000Y-86376000D01*
X91419429Y-86518857D01*
X90776571Y-87876000D02*
X90848000Y-87733142D01*
X90919429Y-87661714D01*
X91062286Y-87590285D01*
X91133714Y-87590285D01*
X91276571Y-87661714D01*
X91348000Y-87733142D01*
X91419429Y-87876000D01*
X91419429Y-88161714D01*
X91348000Y-88304571D01*
X91276571Y-88376000D01*
X91133714Y-88447428D01*
X91062286Y-88447428D01*
X90919429Y-88376000D01*
X90848000Y-88304571D01*
X90776571Y-88161714D01*
X90776571Y-87876000D01*
X90705143Y-87733142D01*
X90633714Y-87661714D01*
X90490857Y-87590285D01*
X90205143Y-87590285D01*
X90062286Y-87661714D01*
X89990857Y-87733142D01*
X89919429Y-87876000D01*
X89919429Y-88161714D01*
X89990857Y-88304571D01*
X90062286Y-88376000D01*
X90205143Y-88447428D01*
X90490857Y-88447428D01*
X90633714Y-88376000D01*
X90705143Y-88304571D01*
X90776571Y-88161714D01*
X89919429Y-90233142D02*
X90919429Y-90233142D01*
X90776571Y-90233142D02*
X90848000Y-90304570D01*
X90919429Y-90447428D01*
X90919429Y-90661713D01*
X90848000Y-90804570D01*
X90705143Y-90875999D01*
X89919429Y-90875999D01*
X90705143Y-90875999D02*
X90848000Y-90947428D01*
X90919429Y-91090285D01*
X90919429Y-91304570D01*
X90848000Y-91447428D01*
X90705143Y-91518856D01*
X89919429Y-91518856D01*
X89919429Y-92233142D02*
X90919429Y-92233142D01*
X90776571Y-92233142D02*
X90848000Y-92304570D01*
X90919429Y-92447428D01*
X90919429Y-92661713D01*
X90848000Y-92804570D01*
X90705143Y-92875999D01*
X89919429Y-92875999D01*
X90705143Y-92875999D02*
X90848000Y-92947428D01*
X90919429Y-93090285D01*
X90919429Y-93304570D01*
X90848000Y-93447428D01*
X90705143Y-93518856D01*
X89919429Y-93518856D01*
X91948000Y-61722000D02*
X91948000Y-113030000D01*
X107950000Y-61722000D02*
X89248000Y-61722000D01*
X107950000Y-113030000D02*
X89248000Y-113030000D01*
X91948000Y-113030000D02*
X91361579Y-111903496D01*
X91948000Y-113030000D02*
X92534421Y-111903496D01*
X91948000Y-61722000D02*
X91361579Y-62848504D01*
X91948000Y-61722000D02*
X92534421Y-62848504D01*
X146900001Y-141498571D02*
X146614287Y-141498571D01*
X146471430Y-141570000D01*
X146400001Y-141641429D01*
X146257144Y-141855714D01*
X146185715Y-142141429D01*
X146185715Y-142712857D01*
X146257144Y-142855714D01*
X146328572Y-142927143D01*
X146471430Y-142998571D01*
X146757144Y-142998571D01*
X146900001Y-142927143D01*
X146971430Y-142855714D01*
X147042858Y-142712857D01*
X147042858Y-142355714D01*
X146971430Y-142212857D01*
X146900001Y-142141429D01*
X146757144Y-142070000D01*
X146471430Y-142070000D01*
X146328572Y-142141429D01*
X146257144Y-142212857D01*
X146185715Y-142355714D01*
X148328572Y-141498571D02*
X148042858Y-141498571D01*
X147900001Y-141570000D01*
X147828572Y-141641429D01*
X147685715Y-141855714D01*
X147614286Y-142141429D01*
X147614286Y-142712857D01*
X147685715Y-142855714D01*
X147757143Y-142927143D01*
X147900001Y-142998571D01*
X148185715Y-142998571D01*
X148328572Y-142927143D01*
X148400001Y-142855714D01*
X148471429Y-142712857D01*
X148471429Y-142355714D01*
X148400001Y-142212857D01*
X148328572Y-142141429D01*
X148185715Y-142070000D01*
X147900001Y-142070000D01*
X147757143Y-142141429D01*
X147685715Y-142212857D01*
X147614286Y-142355714D01*
X149185714Y-142927143D02*
X149185714Y-142998571D01*
X149114286Y-143141429D01*
X149042857Y-143212857D01*
X150114286Y-141498571D02*
X150257143Y-141498571D01*
X150400000Y-141570000D01*
X150471429Y-141641429D01*
X150542858Y-141784286D01*
X150614286Y-142070000D01*
X150614286Y-142427143D01*
X150542858Y-142712857D01*
X150471429Y-142855714D01*
X150400000Y-142927143D01*
X150257143Y-142998571D01*
X150114286Y-142998571D01*
X149971429Y-142927143D01*
X149900000Y-142855714D01*
X149828572Y-142712857D01*
X149757143Y-142427143D01*
X149757143Y-142070000D01*
X149828572Y-141784286D01*
X149900000Y-141641429D01*
X149971429Y-141570000D01*
X150114286Y-141498571D01*
X151900000Y-141998571D02*
X151900000Y-142998571D01*
X151542857Y-141427143D02*
X151185714Y-142498571D01*
X152114286Y-142498571D01*
X152971428Y-141498571D02*
X153114285Y-141498571D01*
X153257142Y-141570000D01*
X153328571Y-141641429D01*
X153400000Y-141784286D01*
X153471428Y-142070000D01*
X153471428Y-142427143D01*
X153400000Y-142712857D01*
X153328571Y-142855714D01*
X153257142Y-142927143D01*
X153114285Y-142998571D01*
X152971428Y-142998571D01*
X152828571Y-142927143D01*
X152757142Y-142855714D01*
X152685714Y-142712857D01*
X152614285Y-142427143D01*
X152614285Y-142070000D01*
X152685714Y-141784286D01*
X152757142Y-141641429D01*
X152828571Y-141570000D01*
X152971428Y-141498571D01*
X155257142Y-142998571D02*
X155257142Y-141998571D01*
X155257142Y-142141429D02*
X155328570Y-142070000D01*
X155471428Y-141998571D01*
X155685713Y-141998571D01*
X155828570Y-142070000D01*
X155899999Y-142212857D01*
X155899999Y-142998571D01*
X155899999Y-142212857D02*
X155971428Y-142070000D01*
X156114285Y-141998571D01*
X156328570Y-141998571D01*
X156471428Y-142070000D01*
X156542856Y-142212857D01*
X156542856Y-142998571D01*
X157257142Y-142998571D02*
X157257142Y-141998571D01*
X157257142Y-142141429D02*
X157328570Y-142070000D01*
X157471428Y-141998571D01*
X157685713Y-141998571D01*
X157828570Y-142070000D01*
X157899999Y-142212857D01*
X157899999Y-142998571D01*
X157899999Y-142212857D02*
X157971428Y-142070000D01*
X158114285Y-141998571D01*
X158328570Y-141998571D01*
X158471428Y-142070000D01*
X158542856Y-142212857D01*
X158542856Y-142998571D01*
X185420000Y-140970000D02*
X119380000Y-140970000D01*
X185420000Y-128905000D02*
X185420000Y-143670000D01*
X119380000Y-128905000D02*
X119380000Y-143670000D01*
X119380000Y-140970000D02*
X120506504Y-140383579D01*
X119380000Y-140970000D02*
X120506504Y-141556421D01*
X185420000Y-140970000D02*
X184293496Y-140383579D01*
X185420000Y-140970000D02*
X184293496Y-141556421D01*
X187682858Y-135378571D02*
X186825715Y-135378571D01*
X187254287Y-135378571D02*
X187254287Y-133878571D01*
X187111430Y-134092857D01*
X186968572Y-134235714D01*
X186825715Y-134307143D01*
X189040001Y-133878571D02*
X188325715Y-133878571D01*
X188254286Y-134592857D01*
X188325715Y-134521429D01*
X188468572Y-134450000D01*
X188825715Y-134450000D01*
X188968572Y-134521429D01*
X189040001Y-134592857D01*
X189111429Y-134735714D01*
X189111429Y-135092857D01*
X189040001Y-135235714D01*
X188968572Y-135307143D01*
X188825715Y-135378571D01*
X188468572Y-135378571D01*
X188325715Y-135307143D01*
X188254286Y-135235714D01*
X189825714Y-135307143D02*
X189825714Y-135378571D01*
X189754286Y-135521429D01*
X189682857Y-135592857D01*
X190397143Y-134021429D02*
X190468572Y-133950000D01*
X190611429Y-133878571D01*
X190968572Y-133878571D01*
X191111429Y-133950000D01*
X191182858Y-134021429D01*
X191254286Y-134164286D01*
X191254286Y-134307143D01*
X191182858Y-134521429D01*
X190325715Y-135378571D01*
X191254286Y-135378571D01*
X192540000Y-134378571D02*
X192540000Y-135378571D01*
X192182857Y-133807143D02*
X191825714Y-134878571D01*
X192754286Y-134878571D01*
X193611428Y-133878571D02*
X193754285Y-133878571D01*
X193897142Y-133950000D01*
X193968571Y-134021429D01*
X194040000Y-134164286D01*
X194111428Y-134450000D01*
X194111428Y-134807143D01*
X194040000Y-135092857D01*
X193968571Y-135235714D01*
X193897142Y-135307143D01*
X193754285Y-135378571D01*
X193611428Y-135378571D01*
X193468571Y-135307143D01*
X193397142Y-135235714D01*
X193325714Y-135092857D01*
X193254285Y-134807143D01*
X193254285Y-134450000D01*
X193325714Y-134164286D01*
X193397142Y-134021429D01*
X193468571Y-133950000D01*
X193611428Y-133878571D01*
X195897142Y-135378571D02*
X195897142Y-134378571D01*
X195897142Y-134521429D02*
X195968570Y-134450000D01*
X196111428Y-134378571D01*
X196325713Y-134378571D01*
X196468570Y-134450000D01*
X196539999Y-134592857D01*
X196539999Y-135378571D01*
X196539999Y-134592857D02*
X196611428Y-134450000D01*
X196754285Y-134378571D01*
X196968570Y-134378571D01*
X197111428Y-134450000D01*
X197182856Y-134592857D01*
X197182856Y-135378571D01*
X197897142Y-135378571D02*
X197897142Y-134378571D01*
X197897142Y-134521429D02*
X197968570Y-134450000D01*
X198111428Y-134378571D01*
X198325713Y-134378571D01*
X198468570Y-134450000D01*
X198539999Y-134592857D01*
X198539999Y-135378571D01*
X198539999Y-134592857D02*
X198611428Y-134450000D01*
X198754285Y-134378571D01*
X198968570Y-134378571D01*
X199111428Y-134450000D01*
X199182856Y-134592857D01*
X199182856Y-135378571D01*
X200660000Y-133350000D02*
X185420000Y-133350000D01*
X200660000Y-93980000D02*
X200660000Y-136050000D01*
X185420000Y-93980000D02*
X185420000Y-136050000D01*
X185420000Y-133350000D02*
X186546504Y-132763579D01*
X185420000Y-133350000D02*
X186546504Y-133936421D01*
X200660000Y-133350000D02*
X199533496Y-132763579D01*
X200660000Y-133350000D02*
X199533496Y-133936421D01*
X106402858Y-135378571D02*
X105545715Y-135378571D01*
X105974287Y-135378571D02*
X105974287Y-133878571D01*
X105831430Y-134092857D01*
X105688572Y-134235714D01*
X105545715Y-134307143D01*
X107760001Y-133878571D02*
X107045715Y-133878571D01*
X106974286Y-134592857D01*
X107045715Y-134521429D01*
X107188572Y-134450000D01*
X107545715Y-134450000D01*
X107688572Y-134521429D01*
X107760001Y-134592857D01*
X107831429Y-134735714D01*
X107831429Y-135092857D01*
X107760001Y-135235714D01*
X107688572Y-135307143D01*
X107545715Y-135378571D01*
X107188572Y-135378571D01*
X107045715Y-135307143D01*
X106974286Y-135235714D01*
X108545714Y-135307143D02*
X108545714Y-135378571D01*
X108474286Y-135521429D01*
X108402857Y-135592857D01*
X109117143Y-134021429D02*
X109188572Y-133950000D01*
X109331429Y-133878571D01*
X109688572Y-133878571D01*
X109831429Y-133950000D01*
X109902858Y-134021429D01*
X109974286Y-134164286D01*
X109974286Y-134307143D01*
X109902858Y-134521429D01*
X109045715Y-135378571D01*
X109974286Y-135378571D01*
X111260000Y-134378571D02*
X111260000Y-135378571D01*
X110902857Y-133807143D02*
X110545714Y-134878571D01*
X111474286Y-134878571D01*
X112331428Y-133878571D02*
X112474285Y-133878571D01*
X112617142Y-133950000D01*
X112688571Y-134021429D01*
X112760000Y-134164286D01*
X112831428Y-134450000D01*
X112831428Y-134807143D01*
X112760000Y-135092857D01*
X112688571Y-135235714D01*
X112617142Y-135307143D01*
X112474285Y-135378571D01*
X112331428Y-135378571D01*
X112188571Y-135307143D01*
X112117142Y-135235714D01*
X112045714Y-135092857D01*
X111974285Y-134807143D01*
X111974285Y-134450000D01*
X112045714Y-134164286D01*
X112117142Y-134021429D01*
X112188571Y-133950000D01*
X112331428Y-133878571D01*
X114617142Y-135378571D02*
X114617142Y-134378571D01*
X114617142Y-134521429D02*
X114688570Y-134450000D01*
X114831428Y-134378571D01*
X115045713Y-134378571D01*
X115188570Y-134450000D01*
X115259999Y-134592857D01*
X115259999Y-135378571D01*
X115259999Y-134592857D02*
X115331428Y-134450000D01*
X115474285Y-134378571D01*
X115688570Y-134378571D01*
X115831428Y-134450000D01*
X115902856Y-134592857D01*
X115902856Y-135378571D01*
X116617142Y-135378571D02*
X116617142Y-134378571D01*
X116617142Y-134521429D02*
X116688570Y-134450000D01*
X116831428Y-134378571D01*
X117045713Y-134378571D01*
X117188570Y-134450000D01*
X117259999Y-134592857D01*
X117259999Y-135378571D01*
X117259999Y-134592857D02*
X117331428Y-134450000D01*
X117474285Y-134378571D01*
X117688570Y-134378571D01*
X117831428Y-134450000D01*
X117902856Y-134592857D01*
X117902856Y-135378571D01*
X119380000Y-133350000D02*
X104140000Y-133350000D01*
X119380000Y-93980000D02*
X119380000Y-136050000D01*
X104140000Y-93980000D02*
X104140000Y-136050000D01*
X104140000Y-133350000D02*
X105266504Y-132763579D01*
X104140000Y-133350000D02*
X105266504Y-133936421D01*
X119380000Y-133350000D02*
X118253496Y-132763579D01*
X119380000Y-133350000D02*
X118253496Y-133936421D01*
X213626429Y-87376787D02*
X213626429Y-88376787D01*
X212126429Y-87733930D01*
X213626429Y-89233929D02*
X213626429Y-89376786D01*
X213555000Y-89519643D01*
X213483571Y-89591072D01*
X213340714Y-89662501D01*
X213055000Y-89733929D01*
X212697857Y-89733929D01*
X212412143Y-89662501D01*
X212269286Y-89591072D01*
X212197857Y-89519643D01*
X212126429Y-89376786D01*
X212126429Y-89233929D01*
X212197857Y-89091072D01*
X212269286Y-89019643D01*
X212412143Y-88948215D01*
X212697857Y-88876786D01*
X213055000Y-88876786D01*
X213340714Y-88948215D01*
X213483571Y-89019643D01*
X213555000Y-89091072D01*
X213626429Y-89233929D01*
X212197857Y-90448214D02*
X212126429Y-90448214D01*
X211983571Y-90376786D01*
X211912143Y-90305357D01*
X213126429Y-91733929D02*
X212126429Y-91733929D01*
X213697857Y-91376786D02*
X212626429Y-91019643D01*
X212626429Y-91948215D01*
X212983571Y-92733929D02*
X213055000Y-92591071D01*
X213126429Y-92519643D01*
X213269286Y-92448214D01*
X213340714Y-92448214D01*
X213483571Y-92519643D01*
X213555000Y-92591071D01*
X213626429Y-92733929D01*
X213626429Y-93019643D01*
X213555000Y-93162500D01*
X213483571Y-93233929D01*
X213340714Y-93305357D01*
X213269286Y-93305357D01*
X213126429Y-93233929D01*
X213055000Y-93162500D01*
X212983571Y-93019643D01*
X212983571Y-92733929D01*
X212912143Y-92591071D01*
X212840714Y-92519643D01*
X212697857Y-92448214D01*
X212412143Y-92448214D01*
X212269286Y-92519643D01*
X212197857Y-92591071D01*
X212126429Y-92733929D01*
X212126429Y-93019643D01*
X212197857Y-93162500D01*
X212269286Y-93233929D01*
X212412143Y-93305357D01*
X212697857Y-93305357D01*
X212840714Y-93233929D01*
X212912143Y-93162500D01*
X212983571Y-93019643D01*
X213626429Y-94662500D02*
X213626429Y-93948214D01*
X212912143Y-93876785D01*
X212983571Y-93948214D01*
X213055000Y-94091071D01*
X213055000Y-94448214D01*
X212983571Y-94591071D01*
X212912143Y-94662500D01*
X212769286Y-94733928D01*
X212412143Y-94733928D01*
X212269286Y-94662500D01*
X212197857Y-94591071D01*
X212126429Y-94448214D01*
X212126429Y-94091071D01*
X212197857Y-93948214D01*
X212269286Y-93876785D01*
X212126429Y-96519642D02*
X213126429Y-96519642D01*
X212983571Y-96519642D02*
X213055000Y-96591070D01*
X213126429Y-96733928D01*
X213126429Y-96948213D01*
X213055000Y-97091070D01*
X212912143Y-97162499D01*
X212126429Y-97162499D01*
X212912143Y-97162499D02*
X213055000Y-97233928D01*
X213126429Y-97376785D01*
X213126429Y-97591070D01*
X213055000Y-97733928D01*
X212912143Y-97805356D01*
X212126429Y-97805356D01*
X212126429Y-98519642D02*
X213126429Y-98519642D01*
X212983571Y-98519642D02*
X213055000Y-98591070D01*
X213126429Y-98733928D01*
X213126429Y-98948213D01*
X213055000Y-99091070D01*
X212912143Y-99162499D01*
X212126429Y-99162499D01*
X212912143Y-99162499D02*
X213055000Y-99233928D01*
X213126429Y-99376785D01*
X213126429Y-99591070D01*
X213055000Y-99733928D01*
X212912143Y-99805356D01*
X212126429Y-99805356D01*
X211455000Y-58420000D02*
X211455000Y-128905000D01*
X200660000Y-58420000D02*
X214155000Y-58420000D01*
X200660000Y-128905000D02*
X214155000Y-128905000D01*
X211455000Y-128905000D02*
X210868579Y-127778496D01*
X211455000Y-128905000D02*
X212041421Y-127778496D01*
X211455000Y-58420000D02*
X210868579Y-59546504D01*
X211455000Y-58420000D02*
X212041421Y-59546504D01*
X206641429Y-82201430D02*
X206641429Y-81487144D01*
X205927143Y-81415715D01*
X205998571Y-81487144D01*
X206070000Y-81630001D01*
X206070000Y-81987144D01*
X205998571Y-82130001D01*
X205927143Y-82201430D01*
X205784286Y-82272858D01*
X205427143Y-82272858D01*
X205284286Y-82201430D01*
X205212857Y-82130001D01*
X205141429Y-81987144D01*
X205141429Y-81630001D01*
X205212857Y-81487144D01*
X205284286Y-81415715D01*
X206641429Y-83201429D02*
X206641429Y-83344286D01*
X206570000Y-83487143D01*
X206498571Y-83558572D01*
X206355714Y-83630001D01*
X206070000Y-83701429D01*
X205712857Y-83701429D01*
X205427143Y-83630001D01*
X205284286Y-83558572D01*
X205212857Y-83487143D01*
X205141429Y-83344286D01*
X205141429Y-83201429D01*
X205212857Y-83058572D01*
X205284286Y-82987143D01*
X205427143Y-82915715D01*
X205712857Y-82844286D01*
X206070000Y-82844286D01*
X206355714Y-82915715D01*
X206498571Y-82987143D01*
X206570000Y-83058572D01*
X206641429Y-83201429D01*
X205212857Y-84415714D02*
X205141429Y-84415714D01*
X204998571Y-84344286D01*
X204927143Y-84272857D01*
X205998571Y-85272858D02*
X206070000Y-85130000D01*
X206141429Y-85058572D01*
X206284286Y-84987143D01*
X206355714Y-84987143D01*
X206498571Y-85058572D01*
X206570000Y-85130000D01*
X206641429Y-85272858D01*
X206641429Y-85558572D01*
X206570000Y-85701429D01*
X206498571Y-85772858D01*
X206355714Y-85844286D01*
X206284286Y-85844286D01*
X206141429Y-85772858D01*
X206070000Y-85701429D01*
X205998571Y-85558572D01*
X205998571Y-85272858D01*
X205927143Y-85130000D01*
X205855714Y-85058572D01*
X205712857Y-84987143D01*
X205427143Y-84987143D01*
X205284286Y-85058572D01*
X205212857Y-85130000D01*
X205141429Y-85272858D01*
X205141429Y-85558572D01*
X205212857Y-85701429D01*
X205284286Y-85772858D01*
X205427143Y-85844286D01*
X205712857Y-85844286D01*
X205855714Y-85772858D01*
X205927143Y-85701429D01*
X205998571Y-85558572D01*
X206641429Y-86772857D02*
X206641429Y-86915714D01*
X206570000Y-87058571D01*
X206498571Y-87130000D01*
X206355714Y-87201429D01*
X206070000Y-87272857D01*
X205712857Y-87272857D01*
X205427143Y-87201429D01*
X205284286Y-87130000D01*
X205212857Y-87058571D01*
X205141429Y-86915714D01*
X205141429Y-86772857D01*
X205212857Y-86630000D01*
X205284286Y-86558571D01*
X205427143Y-86487143D01*
X205712857Y-86415714D01*
X206070000Y-86415714D01*
X206355714Y-86487143D01*
X206498571Y-86558571D01*
X206570000Y-86630000D01*
X206641429Y-86772857D01*
X206641429Y-88201428D02*
X206641429Y-88344285D01*
X206570000Y-88487142D01*
X206498571Y-88558571D01*
X206355714Y-88630000D01*
X206070000Y-88701428D01*
X205712857Y-88701428D01*
X205427143Y-88630000D01*
X205284286Y-88558571D01*
X205212857Y-88487142D01*
X205141429Y-88344285D01*
X205141429Y-88201428D01*
X205212857Y-88058571D01*
X205284286Y-87987142D01*
X205427143Y-87915714D01*
X205712857Y-87844285D01*
X206070000Y-87844285D01*
X206355714Y-87915714D01*
X206498571Y-87987142D01*
X206570000Y-88058571D01*
X206641429Y-88201428D01*
X205141429Y-90487142D02*
X206141429Y-90487142D01*
X205998571Y-90487142D02*
X206070000Y-90558570D01*
X206141429Y-90701428D01*
X206141429Y-90915713D01*
X206070000Y-91058570D01*
X205927143Y-91129999D01*
X205141429Y-91129999D01*
X205927143Y-91129999D02*
X206070000Y-91201428D01*
X206141429Y-91344285D01*
X206141429Y-91558570D01*
X206070000Y-91701428D01*
X205927143Y-91772856D01*
X205141429Y-91772856D01*
X205141429Y-92487142D02*
X206141429Y-92487142D01*
X205998571Y-92487142D02*
X206070000Y-92558570D01*
X206141429Y-92701428D01*
X206141429Y-92915713D01*
X206070000Y-93058570D01*
X205927143Y-93129999D01*
X205141429Y-93129999D01*
X205927143Y-93129999D02*
X206070000Y-93201428D01*
X206141429Y-93344285D01*
X206141429Y-93558570D01*
X206070000Y-93701428D01*
X205927143Y-93772856D01*
X205141429Y-93772856D01*
X204470000Y-62230000D02*
X204470000Y-113030000D01*
X181610000Y-62230000D02*
X207170000Y-62230000D01*
X181610000Y-113030000D02*
X207170000Y-113030000D01*
X204470000Y-113030000D02*
X203883579Y-111903496D01*
X204470000Y-113030000D02*
X205056421Y-111903496D01*
X204470000Y-62230000D02*
X203883579Y-63356504D01*
X204470000Y-62230000D02*
X205056421Y-63356504D01*
X138494287Y-52438571D02*
X139494287Y-52438571D01*
X138851430Y-53938571D01*
X139922858Y-52438571D02*
X140851429Y-52438571D01*
X140351429Y-53010000D01*
X140565715Y-53010000D01*
X140708572Y-53081429D01*
X140780001Y-53152857D01*
X140851429Y-53295714D01*
X140851429Y-53652857D01*
X140780001Y-53795714D01*
X140708572Y-53867143D01*
X140565715Y-53938571D01*
X140137143Y-53938571D01*
X139994286Y-53867143D01*
X139922858Y-53795714D01*
X141565714Y-53867143D02*
X141565714Y-53938571D01*
X141494286Y-54081429D01*
X141422857Y-54152857D01*
X142851429Y-52438571D02*
X142565715Y-52438571D01*
X142422858Y-52510000D01*
X142351429Y-52581429D01*
X142208572Y-52795714D01*
X142137143Y-53081429D01*
X142137143Y-53652857D01*
X142208572Y-53795714D01*
X142280000Y-53867143D01*
X142422858Y-53938571D01*
X142708572Y-53938571D01*
X142851429Y-53867143D01*
X142922858Y-53795714D01*
X142994286Y-53652857D01*
X142994286Y-53295714D01*
X142922858Y-53152857D01*
X142851429Y-53081429D01*
X142708572Y-53010000D01*
X142422858Y-53010000D01*
X142280000Y-53081429D01*
X142208572Y-53152857D01*
X142137143Y-53295714D01*
X144280000Y-52438571D02*
X143994286Y-52438571D01*
X143851429Y-52510000D01*
X143780000Y-52581429D01*
X143637143Y-52795714D01*
X143565714Y-53081429D01*
X143565714Y-53652857D01*
X143637143Y-53795714D01*
X143708571Y-53867143D01*
X143851429Y-53938571D01*
X144137143Y-53938571D01*
X144280000Y-53867143D01*
X144351429Y-53795714D01*
X144422857Y-53652857D01*
X144422857Y-53295714D01*
X144351429Y-53152857D01*
X144280000Y-53081429D01*
X144137143Y-53010000D01*
X143851429Y-53010000D01*
X143708571Y-53081429D01*
X143637143Y-53152857D01*
X143565714Y-53295714D01*
X145351428Y-52438571D02*
X145494285Y-52438571D01*
X145637142Y-52510000D01*
X145708571Y-52581429D01*
X145780000Y-52724286D01*
X145851428Y-53010000D01*
X145851428Y-53367143D01*
X145780000Y-53652857D01*
X145708571Y-53795714D01*
X145637142Y-53867143D01*
X145494285Y-53938571D01*
X145351428Y-53938571D01*
X145208571Y-53867143D01*
X145137142Y-53795714D01*
X145065714Y-53652857D01*
X144994285Y-53367143D01*
X144994285Y-53010000D01*
X145065714Y-52724286D01*
X145137142Y-52581429D01*
X145208571Y-52510000D01*
X145351428Y-52438571D01*
X147637142Y-53938571D02*
X147637142Y-52938571D01*
X147637142Y-53081429D02*
X147708570Y-53010000D01*
X147851428Y-52938571D01*
X148065713Y-52938571D01*
X148208570Y-53010000D01*
X148279999Y-53152857D01*
X148279999Y-53938571D01*
X148279999Y-53152857D02*
X148351428Y-53010000D01*
X148494285Y-52938571D01*
X148708570Y-52938571D01*
X148851428Y-53010000D01*
X148922856Y-53152857D01*
X148922856Y-53938571D01*
X149637142Y-53938571D02*
X149637142Y-52938571D01*
X149637142Y-53081429D02*
X149708570Y-53010000D01*
X149851428Y-52938571D01*
X150065713Y-52938571D01*
X150208570Y-53010000D01*
X150279999Y-53152857D01*
X150279999Y-53938571D01*
X150279999Y-53152857D02*
X150351428Y-53010000D01*
X150494285Y-52938571D01*
X150708570Y-52938571D01*
X150851428Y-53010000D01*
X150922856Y-53152857D01*
X150922856Y-53938571D01*
X181610000Y-54610000D02*
X107950000Y-54610000D01*
X181610000Y-62230000D02*
X181610000Y-51910000D01*
X107950000Y-62230000D02*
X107950000Y-51910000D01*
X107950000Y-54610000D02*
X109076504Y-54023579D01*
X107950000Y-54610000D02*
X109076504Y-55196421D01*
X181610000Y-54610000D02*
X180483496Y-54023579D01*
X181610000Y-54610000D02*
X180483496Y-55196421D01*
X147606430Y-130068571D02*
X146892144Y-130068571D01*
X146820715Y-130782857D01*
X146892144Y-130711429D01*
X147035001Y-130640000D01*
X147392144Y-130640000D01*
X147535001Y-130711429D01*
X147606430Y-130782857D01*
X147677858Y-130925714D01*
X147677858Y-131282857D01*
X147606430Y-131425714D01*
X147535001Y-131497143D01*
X147392144Y-131568571D01*
X147035001Y-131568571D01*
X146892144Y-131497143D01*
X146820715Y-131425714D01*
X148177858Y-130068571D02*
X149177858Y-130068571D01*
X148535001Y-131568571D01*
X149820714Y-131497143D02*
X149820714Y-131568571D01*
X149749286Y-131711429D01*
X149677857Y-131782857D01*
X151249286Y-131568571D02*
X150392143Y-131568571D01*
X150820715Y-131568571D02*
X150820715Y-130068571D01*
X150677858Y-130282857D01*
X150535000Y-130425714D01*
X150392143Y-130497143D01*
X152606429Y-130068571D02*
X151892143Y-130068571D01*
X151820714Y-130782857D01*
X151892143Y-130711429D01*
X152035000Y-130640000D01*
X152392143Y-130640000D01*
X152535000Y-130711429D01*
X152606429Y-130782857D01*
X152677857Y-130925714D01*
X152677857Y-131282857D01*
X152606429Y-131425714D01*
X152535000Y-131497143D01*
X152392143Y-131568571D01*
X152035000Y-131568571D01*
X151892143Y-131497143D01*
X151820714Y-131425714D01*
X153606428Y-130068571D02*
X153749285Y-130068571D01*
X153892142Y-130140000D01*
X153963571Y-130211429D01*
X154035000Y-130354286D01*
X154106428Y-130640000D01*
X154106428Y-130997143D01*
X154035000Y-131282857D01*
X153963571Y-131425714D01*
X153892142Y-131497143D01*
X153749285Y-131568571D01*
X153606428Y-131568571D01*
X153463571Y-131497143D01*
X153392142Y-131425714D01*
X153320714Y-131282857D01*
X153249285Y-130997143D01*
X153249285Y-130640000D01*
X153320714Y-130354286D01*
X153392142Y-130211429D01*
X153463571Y-130140000D01*
X153606428Y-130068571D01*
X155892142Y-131568571D02*
X155892142Y-130568571D01*
X155892142Y-130711429D02*
X155963570Y-130640000D01*
X156106428Y-130568571D01*
X156320713Y-130568571D01*
X156463570Y-130640000D01*
X156534999Y-130782857D01*
X156534999Y-131568571D01*
X156534999Y-130782857D02*
X156606428Y-130640000D01*
X156749285Y-130568571D01*
X156963570Y-130568571D01*
X157106428Y-130640000D01*
X157177856Y-130782857D01*
X157177856Y-131568571D01*
X157892142Y-131568571D02*
X157892142Y-130568571D01*
X157892142Y-130711429D02*
X157963570Y-130640000D01*
X158106428Y-130568571D01*
X158320713Y-130568571D01*
X158463570Y-130640000D01*
X158534999Y-130782857D01*
X158534999Y-131568571D01*
X158534999Y-130782857D02*
X158606428Y-130640000D01*
X158749285Y-130568571D01*
X158963570Y-130568571D01*
X159106428Y-130640000D01*
X159177856Y-130782857D01*
X159177856Y-131568571D01*
X124460000Y-129540000D02*
X181610000Y-129540000D01*
X124460000Y-113030000D02*
X124460000Y-132240000D01*
X181610000Y-113030000D02*
X181610000Y-132240000D01*
X181610000Y-129540000D02*
X180483496Y-130126421D01*
X181610000Y-129540000D02*
X180483496Y-128953579D01*
X124460000Y-129540000D02*
X125586504Y-130126421D01*
X124460000Y-129540000D02*
X125586504Y-128953579D01*
X96864571Y-62365715D02*
X96936000Y-62437144D01*
X97007429Y-62580001D01*
X97007429Y-62937144D01*
X96936000Y-63080001D01*
X96864571Y-63151430D01*
X96721714Y-63222858D01*
X96578857Y-63222858D01*
X96364571Y-63151430D01*
X95507429Y-62294287D01*
X95507429Y-63222858D01*
X97007429Y-64151429D02*
X97007429Y-64294286D01*
X96936000Y-64437143D01*
X96864571Y-64508572D01*
X96721714Y-64580001D01*
X96436000Y-64651429D01*
X96078857Y-64651429D01*
X95793143Y-64580001D01*
X95650286Y-64508572D01*
X95578857Y-64437143D01*
X95507429Y-64294286D01*
X95507429Y-64151429D01*
X95578857Y-64008572D01*
X95650286Y-63937143D01*
X95793143Y-63865715D01*
X96078857Y-63794286D01*
X96436000Y-63794286D01*
X96721714Y-63865715D01*
X96864571Y-63937143D01*
X96936000Y-64008572D01*
X97007429Y-64151429D01*
X95578857Y-65365714D02*
X95507429Y-65365714D01*
X95364571Y-65294286D01*
X95293143Y-65222857D01*
X97007429Y-65865715D02*
X97007429Y-66794286D01*
X96436000Y-66294286D01*
X96436000Y-66508572D01*
X96364571Y-66651429D01*
X96293143Y-66722858D01*
X96150286Y-66794286D01*
X95793143Y-66794286D01*
X95650286Y-66722858D01*
X95578857Y-66651429D01*
X95507429Y-66508572D01*
X95507429Y-66080000D01*
X95578857Y-65937143D01*
X95650286Y-65865715D01*
X96864571Y-67365714D02*
X96936000Y-67437143D01*
X97007429Y-67580000D01*
X97007429Y-67937143D01*
X96936000Y-68080000D01*
X96864571Y-68151429D01*
X96721714Y-68222857D01*
X96578857Y-68222857D01*
X96364571Y-68151429D01*
X95507429Y-67294286D01*
X95507429Y-68222857D01*
X97007429Y-69151428D02*
X97007429Y-69294285D01*
X96936000Y-69437142D01*
X96864571Y-69508571D01*
X96721714Y-69580000D01*
X96436000Y-69651428D01*
X96078857Y-69651428D01*
X95793143Y-69580000D01*
X95650286Y-69508571D01*
X95578857Y-69437142D01*
X95507429Y-69294285D01*
X95507429Y-69151428D01*
X95578857Y-69008571D01*
X95650286Y-68937142D01*
X95793143Y-68865714D01*
X96078857Y-68794285D01*
X96436000Y-68794285D01*
X96721714Y-68865714D01*
X96864571Y-68937142D01*
X96936000Y-69008571D01*
X97007429Y-69151428D01*
X95507429Y-71437142D02*
X96507429Y-71437142D01*
X96364571Y-71437142D02*
X96436000Y-71508570D01*
X96507429Y-71651428D01*
X96507429Y-71865713D01*
X96436000Y-72008570D01*
X96293143Y-72079999D01*
X95507429Y-72079999D01*
X96293143Y-72079999D02*
X96436000Y-72151428D01*
X96507429Y-72294285D01*
X96507429Y-72508570D01*
X96436000Y-72651428D01*
X96293143Y-72722856D01*
X95507429Y-72722856D01*
X95507429Y-73437142D02*
X96507429Y-73437142D01*
X96364571Y-73437142D02*
X96436000Y-73508570D01*
X96507429Y-73651428D01*
X96507429Y-73865713D01*
X96436000Y-74008570D01*
X96293143Y-74079999D01*
X95507429Y-74079999D01*
X96293143Y-74079999D02*
X96436000Y-74151428D01*
X96507429Y-74294285D01*
X96507429Y-74508570D01*
X96436000Y-74651428D01*
X96293143Y-74722856D01*
X95507429Y-74722856D01*
X97536000Y-58420000D02*
X97536000Y-78740000D01*
X103124000Y-58420000D02*
X94836000Y-58420000D01*
X103124000Y-78740000D02*
X94836000Y-78740000D01*
X97536000Y-78740000D02*
X96949579Y-77613496D01*
X97536000Y-78740000D02*
X98122421Y-77613496D01*
X97536000Y-58420000D02*
X96949579Y-59546504D01*
X97536000Y-58420000D02*
X98122421Y-59546504D01*
X146328572Y-50128571D02*
X146614287Y-50128571D01*
X146757144Y-50057143D01*
X146828572Y-49985714D01*
X146971430Y-49771429D01*
X147042858Y-49485714D01*
X147042858Y-48914286D01*
X146971430Y-48771429D01*
X146900001Y-48700000D01*
X146757144Y-48628571D01*
X146471430Y-48628571D01*
X146328572Y-48700000D01*
X146257144Y-48771429D01*
X146185715Y-48914286D01*
X146185715Y-49271429D01*
X146257144Y-49414286D01*
X146328572Y-49485714D01*
X146471430Y-49557143D01*
X146757144Y-49557143D01*
X146900001Y-49485714D01*
X146971430Y-49414286D01*
X147042858Y-49271429D01*
X148328572Y-48628571D02*
X148042858Y-48628571D01*
X147900001Y-48700000D01*
X147828572Y-48771429D01*
X147685715Y-48985714D01*
X147614286Y-49271429D01*
X147614286Y-49842857D01*
X147685715Y-49985714D01*
X147757143Y-50057143D01*
X147900001Y-50128571D01*
X148185715Y-50128571D01*
X148328572Y-50057143D01*
X148400001Y-49985714D01*
X148471429Y-49842857D01*
X148471429Y-49485714D01*
X148400001Y-49342857D01*
X148328572Y-49271429D01*
X148185715Y-49200000D01*
X147900001Y-49200000D01*
X147757143Y-49271429D01*
X147685715Y-49342857D01*
X147614286Y-49485714D01*
X149185714Y-50057143D02*
X149185714Y-50128571D01*
X149114286Y-50271429D01*
X149042857Y-50342857D01*
X150542858Y-48628571D02*
X149828572Y-48628571D01*
X149757143Y-49342857D01*
X149828572Y-49271429D01*
X149971429Y-49200000D01*
X150328572Y-49200000D01*
X150471429Y-49271429D01*
X150542858Y-49342857D01*
X150614286Y-49485714D01*
X150614286Y-49842857D01*
X150542858Y-49985714D01*
X150471429Y-50057143D01*
X150328572Y-50128571D01*
X149971429Y-50128571D01*
X149828572Y-50057143D01*
X149757143Y-49985714D01*
X151185714Y-48771429D02*
X151257143Y-48700000D01*
X151400000Y-48628571D01*
X151757143Y-48628571D01*
X151900000Y-48700000D01*
X151971429Y-48771429D01*
X152042857Y-48914286D01*
X152042857Y-49057143D01*
X151971429Y-49271429D01*
X151114286Y-50128571D01*
X152042857Y-50128571D01*
X152971428Y-48628571D02*
X153114285Y-48628571D01*
X153257142Y-48700000D01*
X153328571Y-48771429D01*
X153400000Y-48914286D01*
X153471428Y-49200000D01*
X153471428Y-49557143D01*
X153400000Y-49842857D01*
X153328571Y-49985714D01*
X153257142Y-50057143D01*
X153114285Y-50128571D01*
X152971428Y-50128571D01*
X152828571Y-50057143D01*
X152757142Y-49985714D01*
X152685714Y-49842857D01*
X152614285Y-49557143D01*
X152614285Y-49200000D01*
X152685714Y-48914286D01*
X152757142Y-48771429D01*
X152828571Y-48700000D01*
X152971428Y-48628571D01*
X155257142Y-50128571D02*
X155257142Y-49128571D01*
X155257142Y-49271429D02*
X155328570Y-49200000D01*
X155471428Y-49128571D01*
X155685713Y-49128571D01*
X155828570Y-49200000D01*
X155899999Y-49342857D01*
X155899999Y-50128571D01*
X155899999Y-49342857D02*
X155971428Y-49200000D01*
X156114285Y-49128571D01*
X156328570Y-49128571D01*
X156471428Y-49200000D01*
X156542856Y-49342857D01*
X156542856Y-50128571D01*
X157257142Y-50128571D02*
X157257142Y-49128571D01*
X157257142Y-49271429D02*
X157328570Y-49200000D01*
X157471428Y-49128571D01*
X157685713Y-49128571D01*
X157828570Y-49200000D01*
X157899999Y-49342857D01*
X157899999Y-50128571D01*
X157899999Y-49342857D02*
X157971428Y-49200000D01*
X158114285Y-49128571D01*
X158328570Y-49128571D01*
X158471428Y-49200000D01*
X158542856Y-49342857D01*
X158542856Y-50128571D01*
X104140000Y-50800000D02*
X200660000Y-50800000D01*
X104140000Y-55880000D02*
X104140000Y-48100000D01*
X200660000Y-55880000D02*
X200660000Y-48100000D01*
X200660000Y-50800000D02*
X199533496Y-51386421D01*
X200660000Y-50800000D02*
X199533496Y-50213579D01*
X104140000Y-50800000D02*
X105266504Y-51386421D01*
X104140000Y-50800000D02*
X105266504Y-50213579D01*
M02*
