M48
;DRILL file {KiCad 4.0.2+dfsg1-stable} date Sun 02 Jun 2019 18:39:55 CEST
;FORMAT={-:-/ absolute / metric / decimal}
FMAT,2
METRIC,TZ
T1C0.300
T2C0.400
T3C0.500
T4C0.550
T5C0.910
T6C1.016
T7C3.048
T8C0.899
%
G90
G05
M71
T1
X118.626Y-75.149
X126.268Y-93.758
X130.664Y-80.978
T2
X127.303Y-91.737
X127.845Y-102.159
X131.008Y-103.355
X131.22Y-79.231
X131.383Y-96.903
X131.718Y-98.371
X132.349Y-78.933
X132.991Y-86.379
X133.525Y-73.559
X134.925Y-76.994
X135.023Y-80.902
X135.12Y-84.55
X135.756Y-73.568
X136.065Y-76.996
X136.325Y-79.62
X136.374Y-80.456
X138.028Y-85.488
X139.347Y-85.487
X139.588Y-88.11
X139.794Y-97.193
X140.074Y-79.627
X140.08Y-84.55
X140.1Y-80.657
X140.202Y-98.31
X140.226Y-103.352
X141.056Y-86.146
X141.41Y-78.933
X141.86Y-108.934
X142.374Y-76.509
X143.675Y-104.045
X143.811Y-91.883
X144.195Y-86.639
X145.224Y-68.177
X145.27Y-99.822
X147.437Y-97.214
X148.949Y-64.98
X152.306Y-115.112
X155.177Y-68.12
X155.948Y-99.296
X156.129Y-68.045
X157.68Y-109.42
X162.99Y-64.005
X164.125Y-95.682
X164.944Y-97.758
X165.102Y-65.614
X165.242Y-66.805
T5
X133.35Y-118.11
X133.35Y-120.65
X135.89Y-118.11
X135.89Y-120.65
X138.43Y-118.11
X138.43Y-120.65
X140.97Y-118.11
X140.97Y-120.65
X143.51Y-118.11
X143.51Y-120.65
X146.05Y-118.11
X146.05Y-120.65
X148.59Y-118.11
X148.59Y-120.65
X151.13Y-118.11
X151.13Y-120.65
X153.67Y-118.11
X153.67Y-120.65
X156.21Y-118.11
X156.21Y-120.65
X158.75Y-118.11
X158.75Y-120.65
X161.29Y-118.11
X161.29Y-120.65
X163.83Y-118.11
X163.83Y-120.65
X166.37Y-118.11
X166.37Y-120.65
X168.91Y-118.11
X168.91Y-120.65
X171.45Y-118.11
X171.45Y-120.65
X173.99Y-118.11
X173.99Y-120.65
T6
X116.84Y-66.04
X116.84Y-68.58
X116.84Y-71.12
X119.38Y-66.04
X119.38Y-68.58
X119.38Y-71.12
X124.46Y-118.11
X124.46Y-120.65
X154.94Y-78.74
X157.48Y-78.74
X160.02Y-78.74
X173.99Y-88.9
X176.53Y-88.9
X179.07Y-88.9
X181.61Y-88.9
X189.23Y-71.12
X191.77Y-71.12
X194.31Y-71.12
X196.85Y-71.12
T7
X107.95Y-61.722
X124.46Y-113.03
X181.61Y-62.23
X181.61Y-113.03
T8
X152.74Y-63.081
X157.14Y-63.081
T3
X164.141Y-59.498G85X164.141Y-60.148
G05
X171.141Y-59.498G85X171.141Y-60.148
G05
T4
X165.291Y-62.523G85X164.991Y-62.523
G05
X170.291Y-62.523G85X169.991Y-62.523
G05
T0
M30
