%TF.GenerationSoftware,KiCad,Pcbnew,4.0.2+dfsg1-stable*%
%TF.CreationDate,2018-12-23T20:21:32+01:00*%
%TF.ProjectId,usbavrfloppy,757362617672666C6F7070792E6B6963,rev?*%
%TF.FileFunction,Legend,Top*%
%FSLAX46Y46*%
G04 Gerber Fmt 4.6, Leading zero omitted, Abs format (unit mm)*
G04 Created by KiCad (PCBNEW 4.0.2+dfsg1-stable) date Sun 23 Dec 2018 20:21:32 CET*
%MOMM*%
G01*
G04 APERTURE LIST*
%ADD10C,0.100000*%
%ADD11C,0.200000*%
%ADD12C,0.120000*%
%ADD13C,0.300000*%
%ADD14C,0.150000*%
%ADD15C,0.010000*%
%ADD16R,2.100580X5.600700*%
%ADD17R,0.450000X1.750000*%
%ADD18R,1.300000X1.500000*%
%ADD19R,1.500000X1.300000*%
%ADD20R,0.800100X0.800100*%
%ADD21R,1.727200X2.032000*%
%ADD22O,1.727200X2.032000*%
%ADD23R,1.727200X1.727200*%
%ADD24O,1.727200X1.727200*%
%ADD25R,2.032000X2.032000*%
%ADD26O,2.032000X2.032000*%
%ADD27R,1.198880X1.198880*%
%ADD28R,1.500000X1.250000*%
%ADD29R,1.600200X2.999740*%
%ADD30R,1.250000X1.500000*%
%ADD31R,1.600000X0.550000*%
%ADD32R,0.550000X1.600000*%
%ADD33R,2.180000X1.600000*%
%ADD34R,0.400000X3.000000*%
%ADD35O,1.250000X0.950000*%
%ADD36O,1.000000X1.550000*%
%ADD37C,4.064000*%
%ADD38R,0.500380X3.000000*%
%ADD39R,1.998980X2.499360*%
%ADD40C,0.899160*%
%ADD41C,0.600000*%
G04 APERTURE END LIST*
D10*
D11*
X125603000Y-67310000D02*
G75*
G03X125603000Y-67310000I-127000J0D01*
G01*
X160274000Y-74930000D02*
G75*
G03X160274000Y-74930000I-127000J0D01*
G01*
X168148000Y-80772000D02*
G75*
G03X168148000Y-80772000I-127000J0D01*
G01*
X170180000Y-64262000D02*
G75*
G03X170180000Y-64262000I-127000J0D01*
G01*
X157607000Y-67691000D02*
G75*
G03X157607000Y-67691000I-127000J0D01*
G01*
D12*
X159195002Y-127226190D02*
X159195002Y-126726190D01*
X159195002Y-127202381D02*
X159128335Y-127226190D01*
X158995002Y-127226190D01*
X158928335Y-127202381D01*
X158895002Y-127178571D01*
X158861668Y-127130952D01*
X158861668Y-126988095D01*
X158895002Y-126940476D01*
X158928335Y-126916667D01*
X158995002Y-126892857D01*
X159128335Y-126892857D01*
X159195002Y-126916667D01*
X159795001Y-127202381D02*
X159728335Y-127226190D01*
X159595001Y-127226190D01*
X159528335Y-127202381D01*
X159495001Y-127154762D01*
X159495001Y-126964286D01*
X159528335Y-126916667D01*
X159595001Y-126892857D01*
X159728335Y-126892857D01*
X159795001Y-126916667D01*
X159828335Y-126964286D01*
X159828335Y-127011905D01*
X159495001Y-127059524D01*
X160095001Y-127202381D02*
X160161668Y-127226190D01*
X160295001Y-127226190D01*
X160361668Y-127202381D01*
X160395001Y-127154762D01*
X160395001Y-127130952D01*
X160361668Y-127083333D01*
X160295001Y-127059524D01*
X160195001Y-127059524D01*
X160128335Y-127035714D01*
X160095001Y-126988095D01*
X160095001Y-126964286D01*
X160128335Y-126916667D01*
X160195001Y-126892857D01*
X160295001Y-126892857D01*
X160361668Y-126916667D01*
X160695002Y-127226190D02*
X160695002Y-126892857D01*
X160695002Y-126726190D02*
X160661668Y-126750000D01*
X160695002Y-126773810D01*
X160728335Y-126750000D01*
X160695002Y-126726190D01*
X160695002Y-126773810D01*
X161328335Y-126892857D02*
X161328335Y-127297619D01*
X161295001Y-127345238D01*
X161261668Y-127369048D01*
X161195001Y-127392857D01*
X161095001Y-127392857D01*
X161028335Y-127369048D01*
X161328335Y-127202381D02*
X161261668Y-127226190D01*
X161128335Y-127226190D01*
X161061668Y-127202381D01*
X161028335Y-127178571D01*
X160995001Y-127130952D01*
X160995001Y-126988095D01*
X161028335Y-126940476D01*
X161061668Y-126916667D01*
X161128335Y-126892857D01*
X161261668Y-126892857D01*
X161328335Y-126916667D01*
X161661668Y-126892857D02*
X161661668Y-127226190D01*
X161661668Y-126940476D02*
X161695001Y-126916667D01*
X161761668Y-126892857D01*
X161861668Y-126892857D01*
X161928334Y-126916667D01*
X161961668Y-126964286D01*
X161961668Y-127226190D01*
X162561667Y-127202381D02*
X162495001Y-127226190D01*
X162361667Y-127226190D01*
X162295001Y-127202381D01*
X162261667Y-127154762D01*
X162261667Y-126964286D01*
X162295001Y-126916667D01*
X162361667Y-126892857D01*
X162495001Y-126892857D01*
X162561667Y-126916667D01*
X162595001Y-126964286D01*
X162595001Y-127011905D01*
X162261667Y-127059524D01*
X163195001Y-127226190D02*
X163195001Y-126726190D01*
X163195001Y-127202381D02*
X163128334Y-127226190D01*
X162995001Y-127226190D01*
X162928334Y-127202381D01*
X162895001Y-127178571D01*
X162861667Y-127130952D01*
X162861667Y-126988095D01*
X162895001Y-126940476D01*
X162928334Y-126916667D01*
X162995001Y-126892857D01*
X163128334Y-126892857D01*
X163195001Y-126916667D01*
X164061667Y-127226190D02*
X164061667Y-126726190D01*
X164061667Y-126916667D02*
X164128333Y-126892857D01*
X164261667Y-126892857D01*
X164328333Y-126916667D01*
X164361667Y-126940476D01*
X164395000Y-126988095D01*
X164395000Y-127130952D01*
X164361667Y-127178571D01*
X164328333Y-127202381D01*
X164261667Y-127226190D01*
X164128333Y-127226190D01*
X164061667Y-127202381D01*
X164628333Y-126892857D02*
X164795000Y-127226190D01*
X164961666Y-126892857D02*
X164795000Y-127226190D01*
X164728333Y-127345238D01*
X164695000Y-127369048D01*
X164628333Y-127392857D01*
X166161666Y-127226190D02*
X165928332Y-126988095D01*
X165761666Y-127226190D02*
X165761666Y-126726190D01*
X166028332Y-126726190D01*
X166094999Y-126750000D01*
X166128332Y-126773810D01*
X166161666Y-126821429D01*
X166161666Y-126892857D01*
X166128332Y-126940476D01*
X166094999Y-126964286D01*
X166028332Y-126988095D01*
X165761666Y-126988095D01*
X166461666Y-127178571D02*
X166494999Y-127202381D01*
X166461666Y-127226190D01*
X166428332Y-127202381D01*
X166461666Y-127178571D01*
X166461666Y-127226190D01*
X167161665Y-126750000D02*
X167094999Y-126726190D01*
X166994999Y-126726190D01*
X166894999Y-126750000D01*
X166828332Y-126797619D01*
X166794999Y-126845238D01*
X166761665Y-126940476D01*
X166761665Y-127011905D01*
X166794999Y-127107143D01*
X166828332Y-127154762D01*
X166894999Y-127202381D01*
X166994999Y-127226190D01*
X167061665Y-127226190D01*
X167161665Y-127202381D01*
X167194999Y-127178571D01*
X167194999Y-127011905D01*
X167061665Y-127011905D01*
X167494999Y-127178571D02*
X167528332Y-127202381D01*
X167494999Y-127226190D01*
X167461665Y-127202381D01*
X167494999Y-127178571D01*
X167494999Y-127226190D01*
D13*
X172775715Y-124908571D02*
X173704286Y-124908571D01*
X173204286Y-125480000D01*
X173418572Y-125480000D01*
X173561429Y-125551429D01*
X173632858Y-125622857D01*
X173704286Y-125765714D01*
X173704286Y-126122857D01*
X173632858Y-126265714D01*
X173561429Y-126337143D01*
X173418572Y-126408571D01*
X172990000Y-126408571D01*
X172847143Y-126337143D01*
X172775715Y-126265714D01*
X174204286Y-124908571D02*
X175132857Y-124908571D01*
X174632857Y-125480000D01*
X174847143Y-125480000D01*
X174990000Y-125551429D01*
X175061429Y-125622857D01*
X175132857Y-125765714D01*
X175132857Y-126122857D01*
X175061429Y-126265714D01*
X174990000Y-126337143D01*
X174847143Y-126408571D01*
X174418571Y-126408571D01*
X174275714Y-126337143D01*
X174204286Y-126265714D01*
X172775715Y-112208571D02*
X173704286Y-112208571D01*
X173204286Y-112780000D01*
X173418572Y-112780000D01*
X173561429Y-112851429D01*
X173632858Y-112922857D01*
X173704286Y-113065714D01*
X173704286Y-113422857D01*
X173632858Y-113565714D01*
X173561429Y-113637143D01*
X173418572Y-113708571D01*
X172990000Y-113708571D01*
X172847143Y-113637143D01*
X172775715Y-113565714D01*
X174990000Y-112708571D02*
X174990000Y-113708571D01*
X174632857Y-112137143D02*
X174275714Y-113208571D01*
X175204286Y-113208571D01*
X132921429Y-112351429D02*
X132992858Y-112280000D01*
X133135715Y-112208571D01*
X133492858Y-112208571D01*
X133635715Y-112280000D01*
X133707144Y-112351429D01*
X133778572Y-112494286D01*
X133778572Y-112637143D01*
X133707144Y-112851429D01*
X132850001Y-113708571D01*
X133778572Y-113708571D01*
X133778572Y-126408571D02*
X132921429Y-126408571D01*
X133350001Y-126408571D02*
X133350001Y-124908571D01*
X133207144Y-125122857D01*
X133064286Y-125265714D01*
X132921429Y-125337143D01*
D10*
X173766667Y-85976667D02*
X173433334Y-85976667D01*
X173400000Y-86310000D01*
X173433334Y-86276667D01*
X173500000Y-86243333D01*
X173666667Y-86243333D01*
X173733334Y-86276667D01*
X173766667Y-86310000D01*
X173800000Y-86376667D01*
X173800000Y-86543333D01*
X173766667Y-86610000D01*
X173733334Y-86643333D01*
X173666667Y-86676667D01*
X173500000Y-86676667D01*
X173433334Y-86643333D01*
X173400000Y-86610000D01*
X174000001Y-85976667D02*
X174233334Y-86676667D01*
X174466667Y-85976667D01*
X175600000Y-86010000D02*
X175533334Y-85976667D01*
X175433334Y-85976667D01*
X175333334Y-86010000D01*
X175266667Y-86076667D01*
X175233334Y-86143333D01*
X175200000Y-86276667D01*
X175200000Y-86376667D01*
X175233334Y-86510000D01*
X175266667Y-86576667D01*
X175333334Y-86643333D01*
X175433334Y-86676667D01*
X175500000Y-86676667D01*
X175600000Y-86643333D01*
X175633334Y-86610000D01*
X175633334Y-86376667D01*
X175500000Y-86376667D01*
X175933334Y-86676667D02*
X175933334Y-85976667D01*
X176333334Y-86676667D01*
X176333334Y-85976667D01*
X176666667Y-86676667D02*
X176666667Y-85976667D01*
X176833333Y-85976667D01*
X176933333Y-86010000D01*
X177000000Y-86076667D01*
X177033333Y-86143333D01*
X177066667Y-86276667D01*
X177066667Y-86376667D01*
X177033333Y-86510000D01*
X177000000Y-86576667D01*
X176933333Y-86643333D01*
X176833333Y-86676667D01*
X176666667Y-86676667D01*
X178266666Y-86010000D02*
X178200000Y-85976667D01*
X178100000Y-85976667D01*
X178000000Y-86010000D01*
X177933333Y-86076667D01*
X177900000Y-86143333D01*
X177866666Y-86276667D01*
X177866666Y-86376667D01*
X177900000Y-86510000D01*
X177933333Y-86576667D01*
X178000000Y-86643333D01*
X178100000Y-86676667D01*
X178166666Y-86676667D01*
X178266666Y-86643333D01*
X178300000Y-86610000D01*
X178300000Y-86376667D01*
X178166666Y-86376667D01*
X178600000Y-86676667D02*
X178600000Y-85976667D01*
X179000000Y-86676667D01*
X179000000Y-85976667D01*
X179333333Y-86676667D02*
X179333333Y-85976667D01*
X179499999Y-85976667D01*
X179599999Y-86010000D01*
X179666666Y-86076667D01*
X179699999Y-86143333D01*
X179733333Y-86276667D01*
X179733333Y-86376667D01*
X179699999Y-86510000D01*
X179666666Y-86576667D01*
X179599999Y-86643333D01*
X179499999Y-86676667D01*
X179333333Y-86676667D01*
X180933332Y-86676667D02*
X180533332Y-86676667D01*
X180733332Y-86676667D02*
X180733332Y-85976667D01*
X180666666Y-86076667D01*
X180599999Y-86143333D01*
X180533332Y-86176667D01*
X181199999Y-86043333D02*
X181233333Y-86010000D01*
X181299999Y-85976667D01*
X181466666Y-85976667D01*
X181533333Y-86010000D01*
X181566666Y-86043333D01*
X181599999Y-86110000D01*
X181599999Y-86176667D01*
X181566666Y-86276667D01*
X181166666Y-86676667D01*
X181599999Y-86676667D01*
X181800000Y-85976667D02*
X182033333Y-86676667D01*
X182266666Y-85976667D01*
D11*
X131572000Y-73914000D02*
G75*
G03X131572000Y-73914000I-254000J0D01*
G01*
X142748000Y-63754000D02*
X142748000Y-63500000D01*
X131572000Y-63500000D02*
X142748000Y-63500000D01*
X131572000Y-73406000D02*
X131572000Y-63500000D01*
X142748000Y-73406000D02*
X131572000Y-73406000D01*
X142748000Y-63500000D02*
X142748000Y-73406000D01*
X141986000Y-87122000D02*
G75*
G03X141986000Y-87122000I-254000J0D01*
G01*
X131572000Y-88138000D02*
X131572000Y-76962000D01*
X142748000Y-88138000D02*
X131572000Y-88138000D01*
X142748000Y-76962000D02*
X142748000Y-88138000D01*
X131572000Y-76962000D02*
X142748000Y-76962000D01*
D13*
X111550990Y-83935634D02*
X111702512Y-83077005D01*
X110944898Y-83329543D02*
X112005558Y-82268882D01*
X112409619Y-82672943D01*
X112460127Y-82824467D01*
X112460126Y-82925482D01*
X112409619Y-83077005D01*
X112258097Y-83228527D01*
X112106573Y-83279035D01*
X112005558Y-83279035D01*
X111854035Y-83228527D01*
X111449974Y-82824467D01*
X112914696Y-84188172D02*
X113015711Y-84390203D01*
X113015711Y-84491218D01*
X112965203Y-84642741D01*
X112813680Y-84794264D01*
X112662157Y-84844771D01*
X112561142Y-84844772D01*
X112409619Y-84794263D01*
X112005558Y-84390203D01*
X113066219Y-83329543D01*
X113419772Y-83683096D01*
X113470279Y-83834619D01*
X113470279Y-83935635D01*
X113419771Y-84087157D01*
X113318756Y-84188172D01*
X113167234Y-84238680D01*
X113066218Y-84238680D01*
X112914696Y-84188172D01*
X112561142Y-83834619D01*
X113571295Y-85955939D02*
X113066219Y-85450863D01*
X114126879Y-84390203D01*
X115187539Y-85450863D02*
X115288554Y-85551878D01*
X115339061Y-85703401D01*
X115339061Y-85804417D01*
X115288554Y-85955940D01*
X115137031Y-86208478D01*
X114884493Y-86461016D01*
X114631955Y-86612539D01*
X114480432Y-86663046D01*
X114379416Y-86663046D01*
X114227894Y-86612538D01*
X114126879Y-86511523D01*
X114076371Y-86360001D01*
X114076371Y-86258985D01*
X114126879Y-86107462D01*
X114278401Y-85854924D01*
X114530939Y-85602386D01*
X114783478Y-85450864D01*
X114935000Y-85400356D01*
X115036016Y-85400356D01*
X115187539Y-85450863D01*
X116197691Y-86461015D02*
X116298706Y-86562030D01*
X116349214Y-86713553D01*
X116349214Y-86814569D01*
X116298706Y-86966092D01*
X116147183Y-87218630D01*
X115894645Y-87471168D01*
X115642107Y-87622691D01*
X115490584Y-87673198D01*
X115389569Y-87673198D01*
X115238046Y-87622690D01*
X115137031Y-87521675D01*
X115086523Y-87370153D01*
X115086523Y-87269137D01*
X115137031Y-87117615D01*
X115288553Y-86865076D01*
X115541092Y-86612538D01*
X115793630Y-86461016D01*
X115945152Y-86410508D01*
X116046168Y-86410508D01*
X116197691Y-86461015D01*
X116904798Y-87168122D02*
X117561397Y-87824721D01*
X116803782Y-87875229D01*
X116955305Y-88026752D01*
X117005812Y-88178275D01*
X117005813Y-88279290D01*
X116955305Y-88430812D01*
X116702767Y-88683351D01*
X116551245Y-88733859D01*
X116450229Y-88733859D01*
X116298706Y-88683351D01*
X115995660Y-88380304D01*
X115945152Y-88228782D01*
X115945153Y-88127767D01*
X117056320Y-89238934D02*
X117056320Y-89339950D01*
X116955305Y-89339950D01*
X116955304Y-89238934D01*
X117056320Y-89238934D01*
X116955305Y-89339950D01*
X119026118Y-89289442D02*
X118521042Y-88784366D01*
X117965457Y-89238934D01*
X118066473Y-89238935D01*
X118217996Y-89289442D01*
X118470534Y-89541981D01*
X118521041Y-89693504D01*
X118521042Y-89794519D01*
X118470534Y-89946041D01*
X118217996Y-90198579D01*
X118066473Y-90249087D01*
X117965457Y-90249087D01*
X117813935Y-90198579D01*
X117561397Y-89946041D01*
X117510889Y-89794519D01*
X117510889Y-89693503D01*
D11*
X161787024Y-83986667D02*
X162263215Y-83986667D01*
X161656071Y-84272381D02*
X162114404Y-83272381D01*
X162322738Y-84272381D01*
X162656071Y-84272381D02*
X162781071Y-83272381D01*
X163025120Y-83986667D01*
X163447738Y-83272381D01*
X163322738Y-84272381D01*
X163798928Y-84272381D02*
X163923928Y-83272381D01*
X164917976Y-83320000D02*
X164828690Y-83272381D01*
X164685833Y-83272381D01*
X164537023Y-83320000D01*
X164429880Y-83415238D01*
X164370357Y-83510476D01*
X164298928Y-83700952D01*
X164281071Y-83843810D01*
X164304880Y-84034286D01*
X164340595Y-84129524D01*
X164423928Y-84224762D01*
X164560833Y-84272381D01*
X164656071Y-84272381D01*
X164804881Y-84224762D01*
X164858452Y-84177143D01*
X164900119Y-83843810D01*
X164709643Y-83843810D01*
X165263214Y-83986667D02*
X165739405Y-83986667D01*
X165132261Y-84272381D02*
X165590594Y-83272381D01*
X165798928Y-84272381D01*
X167292977Y-83748571D02*
X166959643Y-83748571D01*
X166894166Y-84272381D02*
X167019166Y-83272381D01*
X167495357Y-83272381D01*
X168227500Y-84272381D02*
X167751309Y-84272381D01*
X167876309Y-83272381D01*
X168876309Y-83272381D02*
X169066786Y-83272381D01*
X169156072Y-83320000D01*
X169239405Y-83415238D01*
X169263215Y-83605714D01*
X169221548Y-83939048D01*
X169150120Y-84129524D01*
X169042977Y-84224762D01*
X168941786Y-84272381D01*
X168751309Y-84272381D01*
X168662024Y-84224762D01*
X168578691Y-84129524D01*
X168554881Y-83939048D01*
X168596548Y-83605714D01*
X168667976Y-83415238D01*
X168775119Y-83320000D01*
X168876309Y-83272381D01*
X169608452Y-84272381D02*
X169733452Y-83272381D01*
X170114405Y-83272381D01*
X170203691Y-83320000D01*
X170245358Y-83367619D01*
X170281072Y-83462857D01*
X170263215Y-83605714D01*
X170203691Y-83700952D01*
X170150120Y-83748571D01*
X170048929Y-83796190D01*
X169667976Y-83796190D01*
X170608452Y-84272381D02*
X170733452Y-83272381D01*
X171114405Y-83272381D01*
X171203691Y-83320000D01*
X171245358Y-83367619D01*
X171281072Y-83462857D01*
X171263215Y-83605714D01*
X171203691Y-83700952D01*
X171150120Y-83748571D01*
X171048929Y-83796190D01*
X170667976Y-83796190D01*
X171858452Y-83796190D02*
X171798928Y-84272381D01*
X171590595Y-83272381D02*
X171858452Y-83796190D01*
X172257262Y-83272381D01*
X173227500Y-84272381D02*
X173352500Y-83272381D01*
X173590595Y-83272381D01*
X173727501Y-83320000D01*
X173810834Y-83415238D01*
X173846549Y-83510476D01*
X173870358Y-83700952D01*
X173852501Y-83843810D01*
X173781072Y-84034286D01*
X173721549Y-84129524D01*
X173614406Y-84224762D01*
X173465595Y-84272381D01*
X173227500Y-84272381D01*
X174227500Y-84272381D02*
X174352500Y-83272381D01*
X174662024Y-84224762D02*
X174798928Y-84272381D01*
X175037024Y-84272381D01*
X175138215Y-84224762D01*
X175191786Y-84177143D01*
X175251310Y-84081905D01*
X175263215Y-83986667D01*
X175227500Y-83891429D01*
X175185834Y-83843810D01*
X175096548Y-83796190D01*
X174912024Y-83748571D01*
X174822738Y-83700952D01*
X174781071Y-83653333D01*
X174745357Y-83558095D01*
X174757262Y-83462857D01*
X174816786Y-83367619D01*
X174870357Y-83320000D01*
X174971547Y-83272381D01*
X175209643Y-83272381D01*
X175346548Y-83320000D01*
X175656071Y-84272381D02*
X175781071Y-83272381D01*
X176227500Y-84272381D02*
X175870357Y-83700952D01*
X176352500Y-83272381D02*
X175709643Y-83843810D01*
X177406072Y-83986667D02*
X177882263Y-83986667D01*
X177275119Y-84272381D02*
X177733452Y-83272381D01*
X177941786Y-84272381D01*
X178275119Y-84272381D02*
X178400119Y-83272381D01*
X178638214Y-83272381D01*
X178775120Y-83320000D01*
X178858453Y-83415238D01*
X178894168Y-83510476D01*
X178917977Y-83700952D01*
X178900120Y-83843810D01*
X178828691Y-84034286D01*
X178769168Y-84129524D01*
X178662025Y-84224762D01*
X178513214Y-84272381D01*
X178275119Y-84272381D01*
X179673930Y-83748571D02*
X179340596Y-83748571D01*
X179275119Y-84272381D02*
X179400119Y-83272381D01*
X179876310Y-83272381D01*
X181465596Y-84272381D02*
X181191786Y-83796190D01*
X180894167Y-84272381D02*
X181019167Y-83272381D01*
X181400120Y-83272381D01*
X181489406Y-83320000D01*
X181531073Y-83367619D01*
X181566787Y-83462857D01*
X181548930Y-83605714D01*
X181489406Y-83700952D01*
X181435835Y-83748571D01*
X181334644Y-83796190D01*
X180953691Y-83796190D01*
X181959644Y-83748571D02*
X182292978Y-83748571D01*
X182370358Y-84272381D02*
X181894167Y-84272381D01*
X182019167Y-83272381D01*
X182495358Y-83272381D01*
X182787025Y-83986667D02*
X183263216Y-83986667D01*
X182656072Y-84272381D02*
X183114405Y-83272381D01*
X183322739Y-84272381D01*
X183656072Y-84272381D02*
X183781072Y-83272381D01*
X184019167Y-83272381D01*
X184156073Y-83320000D01*
X184239406Y-83415238D01*
X184275121Y-83510476D01*
X184298930Y-83700952D01*
X184281073Y-83843810D01*
X184209644Y-84034286D01*
X184150121Y-84129524D01*
X184042978Y-84224762D01*
X183894167Y-84272381D01*
X183656072Y-84272381D01*
X184721549Y-83748571D02*
X185054883Y-83748571D01*
X185132263Y-84272381D02*
X184656072Y-84272381D01*
X184781072Y-83272381D01*
X185257263Y-83272381D01*
X186132263Y-84272381D02*
X185858453Y-83796190D01*
X185560834Y-84272381D02*
X185685834Y-83272381D01*
X186066787Y-83272381D01*
X186156073Y-83320000D01*
X186197740Y-83367619D01*
X186233454Y-83462857D01*
X186215597Y-83605714D01*
X186156073Y-83700952D01*
X186102502Y-83748571D01*
X186001311Y-83796190D01*
X185620358Y-83796190D01*
X187406073Y-83224762D02*
X186388215Y-84510476D01*
X187638215Y-83272381D02*
X187751310Y-84272381D01*
X188031073Y-83558095D01*
X188132263Y-84272381D01*
X188495358Y-83272381D01*
X189322739Y-84272381D02*
X189048929Y-83796190D01*
X188751310Y-84272381D02*
X188876310Y-83272381D01*
X189257263Y-83272381D01*
X189346549Y-83320000D01*
X189388216Y-83367619D01*
X189423930Y-83462857D01*
X189406073Y-83605714D01*
X189346549Y-83700952D01*
X189292978Y-83748571D01*
X189191787Y-83796190D01*
X188810834Y-83796190D01*
X189751310Y-84272381D02*
X189876310Y-83272381D01*
X190209643Y-83272381D02*
X190781072Y-83272381D01*
X190370357Y-84272381D02*
X190495357Y-83272381D01*
X191054882Y-83748571D02*
X191388216Y-83748571D01*
X191465596Y-84272381D02*
X190989405Y-84272381D01*
X191114405Y-83272381D01*
X191590596Y-83272381D01*
X192465596Y-84272381D02*
X192191786Y-83796190D01*
X191894167Y-84272381D02*
X192019167Y-83272381D01*
X192400120Y-83272381D01*
X192489406Y-83320000D01*
X192531073Y-83367619D01*
X192566787Y-83462857D01*
X192548930Y-83605714D01*
X192489406Y-83700952D01*
X192435835Y-83748571D01*
X192334644Y-83796190D01*
X191953691Y-83796190D01*
D13*
X144189572Y-112795857D02*
X143689572Y-112795857D01*
X143689572Y-113581571D02*
X143689572Y-112081571D01*
X144403858Y-112081571D01*
X145689572Y-113581571D02*
X144975286Y-113581571D01*
X144975286Y-112081571D01*
X146475286Y-112081571D02*
X146761000Y-112081571D01*
X146903858Y-112153000D01*
X147046715Y-112295857D01*
X147118143Y-112581571D01*
X147118143Y-113081571D01*
X147046715Y-113367286D01*
X146903858Y-113510143D01*
X146761000Y-113581571D01*
X146475286Y-113581571D01*
X146332429Y-113510143D01*
X146189572Y-113367286D01*
X146118143Y-113081571D01*
X146118143Y-112581571D01*
X146189572Y-112295857D01*
X146332429Y-112153000D01*
X146475286Y-112081571D01*
X147761001Y-113581571D02*
X147761001Y-112081571D01*
X148332429Y-112081571D01*
X148475287Y-112153000D01*
X148546715Y-112224429D01*
X148618144Y-112367286D01*
X148618144Y-112581571D01*
X148546715Y-112724429D01*
X148475287Y-112795857D01*
X148332429Y-112867286D01*
X147761001Y-112867286D01*
X149261001Y-113581571D02*
X149261001Y-112081571D01*
X149832429Y-112081571D01*
X149975287Y-112153000D01*
X150046715Y-112224429D01*
X150118144Y-112367286D01*
X150118144Y-112581571D01*
X150046715Y-112724429D01*
X149975287Y-112795857D01*
X149832429Y-112867286D01*
X149261001Y-112867286D01*
X151046715Y-112867286D02*
X151046715Y-113581571D01*
X150546715Y-112081571D02*
X151046715Y-112867286D01*
X151546715Y-112081571D01*
X154046715Y-113438714D02*
X153975286Y-113510143D01*
X153761000Y-113581571D01*
X153618143Y-113581571D01*
X153403858Y-113510143D01*
X153261000Y-113367286D01*
X153189572Y-113224429D01*
X153118143Y-112938714D01*
X153118143Y-112724429D01*
X153189572Y-112438714D01*
X153261000Y-112295857D01*
X153403858Y-112153000D01*
X153618143Y-112081571D01*
X153761000Y-112081571D01*
X153975286Y-112153000D01*
X154046715Y-112224429D01*
X154618143Y-113153000D02*
X155332429Y-113153000D01*
X154475286Y-113581571D02*
X154975286Y-112081571D01*
X155475286Y-113581571D01*
X156475286Y-112795857D02*
X156689572Y-112867286D01*
X156761000Y-112938714D01*
X156832429Y-113081571D01*
X156832429Y-113295857D01*
X156761000Y-113438714D01*
X156689572Y-113510143D01*
X156546714Y-113581571D01*
X155975286Y-113581571D01*
X155975286Y-112081571D01*
X156475286Y-112081571D01*
X156618143Y-112153000D01*
X156689572Y-112224429D01*
X156761000Y-112367286D01*
X156761000Y-112510143D01*
X156689572Y-112653000D01*
X156618143Y-112724429D01*
X156475286Y-112795857D01*
X155975286Y-112795857D01*
X158189572Y-113581571D02*
X157475286Y-113581571D01*
X157475286Y-112081571D01*
X158689572Y-112795857D02*
X159189572Y-112795857D01*
X159403858Y-113581571D02*
X158689572Y-113581571D01*
X158689572Y-112081571D01*
X159403858Y-112081571D01*
X151725715Y-69028571D02*
X151725715Y-70242857D01*
X151797143Y-70385714D01*
X151868572Y-70457143D01*
X152011429Y-70528571D01*
X152297143Y-70528571D01*
X152440001Y-70457143D01*
X152511429Y-70385714D01*
X152582858Y-70242857D01*
X152582858Y-69028571D01*
X153225715Y-70457143D02*
X153440001Y-70528571D01*
X153797144Y-70528571D01*
X153940001Y-70457143D01*
X154011430Y-70385714D01*
X154082858Y-70242857D01*
X154082858Y-70100000D01*
X154011430Y-69957143D01*
X153940001Y-69885714D01*
X153797144Y-69814286D01*
X153511430Y-69742857D01*
X153368572Y-69671429D01*
X153297144Y-69600000D01*
X153225715Y-69457143D01*
X153225715Y-69314286D01*
X153297144Y-69171429D01*
X153368572Y-69100000D01*
X153511430Y-69028571D01*
X153868572Y-69028571D01*
X154082858Y-69100000D01*
X155225715Y-69742857D02*
X155440001Y-69814286D01*
X155511429Y-69885714D01*
X155582858Y-70028571D01*
X155582858Y-70242857D01*
X155511429Y-70385714D01*
X155440001Y-70457143D01*
X155297143Y-70528571D01*
X154725715Y-70528571D01*
X154725715Y-69028571D01*
X155225715Y-69028571D01*
X155368572Y-69100000D01*
X155440001Y-69171429D01*
X155511429Y-69314286D01*
X155511429Y-69457143D01*
X155440001Y-69600000D01*
X155368572Y-69671429D01*
X155225715Y-69742857D01*
X154725715Y-69742857D01*
X155868572Y-70671429D02*
X157011429Y-70671429D01*
X157868572Y-69742857D02*
X158082858Y-69814286D01*
X158154286Y-69885714D01*
X158225715Y-70028571D01*
X158225715Y-70242857D01*
X158154286Y-70385714D01*
X158082858Y-70457143D01*
X157940000Y-70528571D01*
X157368572Y-70528571D01*
X157368572Y-69028571D01*
X157868572Y-69028571D01*
X158011429Y-69100000D01*
X158082858Y-69171429D01*
X158154286Y-69314286D01*
X158154286Y-69457143D01*
X158082858Y-69600000D01*
X158011429Y-69671429D01*
X157868572Y-69742857D01*
X157368572Y-69742857D01*
X163068572Y-66488571D02*
X163068572Y-67702857D01*
X163140000Y-67845714D01*
X163211429Y-67917143D01*
X163354286Y-67988571D01*
X163640000Y-67988571D01*
X163782858Y-67917143D01*
X163854286Y-67845714D01*
X163925715Y-67702857D01*
X163925715Y-66488571D01*
X164568572Y-67917143D02*
X164782858Y-67988571D01*
X165140001Y-67988571D01*
X165282858Y-67917143D01*
X165354287Y-67845714D01*
X165425715Y-67702857D01*
X165425715Y-67560000D01*
X165354287Y-67417143D01*
X165282858Y-67345714D01*
X165140001Y-67274286D01*
X164854287Y-67202857D01*
X164711429Y-67131429D01*
X164640001Y-67060000D01*
X164568572Y-66917143D01*
X164568572Y-66774286D01*
X164640001Y-66631429D01*
X164711429Y-66560000D01*
X164854287Y-66488571D01*
X165211429Y-66488571D01*
X165425715Y-66560000D01*
X166568572Y-67202857D02*
X166782858Y-67274286D01*
X166854286Y-67345714D01*
X166925715Y-67488571D01*
X166925715Y-67702857D01*
X166854286Y-67845714D01*
X166782858Y-67917143D01*
X166640000Y-67988571D01*
X166068572Y-67988571D01*
X166068572Y-66488571D01*
X166568572Y-66488571D01*
X166711429Y-66560000D01*
X166782858Y-66631429D01*
X166854286Y-66774286D01*
X166854286Y-66917143D01*
X166782858Y-67060000D01*
X166711429Y-67131429D01*
X166568572Y-67202857D01*
X166068572Y-67202857D01*
X167211429Y-68131429D02*
X168354286Y-68131429D01*
X168997143Y-66488571D02*
X169282857Y-66488571D01*
X169425715Y-66560000D01*
X169568572Y-66702857D01*
X169640000Y-66988571D01*
X169640000Y-67488571D01*
X169568572Y-67774286D01*
X169425715Y-67917143D01*
X169282857Y-67988571D01*
X168997143Y-67988571D01*
X168854286Y-67917143D01*
X168711429Y-67774286D01*
X168640000Y-67488571D01*
X168640000Y-66988571D01*
X168711429Y-66702857D01*
X168854286Y-66560000D01*
X168997143Y-66488571D01*
X170068572Y-66488571D02*
X170925715Y-66488571D01*
X170497144Y-67988571D02*
X170497144Y-66488571D01*
X172211429Y-66560000D02*
X172068572Y-66488571D01*
X171854286Y-66488571D01*
X171640001Y-66560000D01*
X171497143Y-66702857D01*
X171425715Y-66845714D01*
X171354286Y-67131429D01*
X171354286Y-67345714D01*
X171425715Y-67631429D01*
X171497143Y-67774286D01*
X171640001Y-67917143D01*
X171854286Y-67988571D01*
X171997143Y-67988571D01*
X172211429Y-67917143D01*
X172282858Y-67845714D01*
X172282858Y-67345714D01*
X171997143Y-67345714D01*
D11*
X188532072Y-73985381D02*
X188074929Y-73985381D01*
X188303500Y-73985381D02*
X188303500Y-72985381D01*
X188227310Y-73128238D01*
X188151119Y-73223476D01*
X188074929Y-73271095D01*
X188836834Y-73080619D02*
X188874929Y-73033000D01*
X188951120Y-72985381D01*
X189141596Y-72985381D01*
X189217786Y-73033000D01*
X189255882Y-73080619D01*
X189293977Y-73175857D01*
X189293977Y-73271095D01*
X189255882Y-73413952D01*
X188798739Y-73985381D01*
X189293977Y-73985381D01*
X189522548Y-72985381D02*
X189789215Y-73985381D01*
X190055882Y-72985381D01*
X191351120Y-73033000D02*
X191274929Y-72985381D01*
X191160644Y-72985381D01*
X191046358Y-73033000D01*
X190970167Y-73128238D01*
X190932072Y-73223476D01*
X190893977Y-73413952D01*
X190893977Y-73556810D01*
X190932072Y-73747286D01*
X190970167Y-73842524D01*
X191046358Y-73937762D01*
X191160644Y-73985381D01*
X191236834Y-73985381D01*
X191351120Y-73937762D01*
X191389215Y-73890143D01*
X191389215Y-73556810D01*
X191236834Y-73556810D01*
X191732072Y-73985381D02*
X191732072Y-72985381D01*
X192189215Y-73985381D01*
X192189215Y-72985381D01*
X192570167Y-73985381D02*
X192570167Y-72985381D01*
X192760643Y-72985381D01*
X192874929Y-73033000D01*
X192951120Y-73128238D01*
X192989215Y-73223476D01*
X193027310Y-73413952D01*
X193027310Y-73556810D01*
X192989215Y-73747286D01*
X192951120Y-73842524D01*
X192874929Y-73937762D01*
X192760643Y-73985381D01*
X192570167Y-73985381D01*
X194398739Y-73033000D02*
X194322548Y-72985381D01*
X194208263Y-72985381D01*
X194093977Y-73033000D01*
X194017786Y-73128238D01*
X193979691Y-73223476D01*
X193941596Y-73413952D01*
X193941596Y-73556810D01*
X193979691Y-73747286D01*
X194017786Y-73842524D01*
X194093977Y-73937762D01*
X194208263Y-73985381D01*
X194284453Y-73985381D01*
X194398739Y-73937762D01*
X194436834Y-73890143D01*
X194436834Y-73556810D01*
X194284453Y-73556810D01*
X194779691Y-73985381D02*
X194779691Y-72985381D01*
X195236834Y-73985381D01*
X195236834Y-72985381D01*
X195617786Y-73985381D02*
X195617786Y-72985381D01*
X195808262Y-72985381D01*
X195922548Y-73033000D01*
X195998739Y-73128238D01*
X196036834Y-73223476D01*
X196074929Y-73413952D01*
X196074929Y-73556810D01*
X196036834Y-73747286D01*
X195998739Y-73842524D01*
X195922548Y-73937762D01*
X195808262Y-73985381D01*
X195617786Y-73985381D01*
X197408263Y-72985381D02*
X197027310Y-72985381D01*
X196989215Y-73461571D01*
X197027310Y-73413952D01*
X197103501Y-73366333D01*
X197293977Y-73366333D01*
X197370167Y-73413952D01*
X197408263Y-73461571D01*
X197446358Y-73556810D01*
X197446358Y-73794905D01*
X197408263Y-73890143D01*
X197370167Y-73937762D01*
X197293977Y-73985381D01*
X197103501Y-73985381D01*
X197027310Y-73937762D01*
X196989215Y-73890143D01*
X197674929Y-72985381D02*
X197941596Y-73985381D01*
X198208263Y-72985381D01*
X154927618Y-76028571D02*
X154927618Y-76561905D01*
X154584761Y-76028571D02*
X154584761Y-76447619D01*
X154622856Y-76523810D01*
X154699047Y-76561905D01*
X154813333Y-76561905D01*
X154889523Y-76523810D01*
X154927618Y-76485714D01*
X155270476Y-76523810D02*
X155346666Y-76561905D01*
X155499047Y-76561905D01*
X155575238Y-76523810D01*
X155613333Y-76447619D01*
X155613333Y-76409524D01*
X155575238Y-76333333D01*
X155499047Y-76295238D01*
X155384762Y-76295238D01*
X155308571Y-76257143D01*
X155270476Y-76180952D01*
X155270476Y-76142857D01*
X155308571Y-76066667D01*
X155384762Y-76028571D01*
X155499047Y-76028571D01*
X155575238Y-76066667D01*
X155956190Y-76561905D02*
X155956190Y-75761905D01*
X155956190Y-76066667D02*
X156032381Y-76028571D01*
X156184762Y-76028571D01*
X156260952Y-76066667D01*
X156299047Y-76104762D01*
X156337143Y-76180952D01*
X156337143Y-76409524D01*
X156299047Y-76485714D01*
X156260952Y-76523810D01*
X156184762Y-76561905D01*
X156032381Y-76561905D01*
X155956190Y-76523810D01*
X156489524Y-76638095D02*
X157099048Y-76638095D01*
X157289524Y-76028571D02*
X157289524Y-76828571D01*
X157289524Y-76066667D02*
X157365715Y-76028571D01*
X157518096Y-76028571D01*
X157594286Y-76066667D01*
X157632381Y-76104762D01*
X157670477Y-76180952D01*
X157670477Y-76409524D01*
X157632381Y-76485714D01*
X157594286Y-76523810D01*
X157518096Y-76561905D01*
X157365715Y-76561905D01*
X157289524Y-76523810D01*
X158127620Y-76561905D02*
X158051429Y-76523810D01*
X158013334Y-76485714D01*
X157975239Y-76409524D01*
X157975239Y-76180952D01*
X158013334Y-76104762D01*
X158051429Y-76066667D01*
X158127620Y-76028571D01*
X158241906Y-76028571D01*
X158318096Y-76066667D01*
X158356191Y-76104762D01*
X158394287Y-76180952D01*
X158394287Y-76409524D01*
X158356191Y-76485714D01*
X158318096Y-76523810D01*
X158241906Y-76561905D01*
X158127620Y-76561905D01*
X158660954Y-76028571D02*
X158813335Y-76561905D01*
X158965716Y-76180952D01*
X159118097Y-76561905D01*
X159270478Y-76028571D01*
X159880001Y-76523810D02*
X159803811Y-76561905D01*
X159651430Y-76561905D01*
X159575239Y-76523810D01*
X159537144Y-76447619D01*
X159537144Y-76142857D01*
X159575239Y-76066667D01*
X159651430Y-76028571D01*
X159803811Y-76028571D01*
X159880001Y-76066667D01*
X159918096Y-76142857D01*
X159918096Y-76219048D01*
X159537144Y-76295238D01*
X160260953Y-76561905D02*
X160260953Y-76028571D01*
X160260953Y-76180952D02*
X160299048Y-76104762D01*
X160337144Y-76066667D01*
X160413334Y-76028571D01*
X160489525Y-76028571D01*
X172657143Y-91368571D02*
X172323809Y-91368571D01*
X172323809Y-91892381D02*
X172323809Y-90892381D01*
X172800000Y-90892381D01*
X173657143Y-91892381D02*
X173180952Y-91892381D01*
X173180952Y-90892381D01*
X174180952Y-90892381D02*
X174371429Y-90892381D01*
X174466667Y-90940000D01*
X174561905Y-91035238D01*
X174609524Y-91225714D01*
X174609524Y-91559048D01*
X174561905Y-91749524D01*
X174466667Y-91844762D01*
X174371429Y-91892381D01*
X174180952Y-91892381D01*
X174085714Y-91844762D01*
X173990476Y-91749524D01*
X173942857Y-91559048D01*
X173942857Y-91225714D01*
X173990476Y-91035238D01*
X174085714Y-90940000D01*
X174180952Y-90892381D01*
X175038095Y-91892381D02*
X175038095Y-90892381D01*
X175419048Y-90892381D01*
X175514286Y-90940000D01*
X175561905Y-90987619D01*
X175609524Y-91082857D01*
X175609524Y-91225714D01*
X175561905Y-91320952D01*
X175514286Y-91368571D01*
X175419048Y-91416190D01*
X175038095Y-91416190D01*
X176038095Y-91892381D02*
X176038095Y-90892381D01*
X176419048Y-90892381D01*
X176514286Y-90940000D01*
X176561905Y-90987619D01*
X176609524Y-91082857D01*
X176609524Y-91225714D01*
X176561905Y-91320952D01*
X176514286Y-91368571D01*
X176419048Y-91416190D01*
X176038095Y-91416190D01*
X177228571Y-91416190D02*
X177228571Y-91892381D01*
X176895238Y-90892381D02*
X177228571Y-91416190D01*
X177561905Y-90892381D01*
X178657143Y-91892381D02*
X178657143Y-90892381D01*
X179038096Y-90892381D01*
X179133334Y-90940000D01*
X179180953Y-90987619D01*
X179228572Y-91082857D01*
X179228572Y-91225714D01*
X179180953Y-91320952D01*
X179133334Y-91368571D01*
X179038096Y-91416190D01*
X178657143Y-91416190D01*
X179847619Y-90892381D02*
X180038096Y-90892381D01*
X180133334Y-90940000D01*
X180228572Y-91035238D01*
X180276191Y-91225714D01*
X180276191Y-91559048D01*
X180228572Y-91749524D01*
X180133334Y-91844762D01*
X180038096Y-91892381D01*
X179847619Y-91892381D01*
X179752381Y-91844762D01*
X179657143Y-91749524D01*
X179609524Y-91559048D01*
X179609524Y-91225714D01*
X179657143Y-91035238D01*
X179752381Y-90940000D01*
X179847619Y-90892381D01*
X180609524Y-90892381D02*
X180847619Y-91892381D01*
X181038096Y-91178095D01*
X181228572Y-91892381D01*
X181466667Y-90892381D01*
X181847619Y-91368571D02*
X182180953Y-91368571D01*
X182323810Y-91892381D02*
X181847619Y-91892381D01*
X181847619Y-90892381D01*
X182323810Y-90892381D01*
X183323810Y-91892381D02*
X182990476Y-91416190D01*
X182752381Y-91892381D02*
X182752381Y-90892381D01*
X183133334Y-90892381D01*
X183228572Y-90940000D01*
X183276191Y-90987619D01*
X183323810Y-91082857D01*
X183323810Y-91225714D01*
X183276191Y-91320952D01*
X183228572Y-91368571D01*
X183133334Y-91416190D01*
X182752381Y-91416190D01*
D13*
X188432857Y-76878571D02*
X188432857Y-75378571D01*
X189004285Y-75378571D01*
X189147143Y-75450000D01*
X189218571Y-75521429D01*
X189290000Y-75664286D01*
X189290000Y-75878571D01*
X189218571Y-76021429D01*
X189147143Y-76092857D01*
X189004285Y-76164286D01*
X188432857Y-76164286D01*
X190218571Y-75378571D02*
X190504285Y-75378571D01*
X190647143Y-75450000D01*
X190790000Y-75592857D01*
X190861428Y-75878571D01*
X190861428Y-76378571D01*
X190790000Y-76664286D01*
X190647143Y-76807143D01*
X190504285Y-76878571D01*
X190218571Y-76878571D01*
X190075714Y-76807143D01*
X189932857Y-76664286D01*
X189861428Y-76378571D01*
X189861428Y-75878571D01*
X189932857Y-75592857D01*
X190075714Y-75450000D01*
X190218571Y-75378571D01*
X191361429Y-75378571D02*
X191718572Y-76878571D01*
X192004286Y-75807143D01*
X192290000Y-76878571D01*
X192647143Y-75378571D01*
X193218572Y-76092857D02*
X193718572Y-76092857D01*
X193932858Y-76878571D02*
X193218572Y-76878571D01*
X193218572Y-75378571D01*
X193932858Y-75378571D01*
X195432858Y-76878571D02*
X194932858Y-76164286D01*
X194575715Y-76878571D02*
X194575715Y-75378571D01*
X195147143Y-75378571D01*
X195290001Y-75450000D01*
X195361429Y-75521429D01*
X195432858Y-75664286D01*
X195432858Y-75878571D01*
X195361429Y-76021429D01*
X195290001Y-76092857D01*
X195147143Y-76164286D01*
X194575715Y-76164286D01*
X196075715Y-76878571D02*
X196075715Y-75378571D01*
X196790001Y-76878571D02*
X196790001Y-75378571D01*
X197647144Y-76878571D01*
X197647144Y-75378571D01*
D11*
X112443143Y-62480000D02*
X113157429Y-62480000D01*
X112300286Y-62908571D02*
X112800286Y-61408571D01*
X113300286Y-62908571D01*
X113586000Y-61408571D02*
X114086000Y-62908571D01*
X114586000Y-61408571D01*
X115943143Y-62908571D02*
X115443143Y-62194286D01*
X115086000Y-62908571D02*
X115086000Y-61408571D01*
X115657428Y-61408571D01*
X115800286Y-61480000D01*
X115871714Y-61551429D01*
X115943143Y-61694286D01*
X115943143Y-61908571D01*
X115871714Y-62051429D01*
X115800286Y-62122857D01*
X115657428Y-62194286D01*
X115086000Y-62194286D01*
X116228857Y-63051429D02*
X117371714Y-63051429D01*
X117728857Y-62908571D02*
X117728857Y-61408571D01*
X118371714Y-62837143D02*
X118586000Y-62908571D01*
X118943143Y-62908571D01*
X119086000Y-62837143D01*
X119157429Y-62765714D01*
X119228857Y-62622857D01*
X119228857Y-62480000D01*
X119157429Y-62337143D01*
X119086000Y-62265714D01*
X118943143Y-62194286D01*
X118657429Y-62122857D01*
X118514571Y-62051429D01*
X118443143Y-61980000D01*
X118371714Y-61837143D01*
X118371714Y-61694286D01*
X118443143Y-61551429D01*
X118514571Y-61480000D01*
X118657429Y-61408571D01*
X119014571Y-61408571D01*
X119228857Y-61480000D01*
X119871714Y-62908571D02*
X119871714Y-61408571D01*
X120443142Y-61408571D01*
X120586000Y-61480000D01*
X120657428Y-61551429D01*
X120728857Y-61694286D01*
X120728857Y-61908571D01*
X120657428Y-62051429D01*
X120586000Y-62122857D01*
X120443142Y-62194286D01*
X119871714Y-62194286D01*
D14*
X144820640Y-76700380D02*
X144820640Y-88399620D01*
X149819360Y-88399620D02*
X149819360Y-76700380D01*
X144820640Y-88399620D02*
X145669000Y-88399620D01*
X149819360Y-88399620D02*
X148971000Y-88399620D01*
X144820640Y-76700380D02*
X145669000Y-76700380D01*
X149819360Y-76700380D02*
X148971000Y-76700380D01*
X131835000Y-71455000D02*
X132485000Y-71455000D01*
X131835000Y-65705000D02*
X132485000Y-65705000D01*
X142485000Y-65705000D02*
X141835000Y-65705000D01*
X142485000Y-71455000D02*
X141835000Y-71455000D01*
X131835000Y-71455000D02*
X131835000Y-65705000D01*
X142485000Y-71455000D02*
X142485000Y-65705000D01*
X132485000Y-71455000D02*
X132485000Y-73055000D01*
X151525000Y-107280000D02*
X151525000Y-106080000D01*
X153275000Y-106080000D02*
X153275000Y-107280000D01*
X140095000Y-107280000D02*
X140095000Y-106080000D01*
X141845000Y-106080000D02*
X141845000Y-107280000D01*
X128665000Y-107280000D02*
X128665000Y-106080000D01*
X130415000Y-106080000D02*
X130415000Y-107280000D01*
X180735000Y-97120000D02*
X180735000Y-95920000D01*
X182485000Y-95920000D02*
X182485000Y-97120000D01*
X144180000Y-101995000D02*
X145380000Y-101995000D01*
X145380000Y-103745000D02*
X144180000Y-103745000D01*
X134020000Y-101995000D02*
X135220000Y-101995000D01*
X135220000Y-103745000D02*
X134020000Y-103745000D01*
X126330000Y-103745000D02*
X125130000Y-103745000D01*
X125130000Y-101995000D02*
X126330000Y-101995000D01*
X177200000Y-99455000D02*
X178400000Y-99455000D01*
X178400000Y-101205000D02*
X177200000Y-101205000D01*
X171845000Y-97120000D02*
X171845000Y-95920000D01*
X173595000Y-95920000D02*
X173595000Y-97120000D01*
X162955000Y-97120000D02*
X162955000Y-95920000D01*
X164705000Y-95920000D02*
X164705000Y-97120000D01*
X154065000Y-97120000D02*
X154065000Y-95920000D01*
X155815000Y-95920000D02*
X155815000Y-97120000D01*
X145175000Y-97120000D02*
X145175000Y-95920000D01*
X146925000Y-95920000D02*
X146925000Y-97120000D01*
X136285000Y-97120000D02*
X136285000Y-95920000D01*
X138035000Y-95920000D02*
X138035000Y-97120000D01*
X168310000Y-99455000D02*
X169510000Y-99455000D01*
X169510000Y-101205000D02*
X168310000Y-101205000D01*
X159420000Y-99455000D02*
X160620000Y-99455000D01*
X160620000Y-101205000D02*
X159420000Y-101205000D01*
X150530000Y-99455000D02*
X151730000Y-99455000D01*
X151730000Y-101205000D02*
X150530000Y-101205000D01*
X141640000Y-99455000D02*
X142840000Y-99455000D01*
X142840000Y-101205000D02*
X141640000Y-101205000D01*
X132750000Y-99455000D02*
X133950000Y-99455000D01*
X133950000Y-101205000D02*
X132750000Y-101205000D01*
X127395000Y-97120000D02*
X127395000Y-95920000D01*
X129145000Y-95920000D02*
X129145000Y-97120000D01*
X125130000Y-99455000D02*
X126330000Y-99455000D01*
X126330000Y-101205000D02*
X125130000Y-101205000D01*
X130415000Y-64170000D02*
X130415000Y-65370000D01*
X128665000Y-65370000D02*
X128665000Y-64170000D01*
X146669760Y-105380840D02*
X146669760Y-105429100D01*
X147370800Y-108179820D02*
X146669760Y-108179820D01*
X146669760Y-108179820D02*
X146669760Y-107930900D01*
X146669760Y-105380840D02*
X146669760Y-105180180D01*
X146669760Y-105180180D02*
X147370800Y-105180180D01*
X135239760Y-105380840D02*
X135239760Y-105429100D01*
X135940800Y-108179820D02*
X135239760Y-108179820D01*
X135239760Y-108179820D02*
X135239760Y-107930900D01*
X135239760Y-105380840D02*
X135239760Y-105180180D01*
X135239760Y-105180180D02*
X135940800Y-105180180D01*
X125079760Y-105380840D02*
X125079760Y-105429100D01*
X125780800Y-108179820D02*
X125079760Y-108179820D01*
X125079760Y-108179820D02*
X125079760Y-107930900D01*
X125079760Y-105380840D02*
X125079760Y-105180180D01*
X125079760Y-105180180D02*
X125780800Y-105180180D01*
X178450240Y-97819160D02*
X178450240Y-97770900D01*
X177749200Y-95020180D02*
X178450240Y-95020180D01*
X178450240Y-95020180D02*
X178450240Y-95269100D01*
X178450240Y-97819160D02*
X178450240Y-98019820D01*
X178450240Y-98019820D02*
X177749200Y-98019820D01*
X169560240Y-97819160D02*
X169560240Y-97770900D01*
X168859200Y-95020180D02*
X169560240Y-95020180D01*
X169560240Y-95020180D02*
X169560240Y-95269100D01*
X169560240Y-97819160D02*
X169560240Y-98019820D01*
X169560240Y-98019820D02*
X168859200Y-98019820D01*
X160670240Y-97819160D02*
X160670240Y-97770900D01*
X159969200Y-95020180D02*
X160670240Y-95020180D01*
X160670240Y-95020180D02*
X160670240Y-95269100D01*
X160670240Y-97819160D02*
X160670240Y-98019820D01*
X160670240Y-98019820D02*
X159969200Y-98019820D01*
X151780240Y-97819160D02*
X151780240Y-97770900D01*
X151079200Y-95020180D02*
X151780240Y-95020180D01*
X151780240Y-95020180D02*
X151780240Y-95269100D01*
X151780240Y-97819160D02*
X151780240Y-98019820D01*
X151780240Y-98019820D02*
X151079200Y-98019820D01*
X142890240Y-97819160D02*
X142890240Y-97770900D01*
X142189200Y-95020180D02*
X142890240Y-95020180D01*
X142890240Y-95020180D02*
X142890240Y-95269100D01*
X142890240Y-97819160D02*
X142890240Y-98019820D01*
X142890240Y-98019820D02*
X142189200Y-98019820D01*
X134000240Y-97819160D02*
X134000240Y-97770900D01*
X133299200Y-95020180D02*
X134000240Y-95020180D01*
X134000240Y-95020180D02*
X134000240Y-95269100D01*
X134000240Y-97819160D02*
X134000240Y-98019820D01*
X134000240Y-98019820D02*
X133299200Y-98019820D01*
X125110240Y-97819160D02*
X125110240Y-97770900D01*
X124409200Y-95020180D02*
X125110240Y-95020180D01*
X125110240Y-95020180D02*
X125110240Y-95269100D01*
X125110240Y-97819160D02*
X125110240Y-98019820D01*
X125110240Y-98019820D02*
X124409200Y-98019820D01*
X158750000Y-77470000D02*
X153670000Y-77470000D01*
X153670000Y-77470000D02*
X153670000Y-80010000D01*
X153670000Y-80010000D02*
X158750000Y-80010000D01*
X161570000Y-80290000D02*
X160020000Y-80290000D01*
X158750000Y-80010000D02*
X158750000Y-77470000D01*
X160020000Y-77190000D02*
X161570000Y-77190000D01*
X161570000Y-77190000D02*
X161570000Y-80290000D01*
X187680000Y-72420000D02*
X189230000Y-72420000D01*
X187680000Y-71120000D02*
X187680000Y-72420000D01*
X189103000Y-66929000D02*
X189103000Y-61087000D01*
X189103000Y-61087000D02*
X189357000Y-61087000D01*
X189357000Y-61087000D02*
X189357000Y-66929000D01*
X189357000Y-66929000D02*
X189230000Y-66929000D01*
X189230000Y-66929000D02*
X189230000Y-61087000D01*
X188976000Y-69596000D02*
X188976000Y-69977000D01*
X189484000Y-69596000D02*
X189484000Y-69977000D01*
X191516000Y-69596000D02*
X191516000Y-69977000D01*
X192024000Y-69596000D02*
X192024000Y-69977000D01*
X194056000Y-69596000D02*
X194056000Y-69977000D01*
X194564000Y-69596000D02*
X194564000Y-69977000D01*
X197104000Y-69596000D02*
X197104000Y-69977000D01*
X196596000Y-69596000D02*
X196596000Y-69977000D01*
X187960000Y-69596000D02*
X187960000Y-67056000D01*
X190500000Y-69596000D02*
X190500000Y-67056000D01*
X190500000Y-69596000D02*
X193040000Y-69596000D01*
X193040000Y-69596000D02*
X193040000Y-67056000D01*
X191516000Y-67056000D02*
X191516000Y-60960000D01*
X191516000Y-60960000D02*
X192024000Y-60960000D01*
X192024000Y-60960000D02*
X192024000Y-67056000D01*
X193040000Y-67056000D02*
X190500000Y-67056000D01*
X190500000Y-67056000D02*
X187960000Y-67056000D01*
X189484000Y-60960000D02*
X189484000Y-67056000D01*
X188976000Y-60960000D02*
X189484000Y-60960000D01*
X188976000Y-67056000D02*
X188976000Y-60960000D01*
X190500000Y-69596000D02*
X190500000Y-67056000D01*
X187960000Y-69596000D02*
X190500000Y-69596000D01*
X195580000Y-69596000D02*
X195580000Y-67056000D01*
X195580000Y-69596000D02*
X198120000Y-69596000D01*
X198120000Y-69596000D02*
X198120000Y-67056000D01*
X196596000Y-67056000D02*
X196596000Y-60960000D01*
X196596000Y-60960000D02*
X197104000Y-60960000D01*
X197104000Y-60960000D02*
X197104000Y-67056000D01*
X198120000Y-67056000D02*
X195580000Y-67056000D01*
X195580000Y-67056000D02*
X193040000Y-67056000D01*
X194564000Y-60960000D02*
X194564000Y-67056000D01*
X194056000Y-60960000D02*
X194564000Y-60960000D01*
X194056000Y-67056000D02*
X194056000Y-60960000D01*
X195580000Y-69596000D02*
X195580000Y-67056000D01*
X193040000Y-69596000D02*
X195580000Y-69596000D01*
X193040000Y-69596000D02*
X193040000Y-67056000D01*
X175260000Y-90170000D02*
X182880000Y-90170000D01*
X175260000Y-87630000D02*
X182880000Y-87630000D01*
X172440000Y-87350000D02*
X173990000Y-87350000D01*
X182880000Y-90170000D02*
X182880000Y-87630000D01*
X175260000Y-87630000D02*
X175260000Y-90170000D01*
X173990000Y-90450000D02*
X172440000Y-90450000D01*
X172440000Y-90450000D02*
X172440000Y-87350000D01*
X128270000Y-114830000D02*
X179070000Y-114830000D01*
X128810000Y-115380000D02*
X178510000Y-115380000D01*
X128270000Y-123930000D02*
X179070000Y-123930000D01*
X128810000Y-123380000D02*
X151420000Y-123380000D01*
X155920000Y-123380000D02*
X178510000Y-123380000D01*
X151420000Y-123380000D02*
X151420000Y-123930000D01*
X155920000Y-123380000D02*
X155920000Y-123930000D01*
X128270000Y-114830000D02*
X128270000Y-123930000D01*
X128810000Y-115380000D02*
X128810000Y-123380000D01*
X179070000Y-114830000D02*
X179070000Y-123930000D01*
X178510000Y-115380000D02*
X178510000Y-123380000D01*
X128270000Y-114830000D02*
X128810000Y-115380000D01*
X179070000Y-114830000D02*
X178510000Y-115380000D01*
X128270000Y-123930000D02*
X128810000Y-123380000D01*
X179070000Y-123930000D02*
X178510000Y-123380000D01*
X125730000Y-119380000D02*
X125730000Y-121920000D01*
X126010000Y-116560000D02*
X126010000Y-118110000D01*
X125730000Y-119380000D02*
X123190000Y-119380000D01*
X122910000Y-118110000D02*
X122910000Y-116560000D01*
X122910000Y-116560000D02*
X126010000Y-116560000D01*
X123190000Y-119380000D02*
X123190000Y-121920000D01*
X123190000Y-121920000D02*
X125730000Y-121920000D01*
X126060000Y-65290000D02*
X123360000Y-65290000D01*
X126060000Y-66790000D02*
X123360000Y-66790000D01*
X124560000Y-65890000D02*
X124560000Y-66140000D01*
X124560000Y-66140000D02*
X124710000Y-65990000D01*
X124810000Y-66390000D02*
X124810000Y-65690000D01*
X124460000Y-66040000D02*
X124110000Y-66040000D01*
X124810000Y-66040000D02*
X124460000Y-66390000D01*
X124460000Y-66390000D02*
X124460000Y-65690000D01*
X124460000Y-65690000D02*
X124810000Y-66040000D01*
X117856000Y-65786000D02*
X118364000Y-65786000D01*
X117856000Y-66294000D02*
X118364000Y-66294000D01*
X117856000Y-68326000D02*
X118364000Y-68326000D01*
X117856000Y-68834000D02*
X118364000Y-68834000D01*
X117856000Y-70866000D02*
X118364000Y-70866000D01*
X117856000Y-71374000D02*
X118364000Y-71374000D01*
X115316000Y-68834000D02*
X115824000Y-68834000D01*
X115316000Y-68326000D02*
X115824000Y-68326000D01*
X115316000Y-66294000D02*
X115824000Y-66294000D01*
X115316000Y-65786000D02*
X115824000Y-65786000D01*
X115316000Y-71374000D02*
X115824000Y-71374000D01*
X115316000Y-70866000D02*
X115824000Y-70866000D01*
X119380000Y-72670000D02*
X120530000Y-72670000D01*
X120530000Y-72670000D02*
X120530000Y-71120000D01*
X112776000Y-71247000D02*
X106807000Y-71247000D01*
X106807000Y-71247000D02*
X106807000Y-70993000D01*
X106807000Y-70993000D02*
X112649000Y-70993000D01*
X112649000Y-70993000D02*
X112649000Y-71120000D01*
X112649000Y-71120000D02*
X106807000Y-71120000D01*
X115316000Y-69850000D02*
X115316000Y-67310000D01*
X115316000Y-67310000D02*
X112776000Y-67310000D01*
X112776000Y-68834000D02*
X106680000Y-68834000D01*
X106680000Y-68834000D02*
X106680000Y-68326000D01*
X106680000Y-68326000D02*
X112776000Y-68326000D01*
X112776000Y-67310000D02*
X112776000Y-69850000D01*
X115316000Y-64770000D02*
X112776000Y-64770000D01*
X112776000Y-64770000D02*
X112776000Y-67310000D01*
X106680000Y-65786000D02*
X112776000Y-65786000D01*
X106680000Y-66294000D02*
X106680000Y-65786000D01*
X112776000Y-66294000D02*
X106680000Y-66294000D01*
X115316000Y-64770000D02*
X112776000Y-64770000D01*
X115316000Y-67310000D02*
X115316000Y-64770000D01*
X115316000Y-67310000D02*
X112776000Y-67310000D01*
X115316000Y-69850000D02*
X112776000Y-69850000D01*
X112776000Y-69850000D02*
X112776000Y-72390000D01*
X106680000Y-70866000D02*
X112776000Y-70866000D01*
X106680000Y-71374000D02*
X106680000Y-70866000D01*
X112776000Y-71374000D02*
X106680000Y-71374000D01*
X115316000Y-69850000D02*
X112776000Y-69850000D01*
X115316000Y-72390000D02*
X115316000Y-69850000D01*
X115316000Y-72390000D02*
X112776000Y-72390000D01*
X123960000Y-77050000D02*
X124960000Y-77050000D01*
X124960000Y-75350000D02*
X123960000Y-75350000D01*
X126365000Y-84836000D02*
X127762000Y-84836000D01*
X126111000Y-84709000D02*
X127889000Y-84709000D01*
X125730000Y-84582000D02*
X128270000Y-84582000D01*
X128397000Y-84455000D02*
X125603000Y-84455000D01*
X125476000Y-84328000D02*
X128524000Y-84328000D01*
X128651000Y-84201000D02*
X125349000Y-84201000D01*
X125222000Y-84074000D02*
X128778000Y-84074000D01*
X124333000Y-85217000D02*
X124333000Y-80645000D01*
X124333000Y-80645000D02*
X125095000Y-79883000D01*
X125095000Y-79883000D02*
X128905000Y-79883000D01*
X128905000Y-79883000D02*
X129667000Y-80645000D01*
X129667000Y-80645000D02*
X129667000Y-85217000D01*
X129667000Y-85217000D02*
X124333000Y-85217000D01*
X127000000Y-80391000D02*
X127000000Y-81153000D01*
X126619000Y-80772000D02*
X127381000Y-80772000D01*
X129413000Y-82550000D02*
G75*
G03X129413000Y-82550000I-2413000J0D01*
G01*
X123690000Y-88050000D02*
X122690000Y-88050000D01*
X122690000Y-89750000D02*
X123690000Y-89750000D01*
X122770000Y-83050000D02*
X122770000Y-82050000D01*
X121070000Y-82050000D02*
X121070000Y-83050000D01*
X142740000Y-74080000D02*
X141740000Y-74080000D01*
X141740000Y-75780000D02*
X142740000Y-75780000D01*
X142740000Y-89320000D02*
X141740000Y-89320000D01*
X141740000Y-91020000D02*
X142740000Y-91020000D01*
X140785000Y-86175000D02*
X140785000Y-85850000D01*
X133535000Y-86175000D02*
X133535000Y-85850000D01*
X133535000Y-78925000D02*
X133535000Y-79250000D01*
X140785000Y-78925000D02*
X140785000Y-79250000D01*
X140785000Y-86175000D02*
X140460000Y-86175000D01*
X140785000Y-78925000D02*
X140460000Y-78925000D01*
X133535000Y-78925000D02*
X133860000Y-78925000D01*
X133535000Y-86175000D02*
X133860000Y-86175000D01*
X140785000Y-85850000D02*
X142210000Y-85850000D01*
X113314110Y-75903780D02*
X115814110Y-75903780D01*
X115814110Y-75903780D02*
X115814110Y-77003780D01*
X115814110Y-77003780D02*
X113314110Y-77003780D01*
X113314110Y-77003780D02*
X113314110Y-75903780D01*
X113064110Y-77253780D02*
X116064110Y-77253780D01*
X113064110Y-75653780D02*
X116064110Y-75653780D01*
X116064110Y-75653780D02*
X116064110Y-77253780D01*
X113064110Y-75653780D02*
X113064110Y-77253780D01*
X111564110Y-78203780D02*
X117564110Y-78203780D01*
X111564110Y-74703780D02*
X117564110Y-74703780D01*
X111564110Y-74703780D02*
X111564110Y-78203780D01*
X117564110Y-74703780D02*
X117564110Y-78203780D01*
X167374000Y-81356000D02*
X167374000Y-78656000D01*
X165874000Y-81356000D02*
X165874000Y-78656000D01*
X166774000Y-79856000D02*
X166524000Y-79856000D01*
X166524000Y-79856000D02*
X166674000Y-80006000D01*
X166274000Y-80106000D02*
X166974000Y-80106000D01*
X166624000Y-79756000D02*
X166624000Y-79406000D01*
X166624000Y-80106000D02*
X166274000Y-79756000D01*
X166274000Y-79756000D02*
X166974000Y-79756000D01*
X166974000Y-79756000D02*
X166624000Y-80106000D01*
X160604000Y-72910000D02*
X157904000Y-72910000D01*
X160604000Y-74410000D02*
X157904000Y-74410000D01*
X159104000Y-73510000D02*
X159104000Y-73760000D01*
X159104000Y-73760000D02*
X159254000Y-73610000D01*
X159354000Y-74010000D02*
X159354000Y-73310000D01*
X159004000Y-73660000D02*
X158654000Y-73660000D01*
X159354000Y-73660000D02*
X159004000Y-74010000D01*
X159004000Y-74010000D02*
X159004000Y-73310000D01*
X159004000Y-73310000D02*
X159354000Y-73660000D01*
X165749000Y-75276000D02*
X165749000Y-74076000D01*
X167499000Y-74076000D02*
X167499000Y-75276000D01*
X151984000Y-75043000D02*
X150784000Y-75043000D01*
X150784000Y-73293000D02*
X151984000Y-73293000D01*
X127219000Y-69963000D02*
X126019000Y-69963000D01*
X126019000Y-68213000D02*
X127219000Y-68213000D01*
X146036000Y-68615000D02*
X146036000Y-69815000D01*
X144286000Y-69815000D02*
X144286000Y-68615000D01*
X127854000Y-72503000D02*
X126654000Y-72503000D01*
X126654000Y-70753000D02*
X127854000Y-70753000D01*
X108190000Y-75219000D02*
X108190000Y-76419000D01*
X106440000Y-76419000D02*
X106440000Y-75219000D01*
X171990900Y-57142540D02*
X163290900Y-57142540D01*
X171990900Y-63547540D02*
X163290900Y-63547540D01*
X163290900Y-63547540D02*
X163290900Y-57142540D01*
X163290900Y-58372540D02*
X171990900Y-58372540D01*
X171990900Y-57142540D02*
X171990900Y-63547540D01*
X126746000Y-113030000D02*
G75*
G03X126746000Y-113030000I-2286000J0D01*
G01*
X183896000Y-113030000D02*
G75*
G03X183896000Y-113030000I-2286000J0D01*
G01*
X183896000Y-62230000D02*
G75*
G03X183896000Y-62230000I-2286000J0D01*
G01*
X110236000Y-61722000D02*
G75*
G03X110236000Y-61722000I-2286000J0D01*
G01*
D15*
G36*
X158114678Y-83367820D02*
X158878183Y-83554465D01*
X159586327Y-83872770D01*
X160223433Y-84310248D01*
X160773821Y-84854409D01*
X161221814Y-85492764D01*
X161551733Y-86212823D01*
X161747901Y-87002099D01*
X161798000Y-87672333D01*
X161719301Y-88510922D01*
X161493389Y-89289430D01*
X161135545Y-89995422D01*
X160661048Y-90616464D01*
X160085177Y-91140122D01*
X159423213Y-91553960D01*
X158690434Y-91845545D01*
X157902121Y-92002443D01*
X157073552Y-92012217D01*
X156553445Y-91940341D01*
X155954225Y-91757215D01*
X155335610Y-91452204D01*
X154752149Y-91055757D01*
X154739864Y-91044889D01*
X156125333Y-91044889D01*
X156135021Y-91308217D01*
X156159878Y-91496896D01*
X156181066Y-91552177D01*
X156281026Y-91570314D01*
X156519379Y-91583240D01*
X156865241Y-91590139D01*
X157287728Y-91590194D01*
X157514566Y-91587455D01*
X158792333Y-91567000D01*
X158818674Y-91200909D01*
X158824619Y-90949051D01*
X158782487Y-90778669D01*
X158666541Y-90675138D01*
X158451040Y-90623832D01*
X158110246Y-90610124D01*
X157787521Y-90614967D01*
X156929667Y-90635667D01*
X156903135Y-90910833D01*
X156845937Y-91115572D01*
X156753966Y-91190636D01*
X156669140Y-91131331D01*
X156633333Y-90941058D01*
X156574460Y-90717657D01*
X156392847Y-90607808D01*
X156245408Y-90593333D01*
X156170675Y-90643885D01*
X156133261Y-90813679D01*
X156125333Y-91044889D01*
X154739864Y-91044889D01*
X154381827Y-90728173D01*
X153849158Y-90086646D01*
X153464371Y-89390784D01*
X153442067Y-89323333D01*
X154347333Y-89323333D01*
X154347333Y-89908944D01*
X154363497Y-90282122D01*
X154411702Y-90492882D01*
X154453167Y-90539289D01*
X154583569Y-90556570D01*
X154834247Y-90562213D01*
X155156491Y-90555428D01*
X155236333Y-90551992D01*
X155592261Y-90535868D01*
X155911093Y-90522658D01*
X156131603Y-90514877D01*
X156153227Y-90514315D01*
X156317121Y-90494156D01*
X156361905Y-90409048D01*
X156337454Y-90256732D01*
X156319084Y-90042208D01*
X156351893Y-89896899D01*
X156406722Y-89889984D01*
X156452126Y-90045707D01*
X156464000Y-90127667D01*
X156512740Y-90357720D01*
X156602317Y-90465969D01*
X156696833Y-90493388D01*
X156822238Y-90489952D01*
X156879734Y-90402740D01*
X156898479Y-90197055D01*
X156909624Y-89873667D01*
X156961979Y-90170000D01*
X157014333Y-90466333D01*
X158243315Y-90478927D01*
X158731039Y-90487873D01*
X159203206Y-90503523D01*
X159612178Y-90523842D01*
X159910316Y-90546794D01*
X159957815Y-90552183D01*
X160443333Y-90612844D01*
X160443333Y-90222089D01*
X160459162Y-89967442D01*
X160513236Y-89849331D01*
X160570333Y-89831333D01*
X160676197Y-89771296D01*
X160685073Y-89629903D01*
X160596053Y-89465237D01*
X160576381Y-89444286D01*
X160426629Y-89369310D01*
X160195789Y-89327271D01*
X159936853Y-89317866D01*
X159702813Y-89340796D01*
X159546662Y-89395759D01*
X159512000Y-89450333D01*
X159477393Y-89565124D01*
X159448500Y-89580615D01*
X159289994Y-89584354D01*
X158997234Y-89587286D01*
X158605301Y-89589341D01*
X158149274Y-89590446D01*
X157664230Y-89590530D01*
X157185249Y-89589522D01*
X156747410Y-89587351D01*
X156618214Y-89586369D01*
X156139405Y-89577622D01*
X155803437Y-89558802D01*
X155583965Y-89526924D01*
X155454646Y-89479002D01*
X155417762Y-89450333D01*
X155272346Y-89382829D01*
X157448197Y-89382829D01*
X157564667Y-89394631D01*
X157684862Y-89381326D01*
X157670500Y-89351927D01*
X157497158Y-89340744D01*
X157458833Y-89351927D01*
X157448197Y-89382829D01*
X155272346Y-89382829D01*
X155225571Y-89361116D01*
X154889154Y-89324147D01*
X154819047Y-89323333D01*
X154347333Y-89323333D01*
X153442067Y-89323333D01*
X153405747Y-89213496D01*
X156347530Y-89213496D01*
X156464000Y-89225298D01*
X156584195Y-89211993D01*
X156569833Y-89182593D01*
X156396491Y-89171411D01*
X156358167Y-89182593D01*
X156347530Y-89213496D01*
X153405747Y-89213496D01*
X153369525Y-89103960D01*
X153882579Y-89103960D01*
X153929837Y-89114138D01*
X154117799Y-89120882D01*
X154389667Y-89123077D01*
X154695501Y-89120570D01*
X154878682Y-89113465D01*
X154922901Y-89102898D01*
X154837005Y-89091882D01*
X154499533Y-89079124D01*
X154122628Y-89084372D01*
X153990338Y-89091482D01*
X153882579Y-89103960D01*
X153369525Y-89103960D01*
X153318391Y-88949327D01*
X153879263Y-88949327D01*
X153890002Y-88960793D01*
X154008667Y-88966030D01*
X154026982Y-88964424D01*
X154807388Y-88964424D01*
X154890611Y-88977982D01*
X155000425Y-88962416D01*
X155001736Y-88933514D01*
X154888419Y-88913302D01*
X154839458Y-88926830D01*
X154807388Y-88964424D01*
X154026982Y-88964424D01*
X154245564Y-88945258D01*
X154385132Y-88908273D01*
X154496249Y-88855763D01*
X154452857Y-88819926D01*
X154363849Y-88795120D01*
X154237859Y-88783125D01*
X154221652Y-88817467D01*
X154182549Y-88878728D01*
X154031269Y-88923885D01*
X153879263Y-88949327D01*
X153318391Y-88949327D01*
X153261247Y-88776519D01*
X153524044Y-88776519D01*
X153630418Y-88789803D01*
X153754667Y-88792273D01*
X153937788Y-88785668D01*
X153988057Y-88768782D01*
X153945167Y-88755581D01*
X153698449Y-88741574D01*
X153564167Y-88755581D01*
X153524044Y-88776519D01*
X153261247Y-88776519D01*
X153222262Y-88658626D01*
X153217680Y-88625758D01*
X153791388Y-88625758D01*
X153874611Y-88639316D01*
X153984425Y-88623749D01*
X153985736Y-88594847D01*
X153872419Y-88574636D01*
X153823458Y-88588163D01*
X153791388Y-88625758D01*
X153217680Y-88625758D01*
X153208697Y-88561333D01*
X154093333Y-88561333D01*
X154124311Y-88631023D01*
X154149778Y-88617778D01*
X154158024Y-88536003D01*
X154260162Y-88536003D01*
X154262204Y-88579031D01*
X154262667Y-88594488D01*
X154293185Y-88674273D01*
X154402830Y-88737247D01*
X154618731Y-88792144D01*
X154968021Y-88847699D01*
X155107096Y-88866351D01*
X155359779Y-88906538D01*
X155459721Y-88944562D01*
X155423256Y-88987594D01*
X155403429Y-88996441D01*
X155369195Y-89031020D01*
X155491325Y-89037312D01*
X155659667Y-89024683D01*
X155894217Y-89007683D01*
X155977063Y-89020205D01*
X155923709Y-89065032D01*
X155913667Y-89070279D01*
X155829950Y-89123028D01*
X155885776Y-89132120D01*
X156034629Y-89112376D01*
X156297210Y-89097285D01*
X156621275Y-89111509D01*
X156754296Y-89126256D01*
X156988734Y-89163636D01*
X157070188Y-89194718D01*
X157014384Y-89227681D01*
X156972000Y-89239476D01*
X156947747Y-89262196D01*
X157067844Y-89275165D01*
X157307486Y-89276436D01*
X157410459Y-89273898D01*
X157744967Y-89251739D01*
X158027260Y-89211782D01*
X158202449Y-89162130D01*
X158214792Y-89155195D01*
X158284051Y-89107443D01*
X159120976Y-89107443D01*
X159265641Y-89113594D01*
X159545845Y-89117716D01*
X159950327Y-89119347D01*
X159977667Y-89119356D01*
X160392877Y-89117977D01*
X160688110Y-89114034D01*
X160851152Y-89107991D01*
X160869789Y-89100310D01*
X160731807Y-89091456D01*
X160722657Y-89091076D01*
X160282531Y-89080743D01*
X159777663Y-89080326D01*
X159312355Y-89089837D01*
X159283324Y-89090899D01*
X159123116Y-89099724D01*
X159120976Y-89107443D01*
X158284051Y-89107443D01*
X158315661Y-89085649D01*
X158273262Y-89088556D01*
X158220833Y-89105274D01*
X158005335Y-89180103D01*
X157924500Y-89209823D01*
X157822368Y-89234393D01*
X157819583Y-89215962D01*
X157923801Y-89149245D01*
X158144320Y-89038278D01*
X158168601Y-89027000D01*
X158411333Y-89027000D01*
X158453667Y-89069333D01*
X158496000Y-89027000D01*
X158453667Y-88984667D01*
X158411333Y-89027000D01*
X158168601Y-89027000D01*
X158350887Y-88942333D01*
X158580667Y-88942333D01*
X158623000Y-88984667D01*
X158660577Y-88947089D01*
X159021562Y-88947089D01*
X159123327Y-88961119D01*
X159215667Y-88963315D01*
X159389918Y-88956500D01*
X159434892Y-88937313D01*
X159407154Y-88926494D01*
X159203832Y-88910723D01*
X159068487Y-88924785D01*
X159021562Y-88947089D01*
X158660577Y-88947089D01*
X158665333Y-88942333D01*
X158623000Y-88900000D01*
X158580667Y-88942333D01*
X158350887Y-88942333D01*
X158446417Y-88897962D01*
X158537273Y-88857667D01*
X158750000Y-88857667D01*
X158792333Y-88900000D01*
X158834667Y-88857667D01*
X158792333Y-88815333D01*
X158750000Y-88857667D01*
X158537273Y-88857667D01*
X158728177Y-88773000D01*
X158919333Y-88773000D01*
X158961667Y-88815333D01*
X159004000Y-88773000D01*
X158961667Y-88730667D01*
X158919333Y-88773000D01*
X158728177Y-88773000D01*
X158795370Y-88743200D01*
X158859526Y-88715783D01*
X159129742Y-88715783D01*
X159136483Y-88739538D01*
X159233787Y-88765970D01*
X159468063Y-88785792D01*
X159807027Y-88797442D01*
X160218393Y-88799357D01*
X160342497Y-88797931D01*
X161501667Y-88780529D01*
X160358667Y-88730667D01*
X159953616Y-88711458D01*
X159629304Y-88693086D01*
X159412374Y-88677303D01*
X159329471Y-88665862D01*
X159335611Y-88663402D01*
X159417975Y-88624350D01*
X159411229Y-88601674D01*
X159309320Y-88584230D01*
X159188516Y-88635802D01*
X159129742Y-88715783D01*
X158859526Y-88715783D01*
X159156455Y-88588892D01*
X159210578Y-88566674D01*
X159566217Y-88566674D01*
X159566452Y-88580942D01*
X159658924Y-88617965D01*
X159836453Y-88641204D01*
X160028411Y-88647076D01*
X160164169Y-88631993D01*
X160189333Y-88612560D01*
X160114400Y-88584299D01*
X159927636Y-88554914D01*
X159857788Y-88547501D01*
X159660082Y-88542063D01*
X159566217Y-88566674D01*
X159210578Y-88566674D01*
X159494950Y-88449939D01*
X159535320Y-88434333D01*
X159681333Y-88434333D01*
X159723667Y-88476667D01*
X159766000Y-88434333D01*
X159744834Y-88413167D01*
X159905801Y-88413167D01*
X160002082Y-88439023D01*
X160228845Y-88456862D01*
X160547336Y-88464432D01*
X160765830Y-88463117D01*
X161081955Y-88455114D01*
X161291078Y-88444141D01*
X161370448Y-88431819D01*
X161332333Y-88422791D01*
X161000096Y-88395125D01*
X160654800Y-88378241D01*
X160335343Y-88372401D01*
X160080622Y-88377866D01*
X159929534Y-88394900D01*
X159905801Y-88413167D01*
X159744834Y-88413167D01*
X159723667Y-88392000D01*
X159681333Y-88434333D01*
X159535320Y-88434333D01*
X159776133Y-88341242D01*
X159965280Y-88277704D01*
X160026350Y-88268925D01*
X160061698Y-88243042D01*
X160044777Y-88173690D01*
X160452704Y-88173690D01*
X160508030Y-88184385D01*
X160702714Y-88191061D01*
X160909000Y-88192614D01*
X161196385Y-88189792D01*
X161360498Y-88181813D01*
X161384043Y-88170034D01*
X161313721Y-88160798D01*
X160994078Y-88147581D01*
X160640308Y-88154597D01*
X160551721Y-88160329D01*
X160452704Y-88173690D01*
X160044777Y-88173690D01*
X160035099Y-88134024D01*
X160006808Y-87945592D01*
X160007613Y-87883822D01*
X160122197Y-87883822D01*
X160222138Y-88016929D01*
X160334843Y-88043512D01*
X160439830Y-88031432D01*
X160378706Y-88005909D01*
X160337500Y-87994970D01*
X160216113Y-87889646D01*
X160200851Y-87835971D01*
X160507124Y-87835971D01*
X160575478Y-87846915D01*
X160779964Y-87853344D01*
X160951333Y-87854416D01*
X161226082Y-87851234D01*
X161374171Y-87842683D01*
X161379004Y-87830260D01*
X161311167Y-87822006D01*
X160973993Y-87808682D01*
X160627107Y-87819089D01*
X160591500Y-87822006D01*
X160507124Y-87835971D01*
X160200851Y-87835971D01*
X160182649Y-87771958D01*
X160162793Y-87672333D01*
X160274000Y-87672333D01*
X160316333Y-87714667D01*
X160358667Y-87672333D01*
X160316333Y-87630000D01*
X160274000Y-87672333D01*
X160162793Y-87672333D01*
X160162386Y-87670291D01*
X160132329Y-87696293D01*
X160122197Y-87883822D01*
X160007613Y-87883822D01*
X160010394Y-87670476D01*
X160025754Y-87515899D01*
X160047102Y-87251795D01*
X160046673Y-87242357D01*
X160452704Y-87242357D01*
X160508030Y-87253052D01*
X160702714Y-87259727D01*
X160909000Y-87261280D01*
X161196385Y-87258459D01*
X161360498Y-87250479D01*
X161384043Y-87238701D01*
X161313721Y-87229465D01*
X160994078Y-87216248D01*
X160640308Y-87223264D01*
X160551721Y-87228995D01*
X160452704Y-87242357D01*
X160046673Y-87242357D01*
X160038633Y-87065555D01*
X160217555Y-87065555D01*
X160229178Y-87115890D01*
X160274000Y-87122000D01*
X160343690Y-87091022D01*
X160330444Y-87065555D01*
X160229965Y-87055422D01*
X160217555Y-87065555D01*
X160038633Y-87065555D01*
X160038148Y-87054903D01*
X160018625Y-86995000D01*
X159973420Y-86903690D01*
X160368037Y-86903690D01*
X160423364Y-86914385D01*
X160618047Y-86921061D01*
X160824333Y-86922614D01*
X161111719Y-86919792D01*
X161275831Y-86911813D01*
X161299377Y-86900034D01*
X161229054Y-86890798D01*
X160909411Y-86877581D01*
X160555641Y-86884597D01*
X160467054Y-86890329D01*
X160368037Y-86903690D01*
X159973420Y-86903690D01*
X159944643Y-86845565D01*
X159911932Y-86741000D01*
X160020000Y-86741000D01*
X160062333Y-86783333D01*
X160104667Y-86741000D01*
X160062333Y-86698667D01*
X160020000Y-86741000D01*
X159911932Y-86741000D01*
X159878648Y-86621223D01*
X159865295Y-86667730D01*
X159860488Y-86745233D01*
X159891687Y-86929526D01*
X159937993Y-87006127D01*
X159945623Y-87060354D01*
X159799960Y-87059843D01*
X159754203Y-87053662D01*
X159582480Y-87017033D01*
X159558282Y-86967830D01*
X159611076Y-86919768D01*
X159694842Y-86782628D01*
X159764816Y-86533779D01*
X159772096Y-86487000D01*
X160020000Y-86487000D01*
X160062333Y-86529333D01*
X160104667Y-86487000D01*
X160062333Y-86444667D01*
X160020000Y-86487000D01*
X159772096Y-86487000D01*
X159791864Y-86360000D01*
X159796172Y-86310753D01*
X160201431Y-86310753D01*
X160261325Y-86321167D01*
X160459148Y-86327770D01*
X160697333Y-86329478D01*
X160991250Y-86326680D01*
X161159404Y-86319112D01*
X161186097Y-86308011D01*
X161099500Y-86297766D01*
X160744461Y-86284838D01*
X160371297Y-86292732D01*
X160295167Y-86297766D01*
X160201431Y-86310753D01*
X159796172Y-86310753D01*
X159811616Y-86134222D01*
X159963555Y-86134222D01*
X159975178Y-86184556D01*
X160020000Y-86190667D01*
X160089690Y-86159688D01*
X160076444Y-86134222D01*
X159975965Y-86124089D01*
X159963555Y-86134222D01*
X159811616Y-86134222D01*
X159813925Y-86107833D01*
X159803787Y-86012972D01*
X159761807Y-86063667D01*
X159717881Y-86117759D01*
X159703806Y-86029178D01*
X159707037Y-85973304D01*
X160168457Y-85973304D01*
X160236811Y-85984248D01*
X160441297Y-85990678D01*
X160612667Y-85991749D01*
X160887415Y-85988567D01*
X161035504Y-85980017D01*
X161040338Y-85967593D01*
X160972500Y-85959340D01*
X160635326Y-85946016D01*
X160288441Y-85956422D01*
X160252833Y-85959340D01*
X160168457Y-85973304D01*
X159707037Y-85973304D01*
X159717872Y-85785963D01*
X159719474Y-85767333D01*
X159722432Y-85719646D01*
X160080577Y-85719646D01*
X160144315Y-85730917D01*
X160345856Y-85737391D01*
X160485667Y-85738309D01*
X160753559Y-85735091D01*
X160897447Y-85726012D01*
X160898849Y-85712730D01*
X160847738Y-85705790D01*
X160547161Y-85692085D01*
X160218435Y-85701403D01*
X160170404Y-85705230D01*
X160080577Y-85719646D01*
X159722432Y-85719646D01*
X159732606Y-85555667D01*
X159850667Y-85555667D01*
X159893000Y-85598000D01*
X159935333Y-85555667D01*
X159893000Y-85513333D01*
X159850667Y-85555667D01*
X159732606Y-85555667D01*
X159735128Y-85515020D01*
X159722800Y-85417727D01*
X159680723Y-85463181D01*
X159676810Y-85471000D01*
X159632266Y-85526663D01*
X159616591Y-85442045D01*
X159619328Y-85383529D01*
X160023255Y-85383529D01*
X160114275Y-85395282D01*
X160334730Y-85400738D01*
X160401000Y-85400884D01*
X160641286Y-85396651D01*
X160749808Y-85386030D01*
X160709894Y-85371093D01*
X160674278Y-85366877D01*
X160375284Y-85353330D01*
X160091345Y-85366393D01*
X160081611Y-85367560D01*
X160023255Y-85383529D01*
X159619328Y-85383529D01*
X159627721Y-85204103D01*
X159627813Y-85202889D01*
X159794222Y-85202889D01*
X159805844Y-85253223D01*
X159850667Y-85259333D01*
X159920357Y-85228355D01*
X159907111Y-85202889D01*
X159806631Y-85192756D01*
X159794222Y-85202889D01*
X159627813Y-85202889D01*
X159629971Y-85174667D01*
X159636903Y-85047814D01*
X159988640Y-85047814D01*
X160084797Y-85060581D01*
X160274000Y-85064628D01*
X160483024Y-85059378D01*
X160561364Y-85045711D01*
X160506833Y-85029357D01*
X160233351Y-85015184D01*
X160041167Y-85029357D01*
X159988640Y-85047814D01*
X159636903Y-85047814D01*
X159642639Y-84942856D01*
X159638281Y-84818509D01*
X159622940Y-84819321D01*
X159566867Y-84882374D01*
X159482282Y-84806850D01*
X159463430Y-84794643D01*
X159898909Y-84794643D01*
X159990418Y-84807975D01*
X160147000Y-84811784D01*
X160347789Y-84806404D01*
X160421183Y-84791313D01*
X160380997Y-84776400D01*
X160148721Y-84761154D01*
X159957664Y-84775245D01*
X159898909Y-84794643D01*
X159463430Y-84794643D01*
X159374108Y-84736807D01*
X159169252Y-84645712D01*
X159074727Y-84610222D01*
X159455555Y-84610222D01*
X159467178Y-84660556D01*
X159512000Y-84666667D01*
X159581690Y-84635688D01*
X159568444Y-84610222D01*
X159467965Y-84600089D01*
X159455555Y-84610222D01*
X159074727Y-84610222D01*
X158920657Y-84552376D01*
X158681269Y-84475612D01*
X158592981Y-84455000D01*
X158919333Y-84455000D01*
X158961667Y-84497333D01*
X158969484Y-84489516D01*
X159267749Y-84489516D01*
X159282784Y-84517876D01*
X159415592Y-84527654D01*
X159615890Y-84521055D01*
X159833400Y-84500284D01*
X160017839Y-84467545D01*
X160062333Y-84454675D01*
X160039440Y-84436906D01*
X159885875Y-84423989D01*
X159766000Y-84420647D01*
X159507156Y-84433093D01*
X159310289Y-84470757D01*
X159267749Y-84489516D01*
X158969484Y-84489516D01*
X159004000Y-84455000D01*
X158961667Y-84412667D01*
X158919333Y-84455000D01*
X158592981Y-84455000D01*
X158504032Y-84434234D01*
X158443679Y-84437805D01*
X158446100Y-84523427D01*
X158464160Y-84745559D01*
X158494988Y-85072393D01*
X158535715Y-85472121D01*
X158544546Y-85555667D01*
X158601729Y-86106958D01*
X158638900Y-86512203D01*
X158655970Y-86793509D01*
X158652853Y-86972986D01*
X158629459Y-87072744D01*
X158585702Y-87114893D01*
X158538333Y-87122000D01*
X158425661Y-87167717D01*
X158411333Y-87206667D01*
X158479494Y-87282724D01*
X158532628Y-87291333D01*
X158651483Y-87362127D01*
X158710848Y-87470689D01*
X158716225Y-87580289D01*
X158649963Y-87710488D01*
X158491786Y-87888900D01*
X158221418Y-88143138D01*
X158208553Y-88154761D01*
X157958316Y-88393402D01*
X157765914Y-88601240D01*
X157660580Y-88745605D01*
X157649333Y-88779739D01*
X157647380Y-88830191D01*
X157627366Y-88865355D01*
X157568059Y-88884118D01*
X157448227Y-88885369D01*
X157246638Y-88867993D01*
X156942061Y-88830880D01*
X156513264Y-88772915D01*
X155939015Y-88692987D01*
X155906090Y-88688392D01*
X155341105Y-88609341D01*
X154922254Y-88551450D01*
X154627828Y-88513481D01*
X154436116Y-88494192D01*
X154325408Y-88492343D01*
X154273993Y-88506694D01*
X154260162Y-88536003D01*
X154158024Y-88536003D01*
X154159911Y-88517298D01*
X154149778Y-88504889D01*
X154099443Y-88516511D01*
X154093333Y-88561333D01*
X153208697Y-88561333D01*
X153192175Y-88442844D01*
X153410816Y-88442844D01*
X153527888Y-88456205D01*
X153585333Y-88457024D01*
X153739369Y-88448196D01*
X153757522Y-88426219D01*
X153733500Y-88418304D01*
X153518766Y-88405136D01*
X153437167Y-88418304D01*
X153410816Y-88442844D01*
X153192175Y-88442844D01*
X153156758Y-88188844D01*
X153410816Y-88188844D01*
X153527888Y-88202205D01*
X153585333Y-88203024D01*
X153739369Y-88194196D01*
X153750819Y-88180333D01*
X153924000Y-88180333D01*
X153966333Y-88222667D01*
X154008667Y-88180333D01*
X153966333Y-88138000D01*
X153924000Y-88180333D01*
X153750819Y-88180333D01*
X153757522Y-88172219D01*
X153733500Y-88164304D01*
X153518766Y-88151136D01*
X153437167Y-88164304D01*
X153410816Y-88188844D01*
X153156758Y-88188844D01*
X153131960Y-88011000D01*
X153839333Y-88011000D01*
X153881667Y-88053333D01*
X153924000Y-88011000D01*
X154093333Y-88011000D01*
X154135667Y-88053333D01*
X154178000Y-88011000D01*
X154142986Y-87975986D01*
X154684775Y-87975986D01*
X154710917Y-88088873D01*
X154900341Y-88185965D01*
X155255573Y-88269299D01*
X155369001Y-88287977D01*
X155896432Y-88337047D01*
X156225099Y-88323691D01*
X156847475Y-88323691D01*
X156849001Y-88398474D01*
X156980366Y-88468332D01*
X157205382Y-88473473D01*
X157464390Y-88421087D01*
X157697733Y-88318363D01*
X157737428Y-88291411D01*
X157929698Y-88128000D01*
X157966494Y-88027595D01*
X157844366Y-87978618D01*
X157641237Y-87968667D01*
X157397537Y-88002869D01*
X157154485Y-88089459D01*
X156956368Y-88204409D01*
X156847475Y-88323691D01*
X156225099Y-88323691D01*
X156363988Y-88318047D01*
X156732274Y-88234104D01*
X156866167Y-88169204D01*
X157008255Y-88056126D01*
X157056667Y-87978704D01*
X156977737Y-87943489D01*
X156762691Y-87899543D01*
X156444143Y-87852413D01*
X156054708Y-87807642D01*
X156044821Y-87806649D01*
X155607429Y-87765407D01*
X155303641Y-87745693D01*
X155098968Y-87748593D01*
X154958919Y-87775196D01*
X154849004Y-87826587D01*
X154819384Y-87845269D01*
X154684775Y-87975986D01*
X154142986Y-87975986D01*
X154135667Y-87968667D01*
X154093333Y-88011000D01*
X153924000Y-88011000D01*
X153881667Y-87968667D01*
X153839333Y-88011000D01*
X153131960Y-88011000D01*
X153117627Y-87908213D01*
X153120587Y-87827799D01*
X153289000Y-87827799D01*
X153797000Y-87884000D01*
X154069669Y-87915893D01*
X154264161Y-87941897D01*
X154331163Y-87954433D01*
X154321947Y-87913282D01*
X154305000Y-87884000D01*
X154201761Y-87841667D01*
X154432000Y-87841667D01*
X154474333Y-87884000D01*
X154516667Y-87841667D01*
X154474333Y-87799333D01*
X154432000Y-87841667D01*
X154201761Y-87841667D01*
X154198122Y-87840175D01*
X153976767Y-87815401D01*
X153770836Y-87813566D01*
X153289000Y-87827799D01*
X153120587Y-87827799D01*
X153127576Y-87637944D01*
X154434259Y-87637944D01*
X154497109Y-87691821D01*
X154512104Y-87702313D01*
X154654446Y-87732295D01*
X154821603Y-87695362D01*
X154930791Y-87614847D01*
X154940000Y-87581709D01*
X154878197Y-87579150D01*
X154791833Y-87615580D01*
X154604625Y-87662667D01*
X154516667Y-87654447D01*
X154434259Y-87637944D01*
X153127576Y-87637944D01*
X153132544Y-87503000D01*
X155024667Y-87503000D01*
X155067000Y-87545333D01*
X155109333Y-87503000D01*
X155067000Y-87460667D01*
X155024667Y-87503000D01*
X153132544Y-87503000D01*
X153141670Y-87255137D01*
X153289000Y-87255137D01*
X154288830Y-87273235D01*
X154739440Y-87286383D01*
X155036362Y-87307819D01*
X155195119Y-87339458D01*
X155231237Y-87383215D01*
X155228248Y-87389082D01*
X155217757Y-87446558D01*
X155272962Y-87421859D01*
X155295071Y-87382351D01*
X155531696Y-87382351D01*
X155538311Y-87409453D01*
X155636513Y-87433561D01*
X155867463Y-87464711D01*
X156194887Y-87499683D01*
X156582509Y-87535259D01*
X156994057Y-87568218D01*
X157393255Y-87595342D01*
X157743829Y-87613411D01*
X157888375Y-87618018D01*
X158180298Y-87618963D01*
X158338089Y-87598978D01*
X158396549Y-87548716D01*
X158395458Y-87481833D01*
X158366982Y-87424643D01*
X158290265Y-87380860D01*
X158141030Y-87346601D01*
X157894998Y-87317984D01*
X157527892Y-87291124D01*
X157025163Y-87262654D01*
X156441315Y-87236854D01*
X156016153Y-87230066D01*
X155740083Y-87242422D01*
X155603514Y-87274056D01*
X155592390Y-87282409D01*
X155531696Y-87382351D01*
X155295071Y-87382351D01*
X155327573Y-87324275D01*
X155300073Y-87278873D01*
X155188628Y-87250068D01*
X154945229Y-87231000D01*
X154607069Y-87223480D01*
X154255529Y-87227998D01*
X153289000Y-87255137D01*
X153141670Y-87255137D01*
X153145262Y-87157586D01*
X153164690Y-87065555D01*
X155137555Y-87065555D01*
X155149178Y-87115890D01*
X155194000Y-87122000D01*
X155263690Y-87091022D01*
X155250444Y-87065555D01*
X155149965Y-87055422D01*
X155137555Y-87065555D01*
X153164690Y-87065555D01*
X153199467Y-86900823D01*
X153698913Y-86900823D01*
X153735303Y-86909928D01*
X153913650Y-86916515D01*
X154220268Y-86919808D01*
X154347333Y-86920039D01*
X154693296Y-86918005D01*
X154915506Y-86912419D01*
X155000279Y-86904060D01*
X154933926Y-86893704D01*
X154876500Y-86889980D01*
X154473914Y-86878185D01*
X154034083Y-86881445D01*
X153818167Y-86889980D01*
X153698913Y-86900823D01*
X153199467Y-86900823D01*
X153237438Y-86720959D01*
X155141937Y-86720959D01*
X155156974Y-86737364D01*
X155264955Y-86759396D01*
X155405783Y-86817017D01*
X155423099Y-86947931D01*
X155409920Y-87008194D01*
X155385080Y-87148260D01*
X155428358Y-87149394D01*
X155474324Y-87109662D01*
X155555483Y-86944357D01*
X155552666Y-86859791D01*
X155681274Y-86859791D01*
X156263137Y-86889646D01*
X156625824Y-86905395D01*
X157075940Y-86920890D01*
X157531600Y-86933394D01*
X157653720Y-86936084D01*
X158462441Y-86952667D01*
X158357921Y-85915500D01*
X158316829Y-85497232D01*
X158282338Y-85126346D01*
X158258079Y-84843272D01*
X158247700Y-84688913D01*
X158238480Y-84619652D01*
X158201641Y-84570023D01*
X158116258Y-84539392D01*
X157961406Y-84527121D01*
X157716160Y-84532577D01*
X157359594Y-84555122D01*
X156870783Y-84594121D01*
X156412215Y-84633149D01*
X155894764Y-84677635D01*
X155838886Y-85370651D01*
X155805104Y-85759828D01*
X155768040Y-86140933D01*
X155735155Y-86437719D01*
X155732141Y-86461729D01*
X155681274Y-86859791D01*
X155552666Y-86859791D01*
X155552317Y-86849333D01*
X155442940Y-86728301D01*
X155289958Y-86710197D01*
X155141937Y-86720959D01*
X153237438Y-86720959D01*
X153282165Y-86509091D01*
X155230721Y-86509091D01*
X155313944Y-86522649D01*
X155423758Y-86507082D01*
X155425069Y-86478180D01*
X155311752Y-86457969D01*
X155262792Y-86471496D01*
X155230721Y-86509091D01*
X153282165Y-86509091D01*
X153299963Y-86424786D01*
X153346185Y-86308307D01*
X153866694Y-86308307D01*
X153898701Y-86317601D01*
X154073638Y-86324278D01*
X154378306Y-86327506D01*
X154474333Y-86327677D01*
X154814505Y-86325635D01*
X155033020Y-86319828D01*
X155115131Y-86311092D01*
X155046089Y-86300260D01*
X155006818Y-86297531D01*
X154636628Y-86285599D01*
X154217993Y-86288354D01*
X153990818Y-86297227D01*
X153866694Y-86308307D01*
X153346185Y-86308307D01*
X153400901Y-86170424D01*
X155230721Y-86170424D01*
X155313944Y-86183982D01*
X155423758Y-86168416D01*
X155425069Y-86139514D01*
X155311752Y-86119302D01*
X155262792Y-86132830D01*
X155230721Y-86170424D01*
X153400901Y-86170424D01*
X153443265Y-86063667D01*
X155549172Y-86063667D01*
X155558324Y-86208262D01*
X155584828Y-86220993D01*
X155588202Y-86213445D01*
X155604951Y-86045365D01*
X155591340Y-85959445D01*
X155564389Y-85924917D01*
X155549731Y-86037374D01*
X155549172Y-86063667D01*
X153443265Y-86063667D01*
X153480276Y-85970401D01*
X154001479Y-85970401D01*
X154040974Y-85980113D01*
X154222354Y-85986847D01*
X154531897Y-85989639D01*
X154559000Y-85989662D01*
X154882390Y-85987410D01*
X155083660Y-85981015D01*
X155147338Y-85971445D01*
X155057954Y-85959669D01*
X155048925Y-85959021D01*
X154694656Y-85946691D01*
X154296211Y-85950551D01*
X154117591Y-85958673D01*
X154001479Y-85970401D01*
X153480276Y-85970401D01*
X153576526Y-85727855D01*
X153583530Y-85716401D01*
X154086146Y-85716401D01*
X154125641Y-85726113D01*
X154307021Y-85732847D01*
X154616563Y-85735639D01*
X154643667Y-85735662D01*
X154967057Y-85733410D01*
X155168327Y-85727015D01*
X155232005Y-85717445D01*
X155142621Y-85705669D01*
X155133591Y-85705021D01*
X154779323Y-85692691D01*
X154380877Y-85696551D01*
X154202258Y-85704673D01*
X154086146Y-85716401D01*
X153583530Y-85716401D01*
X153690451Y-85541555D01*
X155391555Y-85541555D01*
X155403178Y-85591890D01*
X155448000Y-85598000D01*
X155517690Y-85567022D01*
X155504444Y-85541555D01*
X155403965Y-85531422D01*
X155391555Y-85541555D01*
X153690451Y-85541555D01*
X153790084Y-85378627D01*
X154221246Y-85378627D01*
X154268503Y-85388805D01*
X154456465Y-85395548D01*
X154728333Y-85397744D01*
X155034168Y-85395237D01*
X155217349Y-85388131D01*
X155261568Y-85377565D01*
X155175671Y-85366549D01*
X154838200Y-85353791D01*
X154461295Y-85359038D01*
X154329005Y-85366148D01*
X154221246Y-85378627D01*
X153790084Y-85378627D01*
X153897551Y-85202889D01*
X155391555Y-85202889D01*
X155403178Y-85253223D01*
X155448000Y-85259333D01*
X155517690Y-85228355D01*
X155504444Y-85202889D01*
X155403965Y-85192756D01*
X155391555Y-85202889D01*
X153897551Y-85202889D01*
X153940697Y-85132333D01*
X155633839Y-85132333D01*
X155642990Y-85276929D01*
X155669495Y-85289660D01*
X155672869Y-85282111D01*
X155689618Y-85114032D01*
X155676006Y-85028111D01*
X155649056Y-84993584D01*
X155634397Y-85106041D01*
X155633839Y-85132333D01*
X153940697Y-85132333D01*
X153969746Y-85084832D01*
X154007322Y-85042312D01*
X154492577Y-85042312D01*
X154556315Y-85053584D01*
X154757856Y-85060058D01*
X154897667Y-85060975D01*
X155165559Y-85057758D01*
X155309447Y-85048679D01*
X155310849Y-85035397D01*
X155259738Y-85028456D01*
X154959161Y-85014752D01*
X154630435Y-85024070D01*
X154582404Y-85027897D01*
X154492577Y-85042312D01*
X154007322Y-85042312D01*
X154230769Y-84789467D01*
X154632699Y-84789467D01*
X154709887Y-84800991D01*
X154921062Y-84807048D01*
X155024667Y-84807534D01*
X155279062Y-84803857D01*
X155405728Y-84794058D01*
X155386996Y-84779985D01*
X155342167Y-84774323D01*
X155024249Y-84760623D01*
X154707167Y-84774323D01*
X154632699Y-84789467D01*
X154230769Y-84789467D01*
X154474421Y-84513759D01*
X154548850Y-84455148D01*
X154908640Y-84455148D01*
X155004797Y-84467915D01*
X155194000Y-84471962D01*
X155244753Y-84470687D01*
X155779446Y-84470687D01*
X155812150Y-84503177D01*
X155972458Y-84509319D01*
X156108103Y-84499422D01*
X156506333Y-84458583D01*
X156177676Y-84429849D01*
X155949436Y-84427807D01*
X155796887Y-84458859D01*
X155779446Y-84470687D01*
X155244753Y-84470687D01*
X155403024Y-84466711D01*
X155481364Y-84453045D01*
X155426833Y-84436690D01*
X155153351Y-84422517D01*
X154961167Y-84436690D01*
X154908640Y-84455148D01*
X154548850Y-84455148D01*
X154650516Y-84375089D01*
X157243562Y-84375089D01*
X157345327Y-84389119D01*
X157437667Y-84391315D01*
X157611918Y-84384500D01*
X157656892Y-84365313D01*
X157633585Y-84356222D01*
X158608889Y-84356222D01*
X158620511Y-84406556D01*
X158665333Y-84412667D01*
X158735023Y-84381688D01*
X158721778Y-84356222D01*
X158621298Y-84346089D01*
X158608889Y-84356222D01*
X157633585Y-84356222D01*
X157629154Y-84354494D01*
X157425832Y-84338723D01*
X157290487Y-84352785D01*
X157243562Y-84375089D01*
X154650516Y-84375089D01*
X154882463Y-84192439D01*
X156044036Y-84192439D01*
X156139068Y-84197550D01*
X156375749Y-84201659D01*
X156744852Y-84204558D01*
X157237149Y-84206040D01*
X157480000Y-84206191D01*
X158021588Y-84205369D01*
X158443881Y-84203044D01*
X158737653Y-84199421D01*
X158893675Y-84194708D01*
X158902719Y-84189113D01*
X158755558Y-84182842D01*
X158644167Y-84180039D01*
X158069014Y-84171674D01*
X157413681Y-84169282D01*
X156767214Y-84172863D01*
X156315833Y-84180039D01*
X156099882Y-84186533D01*
X156044036Y-84192439D01*
X154882463Y-84192439D01*
X155085345Y-84032677D01*
X155421918Y-83856323D01*
X156420133Y-83856323D01*
X156551396Y-83862079D01*
X156819928Y-83866286D01*
X157215042Y-83868605D01*
X157480000Y-83868955D01*
X157939634Y-83867806D01*
X158278513Y-83864587D01*
X158485952Y-83859633D01*
X158551261Y-83853285D01*
X158463753Y-83845879D01*
X158347833Y-83841515D01*
X157844234Y-83831925D01*
X157274552Y-83830737D01*
X156741828Y-83837953D01*
X156612167Y-83841515D01*
X156436827Y-83849356D01*
X156420133Y-83856323D01*
X155421918Y-83856323D01*
X155797316Y-83659626D01*
X156226938Y-83521946D01*
X157136556Y-83521946D01*
X157218334Y-83534550D01*
X157433930Y-83539757D01*
X157437667Y-83539764D01*
X157662581Y-83535347D01*
X157761509Y-83522941D01*
X157714349Y-83505503D01*
X157456912Y-83490769D01*
X157206349Y-83504639D01*
X157136556Y-83521946D01*
X156226938Y-83521946D01*
X156484297Y-83439471D01*
X157311490Y-83325326D01*
X158114678Y-83367820D01*
X158114678Y-83367820D01*
G37*
X158114678Y-83367820D02*
X158878183Y-83554465D01*
X159586327Y-83872770D01*
X160223433Y-84310248D01*
X160773821Y-84854409D01*
X161221814Y-85492764D01*
X161551733Y-86212823D01*
X161747901Y-87002099D01*
X161798000Y-87672333D01*
X161719301Y-88510922D01*
X161493389Y-89289430D01*
X161135545Y-89995422D01*
X160661048Y-90616464D01*
X160085177Y-91140122D01*
X159423213Y-91553960D01*
X158690434Y-91845545D01*
X157902121Y-92002443D01*
X157073552Y-92012217D01*
X156553445Y-91940341D01*
X155954225Y-91757215D01*
X155335610Y-91452204D01*
X154752149Y-91055757D01*
X154739864Y-91044889D01*
X156125333Y-91044889D01*
X156135021Y-91308217D01*
X156159878Y-91496896D01*
X156181066Y-91552177D01*
X156281026Y-91570314D01*
X156519379Y-91583240D01*
X156865241Y-91590139D01*
X157287728Y-91590194D01*
X157514566Y-91587455D01*
X158792333Y-91567000D01*
X158818674Y-91200909D01*
X158824619Y-90949051D01*
X158782487Y-90778669D01*
X158666541Y-90675138D01*
X158451040Y-90623832D01*
X158110246Y-90610124D01*
X157787521Y-90614967D01*
X156929667Y-90635667D01*
X156903135Y-90910833D01*
X156845937Y-91115572D01*
X156753966Y-91190636D01*
X156669140Y-91131331D01*
X156633333Y-90941058D01*
X156574460Y-90717657D01*
X156392847Y-90607808D01*
X156245408Y-90593333D01*
X156170675Y-90643885D01*
X156133261Y-90813679D01*
X156125333Y-91044889D01*
X154739864Y-91044889D01*
X154381827Y-90728173D01*
X153849158Y-90086646D01*
X153464371Y-89390784D01*
X153442067Y-89323333D01*
X154347333Y-89323333D01*
X154347333Y-89908944D01*
X154363497Y-90282122D01*
X154411702Y-90492882D01*
X154453167Y-90539289D01*
X154583569Y-90556570D01*
X154834247Y-90562213D01*
X155156491Y-90555428D01*
X155236333Y-90551992D01*
X155592261Y-90535868D01*
X155911093Y-90522658D01*
X156131603Y-90514877D01*
X156153227Y-90514315D01*
X156317121Y-90494156D01*
X156361905Y-90409048D01*
X156337454Y-90256732D01*
X156319084Y-90042208D01*
X156351893Y-89896899D01*
X156406722Y-89889984D01*
X156452126Y-90045707D01*
X156464000Y-90127667D01*
X156512740Y-90357720D01*
X156602317Y-90465969D01*
X156696833Y-90493388D01*
X156822238Y-90489952D01*
X156879734Y-90402740D01*
X156898479Y-90197055D01*
X156909624Y-89873667D01*
X156961979Y-90170000D01*
X157014333Y-90466333D01*
X158243315Y-90478927D01*
X158731039Y-90487873D01*
X159203206Y-90503523D01*
X159612178Y-90523842D01*
X159910316Y-90546794D01*
X159957815Y-90552183D01*
X160443333Y-90612844D01*
X160443333Y-90222089D01*
X160459162Y-89967442D01*
X160513236Y-89849331D01*
X160570333Y-89831333D01*
X160676197Y-89771296D01*
X160685073Y-89629903D01*
X160596053Y-89465237D01*
X160576381Y-89444286D01*
X160426629Y-89369310D01*
X160195789Y-89327271D01*
X159936853Y-89317866D01*
X159702813Y-89340796D01*
X159546662Y-89395759D01*
X159512000Y-89450333D01*
X159477393Y-89565124D01*
X159448500Y-89580615D01*
X159289994Y-89584354D01*
X158997234Y-89587286D01*
X158605301Y-89589341D01*
X158149274Y-89590446D01*
X157664230Y-89590530D01*
X157185249Y-89589522D01*
X156747410Y-89587351D01*
X156618214Y-89586369D01*
X156139405Y-89577622D01*
X155803437Y-89558802D01*
X155583965Y-89526924D01*
X155454646Y-89479002D01*
X155417762Y-89450333D01*
X155272346Y-89382829D01*
X157448197Y-89382829D01*
X157564667Y-89394631D01*
X157684862Y-89381326D01*
X157670500Y-89351927D01*
X157497158Y-89340744D01*
X157458833Y-89351927D01*
X157448197Y-89382829D01*
X155272346Y-89382829D01*
X155225571Y-89361116D01*
X154889154Y-89324147D01*
X154819047Y-89323333D01*
X154347333Y-89323333D01*
X153442067Y-89323333D01*
X153405747Y-89213496D01*
X156347530Y-89213496D01*
X156464000Y-89225298D01*
X156584195Y-89211993D01*
X156569833Y-89182593D01*
X156396491Y-89171411D01*
X156358167Y-89182593D01*
X156347530Y-89213496D01*
X153405747Y-89213496D01*
X153369525Y-89103960D01*
X153882579Y-89103960D01*
X153929837Y-89114138D01*
X154117799Y-89120882D01*
X154389667Y-89123077D01*
X154695501Y-89120570D01*
X154878682Y-89113465D01*
X154922901Y-89102898D01*
X154837005Y-89091882D01*
X154499533Y-89079124D01*
X154122628Y-89084372D01*
X153990338Y-89091482D01*
X153882579Y-89103960D01*
X153369525Y-89103960D01*
X153318391Y-88949327D01*
X153879263Y-88949327D01*
X153890002Y-88960793D01*
X154008667Y-88966030D01*
X154026982Y-88964424D01*
X154807388Y-88964424D01*
X154890611Y-88977982D01*
X155000425Y-88962416D01*
X155001736Y-88933514D01*
X154888419Y-88913302D01*
X154839458Y-88926830D01*
X154807388Y-88964424D01*
X154026982Y-88964424D01*
X154245564Y-88945258D01*
X154385132Y-88908273D01*
X154496249Y-88855763D01*
X154452857Y-88819926D01*
X154363849Y-88795120D01*
X154237859Y-88783125D01*
X154221652Y-88817467D01*
X154182549Y-88878728D01*
X154031269Y-88923885D01*
X153879263Y-88949327D01*
X153318391Y-88949327D01*
X153261247Y-88776519D01*
X153524044Y-88776519D01*
X153630418Y-88789803D01*
X153754667Y-88792273D01*
X153937788Y-88785668D01*
X153988057Y-88768782D01*
X153945167Y-88755581D01*
X153698449Y-88741574D01*
X153564167Y-88755581D01*
X153524044Y-88776519D01*
X153261247Y-88776519D01*
X153222262Y-88658626D01*
X153217680Y-88625758D01*
X153791388Y-88625758D01*
X153874611Y-88639316D01*
X153984425Y-88623749D01*
X153985736Y-88594847D01*
X153872419Y-88574636D01*
X153823458Y-88588163D01*
X153791388Y-88625758D01*
X153217680Y-88625758D01*
X153208697Y-88561333D01*
X154093333Y-88561333D01*
X154124311Y-88631023D01*
X154149778Y-88617778D01*
X154158024Y-88536003D01*
X154260162Y-88536003D01*
X154262204Y-88579031D01*
X154262667Y-88594488D01*
X154293185Y-88674273D01*
X154402830Y-88737247D01*
X154618731Y-88792144D01*
X154968021Y-88847699D01*
X155107096Y-88866351D01*
X155359779Y-88906538D01*
X155459721Y-88944562D01*
X155423256Y-88987594D01*
X155403429Y-88996441D01*
X155369195Y-89031020D01*
X155491325Y-89037312D01*
X155659667Y-89024683D01*
X155894217Y-89007683D01*
X155977063Y-89020205D01*
X155923709Y-89065032D01*
X155913667Y-89070279D01*
X155829950Y-89123028D01*
X155885776Y-89132120D01*
X156034629Y-89112376D01*
X156297210Y-89097285D01*
X156621275Y-89111509D01*
X156754296Y-89126256D01*
X156988734Y-89163636D01*
X157070188Y-89194718D01*
X157014384Y-89227681D01*
X156972000Y-89239476D01*
X156947747Y-89262196D01*
X157067844Y-89275165D01*
X157307486Y-89276436D01*
X157410459Y-89273898D01*
X157744967Y-89251739D01*
X158027260Y-89211782D01*
X158202449Y-89162130D01*
X158214792Y-89155195D01*
X158284051Y-89107443D01*
X159120976Y-89107443D01*
X159265641Y-89113594D01*
X159545845Y-89117716D01*
X159950327Y-89119347D01*
X159977667Y-89119356D01*
X160392877Y-89117977D01*
X160688110Y-89114034D01*
X160851152Y-89107991D01*
X160869789Y-89100310D01*
X160731807Y-89091456D01*
X160722657Y-89091076D01*
X160282531Y-89080743D01*
X159777663Y-89080326D01*
X159312355Y-89089837D01*
X159283324Y-89090899D01*
X159123116Y-89099724D01*
X159120976Y-89107443D01*
X158284051Y-89107443D01*
X158315661Y-89085649D01*
X158273262Y-89088556D01*
X158220833Y-89105274D01*
X158005335Y-89180103D01*
X157924500Y-89209823D01*
X157822368Y-89234393D01*
X157819583Y-89215962D01*
X157923801Y-89149245D01*
X158144320Y-89038278D01*
X158168601Y-89027000D01*
X158411333Y-89027000D01*
X158453667Y-89069333D01*
X158496000Y-89027000D01*
X158453667Y-88984667D01*
X158411333Y-89027000D01*
X158168601Y-89027000D01*
X158350887Y-88942333D01*
X158580667Y-88942333D01*
X158623000Y-88984667D01*
X158660577Y-88947089D01*
X159021562Y-88947089D01*
X159123327Y-88961119D01*
X159215667Y-88963315D01*
X159389918Y-88956500D01*
X159434892Y-88937313D01*
X159407154Y-88926494D01*
X159203832Y-88910723D01*
X159068487Y-88924785D01*
X159021562Y-88947089D01*
X158660577Y-88947089D01*
X158665333Y-88942333D01*
X158623000Y-88900000D01*
X158580667Y-88942333D01*
X158350887Y-88942333D01*
X158446417Y-88897962D01*
X158537273Y-88857667D01*
X158750000Y-88857667D01*
X158792333Y-88900000D01*
X158834667Y-88857667D01*
X158792333Y-88815333D01*
X158750000Y-88857667D01*
X158537273Y-88857667D01*
X158728177Y-88773000D01*
X158919333Y-88773000D01*
X158961667Y-88815333D01*
X159004000Y-88773000D01*
X158961667Y-88730667D01*
X158919333Y-88773000D01*
X158728177Y-88773000D01*
X158795370Y-88743200D01*
X158859526Y-88715783D01*
X159129742Y-88715783D01*
X159136483Y-88739538D01*
X159233787Y-88765970D01*
X159468063Y-88785792D01*
X159807027Y-88797442D01*
X160218393Y-88799357D01*
X160342497Y-88797931D01*
X161501667Y-88780529D01*
X160358667Y-88730667D01*
X159953616Y-88711458D01*
X159629304Y-88693086D01*
X159412374Y-88677303D01*
X159329471Y-88665862D01*
X159335611Y-88663402D01*
X159417975Y-88624350D01*
X159411229Y-88601674D01*
X159309320Y-88584230D01*
X159188516Y-88635802D01*
X159129742Y-88715783D01*
X158859526Y-88715783D01*
X159156455Y-88588892D01*
X159210578Y-88566674D01*
X159566217Y-88566674D01*
X159566452Y-88580942D01*
X159658924Y-88617965D01*
X159836453Y-88641204D01*
X160028411Y-88647076D01*
X160164169Y-88631993D01*
X160189333Y-88612560D01*
X160114400Y-88584299D01*
X159927636Y-88554914D01*
X159857788Y-88547501D01*
X159660082Y-88542063D01*
X159566217Y-88566674D01*
X159210578Y-88566674D01*
X159494950Y-88449939D01*
X159535320Y-88434333D01*
X159681333Y-88434333D01*
X159723667Y-88476667D01*
X159766000Y-88434333D01*
X159744834Y-88413167D01*
X159905801Y-88413167D01*
X160002082Y-88439023D01*
X160228845Y-88456862D01*
X160547336Y-88464432D01*
X160765830Y-88463117D01*
X161081955Y-88455114D01*
X161291078Y-88444141D01*
X161370448Y-88431819D01*
X161332333Y-88422791D01*
X161000096Y-88395125D01*
X160654800Y-88378241D01*
X160335343Y-88372401D01*
X160080622Y-88377866D01*
X159929534Y-88394900D01*
X159905801Y-88413167D01*
X159744834Y-88413167D01*
X159723667Y-88392000D01*
X159681333Y-88434333D01*
X159535320Y-88434333D01*
X159776133Y-88341242D01*
X159965280Y-88277704D01*
X160026350Y-88268925D01*
X160061698Y-88243042D01*
X160044777Y-88173690D01*
X160452704Y-88173690D01*
X160508030Y-88184385D01*
X160702714Y-88191061D01*
X160909000Y-88192614D01*
X161196385Y-88189792D01*
X161360498Y-88181813D01*
X161384043Y-88170034D01*
X161313721Y-88160798D01*
X160994078Y-88147581D01*
X160640308Y-88154597D01*
X160551721Y-88160329D01*
X160452704Y-88173690D01*
X160044777Y-88173690D01*
X160035099Y-88134024D01*
X160006808Y-87945592D01*
X160007613Y-87883822D01*
X160122197Y-87883822D01*
X160222138Y-88016929D01*
X160334843Y-88043512D01*
X160439830Y-88031432D01*
X160378706Y-88005909D01*
X160337500Y-87994970D01*
X160216113Y-87889646D01*
X160200851Y-87835971D01*
X160507124Y-87835971D01*
X160575478Y-87846915D01*
X160779964Y-87853344D01*
X160951333Y-87854416D01*
X161226082Y-87851234D01*
X161374171Y-87842683D01*
X161379004Y-87830260D01*
X161311167Y-87822006D01*
X160973993Y-87808682D01*
X160627107Y-87819089D01*
X160591500Y-87822006D01*
X160507124Y-87835971D01*
X160200851Y-87835971D01*
X160182649Y-87771958D01*
X160162793Y-87672333D01*
X160274000Y-87672333D01*
X160316333Y-87714667D01*
X160358667Y-87672333D01*
X160316333Y-87630000D01*
X160274000Y-87672333D01*
X160162793Y-87672333D01*
X160162386Y-87670291D01*
X160132329Y-87696293D01*
X160122197Y-87883822D01*
X160007613Y-87883822D01*
X160010394Y-87670476D01*
X160025754Y-87515899D01*
X160047102Y-87251795D01*
X160046673Y-87242357D01*
X160452704Y-87242357D01*
X160508030Y-87253052D01*
X160702714Y-87259727D01*
X160909000Y-87261280D01*
X161196385Y-87258459D01*
X161360498Y-87250479D01*
X161384043Y-87238701D01*
X161313721Y-87229465D01*
X160994078Y-87216248D01*
X160640308Y-87223264D01*
X160551721Y-87228995D01*
X160452704Y-87242357D01*
X160046673Y-87242357D01*
X160038633Y-87065555D01*
X160217555Y-87065555D01*
X160229178Y-87115890D01*
X160274000Y-87122000D01*
X160343690Y-87091022D01*
X160330444Y-87065555D01*
X160229965Y-87055422D01*
X160217555Y-87065555D01*
X160038633Y-87065555D01*
X160038148Y-87054903D01*
X160018625Y-86995000D01*
X159973420Y-86903690D01*
X160368037Y-86903690D01*
X160423364Y-86914385D01*
X160618047Y-86921061D01*
X160824333Y-86922614D01*
X161111719Y-86919792D01*
X161275831Y-86911813D01*
X161299377Y-86900034D01*
X161229054Y-86890798D01*
X160909411Y-86877581D01*
X160555641Y-86884597D01*
X160467054Y-86890329D01*
X160368037Y-86903690D01*
X159973420Y-86903690D01*
X159944643Y-86845565D01*
X159911932Y-86741000D01*
X160020000Y-86741000D01*
X160062333Y-86783333D01*
X160104667Y-86741000D01*
X160062333Y-86698667D01*
X160020000Y-86741000D01*
X159911932Y-86741000D01*
X159878648Y-86621223D01*
X159865295Y-86667730D01*
X159860488Y-86745233D01*
X159891687Y-86929526D01*
X159937993Y-87006127D01*
X159945623Y-87060354D01*
X159799960Y-87059843D01*
X159754203Y-87053662D01*
X159582480Y-87017033D01*
X159558282Y-86967830D01*
X159611076Y-86919768D01*
X159694842Y-86782628D01*
X159764816Y-86533779D01*
X159772096Y-86487000D01*
X160020000Y-86487000D01*
X160062333Y-86529333D01*
X160104667Y-86487000D01*
X160062333Y-86444667D01*
X160020000Y-86487000D01*
X159772096Y-86487000D01*
X159791864Y-86360000D01*
X159796172Y-86310753D01*
X160201431Y-86310753D01*
X160261325Y-86321167D01*
X160459148Y-86327770D01*
X160697333Y-86329478D01*
X160991250Y-86326680D01*
X161159404Y-86319112D01*
X161186097Y-86308011D01*
X161099500Y-86297766D01*
X160744461Y-86284838D01*
X160371297Y-86292732D01*
X160295167Y-86297766D01*
X160201431Y-86310753D01*
X159796172Y-86310753D01*
X159811616Y-86134222D01*
X159963555Y-86134222D01*
X159975178Y-86184556D01*
X160020000Y-86190667D01*
X160089690Y-86159688D01*
X160076444Y-86134222D01*
X159975965Y-86124089D01*
X159963555Y-86134222D01*
X159811616Y-86134222D01*
X159813925Y-86107833D01*
X159803787Y-86012972D01*
X159761807Y-86063667D01*
X159717881Y-86117759D01*
X159703806Y-86029178D01*
X159707037Y-85973304D01*
X160168457Y-85973304D01*
X160236811Y-85984248D01*
X160441297Y-85990678D01*
X160612667Y-85991749D01*
X160887415Y-85988567D01*
X161035504Y-85980017D01*
X161040338Y-85967593D01*
X160972500Y-85959340D01*
X160635326Y-85946016D01*
X160288441Y-85956422D01*
X160252833Y-85959340D01*
X160168457Y-85973304D01*
X159707037Y-85973304D01*
X159717872Y-85785963D01*
X159719474Y-85767333D01*
X159722432Y-85719646D01*
X160080577Y-85719646D01*
X160144315Y-85730917D01*
X160345856Y-85737391D01*
X160485667Y-85738309D01*
X160753559Y-85735091D01*
X160897447Y-85726012D01*
X160898849Y-85712730D01*
X160847738Y-85705790D01*
X160547161Y-85692085D01*
X160218435Y-85701403D01*
X160170404Y-85705230D01*
X160080577Y-85719646D01*
X159722432Y-85719646D01*
X159732606Y-85555667D01*
X159850667Y-85555667D01*
X159893000Y-85598000D01*
X159935333Y-85555667D01*
X159893000Y-85513333D01*
X159850667Y-85555667D01*
X159732606Y-85555667D01*
X159735128Y-85515020D01*
X159722800Y-85417727D01*
X159680723Y-85463181D01*
X159676810Y-85471000D01*
X159632266Y-85526663D01*
X159616591Y-85442045D01*
X159619328Y-85383529D01*
X160023255Y-85383529D01*
X160114275Y-85395282D01*
X160334730Y-85400738D01*
X160401000Y-85400884D01*
X160641286Y-85396651D01*
X160749808Y-85386030D01*
X160709894Y-85371093D01*
X160674278Y-85366877D01*
X160375284Y-85353330D01*
X160091345Y-85366393D01*
X160081611Y-85367560D01*
X160023255Y-85383529D01*
X159619328Y-85383529D01*
X159627721Y-85204103D01*
X159627813Y-85202889D01*
X159794222Y-85202889D01*
X159805844Y-85253223D01*
X159850667Y-85259333D01*
X159920357Y-85228355D01*
X159907111Y-85202889D01*
X159806631Y-85192756D01*
X159794222Y-85202889D01*
X159627813Y-85202889D01*
X159629971Y-85174667D01*
X159636903Y-85047814D01*
X159988640Y-85047814D01*
X160084797Y-85060581D01*
X160274000Y-85064628D01*
X160483024Y-85059378D01*
X160561364Y-85045711D01*
X160506833Y-85029357D01*
X160233351Y-85015184D01*
X160041167Y-85029357D01*
X159988640Y-85047814D01*
X159636903Y-85047814D01*
X159642639Y-84942856D01*
X159638281Y-84818509D01*
X159622940Y-84819321D01*
X159566867Y-84882374D01*
X159482282Y-84806850D01*
X159463430Y-84794643D01*
X159898909Y-84794643D01*
X159990418Y-84807975D01*
X160147000Y-84811784D01*
X160347789Y-84806404D01*
X160421183Y-84791313D01*
X160380997Y-84776400D01*
X160148721Y-84761154D01*
X159957664Y-84775245D01*
X159898909Y-84794643D01*
X159463430Y-84794643D01*
X159374108Y-84736807D01*
X159169252Y-84645712D01*
X159074727Y-84610222D01*
X159455555Y-84610222D01*
X159467178Y-84660556D01*
X159512000Y-84666667D01*
X159581690Y-84635688D01*
X159568444Y-84610222D01*
X159467965Y-84600089D01*
X159455555Y-84610222D01*
X159074727Y-84610222D01*
X158920657Y-84552376D01*
X158681269Y-84475612D01*
X158592981Y-84455000D01*
X158919333Y-84455000D01*
X158961667Y-84497333D01*
X158969484Y-84489516D01*
X159267749Y-84489516D01*
X159282784Y-84517876D01*
X159415592Y-84527654D01*
X159615890Y-84521055D01*
X159833400Y-84500284D01*
X160017839Y-84467545D01*
X160062333Y-84454675D01*
X160039440Y-84436906D01*
X159885875Y-84423989D01*
X159766000Y-84420647D01*
X159507156Y-84433093D01*
X159310289Y-84470757D01*
X159267749Y-84489516D01*
X158969484Y-84489516D01*
X159004000Y-84455000D01*
X158961667Y-84412667D01*
X158919333Y-84455000D01*
X158592981Y-84455000D01*
X158504032Y-84434234D01*
X158443679Y-84437805D01*
X158446100Y-84523427D01*
X158464160Y-84745559D01*
X158494988Y-85072393D01*
X158535715Y-85472121D01*
X158544546Y-85555667D01*
X158601729Y-86106958D01*
X158638900Y-86512203D01*
X158655970Y-86793509D01*
X158652853Y-86972986D01*
X158629459Y-87072744D01*
X158585702Y-87114893D01*
X158538333Y-87122000D01*
X158425661Y-87167717D01*
X158411333Y-87206667D01*
X158479494Y-87282724D01*
X158532628Y-87291333D01*
X158651483Y-87362127D01*
X158710848Y-87470689D01*
X158716225Y-87580289D01*
X158649963Y-87710488D01*
X158491786Y-87888900D01*
X158221418Y-88143138D01*
X158208553Y-88154761D01*
X157958316Y-88393402D01*
X157765914Y-88601240D01*
X157660580Y-88745605D01*
X157649333Y-88779739D01*
X157647380Y-88830191D01*
X157627366Y-88865355D01*
X157568059Y-88884118D01*
X157448227Y-88885369D01*
X157246638Y-88867993D01*
X156942061Y-88830880D01*
X156513264Y-88772915D01*
X155939015Y-88692987D01*
X155906090Y-88688392D01*
X155341105Y-88609341D01*
X154922254Y-88551450D01*
X154627828Y-88513481D01*
X154436116Y-88494192D01*
X154325408Y-88492343D01*
X154273993Y-88506694D01*
X154260162Y-88536003D01*
X154158024Y-88536003D01*
X154159911Y-88517298D01*
X154149778Y-88504889D01*
X154099443Y-88516511D01*
X154093333Y-88561333D01*
X153208697Y-88561333D01*
X153192175Y-88442844D01*
X153410816Y-88442844D01*
X153527888Y-88456205D01*
X153585333Y-88457024D01*
X153739369Y-88448196D01*
X153757522Y-88426219D01*
X153733500Y-88418304D01*
X153518766Y-88405136D01*
X153437167Y-88418304D01*
X153410816Y-88442844D01*
X153192175Y-88442844D01*
X153156758Y-88188844D01*
X153410816Y-88188844D01*
X153527888Y-88202205D01*
X153585333Y-88203024D01*
X153739369Y-88194196D01*
X153750819Y-88180333D01*
X153924000Y-88180333D01*
X153966333Y-88222667D01*
X154008667Y-88180333D01*
X153966333Y-88138000D01*
X153924000Y-88180333D01*
X153750819Y-88180333D01*
X153757522Y-88172219D01*
X153733500Y-88164304D01*
X153518766Y-88151136D01*
X153437167Y-88164304D01*
X153410816Y-88188844D01*
X153156758Y-88188844D01*
X153131960Y-88011000D01*
X153839333Y-88011000D01*
X153881667Y-88053333D01*
X153924000Y-88011000D01*
X154093333Y-88011000D01*
X154135667Y-88053333D01*
X154178000Y-88011000D01*
X154142986Y-87975986D01*
X154684775Y-87975986D01*
X154710917Y-88088873D01*
X154900341Y-88185965D01*
X155255573Y-88269299D01*
X155369001Y-88287977D01*
X155896432Y-88337047D01*
X156225099Y-88323691D01*
X156847475Y-88323691D01*
X156849001Y-88398474D01*
X156980366Y-88468332D01*
X157205382Y-88473473D01*
X157464390Y-88421087D01*
X157697733Y-88318363D01*
X157737428Y-88291411D01*
X157929698Y-88128000D01*
X157966494Y-88027595D01*
X157844366Y-87978618D01*
X157641237Y-87968667D01*
X157397537Y-88002869D01*
X157154485Y-88089459D01*
X156956368Y-88204409D01*
X156847475Y-88323691D01*
X156225099Y-88323691D01*
X156363988Y-88318047D01*
X156732274Y-88234104D01*
X156866167Y-88169204D01*
X157008255Y-88056126D01*
X157056667Y-87978704D01*
X156977737Y-87943489D01*
X156762691Y-87899543D01*
X156444143Y-87852413D01*
X156054708Y-87807642D01*
X156044821Y-87806649D01*
X155607429Y-87765407D01*
X155303641Y-87745693D01*
X155098968Y-87748593D01*
X154958919Y-87775196D01*
X154849004Y-87826587D01*
X154819384Y-87845269D01*
X154684775Y-87975986D01*
X154142986Y-87975986D01*
X154135667Y-87968667D01*
X154093333Y-88011000D01*
X153924000Y-88011000D01*
X153881667Y-87968667D01*
X153839333Y-88011000D01*
X153131960Y-88011000D01*
X153117627Y-87908213D01*
X153120587Y-87827799D01*
X153289000Y-87827799D01*
X153797000Y-87884000D01*
X154069669Y-87915893D01*
X154264161Y-87941897D01*
X154331163Y-87954433D01*
X154321947Y-87913282D01*
X154305000Y-87884000D01*
X154201761Y-87841667D01*
X154432000Y-87841667D01*
X154474333Y-87884000D01*
X154516667Y-87841667D01*
X154474333Y-87799333D01*
X154432000Y-87841667D01*
X154201761Y-87841667D01*
X154198122Y-87840175D01*
X153976767Y-87815401D01*
X153770836Y-87813566D01*
X153289000Y-87827799D01*
X153120587Y-87827799D01*
X153127576Y-87637944D01*
X154434259Y-87637944D01*
X154497109Y-87691821D01*
X154512104Y-87702313D01*
X154654446Y-87732295D01*
X154821603Y-87695362D01*
X154930791Y-87614847D01*
X154940000Y-87581709D01*
X154878197Y-87579150D01*
X154791833Y-87615580D01*
X154604625Y-87662667D01*
X154516667Y-87654447D01*
X154434259Y-87637944D01*
X153127576Y-87637944D01*
X153132544Y-87503000D01*
X155024667Y-87503000D01*
X155067000Y-87545333D01*
X155109333Y-87503000D01*
X155067000Y-87460667D01*
X155024667Y-87503000D01*
X153132544Y-87503000D01*
X153141670Y-87255137D01*
X153289000Y-87255137D01*
X154288830Y-87273235D01*
X154739440Y-87286383D01*
X155036362Y-87307819D01*
X155195119Y-87339458D01*
X155231237Y-87383215D01*
X155228248Y-87389082D01*
X155217757Y-87446558D01*
X155272962Y-87421859D01*
X155295071Y-87382351D01*
X155531696Y-87382351D01*
X155538311Y-87409453D01*
X155636513Y-87433561D01*
X155867463Y-87464711D01*
X156194887Y-87499683D01*
X156582509Y-87535259D01*
X156994057Y-87568218D01*
X157393255Y-87595342D01*
X157743829Y-87613411D01*
X157888375Y-87618018D01*
X158180298Y-87618963D01*
X158338089Y-87598978D01*
X158396549Y-87548716D01*
X158395458Y-87481833D01*
X158366982Y-87424643D01*
X158290265Y-87380860D01*
X158141030Y-87346601D01*
X157894998Y-87317984D01*
X157527892Y-87291124D01*
X157025163Y-87262654D01*
X156441315Y-87236854D01*
X156016153Y-87230066D01*
X155740083Y-87242422D01*
X155603514Y-87274056D01*
X155592390Y-87282409D01*
X155531696Y-87382351D01*
X155295071Y-87382351D01*
X155327573Y-87324275D01*
X155300073Y-87278873D01*
X155188628Y-87250068D01*
X154945229Y-87231000D01*
X154607069Y-87223480D01*
X154255529Y-87227998D01*
X153289000Y-87255137D01*
X153141670Y-87255137D01*
X153145262Y-87157586D01*
X153164690Y-87065555D01*
X155137555Y-87065555D01*
X155149178Y-87115890D01*
X155194000Y-87122000D01*
X155263690Y-87091022D01*
X155250444Y-87065555D01*
X155149965Y-87055422D01*
X155137555Y-87065555D01*
X153164690Y-87065555D01*
X153199467Y-86900823D01*
X153698913Y-86900823D01*
X153735303Y-86909928D01*
X153913650Y-86916515D01*
X154220268Y-86919808D01*
X154347333Y-86920039D01*
X154693296Y-86918005D01*
X154915506Y-86912419D01*
X155000279Y-86904060D01*
X154933926Y-86893704D01*
X154876500Y-86889980D01*
X154473914Y-86878185D01*
X154034083Y-86881445D01*
X153818167Y-86889980D01*
X153698913Y-86900823D01*
X153199467Y-86900823D01*
X153237438Y-86720959D01*
X155141937Y-86720959D01*
X155156974Y-86737364D01*
X155264955Y-86759396D01*
X155405783Y-86817017D01*
X155423099Y-86947931D01*
X155409920Y-87008194D01*
X155385080Y-87148260D01*
X155428358Y-87149394D01*
X155474324Y-87109662D01*
X155555483Y-86944357D01*
X155552666Y-86859791D01*
X155681274Y-86859791D01*
X156263137Y-86889646D01*
X156625824Y-86905395D01*
X157075940Y-86920890D01*
X157531600Y-86933394D01*
X157653720Y-86936084D01*
X158462441Y-86952667D01*
X158357921Y-85915500D01*
X158316829Y-85497232D01*
X158282338Y-85126346D01*
X158258079Y-84843272D01*
X158247700Y-84688913D01*
X158238480Y-84619652D01*
X158201641Y-84570023D01*
X158116258Y-84539392D01*
X157961406Y-84527121D01*
X157716160Y-84532577D01*
X157359594Y-84555122D01*
X156870783Y-84594121D01*
X156412215Y-84633149D01*
X155894764Y-84677635D01*
X155838886Y-85370651D01*
X155805104Y-85759828D01*
X155768040Y-86140933D01*
X155735155Y-86437719D01*
X155732141Y-86461729D01*
X155681274Y-86859791D01*
X155552666Y-86859791D01*
X155552317Y-86849333D01*
X155442940Y-86728301D01*
X155289958Y-86710197D01*
X155141937Y-86720959D01*
X153237438Y-86720959D01*
X153282165Y-86509091D01*
X155230721Y-86509091D01*
X155313944Y-86522649D01*
X155423758Y-86507082D01*
X155425069Y-86478180D01*
X155311752Y-86457969D01*
X155262792Y-86471496D01*
X155230721Y-86509091D01*
X153282165Y-86509091D01*
X153299963Y-86424786D01*
X153346185Y-86308307D01*
X153866694Y-86308307D01*
X153898701Y-86317601D01*
X154073638Y-86324278D01*
X154378306Y-86327506D01*
X154474333Y-86327677D01*
X154814505Y-86325635D01*
X155033020Y-86319828D01*
X155115131Y-86311092D01*
X155046089Y-86300260D01*
X155006818Y-86297531D01*
X154636628Y-86285599D01*
X154217993Y-86288354D01*
X153990818Y-86297227D01*
X153866694Y-86308307D01*
X153346185Y-86308307D01*
X153400901Y-86170424D01*
X155230721Y-86170424D01*
X155313944Y-86183982D01*
X155423758Y-86168416D01*
X155425069Y-86139514D01*
X155311752Y-86119302D01*
X155262792Y-86132830D01*
X155230721Y-86170424D01*
X153400901Y-86170424D01*
X153443265Y-86063667D01*
X155549172Y-86063667D01*
X155558324Y-86208262D01*
X155584828Y-86220993D01*
X155588202Y-86213445D01*
X155604951Y-86045365D01*
X155591340Y-85959445D01*
X155564389Y-85924917D01*
X155549731Y-86037374D01*
X155549172Y-86063667D01*
X153443265Y-86063667D01*
X153480276Y-85970401D01*
X154001479Y-85970401D01*
X154040974Y-85980113D01*
X154222354Y-85986847D01*
X154531897Y-85989639D01*
X154559000Y-85989662D01*
X154882390Y-85987410D01*
X155083660Y-85981015D01*
X155147338Y-85971445D01*
X155057954Y-85959669D01*
X155048925Y-85959021D01*
X154694656Y-85946691D01*
X154296211Y-85950551D01*
X154117591Y-85958673D01*
X154001479Y-85970401D01*
X153480276Y-85970401D01*
X153576526Y-85727855D01*
X153583530Y-85716401D01*
X154086146Y-85716401D01*
X154125641Y-85726113D01*
X154307021Y-85732847D01*
X154616563Y-85735639D01*
X154643667Y-85735662D01*
X154967057Y-85733410D01*
X155168327Y-85727015D01*
X155232005Y-85717445D01*
X155142621Y-85705669D01*
X155133591Y-85705021D01*
X154779323Y-85692691D01*
X154380877Y-85696551D01*
X154202258Y-85704673D01*
X154086146Y-85716401D01*
X153583530Y-85716401D01*
X153690451Y-85541555D01*
X155391555Y-85541555D01*
X155403178Y-85591890D01*
X155448000Y-85598000D01*
X155517690Y-85567022D01*
X155504444Y-85541555D01*
X155403965Y-85531422D01*
X155391555Y-85541555D01*
X153690451Y-85541555D01*
X153790084Y-85378627D01*
X154221246Y-85378627D01*
X154268503Y-85388805D01*
X154456465Y-85395548D01*
X154728333Y-85397744D01*
X155034168Y-85395237D01*
X155217349Y-85388131D01*
X155261568Y-85377565D01*
X155175671Y-85366549D01*
X154838200Y-85353791D01*
X154461295Y-85359038D01*
X154329005Y-85366148D01*
X154221246Y-85378627D01*
X153790084Y-85378627D01*
X153897551Y-85202889D01*
X155391555Y-85202889D01*
X155403178Y-85253223D01*
X155448000Y-85259333D01*
X155517690Y-85228355D01*
X155504444Y-85202889D01*
X155403965Y-85192756D01*
X155391555Y-85202889D01*
X153897551Y-85202889D01*
X153940697Y-85132333D01*
X155633839Y-85132333D01*
X155642990Y-85276929D01*
X155669495Y-85289660D01*
X155672869Y-85282111D01*
X155689618Y-85114032D01*
X155676006Y-85028111D01*
X155649056Y-84993584D01*
X155634397Y-85106041D01*
X155633839Y-85132333D01*
X153940697Y-85132333D01*
X153969746Y-85084832D01*
X154007322Y-85042312D01*
X154492577Y-85042312D01*
X154556315Y-85053584D01*
X154757856Y-85060058D01*
X154897667Y-85060975D01*
X155165559Y-85057758D01*
X155309447Y-85048679D01*
X155310849Y-85035397D01*
X155259738Y-85028456D01*
X154959161Y-85014752D01*
X154630435Y-85024070D01*
X154582404Y-85027897D01*
X154492577Y-85042312D01*
X154007322Y-85042312D01*
X154230769Y-84789467D01*
X154632699Y-84789467D01*
X154709887Y-84800991D01*
X154921062Y-84807048D01*
X155024667Y-84807534D01*
X155279062Y-84803857D01*
X155405728Y-84794058D01*
X155386996Y-84779985D01*
X155342167Y-84774323D01*
X155024249Y-84760623D01*
X154707167Y-84774323D01*
X154632699Y-84789467D01*
X154230769Y-84789467D01*
X154474421Y-84513759D01*
X154548850Y-84455148D01*
X154908640Y-84455148D01*
X155004797Y-84467915D01*
X155194000Y-84471962D01*
X155244753Y-84470687D01*
X155779446Y-84470687D01*
X155812150Y-84503177D01*
X155972458Y-84509319D01*
X156108103Y-84499422D01*
X156506333Y-84458583D01*
X156177676Y-84429849D01*
X155949436Y-84427807D01*
X155796887Y-84458859D01*
X155779446Y-84470687D01*
X155244753Y-84470687D01*
X155403024Y-84466711D01*
X155481364Y-84453045D01*
X155426833Y-84436690D01*
X155153351Y-84422517D01*
X154961167Y-84436690D01*
X154908640Y-84455148D01*
X154548850Y-84455148D01*
X154650516Y-84375089D01*
X157243562Y-84375089D01*
X157345327Y-84389119D01*
X157437667Y-84391315D01*
X157611918Y-84384500D01*
X157656892Y-84365313D01*
X157633585Y-84356222D01*
X158608889Y-84356222D01*
X158620511Y-84406556D01*
X158665333Y-84412667D01*
X158735023Y-84381688D01*
X158721778Y-84356222D01*
X158621298Y-84346089D01*
X158608889Y-84356222D01*
X157633585Y-84356222D01*
X157629154Y-84354494D01*
X157425832Y-84338723D01*
X157290487Y-84352785D01*
X157243562Y-84375089D01*
X154650516Y-84375089D01*
X154882463Y-84192439D01*
X156044036Y-84192439D01*
X156139068Y-84197550D01*
X156375749Y-84201659D01*
X156744852Y-84204558D01*
X157237149Y-84206040D01*
X157480000Y-84206191D01*
X158021588Y-84205369D01*
X158443881Y-84203044D01*
X158737653Y-84199421D01*
X158893675Y-84194708D01*
X158902719Y-84189113D01*
X158755558Y-84182842D01*
X158644167Y-84180039D01*
X158069014Y-84171674D01*
X157413681Y-84169282D01*
X156767214Y-84172863D01*
X156315833Y-84180039D01*
X156099882Y-84186533D01*
X156044036Y-84192439D01*
X154882463Y-84192439D01*
X155085345Y-84032677D01*
X155421918Y-83856323D01*
X156420133Y-83856323D01*
X156551396Y-83862079D01*
X156819928Y-83866286D01*
X157215042Y-83868605D01*
X157480000Y-83868955D01*
X157939634Y-83867806D01*
X158278513Y-83864587D01*
X158485952Y-83859633D01*
X158551261Y-83853285D01*
X158463753Y-83845879D01*
X158347833Y-83841515D01*
X157844234Y-83831925D01*
X157274552Y-83830737D01*
X156741828Y-83837953D01*
X156612167Y-83841515D01*
X156436827Y-83849356D01*
X156420133Y-83856323D01*
X155421918Y-83856323D01*
X155797316Y-83659626D01*
X156226938Y-83521946D01*
X157136556Y-83521946D01*
X157218334Y-83534550D01*
X157433930Y-83539757D01*
X157437667Y-83539764D01*
X157662581Y-83535347D01*
X157761509Y-83522941D01*
X157714349Y-83505503D01*
X157456912Y-83490769D01*
X157206349Y-83504639D01*
X157136556Y-83521946D01*
X156226938Y-83521946D01*
X156484297Y-83439471D01*
X157311490Y-83325326D01*
X158114678Y-83367820D01*
G36*
X156340265Y-90726500D02*
X156387649Y-90918238D01*
X156395389Y-90992156D01*
X156438507Y-91216850D01*
X156541843Y-91330356D01*
X156633333Y-91364716D01*
X156746331Y-91402521D01*
X156716295Y-91422024D01*
X156530145Y-91431490D01*
X156527500Y-91431560D01*
X156210000Y-91440000D01*
X156210000Y-91059000D01*
X156231216Y-90804174D01*
X156281379Y-90690910D01*
X156340265Y-90726500D01*
X156340265Y-90726500D01*
G37*
X156340265Y-90726500D02*
X156387649Y-90918238D01*
X156395389Y-90992156D01*
X156438507Y-91216850D01*
X156541843Y-91330356D01*
X156633333Y-91364716D01*
X156746331Y-91402521D01*
X156716295Y-91422024D01*
X156530145Y-91431490D01*
X156527500Y-91431560D01*
X156210000Y-91440000D01*
X156210000Y-91059000D01*
X156231216Y-90804174D01*
X156281379Y-90690910D01*
X156340265Y-90726500D01*
G36*
X157605818Y-90728794D02*
X157680951Y-90823440D01*
X157713642Y-91027621D01*
X157717701Y-91080167D01*
X157709221Y-91311237D01*
X157656673Y-91435463D01*
X157579557Y-91430919D01*
X157510618Y-91313000D01*
X157404015Y-91200476D01*
X157343941Y-91186000D01*
X157239603Y-91253969D01*
X157226000Y-91313000D01*
X157174426Y-91429609D01*
X157057332Y-91408589D01*
X157028444Y-91383555D01*
X156974798Y-91233382D01*
X156984204Y-91018031D01*
X157012399Y-90932000D01*
X157226000Y-90932000D01*
X157278939Y-91069904D01*
X157353000Y-91101333D01*
X157456428Y-91030747D01*
X157480000Y-90932000D01*
X157427060Y-90794096D01*
X157353000Y-90762667D01*
X157249572Y-90833253D01*
X157226000Y-90932000D01*
X157012399Y-90932000D01*
X157047334Y-90825407D01*
X157093880Y-90766916D01*
X157264866Y-90700593D01*
X157453713Y-90693049D01*
X157605818Y-90728794D01*
X157605818Y-90728794D01*
G37*
X157605818Y-90728794D02*
X157680951Y-90823440D01*
X157713642Y-91027621D01*
X157717701Y-91080167D01*
X157709221Y-91311237D01*
X157656673Y-91435463D01*
X157579557Y-91430919D01*
X157510618Y-91313000D01*
X157404015Y-91200476D01*
X157343941Y-91186000D01*
X157239603Y-91253969D01*
X157226000Y-91313000D01*
X157174426Y-91429609D01*
X157057332Y-91408589D01*
X157028444Y-91383555D01*
X156974798Y-91233382D01*
X156984204Y-91018031D01*
X157012399Y-90932000D01*
X157226000Y-90932000D01*
X157278939Y-91069904D01*
X157353000Y-91101333D01*
X157456428Y-91030747D01*
X157480000Y-90932000D01*
X157427060Y-90794096D01*
X157353000Y-90762667D01*
X157249572Y-90833253D01*
X157226000Y-90932000D01*
X157012399Y-90932000D01*
X157047334Y-90825407D01*
X157093880Y-90766916D01*
X157264866Y-90700593D01*
X157453713Y-90693049D01*
X157605818Y-90728794D01*
G36*
X158465886Y-90727462D02*
X158612317Y-90880938D01*
X158642252Y-91059000D01*
X158583448Y-91291650D01*
X158400988Y-91414821D01*
X158189300Y-91440000D01*
X158013578Y-91431263D01*
X157930366Y-91374336D01*
X157905952Y-91228333D01*
X158157333Y-91228333D01*
X158225106Y-91340582D01*
X158284333Y-91355333D01*
X158396582Y-91287560D01*
X158411333Y-91228333D01*
X158343560Y-91116085D01*
X158284333Y-91101333D01*
X158172085Y-91169106D01*
X158157333Y-91228333D01*
X157905952Y-91228333D01*
X157905084Y-91223146D01*
X157903333Y-91059000D01*
X157908076Y-90889667D01*
X158157333Y-90889667D01*
X158225106Y-91001915D01*
X158284333Y-91016667D01*
X158396582Y-90948894D01*
X158411333Y-90889667D01*
X158343560Y-90777418D01*
X158284333Y-90762667D01*
X158172085Y-90830439D01*
X158157333Y-90889667D01*
X157908076Y-90889667D01*
X157909891Y-90824882D01*
X157952619Y-90714017D01*
X158066097Y-90680332D01*
X158189300Y-90678000D01*
X158465886Y-90727462D01*
X158465886Y-90727462D01*
G37*
X158465886Y-90727462D02*
X158612317Y-90880938D01*
X158642252Y-91059000D01*
X158583448Y-91291650D01*
X158400988Y-91414821D01*
X158189300Y-91440000D01*
X158013578Y-91431263D01*
X157930366Y-91374336D01*
X157905952Y-91228333D01*
X158157333Y-91228333D01*
X158225106Y-91340582D01*
X158284333Y-91355333D01*
X158396582Y-91287560D01*
X158411333Y-91228333D01*
X158343560Y-91116085D01*
X158284333Y-91101333D01*
X158172085Y-91169106D01*
X158157333Y-91228333D01*
X157905952Y-91228333D01*
X157905084Y-91223146D01*
X157903333Y-91059000D01*
X157908076Y-90889667D01*
X158157333Y-90889667D01*
X158225106Y-91001915D01*
X158284333Y-91016667D01*
X158396582Y-90948894D01*
X158411333Y-90889667D01*
X158343560Y-90777418D01*
X158284333Y-90762667D01*
X158172085Y-90830439D01*
X158157333Y-90889667D01*
X157908076Y-90889667D01*
X157909891Y-90824882D01*
X157952619Y-90714017D01*
X158066097Y-90680332D01*
X158189300Y-90678000D01*
X158465886Y-90727462D01*
G36*
X154918833Y-89509194D02*
X155321000Y-89535000D01*
X155338088Y-89937167D01*
X155335042Y-90194490D01*
X155291892Y-90316970D01*
X155232255Y-90339333D01*
X155132608Y-90268851D01*
X155109333Y-90170000D01*
X155049465Y-90028496D01*
X154940000Y-90000667D01*
X154798496Y-90060535D01*
X154770667Y-90170000D01*
X154717727Y-90307904D01*
X154643667Y-90339333D01*
X154564185Y-90294442D01*
X154525113Y-90138759D01*
X154516667Y-89911361D01*
X154516667Y-89704333D01*
X154770667Y-89704333D01*
X154841253Y-89807761D01*
X154940000Y-89831333D01*
X155077904Y-89778394D01*
X155109333Y-89704333D01*
X155038747Y-89600905D01*
X154940000Y-89577333D01*
X154802096Y-89630273D01*
X154770667Y-89704333D01*
X154516667Y-89704333D01*
X154516667Y-89483389D01*
X154918833Y-89509194D01*
X154918833Y-89509194D01*
G37*
X154918833Y-89509194D02*
X155321000Y-89535000D01*
X155338088Y-89937167D01*
X155335042Y-90194490D01*
X155291892Y-90316970D01*
X155232255Y-90339333D01*
X155132608Y-90268851D01*
X155109333Y-90170000D01*
X155049465Y-90028496D01*
X154940000Y-90000667D01*
X154798496Y-90060535D01*
X154770667Y-90170000D01*
X154717727Y-90307904D01*
X154643667Y-90339333D01*
X154564185Y-90294442D01*
X154525113Y-90138759D01*
X154516667Y-89911361D01*
X154516667Y-89704333D01*
X154770667Y-89704333D01*
X154841253Y-89807761D01*
X154940000Y-89831333D01*
X155077904Y-89778394D01*
X155109333Y-89704333D01*
X155038747Y-89600905D01*
X154940000Y-89577333D01*
X154802096Y-89630273D01*
X154770667Y-89704333D01*
X154516667Y-89704333D01*
X154516667Y-89483389D01*
X154918833Y-89509194D01*
G36*
X155934833Y-89674686D02*
X156114965Y-89685722D01*
X156134290Y-89701004D01*
X156019500Y-89722643D01*
X155836349Y-89780768D01*
X155795089Y-89860590D01*
X155906508Y-89934123D01*
X155934833Y-89942304D01*
X156039180Y-89974482D01*
X155979056Y-89987747D01*
X155934833Y-89990845D01*
X155805188Y-90044275D01*
X155798916Y-90144750D01*
X155901109Y-90241582D01*
X156019500Y-90278690D01*
X156138957Y-90302022D01*
X156105357Y-90316718D01*
X155934833Y-90326647D01*
X155731617Y-90326242D01*
X155641309Y-90271697D01*
X155618096Y-90115975D01*
X155617333Y-90000667D01*
X155625325Y-89784222D01*
X155679844Y-89690072D01*
X155826703Y-89671179D01*
X155934833Y-89674686D01*
X155934833Y-89674686D01*
G37*
X155934833Y-89674686D02*
X156114965Y-89685722D01*
X156134290Y-89701004D01*
X156019500Y-89722643D01*
X155836349Y-89780768D01*
X155795089Y-89860590D01*
X155906508Y-89934123D01*
X155934833Y-89942304D01*
X156039180Y-89974482D01*
X155979056Y-89987747D01*
X155934833Y-89990845D01*
X155805188Y-90044275D01*
X155798916Y-90144750D01*
X155901109Y-90241582D01*
X156019500Y-90278690D01*
X156138957Y-90302022D01*
X156105357Y-90316718D01*
X155934833Y-90326647D01*
X155731617Y-90326242D01*
X155641309Y-90271697D01*
X155618096Y-90115975D01*
X155617333Y-90000667D01*
X155625325Y-89784222D01*
X155679844Y-89690072D01*
X155826703Y-89671179D01*
X155934833Y-89674686D01*
G36*
X156798585Y-89685371D02*
X156838273Y-89710190D01*
X156823833Y-89718073D01*
X156752305Y-89823478D01*
X156718422Y-90024023D01*
X156718000Y-90050055D01*
X156696254Y-90243102D01*
X156642943Y-90337468D01*
X156633333Y-90339333D01*
X156576832Y-90265033D01*
X156549212Y-90082887D01*
X156548667Y-90050055D01*
X156520663Y-89843244D01*
X156452295Y-89723045D01*
X156442833Y-89718073D01*
X156444369Y-89690686D01*
X156580452Y-89676103D01*
X156633333Y-89675368D01*
X156798585Y-89685371D01*
X156798585Y-89685371D01*
G37*
X156798585Y-89685371D02*
X156838273Y-89710190D01*
X156823833Y-89718073D01*
X156752305Y-89823478D01*
X156718422Y-90024023D01*
X156718000Y-90050055D01*
X156696254Y-90243102D01*
X156642943Y-90337468D01*
X156633333Y-90339333D01*
X156576832Y-90265033D01*
X156549212Y-90082887D01*
X156548667Y-90050055D01*
X156520663Y-89843244D01*
X156452295Y-89723045D01*
X156442833Y-89718073D01*
X156444369Y-89690686D01*
X156580452Y-89676103D01*
X156633333Y-89675368D01*
X156798585Y-89685371D01*
G36*
X157528975Y-89704299D02*
X157629573Y-89846232D01*
X157629785Y-90110351D01*
X157625259Y-90141681D01*
X157595841Y-90300922D01*
X157566310Y-90303433D01*
X157524404Y-90191167D01*
X157427728Y-90041205D01*
X157313296Y-90008471D01*
X157235075Y-90096792D01*
X157226000Y-90170000D01*
X157190544Y-90307580D01*
X157141333Y-90339333D01*
X157088315Y-90264221D01*
X157058825Y-90076582D01*
X157056667Y-90000667D01*
X157064429Y-89831333D01*
X157226000Y-89831333D01*
X157294576Y-89906448D01*
X157353000Y-89916000D01*
X157465672Y-89870282D01*
X157480000Y-89831333D01*
X157411423Y-89756219D01*
X157353000Y-89746667D01*
X157240328Y-89792384D01*
X157226000Y-89831333D01*
X157064429Y-89831333D01*
X157066620Y-89783545D01*
X157121014Y-89687026D01*
X157256646Y-89662554D01*
X157313324Y-89662000D01*
X157528975Y-89704299D01*
X157528975Y-89704299D01*
G37*
X157528975Y-89704299D02*
X157629573Y-89846232D01*
X157629785Y-90110351D01*
X157625259Y-90141681D01*
X157595841Y-90300922D01*
X157566310Y-90303433D01*
X157524404Y-90191167D01*
X157427728Y-90041205D01*
X157313296Y-90008471D01*
X157235075Y-90096792D01*
X157226000Y-90170000D01*
X157190544Y-90307580D01*
X157141333Y-90339333D01*
X157088315Y-90264221D01*
X157058825Y-90076582D01*
X157056667Y-90000667D01*
X157064429Y-89831333D01*
X157226000Y-89831333D01*
X157294576Y-89906448D01*
X157353000Y-89916000D01*
X157465672Y-89870282D01*
X157480000Y-89831333D01*
X157411423Y-89756219D01*
X157353000Y-89746667D01*
X157240328Y-89792384D01*
X157226000Y-89831333D01*
X157064429Y-89831333D01*
X157066620Y-89783545D01*
X157121014Y-89687026D01*
X157256646Y-89662554D01*
X157313324Y-89662000D01*
X157528975Y-89704299D01*
G36*
X158305500Y-89713841D02*
X158449456Y-89879771D01*
X158471685Y-90076407D01*
X158385538Y-90247386D01*
X158204366Y-90336344D01*
X158157333Y-90339333D01*
X157978381Y-90278269D01*
X157906709Y-90216400D01*
X157832696Y-90027538D01*
X157839413Y-90000667D01*
X158072667Y-90000667D01*
X158100622Y-90194745D01*
X158178500Y-90233500D01*
X158261144Y-90131449D01*
X158284333Y-90000667D01*
X158244421Y-89833094D01*
X158178500Y-89767833D01*
X158098211Y-89811891D01*
X158072667Y-90000667D01*
X157839413Y-90000667D01*
X157878769Y-89843252D01*
X158008873Y-89708978D01*
X158186955Y-89670149D01*
X158305500Y-89713841D01*
X158305500Y-89713841D01*
G37*
X158305500Y-89713841D02*
X158449456Y-89879771D01*
X158471685Y-90076407D01*
X158385538Y-90247386D01*
X158204366Y-90336344D01*
X158157333Y-90339333D01*
X157978381Y-90278269D01*
X157906709Y-90216400D01*
X157832696Y-90027538D01*
X157839413Y-90000667D01*
X158072667Y-90000667D01*
X158100622Y-90194745D01*
X158178500Y-90233500D01*
X158261144Y-90131449D01*
X158284333Y-90000667D01*
X158244421Y-89833094D01*
X158178500Y-89767833D01*
X158098211Y-89811891D01*
X158072667Y-90000667D01*
X157839413Y-90000667D01*
X157878769Y-89843252D01*
X158008873Y-89708978D01*
X158186955Y-89670149D01*
X158305500Y-89713841D01*
G36*
X158940500Y-89677802D02*
X159125885Y-89712510D01*
X159201529Y-89804924D01*
X159215667Y-90000667D01*
X159200036Y-90201819D01*
X159120995Y-90290903D01*
X158940500Y-90323531D01*
X158766303Y-90330770D01*
X158687468Y-90277707D01*
X158666196Y-90119992D01*
X158665333Y-90000667D01*
X158834667Y-90000667D01*
X158872531Y-90202319D01*
X158961667Y-90254667D01*
X159073915Y-90186894D01*
X159088667Y-90127667D01*
X159031246Y-90011197D01*
X158982833Y-89993982D01*
X158920441Y-89976964D01*
X158982833Y-89944593D01*
X159081834Y-89854690D01*
X159048410Y-89767810D01*
X158961667Y-89746667D01*
X158860840Y-89822395D01*
X158834667Y-90000667D01*
X158665333Y-90000667D01*
X158672859Y-89780204D01*
X158720636Y-89684709D01*
X158846460Y-89669831D01*
X158940500Y-89677802D01*
X158940500Y-89677802D01*
G37*
X158940500Y-89677802D02*
X159125885Y-89712510D01*
X159201529Y-89804924D01*
X159215667Y-90000667D01*
X159200036Y-90201819D01*
X159120995Y-90290903D01*
X158940500Y-90323531D01*
X158766303Y-90330770D01*
X158687468Y-90277707D01*
X158666196Y-90119992D01*
X158665333Y-90000667D01*
X158834667Y-90000667D01*
X158872531Y-90202319D01*
X158961667Y-90254667D01*
X159073915Y-90186894D01*
X159088667Y-90127667D01*
X159031246Y-90011197D01*
X158982833Y-89993982D01*
X158920441Y-89976964D01*
X158982833Y-89944593D01*
X159081834Y-89854690D01*
X159048410Y-89767810D01*
X158961667Y-89746667D01*
X158860840Y-89822395D01*
X158834667Y-90000667D01*
X158665333Y-90000667D01*
X158672859Y-89780204D01*
X158720636Y-89684709D01*
X158846460Y-89669831D01*
X158940500Y-89677802D01*
G36*
X159565018Y-89737112D02*
X159594508Y-89924751D01*
X159596667Y-90000667D01*
X159577888Y-90212740D01*
X159530979Y-90330697D01*
X159512000Y-90339333D01*
X159458981Y-90264221D01*
X159429492Y-90076582D01*
X159427333Y-90000667D01*
X159446111Y-89788593D01*
X159493021Y-89670636D01*
X159512000Y-89662000D01*
X159565018Y-89737112D01*
X159565018Y-89737112D01*
G37*
X159565018Y-89737112D02*
X159594508Y-89924751D01*
X159596667Y-90000667D01*
X159577888Y-90212740D01*
X159530979Y-90330697D01*
X159512000Y-90339333D01*
X159458981Y-90264221D01*
X159429492Y-90076582D01*
X159427333Y-90000667D01*
X159446111Y-89788593D01*
X159493021Y-89670636D01*
X159512000Y-89662000D01*
X159565018Y-89737112D01*
G36*
X160271430Y-89518803D02*
X160361198Y-89535521D01*
X160337500Y-89551029D01*
X160239244Y-89622347D01*
X160195480Y-89795209D01*
X160189333Y-89964541D01*
X160172173Y-90213406D01*
X160114011Y-90325376D01*
X160062333Y-90339333D01*
X159978004Y-90288692D01*
X159940063Y-90117049D01*
X159935333Y-89964541D01*
X159917290Y-89711286D01*
X159853474Y-89583907D01*
X159787167Y-89551029D01*
X159776280Y-89529632D01*
X159905255Y-89515570D01*
X160062333Y-89512309D01*
X160271430Y-89518803D01*
X160271430Y-89518803D01*
G37*
X160271430Y-89518803D02*
X160361198Y-89535521D01*
X160337500Y-89551029D01*
X160239244Y-89622347D01*
X160195480Y-89795209D01*
X160189333Y-89964541D01*
X160172173Y-90213406D01*
X160114011Y-90325376D01*
X160062333Y-90339333D01*
X159978004Y-90288692D01*
X159940063Y-90117049D01*
X159935333Y-89964541D01*
X159917290Y-89711286D01*
X159853474Y-89583907D01*
X159787167Y-89551029D01*
X159776280Y-89529632D01*
X159905255Y-89515570D01*
X160062333Y-89512309D01*
X160271430Y-89518803D01*
G36*
X157875111Y-88843555D02*
X157863489Y-88893890D01*
X157818667Y-88900000D01*
X157748976Y-88869022D01*
X157762222Y-88843555D01*
X157862702Y-88833422D01*
X157875111Y-88843555D01*
X157875111Y-88843555D01*
G37*
X157875111Y-88843555D02*
X157863489Y-88893890D01*
X157818667Y-88900000D01*
X157748976Y-88869022D01*
X157762222Y-88843555D01*
X157862702Y-88833422D01*
X157875111Y-88843555D01*
G36*
X158072667Y-88773000D02*
X158030333Y-88815333D01*
X157988000Y-88773000D01*
X158030333Y-88730667D01*
X158072667Y-88773000D01*
X158072667Y-88773000D01*
G37*
X158072667Y-88773000D02*
X158030333Y-88815333D01*
X157988000Y-88773000D01*
X158030333Y-88730667D01*
X158072667Y-88773000D01*
G36*
X158242000Y-88688333D02*
X158199667Y-88730667D01*
X158157333Y-88688333D01*
X158199667Y-88646000D01*
X158242000Y-88688333D01*
X158242000Y-88688333D01*
G37*
X158242000Y-88688333D02*
X158199667Y-88730667D01*
X158157333Y-88688333D01*
X158199667Y-88646000D01*
X158242000Y-88688333D01*
G36*
X158467778Y-88589555D02*
X158456155Y-88639890D01*
X158411333Y-88646000D01*
X158341643Y-88615022D01*
X158354889Y-88589555D01*
X158455368Y-88579422D01*
X158467778Y-88589555D01*
X158467778Y-88589555D01*
G37*
X158467778Y-88589555D02*
X158456155Y-88639890D01*
X158411333Y-88646000D01*
X158341643Y-88615022D01*
X158354889Y-88589555D01*
X158455368Y-88579422D01*
X158467778Y-88589555D01*
G36*
X158665333Y-88519000D02*
X158623000Y-88561333D01*
X158580667Y-88519000D01*
X158623000Y-88476667D01*
X158665333Y-88519000D01*
X158665333Y-88519000D01*
G37*
X158665333Y-88519000D02*
X158623000Y-88561333D01*
X158580667Y-88519000D01*
X158623000Y-88476667D01*
X158665333Y-88519000D01*
G36*
X158834667Y-88434333D02*
X158792333Y-88476667D01*
X158750000Y-88434333D01*
X158792333Y-88392000D01*
X158834667Y-88434333D01*
X158834667Y-88434333D01*
G37*
X158834667Y-88434333D02*
X158792333Y-88476667D01*
X158750000Y-88434333D01*
X158792333Y-88392000D01*
X158834667Y-88434333D01*
G36*
X159060444Y-88335555D02*
X159048822Y-88385890D01*
X159004000Y-88392000D01*
X158934310Y-88361022D01*
X158947555Y-88335555D01*
X159048035Y-88325422D01*
X159060444Y-88335555D01*
X159060444Y-88335555D01*
G37*
X159060444Y-88335555D02*
X159048822Y-88385890D01*
X159004000Y-88392000D01*
X158934310Y-88361022D01*
X158947555Y-88335555D01*
X159048035Y-88325422D01*
X159060444Y-88335555D01*
G36*
X159258000Y-88265000D02*
X159215667Y-88307333D01*
X159173333Y-88265000D01*
X159215667Y-88222667D01*
X159258000Y-88265000D01*
X159258000Y-88265000D01*
G37*
X159258000Y-88265000D02*
X159215667Y-88307333D01*
X159173333Y-88265000D01*
X159215667Y-88222667D01*
X159258000Y-88265000D01*
G36*
X159427333Y-88180333D02*
X159385000Y-88222667D01*
X159342667Y-88180333D01*
X159385000Y-88138000D01*
X159427333Y-88180333D01*
X159427333Y-88180333D01*
G37*
X159427333Y-88180333D02*
X159385000Y-88222667D01*
X159342667Y-88180333D01*
X159385000Y-88138000D01*
X159427333Y-88180333D01*
G36*
X159653111Y-88081555D02*
X159641489Y-88131890D01*
X159596667Y-88138000D01*
X159526976Y-88107022D01*
X159540222Y-88081555D01*
X159640702Y-88071422D01*
X159653111Y-88081555D01*
X159653111Y-88081555D01*
G37*
X159653111Y-88081555D02*
X159641489Y-88131890D01*
X159596667Y-88138000D01*
X159526976Y-88107022D01*
X159540222Y-88081555D01*
X159640702Y-88071422D01*
X159653111Y-88081555D01*
G36*
X159850667Y-88011000D02*
X159808333Y-88053333D01*
X159766000Y-88011000D01*
X159808333Y-87968667D01*
X159850667Y-88011000D01*
X159850667Y-88011000D01*
G37*
X159850667Y-88011000D02*
X159808333Y-88053333D01*
X159766000Y-88011000D01*
X159808333Y-87968667D01*
X159850667Y-88011000D01*
G36*
X157905612Y-84692273D02*
X158049995Y-84777934D01*
X158125357Y-84958297D01*
X158151540Y-85257902D01*
X158148386Y-85701288D01*
X158148024Y-85718040D01*
X158137331Y-86086986D01*
X158123452Y-86394380D01*
X158108501Y-86599519D01*
X158099241Y-86658644D01*
X158004054Y-86704179D01*
X157781941Y-86738517D01*
X157474977Y-86761081D01*
X157125236Y-86771294D01*
X156774793Y-86768580D01*
X156465720Y-86752360D01*
X156240094Y-86722059D01*
X156145963Y-86685430D01*
X156089961Y-86560000D01*
X156053911Y-86346947D01*
X156038065Y-86093437D01*
X156040993Y-85936667D01*
X156640410Y-85936667D01*
X156672079Y-85991081D01*
X156796323Y-86133239D01*
X156972000Y-86317667D01*
X157172259Y-86515409D01*
X157323571Y-86653142D01*
X157388256Y-86698667D01*
X157356588Y-86644252D01*
X157232343Y-86502094D01*
X157056667Y-86317667D01*
X156856407Y-86119924D01*
X156794604Y-86063667D01*
X157014333Y-86063667D01*
X157306109Y-86381167D01*
X157501272Y-86588006D01*
X157607929Y-86684089D01*
X157647403Y-86687544D01*
X157649333Y-86672942D01*
X157592679Y-86606256D01*
X157447704Y-86463709D01*
X157331833Y-86355442D01*
X157198596Y-86233000D01*
X157437667Y-86233000D01*
X157642925Y-86465833D01*
X157808399Y-86642759D01*
X157888747Y-86697693D01*
X157903333Y-86671092D01*
X157846537Y-86603024D01*
X157706338Y-86470181D01*
X157670500Y-86438258D01*
X157582458Y-86360643D01*
X157824213Y-86360643D01*
X157845237Y-86404487D01*
X157892533Y-86465833D01*
X158016114Y-86597463D01*
X158071276Y-86596890D01*
X158072667Y-86582033D01*
X158014807Y-86511359D01*
X157924500Y-86433867D01*
X157824213Y-86360643D01*
X157582458Y-86360643D01*
X157437667Y-86233000D01*
X157198596Y-86233000D01*
X157014333Y-86063667D01*
X156794604Y-86063667D01*
X156705095Y-85982191D01*
X156640410Y-85936667D01*
X156040993Y-85936667D01*
X156042676Y-85846640D01*
X156067997Y-85653723D01*
X156114279Y-85561854D01*
X156139970Y-85564713D01*
X156170171Y-85552149D01*
X156107231Y-85437635D01*
X156101663Y-85429619D01*
X156012550Y-85216740D01*
X156024992Y-85161833D01*
X156247007Y-85407500D01*
X156427583Y-85599859D01*
X156521414Y-85677524D01*
X156548662Y-85657119D01*
X156548667Y-85656174D01*
X156491984Y-85588890D01*
X156349154Y-85450402D01*
X156273500Y-85381007D01*
X156026009Y-85157345D01*
X156041714Y-85088042D01*
X156065124Y-85005333D01*
X156132410Y-85005333D01*
X156164079Y-85059748D01*
X156288323Y-85201906D01*
X156464000Y-85386333D01*
X156664259Y-85584076D01*
X156815571Y-85721808D01*
X156880256Y-85767333D01*
X156848588Y-85712919D01*
X156724343Y-85570761D01*
X156548667Y-85386333D01*
X156348407Y-85188591D01*
X156197095Y-85050858D01*
X156132410Y-85005333D01*
X156065124Y-85005333D01*
X156082439Y-84944164D01*
X156065910Y-84889465D01*
X156043844Y-84851068D01*
X156096868Y-84826389D01*
X156188252Y-84815445D01*
X156587817Y-85238167D01*
X156823356Y-85484469D01*
X156965967Y-85624413D01*
X157036705Y-85676868D01*
X157056627Y-85660701D01*
X157056667Y-85658317D01*
X156999917Y-85592808D01*
X156850286Y-85442707D01*
X156638705Y-85238945D01*
X156612167Y-85213817D01*
X156190431Y-84815184D01*
X156259532Y-84806908D01*
X156422449Y-84794483D01*
X156969554Y-85365167D01*
X157241102Y-85646571D01*
X157416597Y-85822482D01*
X157515721Y-85911020D01*
X157558153Y-85930303D01*
X157564667Y-85913054D01*
X157507758Y-85848256D01*
X157354996Y-85693804D01*
X157133323Y-85476643D01*
X156993167Y-85341554D01*
X156422513Y-84794478D01*
X156433146Y-84793667D01*
X156675667Y-84793667D01*
X157266062Y-85407500D01*
X157548826Y-85699854D01*
X157734701Y-85886751D01*
X157842903Y-85985995D01*
X157892649Y-86015389D01*
X157903333Y-85997896D01*
X157846372Y-85933279D01*
X157692772Y-85777741D01*
X157468456Y-85557207D01*
X157289500Y-85384062D01*
X156675667Y-84793667D01*
X156433146Y-84793667D01*
X156464000Y-84791314D01*
X156706794Y-84770587D01*
X157038775Y-84737997D01*
X157330412Y-84706901D01*
X157672365Y-84676775D01*
X157905612Y-84692273D01*
X157905612Y-84692273D01*
G37*
X157905612Y-84692273D02*
X158049995Y-84777934D01*
X158125357Y-84958297D01*
X158151540Y-85257902D01*
X158148386Y-85701288D01*
X158148024Y-85718040D01*
X158137331Y-86086986D01*
X158123452Y-86394380D01*
X158108501Y-86599519D01*
X158099241Y-86658644D01*
X158004054Y-86704179D01*
X157781941Y-86738517D01*
X157474977Y-86761081D01*
X157125236Y-86771294D01*
X156774793Y-86768580D01*
X156465720Y-86752360D01*
X156240094Y-86722059D01*
X156145963Y-86685430D01*
X156089961Y-86560000D01*
X156053911Y-86346947D01*
X156038065Y-86093437D01*
X156040993Y-85936667D01*
X156640410Y-85936667D01*
X156672079Y-85991081D01*
X156796323Y-86133239D01*
X156972000Y-86317667D01*
X157172259Y-86515409D01*
X157323571Y-86653142D01*
X157388256Y-86698667D01*
X157356588Y-86644252D01*
X157232343Y-86502094D01*
X157056667Y-86317667D01*
X156856407Y-86119924D01*
X156794604Y-86063667D01*
X157014333Y-86063667D01*
X157306109Y-86381167D01*
X157501272Y-86588006D01*
X157607929Y-86684089D01*
X157647403Y-86687544D01*
X157649333Y-86672942D01*
X157592679Y-86606256D01*
X157447704Y-86463709D01*
X157331833Y-86355442D01*
X157198596Y-86233000D01*
X157437667Y-86233000D01*
X157642925Y-86465833D01*
X157808399Y-86642759D01*
X157888747Y-86697693D01*
X157903333Y-86671092D01*
X157846537Y-86603024D01*
X157706338Y-86470181D01*
X157670500Y-86438258D01*
X157582458Y-86360643D01*
X157824213Y-86360643D01*
X157845237Y-86404487D01*
X157892533Y-86465833D01*
X158016114Y-86597463D01*
X158071276Y-86596890D01*
X158072667Y-86582033D01*
X158014807Y-86511359D01*
X157924500Y-86433867D01*
X157824213Y-86360643D01*
X157582458Y-86360643D01*
X157437667Y-86233000D01*
X157198596Y-86233000D01*
X157014333Y-86063667D01*
X156794604Y-86063667D01*
X156705095Y-85982191D01*
X156640410Y-85936667D01*
X156040993Y-85936667D01*
X156042676Y-85846640D01*
X156067997Y-85653723D01*
X156114279Y-85561854D01*
X156139970Y-85564713D01*
X156170171Y-85552149D01*
X156107231Y-85437635D01*
X156101663Y-85429619D01*
X156012550Y-85216740D01*
X156024992Y-85161833D01*
X156247007Y-85407500D01*
X156427583Y-85599859D01*
X156521414Y-85677524D01*
X156548662Y-85657119D01*
X156548667Y-85656174D01*
X156491984Y-85588890D01*
X156349154Y-85450402D01*
X156273500Y-85381007D01*
X156026009Y-85157345D01*
X156041714Y-85088042D01*
X156065124Y-85005333D01*
X156132410Y-85005333D01*
X156164079Y-85059748D01*
X156288323Y-85201906D01*
X156464000Y-85386333D01*
X156664259Y-85584076D01*
X156815571Y-85721808D01*
X156880256Y-85767333D01*
X156848588Y-85712919D01*
X156724343Y-85570761D01*
X156548667Y-85386333D01*
X156348407Y-85188591D01*
X156197095Y-85050858D01*
X156132410Y-85005333D01*
X156065124Y-85005333D01*
X156082439Y-84944164D01*
X156065910Y-84889465D01*
X156043844Y-84851068D01*
X156096868Y-84826389D01*
X156188252Y-84815445D01*
X156587817Y-85238167D01*
X156823356Y-85484469D01*
X156965967Y-85624413D01*
X157036705Y-85676868D01*
X157056627Y-85660701D01*
X157056667Y-85658317D01*
X156999917Y-85592808D01*
X156850286Y-85442707D01*
X156638705Y-85238945D01*
X156612167Y-85213817D01*
X156190431Y-84815184D01*
X156259532Y-84806908D01*
X156422449Y-84794483D01*
X156969554Y-85365167D01*
X157241102Y-85646571D01*
X157416597Y-85822482D01*
X157515721Y-85911020D01*
X157558153Y-85930303D01*
X157564667Y-85913054D01*
X157507758Y-85848256D01*
X157354996Y-85693804D01*
X157133323Y-85476643D01*
X156993167Y-85341554D01*
X156422513Y-84794478D01*
X156433146Y-84793667D01*
X156675667Y-84793667D01*
X157266062Y-85407500D01*
X157548826Y-85699854D01*
X157734701Y-85886751D01*
X157842903Y-85985995D01*
X157892649Y-86015389D01*
X157903333Y-85997896D01*
X157846372Y-85933279D01*
X157692772Y-85777741D01*
X157468456Y-85557207D01*
X157289500Y-85384062D01*
X156675667Y-84793667D01*
X156433146Y-84793667D01*
X156464000Y-84791314D01*
X156706794Y-84770587D01*
X157038775Y-84737997D01*
X157330412Y-84706901D01*
X157672365Y-84676775D01*
X157905612Y-84692273D01*
D14*
X168038780Y-111909860D02*
X168399460Y-113380520D01*
X168399460Y-113380520D02*
X168678860Y-112318800D01*
X168678860Y-112318800D02*
X168988740Y-113390680D01*
X168988740Y-113390680D02*
X169329100Y-111940340D01*
X166618920Y-112600740D02*
X167408860Y-112590580D01*
X167408860Y-112590580D02*
X167419020Y-112600740D01*
X167419020Y-112600740D02*
X167419020Y-112590580D01*
X167459660Y-111879380D02*
X167459660Y-113421160D01*
X166570660Y-111869220D02*
X166570660Y-113438940D01*
X166570660Y-113438940D02*
X166580820Y-113428780D01*
X166019480Y-111970820D02*
X165668960Y-111889540D01*
X165668960Y-111889540D02*
X165348920Y-111879380D01*
X165348920Y-111879380D02*
X165110160Y-112080040D01*
X165110160Y-112080040D02*
X165079680Y-112349280D01*
X165079680Y-112349280D02*
X165320980Y-112590580D01*
X165320980Y-112590580D02*
X165709600Y-112720120D01*
X165709600Y-112720120D02*
X165889940Y-112880140D01*
X165889940Y-112880140D02*
X165930580Y-113179860D01*
X165930580Y-113179860D02*
X165699440Y-113400840D01*
X165699440Y-113400840D02*
X165379400Y-113428780D01*
X165379400Y-113428780D02*
X165028880Y-113319560D01*
X163990020Y-111869220D02*
X163741100Y-111889540D01*
X163741100Y-111889540D02*
X163499800Y-112130840D01*
X163499800Y-112130840D02*
X163410900Y-112621060D01*
X163410900Y-112621060D02*
X163438840Y-112969040D01*
X163438840Y-112969040D02*
X163639500Y-113289080D01*
X163639500Y-113289080D02*
X163890960Y-113411000D01*
X163890960Y-113411000D02*
X164200840Y-113339880D01*
X164200840Y-113339880D02*
X164419280Y-113159540D01*
X164419280Y-113159540D02*
X164490400Y-112699800D01*
X164490400Y-112699800D02*
X164439600Y-112290860D01*
X164439600Y-112290860D02*
X164330380Y-112008920D01*
X164330380Y-112008920D02*
X163969700Y-111879380D01*
X164589460Y-110149640D02*
X164330380Y-110710980D01*
X164330380Y-110710980D02*
X164868860Y-111229140D01*
X164868860Y-111229140D02*
X165389560Y-110959900D01*
X165389560Y-110959900D02*
X165668960Y-111119920D01*
X167109140Y-111099600D02*
X167439340Y-110909100D01*
X167439340Y-110909100D02*
X167878760Y-111239300D01*
X167878760Y-111239300D02*
X168351200Y-110749080D01*
X168351200Y-110749080D02*
X168069260Y-110269020D01*
X168069260Y-110269020D02*
X168259760Y-109799120D01*
X168259760Y-109799120D02*
X168869360Y-109611160D01*
X168869360Y-109611160D02*
X168869360Y-108930440D01*
X168869360Y-108930440D02*
X168310560Y-108790740D01*
X168310560Y-108790740D02*
X168109900Y-108219240D01*
X168109900Y-108219240D02*
X168379140Y-107749340D01*
X168379140Y-107749340D02*
X167909240Y-107238800D01*
X167909240Y-107238800D02*
X167391080Y-107500420D01*
X167391080Y-107500420D02*
X166921180Y-107299760D01*
X166921180Y-107299760D02*
X166751000Y-106758740D01*
X166751000Y-106758740D02*
X166060120Y-106740960D01*
X166060120Y-106740960D02*
X165849300Y-107289600D01*
X165849300Y-107289600D02*
X165430200Y-107459780D01*
X165430200Y-107459780D02*
X164879020Y-107190540D01*
X164879020Y-107190540D02*
X164360860Y-107718860D01*
X164360860Y-107718860D02*
X164609780Y-108259880D01*
X164609780Y-108259880D02*
X164439600Y-108739940D01*
X164439600Y-108739940D02*
X163890960Y-108839000D01*
X163890960Y-108839000D02*
X163880800Y-109540040D01*
X163880800Y-109540040D02*
X164439600Y-109740700D01*
X164439600Y-109740700D02*
X164579300Y-110139480D01*
X166720520Y-110119160D02*
X167020240Y-109969300D01*
X167020240Y-109969300D02*
X167220900Y-109771180D01*
X167220900Y-109771180D02*
X167370760Y-109369860D01*
X167370760Y-109369860D02*
X167370760Y-108971080D01*
X167370760Y-108971080D02*
X167220900Y-108620560D01*
X167220900Y-108620560D02*
X166768780Y-108270040D01*
X166768780Y-108270040D02*
X166319200Y-108219240D01*
X166319200Y-108219240D02*
X165920420Y-108320840D01*
X165920420Y-108320840D02*
X165519100Y-108668820D01*
X165519100Y-108668820D02*
X165369240Y-109120940D01*
X165369240Y-109120940D02*
X165420040Y-109618780D01*
X165420040Y-109618780D02*
X165668960Y-109921040D01*
X165668960Y-109921040D02*
X166019480Y-110119160D01*
X166019480Y-110119160D02*
X165668960Y-111119920D01*
X166720520Y-110119160D02*
X167119300Y-111119920D01*
X158790640Y-58630820D02*
X151089360Y-58630820D01*
X158790640Y-57630060D02*
X151089360Y-57630060D01*
X151089360Y-57630060D02*
X151089360Y-66829940D01*
X151089360Y-66829940D02*
X158790640Y-66829940D01*
X158790640Y-66829940D02*
X158790640Y-57630060D01*
X150653809Y-82526190D02*
X150653809Y-83002381D01*
X150320476Y-82002381D02*
X150653809Y-82526190D01*
X150987143Y-82002381D01*
X151844286Y-83002381D02*
X151272857Y-83002381D01*
X151558571Y-83002381D02*
X151558571Y-82002381D01*
X151463333Y-82145238D01*
X151368095Y-82240476D01*
X151272857Y-82288095D01*
X136144095Y-61936381D02*
X136144095Y-62745905D01*
X136191714Y-62841143D01*
X136239333Y-62888762D01*
X136334571Y-62936381D01*
X136525048Y-62936381D01*
X136620286Y-62888762D01*
X136667905Y-62841143D01*
X136715524Y-62745905D01*
X136715524Y-61936381D01*
X137144095Y-62031619D02*
X137191714Y-61984000D01*
X137286952Y-61936381D01*
X137525048Y-61936381D01*
X137620286Y-61984000D01*
X137667905Y-62031619D01*
X137715524Y-62126857D01*
X137715524Y-62222095D01*
X137667905Y-62364952D01*
X137096476Y-62936381D01*
X137715524Y-62936381D01*
X154952381Y-107322857D02*
X154476190Y-107656191D01*
X154952381Y-107894286D02*
X153952381Y-107894286D01*
X153952381Y-107513333D01*
X154000000Y-107418095D01*
X154047619Y-107370476D01*
X154142857Y-107322857D01*
X154285714Y-107322857D01*
X154380952Y-107370476D01*
X154428571Y-107418095D01*
X154476190Y-107513333D01*
X154476190Y-107894286D01*
X154047619Y-106941905D02*
X154000000Y-106894286D01*
X153952381Y-106799048D01*
X153952381Y-106560952D01*
X154000000Y-106465714D01*
X154047619Y-106418095D01*
X154142857Y-106370476D01*
X154238095Y-106370476D01*
X154380952Y-106418095D01*
X154952381Y-106989524D01*
X154952381Y-106370476D01*
X154952381Y-105418095D02*
X154952381Y-105989524D01*
X154952381Y-105703810D02*
X153952381Y-105703810D01*
X154095238Y-105799048D01*
X154190476Y-105894286D01*
X154238095Y-105989524D01*
X143522381Y-107322857D02*
X143046190Y-107656191D01*
X143522381Y-107894286D02*
X142522381Y-107894286D01*
X142522381Y-107513333D01*
X142570000Y-107418095D01*
X142617619Y-107370476D01*
X142712857Y-107322857D01*
X142855714Y-107322857D01*
X142950952Y-107370476D01*
X142998571Y-107418095D01*
X143046190Y-107513333D01*
X143046190Y-107894286D01*
X142617619Y-106941905D02*
X142570000Y-106894286D01*
X142522381Y-106799048D01*
X142522381Y-106560952D01*
X142570000Y-106465714D01*
X142617619Y-106418095D01*
X142712857Y-106370476D01*
X142808095Y-106370476D01*
X142950952Y-106418095D01*
X143522381Y-106989524D01*
X143522381Y-106370476D01*
X142522381Y-105751429D02*
X142522381Y-105656190D01*
X142570000Y-105560952D01*
X142617619Y-105513333D01*
X142712857Y-105465714D01*
X142903333Y-105418095D01*
X143141429Y-105418095D01*
X143331905Y-105465714D01*
X143427143Y-105513333D01*
X143474762Y-105560952D01*
X143522381Y-105656190D01*
X143522381Y-105751429D01*
X143474762Y-105846667D01*
X143427143Y-105894286D01*
X143331905Y-105941905D01*
X143141429Y-105989524D01*
X142903333Y-105989524D01*
X142712857Y-105941905D01*
X142617619Y-105894286D01*
X142570000Y-105846667D01*
X142522381Y-105751429D01*
X132092381Y-107322857D02*
X131616190Y-107656191D01*
X132092381Y-107894286D02*
X131092381Y-107894286D01*
X131092381Y-107513333D01*
X131140000Y-107418095D01*
X131187619Y-107370476D01*
X131282857Y-107322857D01*
X131425714Y-107322857D01*
X131520952Y-107370476D01*
X131568571Y-107418095D01*
X131616190Y-107513333D01*
X131616190Y-107894286D01*
X132092381Y-106370476D02*
X132092381Y-106941905D01*
X132092381Y-106656191D02*
X131092381Y-106656191D01*
X131235238Y-106751429D01*
X131330476Y-106846667D01*
X131378095Y-106941905D01*
X132092381Y-105894286D02*
X132092381Y-105703810D01*
X132044762Y-105608571D01*
X131997143Y-105560952D01*
X131854286Y-105465714D01*
X131663810Y-105418095D01*
X131282857Y-105418095D01*
X131187619Y-105465714D01*
X131140000Y-105513333D01*
X131092381Y-105608571D01*
X131092381Y-105799048D01*
X131140000Y-105894286D01*
X131187619Y-105941905D01*
X131282857Y-105989524D01*
X131520952Y-105989524D01*
X131616190Y-105941905D01*
X131663810Y-105894286D01*
X131711429Y-105799048D01*
X131711429Y-105608571D01*
X131663810Y-105513333D01*
X131616190Y-105465714D01*
X131520952Y-105418095D01*
X184162381Y-97162857D02*
X183686190Y-97496191D01*
X184162381Y-97734286D02*
X183162381Y-97734286D01*
X183162381Y-97353333D01*
X183210000Y-97258095D01*
X183257619Y-97210476D01*
X183352857Y-97162857D01*
X183495714Y-97162857D01*
X183590952Y-97210476D01*
X183638571Y-97258095D01*
X183686190Y-97353333D01*
X183686190Y-97734286D01*
X184162381Y-96210476D02*
X184162381Y-96781905D01*
X184162381Y-96496191D02*
X183162381Y-96496191D01*
X183305238Y-96591429D01*
X183400476Y-96686667D01*
X183448095Y-96781905D01*
X183590952Y-95639048D02*
X183543333Y-95734286D01*
X183495714Y-95781905D01*
X183400476Y-95829524D01*
X183352857Y-95829524D01*
X183257619Y-95781905D01*
X183210000Y-95734286D01*
X183162381Y-95639048D01*
X183162381Y-95448571D01*
X183210000Y-95353333D01*
X183257619Y-95305714D01*
X183352857Y-95258095D01*
X183400476Y-95258095D01*
X183495714Y-95305714D01*
X183543333Y-95353333D01*
X183590952Y-95448571D01*
X183590952Y-95639048D01*
X183638571Y-95734286D01*
X183686190Y-95781905D01*
X183781429Y-95829524D01*
X183971905Y-95829524D01*
X184067143Y-95781905D01*
X184114762Y-95734286D01*
X184162381Y-95639048D01*
X184162381Y-95448571D01*
X184114762Y-95353333D01*
X184067143Y-95305714D01*
X183971905Y-95258095D01*
X183781429Y-95258095D01*
X183686190Y-95305714D01*
X183638571Y-95353333D01*
X183590952Y-95448571D01*
X140327143Y-103322381D02*
X139993809Y-102846190D01*
X139755714Y-103322381D02*
X139755714Y-102322381D01*
X140136667Y-102322381D01*
X140231905Y-102370000D01*
X140279524Y-102417619D01*
X140327143Y-102512857D01*
X140327143Y-102655714D01*
X140279524Y-102750952D01*
X140231905Y-102798571D01*
X140136667Y-102846190D01*
X139755714Y-102846190D01*
X141279524Y-103322381D02*
X140708095Y-103322381D01*
X140993809Y-103322381D02*
X140993809Y-102322381D01*
X140898571Y-102465238D01*
X140803333Y-102560476D01*
X140708095Y-102608095D01*
X141612857Y-102322381D02*
X142279524Y-102322381D01*
X141850952Y-103322381D01*
X130167143Y-103576381D02*
X129833809Y-103100190D01*
X129595714Y-103576381D02*
X129595714Y-102576381D01*
X129976667Y-102576381D01*
X130071905Y-102624000D01*
X130119524Y-102671619D01*
X130167143Y-102766857D01*
X130167143Y-102909714D01*
X130119524Y-103004952D01*
X130071905Y-103052571D01*
X129976667Y-103100190D01*
X129595714Y-103100190D01*
X131119524Y-103576381D02*
X130548095Y-103576381D01*
X130833809Y-103576381D02*
X130833809Y-102576381D01*
X130738571Y-102719238D01*
X130643333Y-102814476D01*
X130548095Y-102862095D01*
X131976667Y-102576381D02*
X131786190Y-102576381D01*
X131690952Y-102624000D01*
X131643333Y-102671619D01*
X131548095Y-102814476D01*
X131500476Y-103004952D01*
X131500476Y-103385905D01*
X131548095Y-103481143D01*
X131595714Y-103528762D01*
X131690952Y-103576381D01*
X131881429Y-103576381D01*
X131976667Y-103528762D01*
X132024286Y-103481143D01*
X132071905Y-103385905D01*
X132071905Y-103147810D01*
X132024286Y-103052571D01*
X131976667Y-103004952D01*
X131881429Y-102957333D01*
X131690952Y-102957333D01*
X131595714Y-103004952D01*
X131548095Y-103052571D01*
X131500476Y-103147810D01*
X121023143Y-101036381D02*
X120689809Y-100560190D01*
X120451714Y-101036381D02*
X120451714Y-100036381D01*
X120832667Y-100036381D01*
X120927905Y-100084000D01*
X120975524Y-100131619D01*
X121023143Y-100226857D01*
X121023143Y-100369714D01*
X120975524Y-100464952D01*
X120927905Y-100512571D01*
X120832667Y-100560190D01*
X120451714Y-100560190D01*
X121975524Y-101036381D02*
X121404095Y-101036381D01*
X121689809Y-101036381D02*
X121689809Y-100036381D01*
X121594571Y-100179238D01*
X121499333Y-100274476D01*
X121404095Y-100322095D01*
X122880286Y-100036381D02*
X122404095Y-100036381D01*
X122356476Y-100512571D01*
X122404095Y-100464952D01*
X122499333Y-100417333D01*
X122737429Y-100417333D01*
X122832667Y-100464952D01*
X122880286Y-100512571D01*
X122927905Y-100607810D01*
X122927905Y-100845905D01*
X122880286Y-100941143D01*
X122832667Y-100988762D01*
X122737429Y-101036381D01*
X122499333Y-101036381D01*
X122404095Y-100988762D01*
X122356476Y-100941143D01*
X177157143Y-102882381D02*
X176823809Y-102406190D01*
X176585714Y-102882381D02*
X176585714Y-101882381D01*
X176966667Y-101882381D01*
X177061905Y-101930000D01*
X177109524Y-101977619D01*
X177157143Y-102072857D01*
X177157143Y-102215714D01*
X177109524Y-102310952D01*
X177061905Y-102358571D01*
X176966667Y-102406190D01*
X176585714Y-102406190D01*
X178109524Y-102882381D02*
X177538095Y-102882381D01*
X177823809Y-102882381D02*
X177823809Y-101882381D01*
X177728571Y-102025238D01*
X177633333Y-102120476D01*
X177538095Y-102168095D01*
X178966667Y-102215714D02*
X178966667Y-102882381D01*
X178728571Y-101834762D02*
X178490476Y-102549048D01*
X179109524Y-102549048D01*
X175272381Y-97162857D02*
X174796190Y-97496191D01*
X175272381Y-97734286D02*
X174272381Y-97734286D01*
X174272381Y-97353333D01*
X174320000Y-97258095D01*
X174367619Y-97210476D01*
X174462857Y-97162857D01*
X174605714Y-97162857D01*
X174700952Y-97210476D01*
X174748571Y-97258095D01*
X174796190Y-97353333D01*
X174796190Y-97734286D01*
X175272381Y-96210476D02*
X175272381Y-96781905D01*
X175272381Y-96496191D02*
X174272381Y-96496191D01*
X174415238Y-96591429D01*
X174510476Y-96686667D01*
X174558095Y-96781905D01*
X174272381Y-95877143D02*
X174272381Y-95258095D01*
X174653333Y-95591429D01*
X174653333Y-95448571D01*
X174700952Y-95353333D01*
X174748571Y-95305714D01*
X174843810Y-95258095D01*
X175081905Y-95258095D01*
X175177143Y-95305714D01*
X175224762Y-95353333D01*
X175272381Y-95448571D01*
X175272381Y-95734286D01*
X175224762Y-95829524D01*
X175177143Y-95877143D01*
X166382381Y-97162857D02*
X165906190Y-97496191D01*
X166382381Y-97734286D02*
X165382381Y-97734286D01*
X165382381Y-97353333D01*
X165430000Y-97258095D01*
X165477619Y-97210476D01*
X165572857Y-97162857D01*
X165715714Y-97162857D01*
X165810952Y-97210476D01*
X165858571Y-97258095D01*
X165906190Y-97353333D01*
X165906190Y-97734286D01*
X166382381Y-96210476D02*
X166382381Y-96781905D01*
X166382381Y-96496191D02*
X165382381Y-96496191D01*
X165525238Y-96591429D01*
X165620476Y-96686667D01*
X165668095Y-96781905D01*
X165477619Y-95829524D02*
X165430000Y-95781905D01*
X165382381Y-95686667D01*
X165382381Y-95448571D01*
X165430000Y-95353333D01*
X165477619Y-95305714D01*
X165572857Y-95258095D01*
X165668095Y-95258095D01*
X165810952Y-95305714D01*
X166382381Y-95877143D01*
X166382381Y-95258095D01*
X157492381Y-97162857D02*
X157016190Y-97496191D01*
X157492381Y-97734286D02*
X156492381Y-97734286D01*
X156492381Y-97353333D01*
X156540000Y-97258095D01*
X156587619Y-97210476D01*
X156682857Y-97162857D01*
X156825714Y-97162857D01*
X156920952Y-97210476D01*
X156968571Y-97258095D01*
X157016190Y-97353333D01*
X157016190Y-97734286D01*
X157492381Y-96210476D02*
X157492381Y-96781905D01*
X157492381Y-96496191D02*
X156492381Y-96496191D01*
X156635238Y-96591429D01*
X156730476Y-96686667D01*
X156778095Y-96781905D01*
X157492381Y-95258095D02*
X157492381Y-95829524D01*
X157492381Y-95543810D02*
X156492381Y-95543810D01*
X156635238Y-95639048D01*
X156730476Y-95734286D01*
X156778095Y-95829524D01*
X148602381Y-97162857D02*
X148126190Y-97496191D01*
X148602381Y-97734286D02*
X147602381Y-97734286D01*
X147602381Y-97353333D01*
X147650000Y-97258095D01*
X147697619Y-97210476D01*
X147792857Y-97162857D01*
X147935714Y-97162857D01*
X148030952Y-97210476D01*
X148078571Y-97258095D01*
X148126190Y-97353333D01*
X148126190Y-97734286D01*
X148602381Y-96210476D02*
X148602381Y-96781905D01*
X148602381Y-96496191D02*
X147602381Y-96496191D01*
X147745238Y-96591429D01*
X147840476Y-96686667D01*
X147888095Y-96781905D01*
X147602381Y-95591429D02*
X147602381Y-95496190D01*
X147650000Y-95400952D01*
X147697619Y-95353333D01*
X147792857Y-95305714D01*
X147983333Y-95258095D01*
X148221429Y-95258095D01*
X148411905Y-95305714D01*
X148507143Y-95353333D01*
X148554762Y-95400952D01*
X148602381Y-95496190D01*
X148602381Y-95591429D01*
X148554762Y-95686667D01*
X148507143Y-95734286D01*
X148411905Y-95781905D01*
X148221429Y-95829524D01*
X147983333Y-95829524D01*
X147792857Y-95781905D01*
X147697619Y-95734286D01*
X147650000Y-95686667D01*
X147602381Y-95591429D01*
X139712381Y-96686666D02*
X139236190Y-97020000D01*
X139712381Y-97258095D02*
X138712381Y-97258095D01*
X138712381Y-96877142D01*
X138760000Y-96781904D01*
X138807619Y-96734285D01*
X138902857Y-96686666D01*
X139045714Y-96686666D01*
X139140952Y-96734285D01*
X139188571Y-96781904D01*
X139236190Y-96877142D01*
X139236190Y-97258095D01*
X139712381Y-96210476D02*
X139712381Y-96020000D01*
X139664762Y-95924761D01*
X139617143Y-95877142D01*
X139474286Y-95781904D01*
X139283810Y-95734285D01*
X138902857Y-95734285D01*
X138807619Y-95781904D01*
X138760000Y-95829523D01*
X138712381Y-95924761D01*
X138712381Y-96115238D01*
X138760000Y-96210476D01*
X138807619Y-96258095D01*
X138902857Y-96305714D01*
X139140952Y-96305714D01*
X139236190Y-96258095D01*
X139283810Y-96210476D01*
X139331429Y-96115238D01*
X139331429Y-95924761D01*
X139283810Y-95829523D01*
X139236190Y-95781904D01*
X139140952Y-95734285D01*
X168743334Y-102882381D02*
X168410000Y-102406190D01*
X168171905Y-102882381D02*
X168171905Y-101882381D01*
X168552858Y-101882381D01*
X168648096Y-101930000D01*
X168695715Y-101977619D01*
X168743334Y-102072857D01*
X168743334Y-102215714D01*
X168695715Y-102310952D01*
X168648096Y-102358571D01*
X168552858Y-102406190D01*
X168171905Y-102406190D01*
X169314762Y-102310952D02*
X169219524Y-102263333D01*
X169171905Y-102215714D01*
X169124286Y-102120476D01*
X169124286Y-102072857D01*
X169171905Y-101977619D01*
X169219524Y-101930000D01*
X169314762Y-101882381D01*
X169505239Y-101882381D01*
X169600477Y-101930000D01*
X169648096Y-101977619D01*
X169695715Y-102072857D01*
X169695715Y-102120476D01*
X169648096Y-102215714D01*
X169600477Y-102263333D01*
X169505239Y-102310952D01*
X169314762Y-102310952D01*
X169219524Y-102358571D01*
X169171905Y-102406190D01*
X169124286Y-102501429D01*
X169124286Y-102691905D01*
X169171905Y-102787143D01*
X169219524Y-102834762D01*
X169314762Y-102882381D01*
X169505239Y-102882381D01*
X169600477Y-102834762D01*
X169648096Y-102787143D01*
X169695715Y-102691905D01*
X169695715Y-102501429D01*
X169648096Y-102406190D01*
X169600477Y-102358571D01*
X169505239Y-102310952D01*
X159853334Y-102882381D02*
X159520000Y-102406190D01*
X159281905Y-102882381D02*
X159281905Y-101882381D01*
X159662858Y-101882381D01*
X159758096Y-101930000D01*
X159805715Y-101977619D01*
X159853334Y-102072857D01*
X159853334Y-102215714D01*
X159805715Y-102310952D01*
X159758096Y-102358571D01*
X159662858Y-102406190D01*
X159281905Y-102406190D01*
X160186667Y-101882381D02*
X160853334Y-101882381D01*
X160424762Y-102882381D01*
X150963334Y-102882381D02*
X150630000Y-102406190D01*
X150391905Y-102882381D02*
X150391905Y-101882381D01*
X150772858Y-101882381D01*
X150868096Y-101930000D01*
X150915715Y-101977619D01*
X150963334Y-102072857D01*
X150963334Y-102215714D01*
X150915715Y-102310952D01*
X150868096Y-102358571D01*
X150772858Y-102406190D01*
X150391905Y-102406190D01*
X151820477Y-101882381D02*
X151630000Y-101882381D01*
X151534762Y-101930000D01*
X151487143Y-101977619D01*
X151391905Y-102120476D01*
X151344286Y-102310952D01*
X151344286Y-102691905D01*
X151391905Y-102787143D01*
X151439524Y-102834762D01*
X151534762Y-102882381D01*
X151725239Y-102882381D01*
X151820477Y-102834762D01*
X151868096Y-102787143D01*
X151915715Y-102691905D01*
X151915715Y-102453810D01*
X151868096Y-102358571D01*
X151820477Y-102310952D01*
X151725239Y-102263333D01*
X151534762Y-102263333D01*
X151439524Y-102310952D01*
X151391905Y-102358571D01*
X151344286Y-102453810D01*
X138263334Y-100782381D02*
X137930000Y-100306190D01*
X137691905Y-100782381D02*
X137691905Y-99782381D01*
X138072858Y-99782381D01*
X138168096Y-99830000D01*
X138215715Y-99877619D01*
X138263334Y-99972857D01*
X138263334Y-100115714D01*
X138215715Y-100210952D01*
X138168096Y-100258571D01*
X138072858Y-100306190D01*
X137691905Y-100306190D01*
X139168096Y-99782381D02*
X138691905Y-99782381D01*
X138644286Y-100258571D01*
X138691905Y-100210952D01*
X138787143Y-100163333D01*
X139025239Y-100163333D01*
X139120477Y-100210952D01*
X139168096Y-100258571D01*
X139215715Y-100353810D01*
X139215715Y-100591905D01*
X139168096Y-100687143D01*
X139120477Y-100734762D01*
X139025239Y-100782381D01*
X138787143Y-100782381D01*
X138691905Y-100734762D01*
X138644286Y-100687143D01*
X129627334Y-101036381D02*
X129294000Y-100560190D01*
X129055905Y-101036381D02*
X129055905Y-100036381D01*
X129436858Y-100036381D01*
X129532096Y-100084000D01*
X129579715Y-100131619D01*
X129627334Y-100226857D01*
X129627334Y-100369714D01*
X129579715Y-100464952D01*
X129532096Y-100512571D01*
X129436858Y-100560190D01*
X129055905Y-100560190D01*
X130484477Y-100369714D02*
X130484477Y-101036381D01*
X130246381Y-99988762D02*
X130008286Y-100703048D01*
X130627334Y-100703048D01*
X130822381Y-96686666D02*
X130346190Y-97020000D01*
X130822381Y-97258095D02*
X129822381Y-97258095D01*
X129822381Y-96877142D01*
X129870000Y-96781904D01*
X129917619Y-96734285D01*
X130012857Y-96686666D01*
X130155714Y-96686666D01*
X130250952Y-96734285D01*
X130298571Y-96781904D01*
X130346190Y-96877142D01*
X130346190Y-97258095D01*
X129822381Y-96353333D02*
X129822381Y-95734285D01*
X130203333Y-96067619D01*
X130203333Y-95924761D01*
X130250952Y-95829523D01*
X130298571Y-95781904D01*
X130393810Y-95734285D01*
X130631905Y-95734285D01*
X130727143Y-95781904D01*
X130774762Y-95829523D01*
X130822381Y-95924761D01*
X130822381Y-96210476D01*
X130774762Y-96305714D01*
X130727143Y-96353333D01*
X122007334Y-103322381D02*
X121674000Y-102846190D01*
X121435905Y-103322381D02*
X121435905Y-102322381D01*
X121816858Y-102322381D01*
X121912096Y-102370000D01*
X121959715Y-102417619D01*
X122007334Y-102512857D01*
X122007334Y-102655714D01*
X121959715Y-102750952D01*
X121912096Y-102798571D01*
X121816858Y-102846190D01*
X121435905Y-102846190D01*
X122388286Y-102417619D02*
X122435905Y-102370000D01*
X122531143Y-102322381D01*
X122769239Y-102322381D01*
X122864477Y-102370000D01*
X122912096Y-102417619D01*
X122959715Y-102512857D01*
X122959715Y-102608095D01*
X122912096Y-102750952D01*
X122340667Y-103322381D01*
X122959715Y-103322381D01*
X127892381Y-64936666D02*
X127416190Y-65270000D01*
X127892381Y-65508095D02*
X126892381Y-65508095D01*
X126892381Y-65127142D01*
X126940000Y-65031904D01*
X126987619Y-64984285D01*
X127082857Y-64936666D01*
X127225714Y-64936666D01*
X127320952Y-64984285D01*
X127368571Y-65031904D01*
X127416190Y-65127142D01*
X127416190Y-65508095D01*
X127892381Y-63984285D02*
X127892381Y-64555714D01*
X127892381Y-64270000D02*
X126892381Y-64270000D01*
X127035238Y-64365238D01*
X127130476Y-64460476D01*
X127178095Y-64555714D01*
X146748572Y-109767619D02*
X146653334Y-109720000D01*
X146558096Y-109624762D01*
X146415239Y-109481905D01*
X146320000Y-109434286D01*
X146224762Y-109434286D01*
X146272381Y-109672381D02*
X146177143Y-109624762D01*
X146081905Y-109529524D01*
X146034286Y-109339048D01*
X146034286Y-109005714D01*
X146081905Y-108815238D01*
X146177143Y-108720000D01*
X146272381Y-108672381D01*
X146462858Y-108672381D01*
X146558096Y-108720000D01*
X146653334Y-108815238D01*
X146700953Y-109005714D01*
X146700953Y-109339048D01*
X146653334Y-109529524D01*
X146558096Y-109624762D01*
X146462858Y-109672381D01*
X146272381Y-109672381D01*
X147653334Y-109672381D02*
X147081905Y-109672381D01*
X147367619Y-109672381D02*
X147367619Y-108672381D01*
X147272381Y-108815238D01*
X147177143Y-108910476D01*
X147081905Y-108958095D01*
X148272381Y-108672381D02*
X148367620Y-108672381D01*
X148462858Y-108720000D01*
X148510477Y-108767619D01*
X148558096Y-108862857D01*
X148605715Y-109053333D01*
X148605715Y-109291429D01*
X148558096Y-109481905D01*
X148510477Y-109577143D01*
X148462858Y-109624762D01*
X148367620Y-109672381D01*
X148272381Y-109672381D01*
X148177143Y-109624762D01*
X148129524Y-109577143D01*
X148081905Y-109481905D01*
X148034286Y-109291429D01*
X148034286Y-109053333D01*
X148081905Y-108862857D01*
X148129524Y-108767619D01*
X148177143Y-108720000D01*
X148272381Y-108672381D01*
X135794762Y-109767619D02*
X135699524Y-109720000D01*
X135604286Y-109624762D01*
X135461429Y-109481905D01*
X135366190Y-109434286D01*
X135270952Y-109434286D01*
X135318571Y-109672381D02*
X135223333Y-109624762D01*
X135128095Y-109529524D01*
X135080476Y-109339048D01*
X135080476Y-109005714D01*
X135128095Y-108815238D01*
X135223333Y-108720000D01*
X135318571Y-108672381D01*
X135509048Y-108672381D01*
X135604286Y-108720000D01*
X135699524Y-108815238D01*
X135747143Y-109005714D01*
X135747143Y-109339048D01*
X135699524Y-109529524D01*
X135604286Y-109624762D01*
X135509048Y-109672381D01*
X135318571Y-109672381D01*
X136223333Y-109672381D02*
X136413809Y-109672381D01*
X136509048Y-109624762D01*
X136556667Y-109577143D01*
X136651905Y-109434286D01*
X136699524Y-109243810D01*
X136699524Y-108862857D01*
X136651905Y-108767619D01*
X136604286Y-108720000D01*
X136509048Y-108672381D01*
X136318571Y-108672381D01*
X136223333Y-108720000D01*
X136175714Y-108767619D01*
X136128095Y-108862857D01*
X136128095Y-109100952D01*
X136175714Y-109196190D01*
X136223333Y-109243810D01*
X136318571Y-109291429D01*
X136509048Y-109291429D01*
X136604286Y-109243810D01*
X136651905Y-109196190D01*
X136699524Y-109100952D01*
X126269762Y-110402619D02*
X126174524Y-110355000D01*
X126079286Y-110259762D01*
X125936429Y-110116905D01*
X125841190Y-110069286D01*
X125745952Y-110069286D01*
X125793571Y-110307381D02*
X125698333Y-110259762D01*
X125603095Y-110164524D01*
X125555476Y-109974048D01*
X125555476Y-109640714D01*
X125603095Y-109450238D01*
X125698333Y-109355000D01*
X125793571Y-109307381D01*
X125984048Y-109307381D01*
X126079286Y-109355000D01*
X126174524Y-109450238D01*
X126222143Y-109640714D01*
X126222143Y-109974048D01*
X126174524Y-110164524D01*
X126079286Y-110259762D01*
X125984048Y-110307381D01*
X125793571Y-110307381D01*
X126793571Y-109735952D02*
X126698333Y-109688333D01*
X126650714Y-109640714D01*
X126603095Y-109545476D01*
X126603095Y-109497857D01*
X126650714Y-109402619D01*
X126698333Y-109355000D01*
X126793571Y-109307381D01*
X126984048Y-109307381D01*
X127079286Y-109355000D01*
X127126905Y-109402619D01*
X127174524Y-109497857D01*
X127174524Y-109545476D01*
X127126905Y-109640714D01*
X127079286Y-109688333D01*
X126984048Y-109735952D01*
X126793571Y-109735952D01*
X126698333Y-109783571D01*
X126650714Y-109831190D01*
X126603095Y-109926429D01*
X126603095Y-110116905D01*
X126650714Y-110212143D01*
X126698333Y-110259762D01*
X126793571Y-110307381D01*
X126984048Y-110307381D01*
X127079286Y-110259762D01*
X127126905Y-110212143D01*
X127174524Y-110116905D01*
X127174524Y-109926429D01*
X127126905Y-109831190D01*
X127079286Y-109783571D01*
X126984048Y-109735952D01*
X177704762Y-94527619D02*
X177609524Y-94480000D01*
X177514286Y-94384762D01*
X177371429Y-94241905D01*
X177276190Y-94194286D01*
X177180952Y-94194286D01*
X177228571Y-94432381D02*
X177133333Y-94384762D01*
X177038095Y-94289524D01*
X176990476Y-94099048D01*
X176990476Y-93765714D01*
X177038095Y-93575238D01*
X177133333Y-93480000D01*
X177228571Y-93432381D01*
X177419048Y-93432381D01*
X177514286Y-93480000D01*
X177609524Y-93575238D01*
X177657143Y-93765714D01*
X177657143Y-94099048D01*
X177609524Y-94289524D01*
X177514286Y-94384762D01*
X177419048Y-94432381D01*
X177228571Y-94432381D01*
X177990476Y-93432381D02*
X178657143Y-93432381D01*
X178228571Y-94432381D01*
X168814762Y-94527619D02*
X168719524Y-94480000D01*
X168624286Y-94384762D01*
X168481429Y-94241905D01*
X168386190Y-94194286D01*
X168290952Y-94194286D01*
X168338571Y-94432381D02*
X168243333Y-94384762D01*
X168148095Y-94289524D01*
X168100476Y-94099048D01*
X168100476Y-93765714D01*
X168148095Y-93575238D01*
X168243333Y-93480000D01*
X168338571Y-93432381D01*
X168529048Y-93432381D01*
X168624286Y-93480000D01*
X168719524Y-93575238D01*
X168767143Y-93765714D01*
X168767143Y-94099048D01*
X168719524Y-94289524D01*
X168624286Y-94384762D01*
X168529048Y-94432381D01*
X168338571Y-94432381D01*
X169624286Y-93432381D02*
X169433809Y-93432381D01*
X169338571Y-93480000D01*
X169290952Y-93527619D01*
X169195714Y-93670476D01*
X169148095Y-93860952D01*
X169148095Y-94241905D01*
X169195714Y-94337143D01*
X169243333Y-94384762D01*
X169338571Y-94432381D01*
X169529048Y-94432381D01*
X169624286Y-94384762D01*
X169671905Y-94337143D01*
X169719524Y-94241905D01*
X169719524Y-94003810D01*
X169671905Y-93908571D01*
X169624286Y-93860952D01*
X169529048Y-93813333D01*
X169338571Y-93813333D01*
X169243333Y-93860952D01*
X169195714Y-93908571D01*
X169148095Y-94003810D01*
X159924762Y-94527619D02*
X159829524Y-94480000D01*
X159734286Y-94384762D01*
X159591429Y-94241905D01*
X159496190Y-94194286D01*
X159400952Y-94194286D01*
X159448571Y-94432381D02*
X159353333Y-94384762D01*
X159258095Y-94289524D01*
X159210476Y-94099048D01*
X159210476Y-93765714D01*
X159258095Y-93575238D01*
X159353333Y-93480000D01*
X159448571Y-93432381D01*
X159639048Y-93432381D01*
X159734286Y-93480000D01*
X159829524Y-93575238D01*
X159877143Y-93765714D01*
X159877143Y-94099048D01*
X159829524Y-94289524D01*
X159734286Y-94384762D01*
X159639048Y-94432381D01*
X159448571Y-94432381D01*
X160781905Y-93432381D02*
X160305714Y-93432381D01*
X160258095Y-93908571D01*
X160305714Y-93860952D01*
X160400952Y-93813333D01*
X160639048Y-93813333D01*
X160734286Y-93860952D01*
X160781905Y-93908571D01*
X160829524Y-94003810D01*
X160829524Y-94241905D01*
X160781905Y-94337143D01*
X160734286Y-94384762D01*
X160639048Y-94432381D01*
X160400952Y-94432381D01*
X160305714Y-94384762D01*
X160258095Y-94337143D01*
X151034762Y-94527619D02*
X150939524Y-94480000D01*
X150844286Y-94384762D01*
X150701429Y-94241905D01*
X150606190Y-94194286D01*
X150510952Y-94194286D01*
X150558571Y-94432381D02*
X150463333Y-94384762D01*
X150368095Y-94289524D01*
X150320476Y-94099048D01*
X150320476Y-93765714D01*
X150368095Y-93575238D01*
X150463333Y-93480000D01*
X150558571Y-93432381D01*
X150749048Y-93432381D01*
X150844286Y-93480000D01*
X150939524Y-93575238D01*
X150987143Y-93765714D01*
X150987143Y-94099048D01*
X150939524Y-94289524D01*
X150844286Y-94384762D01*
X150749048Y-94432381D01*
X150558571Y-94432381D01*
X151844286Y-93765714D02*
X151844286Y-94432381D01*
X151606190Y-93384762D02*
X151368095Y-94099048D01*
X151987143Y-94099048D01*
X142144762Y-94527619D02*
X142049524Y-94480000D01*
X141954286Y-94384762D01*
X141811429Y-94241905D01*
X141716190Y-94194286D01*
X141620952Y-94194286D01*
X141668571Y-94432381D02*
X141573333Y-94384762D01*
X141478095Y-94289524D01*
X141430476Y-94099048D01*
X141430476Y-93765714D01*
X141478095Y-93575238D01*
X141573333Y-93480000D01*
X141668571Y-93432381D01*
X141859048Y-93432381D01*
X141954286Y-93480000D01*
X142049524Y-93575238D01*
X142097143Y-93765714D01*
X142097143Y-94099048D01*
X142049524Y-94289524D01*
X141954286Y-94384762D01*
X141859048Y-94432381D01*
X141668571Y-94432381D01*
X142430476Y-93432381D02*
X143049524Y-93432381D01*
X142716190Y-93813333D01*
X142859048Y-93813333D01*
X142954286Y-93860952D01*
X143001905Y-93908571D01*
X143049524Y-94003810D01*
X143049524Y-94241905D01*
X143001905Y-94337143D01*
X142954286Y-94384762D01*
X142859048Y-94432381D01*
X142573333Y-94432381D01*
X142478095Y-94384762D01*
X142430476Y-94337143D01*
X133254762Y-94527619D02*
X133159524Y-94480000D01*
X133064286Y-94384762D01*
X132921429Y-94241905D01*
X132826190Y-94194286D01*
X132730952Y-94194286D01*
X132778571Y-94432381D02*
X132683333Y-94384762D01*
X132588095Y-94289524D01*
X132540476Y-94099048D01*
X132540476Y-93765714D01*
X132588095Y-93575238D01*
X132683333Y-93480000D01*
X132778571Y-93432381D01*
X132969048Y-93432381D01*
X133064286Y-93480000D01*
X133159524Y-93575238D01*
X133207143Y-93765714D01*
X133207143Y-94099048D01*
X133159524Y-94289524D01*
X133064286Y-94384762D01*
X132969048Y-94432381D01*
X132778571Y-94432381D01*
X133588095Y-93527619D02*
X133635714Y-93480000D01*
X133730952Y-93432381D01*
X133969048Y-93432381D01*
X134064286Y-93480000D01*
X134111905Y-93527619D01*
X134159524Y-93622857D01*
X134159524Y-93718095D01*
X134111905Y-93860952D01*
X133540476Y-94432381D01*
X134159524Y-94432381D01*
X124364762Y-94527619D02*
X124269524Y-94480000D01*
X124174286Y-94384762D01*
X124031429Y-94241905D01*
X123936190Y-94194286D01*
X123840952Y-94194286D01*
X123888571Y-94432381D02*
X123793333Y-94384762D01*
X123698095Y-94289524D01*
X123650476Y-94099048D01*
X123650476Y-93765714D01*
X123698095Y-93575238D01*
X123793333Y-93480000D01*
X123888571Y-93432381D01*
X124079048Y-93432381D01*
X124174286Y-93480000D01*
X124269524Y-93575238D01*
X124317143Y-93765714D01*
X124317143Y-94099048D01*
X124269524Y-94289524D01*
X124174286Y-94384762D01*
X124079048Y-94432381D01*
X123888571Y-94432381D01*
X125269524Y-94432381D02*
X124698095Y-94432381D01*
X124983809Y-94432381D02*
X124983809Y-93432381D01*
X124888571Y-93575238D01*
X124793333Y-93670476D01*
X124698095Y-93718095D01*
X156741905Y-81732381D02*
X156741905Y-80732381D01*
X157122858Y-80732381D01*
X157218096Y-80780000D01*
X157265715Y-80827619D01*
X157313334Y-80922857D01*
X157313334Y-81065714D01*
X157265715Y-81160952D01*
X157218096Y-81208571D01*
X157122858Y-81256190D01*
X156741905Y-81256190D01*
X158265715Y-81732381D02*
X157694286Y-81732381D01*
X157980000Y-81732381D02*
X157980000Y-80732381D01*
X157884762Y-80875238D01*
X157789524Y-80970476D01*
X157694286Y-81018095D01*
X186142381Y-71453333D02*
X186856667Y-71453333D01*
X186999524Y-71500953D01*
X187094762Y-71596191D01*
X187142381Y-71739048D01*
X187142381Y-71834286D01*
X186142381Y-70548571D02*
X186142381Y-70739048D01*
X186190000Y-70834286D01*
X186237619Y-70881905D01*
X186380476Y-70977143D01*
X186570952Y-71024762D01*
X186951905Y-71024762D01*
X187047143Y-70977143D01*
X187094762Y-70929524D01*
X187142381Y-70834286D01*
X187142381Y-70643809D01*
X187094762Y-70548571D01*
X187047143Y-70500952D01*
X186951905Y-70453333D01*
X186713810Y-70453333D01*
X186618571Y-70500952D01*
X186570952Y-70548571D01*
X186523333Y-70643809D01*
X186523333Y-70834286D01*
X186570952Y-70929524D01*
X186618571Y-70977143D01*
X186713810Y-71024762D01*
X184324667Y-88098381D02*
X184324667Y-88812667D01*
X184277047Y-88955524D01*
X184181809Y-89050762D01*
X184038952Y-89098381D01*
X183943714Y-89098381D01*
X184705619Y-88098381D02*
X185324667Y-88098381D01*
X184991333Y-88479333D01*
X185134191Y-88479333D01*
X185229429Y-88526952D01*
X185277048Y-88574571D01*
X185324667Y-88669810D01*
X185324667Y-88907905D01*
X185277048Y-89003143D01*
X185229429Y-89050762D01*
X185134191Y-89098381D01*
X184848476Y-89098381D01*
X184753238Y-89050762D01*
X184705619Y-89003143D01*
X128571667Y-113244381D02*
X128571667Y-113958667D01*
X128524047Y-114101524D01*
X128428809Y-114196762D01*
X128285952Y-114244381D01*
X128190714Y-114244381D01*
X129000238Y-113339619D02*
X129047857Y-113292000D01*
X129143095Y-113244381D01*
X129381191Y-113244381D01*
X129476429Y-113292000D01*
X129524048Y-113339619D01*
X129571667Y-113434857D01*
X129571667Y-113530095D01*
X129524048Y-113672952D01*
X128952619Y-114244381D01*
X129571667Y-114244381D01*
X124126667Y-122642381D02*
X124126667Y-123356667D01*
X124079047Y-123499524D01*
X123983809Y-123594762D01*
X123840952Y-123642381D01*
X123745714Y-123642381D01*
X125126667Y-123642381D02*
X124555238Y-123642381D01*
X124840952Y-123642381D02*
X124840952Y-122642381D01*
X124745714Y-122785238D01*
X124650476Y-122880476D01*
X124555238Y-122928095D01*
X121054905Y-66492381D02*
X121054905Y-65492381D01*
X121293000Y-65492381D01*
X121435858Y-65540000D01*
X121531096Y-65635238D01*
X121578715Y-65730476D01*
X121626334Y-65920952D01*
X121626334Y-66063810D01*
X121578715Y-66254286D01*
X121531096Y-66349524D01*
X121435858Y-66444762D01*
X121293000Y-66492381D01*
X121054905Y-66492381D01*
X122578715Y-66492381D02*
X122007286Y-66492381D01*
X122293000Y-66492381D02*
X122293000Y-65492381D01*
X122197762Y-65635238D01*
X122102524Y-65730476D01*
X122007286Y-65778095D01*
X109275715Y-74017143D02*
X109228096Y-74064762D01*
X109085239Y-74112381D01*
X108990001Y-74112381D01*
X108847143Y-74064762D01*
X108751905Y-73969524D01*
X108704286Y-73874286D01*
X108656667Y-73683810D01*
X108656667Y-73540952D01*
X108704286Y-73350476D01*
X108751905Y-73255238D01*
X108847143Y-73160000D01*
X108990001Y-73112381D01*
X109085239Y-73112381D01*
X109228096Y-73160000D01*
X109275715Y-73207619D01*
X109894762Y-73112381D02*
X110085239Y-73112381D01*
X110180477Y-73160000D01*
X110275715Y-73255238D01*
X110323334Y-73445714D01*
X110323334Y-73779048D01*
X110275715Y-73969524D01*
X110180477Y-74064762D01*
X110085239Y-74112381D01*
X109894762Y-74112381D01*
X109799524Y-74064762D01*
X109704286Y-73969524D01*
X109656667Y-73779048D01*
X109656667Y-73445714D01*
X109704286Y-73255238D01*
X109799524Y-73160000D01*
X109894762Y-73112381D01*
X110751905Y-74112381D02*
X110751905Y-73112381D01*
X111323334Y-74112381D01*
X111323334Y-73112381D01*
X112323334Y-74112381D02*
X111751905Y-74112381D01*
X112037619Y-74112381D02*
X112037619Y-73112381D01*
X111942381Y-73255238D01*
X111847143Y-73350476D01*
X111751905Y-73398095D01*
X127976334Y-76811143D02*
X127928715Y-76858762D01*
X127785858Y-76906381D01*
X127690620Y-76906381D01*
X127547762Y-76858762D01*
X127452524Y-76763524D01*
X127404905Y-76668286D01*
X127357286Y-76477810D01*
X127357286Y-76334952D01*
X127404905Y-76144476D01*
X127452524Y-76049238D01*
X127547762Y-75954000D01*
X127690620Y-75906381D01*
X127785858Y-75906381D01*
X127928715Y-75954000D01*
X127976334Y-76001619D01*
X128833477Y-75906381D02*
X128643000Y-75906381D01*
X128547762Y-75954000D01*
X128500143Y-76001619D01*
X128404905Y-76144476D01*
X128357286Y-76334952D01*
X128357286Y-76715905D01*
X128404905Y-76811143D01*
X128452524Y-76858762D01*
X128547762Y-76906381D01*
X128738239Y-76906381D01*
X128833477Y-76858762D01*
X128881096Y-76811143D01*
X128928715Y-76715905D01*
X128928715Y-76477810D01*
X128881096Y-76382571D01*
X128833477Y-76334952D01*
X128738239Y-76287333D01*
X128547762Y-76287333D01*
X128452524Y-76334952D01*
X128404905Y-76382571D01*
X128357286Y-76477810D01*
X126833334Y-87987143D02*
X126785715Y-88034762D01*
X126642858Y-88082381D01*
X126547620Y-88082381D01*
X126404762Y-88034762D01*
X126309524Y-87939524D01*
X126261905Y-87844286D01*
X126214286Y-87653810D01*
X126214286Y-87510952D01*
X126261905Y-87320476D01*
X126309524Y-87225238D01*
X126404762Y-87130000D01*
X126547620Y-87082381D01*
X126642858Y-87082381D01*
X126785715Y-87130000D01*
X126833334Y-87177619D01*
X127738096Y-87082381D02*
X127261905Y-87082381D01*
X127214286Y-87558571D01*
X127261905Y-87510952D01*
X127357143Y-87463333D01*
X127595239Y-87463333D01*
X127690477Y-87510952D01*
X127738096Y-87558571D01*
X127785715Y-87653810D01*
X127785715Y-87891905D01*
X127738096Y-87987143D01*
X127690477Y-88034762D01*
X127595239Y-88082381D01*
X127357143Y-88082381D01*
X127261905Y-88034762D01*
X127214286Y-87987143D01*
X123023334Y-87157143D02*
X122975715Y-87204762D01*
X122832858Y-87252381D01*
X122737620Y-87252381D01*
X122594762Y-87204762D01*
X122499524Y-87109524D01*
X122451905Y-87014286D01*
X122404286Y-86823810D01*
X122404286Y-86680952D01*
X122451905Y-86490476D01*
X122499524Y-86395238D01*
X122594762Y-86300000D01*
X122737620Y-86252381D01*
X122832858Y-86252381D01*
X122975715Y-86300000D01*
X123023334Y-86347619D01*
X123880477Y-86585714D02*
X123880477Y-87252381D01*
X123642381Y-86204762D02*
X123404286Y-86919048D01*
X124023334Y-86919048D01*
X120372143Y-82716666D02*
X120419762Y-82764285D01*
X120467381Y-82907142D01*
X120467381Y-83002380D01*
X120419762Y-83145238D01*
X120324524Y-83240476D01*
X120229286Y-83288095D01*
X120038810Y-83335714D01*
X119895952Y-83335714D01*
X119705476Y-83288095D01*
X119610238Y-83240476D01*
X119515000Y-83145238D01*
X119467381Y-83002380D01*
X119467381Y-82907142D01*
X119515000Y-82764285D01*
X119562619Y-82716666D01*
X119467381Y-82383333D02*
X119467381Y-81764285D01*
X119848333Y-82097619D01*
X119848333Y-81954761D01*
X119895952Y-81859523D01*
X119943571Y-81811904D01*
X120038810Y-81764285D01*
X120276905Y-81764285D01*
X120372143Y-81811904D01*
X120419762Y-81859523D01*
X120467381Y-81954761D01*
X120467381Y-82240476D01*
X120419762Y-82335714D01*
X120372143Y-82383333D01*
X143851334Y-73509143D02*
X143803715Y-73556762D01*
X143660858Y-73604381D01*
X143565620Y-73604381D01*
X143422762Y-73556762D01*
X143327524Y-73461524D01*
X143279905Y-73366286D01*
X143232286Y-73175810D01*
X143232286Y-73032952D01*
X143279905Y-72842476D01*
X143327524Y-72747238D01*
X143422762Y-72652000D01*
X143565620Y-72604381D01*
X143660858Y-72604381D01*
X143803715Y-72652000D01*
X143851334Y-72699619D01*
X144232286Y-72699619D02*
X144279905Y-72652000D01*
X144375143Y-72604381D01*
X144613239Y-72604381D01*
X144708477Y-72652000D01*
X144756096Y-72699619D01*
X144803715Y-72794857D01*
X144803715Y-72890095D01*
X144756096Y-73032952D01*
X144184667Y-73604381D01*
X144803715Y-73604381D01*
X138263334Y-90527143D02*
X138215715Y-90574762D01*
X138072858Y-90622381D01*
X137977620Y-90622381D01*
X137834762Y-90574762D01*
X137739524Y-90479524D01*
X137691905Y-90384286D01*
X137644286Y-90193810D01*
X137644286Y-90050952D01*
X137691905Y-89860476D01*
X137739524Y-89765238D01*
X137834762Y-89670000D01*
X137977620Y-89622381D01*
X138072858Y-89622381D01*
X138215715Y-89670000D01*
X138263334Y-89717619D01*
X139215715Y-90622381D02*
X138644286Y-90622381D01*
X138930000Y-90622381D02*
X138930000Y-89622381D01*
X138834762Y-89765238D01*
X138739524Y-89860476D01*
X138644286Y-89908095D01*
X131699095Y-88606381D02*
X131699095Y-89415905D01*
X131746714Y-89511143D01*
X131794333Y-89558762D01*
X131889571Y-89606381D01*
X132080048Y-89606381D01*
X132175286Y-89558762D01*
X132222905Y-89511143D01*
X132270524Y-89415905D01*
X132270524Y-88606381D01*
X133270524Y-89606381D02*
X132699095Y-89606381D01*
X132984809Y-89606381D02*
X132984809Y-88606381D01*
X132889571Y-88749238D01*
X132794333Y-88844476D01*
X132699095Y-88892095D01*
X113220667Y-79652762D02*
X113363524Y-79700381D01*
X113601620Y-79700381D01*
X113696858Y-79652762D01*
X113744477Y-79605143D01*
X113792096Y-79509905D01*
X113792096Y-79414667D01*
X113744477Y-79319429D01*
X113696858Y-79271810D01*
X113601620Y-79224190D01*
X113411143Y-79176571D01*
X113315905Y-79128952D01*
X113268286Y-79081333D01*
X113220667Y-78986095D01*
X113220667Y-78890857D01*
X113268286Y-78795619D01*
X113315905Y-78748000D01*
X113411143Y-78700381D01*
X113649239Y-78700381D01*
X113792096Y-78748000D01*
X114125429Y-78700381D02*
X114363524Y-79700381D01*
X114554001Y-78986095D01*
X114744477Y-79700381D01*
X114982572Y-78700381D01*
X115887334Y-79700381D02*
X115315905Y-79700381D01*
X115601619Y-79700381D02*
X115601619Y-78700381D01*
X115506381Y-78843238D01*
X115411143Y-78938476D01*
X115315905Y-78986095D01*
X165326381Y-80494095D02*
X164326381Y-80494095D01*
X164326381Y-80256000D01*
X164374000Y-80113142D01*
X164469238Y-80017904D01*
X164564476Y-79970285D01*
X164754952Y-79922666D01*
X164897810Y-79922666D01*
X165088286Y-79970285D01*
X165183524Y-80017904D01*
X165278762Y-80113142D01*
X165326381Y-80256000D01*
X165326381Y-80494095D01*
X164421619Y-79541714D02*
X164374000Y-79494095D01*
X164326381Y-79398857D01*
X164326381Y-79160761D01*
X164374000Y-79065523D01*
X164421619Y-79017904D01*
X164516857Y-78970285D01*
X164612095Y-78970285D01*
X164754952Y-79017904D01*
X165326381Y-79589333D01*
X165326381Y-78970285D01*
X159789905Y-72080381D02*
X159789905Y-71080381D01*
X160028000Y-71080381D01*
X160170858Y-71128000D01*
X160266096Y-71223238D01*
X160313715Y-71318476D01*
X160361334Y-71508952D01*
X160361334Y-71651810D01*
X160313715Y-71842286D01*
X160266096Y-71937524D01*
X160170858Y-72032762D01*
X160028000Y-72080381D01*
X159789905Y-72080381D01*
X160694667Y-71080381D02*
X161313715Y-71080381D01*
X160980381Y-71461333D01*
X161123239Y-71461333D01*
X161218477Y-71508952D01*
X161266096Y-71556571D01*
X161313715Y-71651810D01*
X161313715Y-71889905D01*
X161266096Y-71985143D01*
X161218477Y-72032762D01*
X161123239Y-72080381D01*
X160837524Y-72080381D01*
X160742286Y-72032762D01*
X160694667Y-71985143D01*
X169176381Y-75318857D02*
X168700190Y-75652191D01*
X169176381Y-75890286D02*
X168176381Y-75890286D01*
X168176381Y-75509333D01*
X168224000Y-75414095D01*
X168271619Y-75366476D01*
X168366857Y-75318857D01*
X168509714Y-75318857D01*
X168604952Y-75366476D01*
X168652571Y-75414095D01*
X168700190Y-75509333D01*
X168700190Y-75890286D01*
X168271619Y-74937905D02*
X168224000Y-74890286D01*
X168176381Y-74795048D01*
X168176381Y-74556952D01*
X168224000Y-74461714D01*
X168271619Y-74414095D01*
X168366857Y-74366476D01*
X168462095Y-74366476D01*
X168604952Y-74414095D01*
X169176381Y-74985524D01*
X169176381Y-74366476D01*
X168271619Y-73985524D02*
X168224000Y-73937905D01*
X168176381Y-73842667D01*
X168176381Y-73604571D01*
X168224000Y-73509333D01*
X168271619Y-73461714D01*
X168366857Y-73414095D01*
X168462095Y-73414095D01*
X168604952Y-73461714D01*
X169176381Y-74033143D01*
X169176381Y-73414095D01*
X150741143Y-77160381D02*
X150407809Y-76684190D01*
X150169714Y-77160381D02*
X150169714Y-76160381D01*
X150550667Y-76160381D01*
X150645905Y-76208000D01*
X150693524Y-76255619D01*
X150741143Y-76350857D01*
X150741143Y-76493714D01*
X150693524Y-76588952D01*
X150645905Y-76636571D01*
X150550667Y-76684190D01*
X150169714Y-76684190D01*
X151122095Y-76255619D02*
X151169714Y-76208000D01*
X151264952Y-76160381D01*
X151503048Y-76160381D01*
X151598286Y-76208000D01*
X151645905Y-76255619D01*
X151693524Y-76350857D01*
X151693524Y-76446095D01*
X151645905Y-76588952D01*
X151074476Y-77160381D01*
X151693524Y-77160381D01*
X152026857Y-76160381D02*
X152645905Y-76160381D01*
X152312571Y-76541333D01*
X152455429Y-76541333D01*
X152550667Y-76588952D01*
X152598286Y-76636571D01*
X152645905Y-76731810D01*
X152645905Y-76969905D01*
X152598286Y-77065143D01*
X152550667Y-77112762D01*
X152455429Y-77160381D01*
X152169714Y-77160381D01*
X152074476Y-77112762D01*
X152026857Y-77065143D01*
X121912143Y-69413381D02*
X121578809Y-68937190D01*
X121340714Y-69413381D02*
X121340714Y-68413381D01*
X121721667Y-68413381D01*
X121816905Y-68461000D01*
X121864524Y-68508619D01*
X121912143Y-68603857D01*
X121912143Y-68746714D01*
X121864524Y-68841952D01*
X121816905Y-68889571D01*
X121721667Y-68937190D01*
X121340714Y-68937190D01*
X122293095Y-68508619D02*
X122340714Y-68461000D01*
X122435952Y-68413381D01*
X122674048Y-68413381D01*
X122769286Y-68461000D01*
X122816905Y-68508619D01*
X122864524Y-68603857D01*
X122864524Y-68699095D01*
X122816905Y-68841952D01*
X122245476Y-69413381D01*
X122864524Y-69413381D01*
X123721667Y-68746714D02*
X123721667Y-69413381D01*
X123483571Y-68365762D02*
X123245476Y-69080048D01*
X123864524Y-69080048D01*
X147518381Y-69857857D02*
X147042190Y-70191191D01*
X147518381Y-70429286D02*
X146518381Y-70429286D01*
X146518381Y-70048333D01*
X146566000Y-69953095D01*
X146613619Y-69905476D01*
X146708857Y-69857857D01*
X146851714Y-69857857D01*
X146946952Y-69905476D01*
X146994571Y-69953095D01*
X147042190Y-70048333D01*
X147042190Y-70429286D01*
X146613619Y-69476905D02*
X146566000Y-69429286D01*
X146518381Y-69334048D01*
X146518381Y-69095952D01*
X146566000Y-69000714D01*
X146613619Y-68953095D01*
X146708857Y-68905476D01*
X146804095Y-68905476D01*
X146946952Y-68953095D01*
X147518381Y-69524524D01*
X147518381Y-68905476D01*
X146518381Y-68000714D02*
X146518381Y-68476905D01*
X146994571Y-68524524D01*
X146946952Y-68476905D01*
X146899333Y-68381667D01*
X146899333Y-68143571D01*
X146946952Y-68048333D01*
X146994571Y-68000714D01*
X147089810Y-67953095D01*
X147327905Y-67953095D01*
X147423143Y-68000714D01*
X147470762Y-68048333D01*
X147518381Y-68143571D01*
X147518381Y-68381667D01*
X147470762Y-68476905D01*
X147423143Y-68524524D01*
X126611143Y-73985381D02*
X126277809Y-73509190D01*
X126039714Y-73985381D02*
X126039714Y-72985381D01*
X126420667Y-72985381D01*
X126515905Y-73033000D01*
X126563524Y-73080619D01*
X126611143Y-73175857D01*
X126611143Y-73318714D01*
X126563524Y-73413952D01*
X126515905Y-73461571D01*
X126420667Y-73509190D01*
X126039714Y-73509190D01*
X126992095Y-73080619D02*
X127039714Y-73033000D01*
X127134952Y-72985381D01*
X127373048Y-72985381D01*
X127468286Y-73033000D01*
X127515905Y-73080619D01*
X127563524Y-73175857D01*
X127563524Y-73271095D01*
X127515905Y-73413952D01*
X126944476Y-73985381D01*
X127563524Y-73985381D01*
X128420667Y-72985381D02*
X128230190Y-72985381D01*
X128134952Y-73033000D01*
X128087333Y-73080619D01*
X127992095Y-73223476D01*
X127944476Y-73413952D01*
X127944476Y-73794905D01*
X127992095Y-73890143D01*
X128039714Y-73937762D01*
X128134952Y-73985381D01*
X128325429Y-73985381D01*
X128420667Y-73937762D01*
X128468286Y-73890143D01*
X128515905Y-73794905D01*
X128515905Y-73556810D01*
X128468286Y-73461571D01*
X128420667Y-73413952D01*
X128325429Y-73366333D01*
X128134952Y-73366333D01*
X128039714Y-73413952D01*
X127992095Y-73461571D01*
X127944476Y-73556810D01*
X106672143Y-79827381D02*
X106338809Y-79351190D01*
X106100714Y-79827381D02*
X106100714Y-78827381D01*
X106481667Y-78827381D01*
X106576905Y-78875000D01*
X106624524Y-78922619D01*
X106672143Y-79017857D01*
X106672143Y-79160714D01*
X106624524Y-79255952D01*
X106576905Y-79303571D01*
X106481667Y-79351190D01*
X106100714Y-79351190D01*
X107053095Y-78922619D02*
X107100714Y-78875000D01*
X107195952Y-78827381D01*
X107434048Y-78827381D01*
X107529286Y-78875000D01*
X107576905Y-78922619D01*
X107624524Y-79017857D01*
X107624524Y-79113095D01*
X107576905Y-79255952D01*
X107005476Y-79827381D01*
X107624524Y-79827381D01*
X107957857Y-78827381D02*
X108624524Y-78827381D01*
X108195952Y-79827381D01*
X172426381Y-62055333D02*
X173140667Y-62055333D01*
X173283524Y-62102953D01*
X173378762Y-62198191D01*
X173426381Y-62341048D01*
X173426381Y-62436286D01*
X172426381Y-61674381D02*
X172426381Y-61007714D01*
X173426381Y-61436286D01*
X161850013Y-105283261D02*
X161516679Y-104807070D01*
X161278584Y-105283261D02*
X161278584Y-104283261D01*
X161659537Y-104283261D01*
X161754775Y-104330880D01*
X161802394Y-104378499D01*
X161850013Y-104473737D01*
X161850013Y-104616594D01*
X161802394Y-104711832D01*
X161754775Y-104759451D01*
X161659537Y-104807070D01*
X161278584Y-104807070D01*
X162278584Y-104759451D02*
X162611918Y-104759451D01*
X162754775Y-105283261D02*
X162278584Y-105283261D01*
X162278584Y-104283261D01*
X162754775Y-104283261D01*
X163040489Y-104283261D02*
X163611918Y-104283261D01*
X163326203Y-105283261D02*
X163326203Y-104283261D01*
X164516680Y-105283261D02*
X164183346Y-104807070D01*
X163945251Y-105283261D02*
X163945251Y-104283261D01*
X164326204Y-104283261D01*
X164421442Y-104330880D01*
X164469061Y-104378499D01*
X164516680Y-104473737D01*
X164516680Y-104616594D01*
X164469061Y-104711832D01*
X164421442Y-104759451D01*
X164326204Y-104807070D01*
X163945251Y-104807070D01*
X165135727Y-104283261D02*
X165326204Y-104283261D01*
X165421442Y-104330880D01*
X165516680Y-104426118D01*
X165564299Y-104616594D01*
X165564299Y-104949928D01*
X165516680Y-105140404D01*
X165421442Y-105235642D01*
X165326204Y-105283261D01*
X165135727Y-105283261D01*
X165040489Y-105235642D01*
X164945251Y-105140404D01*
X164897632Y-104949928D01*
X164897632Y-104616594D01*
X164945251Y-104426118D01*
X165040489Y-104330880D01*
X165135727Y-104283261D01*
X166326204Y-104759451D02*
X166469061Y-104807070D01*
X166516680Y-104854690D01*
X166564299Y-104949928D01*
X166564299Y-105092785D01*
X166516680Y-105188023D01*
X166469061Y-105235642D01*
X166373823Y-105283261D01*
X165992870Y-105283261D01*
X165992870Y-104283261D01*
X166326204Y-104283261D01*
X166421442Y-104330880D01*
X166469061Y-104378499D01*
X166516680Y-104473737D01*
X166516680Y-104568975D01*
X166469061Y-104664213D01*
X166421442Y-104711832D01*
X166326204Y-104759451D01*
X165992870Y-104759451D01*
X166992870Y-105283261D02*
X166992870Y-104283261D01*
X167326203Y-104283261D02*
X167897632Y-104283261D01*
X167611917Y-105283261D02*
X167611917Y-104283261D01*
X168230965Y-104902309D02*
X168992870Y-104902309D01*
X169945251Y-105283261D02*
X169469060Y-105283261D01*
X169469060Y-104283261D01*
X170230965Y-104997547D02*
X170707156Y-104997547D01*
X170135727Y-105283261D02*
X170469060Y-104283261D01*
X170802394Y-105283261D01*
X171469061Y-104759451D02*
X171611918Y-104807070D01*
X171659537Y-104854690D01*
X171707156Y-104949928D01*
X171707156Y-105092785D01*
X171659537Y-105188023D01*
X171611918Y-105235642D01*
X171516680Y-105283261D01*
X171135727Y-105283261D01*
X171135727Y-104283261D01*
X171469061Y-104283261D01*
X171564299Y-104330880D01*
X171611918Y-104378499D01*
X171659537Y-104473737D01*
X171659537Y-104568975D01*
X171611918Y-104664213D01*
X171564299Y-104711832D01*
X171469061Y-104759451D01*
X171135727Y-104759451D01*
X147491201Y-62563333D02*
X148205487Y-62563333D01*
X148348344Y-62610953D01*
X148443582Y-62706191D01*
X148491201Y-62849048D01*
X148491201Y-62944286D01*
X147491201Y-61610952D02*
X147491201Y-62087143D01*
X147967391Y-62134762D01*
X147919772Y-62087143D01*
X147872153Y-61991905D01*
X147872153Y-61753809D01*
X147919772Y-61658571D01*
X147967391Y-61610952D01*
X148062630Y-61563333D01*
X148300725Y-61563333D01*
X148395963Y-61610952D01*
X148443582Y-61658571D01*
X148491201Y-61753809D01*
X148491201Y-61991905D01*
X148443582Y-62087143D01*
X148395963Y-62134762D01*
%LPC*%
D16*
X147320000Y-77701140D03*
X147320000Y-87398860D03*
D17*
X132935000Y-72180000D03*
X133585000Y-72180000D03*
X134235000Y-72180000D03*
X134885000Y-72180000D03*
X135535000Y-72180000D03*
X136185000Y-72180000D03*
X136835000Y-72180000D03*
X137485000Y-72180000D03*
X138135000Y-72180000D03*
X138785000Y-72180000D03*
X139435000Y-72180000D03*
X140085000Y-72180000D03*
X140735000Y-72180000D03*
X141385000Y-72180000D03*
X141385000Y-64980000D03*
X140735000Y-64980000D03*
X140085000Y-64980000D03*
X139435000Y-64980000D03*
X138785000Y-64980000D03*
X138135000Y-64980000D03*
X137485000Y-64980000D03*
X136835000Y-64980000D03*
X136185000Y-64980000D03*
X135535000Y-64980000D03*
X134885000Y-64980000D03*
X134235000Y-64980000D03*
X133585000Y-64980000D03*
X132935000Y-64980000D03*
D18*
X152400000Y-105330000D03*
X152400000Y-108030000D03*
X140970000Y-105330000D03*
X140970000Y-108030000D03*
X129540000Y-105330000D03*
X129540000Y-108030000D03*
X181610000Y-95170000D03*
X181610000Y-97870000D03*
D19*
X146130000Y-102870000D03*
X143430000Y-102870000D03*
X135970000Y-102870000D03*
X133270000Y-102870000D03*
X124380000Y-102870000D03*
X127080000Y-102870000D03*
X179150000Y-100330000D03*
X176450000Y-100330000D03*
D18*
X172720000Y-95170000D03*
X172720000Y-97870000D03*
X163830000Y-95170000D03*
X163830000Y-97870000D03*
X154940000Y-95170000D03*
X154940000Y-97870000D03*
X146050000Y-95170000D03*
X146050000Y-97870000D03*
X137160000Y-95170000D03*
X137160000Y-97870000D03*
D19*
X170260000Y-100330000D03*
X167560000Y-100330000D03*
X161370000Y-100330000D03*
X158670000Y-100330000D03*
X152480000Y-100330000D03*
X149780000Y-100330000D03*
X143590000Y-100330000D03*
X140890000Y-100330000D03*
X134700000Y-100330000D03*
X132000000Y-100330000D03*
D18*
X128270000Y-95170000D03*
X128270000Y-97870000D03*
D19*
X127080000Y-100330000D03*
X124380000Y-100330000D03*
D18*
X129540000Y-66120000D03*
X129540000Y-63420000D03*
D20*
X148320760Y-107630000D03*
X148320760Y-105730000D03*
X146321780Y-106680000D03*
X136890760Y-107630000D03*
X136890760Y-105730000D03*
X134891780Y-106680000D03*
X126730760Y-107630000D03*
X126730760Y-105730000D03*
X124731780Y-106680000D03*
X176799240Y-95570000D03*
X176799240Y-97470000D03*
X178798220Y-96520000D03*
X167909240Y-95570000D03*
X167909240Y-97470000D03*
X169908220Y-96520000D03*
X159019240Y-95570000D03*
X159019240Y-97470000D03*
X161018220Y-96520000D03*
X150129240Y-95570000D03*
X150129240Y-97470000D03*
X152128220Y-96520000D03*
X141239240Y-95570000D03*
X141239240Y-97470000D03*
X143238220Y-96520000D03*
X132349240Y-95570000D03*
X132349240Y-97470000D03*
X134348220Y-96520000D03*
X123459240Y-95570000D03*
X123459240Y-97470000D03*
X125458220Y-96520000D03*
D21*
X160020000Y-78740000D03*
D22*
X157480000Y-78740000D03*
X154940000Y-78740000D03*
D21*
X189230000Y-71120000D03*
D22*
X191770000Y-71120000D03*
X194310000Y-71120000D03*
X196850000Y-71120000D03*
D21*
X173990000Y-88900000D03*
D22*
X176530000Y-88900000D03*
X179070000Y-88900000D03*
X181610000Y-88900000D03*
D23*
X133350000Y-120650000D03*
D24*
X133350000Y-118110000D03*
X135890000Y-120650000D03*
X135890000Y-118110000D03*
X138430000Y-120650000D03*
X138430000Y-118110000D03*
X140970000Y-120650000D03*
X140970000Y-118110000D03*
X143510000Y-120650000D03*
X143510000Y-118110000D03*
X146050000Y-120650000D03*
X146050000Y-118110000D03*
X148590000Y-120650000D03*
X148590000Y-118110000D03*
X151130000Y-120650000D03*
X151130000Y-118110000D03*
X153670000Y-120650000D03*
X153670000Y-118110000D03*
X156210000Y-120650000D03*
X156210000Y-118110000D03*
X158750000Y-120650000D03*
X158750000Y-118110000D03*
X161290000Y-120650000D03*
X161290000Y-118110000D03*
X163830000Y-120650000D03*
X163830000Y-118110000D03*
X166370000Y-120650000D03*
X166370000Y-118110000D03*
X168910000Y-120650000D03*
X168910000Y-118110000D03*
X171450000Y-120650000D03*
X171450000Y-118110000D03*
X173990000Y-120650000D03*
X173990000Y-118110000D03*
D25*
X124460000Y-118110000D03*
D26*
X124460000Y-120650000D03*
D27*
X123410980Y-66040000D03*
X125509020Y-66040000D03*
D23*
X119380000Y-71120000D03*
D24*
X116840000Y-71120000D03*
X119380000Y-68580000D03*
X116840000Y-68580000D03*
X119380000Y-66040000D03*
X116840000Y-66040000D03*
D28*
X125710000Y-76200000D03*
X123210000Y-76200000D03*
D29*
X127000000Y-80350360D03*
X127000000Y-84749640D03*
D28*
X121940000Y-88900000D03*
X124440000Y-88900000D03*
D30*
X121920000Y-81300000D03*
X121920000Y-83800000D03*
D28*
X140990000Y-74930000D03*
X143490000Y-74930000D03*
X140990000Y-90170000D03*
X143490000Y-90170000D03*
D31*
X141410000Y-85350000D03*
X141410000Y-84550000D03*
X141410000Y-83750000D03*
X141410000Y-82950000D03*
X141410000Y-82150000D03*
X141410000Y-81350000D03*
X141410000Y-80550000D03*
X141410000Y-79750000D03*
D32*
X139960000Y-78300000D03*
X139160000Y-78300000D03*
X138360000Y-78300000D03*
X137560000Y-78300000D03*
X136760000Y-78300000D03*
X135960000Y-78300000D03*
X135160000Y-78300000D03*
X134360000Y-78300000D03*
D31*
X132910000Y-79750000D03*
X132910000Y-80550000D03*
X132910000Y-81350000D03*
X132910000Y-82150000D03*
X132910000Y-82950000D03*
X132910000Y-83750000D03*
X132910000Y-84550000D03*
X132910000Y-85350000D03*
D32*
X134360000Y-86800000D03*
X135160000Y-86800000D03*
X135960000Y-86800000D03*
X136760000Y-86800000D03*
X137560000Y-86800000D03*
X138360000Y-86800000D03*
X139160000Y-86800000D03*
X139960000Y-86800000D03*
D33*
X109951570Y-76451680D03*
X119156430Y-76456320D03*
D27*
X166624000Y-78706980D03*
X166624000Y-80805020D03*
X157954980Y-73660000D03*
X160053020Y-73660000D03*
D18*
X166624000Y-73326000D03*
X166624000Y-76026000D03*
D19*
X150034000Y-74168000D03*
X152734000Y-74168000D03*
X125269000Y-69088000D03*
X127969000Y-69088000D03*
D18*
X145161000Y-70565000D03*
X145161000Y-67865000D03*
D19*
X125904000Y-71628000D03*
X128604000Y-71628000D03*
D18*
X107315000Y-77169000D03*
X107315000Y-74469000D03*
D34*
X168945560Y-63350140D03*
X168290900Y-63350000D03*
X167640900Y-63350000D03*
X166990900Y-63350000D03*
X166340900Y-63350000D03*
D35*
X170140900Y-62522540D03*
X165140900Y-62522540D03*
D36*
X171140900Y-59822540D03*
X164140900Y-59822540D03*
D37*
X124460000Y-113030000D03*
X181610000Y-113030000D03*
X181610000Y-62230000D03*
X107950000Y-61722000D03*
D38*
X155740100Y-66730000D03*
D39*
X159390080Y-62151260D03*
D38*
X156540200Y-66730000D03*
X154940000Y-66730000D03*
X154139900Y-66730000D03*
X153339800Y-66730000D03*
D39*
X159390080Y-65580260D03*
X150489920Y-65580260D03*
X150495000Y-62103000D03*
D40*
X157139640Y-63080900D03*
X152740360Y-63080900D03*
D41*
X123046000Y-83674200D03*
X117348000Y-74803000D03*
X120747000Y-76581200D03*
X123210000Y-77371000D03*
X131607000Y-83077600D03*
X128651000Y-84836000D03*
X136779000Y-74041000D03*
X136906000Y-75565000D03*
X134816000Y-63599000D03*
X139304000Y-63599000D03*
X128342000Y-63439200D03*
X131191000Y-66421000D03*
X137087000Y-70788100D03*
X137322000Y-66367300D03*
X153478000Y-64719200D03*
X140095000Y-82150000D03*
X140049000Y-83750000D03*
X127000000Y-82720900D03*
X139726000Y-90130500D03*
X161185000Y-74045500D03*
X167736000Y-80544500D03*
X122603000Y-90065400D03*
X137643000Y-62684000D03*
X125470000Y-86347700D03*
X125046000Y-77879900D03*
X131264000Y-79654900D03*
X126432000Y-73828600D03*
X152402000Y-98236000D03*
X170651000Y-97700100D03*
X129489000Y-102689000D03*
X149120000Y-97163200D03*
X147010000Y-105325000D03*
X168016000Y-98711000D03*
X157776000Y-69333300D03*
X161525000Y-62571600D03*
X133171000Y-74061700D03*
X134290000Y-85412700D03*
X134061000Y-74199300D03*
X135439000Y-84571300D03*
X140360000Y-70702000D03*
X139048000Y-85412700D03*
X133192000Y-86241300D03*
X159151000Y-94438600D03*
X138304000Y-80422900D03*
X124840000Y-99179600D03*
X136004000Y-96671800D03*
X137857000Y-82640200D03*
X145354000Y-84138700D03*
X157853000Y-97094000D03*
X143174000Y-77961000D03*
X158931000Y-99024600D03*
X145354000Y-86454800D03*
X162353000Y-96847300D03*
X134996000Y-80487500D03*
X126309000Y-101600000D03*
X139911000Y-80137500D03*
X134620000Y-102720000D03*
M02*
