M48
;DRILL file {KiCad 4.0.2+dfsg1-stable} date lun 17 giu 2019 11:56:59 CEST
;FORMAT={-:-/ absolute / inch / decimal}
FMAT,2
INCH,TZ
T1C0.012
T2C0.016
T3C0.020
T4C0.022
T5C0.036
T6C0.040
T7C0.120
%
G90
G05
M72
T1
X4.6703Y-2.9586
X4.9712Y-3.6913
X5.1442Y-3.1881
T2
X5.0119Y-3.6117
X5.0333Y-4.022
X5.1578Y-4.0691
X5.1661Y-3.1193
X5.1726Y-3.8151
X5.1858Y-3.8729
X5.2106Y-3.1076
X5.2359Y-3.4007
X5.2569Y-2.896
X5.312Y-3.0312
X5.3159Y-3.1851
X5.3197Y-3.3287
X5.3447Y-2.8964
X5.3569Y-3.0313
X5.3671Y-3.1347
X5.3691Y-3.1675
X5.4342Y-3.3657
X5.4861Y-3.3656
X5.4956Y-3.4689
X5.5037Y-3.8265
X5.5147Y-3.1349
X5.515Y-3.3287
X5.5158Y-3.1755
X5.5198Y-3.8705
X5.5207Y-4.069
X5.5534Y-3.3916
X5.5673Y-3.1076
X5.5851Y-4.2887
X5.6053Y-3.0122
X5.6565Y-4.0963
X5.6618Y-3.6175
X5.677Y-3.411
X5.7175Y-2.6841
X5.7193Y-3.93
X5.8046Y-3.8273
X5.8641Y-2.5583
X5.9963Y-4.532
X6.1093Y-2.6819
X6.1397Y-3.9093
X6.1468Y-2.6789
X6.2079Y-4.3079
X6.4169Y-2.5199
X6.4616Y-3.767
X6.4939Y-3.8487
X6.5001Y-2.5832
X6.5056Y-2.6301
T5
X5.25Y-4.65
X5.25Y-4.75
X5.35Y-4.65
X5.35Y-4.75
X5.45Y-4.65
X5.45Y-4.75
X5.55Y-4.65
X5.55Y-4.75
X5.65Y-4.65
X5.65Y-4.75
X5.75Y-4.65
X5.75Y-4.75
X5.85Y-4.65
X5.85Y-4.75
X5.95Y-4.65
X5.95Y-4.75
X6.05Y-4.65
X6.05Y-4.75
X6.15Y-4.65
X6.15Y-4.75
X6.25Y-4.65
X6.25Y-4.75
X6.35Y-4.65
X6.35Y-4.75
X6.45Y-4.65
X6.45Y-4.75
X6.55Y-4.65
X6.55Y-4.75
X6.65Y-4.65
X6.65Y-4.75
X6.75Y-4.65
X6.75Y-4.75
X6.85Y-4.65
X6.85Y-4.75
T6
X4.6Y-2.6
X4.6Y-2.7
X4.6Y-2.8
X4.7Y-2.6
X4.7Y-2.7
X4.7Y-2.8
X4.9Y-4.65
X4.9Y-4.75
X6.1Y-3.1
X6.2Y-3.1
X6.3Y-3.1
X6.85Y-3.5
X6.95Y-3.5
X7.05Y-3.5
X7.15Y-3.5
X7.45Y-2.8
X7.55Y-2.8
X7.65Y-2.8
X7.75Y-2.8
T7
X4.25Y-2.43
X4.9Y-4.45
X7.15Y-2.45
X7.15Y-4.45
T3
X6.4622Y-2.3424G85X6.4622Y-2.368
G05
X6.7378Y-2.3424G85X6.7378Y-2.368
G05
T4
X6.5075Y-2.4615G85X6.4957Y-2.4615
G05
X6.7044Y-2.4615G85X6.6926Y-2.4615
G05
T0
M30
