%TF.GenerationSoftware,KiCad,Pcbnew,5.1.9+dfsg1-1~bpo10+1*%
%TF.CreationDate,2021-04-05T15:55:01+02:00*%
%TF.ProjectId,usbavrfloppy,75736261-7672-4666-9c6f-7070792e6b69,rev?*%
%TF.SameCoordinates,Original*%
%TF.FileFunction,Legend,Bot*%
%TF.FilePolarity,Positive*%
%FSLAX46Y46*%
G04 Gerber Fmt 4.6, Leading zero omitted, Abs format (unit mm)*
G04 Created by KiCad (PCBNEW 5.1.9+dfsg1-1~bpo10+1) date 2021-04-05 15:55:01*
%MOMM*%
%LPD*%
G01*
G04 APERTURE LIST*
%ADD10C,0.150000*%
%ADD11C,0.300000*%
%ADD12C,0.010000*%
%ADD13C,1.700000*%
%ADD14C,0.899160*%
%ADD15O,1.250000X0.950000*%
%ADD16O,1.000000X1.550000*%
%ADD17R,1.700000X1.700000*%
%ADD18O,1.700000X1.700000*%
%ADD19R,1.520000X1.520000*%
%ADD20C,1.520000*%
%ADD21C,1.000000*%
%ADD22R,1.000000X1.000000*%
%ADD23C,3.000000*%
%ADD24C,1.500000*%
%ADD25C,0.600000*%
G04 APERTURE END LIST*
D10*
X173238095Y-124785714D02*
X173238095Y-125785714D01*
X173238095Y-124833333D02*
X173142857Y-124785714D01*
X172952380Y-124785714D01*
X172857142Y-124833333D01*
X172809523Y-124880952D01*
X172761904Y-124976190D01*
X172761904Y-125261904D01*
X172809523Y-125357142D01*
X172857142Y-125404761D01*
X172952380Y-125452380D01*
X173142857Y-125452380D01*
X173238095Y-125404761D01*
X172333333Y-125452380D02*
X172333333Y-124785714D01*
X172333333Y-124452380D02*
X172380952Y-124500000D01*
X172333333Y-124547619D01*
X172285714Y-124500000D01*
X172333333Y-124452380D01*
X172333333Y-124547619D01*
X171857142Y-124785714D02*
X171857142Y-125452380D01*
X171857142Y-124880952D02*
X171809523Y-124833333D01*
X171714285Y-124785714D01*
X171571428Y-124785714D01*
X171476190Y-124833333D01*
X171428571Y-124928571D01*
X171428571Y-125452380D01*
X170238095Y-124547619D02*
X170190476Y-124500000D01*
X170095238Y-124452380D01*
X169857142Y-124452380D01*
X169761904Y-124500000D01*
X169714285Y-124547619D01*
X169666666Y-124642857D01*
X169666666Y-124738095D01*
X169714285Y-124880952D01*
X170285714Y-125452380D01*
X169666666Y-125452380D01*
X168809523Y-124452380D02*
X169000000Y-124452380D01*
X169095238Y-124500000D01*
X169142857Y-124547619D01*
X169238095Y-124690476D01*
X169285714Y-124880952D01*
X169285714Y-125261904D01*
X169238095Y-125357142D01*
X169190476Y-125404761D01*
X169095238Y-125452380D01*
X168904761Y-125452380D01*
X168809523Y-125404761D01*
X168761904Y-125357142D01*
X168714285Y-125261904D01*
X168714285Y-125023809D01*
X168761904Y-124928571D01*
X168809523Y-124880952D01*
X168904761Y-124833333D01*
X169095238Y-124833333D01*
X169190476Y-124880952D01*
X169238095Y-124928571D01*
X169285714Y-125023809D01*
X138761904Y-124285714D02*
X138761904Y-125285714D01*
X138761904Y-124333333D02*
X138666666Y-124285714D01*
X138476190Y-124285714D01*
X138380952Y-124333333D01*
X138333333Y-124380952D01*
X138285714Y-124476190D01*
X138285714Y-124761904D01*
X138333333Y-124857142D01*
X138380952Y-124904761D01*
X138476190Y-124952380D01*
X138666666Y-124952380D01*
X138761904Y-124904761D01*
X137857142Y-124952380D02*
X137857142Y-124285714D01*
X137857142Y-123952380D02*
X137904761Y-124000000D01*
X137857142Y-124047619D01*
X137809523Y-124000000D01*
X137857142Y-123952380D01*
X137857142Y-124047619D01*
X137380952Y-124285714D02*
X137380952Y-124952380D01*
X137380952Y-124380952D02*
X137333333Y-124333333D01*
X137238095Y-124285714D01*
X137095238Y-124285714D01*
X137000000Y-124333333D01*
X136952380Y-124428571D01*
X136952380Y-124952380D01*
X135190476Y-124952380D02*
X135761904Y-124952380D01*
X135476190Y-124952380D02*
X135476190Y-123952380D01*
X135571428Y-124095238D01*
X135666666Y-124190476D01*
X135761904Y-124238095D01*
X167629333Y-70302380D02*
X167629333Y-69302380D01*
X167200761Y-70302380D02*
X167200761Y-69778571D01*
X167248380Y-69683333D01*
X167343619Y-69635714D01*
X167486476Y-69635714D01*
X167581714Y-69683333D01*
X167629333Y-69730952D01*
X166867428Y-69635714D02*
X166486476Y-69635714D01*
X166724571Y-69302380D02*
X166724571Y-70159523D01*
X166676952Y-70254761D01*
X166581714Y-70302380D01*
X166486476Y-70302380D01*
X166296000Y-69635714D02*
X165915047Y-69635714D01*
X166153142Y-69302380D02*
X166153142Y-70159523D01*
X166105523Y-70254761D01*
X166010285Y-70302380D01*
X165915047Y-70302380D01*
X165581714Y-69635714D02*
X165581714Y-70635714D01*
X165581714Y-69683333D02*
X165486476Y-69635714D01*
X165296000Y-69635714D01*
X165200761Y-69683333D01*
X165153142Y-69730952D01*
X165105523Y-69826190D01*
X165105523Y-70111904D01*
X165153142Y-70207142D01*
X165200761Y-70254761D01*
X165296000Y-70302380D01*
X165486476Y-70302380D01*
X165581714Y-70254761D01*
X164724571Y-70254761D02*
X164629333Y-70302380D01*
X164438857Y-70302380D01*
X164343619Y-70254761D01*
X164296000Y-70159523D01*
X164296000Y-70111904D01*
X164343619Y-70016666D01*
X164438857Y-69969047D01*
X164581714Y-69969047D01*
X164676952Y-69921428D01*
X164724571Y-69826190D01*
X164724571Y-69778571D01*
X164676952Y-69683333D01*
X164581714Y-69635714D01*
X164438857Y-69635714D01*
X164343619Y-69683333D01*
X163867428Y-70207142D02*
X163819809Y-70254761D01*
X163867428Y-70302380D01*
X163915047Y-70254761D01*
X163867428Y-70207142D01*
X163867428Y-70302380D01*
X163867428Y-69683333D02*
X163819809Y-69730952D01*
X163867428Y-69778571D01*
X163915047Y-69730952D01*
X163867428Y-69683333D01*
X163867428Y-69778571D01*
X162676952Y-69254761D02*
X163534095Y-70540476D01*
X161629333Y-69254761D02*
X162486476Y-70540476D01*
X160867428Y-69635714D02*
X160867428Y-70445238D01*
X160915047Y-70540476D01*
X160962666Y-70588095D01*
X161057904Y-70635714D01*
X161200761Y-70635714D01*
X161296000Y-70588095D01*
X160867428Y-70254761D02*
X160962666Y-70302380D01*
X161153142Y-70302380D01*
X161248380Y-70254761D01*
X161296000Y-70207142D01*
X161343619Y-70111904D01*
X161343619Y-69826190D01*
X161296000Y-69730952D01*
X161248380Y-69683333D01*
X161153142Y-69635714D01*
X160962666Y-69635714D01*
X160867428Y-69683333D01*
X160391238Y-70302380D02*
X160391238Y-69635714D01*
X160391238Y-69302380D02*
X160438857Y-69350000D01*
X160391238Y-69397619D01*
X160343619Y-69350000D01*
X160391238Y-69302380D01*
X160391238Y-69397619D01*
X160057904Y-69635714D02*
X159676952Y-69635714D01*
X159915047Y-69302380D02*
X159915047Y-70159523D01*
X159867428Y-70254761D01*
X159772190Y-70302380D01*
X159676952Y-70302380D01*
X159343619Y-70302380D02*
X159343619Y-69302380D01*
X158915047Y-70302380D02*
X158915047Y-69778571D01*
X158962666Y-69683333D01*
X159057904Y-69635714D01*
X159200761Y-69635714D01*
X159296000Y-69683333D01*
X159343619Y-69730952D01*
X158010285Y-69635714D02*
X158010285Y-70302380D01*
X158438857Y-69635714D02*
X158438857Y-70159523D01*
X158391238Y-70254761D01*
X158296000Y-70302380D01*
X158153142Y-70302380D01*
X158057904Y-70254761D01*
X158010285Y-70207142D01*
X157534095Y-70302380D02*
X157534095Y-69302380D01*
X157534095Y-69683333D02*
X157438857Y-69635714D01*
X157248380Y-69635714D01*
X157153142Y-69683333D01*
X157105523Y-69730952D01*
X157057904Y-69826190D01*
X157057904Y-70111904D01*
X157105523Y-70207142D01*
X157153142Y-70254761D01*
X157248380Y-70302380D01*
X157438857Y-70302380D01*
X157534095Y-70254761D01*
X156629333Y-70207142D02*
X156581714Y-70254761D01*
X156629333Y-70302380D01*
X156676952Y-70254761D01*
X156629333Y-70207142D01*
X156629333Y-70302380D01*
X155724571Y-70254761D02*
X155819809Y-70302380D01*
X156010285Y-70302380D01*
X156105523Y-70254761D01*
X156153142Y-70207142D01*
X156200761Y-70111904D01*
X156200761Y-69826190D01*
X156153142Y-69730952D01*
X156105523Y-69683333D01*
X156010285Y-69635714D01*
X155819809Y-69635714D01*
X155724571Y-69683333D01*
X155153142Y-70302380D02*
X155248380Y-70254761D01*
X155296000Y-70207142D01*
X155343619Y-70111904D01*
X155343619Y-69826190D01*
X155296000Y-69730952D01*
X155248380Y-69683333D01*
X155153142Y-69635714D01*
X155010285Y-69635714D01*
X154915047Y-69683333D01*
X154867428Y-69730952D01*
X154819809Y-69826190D01*
X154819809Y-70111904D01*
X154867428Y-70207142D01*
X154915047Y-70254761D01*
X155010285Y-70302380D01*
X155153142Y-70302380D01*
X154391238Y-70302380D02*
X154391238Y-69635714D01*
X154391238Y-69730952D02*
X154343619Y-69683333D01*
X154248380Y-69635714D01*
X154105523Y-69635714D01*
X154010285Y-69683333D01*
X153962666Y-69778571D01*
X153962666Y-70302380D01*
X153962666Y-69778571D02*
X153915047Y-69683333D01*
X153819809Y-69635714D01*
X153676952Y-69635714D01*
X153581714Y-69683333D01*
X153534095Y-69778571D01*
X153534095Y-70302380D01*
X152343619Y-69254761D02*
X153200761Y-70540476D01*
X151581714Y-69635714D02*
X151581714Y-70445238D01*
X151629333Y-70540476D01*
X151676952Y-70588095D01*
X151772190Y-70635714D01*
X151915047Y-70635714D01*
X152010285Y-70588095D01*
X151581714Y-70254761D02*
X151676952Y-70302380D01*
X151867428Y-70302380D01*
X151962666Y-70254761D01*
X152010285Y-70207142D01*
X152057904Y-70111904D01*
X152057904Y-69826190D01*
X152010285Y-69730952D01*
X151962666Y-69683333D01*
X151867428Y-69635714D01*
X151676952Y-69635714D01*
X151581714Y-69683333D01*
X151105523Y-70302380D02*
X151105523Y-69635714D01*
X151105523Y-69302380D02*
X151153142Y-69350000D01*
X151105523Y-69397619D01*
X151057904Y-69350000D01*
X151105523Y-69302380D01*
X151105523Y-69397619D01*
X150200761Y-70302380D02*
X150200761Y-69778571D01*
X150248380Y-69683333D01*
X150343619Y-69635714D01*
X150534095Y-69635714D01*
X150629333Y-69683333D01*
X150200761Y-70254761D02*
X150296000Y-70302380D01*
X150534095Y-70302380D01*
X150629333Y-70254761D01*
X150676952Y-70159523D01*
X150676952Y-70064285D01*
X150629333Y-69969047D01*
X150534095Y-69921428D01*
X150296000Y-69921428D01*
X150200761Y-69873809D01*
X149724571Y-69635714D02*
X149724571Y-70302380D01*
X149724571Y-69730952D02*
X149676952Y-69683333D01*
X149581714Y-69635714D01*
X149438857Y-69635714D01*
X149343619Y-69683333D01*
X149296000Y-69778571D01*
X149296000Y-70302380D01*
X148676952Y-70302380D02*
X148772190Y-70254761D01*
X148819809Y-70159523D01*
X148819809Y-69302380D01*
X147867428Y-69635714D02*
X147867428Y-70302380D01*
X148296000Y-69635714D02*
X148296000Y-70159523D01*
X148248380Y-70254761D01*
X148153142Y-70302380D01*
X148010285Y-70302380D01*
X147915047Y-70254761D01*
X147867428Y-70207142D01*
X146962666Y-70254761D02*
X147057904Y-70302380D01*
X147248380Y-70302380D01*
X147343619Y-70254761D01*
X147391238Y-70207142D01*
X147438857Y-70111904D01*
X147438857Y-69826190D01*
X147391238Y-69730952D01*
X147343619Y-69683333D01*
X147248380Y-69635714D01*
X147057904Y-69635714D01*
X146962666Y-69683333D01*
X146105523Y-70302380D02*
X146105523Y-69778571D01*
X146153142Y-69683333D01*
X146248380Y-69635714D01*
X146438857Y-69635714D01*
X146534095Y-69683333D01*
X146105523Y-70254761D02*
X146200761Y-70302380D01*
X146438857Y-70302380D01*
X146534095Y-70254761D01*
X146581714Y-70159523D01*
X146581714Y-70064285D01*
X146534095Y-69969047D01*
X146438857Y-69921428D01*
X146200761Y-69921428D01*
X146105523Y-69873809D01*
X145629333Y-70302380D02*
X145629333Y-69635714D01*
X145629333Y-69826190D02*
X145581714Y-69730952D01*
X145534095Y-69683333D01*
X145438857Y-69635714D01*
X145343619Y-69635714D01*
X144629333Y-70254761D02*
X144724571Y-70302380D01*
X144915047Y-70302380D01*
X145010285Y-70254761D01*
X145057904Y-70159523D01*
X145057904Y-69778571D01*
X145010285Y-69683333D01*
X144915047Y-69635714D01*
X144724571Y-69635714D01*
X144629333Y-69683333D01*
X144581714Y-69778571D01*
X144581714Y-69873809D01*
X145057904Y-69969047D01*
X144153142Y-69635714D02*
X144153142Y-70302380D01*
X144153142Y-69730952D02*
X144105523Y-69683333D01*
X144010285Y-69635714D01*
X143867428Y-69635714D01*
X143772190Y-69683333D01*
X143724571Y-69778571D01*
X143724571Y-70302380D01*
X143343619Y-69635714D02*
X142819809Y-69635714D01*
X143343619Y-70302380D01*
X142819809Y-70302380D01*
X142438857Y-70302380D02*
X142438857Y-69635714D01*
X142438857Y-69302380D02*
X142486476Y-69350000D01*
X142438857Y-69397619D01*
X142391238Y-69350000D01*
X142438857Y-69302380D01*
X142438857Y-69397619D01*
X141248380Y-69254761D02*
X142105523Y-70540476D01*
X141010285Y-69635714D02*
X140819809Y-70302380D01*
X140629333Y-69826190D01*
X140438857Y-70302380D01*
X140248380Y-69635714D01*
X139438857Y-70302380D02*
X139438857Y-69778571D01*
X139486476Y-69683333D01*
X139581714Y-69635714D01*
X139772190Y-69635714D01*
X139867428Y-69683333D01*
X139438857Y-70254761D02*
X139534095Y-70302380D01*
X139772190Y-70302380D01*
X139867428Y-70254761D01*
X139915047Y-70159523D01*
X139915047Y-70064285D01*
X139867428Y-69969047D01*
X139772190Y-69921428D01*
X139534095Y-69921428D01*
X139438857Y-69873809D01*
X139105523Y-69635714D02*
X138724571Y-69635714D01*
X138962666Y-70302380D02*
X138962666Y-69445238D01*
X138915047Y-69350000D01*
X138819809Y-69302380D01*
X138724571Y-69302380D01*
X138534095Y-69635714D02*
X138153142Y-69635714D01*
X138391238Y-70302380D02*
X138391238Y-69445238D01*
X138343619Y-69350000D01*
X138248380Y-69302380D01*
X138153142Y-69302380D01*
X137676952Y-70302380D02*
X137772190Y-70254761D01*
X137819809Y-70159523D01*
X137819809Y-69302380D01*
X136915047Y-70254761D02*
X137010285Y-70302380D01*
X137200761Y-70302380D01*
X137296000Y-70254761D01*
X137343619Y-70159523D01*
X137343619Y-69778571D01*
X137296000Y-69683333D01*
X137200761Y-69635714D01*
X137010285Y-69635714D01*
X136915047Y-69683333D01*
X136867428Y-69778571D01*
X136867428Y-69873809D01*
X137343619Y-69969047D01*
X136438857Y-69921428D02*
X135676952Y-69921428D01*
X134772190Y-69635714D02*
X134772190Y-70302380D01*
X135200761Y-69635714D02*
X135200761Y-70159523D01*
X135153142Y-70254761D01*
X135057904Y-70302380D01*
X134915047Y-70302380D01*
X134819809Y-70254761D01*
X134772190Y-70207142D01*
X134343619Y-70254761D02*
X134248380Y-70302380D01*
X134057904Y-70302380D01*
X133962666Y-70254761D01*
X133915047Y-70159523D01*
X133915047Y-70111904D01*
X133962666Y-70016666D01*
X134057904Y-69969047D01*
X134200761Y-69969047D01*
X134296000Y-69921428D01*
X134343619Y-69826190D01*
X134343619Y-69778571D01*
X134296000Y-69683333D01*
X134200761Y-69635714D01*
X134057904Y-69635714D01*
X133962666Y-69683333D01*
X133486476Y-70302380D02*
X133486476Y-69302380D01*
X133486476Y-69683333D02*
X133391238Y-69635714D01*
X133200761Y-69635714D01*
X133105523Y-69683333D01*
X133057904Y-69730952D01*
X133010285Y-69826190D01*
X133010285Y-70111904D01*
X133057904Y-70207142D01*
X133105523Y-70254761D01*
X133200761Y-70302380D01*
X133391238Y-70302380D01*
X133486476Y-70254761D01*
X132153142Y-70302380D02*
X132153142Y-69778571D01*
X132200761Y-69683333D01*
X132296000Y-69635714D01*
X132486476Y-69635714D01*
X132581714Y-69683333D01*
X132153142Y-70254761D02*
X132248380Y-70302380D01*
X132486476Y-70302380D01*
X132581714Y-70254761D01*
X132629333Y-70159523D01*
X132629333Y-70064285D01*
X132581714Y-69969047D01*
X132486476Y-69921428D01*
X132248380Y-69921428D01*
X132153142Y-69873809D01*
X131676952Y-70302380D02*
X131676952Y-69635714D01*
X131676952Y-69730952D02*
X131629333Y-69683333D01*
X131534095Y-69635714D01*
X131391238Y-69635714D01*
X131296000Y-69683333D01*
X131248380Y-69778571D01*
X131248380Y-70302380D01*
X131248380Y-69778571D02*
X131200761Y-69683333D01*
X131105523Y-69635714D01*
X130962666Y-69635714D01*
X130867428Y-69683333D01*
X130819809Y-69778571D01*
X130819809Y-70302380D01*
X130343619Y-70302380D02*
X130343619Y-69635714D01*
X130343619Y-69302380D02*
X130391238Y-69350000D01*
X130343619Y-69397619D01*
X130296000Y-69350000D01*
X130343619Y-69302380D01*
X130343619Y-69397619D01*
X129438857Y-69635714D02*
X129438857Y-70445238D01*
X129486476Y-70540476D01*
X129534095Y-70588095D01*
X129629333Y-70635714D01*
X129772190Y-70635714D01*
X129867428Y-70588095D01*
X129438857Y-70254761D02*
X129534095Y-70302380D01*
X129724571Y-70302380D01*
X129819809Y-70254761D01*
X129867428Y-70207142D01*
X129915047Y-70111904D01*
X129915047Y-69826190D01*
X129867428Y-69730952D01*
X129819809Y-69683333D01*
X129724571Y-69635714D01*
X129534095Y-69635714D01*
X129438857Y-69683333D01*
X128534095Y-70302380D02*
X128534095Y-69778571D01*
X128581714Y-69683333D01*
X128676952Y-69635714D01*
X128867428Y-69635714D01*
X128962666Y-69683333D01*
X128534095Y-70254761D02*
X128629333Y-70302380D01*
X128867428Y-70302380D01*
X128962666Y-70254761D01*
X129010285Y-70159523D01*
X129010285Y-70064285D01*
X128962666Y-69969047D01*
X128867428Y-69921428D01*
X128629333Y-69921428D01*
X128534095Y-69873809D01*
X128200761Y-69635714D02*
X127819809Y-69635714D01*
X128057904Y-70302380D02*
X128057904Y-69445238D01*
X128010285Y-69350000D01*
X127915047Y-69302380D01*
X127819809Y-69302380D01*
X127343619Y-70302380D02*
X127438857Y-70254761D01*
X127486476Y-70159523D01*
X127486476Y-69302380D01*
X126819809Y-70302380D02*
X126915047Y-70254761D01*
X126962666Y-70207142D01*
X127010285Y-70111904D01*
X127010285Y-69826190D01*
X126962666Y-69730952D01*
X126915047Y-69683333D01*
X126819809Y-69635714D01*
X126676952Y-69635714D01*
X126581714Y-69683333D01*
X126534095Y-69730952D01*
X126486476Y-69826190D01*
X126486476Y-70111904D01*
X126534095Y-70207142D01*
X126581714Y-70254761D01*
X126676952Y-70302380D01*
X126819809Y-70302380D01*
X126057904Y-69635714D02*
X126057904Y-70635714D01*
X126057904Y-69683333D02*
X125962666Y-69635714D01*
X125772190Y-69635714D01*
X125676952Y-69683333D01*
X125629333Y-69730952D01*
X125581714Y-69826190D01*
X125581714Y-70111904D01*
X125629333Y-70207142D01*
X125676952Y-70254761D01*
X125772190Y-70302380D01*
X125962666Y-70302380D01*
X126057904Y-70254761D01*
X125153142Y-69635714D02*
X125153142Y-70635714D01*
X125153142Y-69683333D02*
X125057904Y-69635714D01*
X124867428Y-69635714D01*
X124772190Y-69683333D01*
X124724571Y-69730952D01*
X124676952Y-69826190D01*
X124676952Y-70111904D01*
X124724571Y-70207142D01*
X124772190Y-70254761D01*
X124867428Y-70302380D01*
X125057904Y-70302380D01*
X125153142Y-70254761D01*
X124343619Y-69635714D02*
X124105523Y-70302380D01*
X123867428Y-69635714D02*
X124105523Y-70302380D01*
X124200761Y-70540476D01*
X124248380Y-70588095D01*
X124343619Y-70635714D01*
D11*
X146207142Y-61638571D02*
X146207142Y-60638571D01*
X146207142Y-60138571D02*
X146278571Y-60210000D01*
X146207142Y-60281428D01*
X146135714Y-60210000D01*
X146207142Y-60138571D01*
X146207142Y-60281428D01*
X145492857Y-60638571D02*
X145492857Y-61638571D01*
X145492857Y-60781428D02*
X145421428Y-60710000D01*
X145278571Y-60638571D01*
X145064285Y-60638571D01*
X144921428Y-60710000D01*
X144850000Y-60852857D01*
X144850000Y-61638571D01*
X142992857Y-61638571D02*
X142992857Y-60638571D01*
X142992857Y-60781428D02*
X142921428Y-60710000D01*
X142778571Y-60638571D01*
X142564285Y-60638571D01*
X142421428Y-60710000D01*
X142350000Y-60852857D01*
X142350000Y-61638571D01*
X142350000Y-60852857D02*
X142278571Y-60710000D01*
X142135714Y-60638571D01*
X141921428Y-60638571D01*
X141778571Y-60710000D01*
X141707142Y-60852857D01*
X141707142Y-61638571D01*
X140421428Y-61567142D02*
X140564285Y-61638571D01*
X140850000Y-61638571D01*
X140992857Y-61567142D01*
X141064285Y-61424285D01*
X141064285Y-60852857D01*
X140992857Y-60710000D01*
X140850000Y-60638571D01*
X140564285Y-60638571D01*
X140421428Y-60710000D01*
X140350000Y-60852857D01*
X140350000Y-60995714D01*
X141064285Y-61138571D01*
X139707142Y-61638571D02*
X139707142Y-60638571D01*
X139707142Y-60781428D02*
X139635714Y-60710000D01*
X139492857Y-60638571D01*
X139278571Y-60638571D01*
X139135714Y-60710000D01*
X139064285Y-60852857D01*
X139064285Y-61638571D01*
X139064285Y-60852857D02*
X138992857Y-60710000D01*
X138850000Y-60638571D01*
X138635714Y-60638571D01*
X138492857Y-60710000D01*
X138421428Y-60852857D01*
X138421428Y-61638571D01*
X137492857Y-61638571D02*
X137635714Y-61567142D01*
X137707142Y-61495714D01*
X137778571Y-61352857D01*
X137778571Y-60924285D01*
X137707142Y-60781428D01*
X137635714Y-60710000D01*
X137492857Y-60638571D01*
X137278571Y-60638571D01*
X137135714Y-60710000D01*
X137064285Y-60781428D01*
X136992857Y-60924285D01*
X136992857Y-61352857D01*
X137064285Y-61495714D01*
X137135714Y-61567142D01*
X137278571Y-61638571D01*
X137492857Y-61638571D01*
X136350000Y-61638571D02*
X136350000Y-60638571D01*
X136350000Y-60924285D02*
X136278571Y-60781428D01*
X136207142Y-60710000D01*
X136064285Y-60638571D01*
X135921428Y-60638571D01*
X135421428Y-61638571D02*
X135421428Y-60638571D01*
X135421428Y-60138571D02*
X135492857Y-60210000D01*
X135421428Y-60281428D01*
X135350000Y-60210000D01*
X135421428Y-60138571D01*
X135421428Y-60281428D01*
X134064285Y-61638571D02*
X134064285Y-60852857D01*
X134135714Y-60710000D01*
X134278571Y-60638571D01*
X134564285Y-60638571D01*
X134707142Y-60710000D01*
X134064285Y-61567142D02*
X134207142Y-61638571D01*
X134564285Y-61638571D01*
X134707142Y-61567142D01*
X134778571Y-61424285D01*
X134778571Y-61281428D01*
X134707142Y-61138571D01*
X134564285Y-61067142D01*
X134207142Y-61067142D01*
X134064285Y-60995714D01*
X133350000Y-61638571D02*
X133350000Y-60638571D01*
X133350000Y-60781428D02*
X133278571Y-60710000D01*
X133135714Y-60638571D01*
X132921428Y-60638571D01*
X132778571Y-60710000D01*
X132707142Y-60852857D01*
X132707142Y-61638571D01*
X132707142Y-60852857D02*
X132635714Y-60710000D01*
X132492857Y-60638571D01*
X132278571Y-60638571D01*
X132135714Y-60710000D01*
X132064285Y-60852857D01*
X132064285Y-61638571D01*
X130278571Y-61210000D02*
X129564285Y-61210000D01*
X130421428Y-61638571D02*
X129921428Y-60138571D01*
X129421428Y-61638571D01*
X128921428Y-61495714D02*
X128850000Y-61567142D01*
X128921428Y-61638571D01*
X128992857Y-61567142D01*
X128921428Y-61495714D01*
X128921428Y-61638571D01*
X128278571Y-61567142D02*
X128064285Y-61638571D01*
X127707142Y-61638571D01*
X127564285Y-61567142D01*
X127492857Y-61495714D01*
X127421428Y-61352857D01*
X127421428Y-61210000D01*
X127492857Y-61067142D01*
X127564285Y-60995714D01*
X127707142Y-60924285D01*
X127992857Y-60852857D01*
X128135714Y-60781428D01*
X128207142Y-60710000D01*
X128278571Y-60567142D01*
X128278571Y-60424285D01*
X128207142Y-60281428D01*
X128135714Y-60210000D01*
X127992857Y-60138571D01*
X127635714Y-60138571D01*
X127421428Y-60210000D01*
X126778571Y-61495714D02*
X126707142Y-61567142D01*
X126778571Y-61638571D01*
X126850000Y-61567142D01*
X126778571Y-61495714D01*
X126778571Y-61638571D01*
X126064285Y-61067142D02*
X124921428Y-61067142D01*
X123421428Y-60210000D02*
X123564285Y-60138571D01*
X123778571Y-60138571D01*
X123992857Y-60210000D01*
X124135714Y-60352857D01*
X124207142Y-60495714D01*
X124278571Y-60781428D01*
X124278571Y-60995714D01*
X124207142Y-61281428D01*
X124135714Y-61424285D01*
X123992857Y-61567142D01*
X123778571Y-61638571D01*
X123635714Y-61638571D01*
X123421428Y-61567142D01*
X123350000Y-61495714D01*
X123350000Y-60995714D01*
X123635714Y-60995714D01*
X122707142Y-61495714D02*
X122635714Y-61567142D01*
X122707142Y-61638571D01*
X122778571Y-61567142D01*
X122707142Y-61495714D01*
X122707142Y-61638571D01*
X121992857Y-61638571D02*
X121992857Y-60138571D01*
X121635714Y-60138571D01*
X121421428Y-60210000D01*
X121278571Y-60352857D01*
X121207142Y-60495714D01*
X121135714Y-60781428D01*
X121135714Y-60995714D01*
X121207142Y-61281428D01*
X121278571Y-61424285D01*
X121421428Y-61567142D01*
X121635714Y-61638571D01*
X121992857Y-61638571D01*
X120492857Y-61495714D02*
X120421428Y-61567142D01*
X120492857Y-61638571D01*
X120564285Y-61567142D01*
X120492857Y-61495714D01*
X120492857Y-61638571D01*
X166055714Y-101278571D02*
X166055714Y-102778571D01*
X166055714Y-101350000D02*
X165912857Y-101278571D01*
X165627142Y-101278571D01*
X165484285Y-101350000D01*
X165412857Y-101421428D01*
X165341428Y-101564285D01*
X165341428Y-101992857D01*
X165412857Y-102135714D01*
X165484285Y-102207142D01*
X165627142Y-102278571D01*
X165912857Y-102278571D01*
X166055714Y-102207142D01*
X164484285Y-102278571D02*
X164627142Y-102207142D01*
X164698571Y-102135714D01*
X164770000Y-101992857D01*
X164770000Y-101564285D01*
X164698571Y-101421428D01*
X164627142Y-101350000D01*
X164484285Y-101278571D01*
X164270000Y-101278571D01*
X164127142Y-101350000D01*
X164055714Y-101421428D01*
X163984285Y-101564285D01*
X163984285Y-101992857D01*
X164055714Y-102135714D01*
X164127142Y-102207142D01*
X164270000Y-102278571D01*
X164484285Y-102278571D01*
X163484285Y-101278571D02*
X163198571Y-102278571D01*
X162912857Y-101564285D01*
X162627142Y-102278571D01*
X162341428Y-101278571D01*
X161198571Y-102207142D02*
X161341428Y-102278571D01*
X161627142Y-102278571D01*
X161770000Y-102207142D01*
X161841428Y-102064285D01*
X161841428Y-101492857D01*
X161770000Y-101350000D01*
X161627142Y-101278571D01*
X161341428Y-101278571D01*
X161198571Y-101350000D01*
X161127142Y-101492857D01*
X161127142Y-101635714D01*
X161841428Y-101778571D01*
X160484285Y-102278571D02*
X160484285Y-101278571D01*
X160484285Y-101564285D02*
X160412857Y-101421428D01*
X160341428Y-101350000D01*
X160198571Y-101278571D01*
X160055714Y-101278571D01*
X158984285Y-102207142D02*
X159127142Y-102278571D01*
X159412857Y-102278571D01*
X159555714Y-102207142D01*
X159627142Y-102064285D01*
X159627142Y-101492857D01*
X159555714Y-101350000D01*
X159412857Y-101278571D01*
X159127142Y-101278571D01*
X158984285Y-101350000D01*
X158912857Y-101492857D01*
X158912857Y-101635714D01*
X159627142Y-101778571D01*
X157627142Y-102278571D02*
X157627142Y-100778571D01*
X157627142Y-102207142D02*
X157770000Y-102278571D01*
X158055714Y-102278571D01*
X158198571Y-102207142D01*
X158270000Y-102135714D01*
X158341428Y-101992857D01*
X158341428Y-101564285D01*
X158270000Y-101421428D01*
X158198571Y-101350000D01*
X158055714Y-101278571D01*
X157770000Y-101278571D01*
X157627142Y-101350000D01*
X155770000Y-102278571D02*
X155770000Y-100778571D01*
X155770000Y-101350000D02*
X155627142Y-101278571D01*
X155341428Y-101278571D01*
X155198571Y-101350000D01*
X155127142Y-101421428D01*
X155055714Y-101564285D01*
X155055714Y-101992857D01*
X155127142Y-102135714D01*
X155198571Y-102207142D01*
X155341428Y-102278571D01*
X155627142Y-102278571D01*
X155770000Y-102207142D01*
X154555714Y-101278571D02*
X154198571Y-102278571D01*
X153841428Y-101278571D02*
X154198571Y-102278571D01*
X154341428Y-102635714D01*
X154412857Y-102707142D01*
X154555714Y-102778571D01*
D12*
%TO.C,AMIGALOGO*%
G36*
X151442261Y-100267633D02*
G01*
X151366872Y-100407635D01*
X151272823Y-100662898D01*
X151184295Y-100934033D01*
X151082799Y-101266241D01*
X151010253Y-101532499D01*
X150976279Y-101695814D01*
X150977680Y-101728509D01*
X151070116Y-101764932D01*
X151287179Y-101834733D01*
X151590392Y-101925798D01*
X151761158Y-101975198D01*
X152158607Y-102079591D01*
X152410548Y-102122952D01*
X152528737Y-102107038D01*
X152539706Y-102091479D01*
X152611008Y-101860605D01*
X152696390Y-101566548D01*
X152782809Y-101256746D01*
X152857224Y-100978638D01*
X152906591Y-100779660D01*
X152919333Y-100710703D01*
X152839589Y-100645300D01*
X152610809Y-100546430D01*
X152248674Y-100419901D01*
X151768866Y-100271518D01*
X151601949Y-100222928D01*
X151515212Y-100215272D01*
X151442261Y-100267633D01*
G37*
X151442261Y-100267633D02*
X151366872Y-100407635D01*
X151272823Y-100662898D01*
X151184295Y-100934033D01*
X151082799Y-101266241D01*
X151010253Y-101532499D01*
X150976279Y-101695814D01*
X150977680Y-101728509D01*
X151070116Y-101764932D01*
X151287179Y-101834733D01*
X151590392Y-101925798D01*
X151761158Y-101975198D01*
X152158607Y-102079591D01*
X152410548Y-102122952D01*
X152528737Y-102107038D01*
X152539706Y-102091479D01*
X152611008Y-101860605D01*
X152696390Y-101566548D01*
X152782809Y-101256746D01*
X152857224Y-100978638D01*
X152906591Y-100779660D01*
X152919333Y-100710703D01*
X152839589Y-100645300D01*
X152610809Y-100546430D01*
X152248674Y-100419901D01*
X151768866Y-100271518D01*
X151601949Y-100222928D01*
X151515212Y-100215272D01*
X151442261Y-100267633D01*
G36*
X141306787Y-102982153D02*
G01*
X141266621Y-103026263D01*
X141216496Y-103115355D01*
X141150961Y-103262958D01*
X141064565Y-103482601D01*
X140951855Y-103787811D01*
X140807381Y-104192118D01*
X140625690Y-104709050D01*
X140401331Y-105352136D01*
X140128851Y-106134903D01*
X139978632Y-106566333D01*
X138975966Y-109445000D01*
X138623983Y-109471034D01*
X138369632Y-109516354D01*
X138273265Y-109604512D01*
X138272000Y-109619201D01*
X138301793Y-109673701D01*
X138408336Y-109709814D01*
X138617372Y-109730839D01*
X138954646Y-109740076D01*
X139224918Y-109741333D01*
X140177835Y-109741333D01*
X140526117Y-108746500D01*
X140874399Y-107751666D01*
X143038855Y-107751666D01*
X143385927Y-108746069D01*
X143545874Y-109187090D01*
X143670075Y-109485427D01*
X143768645Y-109661402D01*
X143851700Y-109735336D01*
X143881167Y-109740902D01*
X144006165Y-109731242D01*
X144027571Y-109720166D01*
X143999198Y-109638738D01*
X143918850Y-109414774D01*
X143792528Y-109064841D01*
X143626231Y-108605500D01*
X143425961Y-108053319D01*
X143208784Y-107455333D01*
X142921078Y-107455333D01*
X141993539Y-107455333D01*
X141556294Y-107449687D01*
X141268726Y-107431281D01*
X141111509Y-107397912D01*
X141065274Y-107349500D01*
X141090318Y-107231743D01*
X141158607Y-106995921D01*
X141258899Y-106675423D01*
X141379949Y-106303639D01*
X141510515Y-105913959D01*
X141639353Y-105539772D01*
X141755220Y-105214470D01*
X141846872Y-104971442D01*
X141903066Y-104844078D01*
X141912667Y-104832952D01*
X141957647Y-104906534D01*
X142044659Y-105105737D01*
X142159407Y-105396494D01*
X142240593Y-105614331D01*
X142392449Y-106029175D01*
X142549601Y-106456340D01*
X142685287Y-106823140D01*
X142723632Y-106926166D01*
X142921078Y-107455333D01*
X143208784Y-107455333D01*
X143197717Y-107424861D01*
X142947500Y-106736690D01*
X142808483Y-106354666D01*
X142502501Y-105517024D01*
X142247285Y-104825946D01*
X142037414Y-104268256D01*
X141867468Y-103830777D01*
X141732026Y-103500333D01*
X141625669Y-103263748D01*
X141542976Y-103107846D01*
X141478527Y-103019451D01*
X141426901Y-102985385D01*
X141422056Y-102984432D01*
X141379053Y-102974766D01*
X141342448Y-102969497D01*
X141306787Y-102982153D01*
G37*
X141306787Y-102982153D02*
X141266621Y-103026263D01*
X141216496Y-103115355D01*
X141150961Y-103262958D01*
X141064565Y-103482601D01*
X140951855Y-103787811D01*
X140807381Y-104192118D01*
X140625690Y-104709050D01*
X140401331Y-105352136D01*
X140128851Y-106134903D01*
X139978632Y-106566333D01*
X138975966Y-109445000D01*
X138623983Y-109471034D01*
X138369632Y-109516354D01*
X138273265Y-109604512D01*
X138272000Y-109619201D01*
X138301793Y-109673701D01*
X138408336Y-109709814D01*
X138617372Y-109730839D01*
X138954646Y-109740076D01*
X139224918Y-109741333D01*
X140177835Y-109741333D01*
X140526117Y-108746500D01*
X140874399Y-107751666D01*
X143038855Y-107751666D01*
X143385927Y-108746069D01*
X143545874Y-109187090D01*
X143670075Y-109485427D01*
X143768645Y-109661402D01*
X143851700Y-109735336D01*
X143881167Y-109740902D01*
X144006165Y-109731242D01*
X144027571Y-109720166D01*
X143999198Y-109638738D01*
X143918850Y-109414774D01*
X143792528Y-109064841D01*
X143626231Y-108605500D01*
X143425961Y-108053319D01*
X143208784Y-107455333D01*
X142921078Y-107455333D01*
X141993539Y-107455333D01*
X141556294Y-107449687D01*
X141268726Y-107431281D01*
X141111509Y-107397912D01*
X141065274Y-107349500D01*
X141090318Y-107231743D01*
X141158607Y-106995921D01*
X141258899Y-106675423D01*
X141379949Y-106303639D01*
X141510515Y-105913959D01*
X141639353Y-105539772D01*
X141755220Y-105214470D01*
X141846872Y-104971442D01*
X141903066Y-104844078D01*
X141912667Y-104832952D01*
X141957647Y-104906534D01*
X142044659Y-105105737D01*
X142159407Y-105396494D01*
X142240593Y-105614331D01*
X142392449Y-106029175D01*
X142549601Y-106456340D01*
X142685287Y-106823140D01*
X142723632Y-106926166D01*
X142921078Y-107455333D01*
X143208784Y-107455333D01*
X143197717Y-107424861D01*
X142947500Y-106736690D01*
X142808483Y-106354666D01*
X142502501Y-105517024D01*
X142247285Y-104825946D01*
X142037414Y-104268256D01*
X141867468Y-103830777D01*
X141732026Y-103500333D01*
X141625669Y-103263748D01*
X141542976Y-103107846D01*
X141478527Y-103019451D01*
X141426901Y-102985385D01*
X141422056Y-102984432D01*
X141379053Y-102974766D01*
X141342448Y-102969497D01*
X141306787Y-102982153D01*
G36*
X151190140Y-103140167D02*
G01*
X150876187Y-103150599D01*
X150681388Y-103171523D01*
X150580684Y-103205832D01*
X150549019Y-103256421D01*
X150548667Y-103264333D01*
X150587617Y-103338009D01*
X150725725Y-103377603D01*
X150994875Y-103391069D01*
X151057736Y-103391333D01*
X151566806Y-103391333D01*
X151544570Y-106418166D01*
X151522333Y-109445000D01*
X151035500Y-109470391D01*
X150738962Y-109499047D01*
X150585560Y-109550900D01*
X150548667Y-109618558D01*
X150572535Y-109662590D01*
X150658143Y-109694998D01*
X150826490Y-109717428D01*
X151098579Y-109731525D01*
X151495411Y-109738937D01*
X152037988Y-109741309D01*
X152115000Y-109741333D01*
X152676887Y-109739454D01*
X153090451Y-109732724D01*
X153376670Y-109719501D01*
X153556525Y-109698143D01*
X153650994Y-109667008D01*
X153681057Y-109624455D01*
X153681333Y-109618757D01*
X153623720Y-109537289D01*
X153435571Y-109488341D01*
X153236833Y-109470591D01*
X152792333Y-109445000D01*
X152770136Y-106291166D01*
X152747939Y-103137333D01*
X151648303Y-103137333D01*
X151190140Y-103140167D01*
G37*
X151190140Y-103140167D02*
X150876187Y-103150599D01*
X150681388Y-103171523D01*
X150580684Y-103205832D01*
X150549019Y-103256421D01*
X150548667Y-103264333D01*
X150587617Y-103338009D01*
X150725725Y-103377603D01*
X150994875Y-103391069D01*
X151057736Y-103391333D01*
X151566806Y-103391333D01*
X151544570Y-106418166D01*
X151522333Y-109445000D01*
X151035500Y-109470391D01*
X150738962Y-109499047D01*
X150585560Y-109550900D01*
X150548667Y-109618558D01*
X150572535Y-109662590D01*
X150658143Y-109694998D01*
X150826490Y-109717428D01*
X151098579Y-109731525D01*
X151495411Y-109738937D01*
X152037988Y-109741309D01*
X152115000Y-109741333D01*
X152676887Y-109739454D01*
X153090451Y-109732724D01*
X153376670Y-109719501D01*
X153556525Y-109698143D01*
X153650994Y-109667008D01*
X153681057Y-109624455D01*
X153681333Y-109618757D01*
X153623720Y-109537289D01*
X153435571Y-109488341D01*
X153236833Y-109470591D01*
X152792333Y-109445000D01*
X152770136Y-106291166D01*
X152747939Y-103137333D01*
X151648303Y-103137333D01*
X151190140Y-103140167D01*
G36*
X155036000Y-109487333D02*
G01*
X154570333Y-109487333D01*
X154289509Y-109498735D01*
X154144928Y-109538743D01*
X154104667Y-109614333D01*
X154129196Y-109667226D01*
X154219484Y-109703478D01*
X154400576Y-109725980D01*
X154697520Y-109737620D01*
X155135364Y-109741290D01*
X155205333Y-109741333D01*
X156306000Y-109741333D01*
X156306000Y-106679222D01*
X156307044Y-105980111D01*
X156310017Y-105339218D01*
X156314676Y-104775070D01*
X156320780Y-104306195D01*
X156328089Y-103951118D01*
X156336362Y-103728367D01*
X156345334Y-103656445D01*
X156379308Y-103743253D01*
X156458924Y-103973337D01*
X156578227Y-104328689D01*
X156731263Y-104791303D01*
X156912078Y-105343174D01*
X157114719Y-105966293D01*
X157333231Y-106642656D01*
X157350854Y-106697389D01*
X157605591Y-107485556D01*
X157815584Y-108126651D01*
X157986336Y-108635311D01*
X158123349Y-109026171D01*
X158232127Y-109313866D01*
X158318173Y-109513033D01*
X158386988Y-109638306D01*
X158444075Y-109704321D01*
X158489204Y-109725052D01*
X158554677Y-109719421D01*
X158617994Y-109667681D01*
X158688258Y-109549158D01*
X158774571Y-109343176D01*
X158886034Y-109029060D01*
X159031752Y-108586134D01*
X159141501Y-108243386D01*
X159341342Y-107617727D01*
X159570732Y-106902584D01*
X159806684Y-106169450D01*
X160026207Y-105489817D01*
X160116370Y-105211666D01*
X160611108Y-103687666D01*
X160617554Y-106714500D01*
X160619495Y-107509548D01*
X160622215Y-108151605D01*
X160626663Y-108657011D01*
X160633789Y-109042107D01*
X160644540Y-109323235D01*
X160659867Y-109516735D01*
X160680717Y-109638948D01*
X160708041Y-109706217D01*
X160742787Y-109734881D01*
X160785903Y-109741283D01*
X160793333Y-109741333D01*
X160836889Y-109737109D01*
X160872253Y-109713792D01*
X160900280Y-109655414D01*
X160921822Y-109546008D01*
X160937732Y-109369607D01*
X160948862Y-109110243D01*
X160956066Y-108751948D01*
X160960195Y-108278755D01*
X160962103Y-107674698D01*
X160962643Y-106923807D01*
X160962667Y-106570558D01*
X160962667Y-103399783D01*
X161442811Y-103374391D01*
X161737912Y-103340970D01*
X161919354Y-103282722D01*
X161957867Y-103243166D01*
X161933200Y-103201070D01*
X161814664Y-103170997D01*
X161583576Y-103151389D01*
X161221255Y-103140688D01*
X160709016Y-103137336D01*
X160688688Y-103137333D01*
X159384599Y-103137333D01*
X158019557Y-107582333D01*
X157306841Y-105381000D01*
X156594125Y-103179666D01*
X155815063Y-103155322D01*
X155036000Y-103130978D01*
X155036000Y-109487333D01*
G37*
X155036000Y-109487333D02*
X154570333Y-109487333D01*
X154289509Y-109498735D01*
X154144928Y-109538743D01*
X154104667Y-109614333D01*
X154129196Y-109667226D01*
X154219484Y-109703478D01*
X154400576Y-109725980D01*
X154697520Y-109737620D01*
X155135364Y-109741290D01*
X155205333Y-109741333D01*
X156306000Y-109741333D01*
X156306000Y-106679222D01*
X156307044Y-105980111D01*
X156310017Y-105339218D01*
X156314676Y-104775070D01*
X156320780Y-104306195D01*
X156328089Y-103951118D01*
X156336362Y-103728367D01*
X156345334Y-103656445D01*
X156379308Y-103743253D01*
X156458924Y-103973337D01*
X156578227Y-104328689D01*
X156731263Y-104791303D01*
X156912078Y-105343174D01*
X157114719Y-105966293D01*
X157333231Y-106642656D01*
X157350854Y-106697389D01*
X157605591Y-107485556D01*
X157815584Y-108126651D01*
X157986336Y-108635311D01*
X158123349Y-109026171D01*
X158232127Y-109313866D01*
X158318173Y-109513033D01*
X158386988Y-109638306D01*
X158444075Y-109704321D01*
X158489204Y-109725052D01*
X158554677Y-109719421D01*
X158617994Y-109667681D01*
X158688258Y-109549158D01*
X158774571Y-109343176D01*
X158886034Y-109029060D01*
X159031752Y-108586134D01*
X159141501Y-108243386D01*
X159341342Y-107617727D01*
X159570732Y-106902584D01*
X159806684Y-106169450D01*
X160026207Y-105489817D01*
X160116370Y-105211666D01*
X160611108Y-103687666D01*
X160617554Y-106714500D01*
X160619495Y-107509548D01*
X160622215Y-108151605D01*
X160626663Y-108657011D01*
X160633789Y-109042107D01*
X160644540Y-109323235D01*
X160659867Y-109516735D01*
X160680717Y-109638948D01*
X160708041Y-109706217D01*
X160742787Y-109734881D01*
X160785903Y-109741283D01*
X160793333Y-109741333D01*
X160836889Y-109737109D01*
X160872253Y-109713792D01*
X160900280Y-109655414D01*
X160921822Y-109546008D01*
X160937732Y-109369607D01*
X160948862Y-109110243D01*
X160956066Y-108751948D01*
X160960195Y-108278755D01*
X160962103Y-107674698D01*
X160962643Y-106923807D01*
X160962667Y-106570558D01*
X160962667Y-103399783D01*
X161442811Y-103374391D01*
X161737912Y-103340970D01*
X161919354Y-103282722D01*
X161957867Y-103243166D01*
X161933200Y-103201070D01*
X161814664Y-103170997D01*
X161583576Y-103151389D01*
X161221255Y-103140688D01*
X160709016Y-103137336D01*
X160688688Y-103137333D01*
X159384599Y-103137333D01*
X158019557Y-107582333D01*
X157306841Y-105381000D01*
X156594125Y-103179666D01*
X155815063Y-103155322D01*
X155036000Y-103130978D01*
X155036000Y-109487333D01*
G36*
X164469574Y-102991868D02*
G01*
X164397607Y-103052708D01*
X164317009Y-103190521D01*
X164215790Y-103428574D01*
X164081962Y-103790133D01*
X163977748Y-104085398D01*
X163836353Y-104489917D01*
X163652583Y-105015823D01*
X163439882Y-105624635D01*
X163211695Y-106277869D01*
X162981465Y-106937045D01*
X162844818Y-107328333D01*
X162105667Y-109445000D01*
X161745833Y-109471034D01*
X161488941Y-109514849D01*
X161388233Y-109599844D01*
X161386000Y-109619201D01*
X161415742Y-109673616D01*
X161522108Y-109709706D01*
X161730807Y-109730752D01*
X162067549Y-109740039D01*
X162342326Y-109741333D01*
X163298651Y-109741333D01*
X163665900Y-108722887D01*
X164033149Y-107704442D01*
X165099957Y-107728054D01*
X166166764Y-107751666D01*
X166515547Y-108725333D01*
X166692242Y-109193138D01*
X166833598Y-109508388D01*
X166945411Y-109682790D01*
X167012007Y-109727949D01*
X167117955Y-109713578D01*
X167110100Y-109600949D01*
X167071048Y-109489364D01*
X166980464Y-109236531D01*
X166844805Y-108860293D01*
X166670528Y-108378497D01*
X166464091Y-107808987D01*
X166335690Y-107455333D01*
X166037625Y-107455333D01*
X165108813Y-107455333D01*
X164735118Y-107449944D01*
X164433266Y-107435333D01*
X164237475Y-107413836D01*
X164180000Y-107391933D01*
X164206157Y-107279794D01*
X164276756Y-107044793D01*
X164379992Y-106721842D01*
X164504056Y-106345851D01*
X164637143Y-105951733D01*
X164767446Y-105574399D01*
X164883158Y-105248759D01*
X164972473Y-105009724D01*
X165023583Y-104892207D01*
X165026988Y-104887472D01*
X165088843Y-104916194D01*
X165174043Y-105068344D01*
X165219368Y-105183806D01*
X165300513Y-105412589D01*
X165421956Y-105751768D01*
X165566193Y-106152576D01*
X165692753Y-106502833D01*
X166037625Y-107455333D01*
X166335690Y-107455333D01*
X166231952Y-107169609D01*
X165980569Y-106478207D01*
X165889392Y-106227666D01*
X165590998Y-105410798D01*
X165343202Y-104739976D01*
X165140339Y-104201534D01*
X164976743Y-103781806D01*
X164846748Y-103467126D01*
X164744688Y-103243828D01*
X164664897Y-103098245D01*
X164601709Y-103016711D01*
X164549459Y-102985561D01*
X164544898Y-102984732D01*
X164469574Y-102991868D01*
G37*
X164469574Y-102991868D02*
X164397607Y-103052708D01*
X164317009Y-103190521D01*
X164215790Y-103428574D01*
X164081962Y-103790133D01*
X163977748Y-104085398D01*
X163836353Y-104489917D01*
X163652583Y-105015823D01*
X163439882Y-105624635D01*
X163211695Y-106277869D01*
X162981465Y-106937045D01*
X162844818Y-107328333D01*
X162105667Y-109445000D01*
X161745833Y-109471034D01*
X161488941Y-109514849D01*
X161388233Y-109599844D01*
X161386000Y-109619201D01*
X161415742Y-109673616D01*
X161522108Y-109709706D01*
X161730807Y-109730752D01*
X162067549Y-109740039D01*
X162342326Y-109741333D01*
X163298651Y-109741333D01*
X163665900Y-108722887D01*
X164033149Y-107704442D01*
X165099957Y-107728054D01*
X166166764Y-107751666D01*
X166515547Y-108725333D01*
X166692242Y-109193138D01*
X166833598Y-109508388D01*
X166945411Y-109682790D01*
X167012007Y-109727949D01*
X167117955Y-109713578D01*
X167110100Y-109600949D01*
X167071048Y-109489364D01*
X166980464Y-109236531D01*
X166844805Y-108860293D01*
X166670528Y-108378497D01*
X166464091Y-107808987D01*
X166335690Y-107455333D01*
X166037625Y-107455333D01*
X165108813Y-107455333D01*
X164735118Y-107449944D01*
X164433266Y-107435333D01*
X164237475Y-107413836D01*
X164180000Y-107391933D01*
X164206157Y-107279794D01*
X164276756Y-107044793D01*
X164379992Y-106721842D01*
X164504056Y-106345851D01*
X164637143Y-105951733D01*
X164767446Y-105574399D01*
X164883158Y-105248759D01*
X164972473Y-105009724D01*
X165023583Y-104892207D01*
X165026988Y-104887472D01*
X165088843Y-104916194D01*
X165174043Y-105068344D01*
X165219368Y-105183806D01*
X165300513Y-105412589D01*
X165421956Y-105751768D01*
X165566193Y-106152576D01*
X165692753Y-106502833D01*
X166037625Y-107455333D01*
X166335690Y-107455333D01*
X166231952Y-107169609D01*
X165980569Y-106478207D01*
X165889392Y-106227666D01*
X165590998Y-105410798D01*
X165343202Y-104739976D01*
X165140339Y-104201534D01*
X164976743Y-103781806D01*
X164846748Y-103467126D01*
X164744688Y-103243828D01*
X164664897Y-103098245D01*
X164601709Y-103016711D01*
X164549459Y-102985561D01*
X164544898Y-102984732D01*
X164469574Y-102991868D01*
G36*
X146373377Y-102998600D02*
G01*
X145729083Y-103130930D01*
X145130545Y-103368773D01*
X144953471Y-103467998D01*
X144821464Y-103555671D01*
X144742988Y-103648976D01*
X144704086Y-103791490D01*
X144690804Y-104026792D01*
X144689258Y-104293026D01*
X144693074Y-104628440D01*
X144710974Y-104830370D01*
X144751742Y-104934580D01*
X144824164Y-104976837D01*
X144858901Y-104983653D01*
X144986652Y-104961581D01*
X145081362Y-104824902D01*
X145131238Y-104687319D01*
X145379527Y-104107554D01*
X145709314Y-103669402D01*
X146115537Y-103377276D01*
X146593136Y-103235587D01*
X146812325Y-103222000D01*
X147312112Y-103275192D01*
X147715960Y-103446150D01*
X148064068Y-103751940D01*
X148066225Y-103754394D01*
X148211104Y-103944373D01*
X148323099Y-104159350D01*
X148405567Y-104421907D01*
X148461865Y-104754631D01*
X148495350Y-105180103D01*
X148509378Y-105720909D01*
X148507308Y-106399632D01*
X148503083Y-106693333D01*
X148492491Y-107280718D01*
X148480816Y-107725369D01*
X148465033Y-108053876D01*
X148442118Y-108292827D01*
X148409045Y-108468811D01*
X148362791Y-108608416D01*
X148300329Y-108738232D01*
X148262667Y-108806723D01*
X147974792Y-109203828D01*
X147629079Y-109450261D01*
X147199383Y-109561688D01*
X146985658Y-109572000D01*
X146507258Y-109536387D01*
X146158130Y-109417951D01*
X145922305Y-109199295D01*
X145783819Y-108863021D01*
X145726704Y-108391732D01*
X145722983Y-108196166D01*
X145722667Y-107540000D01*
X146230667Y-107540000D01*
X146525639Y-107530246D01*
X146684009Y-107495671D01*
X146737665Y-107428302D01*
X146738667Y-107413000D01*
X146715298Y-107362555D01*
X146629262Y-107327151D01*
X146456670Y-107304317D01*
X146173630Y-107291580D01*
X145756250Y-107286470D01*
X145511000Y-107286000D01*
X144283333Y-107286000D01*
X144283333Y-107566966D01*
X144338114Y-107999975D01*
X144483465Y-108458335D01*
X144690902Y-108860876D01*
X144779965Y-108982179D01*
X144998263Y-109193732D01*
X145290857Y-109413204D01*
X145480897Y-109529403D01*
X145723573Y-109651035D01*
X145947484Y-109727980D01*
X146207965Y-109772236D01*
X146560352Y-109795800D01*
X146738667Y-109802095D01*
X147170017Y-109806880D01*
X147489715Y-109785663D01*
X147754352Y-109731610D01*
X147986911Y-109651341D01*
X148491691Y-109375424D01*
X148972289Y-108972275D01*
X149385996Y-108482980D01*
X149636459Y-108064545D01*
X149754375Y-107816672D01*
X149833031Y-107612210D01*
X149880354Y-107405943D01*
X149904273Y-107152656D01*
X149912718Y-106807134D01*
X149913667Y-106483675D01*
X149911129Y-106043744D01*
X149898325Y-105727311D01*
X149867471Y-105488561D01*
X149810784Y-105281678D01*
X149720480Y-105060843D01*
X149644005Y-104896424D01*
X149277071Y-104279424D01*
X148811278Y-103745525D01*
X148281322Y-103332915D01*
X148158872Y-103261831D01*
X147630463Y-103061337D01*
X147021234Y-102974498D01*
X146373377Y-102998600D01*
G37*
X146373377Y-102998600D02*
X145729083Y-103130930D01*
X145130545Y-103368773D01*
X144953471Y-103467998D01*
X144821464Y-103555671D01*
X144742988Y-103648976D01*
X144704086Y-103791490D01*
X144690804Y-104026792D01*
X144689258Y-104293026D01*
X144693074Y-104628440D01*
X144710974Y-104830370D01*
X144751742Y-104934580D01*
X144824164Y-104976837D01*
X144858901Y-104983653D01*
X144986652Y-104961581D01*
X145081362Y-104824902D01*
X145131238Y-104687319D01*
X145379527Y-104107554D01*
X145709314Y-103669402D01*
X146115537Y-103377276D01*
X146593136Y-103235587D01*
X146812325Y-103222000D01*
X147312112Y-103275192D01*
X147715960Y-103446150D01*
X148064068Y-103751940D01*
X148066225Y-103754394D01*
X148211104Y-103944373D01*
X148323099Y-104159350D01*
X148405567Y-104421907D01*
X148461865Y-104754631D01*
X148495350Y-105180103D01*
X148509378Y-105720909D01*
X148507308Y-106399632D01*
X148503083Y-106693333D01*
X148492491Y-107280718D01*
X148480816Y-107725369D01*
X148465033Y-108053876D01*
X148442118Y-108292827D01*
X148409045Y-108468811D01*
X148362791Y-108608416D01*
X148300329Y-108738232D01*
X148262667Y-108806723D01*
X147974792Y-109203828D01*
X147629079Y-109450261D01*
X147199383Y-109561688D01*
X146985658Y-109572000D01*
X146507258Y-109536387D01*
X146158130Y-109417951D01*
X145922305Y-109199295D01*
X145783819Y-108863021D01*
X145726704Y-108391732D01*
X145722983Y-108196166D01*
X145722667Y-107540000D01*
X146230667Y-107540000D01*
X146525639Y-107530246D01*
X146684009Y-107495671D01*
X146737665Y-107428302D01*
X146738667Y-107413000D01*
X146715298Y-107362555D01*
X146629262Y-107327151D01*
X146456670Y-107304317D01*
X146173630Y-107291580D01*
X145756250Y-107286470D01*
X145511000Y-107286000D01*
X144283333Y-107286000D01*
X144283333Y-107566966D01*
X144338114Y-107999975D01*
X144483465Y-108458335D01*
X144690902Y-108860876D01*
X144779965Y-108982179D01*
X144998263Y-109193732D01*
X145290857Y-109413204D01*
X145480897Y-109529403D01*
X145723573Y-109651035D01*
X145947484Y-109727980D01*
X146207965Y-109772236D01*
X146560352Y-109795800D01*
X146738667Y-109802095D01*
X147170017Y-109806880D01*
X147489715Y-109785663D01*
X147754352Y-109731610D01*
X147986911Y-109651341D01*
X148491691Y-109375424D01*
X148972289Y-108972275D01*
X149385996Y-108482980D01*
X149636459Y-108064545D01*
X149754375Y-107816672D01*
X149833031Y-107612210D01*
X149880354Y-107405943D01*
X149904273Y-107152656D01*
X149912718Y-106807134D01*
X149913667Y-106483675D01*
X149911129Y-106043744D01*
X149898325Y-105727311D01*
X149867471Y-105488561D01*
X149810784Y-105281678D01*
X149720480Y-105060843D01*
X149644005Y-104896424D01*
X149277071Y-104279424D01*
X148811278Y-103745525D01*
X148281322Y-103332915D01*
X148158872Y-103261831D01*
X147630463Y-103061337D01*
X147021234Y-102974498D01*
X146373377Y-102998600D01*
%TO.C,WBLOGO*%
G36*
X178593333Y-65938571D02*
G01*
X179355291Y-65922333D01*
X179355311Y-65202667D01*
X179186000Y-65202667D01*
X179182887Y-65512302D01*
X179164764Y-65689513D01*
X179118453Y-65771198D01*
X179030774Y-65794254D01*
X178974333Y-65795333D01*
X178863749Y-65786618D01*
X178800459Y-65735873D01*
X178771286Y-65606201D01*
X178763052Y-65360702D01*
X178762666Y-65202667D01*
X178765779Y-64893031D01*
X178783902Y-64715820D01*
X178830214Y-64634135D01*
X178917892Y-64611079D01*
X178974333Y-64610000D01*
X179084917Y-64618715D01*
X179148207Y-64669460D01*
X179177380Y-64799132D01*
X179185614Y-65044631D01*
X179186000Y-65202667D01*
X179355311Y-65202667D01*
X179355333Y-64440667D01*
X178593333Y-64440667D01*
X178593333Y-65938571D01*
G37*
X178593333Y-65938571D02*
X179355291Y-65922333D01*
X179355311Y-65202667D01*
X179186000Y-65202667D01*
X179182887Y-65512302D01*
X179164764Y-65689513D01*
X179118453Y-65771198D01*
X179030774Y-65794254D01*
X178974333Y-65795333D01*
X178863749Y-65786618D01*
X178800459Y-65735873D01*
X178771286Y-65606201D01*
X178763052Y-65360702D01*
X178762666Y-65202667D01*
X178765779Y-64893031D01*
X178783902Y-64715820D01*
X178830214Y-64634135D01*
X178917892Y-64611079D01*
X178974333Y-64610000D01*
X179084917Y-64618715D01*
X179148207Y-64669460D01*
X179177380Y-64799132D01*
X179185614Y-65044631D01*
X179186000Y-65202667D01*
X179355311Y-65202667D01*
X179355333Y-64440667D01*
X178593333Y-64440667D01*
X178593333Y-65938571D01*
G36*
X177342054Y-75258646D02*
G01*
X177338292Y-75334484D01*
X177417060Y-75476365D01*
X177539437Y-75515431D01*
X177597958Y-75483153D01*
X177622266Y-75364155D01*
X177546660Y-75240740D01*
X177435067Y-75193333D01*
X177342054Y-75258646D01*
G37*
X177342054Y-75258646D02*
X177338292Y-75334484D01*
X177417060Y-75476365D01*
X177539437Y-75515431D01*
X177597958Y-75483153D01*
X177622266Y-75364155D01*
X177546660Y-75240740D01*
X177435067Y-75193333D01*
X177342054Y-75258646D01*
G36*
X184369732Y-75256812D02*
G01*
X184365625Y-75334484D01*
X184436329Y-75475614D01*
X184534157Y-75507148D01*
X184599993Y-75420369D01*
X184604666Y-75369722D01*
X184550881Y-75224174D01*
X184471458Y-75193333D01*
X184369732Y-75256812D01*
G37*
X184369732Y-75256812D02*
X184365625Y-75334484D01*
X184436329Y-75475614D01*
X184534157Y-75507148D01*
X184599993Y-75420369D01*
X184604666Y-75369722D01*
X184550881Y-75224174D01*
X184471458Y-75193333D01*
X184369732Y-75256812D01*
G36*
X174587736Y-63478095D02*
G01*
X174459161Y-63581429D01*
X174348364Y-63714815D01*
X174340373Y-63806585D01*
X174329105Y-63839276D01*
X174249769Y-63820126D01*
X174145626Y-63807284D01*
X174148933Y-63848970D01*
X174141294Y-63926288D01*
X174110997Y-63932667D01*
X174024779Y-63994127D01*
X174021333Y-64017333D01*
X174064849Y-64094436D01*
X174194982Y-64026682D01*
X174364135Y-63865089D01*
X174561140Y-63642096D01*
X174667392Y-63493367D01*
X174677915Y-63433751D01*
X174587736Y-63478095D01*
G37*
X174587736Y-63478095D02*
X174459161Y-63581429D01*
X174348364Y-63714815D01*
X174340373Y-63806585D01*
X174329105Y-63839276D01*
X174249769Y-63820126D01*
X174145626Y-63807284D01*
X174148933Y-63848970D01*
X174141294Y-63926288D01*
X174110997Y-63932667D01*
X174024779Y-63994127D01*
X174021333Y-64017333D01*
X174064849Y-64094436D01*
X174194982Y-64026682D01*
X174364135Y-63865089D01*
X174561140Y-63642096D01*
X174667392Y-63493367D01*
X174677915Y-63433751D01*
X174587736Y-63478095D01*
G36*
X173345168Y-64677379D02*
G01*
X173313382Y-64737000D01*
X173314911Y-64849527D01*
X173406508Y-64847350D01*
X173456889Y-64807555D01*
X173511439Y-64690756D01*
X173462469Y-64613483D01*
X173437725Y-64610000D01*
X173345168Y-64677379D01*
G37*
X173345168Y-64677379D02*
X173313382Y-64737000D01*
X173314911Y-64849527D01*
X173406508Y-64847350D01*
X173456889Y-64807555D01*
X173511439Y-64690756D01*
X173462469Y-64613483D01*
X173437725Y-64610000D01*
X173345168Y-64677379D01*
G36*
X181408500Y-63783628D02*
G01*
X177619666Y-63805667D01*
X177619666Y-66769000D01*
X181408500Y-66791038D01*
X185197333Y-66813076D01*
X185197333Y-65161839D01*
X179948000Y-65161839D01*
X179948000Y-65163775D01*
X179943525Y-65560767D01*
X179931396Y-65903449D01*
X179913554Y-66151360D01*
X179895515Y-66256925D01*
X179847379Y-66319504D01*
X179740722Y-66357542D01*
X179544531Y-66374882D01*
X179227793Y-66375366D01*
X178985348Y-66369683D01*
X178127666Y-66345667D01*
X178127666Y-64059667D01*
X178919360Y-64035210D01*
X179369149Y-64033359D01*
X179677694Y-64058968D01*
X179829527Y-64109077D01*
X179885428Y-64204093D01*
X179921985Y-64395007D01*
X179941931Y-64706147D01*
X179948000Y-65161839D01*
X185197333Y-65161839D01*
X185197333Y-63761590D01*
X181408500Y-63783628D01*
G37*
X181408500Y-63783628D02*
X177619666Y-63805667D01*
X177619666Y-66769000D01*
X181408500Y-66791038D01*
X185197333Y-66813076D01*
X185197333Y-65161839D01*
X179948000Y-65161839D01*
X179948000Y-65163775D01*
X179943525Y-65560767D01*
X179931396Y-65903449D01*
X179913554Y-66151360D01*
X179895515Y-66256925D01*
X179847379Y-66319504D01*
X179740722Y-66357542D01*
X179544531Y-66374882D01*
X179227793Y-66375366D01*
X178985348Y-66369683D01*
X178127666Y-66345667D01*
X178127666Y-64059667D01*
X178919360Y-64035210D01*
X179369149Y-64033359D01*
X179677694Y-64058968D01*
X179829527Y-64109077D01*
X179885428Y-64204093D01*
X179921985Y-64395007D01*
X179941931Y-64706147D01*
X179948000Y-65161839D01*
X185197333Y-65161839D01*
X185197333Y-63761590D01*
X181408500Y-63783628D01*
G36*
X185842945Y-63930849D02*
G01*
X185818141Y-64172366D01*
X185800808Y-64562003D01*
X185791501Y-65089215D01*
X185790000Y-65456667D01*
X185794360Y-66059369D01*
X185807072Y-66530657D01*
X185827579Y-66859986D01*
X185855327Y-67036809D01*
X185874666Y-67065333D01*
X185906388Y-66982484D01*
X185931192Y-66740967D01*
X185948525Y-66351330D01*
X185957832Y-65824118D01*
X185959333Y-65456667D01*
X185954973Y-64853964D01*
X185942261Y-64382676D01*
X185921754Y-64053347D01*
X185894006Y-63876524D01*
X185874666Y-63848000D01*
X185842945Y-63930849D01*
G37*
X185842945Y-63930849D02*
X185818141Y-64172366D01*
X185800808Y-64562003D01*
X185791501Y-65089215D01*
X185790000Y-65456667D01*
X185794360Y-66059369D01*
X185807072Y-66530657D01*
X185827579Y-66859986D01*
X185855327Y-67036809D01*
X185874666Y-67065333D01*
X185906388Y-66982484D01*
X185931192Y-66740967D01*
X185948525Y-66351330D01*
X185957832Y-65824118D01*
X185959333Y-65456667D01*
X185954973Y-64853964D01*
X185942261Y-64382676D01*
X185921754Y-64053347D01*
X185894006Y-63876524D01*
X185874666Y-63848000D01*
X185842945Y-63930849D01*
G36*
X180168373Y-67248911D02*
G01*
X179405126Y-67254611D01*
X179285936Y-67255915D01*
X178971068Y-67260415D01*
X178818588Y-67264642D01*
X178821554Y-67268517D01*
X178973019Y-67271963D01*
X179266040Y-67274902D01*
X179693673Y-67277255D01*
X180248973Y-67278943D01*
X180924996Y-67279889D01*
X181429666Y-67280069D01*
X182179136Y-67279642D01*
X182810963Y-67278426D01*
X183318405Y-67276497D01*
X183694719Y-67273934D01*
X183933162Y-67270816D01*
X184026989Y-67267219D01*
X183969460Y-67263222D01*
X183753829Y-67258903D01*
X183519269Y-67255887D01*
X182765145Y-67249676D01*
X181912525Y-67246443D01*
X181025554Y-67246188D01*
X180168373Y-67248911D01*
G37*
X180168373Y-67248911D02*
X179405126Y-67254611D01*
X179285936Y-67255915D01*
X178971068Y-67260415D01*
X178818588Y-67264642D01*
X178821554Y-67268517D01*
X178973019Y-67271963D01*
X179266040Y-67274902D01*
X179693673Y-67277255D01*
X180248973Y-67278943D01*
X180924996Y-67279889D01*
X181429666Y-67280069D01*
X182179136Y-67279642D01*
X182810963Y-67278426D01*
X183318405Y-67276497D01*
X183694719Y-67273934D01*
X183933162Y-67270816D01*
X184026989Y-67267219D01*
X183969460Y-67263222D01*
X183753829Y-67258903D01*
X183519269Y-67255887D01*
X182765145Y-67249676D01*
X181912525Y-67246443D01*
X181025554Y-67246188D01*
X180168373Y-67248911D01*
G36*
X189897180Y-64485960D02*
G01*
X189891076Y-64761988D01*
X189885165Y-65164909D01*
X189879656Y-65684114D01*
X189874757Y-66308993D01*
X189872571Y-66663167D01*
X189870038Y-67389757D01*
X189870746Y-68060514D01*
X189874446Y-68657230D01*
X189880887Y-69161695D01*
X189889822Y-69555702D01*
X189901000Y-69821042D01*
X189914172Y-69939506D01*
X189917500Y-69944063D01*
X189933960Y-69863184D01*
X189947157Y-69635548D01*
X189956647Y-69283706D01*
X189961988Y-68830211D01*
X189962736Y-68297614D01*
X189959498Y-67806230D01*
X189952282Y-67139577D01*
X189943964Y-66454739D01*
X189935115Y-65793564D01*
X189926309Y-65197898D01*
X189918119Y-64709590D01*
X189914569Y-64525333D01*
X189909135Y-64357023D01*
X189903269Y-64347435D01*
X189897180Y-64485960D01*
G37*
X189897180Y-64485960D02*
X189891076Y-64761988D01*
X189885165Y-65164909D01*
X189879656Y-65684114D01*
X189874757Y-66308993D01*
X189872571Y-66663167D01*
X189870038Y-67389757D01*
X189870746Y-68060514D01*
X189874446Y-68657230D01*
X189880887Y-69161695D01*
X189889822Y-69555702D01*
X189901000Y-69821042D01*
X189914172Y-69939506D01*
X189917500Y-69944063D01*
X189933960Y-69863184D01*
X189947157Y-69635548D01*
X189956647Y-69283706D01*
X189961988Y-68830211D01*
X189962736Y-68297614D01*
X189959498Y-67806230D01*
X189952282Y-67139577D01*
X189943964Y-66454739D01*
X189935115Y-65793564D01*
X189926309Y-65197898D01*
X189918119Y-64709590D01*
X189914569Y-64525333D01*
X189909135Y-64357023D01*
X189903269Y-64347435D01*
X189897180Y-64485960D01*
G36*
X189553743Y-63463142D02*
G01*
X189534229Y-63584255D01*
X189518326Y-63796441D01*
X189505955Y-64108151D01*
X189497037Y-64527835D01*
X189491494Y-65063944D01*
X189489248Y-65724930D01*
X189490220Y-66519241D01*
X189494333Y-67455330D01*
X189501508Y-68541647D01*
X189511666Y-69786642D01*
X189514760Y-70134500D01*
X189582614Y-70193642D01*
X189621166Y-70198029D01*
X189648465Y-70164478D01*
X189670358Y-70055256D01*
X189687159Y-69857537D01*
X189699183Y-69558493D01*
X189706742Y-69145296D01*
X189710150Y-68605121D01*
X189709721Y-67925139D01*
X189705769Y-67092524D01*
X189703944Y-66811363D01*
X189696722Y-65922145D01*
X189687985Y-65190184D01*
X189677281Y-64603407D01*
X189664156Y-64149742D01*
X189648159Y-63817115D01*
X189628836Y-63593455D01*
X189605735Y-63466687D01*
X189578404Y-63424739D01*
X189576944Y-63424653D01*
X189553743Y-63463142D01*
G37*
X189553743Y-63463142D02*
X189534229Y-63584255D01*
X189518326Y-63796441D01*
X189505955Y-64108151D01*
X189497037Y-64527835D01*
X189491494Y-65063944D01*
X189489248Y-65724930D01*
X189490220Y-66519241D01*
X189494333Y-67455330D01*
X189501508Y-68541647D01*
X189511666Y-69786642D01*
X189514760Y-70134500D01*
X189582614Y-70193642D01*
X189621166Y-70198029D01*
X189648465Y-70164478D01*
X189670358Y-70055256D01*
X189687159Y-69857537D01*
X189699183Y-69558493D01*
X189706742Y-69145296D01*
X189710150Y-68605121D01*
X189709721Y-67925139D01*
X189705769Y-67092524D01*
X189703944Y-66811363D01*
X189696722Y-65922145D01*
X189687985Y-65190184D01*
X189677281Y-64603407D01*
X189664156Y-64149742D01*
X189648159Y-63817115D01*
X189628836Y-63593455D01*
X189605735Y-63466687D01*
X189578404Y-63424739D01*
X189576944Y-63424653D01*
X189553743Y-63463142D01*
G36*
X185388325Y-69962093D02*
G01*
X185084492Y-69986091D01*
X184892560Y-70033823D01*
X184821318Y-70073693D01*
X184765690Y-70100653D01*
X184667274Y-70123525D01*
X184513307Y-70142626D01*
X184291026Y-70158277D01*
X183987667Y-70170796D01*
X183590465Y-70180501D01*
X183086658Y-70187713D01*
X182463482Y-70192749D01*
X181708173Y-70195929D01*
X180807968Y-70197572D01*
X179847151Y-70198000D01*
X178691300Y-70199483D01*
X177689740Y-70203908D01*
X176844722Y-70211233D01*
X176158500Y-70221420D01*
X175633325Y-70234429D01*
X175271451Y-70250219D01*
X175075129Y-70268753D01*
X175037333Y-70282667D01*
X175121615Y-70303002D01*
X175372960Y-70320625D01*
X175789120Y-70335495D01*
X176367847Y-70347573D01*
X177106893Y-70356819D01*
X178004008Y-70363195D01*
X179056945Y-70366660D01*
X179852966Y-70367333D01*
X180891748Y-70366874D01*
X181773940Y-70365277D01*
X182512281Y-70362214D01*
X183119512Y-70357356D01*
X183608373Y-70350374D01*
X183991606Y-70340939D01*
X184281950Y-70328723D01*
X184492147Y-70313396D01*
X184634936Y-70294630D01*
X184723058Y-70272097D01*
X184769254Y-70245466D01*
X184774000Y-70240333D01*
X184942057Y-70150940D01*
X185242563Y-70107403D01*
X185313533Y-70104960D01*
X185668582Y-70086916D01*
X186061065Y-70051075D01*
X186213333Y-70032214D01*
X186405623Y-70003426D01*
X186478216Y-69984064D01*
X186418861Y-69971761D01*
X186215307Y-69964151D01*
X185855301Y-69958866D01*
X185832333Y-69958613D01*
X185388325Y-69962093D01*
G37*
X185388325Y-69962093D02*
X185084492Y-69986091D01*
X184892560Y-70033823D01*
X184821318Y-70073693D01*
X184765690Y-70100653D01*
X184667274Y-70123525D01*
X184513307Y-70142626D01*
X184291026Y-70158277D01*
X183987667Y-70170796D01*
X183590465Y-70180501D01*
X183086658Y-70187713D01*
X182463482Y-70192749D01*
X181708173Y-70195929D01*
X180807968Y-70197572D01*
X179847151Y-70198000D01*
X178691300Y-70199483D01*
X177689740Y-70203908D01*
X176844722Y-70211233D01*
X176158500Y-70221420D01*
X175633325Y-70234429D01*
X175271451Y-70250219D01*
X175075129Y-70268753D01*
X175037333Y-70282667D01*
X175121615Y-70303002D01*
X175372960Y-70320625D01*
X175789120Y-70335495D01*
X176367847Y-70347573D01*
X177106893Y-70356819D01*
X178004008Y-70363195D01*
X179056945Y-70366660D01*
X179852966Y-70367333D01*
X180891748Y-70366874D01*
X181773940Y-70365277D01*
X182512281Y-70362214D01*
X183119512Y-70357356D01*
X183608373Y-70350374D01*
X183991606Y-70340939D01*
X184281950Y-70328723D01*
X184492147Y-70313396D01*
X184634936Y-70294630D01*
X184723058Y-70272097D01*
X184769254Y-70245466D01*
X184774000Y-70240333D01*
X184942057Y-70150940D01*
X185242563Y-70107403D01*
X185313533Y-70104960D01*
X185668582Y-70086916D01*
X186061065Y-70051075D01*
X186213333Y-70032214D01*
X186405623Y-70003426D01*
X186478216Y-69984064D01*
X186418861Y-69971761D01*
X186215307Y-69964151D01*
X185855301Y-69958866D01*
X185832333Y-69958613D01*
X185388325Y-69962093D01*
G36*
X186931985Y-70211918D02*
G01*
X186762843Y-70247822D01*
X186721333Y-70282667D01*
X186797885Y-70329033D01*
X186995358Y-70359786D01*
X187187000Y-70367333D01*
X187442015Y-70353415D01*
X187611156Y-70317511D01*
X187652666Y-70282667D01*
X187576115Y-70236300D01*
X187378642Y-70205547D01*
X187187000Y-70198000D01*
X186931985Y-70211918D01*
G37*
X186931985Y-70211918D02*
X186762843Y-70247822D01*
X186721333Y-70282667D01*
X186797885Y-70329033D01*
X186995358Y-70359786D01*
X187187000Y-70367333D01*
X187442015Y-70353415D01*
X187611156Y-70317511D01*
X187652666Y-70282667D01*
X187576115Y-70236300D01*
X187378642Y-70205547D01*
X187187000Y-70198000D01*
X186931985Y-70211918D01*
G36*
X190023333Y-70325000D02*
G01*
X190065666Y-70367333D01*
X190108000Y-70325000D01*
X190065666Y-70282667D01*
X190023333Y-70325000D01*
G37*
X190023333Y-70325000D02*
X190065666Y-70367333D01*
X190108000Y-70325000D01*
X190065666Y-70282667D01*
X190023333Y-70325000D01*
G36*
X186919288Y-70845025D02*
G01*
X186903438Y-70977055D01*
X186992266Y-71112400D01*
X187134156Y-71207532D01*
X187212448Y-71145738D01*
X187229333Y-71002333D01*
X187189646Y-70836352D01*
X187060000Y-70790667D01*
X186919288Y-70845025D01*
G37*
X186919288Y-70845025D02*
X186903438Y-70977055D01*
X186992266Y-71112400D01*
X187134156Y-71207532D01*
X187212448Y-71145738D01*
X187229333Y-71002333D01*
X187189646Y-70836352D01*
X187060000Y-70790667D01*
X186919288Y-70845025D01*
G36*
X190817409Y-70317955D02*
G01*
X190855092Y-70423021D01*
X190988433Y-70593757D01*
X191134550Y-70799827D01*
X191206961Y-70997006D01*
X191208666Y-71022635D01*
X191237886Y-71171800D01*
X191286508Y-71214000D01*
X191318483Y-71141584D01*
X191291742Y-70951482D01*
X191277708Y-70896500D01*
X191176592Y-70643163D01*
X191043042Y-70440724D01*
X191024934Y-70422320D01*
X190875783Y-70309455D01*
X190817409Y-70317955D01*
G37*
X190817409Y-70317955D02*
X190855092Y-70423021D01*
X190988433Y-70593757D01*
X191134550Y-70799827D01*
X191206961Y-70997006D01*
X191208666Y-71022635D01*
X191237886Y-71171800D01*
X191286508Y-71214000D01*
X191318483Y-71141584D01*
X191291742Y-70951482D01*
X191277708Y-70896500D01*
X191176592Y-70643163D01*
X191043042Y-70440724D01*
X191024934Y-70422320D01*
X190875783Y-70309455D01*
X190817409Y-70317955D01*
G36*
X190410773Y-70547637D02*
G01*
X190431499Y-70606010D01*
X190510166Y-70691488D01*
X190754881Y-70962361D01*
X190951410Y-71208186D01*
X191064126Y-71384184D01*
X191067808Y-71392385D01*
X191087729Y-71394799D01*
X191078565Y-71262679D01*
X191066112Y-71174881D01*
X190961096Y-70867443D01*
X190774408Y-70642763D01*
X190541593Y-70541464D01*
X190510166Y-70539483D01*
X190410773Y-70547637D01*
G37*
X190410773Y-70547637D02*
X190431499Y-70606010D01*
X190510166Y-70691488D01*
X190754881Y-70962361D01*
X190951410Y-71208186D01*
X191064126Y-71384184D01*
X191067808Y-71392385D01*
X191087729Y-71394799D01*
X191078565Y-71262679D01*
X191066112Y-71174881D01*
X190961096Y-70867443D01*
X190774408Y-70642763D01*
X190541593Y-70541464D01*
X190510166Y-70539483D01*
X190410773Y-70547637D01*
G36*
X191594064Y-71520361D02*
G01*
X191474890Y-71588684D01*
X191494854Y-71632863D01*
X191542336Y-71637333D01*
X191657146Y-71575841D01*
X191673734Y-71553636D01*
X191660106Y-71505524D01*
X191594064Y-71520361D01*
G37*
X191594064Y-71520361D02*
X191474890Y-71588684D01*
X191494854Y-71632863D01*
X191542336Y-71637333D01*
X191657146Y-71575841D01*
X191673734Y-71553636D01*
X191660106Y-71505524D01*
X191594064Y-71520361D01*
G36*
X187842218Y-70625880D02*
G01*
X187823356Y-70892474D01*
X187811109Y-71150697D01*
X187803503Y-71558548D01*
X187822589Y-71803817D01*
X187868758Y-71891204D01*
X187872784Y-71891531D01*
X187922336Y-71813112D01*
X187940036Y-71575541D01*
X187929722Y-71235167D01*
X187904420Y-70830344D01*
X187881941Y-70594239D01*
X187861477Y-70526277D01*
X187842218Y-70625880D01*
G37*
X187842218Y-70625880D02*
X187823356Y-70892474D01*
X187811109Y-71150697D01*
X187803503Y-71558548D01*
X187822589Y-71803817D01*
X187868758Y-71891204D01*
X187872784Y-71891531D01*
X187922336Y-71813112D01*
X187940036Y-71575541D01*
X187929722Y-71235167D01*
X187904420Y-70830344D01*
X187881941Y-70594239D01*
X187861477Y-70526277D01*
X187842218Y-70625880D01*
G36*
X191208666Y-71604969D02*
G01*
X191255495Y-71732968D01*
X191332974Y-71853984D01*
X191425021Y-71947767D01*
X191457281Y-71933667D01*
X191410453Y-71805667D01*
X191332974Y-71684651D01*
X191240927Y-71590868D01*
X191208666Y-71604969D01*
G37*
X191208666Y-71604969D02*
X191255495Y-71732968D01*
X191332974Y-71853984D01*
X191425021Y-71947767D01*
X191457281Y-71933667D01*
X191410453Y-71805667D01*
X191332974Y-71684651D01*
X191240927Y-71590868D01*
X191208666Y-71604969D01*
G36*
X191634593Y-71764333D02*
G01*
X191676749Y-71903472D01*
X191716666Y-71976000D01*
X191783754Y-72043769D01*
X191798740Y-72018333D01*
X191756584Y-71879194D01*
X191716666Y-71806667D01*
X191649579Y-71738897D01*
X191634593Y-71764333D01*
G37*
X191634593Y-71764333D02*
X191676749Y-71903472D01*
X191716666Y-71976000D01*
X191783754Y-72043769D01*
X191798740Y-72018333D01*
X191756584Y-71879194D01*
X191716666Y-71806667D01*
X191649579Y-71738897D01*
X191634593Y-71764333D01*
G36*
X188102563Y-72030690D02*
G01*
X188118333Y-72060667D01*
X188198107Y-72141523D01*
X188212993Y-72145333D01*
X188218770Y-72090643D01*
X188203000Y-72060667D01*
X188123226Y-71979810D01*
X188108340Y-71976000D01*
X188102563Y-72030690D01*
G37*
X188102563Y-72030690D02*
X188118333Y-72060667D01*
X188198107Y-72141523D01*
X188212993Y-72145333D01*
X188218770Y-72090643D01*
X188203000Y-72060667D01*
X188123226Y-71979810D01*
X188108340Y-71976000D01*
X188102563Y-72030690D01*
G36*
X188364368Y-72271046D02*
G01*
X188372333Y-72314667D01*
X188480576Y-72396104D01*
X188504330Y-72399333D01*
X188581719Y-72334754D01*
X188584000Y-72314667D01*
X188515084Y-72240362D01*
X188452003Y-72230000D01*
X188364368Y-72271046D01*
G37*
X188364368Y-72271046D02*
X188372333Y-72314667D01*
X188480576Y-72396104D01*
X188504330Y-72399333D01*
X188581719Y-72334754D01*
X188584000Y-72314667D01*
X188515084Y-72240362D01*
X188452003Y-72230000D01*
X188364368Y-72271046D01*
G36*
X191380423Y-72206101D02*
G01*
X191378000Y-72225003D01*
X191439544Y-72339670D01*
X191462666Y-72357000D01*
X191535150Y-72337806D01*
X191547333Y-72277330D01*
X191503129Y-72161488D01*
X191462666Y-72145333D01*
X191380423Y-72206101D01*
G37*
X191380423Y-72206101D02*
X191378000Y-72225003D01*
X191439544Y-72339670D01*
X191462666Y-72357000D01*
X191535150Y-72337806D01*
X191547333Y-72277330D01*
X191503129Y-72161488D01*
X191462666Y-72145333D01*
X191380423Y-72206101D01*
G36*
X191716666Y-72441667D02*
G01*
X191759000Y-72484000D01*
X191801333Y-72441667D01*
X191759000Y-72399333D01*
X191716666Y-72441667D01*
G37*
X191716666Y-72441667D02*
X191759000Y-72484000D01*
X191801333Y-72441667D01*
X191759000Y-72399333D01*
X191716666Y-72441667D01*
G36*
X191886000Y-72441667D02*
G01*
X191928333Y-72484000D01*
X191970666Y-72441667D01*
X191928333Y-72399333D01*
X191886000Y-72441667D01*
G37*
X191886000Y-72441667D02*
X191928333Y-72484000D01*
X191970666Y-72441667D01*
X191928333Y-72399333D01*
X191886000Y-72441667D01*
G36*
X192083555Y-72512222D02*
G01*
X192095178Y-72562556D01*
X192140000Y-72568667D01*
X192209690Y-72537688D01*
X192196444Y-72512222D01*
X192095965Y-72502089D01*
X192083555Y-72512222D01*
G37*
X192083555Y-72512222D02*
X192095178Y-72562556D01*
X192140000Y-72568667D01*
X192209690Y-72537688D01*
X192196444Y-72512222D01*
X192095965Y-72502089D01*
X192083555Y-72512222D01*
G36*
X186604449Y-63908462D02*
G01*
X186289668Y-63919847D01*
X186094938Y-63936062D01*
X186044053Y-63951736D01*
X186124013Y-63973670D01*
X186345185Y-63995058D01*
X186679453Y-64014169D01*
X187098699Y-64029272D01*
X187419833Y-64036403D01*
X188795666Y-64059667D01*
X188795666Y-68356525D01*
X188797326Y-69440888D01*
X188802269Y-70372547D01*
X188810444Y-71148850D01*
X188821798Y-71767148D01*
X188836279Y-72224790D01*
X188853836Y-72519124D01*
X188874414Y-72647499D01*
X188880333Y-72653367D01*
X188901325Y-72569050D01*
X188918501Y-72317437D01*
X188931833Y-71900523D01*
X188941289Y-71320305D01*
X188946842Y-70578775D01*
X188948461Y-69677931D01*
X188946118Y-68619767D01*
X188944701Y-68285346D01*
X188924401Y-63917340D01*
X187484254Y-63903836D01*
X187011804Y-63902821D01*
X186604449Y-63908462D01*
G37*
X186604449Y-63908462D02*
X186289668Y-63919847D01*
X186094938Y-63936062D01*
X186044053Y-63951736D01*
X186124013Y-63973670D01*
X186345185Y-63995058D01*
X186679453Y-64014169D01*
X187098699Y-64029272D01*
X187419833Y-64036403D01*
X188795666Y-64059667D01*
X188795666Y-68356525D01*
X188797326Y-69440888D01*
X188802269Y-70372547D01*
X188810444Y-71148850D01*
X188821798Y-71767148D01*
X188836279Y-72224790D01*
X188853836Y-72519124D01*
X188874414Y-72647499D01*
X188880333Y-72653367D01*
X188901325Y-72569050D01*
X188918501Y-72317437D01*
X188931833Y-71900523D01*
X188941289Y-71320305D01*
X188946842Y-70578775D01*
X188948461Y-69677931D01*
X188946118Y-68619767D01*
X188944701Y-68285346D01*
X188924401Y-63917340D01*
X187484254Y-63903836D01*
X187011804Y-63902821D01*
X186604449Y-63908462D01*
G36*
X191752540Y-72695128D02*
G01*
X191768001Y-72773258D01*
X191864060Y-72889942D01*
X191920209Y-72907333D01*
X192031075Y-72963935D01*
X192210019Y-73109715D01*
X192351666Y-73246000D01*
X192580616Y-73464023D01*
X192720530Y-73566617D01*
X192760786Y-73555857D01*
X192690763Y-73433818D01*
X192510836Y-73214916D01*
X192310285Y-73003833D01*
X192137216Y-72846831D01*
X192055333Y-72791528D01*
X191873907Y-72712081D01*
X191822442Y-72688537D01*
X191752540Y-72695128D01*
G37*
X191752540Y-72695128D02*
X191768001Y-72773258D01*
X191864060Y-72889942D01*
X191920209Y-72907333D01*
X192031075Y-72963935D01*
X192210019Y-73109715D01*
X192351666Y-73246000D01*
X192580616Y-73464023D01*
X192720530Y-73566617D01*
X192760786Y-73555857D01*
X192690763Y-73433818D01*
X192510836Y-73214916D01*
X192310285Y-73003833D01*
X192137216Y-72846831D01*
X192055333Y-72791528D01*
X191873907Y-72712081D01*
X191822442Y-72688537D01*
X191752540Y-72695128D01*
G36*
X192304745Y-72602524D02*
G01*
X192325923Y-72710290D01*
X192480452Y-72901257D01*
X192598593Y-73020799D01*
X192803618Y-73236439D01*
X192957003Y-73426383D01*
X193012791Y-73521167D01*
X193108328Y-73645701D01*
X193174509Y-73668037D01*
X193235588Y-73648733D01*
X193168898Y-73594430D01*
X193076358Y-73460713D01*
X193041898Y-73307518D01*
X193012580Y-73161234D01*
X192968588Y-73130213D01*
X192869084Y-73107497D01*
X192739174Y-72996467D01*
X192632615Y-72855745D01*
X192603165Y-72743951D01*
X192606976Y-72735881D01*
X192589054Y-72692660D01*
X192511508Y-72711024D01*
X192412385Y-72725280D01*
X192427441Y-72667721D01*
X192440572Y-72579395D01*
X192413108Y-72568667D01*
X192304745Y-72602524D01*
G37*
X192304745Y-72602524D02*
X192325923Y-72710290D01*
X192480452Y-72901257D01*
X192598593Y-73020799D01*
X192803618Y-73236439D01*
X192957003Y-73426383D01*
X193012791Y-73521167D01*
X193108328Y-73645701D01*
X193174509Y-73668037D01*
X193235588Y-73648733D01*
X193168898Y-73594430D01*
X193076358Y-73460713D01*
X193041898Y-73307518D01*
X193012580Y-73161234D01*
X192968588Y-73130213D01*
X192869084Y-73107497D01*
X192739174Y-72996467D01*
X192632615Y-72855745D01*
X192603165Y-72743951D01*
X192606976Y-72735881D01*
X192589054Y-72692660D01*
X192511508Y-72711024D01*
X192412385Y-72725280D01*
X192427441Y-72667721D01*
X192440572Y-72579395D01*
X192413108Y-72568667D01*
X192304745Y-72602524D01*
G36*
X175370572Y-63898509D02*
G01*
X174651109Y-64621214D01*
X173931645Y-65343918D01*
X173894333Y-76209334D01*
X174910333Y-76209484D01*
X174888481Y-74071575D01*
X174881310Y-73435387D01*
X174873034Y-72809147D01*
X174864203Y-72227484D01*
X174855363Y-71725025D01*
X174847064Y-71336397D01*
X174842553Y-71171667D01*
X174836492Y-71071884D01*
X174830004Y-71128299D01*
X174823355Y-71327778D01*
X174816813Y-71657186D01*
X174810642Y-72103391D01*
X174805111Y-72653257D01*
X174800905Y-73224833D01*
X174783333Y-76040000D01*
X174021333Y-76040000D01*
X174021333Y-65410595D01*
X174721602Y-64713964D01*
X175421870Y-64017333D01*
X176900000Y-64017333D01*
X176914233Y-65562500D01*
X176921075Y-66116198D01*
X176929651Y-66501755D01*
X176939666Y-66720350D01*
X176950827Y-66773162D01*
X176962841Y-66661372D01*
X176975414Y-66386159D01*
X176988252Y-65948702D01*
X177001063Y-65350182D01*
X177003748Y-65202667D01*
X177027000Y-63890333D01*
X175370572Y-63898509D01*
G37*
X175370572Y-63898509D02*
X174651109Y-64621214D01*
X173931645Y-65343918D01*
X173894333Y-76209334D01*
X174910333Y-76209484D01*
X174888481Y-74071575D01*
X174881310Y-73435387D01*
X174873034Y-72809147D01*
X174864203Y-72227484D01*
X174855363Y-71725025D01*
X174847064Y-71336397D01*
X174842553Y-71171667D01*
X174836492Y-71071884D01*
X174830004Y-71128299D01*
X174823355Y-71327778D01*
X174816813Y-71657186D01*
X174810642Y-72103391D01*
X174805111Y-72653257D01*
X174800905Y-73224833D01*
X174783333Y-76040000D01*
X174021333Y-76040000D01*
X174021333Y-65410595D01*
X174721602Y-64713964D01*
X175421870Y-64017333D01*
X176900000Y-64017333D01*
X176914233Y-65562500D01*
X176921075Y-66116198D01*
X176929651Y-66501755D01*
X176939666Y-66720350D01*
X176950827Y-66773162D01*
X176962841Y-66661372D01*
X176975414Y-66386159D01*
X176988252Y-65948702D01*
X177001063Y-65350182D01*
X177003748Y-65202667D01*
X177027000Y-63890333D01*
X175370572Y-63898509D01*
G36*
X175460666Y-76294000D02*
G01*
X180947066Y-76294000D01*
X182115693Y-76293225D01*
X183124219Y-76290790D01*
X183981871Y-76286526D01*
X184697876Y-76280266D01*
X185281460Y-76271841D01*
X185741851Y-76261085D01*
X186088274Y-76247829D01*
X186329956Y-76231906D01*
X186476124Y-76213147D01*
X186535066Y-76192400D01*
X186589409Y-76047848D01*
X186623995Y-75753792D01*
X186636647Y-75329145D01*
X186636666Y-75309839D01*
X186634673Y-74942053D01*
X186629598Y-74850714D01*
X185193472Y-74850714D01*
X185156584Y-74926732D01*
X185070333Y-74969951D01*
X184989402Y-75060950D01*
X184949960Y-75272723D01*
X184943333Y-75487009D01*
X184931495Y-75742875D01*
X184900943Y-75912980D01*
X184870948Y-75955333D01*
X184781692Y-75897891D01*
X184612532Y-75746182D01*
X184397585Y-75531131D01*
X184363809Y-75495645D01*
X184128334Y-75262990D01*
X184109856Y-75247178D01*
X183493397Y-75247178D01*
X183449577Y-75333063D01*
X183247423Y-75362666D01*
X183246288Y-75362667D01*
X183058395Y-75332207D01*
X183002320Y-75256833D01*
X182999621Y-75039932D01*
X182907297Y-74947527D01*
X182837033Y-74939333D01*
X182636031Y-75005168D01*
X182522164Y-75170303D01*
X182500031Y-75386181D01*
X182574231Y-75604246D01*
X182749360Y-75775944D01*
X182757381Y-75780521D01*
X182930745Y-75859438D01*
X183049890Y-75837818D01*
X183145047Y-75762025D01*
X183312385Y-75636549D01*
X183397728Y-75648819D01*
X183419333Y-75778944D01*
X183348436Y-75937820D01*
X183166847Y-76024882D01*
X182921219Y-76030900D01*
X182658206Y-75946638D01*
X182635018Y-75934167D01*
X182571956Y-75891517D01*
X182029569Y-75891517D01*
X182022288Y-75955406D01*
X181903913Y-76014683D01*
X181837511Y-76003439D01*
X181652542Y-75964270D01*
X181515335Y-75955333D01*
X181371541Y-75923814D01*
X181371274Y-75921642D01*
X180794666Y-75921642D01*
X180720246Y-75944145D01*
X180537855Y-75955122D01*
X180505510Y-75955333D01*
X180237456Y-75902685D01*
X179997240Y-75722793D01*
X179976618Y-75701333D01*
X179812463Y-75542376D01*
X179693636Y-75453869D01*
X179673108Y-75447333D01*
X179628309Y-75520986D01*
X179609337Y-75698418D01*
X179609333Y-75701333D01*
X179593576Y-75870210D01*
X179512483Y-75940808D01*
X179315320Y-75955322D01*
X179303941Y-75955333D01*
X179098447Y-75936846D01*
X179035442Y-75874429D01*
X179043005Y-75839485D01*
X179011388Y-75715294D01*
X178879307Y-75532052D01*
X178685629Y-75326940D01*
X178469222Y-75137138D01*
X178268953Y-74999827D01*
X178123690Y-74952188D01*
X178116500Y-74953189D01*
X178022404Y-75002431D01*
X177967667Y-75131395D01*
X177938226Y-75379622D01*
X177932941Y-75469323D01*
X177908521Y-75730666D01*
X177871428Y-75907093D01*
X177839389Y-75955333D01*
X177752240Y-75897947D01*
X177584711Y-75746374D01*
X177370584Y-75531491D01*
X177336476Y-75495645D01*
X177101000Y-75262990D01*
X176887813Y-75080569D01*
X176740028Y-74984993D01*
X176731528Y-74981940D01*
X176581994Y-74900058D01*
X176588020Y-74820784D01*
X176737972Y-74773545D01*
X176815333Y-74770000D01*
X177016985Y-74807864D01*
X177069333Y-74897000D01*
X177144931Y-74997902D01*
X177320676Y-75024000D01*
X177495262Y-75002222D01*
X177531987Y-74925531D01*
X177523284Y-74897000D01*
X177523884Y-74834905D01*
X177602597Y-74796582D01*
X177787609Y-74776765D01*
X178107106Y-74770192D01*
X178203275Y-74770000D01*
X178556916Y-74779256D01*
X178807748Y-74804750D01*
X178926416Y-74843073D01*
X178932000Y-74854667D01*
X178862417Y-74927270D01*
X178789159Y-74939333D01*
X178722205Y-74964573D01*
X178767143Y-75056310D01*
X178889666Y-75193333D01*
X179087924Y-75380745D01*
X179204845Y-75429826D01*
X179259327Y-75338724D01*
X179270666Y-75155997D01*
X179295200Y-74912434D01*
X179370254Y-74828931D01*
X179498007Y-74905292D01*
X179666507Y-75120321D01*
X179839654Y-75337723D01*
X180009854Y-75492274D01*
X180148488Y-75567433D01*
X180226938Y-75546658D01*
X180225515Y-75443446D01*
X180140144Y-75271674D01*
X179990604Y-75074752D01*
X179981081Y-75064351D01*
X179846327Y-74909252D01*
X179780078Y-74813974D01*
X179778666Y-74807971D01*
X179854870Y-74786303D01*
X180049696Y-74772556D01*
X180202000Y-74770000D01*
X180443487Y-74785229D01*
X180596765Y-74824168D01*
X180625333Y-74854667D01*
X180556757Y-74929781D01*
X180498333Y-74939333D01*
X180394341Y-74980115D01*
X180391857Y-75112864D01*
X180493184Y-75353185D01*
X180584020Y-75519475D01*
X180704889Y-75737046D01*
X180781079Y-75886000D01*
X180794666Y-75921642D01*
X181371274Y-75921642D01*
X181357251Y-75807748D01*
X181360038Y-75796567D01*
X181348866Y-75639029D01*
X181277114Y-75417720D01*
X181171146Y-75189455D01*
X181057325Y-75011054D01*
X180962279Y-74939333D01*
X180881731Y-74874852D01*
X180879333Y-74854667D01*
X180955480Y-74806369D01*
X181150175Y-74775714D01*
X181302666Y-74770000D01*
X181562754Y-74788204D01*
X181705650Y-74834362D01*
X181714356Y-74895797D01*
X181571874Y-74959827D01*
X181561038Y-74962722D01*
X181467718Y-74996354D01*
X181443477Y-75059706D01*
X181490465Y-75196211D01*
X181582205Y-75390201D01*
X181719981Y-75621829D01*
X181862076Y-75780683D01*
X181925019Y-75816905D01*
X182029569Y-75891517D01*
X182571956Y-75891517D01*
X182362098Y-75749587D01*
X182138243Y-75540625D01*
X182002700Y-75347624D01*
X181980000Y-75260915D01*
X182047242Y-75118842D01*
X182213187Y-74965811D01*
X182255166Y-74938405D01*
X182484162Y-74839168D01*
X182746976Y-74781922D01*
X182994775Y-74769209D01*
X183178726Y-74803571D01*
X183250000Y-74886633D01*
X183309731Y-75035014D01*
X183377000Y-75108667D01*
X183493397Y-75247178D01*
X184109856Y-75247178D01*
X183915147Y-75080569D01*
X183767361Y-74984993D01*
X183758861Y-74981940D01*
X183609327Y-74900058D01*
X183615354Y-74820784D01*
X183765306Y-74773545D01*
X183842666Y-74770000D01*
X184044319Y-74807864D01*
X184096666Y-74897000D01*
X184170267Y-74999143D01*
X184308333Y-75024000D01*
X184478572Y-74979839D01*
X184520000Y-74897000D01*
X184575923Y-74808693D01*
X184761302Y-74772305D01*
X184858666Y-74770000D01*
X185088315Y-74792942D01*
X185193472Y-74850714D01*
X186629598Y-74850714D01*
X186621401Y-74703203D01*
X186585911Y-74552894D01*
X186517263Y-74450731D01*
X186404520Y-74356317D01*
X186371859Y-74331939D01*
X186182151Y-74178715D01*
X185921098Y-73952456D01*
X185831641Y-73871427D01*
X183116941Y-73871427D01*
X183112971Y-73923210D01*
X183109754Y-73923333D01*
X182992626Y-73866186D01*
X182869000Y-73754000D01*
X182776700Y-73631856D01*
X182774751Y-73584667D01*
X182873036Y-73636689D01*
X183015505Y-73754000D01*
X183116941Y-73871427D01*
X185831641Y-73871427D01*
X185639509Y-73697399D01*
X185588693Y-73650095D01*
X185435788Y-73512281D01*
X182411538Y-73512281D01*
X182409924Y-73783051D01*
X182403922Y-73881000D01*
X182368289Y-74149151D01*
X182317658Y-74257925D01*
X182264603Y-74215020D01*
X182221700Y-74028132D01*
X182202500Y-73757716D01*
X182204264Y-73711667D01*
X181810666Y-73711667D01*
X181764949Y-73824338D01*
X181726000Y-73838667D01*
X181682690Y-73799126D01*
X181090414Y-73799126D01*
X181018642Y-73908761D01*
X180937836Y-73923333D01*
X180868016Y-73847437D01*
X180844912Y-73700277D01*
X180244693Y-73700277D01*
X180147464Y-73858968D01*
X180001133Y-73922037D01*
X179952453Y-73899199D01*
X179970081Y-73885008D01*
X179593435Y-73885008D01*
X179573049Y-73883016D01*
X179466813Y-73808830D01*
X179405618Y-73730124D01*
X179405364Y-73729121D01*
X178905043Y-73729121D01*
X178903296Y-74043894D01*
X178864752Y-74206498D01*
X178785245Y-74230920D01*
X178759589Y-74217765D01*
X178720574Y-74110467D01*
X178733690Y-73920050D01*
X178748910Y-73737593D01*
X178684569Y-73672020D01*
X178651247Y-73669333D01*
X178500945Y-73719492D01*
X178463792Y-73758111D01*
X178368772Y-73796497D01*
X178290540Y-73748639D01*
X178121156Y-73678481D01*
X178002112Y-73749626D01*
X177974598Y-73934292D01*
X177978669Y-73958993D01*
X177979859Y-74126299D01*
X177925870Y-74177333D01*
X177867004Y-74098741D01*
X177835002Y-73885017D01*
X177831333Y-73754000D01*
X177848781Y-73470279D01*
X177904902Y-73346033D01*
X178005362Y-73374651D01*
X178085333Y-73457667D01*
X178246767Y-73566086D01*
X178339333Y-73584667D01*
X178516874Y-73523599D01*
X178593333Y-73457667D01*
X178738143Y-73338547D01*
X178838817Y-73382576D01*
X178894804Y-73589271D01*
X178905043Y-73729121D01*
X179405364Y-73729121D01*
X179365459Y-73571957D01*
X179420736Y-73485397D01*
X179496387Y-73442209D01*
X179523317Y-73538958D01*
X179524666Y-73603011D01*
X179546248Y-73781063D01*
X179588166Y-73859833D01*
X179593435Y-73885008D01*
X179970081Y-73885008D01*
X180002964Y-73858537D01*
X180091067Y-73733422D01*
X180136234Y-73584667D01*
X180169587Y-73447126D01*
X180210373Y-73464211D01*
X180238909Y-73522245D01*
X180244693Y-73700277D01*
X180844912Y-73700277D01*
X180837293Y-73651753D01*
X180837000Y-73627000D01*
X180868541Y-73412227D01*
X180941758Y-73336418D01*
X181024539Y-73408268D01*
X181073343Y-73563017D01*
X181090414Y-73799126D01*
X181682690Y-73799126D01*
X181650885Y-73770090D01*
X181641333Y-73711667D01*
X181687051Y-73598995D01*
X181726000Y-73584667D01*
X181801114Y-73653243D01*
X181810666Y-73711667D01*
X182204264Y-73711667D01*
X182213475Y-73471293D01*
X182266282Y-73340963D01*
X182297500Y-73330604D01*
X182375943Y-73371191D01*
X182411538Y-73512281D01*
X185435788Y-73512281D01*
X185291291Y-73382046D01*
X185259303Y-73354936D01*
X183067019Y-73354936D01*
X183046418Y-73402251D01*
X182961168Y-73493145D01*
X182912157Y-73474499D01*
X182911333Y-73462663D01*
X182971470Y-73391051D01*
X183009082Y-73364915D01*
X183067019Y-73354936D01*
X185259303Y-73354936D01*
X184986676Y-73123890D01*
X184735255Y-72926622D01*
X184710500Y-72908731D01*
X184350666Y-72652271D01*
X184350666Y-72031427D01*
X183757115Y-72031427D01*
X183737273Y-72191375D01*
X183701555Y-72258222D01*
X183640138Y-72313670D01*
X183638055Y-72314498D01*
X183627948Y-72240753D01*
X183627656Y-72237173D01*
X183049027Y-72237173D01*
X183046063Y-72530053D01*
X183010707Y-72686466D01*
X182935141Y-72737485D01*
X182923024Y-72738000D01*
X182889266Y-72661447D01*
X182868289Y-72463975D01*
X182864713Y-72282166D01*
X182205230Y-72282166D01*
X182191666Y-72314667D01*
X182079507Y-72396172D01*
X182054673Y-72399333D01*
X182008770Y-72347167D01*
X182022333Y-72314667D01*
X182134492Y-72233161D01*
X182159327Y-72230000D01*
X182205230Y-72282166D01*
X182864713Y-72282166D01*
X182864521Y-72272425D01*
X182877935Y-72103000D01*
X181472000Y-72103000D01*
X181445666Y-72250137D01*
X181387333Y-72272333D01*
X181308573Y-72149476D01*
X181302666Y-72103000D01*
X181336555Y-72013336D01*
X180879333Y-72013336D01*
X180858396Y-72211180D01*
X180806805Y-72311556D01*
X180794666Y-72314667D01*
X180734765Y-72241210D01*
X180715268Y-72103000D01*
X180117333Y-72103000D01*
X180096068Y-72298867D01*
X180043778Y-72396774D01*
X180032666Y-72399333D01*
X179976704Y-72324904D01*
X179954965Y-72182670D01*
X179524666Y-72182670D01*
X179480462Y-72298512D01*
X179440000Y-72314667D01*
X179357757Y-72253899D01*
X179355333Y-72234997D01*
X179416877Y-72120329D01*
X179440000Y-72103000D01*
X179512483Y-72122194D01*
X179524666Y-72182670D01*
X179954965Y-72182670D01*
X179948731Y-72141890D01*
X179948000Y-72103000D01*
X179953138Y-72055670D01*
X178762666Y-72055670D01*
X178738579Y-72236160D01*
X178680384Y-72314564D01*
X178678000Y-72314667D01*
X178613801Y-72242366D01*
X178593333Y-72107997D01*
X178593471Y-72107202D01*
X178154165Y-72107202D01*
X178141566Y-72181975D01*
X178069522Y-72304187D01*
X178018733Y-72265187D01*
X178012053Y-72198955D01*
X177408000Y-72198955D01*
X177397617Y-72454906D01*
X177371129Y-72635403D01*
X177351555Y-72681555D01*
X177252508Y-72736318D01*
X177206616Y-72643138D01*
X177211267Y-72395299D01*
X177217050Y-72335833D01*
X177262481Y-72042116D01*
X177315762Y-71882994D01*
X177365285Y-71866791D01*
X177399441Y-72001828D01*
X177408000Y-72198955D01*
X178012053Y-72198955D01*
X178000666Y-72086067D01*
X178017686Y-71936035D01*
X178077010Y-71935521D01*
X178096575Y-71953375D01*
X178154165Y-72107202D01*
X178593471Y-72107202D01*
X178624551Y-71928724D01*
X178678000Y-71849000D01*
X178737963Y-71882084D01*
X178762626Y-72046809D01*
X178762666Y-72055670D01*
X179953138Y-72055670D01*
X179969265Y-71907132D01*
X180021555Y-71809226D01*
X180032666Y-71806667D01*
X180088629Y-71881095D01*
X180116602Y-72064110D01*
X180117333Y-72103000D01*
X180715268Y-72103000D01*
X180710000Y-72065663D01*
X180736099Y-71870135D01*
X180794666Y-71764333D01*
X180852279Y-71800103D01*
X180878708Y-71972590D01*
X180879333Y-72013336D01*
X181336555Y-72013336D01*
X181356344Y-71960981D01*
X181387333Y-71933667D01*
X181449751Y-71964034D01*
X181472000Y-72103000D01*
X182877935Y-72103000D01*
X182887184Y-71986200D01*
X182935753Y-71851181D01*
X182991504Y-71870945D01*
X183035717Y-72049068D01*
X183049027Y-72237173D01*
X183627656Y-72237173D01*
X183613441Y-72063342D01*
X183613242Y-72060498D01*
X183624201Y-71882719D01*
X183646870Y-71849000D01*
X182149333Y-71849000D01*
X182107000Y-71891333D01*
X182064666Y-71849000D01*
X182107000Y-71806667D01*
X182149333Y-71849000D01*
X183646870Y-71849000D01*
X183675306Y-71806706D01*
X183676742Y-71806667D01*
X183735461Y-71876301D01*
X183757115Y-72031427D01*
X184350666Y-72031427D01*
X184350666Y-70790667D01*
X175460666Y-70790667D01*
X175460666Y-76294000D01*
G37*
X175460666Y-76294000D02*
X180947066Y-76294000D01*
X182115693Y-76293225D01*
X183124219Y-76290790D01*
X183981871Y-76286526D01*
X184697876Y-76280266D01*
X185281460Y-76271841D01*
X185741851Y-76261085D01*
X186088274Y-76247829D01*
X186329956Y-76231906D01*
X186476124Y-76213147D01*
X186535066Y-76192400D01*
X186589409Y-76047848D01*
X186623995Y-75753792D01*
X186636647Y-75329145D01*
X186636666Y-75309839D01*
X186634673Y-74942053D01*
X186629598Y-74850714D01*
X185193472Y-74850714D01*
X185156584Y-74926732D01*
X185070333Y-74969951D01*
X184989402Y-75060950D01*
X184949960Y-75272723D01*
X184943333Y-75487009D01*
X184931495Y-75742875D01*
X184900943Y-75912980D01*
X184870948Y-75955333D01*
X184781692Y-75897891D01*
X184612532Y-75746182D01*
X184397585Y-75531131D01*
X184363809Y-75495645D01*
X184128334Y-75262990D01*
X184109856Y-75247178D01*
X183493397Y-75247178D01*
X183449577Y-75333063D01*
X183247423Y-75362666D01*
X183246288Y-75362667D01*
X183058395Y-75332207D01*
X183002320Y-75256833D01*
X182999621Y-75039932D01*
X182907297Y-74947527D01*
X182837033Y-74939333D01*
X182636031Y-75005168D01*
X182522164Y-75170303D01*
X182500031Y-75386181D01*
X182574231Y-75604246D01*
X182749360Y-75775944D01*
X182757381Y-75780521D01*
X182930745Y-75859438D01*
X183049890Y-75837818D01*
X183145047Y-75762025D01*
X183312385Y-75636549D01*
X183397728Y-75648819D01*
X183419333Y-75778944D01*
X183348436Y-75937820D01*
X183166847Y-76024882D01*
X182921219Y-76030900D01*
X182658206Y-75946638D01*
X182635018Y-75934167D01*
X182571956Y-75891517D01*
X182029569Y-75891517D01*
X182022288Y-75955406D01*
X181903913Y-76014683D01*
X181837511Y-76003439D01*
X181652542Y-75964270D01*
X181515335Y-75955333D01*
X181371541Y-75923814D01*
X181371274Y-75921642D01*
X180794666Y-75921642D01*
X180720246Y-75944145D01*
X180537855Y-75955122D01*
X180505510Y-75955333D01*
X180237456Y-75902685D01*
X179997240Y-75722793D01*
X179976618Y-75701333D01*
X179812463Y-75542376D01*
X179693636Y-75453869D01*
X179673108Y-75447333D01*
X179628309Y-75520986D01*
X179609337Y-75698418D01*
X179609333Y-75701333D01*
X179593576Y-75870210D01*
X179512483Y-75940808D01*
X179315320Y-75955322D01*
X179303941Y-75955333D01*
X179098447Y-75936846D01*
X179035442Y-75874429D01*
X179043005Y-75839485D01*
X179011388Y-75715294D01*
X178879307Y-75532052D01*
X178685629Y-75326940D01*
X178469222Y-75137138D01*
X178268953Y-74999827D01*
X178123690Y-74952188D01*
X178116500Y-74953189D01*
X178022404Y-75002431D01*
X177967667Y-75131395D01*
X177938226Y-75379622D01*
X177932941Y-75469323D01*
X177908521Y-75730666D01*
X177871428Y-75907093D01*
X177839389Y-75955333D01*
X177752240Y-75897947D01*
X177584711Y-75746374D01*
X177370584Y-75531491D01*
X177336476Y-75495645D01*
X177101000Y-75262990D01*
X176887813Y-75080569D01*
X176740028Y-74984993D01*
X176731528Y-74981940D01*
X176581994Y-74900058D01*
X176588020Y-74820784D01*
X176737972Y-74773545D01*
X176815333Y-74770000D01*
X177016985Y-74807864D01*
X177069333Y-74897000D01*
X177144931Y-74997902D01*
X177320676Y-75024000D01*
X177495262Y-75002222D01*
X177531987Y-74925531D01*
X177523284Y-74897000D01*
X177523884Y-74834905D01*
X177602597Y-74796582D01*
X177787609Y-74776765D01*
X178107106Y-74770192D01*
X178203275Y-74770000D01*
X178556916Y-74779256D01*
X178807748Y-74804750D01*
X178926416Y-74843073D01*
X178932000Y-74854667D01*
X178862417Y-74927270D01*
X178789159Y-74939333D01*
X178722205Y-74964573D01*
X178767143Y-75056310D01*
X178889666Y-75193333D01*
X179087924Y-75380745D01*
X179204845Y-75429826D01*
X179259327Y-75338724D01*
X179270666Y-75155997D01*
X179295200Y-74912434D01*
X179370254Y-74828931D01*
X179498007Y-74905292D01*
X179666507Y-75120321D01*
X179839654Y-75337723D01*
X180009854Y-75492274D01*
X180148488Y-75567433D01*
X180226938Y-75546658D01*
X180225515Y-75443446D01*
X180140144Y-75271674D01*
X179990604Y-75074752D01*
X179981081Y-75064351D01*
X179846327Y-74909252D01*
X179780078Y-74813974D01*
X179778666Y-74807971D01*
X179854870Y-74786303D01*
X180049696Y-74772556D01*
X180202000Y-74770000D01*
X180443487Y-74785229D01*
X180596765Y-74824168D01*
X180625333Y-74854667D01*
X180556757Y-74929781D01*
X180498333Y-74939333D01*
X180394341Y-74980115D01*
X180391857Y-75112864D01*
X180493184Y-75353185D01*
X180584020Y-75519475D01*
X180704889Y-75737046D01*
X180781079Y-75886000D01*
X180794666Y-75921642D01*
X181371274Y-75921642D01*
X181357251Y-75807748D01*
X181360038Y-75796567D01*
X181348866Y-75639029D01*
X181277114Y-75417720D01*
X181171146Y-75189455D01*
X181057325Y-75011054D01*
X180962279Y-74939333D01*
X180881731Y-74874852D01*
X180879333Y-74854667D01*
X180955480Y-74806369D01*
X181150175Y-74775714D01*
X181302666Y-74770000D01*
X181562754Y-74788204D01*
X181705650Y-74834362D01*
X181714356Y-74895797D01*
X181571874Y-74959827D01*
X181561038Y-74962722D01*
X181467718Y-74996354D01*
X181443477Y-75059706D01*
X181490465Y-75196211D01*
X181582205Y-75390201D01*
X181719981Y-75621829D01*
X181862076Y-75780683D01*
X181925019Y-75816905D01*
X182029569Y-75891517D01*
X182571956Y-75891517D01*
X182362098Y-75749587D01*
X182138243Y-75540625D01*
X182002700Y-75347624D01*
X181980000Y-75260915D01*
X182047242Y-75118842D01*
X182213187Y-74965811D01*
X182255166Y-74938405D01*
X182484162Y-74839168D01*
X182746976Y-74781922D01*
X182994775Y-74769209D01*
X183178726Y-74803571D01*
X183250000Y-74886633D01*
X183309731Y-75035014D01*
X183377000Y-75108667D01*
X183493397Y-75247178D01*
X184109856Y-75247178D01*
X183915147Y-75080569D01*
X183767361Y-74984993D01*
X183758861Y-74981940D01*
X183609327Y-74900058D01*
X183615354Y-74820784D01*
X183765306Y-74773545D01*
X183842666Y-74770000D01*
X184044319Y-74807864D01*
X184096666Y-74897000D01*
X184170267Y-74999143D01*
X184308333Y-75024000D01*
X184478572Y-74979839D01*
X184520000Y-74897000D01*
X184575923Y-74808693D01*
X184761302Y-74772305D01*
X184858666Y-74770000D01*
X185088315Y-74792942D01*
X185193472Y-74850714D01*
X186629598Y-74850714D01*
X186621401Y-74703203D01*
X186585911Y-74552894D01*
X186517263Y-74450731D01*
X186404520Y-74356317D01*
X186371859Y-74331939D01*
X186182151Y-74178715D01*
X185921098Y-73952456D01*
X185831641Y-73871427D01*
X183116941Y-73871427D01*
X183112971Y-73923210D01*
X183109754Y-73923333D01*
X182992626Y-73866186D01*
X182869000Y-73754000D01*
X182776700Y-73631856D01*
X182774751Y-73584667D01*
X182873036Y-73636689D01*
X183015505Y-73754000D01*
X183116941Y-73871427D01*
X185831641Y-73871427D01*
X185639509Y-73697399D01*
X185588693Y-73650095D01*
X185435788Y-73512281D01*
X182411538Y-73512281D01*
X182409924Y-73783051D01*
X182403922Y-73881000D01*
X182368289Y-74149151D01*
X182317658Y-74257925D01*
X182264603Y-74215020D01*
X182221700Y-74028132D01*
X182202500Y-73757716D01*
X182204264Y-73711667D01*
X181810666Y-73711667D01*
X181764949Y-73824338D01*
X181726000Y-73838667D01*
X181682690Y-73799126D01*
X181090414Y-73799126D01*
X181018642Y-73908761D01*
X180937836Y-73923333D01*
X180868016Y-73847437D01*
X180844912Y-73700277D01*
X180244693Y-73700277D01*
X180147464Y-73858968D01*
X180001133Y-73922037D01*
X179952453Y-73899199D01*
X179970081Y-73885008D01*
X179593435Y-73885008D01*
X179573049Y-73883016D01*
X179466813Y-73808830D01*
X179405618Y-73730124D01*
X179405364Y-73729121D01*
X178905043Y-73729121D01*
X178903296Y-74043894D01*
X178864752Y-74206498D01*
X178785245Y-74230920D01*
X178759589Y-74217765D01*
X178720574Y-74110467D01*
X178733690Y-73920050D01*
X178748910Y-73737593D01*
X178684569Y-73672020D01*
X178651247Y-73669333D01*
X178500945Y-73719492D01*
X178463792Y-73758111D01*
X178368772Y-73796497D01*
X178290540Y-73748639D01*
X178121156Y-73678481D01*
X178002112Y-73749626D01*
X177974598Y-73934292D01*
X177978669Y-73958993D01*
X177979859Y-74126299D01*
X177925870Y-74177333D01*
X177867004Y-74098741D01*
X177835002Y-73885017D01*
X177831333Y-73754000D01*
X177848781Y-73470279D01*
X177904902Y-73346033D01*
X178005362Y-73374651D01*
X178085333Y-73457667D01*
X178246767Y-73566086D01*
X178339333Y-73584667D01*
X178516874Y-73523599D01*
X178593333Y-73457667D01*
X178738143Y-73338547D01*
X178838817Y-73382576D01*
X178894804Y-73589271D01*
X178905043Y-73729121D01*
X179405364Y-73729121D01*
X179365459Y-73571957D01*
X179420736Y-73485397D01*
X179496387Y-73442209D01*
X179523317Y-73538958D01*
X179524666Y-73603011D01*
X179546248Y-73781063D01*
X179588166Y-73859833D01*
X179593435Y-73885008D01*
X179970081Y-73885008D01*
X180002964Y-73858537D01*
X180091067Y-73733422D01*
X180136234Y-73584667D01*
X180169587Y-73447126D01*
X180210373Y-73464211D01*
X180238909Y-73522245D01*
X180244693Y-73700277D01*
X180844912Y-73700277D01*
X180837293Y-73651753D01*
X180837000Y-73627000D01*
X180868541Y-73412227D01*
X180941758Y-73336418D01*
X181024539Y-73408268D01*
X181073343Y-73563017D01*
X181090414Y-73799126D01*
X181682690Y-73799126D01*
X181650885Y-73770090D01*
X181641333Y-73711667D01*
X181687051Y-73598995D01*
X181726000Y-73584667D01*
X181801114Y-73653243D01*
X181810666Y-73711667D01*
X182204264Y-73711667D01*
X182213475Y-73471293D01*
X182266282Y-73340963D01*
X182297500Y-73330604D01*
X182375943Y-73371191D01*
X182411538Y-73512281D01*
X185435788Y-73512281D01*
X185291291Y-73382046D01*
X185259303Y-73354936D01*
X183067019Y-73354936D01*
X183046418Y-73402251D01*
X182961168Y-73493145D01*
X182912157Y-73474499D01*
X182911333Y-73462663D01*
X182971470Y-73391051D01*
X183009082Y-73364915D01*
X183067019Y-73354936D01*
X185259303Y-73354936D01*
X184986676Y-73123890D01*
X184735255Y-72926622D01*
X184710500Y-72908731D01*
X184350666Y-72652271D01*
X184350666Y-72031427D01*
X183757115Y-72031427D01*
X183737273Y-72191375D01*
X183701555Y-72258222D01*
X183640138Y-72313670D01*
X183638055Y-72314498D01*
X183627948Y-72240753D01*
X183627656Y-72237173D01*
X183049027Y-72237173D01*
X183046063Y-72530053D01*
X183010707Y-72686466D01*
X182935141Y-72737485D01*
X182923024Y-72738000D01*
X182889266Y-72661447D01*
X182868289Y-72463975D01*
X182864713Y-72282166D01*
X182205230Y-72282166D01*
X182191666Y-72314667D01*
X182079507Y-72396172D01*
X182054673Y-72399333D01*
X182008770Y-72347167D01*
X182022333Y-72314667D01*
X182134492Y-72233161D01*
X182159327Y-72230000D01*
X182205230Y-72282166D01*
X182864713Y-72282166D01*
X182864521Y-72272425D01*
X182877935Y-72103000D01*
X181472000Y-72103000D01*
X181445666Y-72250137D01*
X181387333Y-72272333D01*
X181308573Y-72149476D01*
X181302666Y-72103000D01*
X181336555Y-72013336D01*
X180879333Y-72013336D01*
X180858396Y-72211180D01*
X180806805Y-72311556D01*
X180794666Y-72314667D01*
X180734765Y-72241210D01*
X180715268Y-72103000D01*
X180117333Y-72103000D01*
X180096068Y-72298867D01*
X180043778Y-72396774D01*
X180032666Y-72399333D01*
X179976704Y-72324904D01*
X179954965Y-72182670D01*
X179524666Y-72182670D01*
X179480462Y-72298512D01*
X179440000Y-72314667D01*
X179357757Y-72253899D01*
X179355333Y-72234997D01*
X179416877Y-72120329D01*
X179440000Y-72103000D01*
X179512483Y-72122194D01*
X179524666Y-72182670D01*
X179954965Y-72182670D01*
X179948731Y-72141890D01*
X179948000Y-72103000D01*
X179953138Y-72055670D01*
X178762666Y-72055670D01*
X178738579Y-72236160D01*
X178680384Y-72314564D01*
X178678000Y-72314667D01*
X178613801Y-72242366D01*
X178593333Y-72107997D01*
X178593471Y-72107202D01*
X178154165Y-72107202D01*
X178141566Y-72181975D01*
X178069522Y-72304187D01*
X178018733Y-72265187D01*
X178012053Y-72198955D01*
X177408000Y-72198955D01*
X177397617Y-72454906D01*
X177371129Y-72635403D01*
X177351555Y-72681555D01*
X177252508Y-72736318D01*
X177206616Y-72643138D01*
X177211267Y-72395299D01*
X177217050Y-72335833D01*
X177262481Y-72042116D01*
X177315762Y-71882994D01*
X177365285Y-71866791D01*
X177399441Y-72001828D01*
X177408000Y-72198955D01*
X178012053Y-72198955D01*
X178000666Y-72086067D01*
X178017686Y-71936035D01*
X178077010Y-71935521D01*
X178096575Y-71953375D01*
X178154165Y-72107202D01*
X178593471Y-72107202D01*
X178624551Y-71928724D01*
X178678000Y-71849000D01*
X178737963Y-71882084D01*
X178762626Y-72046809D01*
X178762666Y-72055670D01*
X179953138Y-72055670D01*
X179969265Y-71907132D01*
X180021555Y-71809226D01*
X180032666Y-71806667D01*
X180088629Y-71881095D01*
X180116602Y-72064110D01*
X180117333Y-72103000D01*
X180715268Y-72103000D01*
X180710000Y-72065663D01*
X180736099Y-71870135D01*
X180794666Y-71764333D01*
X180852279Y-71800103D01*
X180878708Y-71972590D01*
X180879333Y-72013336D01*
X181336555Y-72013336D01*
X181356344Y-71960981D01*
X181387333Y-71933667D01*
X181449751Y-71964034D01*
X181472000Y-72103000D01*
X182877935Y-72103000D01*
X182887184Y-71986200D01*
X182935753Y-71851181D01*
X182991504Y-71870945D01*
X183035717Y-72049068D01*
X183049027Y-72237173D01*
X183627656Y-72237173D01*
X183613441Y-72063342D01*
X183613242Y-72060498D01*
X183624201Y-71882719D01*
X183646870Y-71849000D01*
X182149333Y-71849000D01*
X182107000Y-71891333D01*
X182064666Y-71849000D01*
X182107000Y-71806667D01*
X182149333Y-71849000D01*
X183646870Y-71849000D01*
X183675306Y-71806706D01*
X183676742Y-71806667D01*
X183735461Y-71876301D01*
X183757115Y-72031427D01*
X184350666Y-72031427D01*
X184350666Y-70790667D01*
X175460666Y-70790667D01*
X175460666Y-76294000D01*
G36*
X176635620Y-76982954D02*
G01*
X175823936Y-76986275D01*
X175137360Y-76992596D01*
X174839101Y-76997327D01*
X174702925Y-77001754D01*
X174721586Y-77005788D01*
X174887833Y-77009340D01*
X175194418Y-77012321D01*
X175634093Y-77014639D01*
X176199609Y-77016207D01*
X176883717Y-77016935D01*
X177111666Y-77016976D01*
X177828100Y-77016508D01*
X178426544Y-77015177D01*
X178899977Y-77013072D01*
X179241377Y-77010283D01*
X179443723Y-77006898D01*
X179499993Y-77003007D01*
X179403166Y-76998700D01*
X179146221Y-76994064D01*
X179032027Y-76992564D01*
X178306372Y-76986098D01*
X177485335Y-76982895D01*
X176635620Y-76982954D01*
G37*
X176635620Y-76982954D02*
X175823936Y-76986275D01*
X175137360Y-76992596D01*
X174839101Y-76997327D01*
X174702925Y-77001754D01*
X174721586Y-77005788D01*
X174887833Y-77009340D01*
X175194418Y-77012321D01*
X175634093Y-77014639D01*
X176199609Y-77016207D01*
X176883717Y-77016935D01*
X177111666Y-77016976D01*
X177828100Y-77016508D01*
X178426544Y-77015177D01*
X178899977Y-77013072D01*
X179241377Y-77010283D01*
X179443723Y-77006898D01*
X179499993Y-77003007D01*
X179403166Y-76998700D01*
X179146221Y-76994064D01*
X179032027Y-76992564D01*
X178306372Y-76986098D01*
X177485335Y-76982895D01*
X176635620Y-76982954D01*
G36*
X174900314Y-63652026D02*
G01*
X174688993Y-63842122D01*
X174411513Y-64105324D01*
X174199950Y-64312223D01*
X173259333Y-65242112D01*
X173259333Y-76806875D01*
X181125697Y-76759667D01*
X181157615Y-77056000D01*
X181176990Y-77204881D01*
X181189955Y-77204024D01*
X181200176Y-77045091D01*
X181203767Y-76951012D01*
X181218000Y-76549691D01*
X177302166Y-76527679D01*
X173386333Y-76505667D01*
X173364558Y-70938783D01*
X173342782Y-65371900D01*
X173576224Y-65098451D01*
X173826465Y-64820731D01*
X174139736Y-64503379D01*
X174546578Y-64115707D01*
X174649806Y-64019666D01*
X174853413Y-63813251D01*
X175009930Y-63623411D01*
X175053717Y-63554000D01*
X175027786Y-63550748D01*
X174900314Y-63652026D01*
G37*
X174900314Y-63652026D02*
X174688993Y-63842122D01*
X174411513Y-64105324D01*
X174199950Y-64312223D01*
X173259333Y-65242112D01*
X173259333Y-76806875D01*
X181125697Y-76759667D01*
X181157615Y-77056000D01*
X181176990Y-77204881D01*
X181189955Y-77204024D01*
X181200176Y-77045091D01*
X181203767Y-76951012D01*
X181218000Y-76549691D01*
X177302166Y-76527679D01*
X173386333Y-76505667D01*
X173364558Y-70938783D01*
X173342782Y-65371900D01*
X173576224Y-65098451D01*
X173826465Y-64820731D01*
X174139736Y-64503379D01*
X174546578Y-64115707D01*
X174649806Y-64019666D01*
X174853413Y-63813251D01*
X175009930Y-63623411D01*
X175053717Y-63554000D01*
X175027786Y-63550748D01*
X174900314Y-63652026D01*
G36*
X184115562Y-76551121D02*
G01*
X183778087Y-76561976D01*
X183564635Y-76582799D01*
X183452593Y-76615824D01*
X183419350Y-76663287D01*
X183419333Y-76664660D01*
X183479429Y-76770880D01*
X183639458Y-76951947D01*
X183869036Y-77174583D01*
X183956423Y-77252859D01*
X184493513Y-77724398D01*
X184858140Y-77352870D01*
X185212668Y-77033456D01*
X185502865Y-76865551D01*
X185734650Y-76846590D01*
X185862327Y-76917833D01*
X186064263Y-77043590D01*
X186218571Y-77034174D01*
X186294737Y-76894846D01*
X186298000Y-76842720D01*
X186274406Y-76690543D01*
X186170105Y-76664588D01*
X186095570Y-76680247D01*
X185920562Y-76686388D01*
X185836573Y-76639527D01*
X185725467Y-76598910D01*
X185456341Y-76569614D01*
X185040180Y-76552450D01*
X184599670Y-76548000D01*
X184115562Y-76551121D01*
G37*
X184115562Y-76551121D02*
X183778087Y-76561976D01*
X183564635Y-76582799D01*
X183452593Y-76615824D01*
X183419350Y-76663287D01*
X183419333Y-76664660D01*
X183479429Y-76770880D01*
X183639458Y-76951947D01*
X183869036Y-77174583D01*
X183956423Y-77252859D01*
X184493513Y-77724398D01*
X184858140Y-77352870D01*
X185212668Y-77033456D01*
X185502865Y-76865551D01*
X185734650Y-76846590D01*
X185862327Y-76917833D01*
X186064263Y-77043590D01*
X186218571Y-77034174D01*
X186294737Y-76894846D01*
X186298000Y-76842720D01*
X186274406Y-76690543D01*
X186170105Y-76664588D01*
X186095570Y-76680247D01*
X185920562Y-76686388D01*
X185836573Y-76639527D01*
X185725467Y-76598910D01*
X185456341Y-76569614D01*
X185040180Y-76552450D01*
X184599670Y-76548000D01*
X184115562Y-76551121D01*
G36*
X181128262Y-77874071D02*
G01*
X181119988Y-77882145D01*
X181067307Y-78000196D01*
X181127277Y-78107036D01*
X181190457Y-78251885D01*
X181177959Y-78322291D01*
X181147830Y-78404861D01*
X181206320Y-78381698D01*
X181302666Y-78283667D01*
X181359338Y-78178462D01*
X181313033Y-78156667D01*
X181238311Y-78085154D01*
X181218000Y-77970400D01*
X181198534Y-77847212D01*
X181128262Y-77874071D01*
G37*
X181128262Y-77874071D02*
X181119988Y-77882145D01*
X181067307Y-78000196D01*
X181127277Y-78107036D01*
X181190457Y-78251885D01*
X181177959Y-78322291D01*
X181147830Y-78404861D01*
X181206320Y-78381698D01*
X181302666Y-78283667D01*
X181359338Y-78178462D01*
X181313033Y-78156667D01*
X181238311Y-78085154D01*
X181218000Y-77970400D01*
X181198534Y-77847212D01*
X181128262Y-77874071D01*
G36*
X181277351Y-77491552D02*
G01*
X181320617Y-77727991D01*
X181321968Y-77733333D01*
X181391579Y-77943749D01*
X181462244Y-78062350D01*
X181482299Y-78072000D01*
X181553691Y-78128219D01*
X181537677Y-78251413D01*
X181448843Y-78373389D01*
X181412499Y-78398266D01*
X181316712Y-78485278D01*
X181368274Y-78599204D01*
X181377455Y-78610431D01*
X181448283Y-78748330D01*
X181443172Y-78812148D01*
X181474027Y-78869953D01*
X181553263Y-78882381D01*
X181663955Y-78836634D01*
X181664989Y-78773524D01*
X181693814Y-78680535D01*
X181759275Y-78664667D01*
X181851868Y-78647397D01*
X181883699Y-78577467D01*
X181858174Y-78462240D01*
X181715609Y-78462240D01*
X181694589Y-78579335D01*
X181669555Y-78608222D01*
X181545632Y-78662153D01*
X181474839Y-78574031D01*
X181472000Y-78537667D01*
X181539773Y-78425418D01*
X181599000Y-78410667D01*
X181715609Y-78462240D01*
X181858174Y-78462240D01*
X181850522Y-78427698D01*
X181748097Y-78170910D01*
X181646643Y-77943141D01*
X181492390Y-77633194D01*
X181372949Y-77450430D01*
X181298032Y-77401124D01*
X181277351Y-77491552D01*
G37*
X181277351Y-77491552D02*
X181320617Y-77727991D01*
X181321968Y-77733333D01*
X181391579Y-77943749D01*
X181462244Y-78062350D01*
X181482299Y-78072000D01*
X181553691Y-78128219D01*
X181537677Y-78251413D01*
X181448843Y-78373389D01*
X181412499Y-78398266D01*
X181316712Y-78485278D01*
X181368274Y-78599204D01*
X181377455Y-78610431D01*
X181448283Y-78748330D01*
X181443172Y-78812148D01*
X181474027Y-78869953D01*
X181553263Y-78882381D01*
X181663955Y-78836634D01*
X181664989Y-78773524D01*
X181693814Y-78680535D01*
X181759275Y-78664667D01*
X181851868Y-78647397D01*
X181883699Y-78577467D01*
X181858174Y-78462240D01*
X181715609Y-78462240D01*
X181694589Y-78579335D01*
X181669555Y-78608222D01*
X181545632Y-78662153D01*
X181474839Y-78574031D01*
X181472000Y-78537667D01*
X181539773Y-78425418D01*
X181599000Y-78410667D01*
X181715609Y-78462240D01*
X181858174Y-78462240D01*
X181850522Y-78427698D01*
X181748097Y-78170910D01*
X181646643Y-77943141D01*
X181492390Y-77633194D01*
X181372949Y-77450430D01*
X181298032Y-77401124D01*
X181277351Y-77491552D01*
G36*
X181728460Y-79067762D02*
G01*
X181726000Y-79088000D01*
X181790429Y-79170206D01*
X181810666Y-79172667D01*
X181892873Y-79108237D01*
X181895333Y-79088000D01*
X181830904Y-79005793D01*
X181810666Y-79003333D01*
X181728460Y-79067762D01*
G37*
X181728460Y-79067762D02*
X181726000Y-79088000D01*
X181790429Y-79170206D01*
X181810666Y-79172667D01*
X181892873Y-79108237D01*
X181895333Y-79088000D01*
X181830904Y-79005793D01*
X181810666Y-79003333D01*
X181728460Y-79067762D01*
G36*
X182064666Y-76568002D02*
G01*
X181798073Y-76585404D01*
X181656545Y-76623119D01*
X181595977Y-76708877D01*
X181572263Y-76870409D01*
X181571533Y-76878044D01*
X181603454Y-77147408D01*
X181732050Y-77524329D01*
X181947101Y-77985035D01*
X182238383Y-78505758D01*
X182348940Y-78685833D01*
X182526990Y-78947303D01*
X182651448Y-79065137D01*
X182740894Y-79048879D01*
X182808819Y-78922120D01*
X182894333Y-78808570D01*
X182991147Y-78831001D01*
X183054109Y-78937352D01*
X182982464Y-79062319D01*
X182802829Y-79172745D01*
X182686237Y-79210805D01*
X182465354Y-79200480D01*
X182267391Y-79090734D01*
X182156219Y-78922322D01*
X182149333Y-78868208D01*
X182091894Y-78729638D01*
X182064666Y-78707000D01*
X181993130Y-78727336D01*
X181980000Y-78792964D01*
X182035711Y-78919383D01*
X182182198Y-79121135D01*
X182388489Y-79355862D01*
X182401507Y-79369461D01*
X182627665Y-79592876D01*
X182762295Y-79694064D01*
X182820019Y-79682727D01*
X182824840Y-79650321D01*
X182859638Y-79540873D01*
X182990104Y-79535087D01*
X183038333Y-79546101D01*
X183201373Y-79550344D01*
X183251803Y-79482962D01*
X183161292Y-79381836D01*
X183161222Y-79381792D01*
X183116768Y-79290918D01*
X183194446Y-79188801D01*
X183353463Y-79110338D01*
X183504629Y-79088000D01*
X183733649Y-79021775D01*
X183902728Y-78855943D01*
X183990115Y-78639763D01*
X183983274Y-78547203D01*
X182797563Y-78547203D01*
X182784333Y-78580000D01*
X182708251Y-78660770D01*
X182694670Y-78664667D01*
X182658304Y-78599161D01*
X182657333Y-78580000D01*
X182722421Y-78498587D01*
X182746997Y-78495333D01*
X182797563Y-78547203D01*
X183983274Y-78547203D01*
X183974056Y-78422498D01*
X183863833Y-78274526D01*
X183816914Y-78234706D01*
X183209170Y-78234706D01*
X183080666Y-78310975D01*
X182886866Y-78387426D01*
X182829352Y-78388857D01*
X182890575Y-78311020D01*
X182927208Y-78273839D01*
X183080111Y-78182138D01*
X183178184Y-78179514D01*
X183209170Y-78234706D01*
X183816914Y-78234706D01*
X183761995Y-78188097D01*
X183797561Y-78161909D01*
X183863833Y-78159359D01*
X183989629Y-78122478D01*
X184012000Y-78083569D01*
X184004187Y-78072000D01*
X183588666Y-78072000D01*
X183520090Y-78147114D01*
X183461666Y-78156667D01*
X183348995Y-78110949D01*
X183334666Y-78072000D01*
X183403243Y-77996885D01*
X183461666Y-77987333D01*
X183574338Y-78033051D01*
X183588666Y-78072000D01*
X184004187Y-78072000D01*
X183955020Y-77999201D01*
X183799654Y-77822541D01*
X183569264Y-77578991D01*
X183287212Y-77293951D01*
X183271166Y-77278071D01*
X182530333Y-76545671D01*
X182064666Y-76568002D01*
G37*
X182064666Y-76568002D02*
X181798073Y-76585404D01*
X181656545Y-76623119D01*
X181595977Y-76708877D01*
X181572263Y-76870409D01*
X181571533Y-76878044D01*
X181603454Y-77147408D01*
X181732050Y-77524329D01*
X181947101Y-77985035D01*
X182238383Y-78505758D01*
X182348940Y-78685833D01*
X182526990Y-78947303D01*
X182651448Y-79065137D01*
X182740894Y-79048879D01*
X182808819Y-78922120D01*
X182894333Y-78808570D01*
X182991147Y-78831001D01*
X183054109Y-78937352D01*
X182982464Y-79062319D01*
X182802829Y-79172745D01*
X182686237Y-79210805D01*
X182465354Y-79200480D01*
X182267391Y-79090734D01*
X182156219Y-78922322D01*
X182149333Y-78868208D01*
X182091894Y-78729638D01*
X182064666Y-78707000D01*
X181993130Y-78727336D01*
X181980000Y-78792964D01*
X182035711Y-78919383D01*
X182182198Y-79121135D01*
X182388489Y-79355862D01*
X182401507Y-79369461D01*
X182627665Y-79592876D01*
X182762295Y-79694064D01*
X182820019Y-79682727D01*
X182824840Y-79650321D01*
X182859638Y-79540873D01*
X182990104Y-79535087D01*
X183038333Y-79546101D01*
X183201373Y-79550344D01*
X183251803Y-79482962D01*
X183161292Y-79381836D01*
X183161222Y-79381792D01*
X183116768Y-79290918D01*
X183194446Y-79188801D01*
X183353463Y-79110338D01*
X183504629Y-79088000D01*
X183733649Y-79021775D01*
X183902728Y-78855943D01*
X183990115Y-78639763D01*
X183983274Y-78547203D01*
X182797563Y-78547203D01*
X182784333Y-78580000D01*
X182708251Y-78660770D01*
X182694670Y-78664667D01*
X182658304Y-78599161D01*
X182657333Y-78580000D01*
X182722421Y-78498587D01*
X182746997Y-78495333D01*
X182797563Y-78547203D01*
X183983274Y-78547203D01*
X183974056Y-78422498D01*
X183863833Y-78274526D01*
X183816914Y-78234706D01*
X183209170Y-78234706D01*
X183080666Y-78310975D01*
X182886866Y-78387426D01*
X182829352Y-78388857D01*
X182890575Y-78311020D01*
X182927208Y-78273839D01*
X183080111Y-78182138D01*
X183178184Y-78179514D01*
X183209170Y-78234706D01*
X183816914Y-78234706D01*
X183761995Y-78188097D01*
X183797561Y-78161909D01*
X183863833Y-78159359D01*
X183989629Y-78122478D01*
X184012000Y-78083569D01*
X184004187Y-78072000D01*
X183588666Y-78072000D01*
X183520090Y-78147114D01*
X183461666Y-78156667D01*
X183348995Y-78110949D01*
X183334666Y-78072000D01*
X183403243Y-77996885D01*
X183461666Y-77987333D01*
X183574338Y-78033051D01*
X183588666Y-78072000D01*
X184004187Y-78072000D01*
X183955020Y-77999201D01*
X183799654Y-77822541D01*
X183569264Y-77578991D01*
X183287212Y-77293951D01*
X183271166Y-77278071D01*
X182530333Y-76545671D01*
X182064666Y-76568002D01*
G36*
X181925824Y-79283287D02*
G01*
X181949394Y-79367423D01*
X182067862Y-79524318D01*
X182171911Y-79635511D01*
X182397236Y-79846490D01*
X182527394Y-79931132D01*
X182572439Y-79895775D01*
X182572666Y-79888137D01*
X182518210Y-79792886D01*
X182384166Y-79643450D01*
X182214518Y-79480959D01*
X182053252Y-79346544D01*
X181944355Y-79281334D01*
X181925824Y-79283287D01*
G37*
X181925824Y-79283287D02*
X181949394Y-79367423D01*
X182067862Y-79524318D01*
X182171911Y-79635511D01*
X182397236Y-79846490D01*
X182527394Y-79931132D01*
X182572439Y-79895775D01*
X182572666Y-79888137D01*
X182518210Y-79792886D01*
X182384166Y-79643450D01*
X182214518Y-79480959D01*
X182053252Y-79346544D01*
X181944355Y-79281334D01*
X181925824Y-79283287D01*
G36*
X182685555Y-79962889D02*
G01*
X182697178Y-80013223D01*
X182742000Y-80019333D01*
X182811690Y-79988355D01*
X182798444Y-79962889D01*
X182697965Y-79952756D01*
X182685555Y-79962889D01*
G37*
X182685555Y-79962889D02*
X182697178Y-80013223D01*
X182742000Y-80019333D01*
X182811690Y-79988355D01*
X182798444Y-79962889D01*
X182697965Y-79952756D01*
X182685555Y-79962889D01*
G36*
X182939555Y-80132222D02*
G01*
X182929422Y-80232702D01*
X182939555Y-80245111D01*
X182989890Y-80233489D01*
X182996000Y-80188667D01*
X182965022Y-80118976D01*
X182939555Y-80132222D01*
G37*
X182939555Y-80132222D02*
X182929422Y-80232702D01*
X182939555Y-80245111D01*
X182989890Y-80233489D01*
X182996000Y-80188667D01*
X182965022Y-80118976D01*
X182939555Y-80132222D01*
G36*
X183015383Y-80458484D02*
G01*
X183092940Y-80560026D01*
X183195007Y-80599107D01*
X183249785Y-80549725D01*
X183250000Y-80543447D01*
X183182160Y-80445614D01*
X183115925Y-80409334D01*
X183016670Y-80407038D01*
X183015383Y-80458484D01*
G37*
X183015383Y-80458484D02*
X183092940Y-80560026D01*
X183195007Y-80599107D01*
X183249785Y-80549725D01*
X183250000Y-80543447D01*
X183182160Y-80445614D01*
X183115925Y-80409334D01*
X183016670Y-80407038D01*
X183015383Y-80458484D01*
G36*
X183221120Y-80820134D02*
G01*
X183211415Y-80844428D01*
X183191955Y-80935590D01*
X183216764Y-80927458D01*
X183300529Y-80932366D01*
X183394104Y-81037514D01*
X183458430Y-81181011D01*
X183454449Y-81300967D01*
X183453490Y-81302563D01*
X183443675Y-81360371D01*
X183490544Y-81339983D01*
X183608171Y-81355128D01*
X183767869Y-81474763D01*
X183788501Y-81496234D01*
X183969936Y-81667263D01*
X184075071Y-81710872D01*
X184096666Y-81664648D01*
X184040393Y-81583507D01*
X183897322Y-81431280D01*
X183800333Y-81337150D01*
X183626804Y-81162137D01*
X183520138Y-81032682D01*
X183504000Y-80998122D01*
X183451018Y-80895629D01*
X183385223Y-80819795D01*
X183283170Y-80747417D01*
X183221120Y-80820134D01*
G37*
X183221120Y-80820134D02*
X183211415Y-80844428D01*
X183191955Y-80935590D01*
X183216764Y-80927458D01*
X183300529Y-80932366D01*
X183394104Y-81037514D01*
X183458430Y-81181011D01*
X183454449Y-81300967D01*
X183453490Y-81302563D01*
X183443675Y-81360371D01*
X183490544Y-81339983D01*
X183608171Y-81355128D01*
X183767869Y-81474763D01*
X183788501Y-81496234D01*
X183969936Y-81667263D01*
X184075071Y-81710872D01*
X184096666Y-81664648D01*
X184040393Y-81583507D01*
X183897322Y-81431280D01*
X183800333Y-81337150D01*
X183626804Y-81162137D01*
X183520138Y-81032682D01*
X183504000Y-80998122D01*
X183451018Y-80895629D01*
X183385223Y-80819795D01*
X183283170Y-80747417D01*
X183221120Y-80820134D01*
G36*
X184183793Y-81777096D02*
G01*
X184181333Y-81797333D01*
X184245762Y-81879540D01*
X184266000Y-81882000D01*
X184348206Y-81817571D01*
X184350666Y-81797333D01*
X184286237Y-81715127D01*
X184266000Y-81712667D01*
X184183793Y-81777096D01*
G37*
X184183793Y-81777096D02*
X184181333Y-81797333D01*
X184245762Y-81879540D01*
X184266000Y-81882000D01*
X184348206Y-81817571D01*
X184350666Y-81797333D01*
X184286237Y-81715127D01*
X184266000Y-81712667D01*
X184183793Y-81777096D01*
G36*
X186136825Y-70330323D02*
G01*
X186084646Y-70352696D01*
X185843434Y-70429088D01*
X185664013Y-70452000D01*
X185486797Y-70483125D01*
X185410071Y-70534933D01*
X185303157Y-70567006D01*
X185207797Y-70523553D01*
X185057280Y-70478145D01*
X184878157Y-70547488D01*
X184830722Y-70577357D01*
X184731174Y-70649187D01*
X184666207Y-70731471D01*
X184628446Y-70858900D01*
X184610516Y-71066164D01*
X184605041Y-71387956D01*
X184604666Y-71640631D01*
X184604666Y-72555787D01*
X184864998Y-72752727D01*
X185091539Y-72933220D01*
X185401190Y-73191807D01*
X185752095Y-73492311D01*
X186102399Y-73798554D01*
X186410249Y-74074359D01*
X186615500Y-74265768D01*
X186745081Y-74397585D01*
X186825697Y-74516971D01*
X186868765Y-74667601D01*
X186885700Y-74893148D01*
X186887918Y-75237286D01*
X186887666Y-75307034D01*
X186868485Y-75809139D01*
X186815921Y-76154940D01*
X186763666Y-76294000D01*
X186716154Y-76422125D01*
X186681611Y-76630363D01*
X186658431Y-76940680D01*
X186645013Y-77375043D01*
X186639753Y-77955420D01*
X186639667Y-77992659D01*
X186636666Y-79479652D01*
X186869822Y-79703030D01*
X187015420Y-79822062D01*
X187178171Y-79893468D01*
X187409772Y-79932061D01*
X187737655Y-79951703D01*
X188372333Y-79977000D01*
X188418403Y-83152000D01*
X192732666Y-83152000D01*
X192732667Y-80870997D01*
X192735795Y-80142474D01*
X192744929Y-79537022D01*
X192759693Y-79065021D01*
X192779710Y-78736851D01*
X192804602Y-78562894D01*
X192817333Y-78537667D01*
X192845361Y-78436127D01*
X192868082Y-78177085D01*
X192885034Y-77772300D01*
X192895756Y-77233534D01*
X192899786Y-76572547D01*
X192899760Y-76437170D01*
X192898080Y-74899846D01*
X191771808Y-74899846D01*
X191767642Y-74994747D01*
X191664472Y-74995079D01*
X191494679Y-74913102D01*
X191290643Y-74761072D01*
X191210869Y-74687486D01*
X191027508Y-74524562D01*
X190878904Y-74419725D01*
X190855356Y-74408813D01*
X190788350Y-74345467D01*
X190840555Y-74263928D01*
X190938669Y-74216614D01*
X191083663Y-74273613D01*
X191200388Y-74353934D01*
X191369160Y-74494940D01*
X191458439Y-74601173D01*
X191462666Y-74616589D01*
X191531467Y-74677641D01*
X191589666Y-74685333D01*
X191702622Y-74704605D01*
X191716666Y-74720742D01*
X191743113Y-74819863D01*
X191771808Y-74899846D01*
X192898080Y-74899846D01*
X192897521Y-74389000D01*
X192488963Y-73796333D01*
X192277938Y-73510482D01*
X192077969Y-73274272D01*
X191924166Y-73128235D01*
X191893136Y-73108500D01*
X191684467Y-72971706D01*
X191471488Y-72785920D01*
X191299030Y-72595977D01*
X191211924Y-72446713D01*
X191208666Y-72423947D01*
X191172453Y-72300851D01*
X191075814Y-72069581D01*
X190936751Y-71772041D01*
X190875129Y-71647535D01*
X190682811Y-71289985D01*
X190520852Y-71055764D01*
X190361462Y-70909166D01*
X190251793Y-70846643D01*
X190030154Y-70721299D01*
X189868426Y-70595161D01*
X189855297Y-70580562D01*
X189711084Y-70472105D01*
X189631966Y-70452000D01*
X189586108Y-70482474D01*
X189553495Y-70588416D01*
X189532171Y-70791600D01*
X189520182Y-71113805D01*
X189515570Y-71576805D01*
X189515333Y-71750743D01*
X189515333Y-73049486D01*
X189730984Y-73147743D01*
X189953422Y-73221648D01*
X190150395Y-73243654D01*
X190266198Y-73210268D01*
X190277333Y-73182001D01*
X190346292Y-73107499D01*
X190506240Y-73018553D01*
X190686785Y-72946643D01*
X190817533Y-72923244D01*
X190837660Y-72931438D01*
X190824470Y-73017995D01*
X190713845Y-73145018D01*
X190556334Y-73270663D01*
X190402484Y-73353083D01*
X190318806Y-73360954D01*
X190204058Y-73356619D01*
X190182639Y-73445240D01*
X190241159Y-73588298D01*
X190366230Y-73747276D01*
X190488421Y-73848919D01*
X190671246Y-73985921D01*
X190775514Y-74088259D01*
X190784755Y-74108836D01*
X190729263Y-74205285D01*
X190607839Y-74196272D01*
X190530559Y-74134068D01*
X190410433Y-74028256D01*
X190355393Y-74008000D01*
X190248338Y-73963949D01*
X190059676Y-73852672D01*
X189963593Y-73789341D01*
X189666755Y-73606648D01*
X189345988Y-73436029D01*
X189290077Y-73409677D01*
X189069155Y-73290951D01*
X188979585Y-73183627D01*
X188982452Y-73078002D01*
X188966670Y-72941079D01*
X188857620Y-72906465D01*
X188706599Y-72988297D01*
X188695582Y-72998951D01*
X188594285Y-73035172D01*
X188431416Y-72986779D01*
X188191749Y-72844949D01*
X187860057Y-72600862D01*
X187480540Y-72294955D01*
X187335177Y-72179645D01*
X187121581Y-72015296D01*
X187029339Y-71945413D01*
X186707931Y-71703160D01*
X186477166Y-71924246D01*
X186324687Y-72048132D01*
X186157842Y-72115152D01*
X185918320Y-72141818D01*
X185696467Y-72145333D01*
X185381157Y-72129994D01*
X185144131Y-72089219D01*
X185044933Y-72043733D01*
X184980065Y-71891202D01*
X184946880Y-71635646D01*
X184944354Y-71336968D01*
X184971462Y-71055072D01*
X185027179Y-70849861D01*
X185066305Y-70794010D01*
X185132319Y-70762295D01*
X185173623Y-70820371D01*
X185198796Y-70995825D01*
X185214471Y-71270476D01*
X185239666Y-71849000D01*
X185696784Y-71875029D01*
X185975072Y-71880733D01*
X186160893Y-71839549D01*
X186330024Y-71723781D01*
X186469942Y-71592452D01*
X186785983Y-71283846D01*
X186628408Y-70852740D01*
X186502949Y-70537238D01*
X186396572Y-70360977D01*
X186283217Y-70299994D01*
X186136825Y-70330323D01*
G37*
X186136825Y-70330323D02*
X186084646Y-70352696D01*
X185843434Y-70429088D01*
X185664013Y-70452000D01*
X185486797Y-70483125D01*
X185410071Y-70534933D01*
X185303157Y-70567006D01*
X185207797Y-70523553D01*
X185057280Y-70478145D01*
X184878157Y-70547488D01*
X184830722Y-70577357D01*
X184731174Y-70649187D01*
X184666207Y-70731471D01*
X184628446Y-70858900D01*
X184610516Y-71066164D01*
X184605041Y-71387956D01*
X184604666Y-71640631D01*
X184604666Y-72555787D01*
X184864998Y-72752727D01*
X185091539Y-72933220D01*
X185401190Y-73191807D01*
X185752095Y-73492311D01*
X186102399Y-73798554D01*
X186410249Y-74074359D01*
X186615500Y-74265768D01*
X186745081Y-74397585D01*
X186825697Y-74516971D01*
X186868765Y-74667601D01*
X186885700Y-74893148D01*
X186887918Y-75237286D01*
X186887666Y-75307034D01*
X186868485Y-75809139D01*
X186815921Y-76154940D01*
X186763666Y-76294000D01*
X186716154Y-76422125D01*
X186681611Y-76630363D01*
X186658431Y-76940680D01*
X186645013Y-77375043D01*
X186639753Y-77955420D01*
X186639667Y-77992659D01*
X186636666Y-79479652D01*
X186869822Y-79703030D01*
X187015420Y-79822062D01*
X187178171Y-79893468D01*
X187409772Y-79932061D01*
X187737655Y-79951703D01*
X188372333Y-79977000D01*
X188418403Y-83152000D01*
X192732666Y-83152000D01*
X192732667Y-80870997D01*
X192735795Y-80142474D01*
X192744929Y-79537022D01*
X192759693Y-79065021D01*
X192779710Y-78736851D01*
X192804602Y-78562894D01*
X192817333Y-78537667D01*
X192845361Y-78436127D01*
X192868082Y-78177085D01*
X192885034Y-77772300D01*
X192895756Y-77233534D01*
X192899786Y-76572547D01*
X192899760Y-76437170D01*
X192898080Y-74899846D01*
X191771808Y-74899846D01*
X191767642Y-74994747D01*
X191664472Y-74995079D01*
X191494679Y-74913102D01*
X191290643Y-74761072D01*
X191210869Y-74687486D01*
X191027508Y-74524562D01*
X190878904Y-74419725D01*
X190855356Y-74408813D01*
X190788350Y-74345467D01*
X190840555Y-74263928D01*
X190938669Y-74216614D01*
X191083663Y-74273613D01*
X191200388Y-74353934D01*
X191369160Y-74494940D01*
X191458439Y-74601173D01*
X191462666Y-74616589D01*
X191531467Y-74677641D01*
X191589666Y-74685333D01*
X191702622Y-74704605D01*
X191716666Y-74720742D01*
X191743113Y-74819863D01*
X191771808Y-74899846D01*
X192898080Y-74899846D01*
X192897521Y-74389000D01*
X192488963Y-73796333D01*
X192277938Y-73510482D01*
X192077969Y-73274272D01*
X191924166Y-73128235D01*
X191893136Y-73108500D01*
X191684467Y-72971706D01*
X191471488Y-72785920D01*
X191299030Y-72595977D01*
X191211924Y-72446713D01*
X191208666Y-72423947D01*
X191172453Y-72300851D01*
X191075814Y-72069581D01*
X190936751Y-71772041D01*
X190875129Y-71647535D01*
X190682811Y-71289985D01*
X190520852Y-71055764D01*
X190361462Y-70909166D01*
X190251793Y-70846643D01*
X190030154Y-70721299D01*
X189868426Y-70595161D01*
X189855297Y-70580562D01*
X189711084Y-70472105D01*
X189631966Y-70452000D01*
X189586108Y-70482474D01*
X189553495Y-70588416D01*
X189532171Y-70791600D01*
X189520182Y-71113805D01*
X189515570Y-71576805D01*
X189515333Y-71750743D01*
X189515333Y-73049486D01*
X189730984Y-73147743D01*
X189953422Y-73221648D01*
X190150395Y-73243654D01*
X190266198Y-73210268D01*
X190277333Y-73182001D01*
X190346292Y-73107499D01*
X190506240Y-73018553D01*
X190686785Y-72946643D01*
X190817533Y-72923244D01*
X190837660Y-72931438D01*
X190824470Y-73017995D01*
X190713845Y-73145018D01*
X190556334Y-73270663D01*
X190402484Y-73353083D01*
X190318806Y-73360954D01*
X190204058Y-73356619D01*
X190182639Y-73445240D01*
X190241159Y-73588298D01*
X190366230Y-73747276D01*
X190488421Y-73848919D01*
X190671246Y-73985921D01*
X190775514Y-74088259D01*
X190784755Y-74108836D01*
X190729263Y-74205285D01*
X190607839Y-74196272D01*
X190530559Y-74134068D01*
X190410433Y-74028256D01*
X190355393Y-74008000D01*
X190248338Y-73963949D01*
X190059676Y-73852672D01*
X189963593Y-73789341D01*
X189666755Y-73606648D01*
X189345988Y-73436029D01*
X189290077Y-73409677D01*
X189069155Y-73290951D01*
X188979585Y-73183627D01*
X188982452Y-73078002D01*
X188966670Y-72941079D01*
X188857620Y-72906465D01*
X188706599Y-72988297D01*
X188695582Y-72998951D01*
X188594285Y-73035172D01*
X188431416Y-72986779D01*
X188191749Y-72844949D01*
X187860057Y-72600862D01*
X187480540Y-72294955D01*
X187335177Y-72179645D01*
X187121581Y-72015296D01*
X187029339Y-71945413D01*
X186707931Y-71703160D01*
X186477166Y-71924246D01*
X186324687Y-72048132D01*
X186157842Y-72115152D01*
X185918320Y-72141818D01*
X185696467Y-72145333D01*
X185381157Y-72129994D01*
X185144131Y-72089219D01*
X185044933Y-72043733D01*
X184980065Y-71891202D01*
X184946880Y-71635646D01*
X184944354Y-71336968D01*
X184971462Y-71055072D01*
X185027179Y-70849861D01*
X185066305Y-70794010D01*
X185132319Y-70762295D01*
X185173623Y-70820371D01*
X185198796Y-70995825D01*
X185214471Y-71270476D01*
X185239666Y-71849000D01*
X185696784Y-71875029D01*
X185975072Y-71880733D01*
X186160893Y-71839549D01*
X186330024Y-71723781D01*
X186469942Y-71592452D01*
X186785983Y-71283846D01*
X186628408Y-70852740D01*
X186502949Y-70537238D01*
X186396572Y-70360977D01*
X186283217Y-70299994D01*
X186136825Y-70330323D01*
G36*
X184477264Y-81816383D02*
G01*
X184485268Y-81907040D01*
X184591185Y-82028049D01*
X184682454Y-82128359D01*
X184740497Y-82270758D01*
X184774981Y-82495990D01*
X184795574Y-82844795D01*
X184797612Y-82898000D01*
X184824199Y-83617667D01*
X184841433Y-82792167D01*
X184845001Y-82400544D01*
X184833767Y-82150740D01*
X184804353Y-82015626D01*
X184753386Y-81968072D01*
X184738722Y-81966667D01*
X184606182Y-81903179D01*
X184580980Y-81860833D01*
X184509621Y-81800297D01*
X184477264Y-81816383D01*
G37*
X184477264Y-81816383D02*
X184485268Y-81907040D01*
X184591185Y-82028049D01*
X184682454Y-82128359D01*
X184740497Y-82270758D01*
X184774981Y-82495990D01*
X184795574Y-82844795D01*
X184797612Y-82898000D01*
X184824199Y-83617667D01*
X184841433Y-82792167D01*
X184845001Y-82400544D01*
X184833767Y-82150740D01*
X184804353Y-82015626D01*
X184753386Y-81968072D01*
X184738722Y-81966667D01*
X184606182Y-81903179D01*
X184580980Y-81860833D01*
X184509621Y-81800297D01*
X184477264Y-81816383D01*
G36*
X192859011Y-73792252D02*
G01*
X192889925Y-73936575D01*
X192982518Y-74127613D01*
X193035898Y-74232279D01*
X193077080Y-74347500D01*
X193107635Y-74495602D01*
X193129134Y-74698911D01*
X193143149Y-74979755D01*
X193151249Y-75360459D01*
X193155007Y-75863350D01*
X193155993Y-76510754D01*
X193156000Y-76592908D01*
X193152791Y-77297864D01*
X193143408Y-77874636D01*
X193128220Y-78313714D01*
X193107593Y-78605585D01*
X193081896Y-78740737D01*
X193072672Y-78749333D01*
X193045950Y-78832323D01*
X193022079Y-79074617D01*
X193001510Y-79466203D01*
X192984695Y-79997071D01*
X192972083Y-80657207D01*
X192966839Y-81098833D01*
X192944333Y-83448333D01*
X185324333Y-83448333D01*
X185276549Y-82559333D01*
X185261618Y-82060030D01*
X185280130Y-81719974D01*
X185333309Y-81532171D01*
X185422381Y-81489628D01*
X185460926Y-81506929D01*
X185493467Y-81606527D01*
X185518897Y-81835633D01*
X185533683Y-82154462D01*
X185536000Y-82352663D01*
X185536000Y-83152000D01*
X188164761Y-83152000D01*
X188141547Y-81733833D01*
X188118333Y-80315667D01*
X187652666Y-80290192D01*
X187399527Y-80267378D01*
X187212743Y-80213389D01*
X187036535Y-80099864D01*
X186815126Y-79898444D01*
X186742500Y-79827417D01*
X186514714Y-79597935D01*
X186382111Y-79430667D01*
X186318939Y-79269300D01*
X186299446Y-79057522D01*
X186298000Y-78855401D01*
X186286672Y-78537875D01*
X186247652Y-78354951D01*
X186173385Y-78273102D01*
X186166125Y-78270080D01*
X186096696Y-78219566D01*
X186170541Y-78153439D01*
X186229625Y-78122624D01*
X186332439Y-78029667D01*
X185874666Y-78029667D01*
X185832333Y-78072000D01*
X185812091Y-78051758D01*
X185668612Y-78051758D01*
X185585389Y-78065316D01*
X185475575Y-78049749D01*
X185474264Y-78020847D01*
X185587581Y-78000636D01*
X185636541Y-78014163D01*
X185668612Y-78051758D01*
X185812091Y-78051758D01*
X185790000Y-78029667D01*
X185832333Y-77987333D01*
X185874666Y-78029667D01*
X186332439Y-78029667D01*
X186381471Y-77985336D01*
X186435049Y-77790304D01*
X186261392Y-77790304D01*
X186195011Y-77883141D01*
X186126327Y-77902667D01*
X186083949Y-77840442D01*
X186097862Y-77776153D01*
X186178209Y-77690611D01*
X186223586Y-77697336D01*
X186261392Y-77790304D01*
X186435049Y-77790304D01*
X186448265Y-77742197D01*
X186451277Y-77710220D01*
X186458113Y-77503554D01*
X186407612Y-77415048D01*
X186263806Y-77394883D01*
X186223441Y-77394667D01*
X186026012Y-77369073D01*
X185917000Y-77310000D01*
X185776826Y-77228158D01*
X185549153Y-77230648D01*
X185287710Y-77308376D01*
X185046226Y-77452248D01*
X185038387Y-77458711D01*
X184866777Y-77615050D01*
X184808202Y-77731146D01*
X184839928Y-77867946D01*
X184864676Y-77924378D01*
X185018087Y-78116302D01*
X185163593Y-78156667D01*
X185338084Y-78190900D01*
X185410364Y-78243541D01*
X185527721Y-78303727D01*
X185648194Y-78307041D01*
X185792588Y-78320989D01*
X185832333Y-78368333D01*
X185753163Y-78410887D01*
X185534970Y-78429388D01*
X185262533Y-78424119D01*
X184957501Y-78412830D01*
X184776790Y-78426197D01*
X184675805Y-78476975D01*
X184609950Y-78577918D01*
X184592222Y-78615835D01*
X184477575Y-78775191D01*
X184336522Y-78787177D01*
X184205120Y-78783590D01*
X184197318Y-78872597D01*
X184282933Y-78986400D01*
X184331414Y-79075547D01*
X184304100Y-79097000D01*
X184157533Y-79110248D01*
X184054333Y-79118166D01*
X183923715Y-79178148D01*
X183905168Y-79320833D01*
X183892585Y-79455056D01*
X183784554Y-79505880D01*
X183663156Y-79511333D01*
X183484519Y-79525317D01*
X183433195Y-79598847D01*
X183458764Y-79744167D01*
X183563895Y-79989326D01*
X183679609Y-80151790D01*
X183799468Y-80305711D01*
X183843071Y-80405790D01*
X183907714Y-80544694D01*
X184073364Y-80737996D01*
X184299122Y-80947702D01*
X184544090Y-81135818D01*
X184767225Y-81264289D01*
X185010585Y-81385203D01*
X185103753Y-81479300D01*
X185060168Y-81563334D01*
X185026020Y-81586890D01*
X184901809Y-81591428D01*
X184715273Y-81537989D01*
X184537406Y-81454646D01*
X184439198Y-81369467D01*
X184435333Y-81353332D01*
X184366900Y-81295701D01*
X184314519Y-81289333D01*
X184203552Y-81226040D01*
X184035060Y-81061198D01*
X183870019Y-80861714D01*
X183590270Y-80495132D01*
X183395555Y-80249577D01*
X183270949Y-80109392D01*
X183201530Y-80058919D01*
X183172374Y-80082501D01*
X183168009Y-80125167D01*
X183206850Y-80250693D01*
X183252728Y-80273333D01*
X183352424Y-80341785D01*
X183400895Y-80427005D01*
X183568003Y-80717529D01*
X183833304Y-81040728D01*
X184147840Y-81345488D01*
X184462655Y-81580694D01*
X184556346Y-81633372D01*
X184985666Y-81850410D01*
X185010374Y-82602629D01*
X185031319Y-82952731D01*
X185066101Y-83243768D01*
X185108548Y-83429917D01*
X185126574Y-83465091D01*
X185180537Y-83491899D01*
X185302468Y-83514258D01*
X185505005Y-83532514D01*
X185800785Y-83547015D01*
X186202446Y-83558108D01*
X186722625Y-83566139D01*
X187373960Y-83571455D01*
X188169088Y-83574404D01*
X189120646Y-83575333D01*
X189141721Y-83575333D01*
X190058658Y-83575117D01*
X190820941Y-83574065D01*
X191443246Y-83571574D01*
X191940254Y-83567039D01*
X192326642Y-83559854D01*
X192617088Y-83549417D01*
X192826272Y-83535122D01*
X192968870Y-83516365D01*
X193059563Y-83492541D01*
X193113027Y-83463047D01*
X193143941Y-83427277D01*
X193153796Y-83410117D01*
X193176009Y-83281734D01*
X193194050Y-82987081D01*
X193207925Y-82525681D01*
X193217641Y-81897055D01*
X193223205Y-81100724D01*
X193224622Y-80136211D01*
X193221901Y-79003037D01*
X193220275Y-78629433D01*
X193215163Y-77623186D01*
X193209860Y-76772731D01*
X193203887Y-76064525D01*
X193196767Y-75485027D01*
X193188021Y-75020696D01*
X193177171Y-74657989D01*
X193163740Y-74383366D01*
X193147248Y-74183284D01*
X193127219Y-74044202D01*
X193103175Y-73952578D01*
X193074636Y-73894870D01*
X193052182Y-73867855D01*
X192914670Y-73763480D01*
X192859011Y-73792252D01*
G37*
X192859011Y-73792252D02*
X192889925Y-73936575D01*
X192982518Y-74127613D01*
X193035898Y-74232279D01*
X193077080Y-74347500D01*
X193107635Y-74495602D01*
X193129134Y-74698911D01*
X193143149Y-74979755D01*
X193151249Y-75360459D01*
X193155007Y-75863350D01*
X193155993Y-76510754D01*
X193156000Y-76592908D01*
X193152791Y-77297864D01*
X193143408Y-77874636D01*
X193128220Y-78313714D01*
X193107593Y-78605585D01*
X193081896Y-78740737D01*
X193072672Y-78749333D01*
X193045950Y-78832323D01*
X193022079Y-79074617D01*
X193001510Y-79466203D01*
X192984695Y-79997071D01*
X192972083Y-80657207D01*
X192966839Y-81098833D01*
X192944333Y-83448333D01*
X185324333Y-83448333D01*
X185276549Y-82559333D01*
X185261618Y-82060030D01*
X185280130Y-81719974D01*
X185333309Y-81532171D01*
X185422381Y-81489628D01*
X185460926Y-81506929D01*
X185493467Y-81606527D01*
X185518897Y-81835633D01*
X185533683Y-82154462D01*
X185536000Y-82352663D01*
X185536000Y-83152000D01*
X188164761Y-83152000D01*
X188141547Y-81733833D01*
X188118333Y-80315667D01*
X187652666Y-80290192D01*
X187399527Y-80267378D01*
X187212743Y-80213389D01*
X187036535Y-80099864D01*
X186815126Y-79898444D01*
X186742500Y-79827417D01*
X186514714Y-79597935D01*
X186382111Y-79430667D01*
X186318939Y-79269300D01*
X186299446Y-79057522D01*
X186298000Y-78855401D01*
X186286672Y-78537875D01*
X186247652Y-78354951D01*
X186173385Y-78273102D01*
X186166125Y-78270080D01*
X186096696Y-78219566D01*
X186170541Y-78153439D01*
X186229625Y-78122624D01*
X186332439Y-78029667D01*
X185874666Y-78029667D01*
X185832333Y-78072000D01*
X185812091Y-78051758D01*
X185668612Y-78051758D01*
X185585389Y-78065316D01*
X185475575Y-78049749D01*
X185474264Y-78020847D01*
X185587581Y-78000636D01*
X185636541Y-78014163D01*
X185668612Y-78051758D01*
X185812091Y-78051758D01*
X185790000Y-78029667D01*
X185832333Y-77987333D01*
X185874666Y-78029667D01*
X186332439Y-78029667D01*
X186381471Y-77985336D01*
X186435049Y-77790304D01*
X186261392Y-77790304D01*
X186195011Y-77883141D01*
X186126327Y-77902667D01*
X186083949Y-77840442D01*
X186097862Y-77776153D01*
X186178209Y-77690611D01*
X186223586Y-77697336D01*
X186261392Y-77790304D01*
X186435049Y-77790304D01*
X186448265Y-77742197D01*
X186451277Y-77710220D01*
X186458113Y-77503554D01*
X186407612Y-77415048D01*
X186263806Y-77394883D01*
X186223441Y-77394667D01*
X186026012Y-77369073D01*
X185917000Y-77310000D01*
X185776826Y-77228158D01*
X185549153Y-77230648D01*
X185287710Y-77308376D01*
X185046226Y-77452248D01*
X185038387Y-77458711D01*
X184866777Y-77615050D01*
X184808202Y-77731146D01*
X184839928Y-77867946D01*
X184864676Y-77924378D01*
X185018087Y-78116302D01*
X185163593Y-78156667D01*
X185338084Y-78190900D01*
X185410364Y-78243541D01*
X185527721Y-78303727D01*
X185648194Y-78307041D01*
X185792588Y-78320989D01*
X185832333Y-78368333D01*
X185753163Y-78410887D01*
X185534970Y-78429388D01*
X185262533Y-78424119D01*
X184957501Y-78412830D01*
X184776790Y-78426197D01*
X184675805Y-78476975D01*
X184609950Y-78577918D01*
X184592222Y-78615835D01*
X184477575Y-78775191D01*
X184336522Y-78787177D01*
X184205120Y-78783590D01*
X184197318Y-78872597D01*
X184282933Y-78986400D01*
X184331414Y-79075547D01*
X184304100Y-79097000D01*
X184157533Y-79110248D01*
X184054333Y-79118166D01*
X183923715Y-79178148D01*
X183905168Y-79320833D01*
X183892585Y-79455056D01*
X183784554Y-79505880D01*
X183663156Y-79511333D01*
X183484519Y-79525317D01*
X183433195Y-79598847D01*
X183458764Y-79744167D01*
X183563895Y-79989326D01*
X183679609Y-80151790D01*
X183799468Y-80305711D01*
X183843071Y-80405790D01*
X183907714Y-80544694D01*
X184073364Y-80737996D01*
X184299122Y-80947702D01*
X184544090Y-81135818D01*
X184767225Y-81264289D01*
X185010585Y-81385203D01*
X185103753Y-81479300D01*
X185060168Y-81563334D01*
X185026020Y-81586890D01*
X184901809Y-81591428D01*
X184715273Y-81537989D01*
X184537406Y-81454646D01*
X184439198Y-81369467D01*
X184435333Y-81353332D01*
X184366900Y-81295701D01*
X184314519Y-81289333D01*
X184203552Y-81226040D01*
X184035060Y-81061198D01*
X183870019Y-80861714D01*
X183590270Y-80495132D01*
X183395555Y-80249577D01*
X183270949Y-80109392D01*
X183201530Y-80058919D01*
X183172374Y-80082501D01*
X183168009Y-80125167D01*
X183206850Y-80250693D01*
X183252728Y-80273333D01*
X183352424Y-80341785D01*
X183400895Y-80427005D01*
X183568003Y-80717529D01*
X183833304Y-81040728D01*
X184147840Y-81345488D01*
X184462655Y-81580694D01*
X184556346Y-81633372D01*
X184985666Y-81850410D01*
X185010374Y-82602629D01*
X185031319Y-82952731D01*
X185066101Y-83243768D01*
X185108548Y-83429917D01*
X185126574Y-83465091D01*
X185180537Y-83491899D01*
X185302468Y-83514258D01*
X185505005Y-83532514D01*
X185800785Y-83547015D01*
X186202446Y-83558108D01*
X186722625Y-83566139D01*
X187373960Y-83571455D01*
X188169088Y-83574404D01*
X189120646Y-83575333D01*
X189141721Y-83575333D01*
X190058658Y-83575117D01*
X190820941Y-83574065D01*
X191443246Y-83571574D01*
X191940254Y-83567039D01*
X192326642Y-83559854D01*
X192617088Y-83549417D01*
X192826272Y-83535122D01*
X192968870Y-83516365D01*
X193059563Y-83492541D01*
X193113027Y-83463047D01*
X193143941Y-83427277D01*
X193153796Y-83410117D01*
X193176009Y-83281734D01*
X193194050Y-82987081D01*
X193207925Y-82525681D01*
X193217641Y-81897055D01*
X193223205Y-81100724D01*
X193224622Y-80136211D01*
X193221901Y-79003037D01*
X193220275Y-78629433D01*
X193215163Y-77623186D01*
X193209860Y-76772731D01*
X193203887Y-76064525D01*
X193196767Y-75485027D01*
X193188021Y-75020696D01*
X193177171Y-74657989D01*
X193163740Y-74383366D01*
X193147248Y-74183284D01*
X193127219Y-74044202D01*
X193103175Y-73952578D01*
X193074636Y-73894870D01*
X193052182Y-73867855D01*
X192914670Y-73763480D01*
X192859011Y-73792252D01*
D10*
%TO.C,J4*%
X139400000Y-127730000D02*
X139400000Y-123730000D01*
X139400000Y-123730000D02*
X168400000Y-123730000D01*
X168400000Y-123730000D02*
X168400000Y-127730000D01*
X168400000Y-127730000D02*
X139400000Y-127730000D01*
X139400000Y-128730000D02*
X139400000Y-127730000D01*
X139400000Y-127730000D02*
X168400000Y-127730000D01*
X168400000Y-127730000D02*
X168400000Y-128730000D01*
X168400000Y-128730000D02*
X139400000Y-128730000D01*
X139400000Y-123730000D02*
X139400000Y-122730000D01*
X139400000Y-122730000D02*
X168400000Y-122730000D01*
X168400000Y-122730000D02*
X168400000Y-123730000D01*
X138128333Y-125952380D02*
X138128333Y-126666666D01*
X138175952Y-126809523D01*
X138271190Y-126904761D01*
X138414047Y-126952380D01*
X138509285Y-126952380D01*
X137223571Y-126285714D02*
X137223571Y-126952380D01*
X137461666Y-125904761D02*
X137699761Y-126619047D01*
X137080714Y-126619047D01*
%TD*%
%LPC*%
D13*
%TO.C,CON1*%
X116840000Y-66040000D03*
X116840000Y-68580000D03*
X116840000Y-71120000D03*
X119380000Y-66040000D03*
X119380000Y-68580000D03*
G36*
G01*
X120230000Y-70520000D02*
X120230000Y-71720000D01*
G75*
G02*
X119980000Y-71970000I-250000J0D01*
G01*
X118780000Y-71970000D01*
G75*
G02*
X118530000Y-71720000I0J250000D01*
G01*
X118530000Y-70520000D01*
G75*
G02*
X118780000Y-70270000I250000J0D01*
G01*
X119980000Y-70270000D01*
G75*
G02*
X120230000Y-70520000I0J-250000D01*
G01*
G37*
%TD*%
D14*
%TO.C,J5*%
X157139640Y-63080900D03*
X152740360Y-63080900D03*
%TD*%
D15*
%TO.C,J7*%
X170140900Y-62522540D03*
X165140900Y-62522540D03*
D16*
X171140900Y-59822540D03*
X164140900Y-59822540D03*
%TD*%
D17*
%TO.C,J1*%
X124460000Y-118110000D03*
D18*
X124460000Y-120650000D03*
%TD*%
D19*
%TO.C,J2*%
X133350000Y-120650000D03*
D20*
X133350000Y-118110000D03*
X135890000Y-120650000D03*
X135890000Y-118110000D03*
X138430000Y-120650000D03*
X138430000Y-118110000D03*
X140970000Y-120650000D03*
X140970000Y-118110000D03*
X143510000Y-120650000D03*
X143510000Y-118110000D03*
X146050000Y-120650000D03*
X146050000Y-118110000D03*
X148590000Y-120650000D03*
X148590000Y-118110000D03*
X151130000Y-120650000D03*
X151130000Y-118110000D03*
X153670000Y-120650000D03*
X153670000Y-118110000D03*
X156210000Y-120650000D03*
X156210000Y-118110000D03*
X158750000Y-120650000D03*
X158750000Y-118110000D03*
X161290000Y-120650000D03*
X161290000Y-118110000D03*
X163830000Y-120650000D03*
X163830000Y-118110000D03*
X166370000Y-120650000D03*
X166370000Y-118110000D03*
X168910000Y-120650000D03*
X168910000Y-118110000D03*
X171450000Y-120650000D03*
X171450000Y-118110000D03*
X173990000Y-120650000D03*
X173990000Y-118110000D03*
%TD*%
D17*
%TO.C,J3*%
X173990000Y-88900000D03*
D18*
X176530000Y-88900000D03*
X179070000Y-88900000D03*
X181610000Y-88900000D03*
%TD*%
D21*
%TO.C,J4*%
X142400000Y-126730000D03*
X144400000Y-126730000D03*
X146400000Y-126730000D03*
X148400000Y-126730000D03*
X150400000Y-126730000D03*
X152400000Y-126730000D03*
X154400000Y-126730000D03*
X156400000Y-126730000D03*
X158400000Y-126730000D03*
X160400000Y-126730000D03*
X162400000Y-126730000D03*
X164400000Y-126730000D03*
X166400000Y-126730000D03*
D22*
X141400000Y-124730000D03*
D21*
X143400000Y-124730000D03*
X145400000Y-124730000D03*
X147400000Y-124730000D03*
X149400000Y-124730000D03*
X151400000Y-124730000D03*
X153400000Y-124730000D03*
X155400000Y-124730000D03*
X157400000Y-124730000D03*
X159400000Y-124730000D03*
X161400000Y-124730000D03*
X163400000Y-124730000D03*
X165400000Y-124730000D03*
%TD*%
D17*
%TO.C,J6*%
X177800000Y-68580000D03*
D18*
X180340000Y-68580000D03*
X182880000Y-68580000D03*
X185420000Y-68580000D03*
%TD*%
D17*
%TO.C,P1*%
X160020000Y-78740000D03*
D18*
X157480000Y-78740000D03*
X154940000Y-78740000D03*
%TD*%
D23*
%TO.C,P2*%
X124460000Y-113030000D03*
%TD*%
%TO.C,P3*%
X181610000Y-113030000D03*
%TD*%
%TO.C,P4*%
X196850000Y-62230000D03*
%TD*%
%TO.C,P5*%
X107950000Y-61722000D03*
%TD*%
D24*
%TO.C,Y1*%
X147320000Y-80010000D03*
X147320000Y-84890000D03*
%TD*%
D25*
X143878700Y-80563400D03*
X131928200Y-87284000D03*
X140085000Y-66363400D03*
X129350200Y-78300000D03*
X131409500Y-79750000D03*
X134072300Y-76990600D03*
X151275000Y-98473700D03*
X168596400Y-98483800D03*
X156141500Y-106125100D03*
X138229600Y-98569600D03*
X139164700Y-83545700D03*
X139757400Y-73565400D03*
X136676900Y-84146300D03*
X131926900Y-72219500D03*
X139160000Y-85463700D03*
X144647800Y-67030000D03*
X138821100Y-76594800D03*
X136822100Y-85064900D03*
X147698700Y-104140000D03*
X146030000Y-108696000D03*
X122579800Y-95444200D03*
X135997800Y-76991400D03*
X131209500Y-95494800D03*
X135736700Y-80739100D03*
X155202600Y-95998400D03*
X143927200Y-84550000D03*
X158853100Y-96511100D03*
X139615000Y-79616200D03*
X126010000Y-101991100D03*
X135295300Y-79624500D03*
X133541800Y-102495900D03*
X139986300Y-80376800D03*
X157534200Y-69450300D03*
X156479200Y-68046100D03*
M02*
