%TF.GenerationSoftware,KiCad,Pcbnew,4.0.2+dfsg1-stable*%
%TF.CreationDate,2019-02-28T19:11:37+01:00*%
%TF.ProjectId,usbavrfloppy,757362617672666C6F7070792E6B6963,rev?*%
%TF.FileFunction,Soldermask,Top*%
%FSLAX46Y46*%
G04 Gerber Fmt 4.6, Leading zero omitted, Abs format (unit mm)*
G04 Created by KiCad (PCBNEW 4.0.2+dfsg1-stable) date Thu 28 Feb 2019 19:11:37 CET*
%MOMM*%
G01*
G04 APERTURE LIST*
%ADD10C,0.100000*%
%ADD11R,0.400000X3.000000*%
%ADD12O,1.250000X0.950000*%
%ADD13O,1.000000X1.550000*%
%ADD14R,0.500380X3.000000*%
%ADD15R,1.998980X2.499360*%
%ADD16C,0.899160*%
%ADD17C,4.064000*%
%ADD18R,1.300000X1.500000*%
%ADD19R,1.500000X1.300000*%
%ADD20R,1.198880X1.198880*%
%ADD21R,1.600000X0.550000*%
%ADD22R,0.550000X1.600000*%
%ADD23R,1.500000X1.250000*%
%ADD24R,1.250000X1.500000*%
%ADD25R,1.600200X2.999740*%
%ADD26R,1.727200X1.727200*%
%ADD27O,1.727200X1.727200*%
%ADD28R,2.032000X2.032000*%
%ADD29O,2.032000X2.032000*%
%ADD30R,1.727200X2.032000*%
%ADD31O,1.727200X2.032000*%
%ADD32R,0.800100X0.800100*%
%ADD33R,0.450000X1.750000*%
%ADD34R,2.100580X5.600700*%
%ADD35R,2.180000X1.600000*%
%ADD36R,1.520000X1.520000*%
%ADD37C,1.520000*%
%ADD38C,0.600000*%
G04 APERTURE END LIST*
D10*
D11*
X168945560Y-63350140D03*
X168290900Y-63350000D03*
X167640900Y-63350000D03*
X166990900Y-63350000D03*
X166340900Y-63350000D03*
D12*
X170140900Y-62522540D03*
X165140900Y-62522540D03*
D13*
X171140900Y-59822540D03*
X164140900Y-59822540D03*
D14*
X155740100Y-66027300D03*
D15*
X159390080Y-62151260D03*
D14*
X156540200Y-66027300D03*
X154940000Y-66027300D03*
X154139900Y-66027300D03*
X153339800Y-66027300D03*
D15*
X159390080Y-65580260D03*
X150489920Y-65580260D03*
X150495000Y-62103000D03*
D16*
X157139640Y-63080900D03*
X152740360Y-63080900D03*
D17*
X107950000Y-61722000D03*
X181610000Y-62230000D03*
X181610000Y-113030000D03*
X124460000Y-113030000D03*
D18*
X107315000Y-77169000D03*
X107315000Y-74469000D03*
D19*
X125904000Y-71628000D03*
X128604000Y-71628000D03*
D18*
X145161000Y-70565000D03*
X145161000Y-67865000D03*
D19*
X125269000Y-69088000D03*
X127969000Y-69088000D03*
X150034000Y-74168000D03*
X152734000Y-74168000D03*
D18*
X166624000Y-73326000D03*
X166624000Y-76026000D03*
D20*
X157954980Y-73660000D03*
X160053020Y-73660000D03*
X166624000Y-78706980D03*
X166624000Y-80805020D03*
D21*
X141410000Y-85350000D03*
X141410000Y-84550000D03*
X141410000Y-83750000D03*
X141410000Y-82950000D03*
X141410000Y-82150000D03*
X141410000Y-81350000D03*
X141410000Y-80550000D03*
X141410000Y-79750000D03*
D22*
X139960000Y-78300000D03*
X139160000Y-78300000D03*
X138360000Y-78300000D03*
X137560000Y-78300000D03*
X136760000Y-78300000D03*
X135960000Y-78300000D03*
X135160000Y-78300000D03*
X134360000Y-78300000D03*
D21*
X132910000Y-79750000D03*
X132910000Y-80550000D03*
X132910000Y-81350000D03*
X132910000Y-82150000D03*
X132910000Y-82950000D03*
X132910000Y-83750000D03*
X132910000Y-84550000D03*
X132910000Y-85350000D03*
D22*
X134360000Y-86800000D03*
X135160000Y-86800000D03*
X135960000Y-86800000D03*
X136760000Y-86800000D03*
X137560000Y-86800000D03*
X138360000Y-86800000D03*
X139160000Y-86800000D03*
X139960000Y-86800000D03*
D23*
X140990000Y-90170000D03*
X143490000Y-90170000D03*
X140990000Y-74930000D03*
X143490000Y-74930000D03*
D24*
X121920000Y-81300000D03*
X121920000Y-83800000D03*
D23*
X121940000Y-88900000D03*
X124440000Y-88900000D03*
D25*
X127000000Y-80350360D03*
X127000000Y-84749640D03*
D23*
X125710000Y-76200000D03*
X123210000Y-76200000D03*
D26*
X119380000Y-71120000D03*
D27*
X116840000Y-71120000D03*
X119380000Y-68580000D03*
X116840000Y-68580000D03*
X119380000Y-66040000D03*
X116840000Y-66040000D03*
D20*
X123410980Y-66040000D03*
X125509020Y-66040000D03*
D28*
X124460000Y-118110000D03*
D29*
X124460000Y-120650000D03*
D30*
X173990000Y-88900000D03*
D31*
X176530000Y-88900000D03*
X179070000Y-88900000D03*
X181610000Y-88900000D03*
D30*
X189230000Y-71120000D03*
D31*
X191770000Y-71120000D03*
X194310000Y-71120000D03*
X196850000Y-71120000D03*
D30*
X160020000Y-78740000D03*
D31*
X157480000Y-78740000D03*
X154940000Y-78740000D03*
D32*
X123459240Y-95570000D03*
X123459240Y-97470000D03*
X125458220Y-96520000D03*
X132349240Y-95570000D03*
X132349240Y-97470000D03*
X134348220Y-96520000D03*
X141239240Y-95570000D03*
X141239240Y-97470000D03*
X143238220Y-96520000D03*
X150129240Y-95570000D03*
X150129240Y-97470000D03*
X152128220Y-96520000D03*
X159019240Y-95570000D03*
X159019240Y-97470000D03*
X161018220Y-96520000D03*
X167909240Y-95570000D03*
X167909240Y-97470000D03*
X169908220Y-96520000D03*
X176799240Y-95570000D03*
X176799240Y-97470000D03*
X178798220Y-96520000D03*
X126730760Y-107630000D03*
X126730760Y-105730000D03*
X124731780Y-106680000D03*
X136890760Y-107630000D03*
X136890760Y-105730000D03*
X134891780Y-106680000D03*
X148320760Y-107630000D03*
X148320760Y-105730000D03*
X146321780Y-106680000D03*
D18*
X129540000Y-66120000D03*
X129540000Y-63420000D03*
D19*
X127080000Y-100330000D03*
X124380000Y-100330000D03*
D18*
X128270000Y-95170000D03*
X128270000Y-97870000D03*
D19*
X134700000Y-100330000D03*
X132000000Y-100330000D03*
X143590000Y-100330000D03*
X140890000Y-100330000D03*
X152480000Y-100330000D03*
X149780000Y-100330000D03*
X161370000Y-100330000D03*
X158670000Y-100330000D03*
X170260000Y-100330000D03*
X167560000Y-100330000D03*
D18*
X137160000Y-95170000D03*
X137160000Y-97870000D03*
X146050000Y-95170000D03*
X146050000Y-97870000D03*
X154940000Y-95170000D03*
X154940000Y-97870000D03*
X163830000Y-95170000D03*
X163830000Y-97870000D03*
X172720000Y-95170000D03*
X172720000Y-97870000D03*
D19*
X179150000Y-100330000D03*
X176450000Y-100330000D03*
X124380000Y-102870000D03*
X127080000Y-102870000D03*
X135970000Y-102870000D03*
X133270000Y-102870000D03*
X146130000Y-102870000D03*
X143430000Y-102870000D03*
D18*
X181610000Y-95170000D03*
X181610000Y-97870000D03*
X129540000Y-105330000D03*
X129540000Y-108030000D03*
X140970000Y-105330000D03*
X140970000Y-108030000D03*
X152400000Y-105330000D03*
X152400000Y-108030000D03*
D33*
X132935000Y-72180000D03*
X133585000Y-72180000D03*
X134235000Y-72180000D03*
X134885000Y-72180000D03*
X135535000Y-72180000D03*
X136185000Y-72180000D03*
X136835000Y-72180000D03*
X137485000Y-72180000D03*
X138135000Y-72180000D03*
X138785000Y-72180000D03*
X139435000Y-72180000D03*
X140085000Y-72180000D03*
X140735000Y-72180000D03*
X141385000Y-72180000D03*
X141385000Y-64980000D03*
X140735000Y-64980000D03*
X140085000Y-64980000D03*
X139435000Y-64980000D03*
X138785000Y-64980000D03*
X138135000Y-64980000D03*
X137485000Y-64980000D03*
X136835000Y-64980000D03*
X136185000Y-64980000D03*
X135535000Y-64980000D03*
X134885000Y-64980000D03*
X134235000Y-64980000D03*
X133585000Y-64980000D03*
X132935000Y-64980000D03*
D34*
X147320000Y-77701140D03*
X147320000Y-87398860D03*
D35*
X109964000Y-76454000D03*
X119144000Y-76454000D03*
D36*
X133350000Y-120650000D03*
D37*
X133350000Y-118110000D03*
X135890000Y-120650000D03*
X135890000Y-118110000D03*
X138430000Y-120650000D03*
X138430000Y-118110000D03*
X140970000Y-120650000D03*
X140970000Y-118110000D03*
X143510000Y-120650000D03*
X143510000Y-118110000D03*
X146050000Y-120650000D03*
X146050000Y-118110000D03*
X148590000Y-120650000D03*
X148590000Y-118110000D03*
X151130000Y-120650000D03*
X151130000Y-118110000D03*
X153670000Y-120650000D03*
X153670000Y-118110000D03*
X156210000Y-120650000D03*
X156210000Y-118110000D03*
X158750000Y-120650000D03*
X158750000Y-118110000D03*
X161290000Y-120650000D03*
X161290000Y-118110000D03*
X163830000Y-120650000D03*
X163830000Y-118110000D03*
X166370000Y-120650000D03*
X166370000Y-118110000D03*
X168910000Y-120650000D03*
X168910000Y-118110000D03*
X171450000Y-120650000D03*
X171450000Y-118110000D03*
X173990000Y-120650000D03*
X173990000Y-118110000D03*
D38*
X123046000Y-83674200D03*
X117348000Y-74803000D03*
X120747000Y-76581200D03*
X123210000Y-77371000D03*
X131607000Y-83077600D03*
X128651000Y-84836000D03*
X136779000Y-74041000D03*
X136906000Y-75565000D03*
X134816000Y-63599000D03*
X139304000Y-63599000D03*
X128342000Y-63439200D03*
X131191000Y-66421000D03*
X137087000Y-70788100D03*
X137322000Y-66367300D03*
X153478000Y-64719200D03*
X140095000Y-82150000D03*
X140049000Y-83750000D03*
X127000000Y-82720900D03*
X139726000Y-90130500D03*
X161185000Y-74045500D03*
X167736000Y-80544500D03*
X122603000Y-90065400D03*
X137643000Y-62684000D03*
X125470000Y-86347700D03*
X125046000Y-77879900D03*
X131264000Y-79654900D03*
X126432000Y-73828600D03*
X152402000Y-98236000D03*
X170651000Y-97700100D03*
X129489000Y-102689000D03*
X149120000Y-97163200D03*
X147010000Y-105325000D03*
X168016000Y-98711000D03*
X157776000Y-69333300D03*
X161525000Y-62571600D03*
X133171000Y-74061700D03*
X134290000Y-85412700D03*
X134061000Y-74199300D03*
X135439000Y-84571300D03*
X140360000Y-70702000D03*
X139048000Y-85412700D03*
X133192000Y-86241300D03*
X159151000Y-94438600D03*
X138304000Y-80422900D03*
X124840000Y-99179600D03*
X136004000Y-96671800D03*
X137857000Y-82640200D03*
X145354000Y-84138700D03*
X157853000Y-97094000D03*
X143174000Y-77961000D03*
X158931000Y-99024600D03*
X145354000Y-86454800D03*
X162353000Y-96847300D03*
X134996000Y-80487500D03*
X126309000Y-101600000D03*
X139911000Y-80137500D03*
X134620000Y-102720000D03*
M02*
