%TF.GenerationSoftware,KiCad,Pcbnew,4.0.2+dfsg1-stable*%
%TF.CreationDate,2019-04-12T10:52:39+02:00*%
%TF.ProjectId,usbavrfloppy,757362617672666C6F7070792E6B6963,rev?*%
%TF.FileFunction,Legend,Top*%
%FSLAX46Y46*%
G04 Gerber Fmt 4.6, Leading zero omitted, Abs format (unit mm)*
G04 Created by KiCad (PCBNEW 4.0.2+dfsg1-stable) date ven 12 apr 2019 10:52:39 CEST*
%MOMM*%
G01*
G04 APERTURE LIST*
%ADD10C,0.100000*%
%ADD11C,0.300000*%
%ADD12C,0.150000*%
%ADD13C,0.200000*%
%ADD14C,0.120000*%
%ADD15R,1.700000X2.000000*%
%ADD16R,2.000000X1.700000*%
%ADD17R,1.597660X1.800860*%
%ADD18R,1.800860X1.597660*%
%ADD19R,2.000000X1.600000*%
%ADD20R,1.600000X2.000000*%
%ADD21R,1.520000X1.520000*%
%ADD22C,1.520000*%
%ADD23R,2.180000X1.600000*%
%ADD24R,2.100580X5.600700*%
%ADD25R,0.450000X1.750000*%
%ADD26R,0.800100X0.800100*%
%ADD27R,1.727200X2.032000*%
%ADD28O,1.727200X2.032000*%
%ADD29R,2.032000X2.032000*%
%ADD30O,2.032000X2.032000*%
%ADD31R,1.727200X1.727200*%
%ADD32O,1.727200X1.727200*%
%ADD33R,1.600200X2.999740*%
%ADD34R,1.600000X0.550000*%
%ADD35R,0.550000X1.600000*%
%ADD36C,4.064000*%
%ADD37R,0.500380X3.000000*%
%ADD38R,1.998980X2.499360*%
%ADD39C,0.899160*%
%ADD40R,0.400000X3.000000*%
%ADD41O,1.250000X0.950000*%
%ADD42O,1.000000X1.550000*%
%ADD43C,0.600000*%
G04 APERTURE END LIST*
D10*
D11*
X173800000Y-75678571D02*
X173300000Y-74964286D01*
X172942857Y-75678571D02*
X172942857Y-74178571D01*
X173514285Y-74178571D01*
X173657143Y-74250000D01*
X173728571Y-74321429D01*
X173800000Y-74464286D01*
X173800000Y-74678571D01*
X173728571Y-74821429D01*
X173657143Y-74892857D01*
X173514285Y-74964286D01*
X172942857Y-74964286D01*
X174442857Y-74892857D02*
X174942857Y-74892857D01*
X175157143Y-75678571D02*
X174442857Y-75678571D01*
X174442857Y-74178571D01*
X175157143Y-74178571D01*
X175585714Y-74178571D02*
X176442857Y-74178571D01*
X176014286Y-75678571D02*
X176014286Y-74178571D01*
X177800000Y-75678571D02*
X177300000Y-74964286D01*
X176942857Y-75678571D02*
X176942857Y-74178571D01*
X177514285Y-74178571D01*
X177657143Y-74250000D01*
X177728571Y-74321429D01*
X177800000Y-74464286D01*
X177800000Y-74678571D01*
X177728571Y-74821429D01*
X177657143Y-74892857D01*
X177514285Y-74964286D01*
X176942857Y-74964286D01*
X178728571Y-74178571D02*
X179014285Y-74178571D01*
X179157143Y-74250000D01*
X179300000Y-74392857D01*
X179371428Y-74678571D01*
X179371428Y-75178571D01*
X179300000Y-75464286D01*
X179157143Y-75607143D01*
X179014285Y-75678571D01*
X178728571Y-75678571D01*
X178585714Y-75607143D01*
X178442857Y-75464286D01*
X178371428Y-75178571D01*
X178371428Y-74678571D01*
X178442857Y-74392857D01*
X178585714Y-74250000D01*
X178728571Y-74178571D01*
X180514286Y-74892857D02*
X180728572Y-74964286D01*
X180800000Y-75035714D01*
X180871429Y-75178571D01*
X180871429Y-75392857D01*
X180800000Y-75535714D01*
X180728572Y-75607143D01*
X180585714Y-75678571D01*
X180014286Y-75678571D01*
X180014286Y-74178571D01*
X180514286Y-74178571D01*
X180657143Y-74250000D01*
X180728572Y-74321429D01*
X180800000Y-74464286D01*
X180800000Y-74607143D01*
X180728572Y-74750000D01*
X180657143Y-74821429D01*
X180514286Y-74892857D01*
X180014286Y-74892857D01*
X181514286Y-75678571D02*
X181514286Y-74178571D01*
X182014286Y-74178571D02*
X182871429Y-74178571D01*
X182442858Y-75678571D02*
X182442858Y-74178571D01*
X176871429Y-78078571D02*
X176157143Y-78078571D01*
X176157143Y-76578571D01*
X177300000Y-77650000D02*
X178014286Y-77650000D01*
X177157143Y-78078571D02*
X177657143Y-76578571D01*
X178157143Y-78078571D01*
X179157143Y-77292857D02*
X179371429Y-77364286D01*
X179442857Y-77435714D01*
X179514286Y-77578571D01*
X179514286Y-77792857D01*
X179442857Y-77935714D01*
X179371429Y-78007143D01*
X179228571Y-78078571D01*
X178657143Y-78078571D01*
X178657143Y-76578571D01*
X179157143Y-76578571D01*
X179300000Y-76650000D01*
X179371429Y-76721429D01*
X179442857Y-76864286D01*
X179442857Y-77007143D01*
X179371429Y-77150000D01*
X179300000Y-77221429D01*
X179157143Y-77292857D01*
X178657143Y-77292857D01*
D12*
X122243334Y-123394000D02*
X122343334Y-123427333D01*
X122376667Y-123460667D01*
X122410001Y-123527333D01*
X122410001Y-123627333D01*
X122376667Y-123694000D01*
X122343334Y-123727333D01*
X122276667Y-123760667D01*
X122010001Y-123760667D01*
X122010001Y-123060667D01*
X122243334Y-123060667D01*
X122310001Y-123094000D01*
X122343334Y-123127333D01*
X122376667Y-123194000D01*
X122376667Y-123260667D01*
X122343334Y-123327333D01*
X122310001Y-123360667D01*
X122243334Y-123394000D01*
X122010001Y-123394000D01*
X122843334Y-123060667D02*
X122976667Y-123060667D01*
X123043334Y-123094000D01*
X123110001Y-123160667D01*
X123143334Y-123294000D01*
X123143334Y-123527333D01*
X123110001Y-123660667D01*
X123043334Y-123727333D01*
X122976667Y-123760667D01*
X122843334Y-123760667D01*
X122776667Y-123727333D01*
X122710001Y-123660667D01*
X122676667Y-123527333D01*
X122676667Y-123294000D01*
X122710001Y-123160667D01*
X122776667Y-123094000D01*
X122843334Y-123060667D01*
X123343334Y-123060667D02*
X123743334Y-123060667D01*
X123543334Y-123760667D02*
X123543334Y-123060667D01*
X123976667Y-123760667D02*
X123976667Y-123060667D01*
X123976667Y-123394000D02*
X124376667Y-123394000D01*
X124376667Y-123760667D02*
X124376667Y-123060667D01*
X125243333Y-123760667D02*
X125243333Y-123060667D01*
X125409999Y-123060667D01*
X125509999Y-123094000D01*
X125576666Y-123160667D01*
X125609999Y-123227333D01*
X125643333Y-123360667D01*
X125643333Y-123460667D01*
X125609999Y-123594000D01*
X125576666Y-123660667D01*
X125509999Y-123727333D01*
X125409999Y-123760667D01*
X125243333Y-123760667D01*
X126343333Y-123760667D02*
X126109999Y-123427333D01*
X125943333Y-123760667D02*
X125943333Y-123060667D01*
X126209999Y-123060667D01*
X126276666Y-123094000D01*
X126309999Y-123127333D01*
X126343333Y-123194000D01*
X126343333Y-123294000D01*
X126309999Y-123360667D01*
X126276666Y-123394000D01*
X126209999Y-123427333D01*
X125943333Y-123427333D01*
X126543333Y-123060667D02*
X126776666Y-123760667D01*
X127009999Y-123060667D01*
D13*
X160274000Y-74930000D02*
G75*
G03X160274000Y-74930000I-127000J0D01*
G01*
X168148000Y-80772000D02*
G75*
G03X168148000Y-80772000I-127000J0D01*
G01*
X170180000Y-64262000D02*
G75*
G03X170180000Y-64262000I-127000J0D01*
G01*
X157607000Y-67691000D02*
G75*
G03X157607000Y-67691000I-127000J0D01*
G01*
D14*
X155895001Y-127226190D02*
X155895001Y-126726190D01*
X155895001Y-127202381D02*
X155828334Y-127226190D01*
X155695001Y-127226190D01*
X155628334Y-127202381D01*
X155595001Y-127178571D01*
X155561667Y-127130952D01*
X155561667Y-126988095D01*
X155595001Y-126940476D01*
X155628334Y-126916667D01*
X155695001Y-126892857D01*
X155828334Y-126892857D01*
X155895001Y-126916667D01*
X156495000Y-127202381D02*
X156428334Y-127226190D01*
X156295000Y-127226190D01*
X156228334Y-127202381D01*
X156195000Y-127154762D01*
X156195000Y-126964286D01*
X156228334Y-126916667D01*
X156295000Y-126892857D01*
X156428334Y-126892857D01*
X156495000Y-126916667D01*
X156528334Y-126964286D01*
X156528334Y-127011905D01*
X156195000Y-127059524D01*
X156795000Y-127202381D02*
X156861667Y-127226190D01*
X156995000Y-127226190D01*
X157061667Y-127202381D01*
X157095000Y-127154762D01*
X157095000Y-127130952D01*
X157061667Y-127083333D01*
X156995000Y-127059524D01*
X156895000Y-127059524D01*
X156828334Y-127035714D01*
X156795000Y-126988095D01*
X156795000Y-126964286D01*
X156828334Y-126916667D01*
X156895000Y-126892857D01*
X156995000Y-126892857D01*
X157061667Y-126916667D01*
X157395001Y-127226190D02*
X157395001Y-126892857D01*
X157395001Y-126726190D02*
X157361667Y-126750000D01*
X157395001Y-126773810D01*
X157428334Y-126750000D01*
X157395001Y-126726190D01*
X157395001Y-126773810D01*
X158028334Y-126892857D02*
X158028334Y-127297619D01*
X157995000Y-127345238D01*
X157961667Y-127369048D01*
X157895000Y-127392857D01*
X157795000Y-127392857D01*
X157728334Y-127369048D01*
X158028334Y-127202381D02*
X157961667Y-127226190D01*
X157828334Y-127226190D01*
X157761667Y-127202381D01*
X157728334Y-127178571D01*
X157695000Y-127130952D01*
X157695000Y-126988095D01*
X157728334Y-126940476D01*
X157761667Y-126916667D01*
X157828334Y-126892857D01*
X157961667Y-126892857D01*
X158028334Y-126916667D01*
X158361667Y-126892857D02*
X158361667Y-127226190D01*
X158361667Y-126940476D02*
X158395000Y-126916667D01*
X158461667Y-126892857D01*
X158561667Y-126892857D01*
X158628333Y-126916667D01*
X158661667Y-126964286D01*
X158661667Y-127226190D01*
X159261666Y-127202381D02*
X159195000Y-127226190D01*
X159061666Y-127226190D01*
X158995000Y-127202381D01*
X158961666Y-127154762D01*
X158961666Y-126964286D01*
X158995000Y-126916667D01*
X159061666Y-126892857D01*
X159195000Y-126892857D01*
X159261666Y-126916667D01*
X159295000Y-126964286D01*
X159295000Y-127011905D01*
X158961666Y-127059524D01*
X159895000Y-127226190D02*
X159895000Y-126726190D01*
X159895000Y-127202381D02*
X159828333Y-127226190D01*
X159695000Y-127226190D01*
X159628333Y-127202381D01*
X159595000Y-127178571D01*
X159561666Y-127130952D01*
X159561666Y-126988095D01*
X159595000Y-126940476D01*
X159628333Y-126916667D01*
X159695000Y-126892857D01*
X159828333Y-126892857D01*
X159895000Y-126916667D01*
X160761666Y-127226190D02*
X160761666Y-126726190D01*
X160761666Y-126916667D02*
X160828332Y-126892857D01*
X160961666Y-126892857D01*
X161028332Y-126916667D01*
X161061666Y-126940476D01*
X161094999Y-126988095D01*
X161094999Y-127130952D01*
X161061666Y-127178571D01*
X161028332Y-127202381D01*
X160961666Y-127226190D01*
X160828332Y-127226190D01*
X160761666Y-127202381D01*
X161328332Y-126892857D02*
X161494999Y-127226190D01*
X161661665Y-126892857D02*
X161494999Y-127226190D01*
X161428332Y-127345238D01*
X161394999Y-127369048D01*
X161328332Y-127392857D01*
X162861665Y-127226190D02*
X162628331Y-126988095D01*
X162461665Y-127226190D02*
X162461665Y-126726190D01*
X162728331Y-126726190D01*
X162794998Y-126750000D01*
X162828331Y-126773810D01*
X162861665Y-126821429D01*
X162861665Y-126892857D01*
X162828331Y-126940476D01*
X162794998Y-126964286D01*
X162728331Y-126988095D01*
X162461665Y-126988095D01*
X163161665Y-127178571D02*
X163194998Y-127202381D01*
X163161665Y-127226190D01*
X163128331Y-127202381D01*
X163161665Y-127178571D01*
X163161665Y-127226190D01*
X163861664Y-126750000D02*
X163794998Y-126726190D01*
X163694998Y-126726190D01*
X163594998Y-126750000D01*
X163528331Y-126797619D01*
X163494998Y-126845238D01*
X163461664Y-126940476D01*
X163461664Y-127011905D01*
X163494998Y-127107143D01*
X163528331Y-127154762D01*
X163594998Y-127202381D01*
X163694998Y-127226190D01*
X163761664Y-127226190D01*
X163861664Y-127202381D01*
X163894998Y-127178571D01*
X163894998Y-127011905D01*
X163761664Y-127011905D01*
X164194998Y-127178571D02*
X164228331Y-127202381D01*
X164194998Y-127226190D01*
X164161664Y-127202381D01*
X164194998Y-127178571D01*
X164194998Y-127226190D01*
X165028330Y-126773810D02*
X165061664Y-126750000D01*
X165128330Y-126726190D01*
X165294997Y-126726190D01*
X165361664Y-126750000D01*
X165394997Y-126773810D01*
X165428330Y-126821429D01*
X165428330Y-126869048D01*
X165394997Y-126940476D01*
X164994997Y-127226190D01*
X165428330Y-127226190D01*
X165861664Y-126726190D02*
X165928331Y-126726190D01*
X165994997Y-126750000D01*
X166028331Y-126773810D01*
X166061664Y-126821429D01*
X166094997Y-126916667D01*
X166094997Y-127035714D01*
X166061664Y-127130952D01*
X166028331Y-127178571D01*
X165994997Y-127202381D01*
X165928331Y-127226190D01*
X165861664Y-127226190D01*
X165794997Y-127202381D01*
X165761664Y-127178571D01*
X165728331Y-127130952D01*
X165694997Y-127035714D01*
X165694997Y-126916667D01*
X165728331Y-126821429D01*
X165761664Y-126773810D01*
X165794997Y-126750000D01*
X165861664Y-126726190D01*
X166761664Y-127226190D02*
X166361664Y-127226190D01*
X166561664Y-127226190D02*
X166561664Y-126726190D01*
X166494998Y-126797619D01*
X166428331Y-126845238D01*
X166361664Y-126869048D01*
X167161665Y-126940476D02*
X167094998Y-126916667D01*
X167061665Y-126892857D01*
X167028331Y-126845238D01*
X167028331Y-126821429D01*
X167061665Y-126773810D01*
X167094998Y-126750000D01*
X167161665Y-126726190D01*
X167294998Y-126726190D01*
X167361665Y-126750000D01*
X167394998Y-126773810D01*
X167428331Y-126821429D01*
X167428331Y-126845238D01*
X167394998Y-126892857D01*
X167361665Y-126916667D01*
X167294998Y-126940476D01*
X167161665Y-126940476D01*
X167094998Y-126964286D01*
X167061665Y-126988095D01*
X167028331Y-127035714D01*
X167028331Y-127130952D01*
X167061665Y-127178571D01*
X167094998Y-127202381D01*
X167161665Y-127226190D01*
X167294998Y-127226190D01*
X167361665Y-127202381D01*
X167394998Y-127178571D01*
X167428331Y-127130952D01*
X167428331Y-127035714D01*
X167394998Y-126988095D01*
X167361665Y-126964286D01*
X167294998Y-126940476D01*
X168228332Y-126702381D02*
X167628332Y-127345238D01*
X168428331Y-126773810D02*
X168461665Y-126750000D01*
X168528331Y-126726190D01*
X168694998Y-126726190D01*
X168761665Y-126750000D01*
X168794998Y-126773810D01*
X168828331Y-126821429D01*
X168828331Y-126869048D01*
X168794998Y-126940476D01*
X168394998Y-127226190D01*
X168828331Y-127226190D01*
X169261665Y-126726190D02*
X169328332Y-126726190D01*
X169394998Y-126750000D01*
X169428332Y-126773810D01*
X169461665Y-126821429D01*
X169494998Y-126916667D01*
X169494998Y-127035714D01*
X169461665Y-127130952D01*
X169428332Y-127178571D01*
X169394998Y-127202381D01*
X169328332Y-127226190D01*
X169261665Y-127226190D01*
X169194998Y-127202381D01*
X169161665Y-127178571D01*
X169128332Y-127130952D01*
X169094998Y-127035714D01*
X169094998Y-126916667D01*
X169128332Y-126821429D01*
X169161665Y-126773810D01*
X169194998Y-126750000D01*
X169261665Y-126726190D01*
X170161665Y-127226190D02*
X169761665Y-127226190D01*
X169961665Y-127226190D02*
X169961665Y-126726190D01*
X169894999Y-126797619D01*
X169828332Y-126845238D01*
X169761665Y-126869048D01*
X170494999Y-127226190D02*
X170628332Y-127226190D01*
X170694999Y-127202381D01*
X170728332Y-127178571D01*
X170794999Y-127107143D01*
X170828332Y-127011905D01*
X170828332Y-126821429D01*
X170794999Y-126773810D01*
X170761666Y-126750000D01*
X170694999Y-126726190D01*
X170561666Y-126726190D01*
X170494999Y-126750000D01*
X170461666Y-126773810D01*
X170428332Y-126821429D01*
X170428332Y-126940476D01*
X170461666Y-126988095D01*
X170494999Y-127011905D01*
X170561666Y-127035714D01*
X170694999Y-127035714D01*
X170761666Y-127011905D01*
X170794999Y-126988095D01*
X170828332Y-126940476D01*
D11*
X172775715Y-125670571D02*
X173704286Y-125670571D01*
X173204286Y-126242000D01*
X173418572Y-126242000D01*
X173561429Y-126313429D01*
X173632858Y-126384857D01*
X173704286Y-126527714D01*
X173704286Y-126884857D01*
X173632858Y-127027714D01*
X173561429Y-127099143D01*
X173418572Y-127170571D01*
X172990000Y-127170571D01*
X172847143Y-127099143D01*
X172775715Y-127027714D01*
X174204286Y-125670571D02*
X175132857Y-125670571D01*
X174632857Y-126242000D01*
X174847143Y-126242000D01*
X174990000Y-126313429D01*
X175061429Y-126384857D01*
X175132857Y-126527714D01*
X175132857Y-126884857D01*
X175061429Y-127027714D01*
X174990000Y-127099143D01*
X174847143Y-127170571D01*
X174418571Y-127170571D01*
X174275714Y-127099143D01*
X174204286Y-127027714D01*
X172775715Y-112208571D02*
X173704286Y-112208571D01*
X173204286Y-112780000D01*
X173418572Y-112780000D01*
X173561429Y-112851429D01*
X173632858Y-112922857D01*
X173704286Y-113065714D01*
X173704286Y-113422857D01*
X173632858Y-113565714D01*
X173561429Y-113637143D01*
X173418572Y-113708571D01*
X172990000Y-113708571D01*
X172847143Y-113637143D01*
X172775715Y-113565714D01*
X174990000Y-112708571D02*
X174990000Y-113708571D01*
X174632857Y-112137143D02*
X174275714Y-113208571D01*
X175204286Y-113208571D01*
X132921429Y-112351429D02*
X132992858Y-112280000D01*
X133135715Y-112208571D01*
X133492858Y-112208571D01*
X133635715Y-112280000D01*
X133707144Y-112351429D01*
X133778572Y-112494286D01*
X133778572Y-112637143D01*
X133707144Y-112851429D01*
X132850001Y-113708571D01*
X133778572Y-113708571D01*
X133778572Y-127170571D02*
X132921429Y-127170571D01*
X133350001Y-127170571D02*
X133350001Y-125670571D01*
X133207144Y-125884857D01*
X133064286Y-126027714D01*
X132921429Y-126099143D01*
D10*
X173766667Y-85976667D02*
X173433334Y-85976667D01*
X173400000Y-86310000D01*
X173433334Y-86276667D01*
X173500000Y-86243333D01*
X173666667Y-86243333D01*
X173733334Y-86276667D01*
X173766667Y-86310000D01*
X173800000Y-86376667D01*
X173800000Y-86543333D01*
X173766667Y-86610000D01*
X173733334Y-86643333D01*
X173666667Y-86676667D01*
X173500000Y-86676667D01*
X173433334Y-86643333D01*
X173400000Y-86610000D01*
X174000001Y-85976667D02*
X174233334Y-86676667D01*
X174466667Y-85976667D01*
X175600000Y-86010000D02*
X175533334Y-85976667D01*
X175433334Y-85976667D01*
X175333334Y-86010000D01*
X175266667Y-86076667D01*
X175233334Y-86143333D01*
X175200000Y-86276667D01*
X175200000Y-86376667D01*
X175233334Y-86510000D01*
X175266667Y-86576667D01*
X175333334Y-86643333D01*
X175433334Y-86676667D01*
X175500000Y-86676667D01*
X175600000Y-86643333D01*
X175633334Y-86610000D01*
X175633334Y-86376667D01*
X175500000Y-86376667D01*
X175933334Y-86676667D02*
X175933334Y-85976667D01*
X176333334Y-86676667D01*
X176333334Y-85976667D01*
X176666667Y-86676667D02*
X176666667Y-85976667D01*
X176833333Y-85976667D01*
X176933333Y-86010000D01*
X177000000Y-86076667D01*
X177033333Y-86143333D01*
X177066667Y-86276667D01*
X177066667Y-86376667D01*
X177033333Y-86510000D01*
X177000000Y-86576667D01*
X176933333Y-86643333D01*
X176833333Y-86676667D01*
X176666667Y-86676667D01*
X178266666Y-86010000D02*
X178200000Y-85976667D01*
X178100000Y-85976667D01*
X178000000Y-86010000D01*
X177933333Y-86076667D01*
X177900000Y-86143333D01*
X177866666Y-86276667D01*
X177866666Y-86376667D01*
X177900000Y-86510000D01*
X177933333Y-86576667D01*
X178000000Y-86643333D01*
X178100000Y-86676667D01*
X178166666Y-86676667D01*
X178266666Y-86643333D01*
X178300000Y-86610000D01*
X178300000Y-86376667D01*
X178166666Y-86376667D01*
X178600000Y-86676667D02*
X178600000Y-85976667D01*
X179000000Y-86676667D01*
X179000000Y-85976667D01*
X179333333Y-86676667D02*
X179333333Y-85976667D01*
X179499999Y-85976667D01*
X179599999Y-86010000D01*
X179666666Y-86076667D01*
X179699999Y-86143333D01*
X179733333Y-86276667D01*
X179733333Y-86376667D01*
X179699999Y-86510000D01*
X179666666Y-86576667D01*
X179599999Y-86643333D01*
X179499999Y-86676667D01*
X179333333Y-86676667D01*
X180933332Y-86676667D02*
X180533332Y-86676667D01*
X180733332Y-86676667D02*
X180733332Y-85976667D01*
X180666666Y-86076667D01*
X180599999Y-86143333D01*
X180533332Y-86176667D01*
X181199999Y-86043333D02*
X181233333Y-86010000D01*
X181299999Y-85976667D01*
X181466666Y-85976667D01*
X181533333Y-86010000D01*
X181566666Y-86043333D01*
X181599999Y-86110000D01*
X181599999Y-86176667D01*
X181566666Y-86276667D01*
X181166666Y-86676667D01*
X181599999Y-86676667D01*
X181800000Y-85976667D02*
X182033333Y-86676667D01*
X182266666Y-85976667D01*
D13*
X131572000Y-73914000D02*
G75*
G03X131572000Y-73914000I-254000J0D01*
G01*
X142748000Y-63754000D02*
X142748000Y-63500000D01*
X131572000Y-63500000D02*
X142748000Y-63500000D01*
X131572000Y-73406000D02*
X131572000Y-63500000D01*
X142748000Y-73406000D02*
X131572000Y-73406000D01*
X142748000Y-63500000D02*
X142748000Y-73406000D01*
X141986000Y-87122000D02*
G75*
G03X141986000Y-87122000I-254000J0D01*
G01*
X131572000Y-88138000D02*
X131572000Y-76962000D01*
X142748000Y-88138000D02*
X131572000Y-88138000D01*
X142748000Y-76962000D02*
X142748000Y-88138000D01*
X131572000Y-76962000D02*
X142748000Y-76962000D01*
D11*
X111550990Y-83935634D02*
X111702512Y-83077005D01*
X110944898Y-83329543D02*
X112005558Y-82268882D01*
X112409619Y-82672943D01*
X112460127Y-82824467D01*
X112460126Y-82925482D01*
X112409619Y-83077005D01*
X112258097Y-83228527D01*
X112106573Y-83279035D01*
X112005558Y-83279035D01*
X111854035Y-83228527D01*
X111449974Y-82824467D01*
X112914696Y-84188172D02*
X113015711Y-84390203D01*
X113015711Y-84491218D01*
X112965203Y-84642741D01*
X112813680Y-84794264D01*
X112662157Y-84844771D01*
X112561142Y-84844772D01*
X112409619Y-84794263D01*
X112005558Y-84390203D01*
X113066219Y-83329543D01*
X113419772Y-83683096D01*
X113470279Y-83834619D01*
X113470279Y-83935635D01*
X113419771Y-84087157D01*
X113318756Y-84188172D01*
X113167234Y-84238680D01*
X113066218Y-84238680D01*
X112914696Y-84188172D01*
X112561142Y-83834619D01*
X113571295Y-85955939D02*
X113066219Y-85450863D01*
X114126879Y-84390203D01*
X115187539Y-85450863D02*
X115288554Y-85551878D01*
X115339061Y-85703401D01*
X115339061Y-85804417D01*
X115288554Y-85955940D01*
X115137031Y-86208478D01*
X114884493Y-86461016D01*
X114631955Y-86612539D01*
X114480432Y-86663046D01*
X114379416Y-86663046D01*
X114227894Y-86612538D01*
X114126879Y-86511523D01*
X114076371Y-86360001D01*
X114076371Y-86258985D01*
X114126879Y-86107462D01*
X114278401Y-85854924D01*
X114530939Y-85602386D01*
X114783478Y-85450864D01*
X114935000Y-85400356D01*
X115036016Y-85400356D01*
X115187539Y-85450863D01*
X116197691Y-86461015D02*
X116298706Y-86562030D01*
X116349214Y-86713553D01*
X116349214Y-86814569D01*
X116298706Y-86966092D01*
X116147183Y-87218630D01*
X115894645Y-87471168D01*
X115642107Y-87622691D01*
X115490584Y-87673198D01*
X115389569Y-87673198D01*
X115238046Y-87622690D01*
X115137031Y-87521675D01*
X115086523Y-87370153D01*
X115086523Y-87269137D01*
X115137031Y-87117615D01*
X115288553Y-86865076D01*
X115541092Y-86612538D01*
X115793630Y-86461016D01*
X115945152Y-86410508D01*
X116046168Y-86410508D01*
X116197691Y-86461015D01*
X116904798Y-87168122D02*
X117561397Y-87824721D01*
X116803782Y-87875229D01*
X116955305Y-88026752D01*
X117005812Y-88178275D01*
X117005813Y-88279290D01*
X116955305Y-88430812D01*
X116702767Y-88683351D01*
X116551245Y-88733859D01*
X116450229Y-88733859D01*
X116298706Y-88683351D01*
X115995660Y-88380304D01*
X115945152Y-88228782D01*
X115945153Y-88127767D01*
X117056320Y-89238934D02*
X117056320Y-89339950D01*
X116955305Y-89339950D01*
X116955304Y-89238934D01*
X117056320Y-89238934D01*
X116955305Y-89339950D01*
X119026118Y-89289442D02*
X118521042Y-88784366D01*
X117965457Y-89238934D01*
X118066473Y-89238935D01*
X118217996Y-89289442D01*
X118470534Y-89541981D01*
X118521041Y-89693504D01*
X118521042Y-89794519D01*
X118470534Y-89946041D01*
X118217996Y-90198579D01*
X118066473Y-90249087D01*
X117965457Y-90249087D01*
X117813935Y-90198579D01*
X117561397Y-89946041D01*
X117510889Y-89794519D01*
X117510889Y-89693503D01*
D13*
X161787024Y-83986667D02*
X162263215Y-83986667D01*
X161656071Y-84272381D02*
X162114404Y-83272381D01*
X162322738Y-84272381D01*
X162656071Y-84272381D02*
X162781071Y-83272381D01*
X163025120Y-83986667D01*
X163447738Y-83272381D01*
X163322738Y-84272381D01*
X163798928Y-84272381D02*
X163923928Y-83272381D01*
X164917976Y-83320000D02*
X164828690Y-83272381D01*
X164685833Y-83272381D01*
X164537023Y-83320000D01*
X164429880Y-83415238D01*
X164370357Y-83510476D01*
X164298928Y-83700952D01*
X164281071Y-83843810D01*
X164304880Y-84034286D01*
X164340595Y-84129524D01*
X164423928Y-84224762D01*
X164560833Y-84272381D01*
X164656071Y-84272381D01*
X164804881Y-84224762D01*
X164858452Y-84177143D01*
X164900119Y-83843810D01*
X164709643Y-83843810D01*
X165263214Y-83986667D02*
X165739405Y-83986667D01*
X165132261Y-84272381D02*
X165590594Y-83272381D01*
X165798928Y-84272381D01*
X167292977Y-83748571D02*
X166959643Y-83748571D01*
X166894166Y-84272381D02*
X167019166Y-83272381D01*
X167495357Y-83272381D01*
X168227500Y-84272381D02*
X167751309Y-84272381D01*
X167876309Y-83272381D01*
X168876309Y-83272381D02*
X169066786Y-83272381D01*
X169156072Y-83320000D01*
X169239405Y-83415238D01*
X169263215Y-83605714D01*
X169221548Y-83939048D01*
X169150120Y-84129524D01*
X169042977Y-84224762D01*
X168941786Y-84272381D01*
X168751309Y-84272381D01*
X168662024Y-84224762D01*
X168578691Y-84129524D01*
X168554881Y-83939048D01*
X168596548Y-83605714D01*
X168667976Y-83415238D01*
X168775119Y-83320000D01*
X168876309Y-83272381D01*
X169608452Y-84272381D02*
X169733452Y-83272381D01*
X170114405Y-83272381D01*
X170203691Y-83320000D01*
X170245358Y-83367619D01*
X170281072Y-83462857D01*
X170263215Y-83605714D01*
X170203691Y-83700952D01*
X170150120Y-83748571D01*
X170048929Y-83796190D01*
X169667976Y-83796190D01*
X170608452Y-84272381D02*
X170733452Y-83272381D01*
X171114405Y-83272381D01*
X171203691Y-83320000D01*
X171245358Y-83367619D01*
X171281072Y-83462857D01*
X171263215Y-83605714D01*
X171203691Y-83700952D01*
X171150120Y-83748571D01*
X171048929Y-83796190D01*
X170667976Y-83796190D01*
X171858452Y-83796190D02*
X171798928Y-84272381D01*
X171590595Y-83272381D02*
X171858452Y-83796190D01*
X172257262Y-83272381D01*
X173227500Y-84272381D02*
X173352500Y-83272381D01*
X173590595Y-83272381D01*
X173727501Y-83320000D01*
X173810834Y-83415238D01*
X173846549Y-83510476D01*
X173870358Y-83700952D01*
X173852501Y-83843810D01*
X173781072Y-84034286D01*
X173721549Y-84129524D01*
X173614406Y-84224762D01*
X173465595Y-84272381D01*
X173227500Y-84272381D01*
X174227500Y-84272381D02*
X174352500Y-83272381D01*
X174662024Y-84224762D02*
X174798928Y-84272381D01*
X175037024Y-84272381D01*
X175138215Y-84224762D01*
X175191786Y-84177143D01*
X175251310Y-84081905D01*
X175263215Y-83986667D01*
X175227500Y-83891429D01*
X175185834Y-83843810D01*
X175096548Y-83796190D01*
X174912024Y-83748571D01*
X174822738Y-83700952D01*
X174781071Y-83653333D01*
X174745357Y-83558095D01*
X174757262Y-83462857D01*
X174816786Y-83367619D01*
X174870357Y-83320000D01*
X174971547Y-83272381D01*
X175209643Y-83272381D01*
X175346548Y-83320000D01*
X175656071Y-84272381D02*
X175781071Y-83272381D01*
X176227500Y-84272381D02*
X175870357Y-83700952D01*
X176352500Y-83272381D02*
X175709643Y-83843810D01*
X177406072Y-83986667D02*
X177882263Y-83986667D01*
X177275119Y-84272381D02*
X177733452Y-83272381D01*
X177941786Y-84272381D01*
X178275119Y-84272381D02*
X178400119Y-83272381D01*
X178638214Y-83272381D01*
X178775120Y-83320000D01*
X178858453Y-83415238D01*
X178894168Y-83510476D01*
X178917977Y-83700952D01*
X178900120Y-83843810D01*
X178828691Y-84034286D01*
X178769168Y-84129524D01*
X178662025Y-84224762D01*
X178513214Y-84272381D01*
X178275119Y-84272381D01*
X179673930Y-83748571D02*
X179340596Y-83748571D01*
X179275119Y-84272381D02*
X179400119Y-83272381D01*
X179876310Y-83272381D01*
X181465596Y-84272381D02*
X181191786Y-83796190D01*
X180894167Y-84272381D02*
X181019167Y-83272381D01*
X181400120Y-83272381D01*
X181489406Y-83320000D01*
X181531073Y-83367619D01*
X181566787Y-83462857D01*
X181548930Y-83605714D01*
X181489406Y-83700952D01*
X181435835Y-83748571D01*
X181334644Y-83796190D01*
X180953691Y-83796190D01*
X181959644Y-83748571D02*
X182292978Y-83748571D01*
X182370358Y-84272381D02*
X181894167Y-84272381D01*
X182019167Y-83272381D01*
X182495358Y-83272381D01*
X182787025Y-83986667D02*
X183263216Y-83986667D01*
X182656072Y-84272381D02*
X183114405Y-83272381D01*
X183322739Y-84272381D01*
X183656072Y-84272381D02*
X183781072Y-83272381D01*
X184019167Y-83272381D01*
X184156073Y-83320000D01*
X184239406Y-83415238D01*
X184275121Y-83510476D01*
X184298930Y-83700952D01*
X184281073Y-83843810D01*
X184209644Y-84034286D01*
X184150121Y-84129524D01*
X184042978Y-84224762D01*
X183894167Y-84272381D01*
X183656072Y-84272381D01*
X184721549Y-83748571D02*
X185054883Y-83748571D01*
X185132263Y-84272381D02*
X184656072Y-84272381D01*
X184781072Y-83272381D01*
X185257263Y-83272381D01*
X186132263Y-84272381D02*
X185858453Y-83796190D01*
X185560834Y-84272381D02*
X185685834Y-83272381D01*
X186066787Y-83272381D01*
X186156073Y-83320000D01*
X186197740Y-83367619D01*
X186233454Y-83462857D01*
X186215597Y-83605714D01*
X186156073Y-83700952D01*
X186102502Y-83748571D01*
X186001311Y-83796190D01*
X185620358Y-83796190D01*
X187406073Y-83224762D02*
X186388215Y-84510476D01*
X187638215Y-83272381D02*
X187751310Y-84272381D01*
X188031073Y-83558095D01*
X188132263Y-84272381D01*
X188495358Y-83272381D01*
X189322739Y-84272381D02*
X189048929Y-83796190D01*
X188751310Y-84272381D02*
X188876310Y-83272381D01*
X189257263Y-83272381D01*
X189346549Y-83320000D01*
X189388216Y-83367619D01*
X189423930Y-83462857D01*
X189406073Y-83605714D01*
X189346549Y-83700952D01*
X189292978Y-83748571D01*
X189191787Y-83796190D01*
X188810834Y-83796190D01*
X189751310Y-84272381D02*
X189876310Y-83272381D01*
X190209643Y-83272381D02*
X190781072Y-83272381D01*
X190370357Y-84272381D02*
X190495357Y-83272381D01*
X191054882Y-83748571D02*
X191388216Y-83748571D01*
X191465596Y-84272381D02*
X190989405Y-84272381D01*
X191114405Y-83272381D01*
X191590596Y-83272381D01*
X192465596Y-84272381D02*
X192191786Y-83796190D01*
X191894167Y-84272381D02*
X192019167Y-83272381D01*
X192400120Y-83272381D01*
X192489406Y-83320000D01*
X192531073Y-83367619D01*
X192566787Y-83462857D01*
X192548930Y-83605714D01*
X192489406Y-83700952D01*
X192435835Y-83748571D01*
X192334644Y-83796190D01*
X191953691Y-83796190D01*
D11*
X144189572Y-112795857D02*
X143689572Y-112795857D01*
X143689572Y-113581571D02*
X143689572Y-112081571D01*
X144403858Y-112081571D01*
X145689572Y-113581571D02*
X144975286Y-113581571D01*
X144975286Y-112081571D01*
X146475286Y-112081571D02*
X146761000Y-112081571D01*
X146903858Y-112153000D01*
X147046715Y-112295857D01*
X147118143Y-112581571D01*
X147118143Y-113081571D01*
X147046715Y-113367286D01*
X146903858Y-113510143D01*
X146761000Y-113581571D01*
X146475286Y-113581571D01*
X146332429Y-113510143D01*
X146189572Y-113367286D01*
X146118143Y-113081571D01*
X146118143Y-112581571D01*
X146189572Y-112295857D01*
X146332429Y-112153000D01*
X146475286Y-112081571D01*
X147761001Y-113581571D02*
X147761001Y-112081571D01*
X148332429Y-112081571D01*
X148475287Y-112153000D01*
X148546715Y-112224429D01*
X148618144Y-112367286D01*
X148618144Y-112581571D01*
X148546715Y-112724429D01*
X148475287Y-112795857D01*
X148332429Y-112867286D01*
X147761001Y-112867286D01*
X149261001Y-113581571D02*
X149261001Y-112081571D01*
X149832429Y-112081571D01*
X149975287Y-112153000D01*
X150046715Y-112224429D01*
X150118144Y-112367286D01*
X150118144Y-112581571D01*
X150046715Y-112724429D01*
X149975287Y-112795857D01*
X149832429Y-112867286D01*
X149261001Y-112867286D01*
X151046715Y-112867286D02*
X151046715Y-113581571D01*
X150546715Y-112081571D02*
X151046715Y-112867286D01*
X151546715Y-112081571D01*
X154046715Y-113438714D02*
X153975286Y-113510143D01*
X153761000Y-113581571D01*
X153618143Y-113581571D01*
X153403858Y-113510143D01*
X153261000Y-113367286D01*
X153189572Y-113224429D01*
X153118143Y-112938714D01*
X153118143Y-112724429D01*
X153189572Y-112438714D01*
X153261000Y-112295857D01*
X153403858Y-112153000D01*
X153618143Y-112081571D01*
X153761000Y-112081571D01*
X153975286Y-112153000D01*
X154046715Y-112224429D01*
X154618143Y-113153000D02*
X155332429Y-113153000D01*
X154475286Y-113581571D02*
X154975286Y-112081571D01*
X155475286Y-113581571D01*
X156475286Y-112795857D02*
X156689572Y-112867286D01*
X156761000Y-112938714D01*
X156832429Y-113081571D01*
X156832429Y-113295857D01*
X156761000Y-113438714D01*
X156689572Y-113510143D01*
X156546714Y-113581571D01*
X155975286Y-113581571D01*
X155975286Y-112081571D01*
X156475286Y-112081571D01*
X156618143Y-112153000D01*
X156689572Y-112224429D01*
X156761000Y-112367286D01*
X156761000Y-112510143D01*
X156689572Y-112653000D01*
X156618143Y-112724429D01*
X156475286Y-112795857D01*
X155975286Y-112795857D01*
X158189572Y-113581571D02*
X157475286Y-113581571D01*
X157475286Y-112081571D01*
X158689572Y-112795857D02*
X159189572Y-112795857D01*
X159403858Y-113581571D02*
X158689572Y-113581571D01*
X158689572Y-112081571D01*
X159403858Y-112081571D01*
X151725715Y-69028571D02*
X151725715Y-70242857D01*
X151797143Y-70385714D01*
X151868572Y-70457143D01*
X152011429Y-70528571D01*
X152297143Y-70528571D01*
X152440001Y-70457143D01*
X152511429Y-70385714D01*
X152582858Y-70242857D01*
X152582858Y-69028571D01*
X153225715Y-70457143D02*
X153440001Y-70528571D01*
X153797144Y-70528571D01*
X153940001Y-70457143D01*
X154011430Y-70385714D01*
X154082858Y-70242857D01*
X154082858Y-70100000D01*
X154011430Y-69957143D01*
X153940001Y-69885714D01*
X153797144Y-69814286D01*
X153511430Y-69742857D01*
X153368572Y-69671429D01*
X153297144Y-69600000D01*
X153225715Y-69457143D01*
X153225715Y-69314286D01*
X153297144Y-69171429D01*
X153368572Y-69100000D01*
X153511430Y-69028571D01*
X153868572Y-69028571D01*
X154082858Y-69100000D01*
X155225715Y-69742857D02*
X155440001Y-69814286D01*
X155511429Y-69885714D01*
X155582858Y-70028571D01*
X155582858Y-70242857D01*
X155511429Y-70385714D01*
X155440001Y-70457143D01*
X155297143Y-70528571D01*
X154725715Y-70528571D01*
X154725715Y-69028571D01*
X155225715Y-69028571D01*
X155368572Y-69100000D01*
X155440001Y-69171429D01*
X155511429Y-69314286D01*
X155511429Y-69457143D01*
X155440001Y-69600000D01*
X155368572Y-69671429D01*
X155225715Y-69742857D01*
X154725715Y-69742857D01*
X155868572Y-70671429D02*
X157011429Y-70671429D01*
X157868572Y-69742857D02*
X158082858Y-69814286D01*
X158154286Y-69885714D01*
X158225715Y-70028571D01*
X158225715Y-70242857D01*
X158154286Y-70385714D01*
X158082858Y-70457143D01*
X157940000Y-70528571D01*
X157368572Y-70528571D01*
X157368572Y-69028571D01*
X157868572Y-69028571D01*
X158011429Y-69100000D01*
X158082858Y-69171429D01*
X158154286Y-69314286D01*
X158154286Y-69457143D01*
X158082858Y-69600000D01*
X158011429Y-69671429D01*
X157868572Y-69742857D01*
X157368572Y-69742857D01*
X163068572Y-66488571D02*
X163068572Y-67702857D01*
X163140000Y-67845714D01*
X163211429Y-67917143D01*
X163354286Y-67988571D01*
X163640000Y-67988571D01*
X163782858Y-67917143D01*
X163854286Y-67845714D01*
X163925715Y-67702857D01*
X163925715Y-66488571D01*
X164568572Y-67917143D02*
X164782858Y-67988571D01*
X165140001Y-67988571D01*
X165282858Y-67917143D01*
X165354287Y-67845714D01*
X165425715Y-67702857D01*
X165425715Y-67560000D01*
X165354287Y-67417143D01*
X165282858Y-67345714D01*
X165140001Y-67274286D01*
X164854287Y-67202857D01*
X164711429Y-67131429D01*
X164640001Y-67060000D01*
X164568572Y-66917143D01*
X164568572Y-66774286D01*
X164640001Y-66631429D01*
X164711429Y-66560000D01*
X164854287Y-66488571D01*
X165211429Y-66488571D01*
X165425715Y-66560000D01*
X166568572Y-67202857D02*
X166782858Y-67274286D01*
X166854286Y-67345714D01*
X166925715Y-67488571D01*
X166925715Y-67702857D01*
X166854286Y-67845714D01*
X166782858Y-67917143D01*
X166640000Y-67988571D01*
X166068572Y-67988571D01*
X166068572Y-66488571D01*
X166568572Y-66488571D01*
X166711429Y-66560000D01*
X166782858Y-66631429D01*
X166854286Y-66774286D01*
X166854286Y-66917143D01*
X166782858Y-67060000D01*
X166711429Y-67131429D01*
X166568572Y-67202857D01*
X166068572Y-67202857D01*
X167211429Y-68131429D02*
X168354286Y-68131429D01*
X168997143Y-66488571D02*
X169282857Y-66488571D01*
X169425715Y-66560000D01*
X169568572Y-66702857D01*
X169640000Y-66988571D01*
X169640000Y-67488571D01*
X169568572Y-67774286D01*
X169425715Y-67917143D01*
X169282857Y-67988571D01*
X168997143Y-67988571D01*
X168854286Y-67917143D01*
X168711429Y-67774286D01*
X168640000Y-67488571D01*
X168640000Y-66988571D01*
X168711429Y-66702857D01*
X168854286Y-66560000D01*
X168997143Y-66488571D01*
X170068572Y-66488571D02*
X170925715Y-66488571D01*
X170497144Y-67988571D02*
X170497144Y-66488571D01*
X172211429Y-66560000D02*
X172068572Y-66488571D01*
X171854286Y-66488571D01*
X171640001Y-66560000D01*
X171497143Y-66702857D01*
X171425715Y-66845714D01*
X171354286Y-67131429D01*
X171354286Y-67345714D01*
X171425715Y-67631429D01*
X171497143Y-67774286D01*
X171640001Y-67917143D01*
X171854286Y-67988571D01*
X171997143Y-67988571D01*
X172211429Y-67917143D01*
X172282858Y-67845714D01*
X172282858Y-67345714D01*
X171997143Y-67345714D01*
D13*
X188532072Y-73985381D02*
X188074929Y-73985381D01*
X188303500Y-73985381D02*
X188303500Y-72985381D01*
X188227310Y-73128238D01*
X188151119Y-73223476D01*
X188074929Y-73271095D01*
X188836834Y-73080619D02*
X188874929Y-73033000D01*
X188951120Y-72985381D01*
X189141596Y-72985381D01*
X189217786Y-73033000D01*
X189255882Y-73080619D01*
X189293977Y-73175857D01*
X189293977Y-73271095D01*
X189255882Y-73413952D01*
X188798739Y-73985381D01*
X189293977Y-73985381D01*
X189522548Y-72985381D02*
X189789215Y-73985381D01*
X190055882Y-72985381D01*
X191351120Y-73033000D02*
X191274929Y-72985381D01*
X191160644Y-72985381D01*
X191046358Y-73033000D01*
X190970167Y-73128238D01*
X190932072Y-73223476D01*
X190893977Y-73413952D01*
X190893977Y-73556810D01*
X190932072Y-73747286D01*
X190970167Y-73842524D01*
X191046358Y-73937762D01*
X191160644Y-73985381D01*
X191236834Y-73985381D01*
X191351120Y-73937762D01*
X191389215Y-73890143D01*
X191389215Y-73556810D01*
X191236834Y-73556810D01*
X191732072Y-73985381D02*
X191732072Y-72985381D01*
X192189215Y-73985381D01*
X192189215Y-72985381D01*
X192570167Y-73985381D02*
X192570167Y-72985381D01*
X192760643Y-72985381D01*
X192874929Y-73033000D01*
X192951120Y-73128238D01*
X192989215Y-73223476D01*
X193027310Y-73413952D01*
X193027310Y-73556810D01*
X192989215Y-73747286D01*
X192951120Y-73842524D01*
X192874929Y-73937762D01*
X192760643Y-73985381D01*
X192570167Y-73985381D01*
X194398739Y-73033000D02*
X194322548Y-72985381D01*
X194208263Y-72985381D01*
X194093977Y-73033000D01*
X194017786Y-73128238D01*
X193979691Y-73223476D01*
X193941596Y-73413952D01*
X193941596Y-73556810D01*
X193979691Y-73747286D01*
X194017786Y-73842524D01*
X194093977Y-73937762D01*
X194208263Y-73985381D01*
X194284453Y-73985381D01*
X194398739Y-73937762D01*
X194436834Y-73890143D01*
X194436834Y-73556810D01*
X194284453Y-73556810D01*
X194779691Y-73985381D02*
X194779691Y-72985381D01*
X195236834Y-73985381D01*
X195236834Y-72985381D01*
X195617786Y-73985381D02*
X195617786Y-72985381D01*
X195808262Y-72985381D01*
X195922548Y-73033000D01*
X195998739Y-73128238D01*
X196036834Y-73223476D01*
X196074929Y-73413952D01*
X196074929Y-73556810D01*
X196036834Y-73747286D01*
X195998739Y-73842524D01*
X195922548Y-73937762D01*
X195808262Y-73985381D01*
X195617786Y-73985381D01*
X197408263Y-72985381D02*
X197027310Y-72985381D01*
X196989215Y-73461571D01*
X197027310Y-73413952D01*
X197103501Y-73366333D01*
X197293977Y-73366333D01*
X197370167Y-73413952D01*
X197408263Y-73461571D01*
X197446358Y-73556810D01*
X197446358Y-73794905D01*
X197408263Y-73890143D01*
X197370167Y-73937762D01*
X197293977Y-73985381D01*
X197103501Y-73985381D01*
X197027310Y-73937762D01*
X196989215Y-73890143D01*
X197674929Y-72985381D02*
X197941596Y-73985381D01*
X198208263Y-72985381D01*
X154927618Y-76028571D02*
X154927618Y-76561905D01*
X154584761Y-76028571D02*
X154584761Y-76447619D01*
X154622856Y-76523810D01*
X154699047Y-76561905D01*
X154813333Y-76561905D01*
X154889523Y-76523810D01*
X154927618Y-76485714D01*
X155270476Y-76523810D02*
X155346666Y-76561905D01*
X155499047Y-76561905D01*
X155575238Y-76523810D01*
X155613333Y-76447619D01*
X155613333Y-76409524D01*
X155575238Y-76333333D01*
X155499047Y-76295238D01*
X155384762Y-76295238D01*
X155308571Y-76257143D01*
X155270476Y-76180952D01*
X155270476Y-76142857D01*
X155308571Y-76066667D01*
X155384762Y-76028571D01*
X155499047Y-76028571D01*
X155575238Y-76066667D01*
X155956190Y-76561905D02*
X155956190Y-75761905D01*
X155956190Y-76066667D02*
X156032381Y-76028571D01*
X156184762Y-76028571D01*
X156260952Y-76066667D01*
X156299047Y-76104762D01*
X156337143Y-76180952D01*
X156337143Y-76409524D01*
X156299047Y-76485714D01*
X156260952Y-76523810D01*
X156184762Y-76561905D01*
X156032381Y-76561905D01*
X155956190Y-76523810D01*
X156489524Y-76638095D02*
X157099048Y-76638095D01*
X157289524Y-76028571D02*
X157289524Y-76828571D01*
X157289524Y-76066667D02*
X157365715Y-76028571D01*
X157518096Y-76028571D01*
X157594286Y-76066667D01*
X157632381Y-76104762D01*
X157670477Y-76180952D01*
X157670477Y-76409524D01*
X157632381Y-76485714D01*
X157594286Y-76523810D01*
X157518096Y-76561905D01*
X157365715Y-76561905D01*
X157289524Y-76523810D01*
X158127620Y-76561905D02*
X158051429Y-76523810D01*
X158013334Y-76485714D01*
X157975239Y-76409524D01*
X157975239Y-76180952D01*
X158013334Y-76104762D01*
X158051429Y-76066667D01*
X158127620Y-76028571D01*
X158241906Y-76028571D01*
X158318096Y-76066667D01*
X158356191Y-76104762D01*
X158394287Y-76180952D01*
X158394287Y-76409524D01*
X158356191Y-76485714D01*
X158318096Y-76523810D01*
X158241906Y-76561905D01*
X158127620Y-76561905D01*
X158660954Y-76028571D02*
X158813335Y-76561905D01*
X158965716Y-76180952D01*
X159118097Y-76561905D01*
X159270478Y-76028571D01*
X159880001Y-76523810D02*
X159803811Y-76561905D01*
X159651430Y-76561905D01*
X159575239Y-76523810D01*
X159537144Y-76447619D01*
X159537144Y-76142857D01*
X159575239Y-76066667D01*
X159651430Y-76028571D01*
X159803811Y-76028571D01*
X159880001Y-76066667D01*
X159918096Y-76142857D01*
X159918096Y-76219048D01*
X159537144Y-76295238D01*
X160260953Y-76561905D02*
X160260953Y-76028571D01*
X160260953Y-76180952D02*
X160299048Y-76104762D01*
X160337144Y-76066667D01*
X160413334Y-76028571D01*
X160489525Y-76028571D01*
X172657143Y-91368571D02*
X172323809Y-91368571D01*
X172323809Y-91892381D02*
X172323809Y-90892381D01*
X172800000Y-90892381D01*
X173657143Y-91892381D02*
X173180952Y-91892381D01*
X173180952Y-90892381D01*
X174180952Y-90892381D02*
X174371429Y-90892381D01*
X174466667Y-90940000D01*
X174561905Y-91035238D01*
X174609524Y-91225714D01*
X174609524Y-91559048D01*
X174561905Y-91749524D01*
X174466667Y-91844762D01*
X174371429Y-91892381D01*
X174180952Y-91892381D01*
X174085714Y-91844762D01*
X173990476Y-91749524D01*
X173942857Y-91559048D01*
X173942857Y-91225714D01*
X173990476Y-91035238D01*
X174085714Y-90940000D01*
X174180952Y-90892381D01*
X175038095Y-91892381D02*
X175038095Y-90892381D01*
X175419048Y-90892381D01*
X175514286Y-90940000D01*
X175561905Y-90987619D01*
X175609524Y-91082857D01*
X175609524Y-91225714D01*
X175561905Y-91320952D01*
X175514286Y-91368571D01*
X175419048Y-91416190D01*
X175038095Y-91416190D01*
X176038095Y-91892381D02*
X176038095Y-90892381D01*
X176419048Y-90892381D01*
X176514286Y-90940000D01*
X176561905Y-90987619D01*
X176609524Y-91082857D01*
X176609524Y-91225714D01*
X176561905Y-91320952D01*
X176514286Y-91368571D01*
X176419048Y-91416190D01*
X176038095Y-91416190D01*
X177228571Y-91416190D02*
X177228571Y-91892381D01*
X176895238Y-90892381D02*
X177228571Y-91416190D01*
X177561905Y-90892381D01*
X178657143Y-91892381D02*
X178657143Y-90892381D01*
X179038096Y-90892381D01*
X179133334Y-90940000D01*
X179180953Y-90987619D01*
X179228572Y-91082857D01*
X179228572Y-91225714D01*
X179180953Y-91320952D01*
X179133334Y-91368571D01*
X179038096Y-91416190D01*
X178657143Y-91416190D01*
X179847619Y-90892381D02*
X180038096Y-90892381D01*
X180133334Y-90940000D01*
X180228572Y-91035238D01*
X180276191Y-91225714D01*
X180276191Y-91559048D01*
X180228572Y-91749524D01*
X180133334Y-91844762D01*
X180038096Y-91892381D01*
X179847619Y-91892381D01*
X179752381Y-91844762D01*
X179657143Y-91749524D01*
X179609524Y-91559048D01*
X179609524Y-91225714D01*
X179657143Y-91035238D01*
X179752381Y-90940000D01*
X179847619Y-90892381D01*
X180609524Y-90892381D02*
X180847619Y-91892381D01*
X181038096Y-91178095D01*
X181228572Y-91892381D01*
X181466667Y-90892381D01*
X181847619Y-91368571D02*
X182180953Y-91368571D01*
X182323810Y-91892381D02*
X181847619Y-91892381D01*
X181847619Y-90892381D01*
X182323810Y-90892381D01*
X183323810Y-91892381D02*
X182990476Y-91416190D01*
X182752381Y-91892381D02*
X182752381Y-90892381D01*
X183133334Y-90892381D01*
X183228572Y-90940000D01*
X183276191Y-90987619D01*
X183323810Y-91082857D01*
X183323810Y-91225714D01*
X183276191Y-91320952D01*
X183228572Y-91368571D01*
X183133334Y-91416190D01*
X182752381Y-91416190D01*
D11*
X188432857Y-76878571D02*
X188432857Y-75378571D01*
X189004285Y-75378571D01*
X189147143Y-75450000D01*
X189218571Y-75521429D01*
X189290000Y-75664286D01*
X189290000Y-75878571D01*
X189218571Y-76021429D01*
X189147143Y-76092857D01*
X189004285Y-76164286D01*
X188432857Y-76164286D01*
X190218571Y-75378571D02*
X190504285Y-75378571D01*
X190647143Y-75450000D01*
X190790000Y-75592857D01*
X190861428Y-75878571D01*
X190861428Y-76378571D01*
X190790000Y-76664286D01*
X190647143Y-76807143D01*
X190504285Y-76878571D01*
X190218571Y-76878571D01*
X190075714Y-76807143D01*
X189932857Y-76664286D01*
X189861428Y-76378571D01*
X189861428Y-75878571D01*
X189932857Y-75592857D01*
X190075714Y-75450000D01*
X190218571Y-75378571D01*
X191361429Y-75378571D02*
X191718572Y-76878571D01*
X192004286Y-75807143D01*
X192290000Y-76878571D01*
X192647143Y-75378571D01*
X193218572Y-76092857D02*
X193718572Y-76092857D01*
X193932858Y-76878571D02*
X193218572Y-76878571D01*
X193218572Y-75378571D01*
X193932858Y-75378571D01*
X195432858Y-76878571D02*
X194932858Y-76164286D01*
X194575715Y-76878571D02*
X194575715Y-75378571D01*
X195147143Y-75378571D01*
X195290001Y-75450000D01*
X195361429Y-75521429D01*
X195432858Y-75664286D01*
X195432858Y-75878571D01*
X195361429Y-76021429D01*
X195290001Y-76092857D01*
X195147143Y-76164286D01*
X194575715Y-76164286D01*
X196075715Y-76878571D02*
X196075715Y-75378571D01*
X196790001Y-76878571D02*
X196790001Y-75378571D01*
X197647144Y-76878571D01*
X197647144Y-75378571D01*
D13*
X112443143Y-62480000D02*
X113157429Y-62480000D01*
X112300286Y-62908571D02*
X112800286Y-61408571D01*
X113300286Y-62908571D01*
X113586000Y-61408571D02*
X114086000Y-62908571D01*
X114586000Y-61408571D01*
X115943143Y-62908571D02*
X115443143Y-62194286D01*
X115086000Y-62908571D02*
X115086000Y-61408571D01*
X115657428Y-61408571D01*
X115800286Y-61480000D01*
X115871714Y-61551429D01*
X115943143Y-61694286D01*
X115943143Y-61908571D01*
X115871714Y-62051429D01*
X115800286Y-62122857D01*
X115657428Y-62194286D01*
X115086000Y-62194286D01*
X116228857Y-63051429D02*
X117371714Y-63051429D01*
X117728857Y-62908571D02*
X117728857Y-61408571D01*
X118371714Y-62837143D02*
X118586000Y-62908571D01*
X118943143Y-62908571D01*
X119086000Y-62837143D01*
X119157429Y-62765714D01*
X119228857Y-62622857D01*
X119228857Y-62480000D01*
X119157429Y-62337143D01*
X119086000Y-62265714D01*
X118943143Y-62194286D01*
X118657429Y-62122857D01*
X118514571Y-62051429D01*
X118443143Y-61980000D01*
X118371714Y-61837143D01*
X118371714Y-61694286D01*
X118443143Y-61551429D01*
X118514571Y-61480000D01*
X118657429Y-61408571D01*
X119014571Y-61408571D01*
X119228857Y-61480000D01*
X119871714Y-62908571D02*
X119871714Y-61408571D01*
X120443142Y-61408571D01*
X120586000Y-61480000D01*
X120657428Y-61551429D01*
X120728857Y-61694286D01*
X120728857Y-61908571D01*
X120657428Y-62051429D01*
X120586000Y-62122857D01*
X120443142Y-62194286D01*
X119871714Y-62194286D01*
D12*
X107755000Y-75200000D02*
X107755000Y-77200000D01*
X105605000Y-77200000D02*
X105605000Y-75200000D01*
X127492000Y-73211000D02*
X125492000Y-73211000D01*
X125492000Y-71061000D02*
X127492000Y-71061000D01*
X147125000Y-67580000D02*
X147125000Y-69580000D01*
X144975000Y-69580000D02*
X144975000Y-67580000D01*
X127492000Y-70417000D02*
X125492000Y-70417000D01*
X125492000Y-68267000D02*
X127492000Y-68267000D01*
X153400000Y-74735000D02*
X151400000Y-74735000D01*
X151400000Y-72585000D02*
X153400000Y-72585000D01*
X165295000Y-74660000D02*
X165295000Y-72660000D01*
X167445000Y-72660000D02*
X167445000Y-74660000D01*
X151325000Y-107680000D02*
X151325000Y-105680000D01*
X153475000Y-105680000D02*
X153475000Y-107680000D01*
X139387000Y-107934000D02*
X139387000Y-105934000D01*
X141537000Y-105934000D02*
X141537000Y-107934000D01*
X128465000Y-107680000D02*
X128465000Y-105680000D01*
X130615000Y-105680000D02*
X130615000Y-107680000D01*
X180027000Y-96758000D02*
X180027000Y-94758000D01*
X182177000Y-94758000D02*
X182177000Y-96758000D01*
X146320000Y-103065000D02*
X148320000Y-103065000D01*
X148320000Y-105215000D02*
X146320000Y-105215000D01*
X134382000Y-102811000D02*
X136382000Y-102811000D01*
X136382000Y-104961000D02*
X134382000Y-104961000D01*
X125460000Y-104453000D02*
X123460000Y-104453000D01*
X123460000Y-102303000D02*
X125460000Y-102303000D01*
X176292000Y-99509000D02*
X178292000Y-99509000D01*
X178292000Y-101659000D02*
X176292000Y-101659000D01*
X171391000Y-96758000D02*
X171391000Y-94758000D01*
X173541000Y-94758000D02*
X173541000Y-96758000D01*
X162501000Y-96758000D02*
X162501000Y-94758000D01*
X164651000Y-94758000D02*
X164651000Y-96758000D01*
X153357000Y-96758000D02*
X153357000Y-94758000D01*
X155507000Y-94758000D02*
X155507000Y-96758000D01*
X144467000Y-96758000D02*
X144467000Y-94758000D01*
X146617000Y-94758000D02*
X146617000Y-96758000D01*
X135831000Y-96758000D02*
X135831000Y-94758000D01*
X137981000Y-94758000D02*
X137981000Y-96758000D01*
X167656000Y-99509000D02*
X169656000Y-99509000D01*
X169656000Y-101659000D02*
X167656000Y-101659000D01*
X158766000Y-99509000D02*
X160766000Y-99509000D01*
X160766000Y-101659000D02*
X158766000Y-101659000D01*
X149622000Y-99509000D02*
X151622000Y-99509000D01*
X151622000Y-101659000D02*
X149622000Y-101659000D01*
X140732000Y-99509000D02*
X142732000Y-99509000D01*
X142732000Y-101659000D02*
X140732000Y-101659000D01*
X132096000Y-99509000D02*
X134096000Y-99509000D01*
X134096000Y-101659000D02*
X132096000Y-101659000D01*
X127195000Y-96758000D02*
X127195000Y-94758000D01*
X129345000Y-94758000D02*
X129345000Y-96758000D01*
X123460000Y-99509000D02*
X125460000Y-99509000D01*
X125460000Y-101659000D02*
X123460000Y-101659000D01*
X130869000Y-63516000D02*
X130869000Y-65516000D01*
X128719000Y-65516000D02*
X128719000Y-63516000D01*
X161154000Y-72610000D02*
X157554000Y-72610000D01*
X161154000Y-74710000D02*
X157554000Y-74710000D01*
X159104000Y-73960000D02*
X159104000Y-73360000D01*
X159104000Y-73360000D02*
X159404000Y-73660000D01*
X159404000Y-73660000D02*
X159204000Y-73860000D01*
X159204000Y-73860000D02*
X159204000Y-73610000D01*
X159204000Y-73610000D02*
X159254000Y-73660000D01*
X159504000Y-74160000D02*
X159504000Y-73160000D01*
X159004000Y-73660000D02*
X158504000Y-73660000D01*
X159504000Y-73660000D02*
X159004000Y-74160000D01*
X159004000Y-74160000D02*
X159004000Y-73160000D01*
X159004000Y-73160000D02*
X159504000Y-73660000D01*
X167674000Y-81906000D02*
X167674000Y-78306000D01*
X165574000Y-81906000D02*
X165574000Y-78306000D01*
X166324000Y-79856000D02*
X166924000Y-79856000D01*
X166924000Y-79856000D02*
X166624000Y-80156000D01*
X166624000Y-80156000D02*
X166424000Y-79956000D01*
X166424000Y-79956000D02*
X166674000Y-79956000D01*
X166674000Y-79956000D02*
X166624000Y-80006000D01*
X166124000Y-80256000D02*
X167124000Y-80256000D01*
X166624000Y-79756000D02*
X166624000Y-79256000D01*
X166624000Y-80256000D02*
X166124000Y-79756000D01*
X166124000Y-79756000D02*
X167124000Y-79756000D01*
X167124000Y-79756000D02*
X166624000Y-80256000D01*
X127626000Y-63720000D02*
X124026000Y-63720000D01*
X127626000Y-65820000D02*
X124026000Y-65820000D01*
X125576000Y-65070000D02*
X125576000Y-64470000D01*
X125576000Y-64470000D02*
X125876000Y-64770000D01*
X125876000Y-64770000D02*
X125676000Y-64970000D01*
X125676000Y-64970000D02*
X125676000Y-64720000D01*
X125676000Y-64720000D02*
X125726000Y-64770000D01*
X125976000Y-65270000D02*
X125976000Y-64270000D01*
X125476000Y-64770000D02*
X124976000Y-64770000D01*
X125976000Y-64770000D02*
X125476000Y-65270000D01*
X125476000Y-65270000D02*
X125476000Y-64270000D01*
X125476000Y-64270000D02*
X125976000Y-64770000D01*
X123460000Y-77225000D02*
X125460000Y-77225000D01*
X125460000Y-75175000D02*
X123460000Y-75175000D01*
X124190000Y-87875000D02*
X122190000Y-87875000D01*
X122190000Y-89925000D02*
X124190000Y-89925000D01*
X122945000Y-83550000D02*
X122945000Y-81550000D01*
X120895000Y-81550000D02*
X120895000Y-83550000D01*
X141970000Y-74159000D02*
X139970000Y-74159000D01*
X139970000Y-76209000D02*
X141970000Y-76209000D01*
X141970000Y-89145000D02*
X139970000Y-89145000D01*
X139970000Y-91195000D02*
X141970000Y-91195000D01*
X128270000Y-123190000D02*
X128270000Y-115570000D01*
X128270000Y-115570000D02*
X179070000Y-115570000D01*
X179070000Y-115570000D02*
X179070000Y-123190000D01*
X179070000Y-123190000D02*
X128270000Y-123190000D01*
D14*
X133604000Y-124968000D02*
X133350000Y-124460000D01*
X133096000Y-124968000D02*
X133604000Y-124968000D01*
X133350000Y-124460000D02*
X133096000Y-124968000D01*
X111494000Y-74644000D02*
X117614000Y-74644000D01*
X117614000Y-74644000D02*
X117614000Y-78264000D01*
X117614000Y-78264000D02*
X111494000Y-78264000D01*
X111494000Y-78264000D02*
X111494000Y-74644000D01*
D12*
X144820640Y-76700380D02*
X144820640Y-88399620D01*
X149819360Y-88399620D02*
X149819360Y-76700380D01*
X144820640Y-88399620D02*
X145669000Y-88399620D01*
X149819360Y-88399620D02*
X148971000Y-88399620D01*
X144820640Y-76700380D02*
X145669000Y-76700380D01*
X149819360Y-76700380D02*
X148971000Y-76700380D01*
X131835000Y-71455000D02*
X132485000Y-71455000D01*
X131835000Y-65705000D02*
X132485000Y-65705000D01*
X142485000Y-65705000D02*
X141835000Y-65705000D01*
X142485000Y-71455000D02*
X141835000Y-71455000D01*
X131835000Y-71455000D02*
X131835000Y-65705000D01*
X142485000Y-71455000D02*
X142485000Y-65705000D01*
X132485000Y-71455000D02*
X132485000Y-73055000D01*
X147685760Y-106396840D02*
X147685760Y-106445100D01*
X148386800Y-109195820D02*
X147685760Y-109195820D01*
X147685760Y-109195820D02*
X147685760Y-108946900D01*
X147685760Y-106396840D02*
X147685760Y-106196180D01*
X147685760Y-106196180D02*
X148386800Y-106196180D01*
X135747760Y-106142840D02*
X135747760Y-106191100D01*
X136448800Y-108941820D02*
X135747760Y-108941820D01*
X135747760Y-108941820D02*
X135747760Y-108692900D01*
X135747760Y-106142840D02*
X135747760Y-105942180D01*
X135747760Y-105942180D02*
X136448800Y-105942180D01*
X125079760Y-105380840D02*
X125079760Y-105429100D01*
X125780800Y-108179820D02*
X125079760Y-108179820D01*
X125079760Y-108179820D02*
X125079760Y-107930900D01*
X125079760Y-105380840D02*
X125079760Y-105180180D01*
X125079760Y-105180180D02*
X125780800Y-105180180D01*
X178450240Y-97819160D02*
X178450240Y-97770900D01*
X177749200Y-95020180D02*
X178450240Y-95020180D01*
X178450240Y-95020180D02*
X178450240Y-95269100D01*
X178450240Y-97819160D02*
X178450240Y-98019820D01*
X178450240Y-98019820D02*
X177749200Y-98019820D01*
X169560240Y-97819160D02*
X169560240Y-97770900D01*
X168859200Y-95020180D02*
X169560240Y-95020180D01*
X169560240Y-95020180D02*
X169560240Y-95269100D01*
X169560240Y-97819160D02*
X169560240Y-98019820D01*
X169560240Y-98019820D02*
X168859200Y-98019820D01*
X160670240Y-97819160D02*
X160670240Y-97770900D01*
X159969200Y-95020180D02*
X160670240Y-95020180D01*
X160670240Y-95020180D02*
X160670240Y-95269100D01*
X160670240Y-97819160D02*
X160670240Y-98019820D01*
X160670240Y-98019820D02*
X159969200Y-98019820D01*
X151780240Y-97819160D02*
X151780240Y-97770900D01*
X151079200Y-95020180D02*
X151780240Y-95020180D01*
X151780240Y-95020180D02*
X151780240Y-95269100D01*
X151780240Y-97819160D02*
X151780240Y-98019820D01*
X151780240Y-98019820D02*
X151079200Y-98019820D01*
X142890240Y-97819160D02*
X142890240Y-97770900D01*
X142189200Y-95020180D02*
X142890240Y-95020180D01*
X142890240Y-95020180D02*
X142890240Y-95269100D01*
X142890240Y-97819160D02*
X142890240Y-98019820D01*
X142890240Y-98019820D02*
X142189200Y-98019820D01*
X134000240Y-97819160D02*
X134000240Y-97770900D01*
X133299200Y-95020180D02*
X134000240Y-95020180D01*
X134000240Y-95020180D02*
X134000240Y-95269100D01*
X134000240Y-97819160D02*
X134000240Y-98019820D01*
X134000240Y-98019820D02*
X133299200Y-98019820D01*
X125110240Y-97819160D02*
X125110240Y-97770900D01*
X124409200Y-95020180D02*
X125110240Y-95020180D01*
X125110240Y-95020180D02*
X125110240Y-95269100D01*
X125110240Y-97819160D02*
X125110240Y-98019820D01*
X125110240Y-98019820D02*
X124409200Y-98019820D01*
X158750000Y-77470000D02*
X153670000Y-77470000D01*
X153670000Y-77470000D02*
X153670000Y-80010000D01*
X153670000Y-80010000D02*
X158750000Y-80010000D01*
X161570000Y-80290000D02*
X160020000Y-80290000D01*
X158750000Y-80010000D02*
X158750000Y-77470000D01*
X160020000Y-77190000D02*
X161570000Y-77190000D01*
X161570000Y-77190000D02*
X161570000Y-80290000D01*
X187680000Y-72420000D02*
X189230000Y-72420000D01*
X187680000Y-71120000D02*
X187680000Y-72420000D01*
X189103000Y-66929000D02*
X189103000Y-61087000D01*
X189103000Y-61087000D02*
X189357000Y-61087000D01*
X189357000Y-61087000D02*
X189357000Y-66929000D01*
X189357000Y-66929000D02*
X189230000Y-66929000D01*
X189230000Y-66929000D02*
X189230000Y-61087000D01*
X188976000Y-69596000D02*
X188976000Y-69977000D01*
X189484000Y-69596000D02*
X189484000Y-69977000D01*
X191516000Y-69596000D02*
X191516000Y-69977000D01*
X192024000Y-69596000D02*
X192024000Y-69977000D01*
X194056000Y-69596000D02*
X194056000Y-69977000D01*
X194564000Y-69596000D02*
X194564000Y-69977000D01*
X197104000Y-69596000D02*
X197104000Y-69977000D01*
X196596000Y-69596000D02*
X196596000Y-69977000D01*
X187960000Y-69596000D02*
X187960000Y-67056000D01*
X190500000Y-69596000D02*
X190500000Y-67056000D01*
X190500000Y-69596000D02*
X193040000Y-69596000D01*
X193040000Y-69596000D02*
X193040000Y-67056000D01*
X191516000Y-67056000D02*
X191516000Y-60960000D01*
X191516000Y-60960000D02*
X192024000Y-60960000D01*
X192024000Y-60960000D02*
X192024000Y-67056000D01*
X193040000Y-67056000D02*
X190500000Y-67056000D01*
X190500000Y-67056000D02*
X187960000Y-67056000D01*
X189484000Y-60960000D02*
X189484000Y-67056000D01*
X188976000Y-60960000D02*
X189484000Y-60960000D01*
X188976000Y-67056000D02*
X188976000Y-60960000D01*
X190500000Y-69596000D02*
X190500000Y-67056000D01*
X187960000Y-69596000D02*
X190500000Y-69596000D01*
X195580000Y-69596000D02*
X195580000Y-67056000D01*
X195580000Y-69596000D02*
X198120000Y-69596000D01*
X198120000Y-69596000D02*
X198120000Y-67056000D01*
X196596000Y-67056000D02*
X196596000Y-60960000D01*
X196596000Y-60960000D02*
X197104000Y-60960000D01*
X197104000Y-60960000D02*
X197104000Y-67056000D01*
X198120000Y-67056000D02*
X195580000Y-67056000D01*
X195580000Y-67056000D02*
X193040000Y-67056000D01*
X194564000Y-60960000D02*
X194564000Y-67056000D01*
X194056000Y-60960000D02*
X194564000Y-60960000D01*
X194056000Y-67056000D02*
X194056000Y-60960000D01*
X195580000Y-69596000D02*
X195580000Y-67056000D01*
X193040000Y-69596000D02*
X195580000Y-69596000D01*
X193040000Y-69596000D02*
X193040000Y-67056000D01*
X175260000Y-90170000D02*
X182880000Y-90170000D01*
X175260000Y-87630000D02*
X182880000Y-87630000D01*
X172440000Y-87350000D02*
X173990000Y-87350000D01*
X182880000Y-90170000D02*
X182880000Y-87630000D01*
X175260000Y-87630000D02*
X175260000Y-90170000D01*
X173990000Y-90450000D02*
X172440000Y-90450000D01*
X172440000Y-90450000D02*
X172440000Y-87350000D01*
X125730000Y-119380000D02*
X125730000Y-121920000D01*
X126010000Y-116560000D02*
X126010000Y-118110000D01*
X125730000Y-119380000D02*
X123190000Y-119380000D01*
X122910000Y-118110000D02*
X122910000Y-116560000D01*
X122910000Y-116560000D02*
X126010000Y-116560000D01*
X123190000Y-119380000D02*
X123190000Y-121920000D01*
X123190000Y-121920000D02*
X125730000Y-121920000D01*
X117856000Y-65786000D02*
X118364000Y-65786000D01*
X117856000Y-66294000D02*
X118364000Y-66294000D01*
X117856000Y-68326000D02*
X118364000Y-68326000D01*
X117856000Y-68834000D02*
X118364000Y-68834000D01*
X117856000Y-70866000D02*
X118364000Y-70866000D01*
X117856000Y-71374000D02*
X118364000Y-71374000D01*
X115316000Y-68834000D02*
X115824000Y-68834000D01*
X115316000Y-68326000D02*
X115824000Y-68326000D01*
X115316000Y-66294000D02*
X115824000Y-66294000D01*
X115316000Y-65786000D02*
X115824000Y-65786000D01*
X115316000Y-71374000D02*
X115824000Y-71374000D01*
X115316000Y-70866000D02*
X115824000Y-70866000D01*
X119380000Y-72670000D02*
X120530000Y-72670000D01*
X120530000Y-72670000D02*
X120530000Y-71120000D01*
X112776000Y-71247000D02*
X106807000Y-71247000D01*
X106807000Y-71247000D02*
X106807000Y-70993000D01*
X106807000Y-70993000D02*
X112649000Y-70993000D01*
X112649000Y-70993000D02*
X112649000Y-71120000D01*
X112649000Y-71120000D02*
X106807000Y-71120000D01*
X115316000Y-69850000D02*
X115316000Y-67310000D01*
X115316000Y-67310000D02*
X112776000Y-67310000D01*
X112776000Y-68834000D02*
X106680000Y-68834000D01*
X106680000Y-68834000D02*
X106680000Y-68326000D01*
X106680000Y-68326000D02*
X112776000Y-68326000D01*
X112776000Y-67310000D02*
X112776000Y-69850000D01*
X115316000Y-64770000D02*
X112776000Y-64770000D01*
X112776000Y-64770000D02*
X112776000Y-67310000D01*
X106680000Y-65786000D02*
X112776000Y-65786000D01*
X106680000Y-66294000D02*
X106680000Y-65786000D01*
X112776000Y-66294000D02*
X106680000Y-66294000D01*
X115316000Y-64770000D02*
X112776000Y-64770000D01*
X115316000Y-67310000D02*
X115316000Y-64770000D01*
X115316000Y-67310000D02*
X112776000Y-67310000D01*
X115316000Y-69850000D02*
X112776000Y-69850000D01*
X112776000Y-69850000D02*
X112776000Y-72390000D01*
X106680000Y-70866000D02*
X112776000Y-70866000D01*
X106680000Y-71374000D02*
X106680000Y-70866000D01*
X112776000Y-71374000D02*
X106680000Y-71374000D01*
X115316000Y-69850000D02*
X112776000Y-69850000D01*
X115316000Y-72390000D02*
X115316000Y-69850000D01*
X115316000Y-72390000D02*
X112776000Y-72390000D01*
X126365000Y-84836000D02*
X127762000Y-84836000D01*
X126111000Y-84709000D02*
X127889000Y-84709000D01*
X125730000Y-84582000D02*
X128270000Y-84582000D01*
X128397000Y-84455000D02*
X125603000Y-84455000D01*
X125476000Y-84328000D02*
X128524000Y-84328000D01*
X128651000Y-84201000D02*
X125349000Y-84201000D01*
X125222000Y-84074000D02*
X128778000Y-84074000D01*
X124333000Y-85217000D02*
X124333000Y-80645000D01*
X124333000Y-80645000D02*
X125095000Y-79883000D01*
X125095000Y-79883000D02*
X128905000Y-79883000D01*
X128905000Y-79883000D02*
X129667000Y-80645000D01*
X129667000Y-80645000D02*
X129667000Y-85217000D01*
X129667000Y-85217000D02*
X124333000Y-85217000D01*
X127000000Y-80391000D02*
X127000000Y-81153000D01*
X126619000Y-80772000D02*
X127381000Y-80772000D01*
X129413000Y-82550000D02*
G75*
G03X129413000Y-82550000I-2413000J0D01*
G01*
X140785000Y-86175000D02*
X140785000Y-85850000D01*
X133535000Y-86175000D02*
X133535000Y-85850000D01*
X133535000Y-78925000D02*
X133535000Y-79250000D01*
X140785000Y-78925000D02*
X140785000Y-79250000D01*
X140785000Y-86175000D02*
X140460000Y-86175000D01*
X140785000Y-78925000D02*
X140460000Y-78925000D01*
X133535000Y-78925000D02*
X133860000Y-78925000D01*
X133535000Y-86175000D02*
X133860000Y-86175000D01*
X140785000Y-85850000D02*
X142210000Y-85850000D01*
X126746000Y-113030000D02*
G75*
G03X126746000Y-113030000I-2286000J0D01*
G01*
X183896000Y-113030000D02*
G75*
G03X183896000Y-113030000I-2286000J0D01*
G01*
X183896000Y-62230000D02*
G75*
G03X183896000Y-62230000I-2286000J0D01*
G01*
X110236000Y-61722000D02*
G75*
G03X110236000Y-61722000I-2286000J0D01*
G01*
X158790640Y-58630820D02*
X151089360Y-58630820D01*
X158790640Y-57630060D02*
X151089360Y-57630060D01*
X151089360Y-57630060D02*
X151089360Y-66829940D01*
X151089360Y-66829940D02*
X158790640Y-66829940D01*
X158790640Y-66829940D02*
X158790640Y-57630060D01*
X171990900Y-57142540D02*
X163290900Y-57142540D01*
X171990900Y-63547540D02*
X163290900Y-63547540D01*
X163290900Y-63547540D02*
X163290900Y-57142540D01*
X163290900Y-58372540D02*
X171990900Y-58372540D01*
X171990900Y-57142540D02*
X171990900Y-63547540D01*
X158640780Y-88541860D02*
X159001460Y-90012520D01*
X159001460Y-90012520D02*
X159280860Y-88950800D01*
X159280860Y-88950800D02*
X159590740Y-90022680D01*
X159590740Y-90022680D02*
X159931100Y-88572340D01*
X157220920Y-89232740D02*
X158010860Y-89222580D01*
X158010860Y-89222580D02*
X158021020Y-89232740D01*
X158021020Y-89232740D02*
X158021020Y-89222580D01*
X158061660Y-88511380D02*
X158061660Y-90053160D01*
X157172660Y-88501220D02*
X157172660Y-90070940D01*
X157172660Y-90070940D02*
X157182820Y-90060780D01*
X156621480Y-88602820D02*
X156270960Y-88521540D01*
X156270960Y-88521540D02*
X155950920Y-88511380D01*
X155950920Y-88511380D02*
X155712160Y-88712040D01*
X155712160Y-88712040D02*
X155681680Y-88981280D01*
X155681680Y-88981280D02*
X155922980Y-89222580D01*
X155922980Y-89222580D02*
X156311600Y-89352120D01*
X156311600Y-89352120D02*
X156491940Y-89512140D01*
X156491940Y-89512140D02*
X156532580Y-89811860D01*
X156532580Y-89811860D02*
X156301440Y-90032840D01*
X156301440Y-90032840D02*
X155981400Y-90060780D01*
X155981400Y-90060780D02*
X155630880Y-89951560D01*
X154592020Y-88501220D02*
X154343100Y-88521540D01*
X154343100Y-88521540D02*
X154101800Y-88762840D01*
X154101800Y-88762840D02*
X154012900Y-89253060D01*
X154012900Y-89253060D02*
X154040840Y-89601040D01*
X154040840Y-89601040D02*
X154241500Y-89921080D01*
X154241500Y-89921080D02*
X154492960Y-90043000D01*
X154492960Y-90043000D02*
X154802840Y-89971880D01*
X154802840Y-89971880D02*
X155021280Y-89791540D01*
X155021280Y-89791540D02*
X155092400Y-89331800D01*
X155092400Y-89331800D02*
X155041600Y-88922860D01*
X155041600Y-88922860D02*
X154932380Y-88640920D01*
X154932380Y-88640920D02*
X154571700Y-88511380D01*
X155191460Y-86781640D02*
X154932380Y-87342980D01*
X154932380Y-87342980D02*
X155470860Y-87861140D01*
X155470860Y-87861140D02*
X155991560Y-87591900D01*
X155991560Y-87591900D02*
X156270960Y-87751920D01*
X157711140Y-87731600D02*
X158041340Y-87541100D01*
X158041340Y-87541100D02*
X158480760Y-87871300D01*
X158480760Y-87871300D02*
X158953200Y-87381080D01*
X158953200Y-87381080D02*
X158671260Y-86901020D01*
X158671260Y-86901020D02*
X158861760Y-86431120D01*
X158861760Y-86431120D02*
X159471360Y-86243160D01*
X159471360Y-86243160D02*
X159471360Y-85562440D01*
X159471360Y-85562440D02*
X158912560Y-85422740D01*
X158912560Y-85422740D02*
X158711900Y-84851240D01*
X158711900Y-84851240D02*
X158981140Y-84381340D01*
X158981140Y-84381340D02*
X158511240Y-83870800D01*
X158511240Y-83870800D02*
X157993080Y-84132420D01*
X157993080Y-84132420D02*
X157523180Y-83931760D01*
X157523180Y-83931760D02*
X157353000Y-83390740D01*
X157353000Y-83390740D02*
X156662120Y-83372960D01*
X156662120Y-83372960D02*
X156451300Y-83921600D01*
X156451300Y-83921600D02*
X156032200Y-84091780D01*
X156032200Y-84091780D02*
X155481020Y-83822540D01*
X155481020Y-83822540D02*
X154962860Y-84350860D01*
X154962860Y-84350860D02*
X155211780Y-84891880D01*
X155211780Y-84891880D02*
X155041600Y-85371940D01*
X155041600Y-85371940D02*
X154492960Y-85471000D01*
X154492960Y-85471000D02*
X154482800Y-86172040D01*
X154482800Y-86172040D02*
X155041600Y-86372700D01*
X155041600Y-86372700D02*
X155181300Y-86771480D01*
X157322520Y-86751160D02*
X157622240Y-86601300D01*
X157622240Y-86601300D02*
X157822900Y-86403180D01*
X157822900Y-86403180D02*
X157972760Y-86001860D01*
X157972760Y-86001860D02*
X157972760Y-85603080D01*
X157972760Y-85603080D02*
X157822900Y-85252560D01*
X157822900Y-85252560D02*
X157370780Y-84902040D01*
X157370780Y-84902040D02*
X156921200Y-84851240D01*
X156921200Y-84851240D02*
X156522420Y-84952840D01*
X156522420Y-84952840D02*
X156121100Y-85300820D01*
X156121100Y-85300820D02*
X155971240Y-85752940D01*
X155971240Y-85752940D02*
X156022040Y-86250780D01*
X156022040Y-86250780D02*
X156270960Y-86553040D01*
X156270960Y-86553040D02*
X156621480Y-86751160D01*
X156621480Y-86751160D02*
X156270960Y-87751920D01*
X157322520Y-86751160D02*
X157721300Y-87751920D01*
X109418381Y-80398857D02*
X108942190Y-80732191D01*
X109418381Y-80970286D02*
X108418381Y-80970286D01*
X108418381Y-80589333D01*
X108466000Y-80494095D01*
X108513619Y-80446476D01*
X108608857Y-80398857D01*
X108751714Y-80398857D01*
X108846952Y-80446476D01*
X108894571Y-80494095D01*
X108942190Y-80589333D01*
X108942190Y-80970286D01*
X108513619Y-80017905D02*
X108466000Y-79970286D01*
X108418381Y-79875048D01*
X108418381Y-79636952D01*
X108466000Y-79541714D01*
X108513619Y-79494095D01*
X108608857Y-79446476D01*
X108704095Y-79446476D01*
X108846952Y-79494095D01*
X109418381Y-80065524D01*
X109418381Y-79446476D01*
X108418381Y-79113143D02*
X108418381Y-78446476D01*
X109418381Y-78875048D01*
X122880381Y-72778857D02*
X122404190Y-73112191D01*
X122880381Y-73350286D02*
X121880381Y-73350286D01*
X121880381Y-72969333D01*
X121928000Y-72874095D01*
X121975619Y-72826476D01*
X122070857Y-72778857D01*
X122213714Y-72778857D01*
X122308952Y-72826476D01*
X122356571Y-72874095D01*
X122404190Y-72969333D01*
X122404190Y-73350286D01*
X121975619Y-72397905D02*
X121928000Y-72350286D01*
X121880381Y-72255048D01*
X121880381Y-72016952D01*
X121928000Y-71921714D01*
X121975619Y-71874095D01*
X122070857Y-71826476D01*
X122166095Y-71826476D01*
X122308952Y-71874095D01*
X122880381Y-72445524D01*
X122880381Y-71826476D01*
X121880381Y-70969333D02*
X121880381Y-71159810D01*
X121928000Y-71255048D01*
X121975619Y-71302667D01*
X122118476Y-71397905D01*
X122308952Y-71445524D01*
X122689905Y-71445524D01*
X122785143Y-71397905D01*
X122832762Y-71350286D01*
X122880381Y-71255048D01*
X122880381Y-71064571D01*
X122832762Y-70969333D01*
X122785143Y-70921714D01*
X122689905Y-70874095D01*
X122451810Y-70874095D01*
X122356571Y-70921714D01*
X122308952Y-70969333D01*
X122261333Y-71064571D01*
X122261333Y-71255048D01*
X122308952Y-71350286D01*
X122356571Y-71397905D01*
X122451810Y-71445524D01*
X144202381Y-69222857D02*
X143726190Y-69556191D01*
X144202381Y-69794286D02*
X143202381Y-69794286D01*
X143202381Y-69413333D01*
X143250000Y-69318095D01*
X143297619Y-69270476D01*
X143392857Y-69222857D01*
X143535714Y-69222857D01*
X143630952Y-69270476D01*
X143678571Y-69318095D01*
X143726190Y-69413333D01*
X143726190Y-69794286D01*
X143297619Y-68841905D02*
X143250000Y-68794286D01*
X143202381Y-68699048D01*
X143202381Y-68460952D01*
X143250000Y-68365714D01*
X143297619Y-68318095D01*
X143392857Y-68270476D01*
X143488095Y-68270476D01*
X143630952Y-68318095D01*
X144202381Y-68889524D01*
X144202381Y-68270476D01*
X143202381Y-67365714D02*
X143202381Y-67841905D01*
X143678571Y-67889524D01*
X143630952Y-67841905D01*
X143583333Y-67746667D01*
X143583333Y-67508571D01*
X143630952Y-67413333D01*
X143678571Y-67365714D01*
X143773810Y-67318095D01*
X144011905Y-67318095D01*
X144107143Y-67365714D01*
X144154762Y-67413333D01*
X144202381Y-67508571D01*
X144202381Y-67746667D01*
X144154762Y-67841905D01*
X144107143Y-67889524D01*
X122880381Y-69476857D02*
X122404190Y-69810191D01*
X122880381Y-70048286D02*
X121880381Y-70048286D01*
X121880381Y-69667333D01*
X121928000Y-69572095D01*
X121975619Y-69524476D01*
X122070857Y-69476857D01*
X122213714Y-69476857D01*
X122308952Y-69524476D01*
X122356571Y-69572095D01*
X122404190Y-69667333D01*
X122404190Y-70048286D01*
X121975619Y-69095905D02*
X121928000Y-69048286D01*
X121880381Y-68953048D01*
X121880381Y-68714952D01*
X121928000Y-68619714D01*
X121975619Y-68572095D01*
X122070857Y-68524476D01*
X122166095Y-68524476D01*
X122308952Y-68572095D01*
X122880381Y-69143524D01*
X122880381Y-68524476D01*
X122213714Y-67667333D02*
X122880381Y-67667333D01*
X121832762Y-67905429D02*
X122547048Y-68143524D01*
X122547048Y-67524476D01*
X149725143Y-72080381D02*
X149391809Y-71604190D01*
X149153714Y-72080381D02*
X149153714Y-71080381D01*
X149534667Y-71080381D01*
X149629905Y-71128000D01*
X149677524Y-71175619D01*
X149725143Y-71270857D01*
X149725143Y-71413714D01*
X149677524Y-71508952D01*
X149629905Y-71556571D01*
X149534667Y-71604190D01*
X149153714Y-71604190D01*
X150106095Y-71175619D02*
X150153714Y-71128000D01*
X150248952Y-71080381D01*
X150487048Y-71080381D01*
X150582286Y-71128000D01*
X150629905Y-71175619D01*
X150677524Y-71270857D01*
X150677524Y-71366095D01*
X150629905Y-71508952D01*
X150058476Y-72080381D01*
X150677524Y-72080381D01*
X151010857Y-71080381D02*
X151629905Y-71080381D01*
X151296571Y-71461333D01*
X151439429Y-71461333D01*
X151534667Y-71508952D01*
X151582286Y-71556571D01*
X151629905Y-71651810D01*
X151629905Y-71889905D01*
X151582286Y-71985143D01*
X151534667Y-72032762D01*
X151439429Y-72080381D01*
X151153714Y-72080381D01*
X151058476Y-72032762D01*
X151010857Y-71985143D01*
X169122381Y-74302857D02*
X168646190Y-74636191D01*
X169122381Y-74874286D02*
X168122381Y-74874286D01*
X168122381Y-74493333D01*
X168170000Y-74398095D01*
X168217619Y-74350476D01*
X168312857Y-74302857D01*
X168455714Y-74302857D01*
X168550952Y-74350476D01*
X168598571Y-74398095D01*
X168646190Y-74493333D01*
X168646190Y-74874286D01*
X168217619Y-73921905D02*
X168170000Y-73874286D01*
X168122381Y-73779048D01*
X168122381Y-73540952D01*
X168170000Y-73445714D01*
X168217619Y-73398095D01*
X168312857Y-73350476D01*
X168408095Y-73350476D01*
X168550952Y-73398095D01*
X169122381Y-73969524D01*
X169122381Y-73350476D01*
X168217619Y-72969524D02*
X168170000Y-72921905D01*
X168122381Y-72826667D01*
X168122381Y-72588571D01*
X168170000Y-72493333D01*
X168217619Y-72445714D01*
X168312857Y-72398095D01*
X168408095Y-72398095D01*
X168550952Y-72445714D01*
X169122381Y-73017143D01*
X169122381Y-72398095D01*
X155152381Y-107322857D02*
X154676190Y-107656191D01*
X155152381Y-107894286D02*
X154152381Y-107894286D01*
X154152381Y-107513333D01*
X154200000Y-107418095D01*
X154247619Y-107370476D01*
X154342857Y-107322857D01*
X154485714Y-107322857D01*
X154580952Y-107370476D01*
X154628571Y-107418095D01*
X154676190Y-107513333D01*
X154676190Y-107894286D01*
X154247619Y-106941905D02*
X154200000Y-106894286D01*
X154152381Y-106799048D01*
X154152381Y-106560952D01*
X154200000Y-106465714D01*
X154247619Y-106418095D01*
X154342857Y-106370476D01*
X154438095Y-106370476D01*
X154580952Y-106418095D01*
X155152381Y-106989524D01*
X155152381Y-106370476D01*
X155152381Y-105418095D02*
X155152381Y-105989524D01*
X155152381Y-105703810D02*
X154152381Y-105703810D01*
X154295238Y-105799048D01*
X154390476Y-105894286D01*
X154438095Y-105989524D01*
X143214381Y-107576857D02*
X142738190Y-107910191D01*
X143214381Y-108148286D02*
X142214381Y-108148286D01*
X142214381Y-107767333D01*
X142262000Y-107672095D01*
X142309619Y-107624476D01*
X142404857Y-107576857D01*
X142547714Y-107576857D01*
X142642952Y-107624476D01*
X142690571Y-107672095D01*
X142738190Y-107767333D01*
X142738190Y-108148286D01*
X142309619Y-107195905D02*
X142262000Y-107148286D01*
X142214381Y-107053048D01*
X142214381Y-106814952D01*
X142262000Y-106719714D01*
X142309619Y-106672095D01*
X142404857Y-106624476D01*
X142500095Y-106624476D01*
X142642952Y-106672095D01*
X143214381Y-107243524D01*
X143214381Y-106624476D01*
X142214381Y-106005429D02*
X142214381Y-105910190D01*
X142262000Y-105814952D01*
X142309619Y-105767333D01*
X142404857Y-105719714D01*
X142595333Y-105672095D01*
X142833429Y-105672095D01*
X143023905Y-105719714D01*
X143119143Y-105767333D01*
X143166762Y-105814952D01*
X143214381Y-105910190D01*
X143214381Y-106005429D01*
X143166762Y-106100667D01*
X143119143Y-106148286D01*
X143023905Y-106195905D01*
X142833429Y-106243524D01*
X142595333Y-106243524D01*
X142404857Y-106195905D01*
X142309619Y-106148286D01*
X142262000Y-106100667D01*
X142214381Y-106005429D01*
X132292381Y-107322857D02*
X131816190Y-107656191D01*
X132292381Y-107894286D02*
X131292381Y-107894286D01*
X131292381Y-107513333D01*
X131340000Y-107418095D01*
X131387619Y-107370476D01*
X131482857Y-107322857D01*
X131625714Y-107322857D01*
X131720952Y-107370476D01*
X131768571Y-107418095D01*
X131816190Y-107513333D01*
X131816190Y-107894286D01*
X132292381Y-106370476D02*
X132292381Y-106941905D01*
X132292381Y-106656191D02*
X131292381Y-106656191D01*
X131435238Y-106751429D01*
X131530476Y-106846667D01*
X131578095Y-106941905D01*
X132292381Y-105894286D02*
X132292381Y-105703810D01*
X132244762Y-105608571D01*
X132197143Y-105560952D01*
X132054286Y-105465714D01*
X131863810Y-105418095D01*
X131482857Y-105418095D01*
X131387619Y-105465714D01*
X131340000Y-105513333D01*
X131292381Y-105608571D01*
X131292381Y-105799048D01*
X131340000Y-105894286D01*
X131387619Y-105941905D01*
X131482857Y-105989524D01*
X131720952Y-105989524D01*
X131816190Y-105941905D01*
X131863810Y-105894286D01*
X131911429Y-105799048D01*
X131911429Y-105608571D01*
X131863810Y-105513333D01*
X131816190Y-105465714D01*
X131720952Y-105418095D01*
X183854381Y-96400857D02*
X183378190Y-96734191D01*
X183854381Y-96972286D02*
X182854381Y-96972286D01*
X182854381Y-96591333D01*
X182902000Y-96496095D01*
X182949619Y-96448476D01*
X183044857Y-96400857D01*
X183187714Y-96400857D01*
X183282952Y-96448476D01*
X183330571Y-96496095D01*
X183378190Y-96591333D01*
X183378190Y-96972286D01*
X183854381Y-95448476D02*
X183854381Y-96019905D01*
X183854381Y-95734191D02*
X182854381Y-95734191D01*
X182997238Y-95829429D01*
X183092476Y-95924667D01*
X183140095Y-96019905D01*
X183282952Y-94877048D02*
X183235333Y-94972286D01*
X183187714Y-95019905D01*
X183092476Y-95067524D01*
X183044857Y-95067524D01*
X182949619Y-95019905D01*
X182902000Y-94972286D01*
X182854381Y-94877048D01*
X182854381Y-94686571D01*
X182902000Y-94591333D01*
X182949619Y-94543714D01*
X183044857Y-94496095D01*
X183092476Y-94496095D01*
X183187714Y-94543714D01*
X183235333Y-94591333D01*
X183282952Y-94686571D01*
X183282952Y-94877048D01*
X183330571Y-94972286D01*
X183378190Y-95019905D01*
X183473429Y-95067524D01*
X183663905Y-95067524D01*
X183759143Y-95019905D01*
X183806762Y-94972286D01*
X183854381Y-94877048D01*
X183854381Y-94686571D01*
X183806762Y-94591333D01*
X183759143Y-94543714D01*
X183663905Y-94496095D01*
X183473429Y-94496095D01*
X183378190Y-94543714D01*
X183330571Y-94591333D01*
X183282952Y-94686571D01*
X145661143Y-102560381D02*
X145327809Y-102084190D01*
X145089714Y-102560381D02*
X145089714Y-101560381D01*
X145470667Y-101560381D01*
X145565905Y-101608000D01*
X145613524Y-101655619D01*
X145661143Y-101750857D01*
X145661143Y-101893714D01*
X145613524Y-101988952D01*
X145565905Y-102036571D01*
X145470667Y-102084190D01*
X145089714Y-102084190D01*
X146613524Y-102560381D02*
X146042095Y-102560381D01*
X146327809Y-102560381D02*
X146327809Y-101560381D01*
X146232571Y-101703238D01*
X146137333Y-101798476D01*
X146042095Y-101846095D01*
X146946857Y-101560381D02*
X147613524Y-101560381D01*
X147184952Y-102560381D01*
X136771143Y-102306381D02*
X136437809Y-101830190D01*
X136199714Y-102306381D02*
X136199714Y-101306381D01*
X136580667Y-101306381D01*
X136675905Y-101354000D01*
X136723524Y-101401619D01*
X136771143Y-101496857D01*
X136771143Y-101639714D01*
X136723524Y-101734952D01*
X136675905Y-101782571D01*
X136580667Y-101830190D01*
X136199714Y-101830190D01*
X137723524Y-102306381D02*
X137152095Y-102306381D01*
X137437809Y-102306381D02*
X137437809Y-101306381D01*
X137342571Y-101449238D01*
X137247333Y-101544476D01*
X137152095Y-101592095D01*
X138580667Y-101306381D02*
X138390190Y-101306381D01*
X138294952Y-101354000D01*
X138247333Y-101401619D01*
X138152095Y-101544476D01*
X138104476Y-101734952D01*
X138104476Y-102115905D01*
X138152095Y-102211143D01*
X138199714Y-102258762D01*
X138294952Y-102306381D01*
X138485429Y-102306381D01*
X138580667Y-102258762D01*
X138628286Y-102211143D01*
X138675905Y-102115905D01*
X138675905Y-101877810D01*
X138628286Y-101782571D01*
X138580667Y-101734952D01*
X138485429Y-101687333D01*
X138294952Y-101687333D01*
X138199714Y-101734952D01*
X138152095Y-101782571D01*
X138104476Y-101877810D01*
X129230381Y-101480857D02*
X128754190Y-101814191D01*
X129230381Y-102052286D02*
X128230381Y-102052286D01*
X128230381Y-101671333D01*
X128278000Y-101576095D01*
X128325619Y-101528476D01*
X128420857Y-101480857D01*
X128563714Y-101480857D01*
X128658952Y-101528476D01*
X128706571Y-101576095D01*
X128754190Y-101671333D01*
X128754190Y-102052286D01*
X129230381Y-100528476D02*
X129230381Y-101099905D01*
X129230381Y-100814191D02*
X128230381Y-100814191D01*
X128373238Y-100909429D01*
X128468476Y-101004667D01*
X128516095Y-101099905D01*
X128230381Y-99623714D02*
X128230381Y-100099905D01*
X128706571Y-100147524D01*
X128658952Y-100099905D01*
X128611333Y-100004667D01*
X128611333Y-99766571D01*
X128658952Y-99671333D01*
X128706571Y-99623714D01*
X128801810Y-99576095D01*
X129039905Y-99576095D01*
X129135143Y-99623714D01*
X129182762Y-99671333D01*
X129230381Y-99766571D01*
X129230381Y-100004667D01*
X129182762Y-100099905D01*
X129135143Y-100147524D01*
X176649143Y-103336381D02*
X176315809Y-102860190D01*
X176077714Y-103336381D02*
X176077714Y-102336381D01*
X176458667Y-102336381D01*
X176553905Y-102384000D01*
X176601524Y-102431619D01*
X176649143Y-102526857D01*
X176649143Y-102669714D01*
X176601524Y-102764952D01*
X176553905Y-102812571D01*
X176458667Y-102860190D01*
X176077714Y-102860190D01*
X177601524Y-103336381D02*
X177030095Y-103336381D01*
X177315809Y-103336381D02*
X177315809Y-102336381D01*
X177220571Y-102479238D01*
X177125333Y-102574476D01*
X177030095Y-102622095D01*
X178458667Y-102669714D02*
X178458667Y-103336381D01*
X178220571Y-102288762D02*
X177982476Y-103003048D01*
X178601524Y-103003048D01*
X175218381Y-96400857D02*
X174742190Y-96734191D01*
X175218381Y-96972286D02*
X174218381Y-96972286D01*
X174218381Y-96591333D01*
X174266000Y-96496095D01*
X174313619Y-96448476D01*
X174408857Y-96400857D01*
X174551714Y-96400857D01*
X174646952Y-96448476D01*
X174694571Y-96496095D01*
X174742190Y-96591333D01*
X174742190Y-96972286D01*
X175218381Y-95448476D02*
X175218381Y-96019905D01*
X175218381Y-95734191D02*
X174218381Y-95734191D01*
X174361238Y-95829429D01*
X174456476Y-95924667D01*
X174504095Y-96019905D01*
X174218381Y-95115143D02*
X174218381Y-94496095D01*
X174599333Y-94829429D01*
X174599333Y-94686571D01*
X174646952Y-94591333D01*
X174694571Y-94543714D01*
X174789810Y-94496095D01*
X175027905Y-94496095D01*
X175123143Y-94543714D01*
X175170762Y-94591333D01*
X175218381Y-94686571D01*
X175218381Y-94972286D01*
X175170762Y-95067524D01*
X175123143Y-95115143D01*
X166328381Y-96400857D02*
X165852190Y-96734191D01*
X166328381Y-96972286D02*
X165328381Y-96972286D01*
X165328381Y-96591333D01*
X165376000Y-96496095D01*
X165423619Y-96448476D01*
X165518857Y-96400857D01*
X165661714Y-96400857D01*
X165756952Y-96448476D01*
X165804571Y-96496095D01*
X165852190Y-96591333D01*
X165852190Y-96972286D01*
X166328381Y-95448476D02*
X166328381Y-96019905D01*
X166328381Y-95734191D02*
X165328381Y-95734191D01*
X165471238Y-95829429D01*
X165566476Y-95924667D01*
X165614095Y-96019905D01*
X165423619Y-95067524D02*
X165376000Y-95019905D01*
X165328381Y-94924667D01*
X165328381Y-94686571D01*
X165376000Y-94591333D01*
X165423619Y-94543714D01*
X165518857Y-94496095D01*
X165614095Y-94496095D01*
X165756952Y-94543714D01*
X166328381Y-95115143D01*
X166328381Y-94496095D01*
X157184381Y-96400857D02*
X156708190Y-96734191D01*
X157184381Y-96972286D02*
X156184381Y-96972286D01*
X156184381Y-96591333D01*
X156232000Y-96496095D01*
X156279619Y-96448476D01*
X156374857Y-96400857D01*
X156517714Y-96400857D01*
X156612952Y-96448476D01*
X156660571Y-96496095D01*
X156708190Y-96591333D01*
X156708190Y-96972286D01*
X157184381Y-95448476D02*
X157184381Y-96019905D01*
X157184381Y-95734191D02*
X156184381Y-95734191D01*
X156327238Y-95829429D01*
X156422476Y-95924667D01*
X156470095Y-96019905D01*
X157184381Y-94496095D02*
X157184381Y-95067524D01*
X157184381Y-94781810D02*
X156184381Y-94781810D01*
X156327238Y-94877048D01*
X156422476Y-94972286D01*
X156470095Y-95067524D01*
X148294381Y-96400857D02*
X147818190Y-96734191D01*
X148294381Y-96972286D02*
X147294381Y-96972286D01*
X147294381Y-96591333D01*
X147342000Y-96496095D01*
X147389619Y-96448476D01*
X147484857Y-96400857D01*
X147627714Y-96400857D01*
X147722952Y-96448476D01*
X147770571Y-96496095D01*
X147818190Y-96591333D01*
X147818190Y-96972286D01*
X148294381Y-95448476D02*
X148294381Y-96019905D01*
X148294381Y-95734191D02*
X147294381Y-95734191D01*
X147437238Y-95829429D01*
X147532476Y-95924667D01*
X147580095Y-96019905D01*
X147294381Y-94829429D02*
X147294381Y-94734190D01*
X147342000Y-94638952D01*
X147389619Y-94591333D01*
X147484857Y-94543714D01*
X147675333Y-94496095D01*
X147913429Y-94496095D01*
X148103905Y-94543714D01*
X148199143Y-94591333D01*
X148246762Y-94638952D01*
X148294381Y-94734190D01*
X148294381Y-94829429D01*
X148246762Y-94924667D01*
X148199143Y-94972286D01*
X148103905Y-95019905D01*
X147913429Y-95067524D01*
X147675333Y-95067524D01*
X147484857Y-95019905D01*
X147389619Y-94972286D01*
X147342000Y-94924667D01*
X147294381Y-94829429D01*
X139658381Y-95924666D02*
X139182190Y-96258000D01*
X139658381Y-96496095D02*
X138658381Y-96496095D01*
X138658381Y-96115142D01*
X138706000Y-96019904D01*
X138753619Y-95972285D01*
X138848857Y-95924666D01*
X138991714Y-95924666D01*
X139086952Y-95972285D01*
X139134571Y-96019904D01*
X139182190Y-96115142D01*
X139182190Y-96496095D01*
X139658381Y-95448476D02*
X139658381Y-95258000D01*
X139610762Y-95162761D01*
X139563143Y-95115142D01*
X139420286Y-95019904D01*
X139229810Y-94972285D01*
X138848857Y-94972285D01*
X138753619Y-95019904D01*
X138706000Y-95067523D01*
X138658381Y-95162761D01*
X138658381Y-95353238D01*
X138706000Y-95448476D01*
X138753619Y-95496095D01*
X138848857Y-95543714D01*
X139086952Y-95543714D01*
X139182190Y-95496095D01*
X139229810Y-95448476D01*
X139277429Y-95353238D01*
X139277429Y-95162761D01*
X139229810Y-95067523D01*
X139182190Y-95019904D01*
X139086952Y-94972285D01*
X168489334Y-103336381D02*
X168156000Y-102860190D01*
X167917905Y-103336381D02*
X167917905Y-102336381D01*
X168298858Y-102336381D01*
X168394096Y-102384000D01*
X168441715Y-102431619D01*
X168489334Y-102526857D01*
X168489334Y-102669714D01*
X168441715Y-102764952D01*
X168394096Y-102812571D01*
X168298858Y-102860190D01*
X167917905Y-102860190D01*
X169060762Y-102764952D02*
X168965524Y-102717333D01*
X168917905Y-102669714D01*
X168870286Y-102574476D01*
X168870286Y-102526857D01*
X168917905Y-102431619D01*
X168965524Y-102384000D01*
X169060762Y-102336381D01*
X169251239Y-102336381D01*
X169346477Y-102384000D01*
X169394096Y-102431619D01*
X169441715Y-102526857D01*
X169441715Y-102574476D01*
X169394096Y-102669714D01*
X169346477Y-102717333D01*
X169251239Y-102764952D01*
X169060762Y-102764952D01*
X168965524Y-102812571D01*
X168917905Y-102860190D01*
X168870286Y-102955429D01*
X168870286Y-103145905D01*
X168917905Y-103241143D01*
X168965524Y-103288762D01*
X169060762Y-103336381D01*
X169251239Y-103336381D01*
X169346477Y-103288762D01*
X169394096Y-103241143D01*
X169441715Y-103145905D01*
X169441715Y-102955429D01*
X169394096Y-102860190D01*
X169346477Y-102812571D01*
X169251239Y-102764952D01*
X159599334Y-103336381D02*
X159266000Y-102860190D01*
X159027905Y-103336381D02*
X159027905Y-102336381D01*
X159408858Y-102336381D01*
X159504096Y-102384000D01*
X159551715Y-102431619D01*
X159599334Y-102526857D01*
X159599334Y-102669714D01*
X159551715Y-102764952D01*
X159504096Y-102812571D01*
X159408858Y-102860190D01*
X159027905Y-102860190D01*
X159932667Y-102336381D02*
X160599334Y-102336381D01*
X160170762Y-103336381D01*
X154773334Y-103322381D02*
X154440000Y-102846190D01*
X154201905Y-103322381D02*
X154201905Y-102322381D01*
X154582858Y-102322381D01*
X154678096Y-102370000D01*
X154725715Y-102417619D01*
X154773334Y-102512857D01*
X154773334Y-102655714D01*
X154725715Y-102750952D01*
X154678096Y-102798571D01*
X154582858Y-102846190D01*
X154201905Y-102846190D01*
X155630477Y-102322381D02*
X155440000Y-102322381D01*
X155344762Y-102370000D01*
X155297143Y-102417619D01*
X155201905Y-102560476D01*
X155154286Y-102750952D01*
X155154286Y-103131905D01*
X155201905Y-103227143D01*
X155249524Y-103274762D01*
X155344762Y-103322381D01*
X155535239Y-103322381D01*
X155630477Y-103274762D01*
X155678096Y-103227143D01*
X155725715Y-103131905D01*
X155725715Y-102893810D01*
X155678096Y-102798571D01*
X155630477Y-102750952D01*
X155535239Y-102703333D01*
X155344762Y-102703333D01*
X155249524Y-102750952D01*
X155201905Y-102798571D01*
X155154286Y-102893810D01*
X141565334Y-103336381D02*
X141232000Y-102860190D01*
X140993905Y-103336381D02*
X140993905Y-102336381D01*
X141374858Y-102336381D01*
X141470096Y-102384000D01*
X141517715Y-102431619D01*
X141565334Y-102526857D01*
X141565334Y-102669714D01*
X141517715Y-102764952D01*
X141470096Y-102812571D01*
X141374858Y-102860190D01*
X140993905Y-102860190D01*
X142470096Y-102336381D02*
X141993905Y-102336381D01*
X141946286Y-102812571D01*
X141993905Y-102764952D01*
X142089143Y-102717333D01*
X142327239Y-102717333D01*
X142422477Y-102764952D01*
X142470096Y-102812571D01*
X142517715Y-102907810D01*
X142517715Y-103145905D01*
X142470096Y-103241143D01*
X142422477Y-103288762D01*
X142327239Y-103336381D01*
X142089143Y-103336381D01*
X141993905Y-103288762D01*
X141946286Y-103241143D01*
X130897334Y-103068381D02*
X130564000Y-102592190D01*
X130325905Y-103068381D02*
X130325905Y-102068381D01*
X130706858Y-102068381D01*
X130802096Y-102116000D01*
X130849715Y-102163619D01*
X130897334Y-102258857D01*
X130897334Y-102401714D01*
X130849715Y-102496952D01*
X130802096Y-102544571D01*
X130706858Y-102592190D01*
X130325905Y-102592190D01*
X131754477Y-102401714D02*
X131754477Y-103068381D01*
X131516381Y-102020762D02*
X131278286Y-102735048D01*
X131897334Y-102735048D01*
X131022381Y-95924666D02*
X130546190Y-96258000D01*
X131022381Y-96496095D02*
X130022381Y-96496095D01*
X130022381Y-96115142D01*
X130070000Y-96019904D01*
X130117619Y-95972285D01*
X130212857Y-95924666D01*
X130355714Y-95924666D01*
X130450952Y-95972285D01*
X130498571Y-96019904D01*
X130546190Y-96115142D01*
X130546190Y-96496095D01*
X130022381Y-95591333D02*
X130022381Y-94972285D01*
X130403333Y-95305619D01*
X130403333Y-95162761D01*
X130450952Y-95067523D01*
X130498571Y-95019904D01*
X130593810Y-94972285D01*
X130831905Y-94972285D01*
X130927143Y-95019904D01*
X130974762Y-95067523D01*
X131022381Y-95162761D01*
X131022381Y-95448476D01*
X130974762Y-95543714D01*
X130927143Y-95591333D01*
X122007334Y-106116381D02*
X121674000Y-105640190D01*
X121435905Y-106116381D02*
X121435905Y-105116381D01*
X121816858Y-105116381D01*
X121912096Y-105164000D01*
X121959715Y-105211619D01*
X122007334Y-105306857D01*
X122007334Y-105449714D01*
X121959715Y-105544952D01*
X121912096Y-105592571D01*
X121816858Y-105640190D01*
X121435905Y-105640190D01*
X122388286Y-105211619D02*
X122435905Y-105164000D01*
X122531143Y-105116381D01*
X122769239Y-105116381D01*
X122864477Y-105164000D01*
X122912096Y-105211619D01*
X122959715Y-105306857D01*
X122959715Y-105402095D01*
X122912096Y-105544952D01*
X122340667Y-106116381D01*
X122959715Y-106116381D01*
X127946381Y-64682666D02*
X127470190Y-65016000D01*
X127946381Y-65254095D02*
X126946381Y-65254095D01*
X126946381Y-64873142D01*
X126994000Y-64777904D01*
X127041619Y-64730285D01*
X127136857Y-64682666D01*
X127279714Y-64682666D01*
X127374952Y-64730285D01*
X127422571Y-64777904D01*
X127470190Y-64873142D01*
X127470190Y-65254095D01*
X127946381Y-63730285D02*
X127946381Y-64301714D01*
X127946381Y-64016000D02*
X126946381Y-64016000D01*
X127089238Y-64111238D01*
X127184476Y-64206476D01*
X127232095Y-64301714D01*
X159535905Y-71826381D02*
X159535905Y-70826381D01*
X159774000Y-70826381D01*
X159916858Y-70874000D01*
X160012096Y-70969238D01*
X160059715Y-71064476D01*
X160107334Y-71254952D01*
X160107334Y-71397810D01*
X160059715Y-71588286D01*
X160012096Y-71683524D01*
X159916858Y-71778762D01*
X159774000Y-71826381D01*
X159535905Y-71826381D01*
X160440667Y-70826381D02*
X161059715Y-70826381D01*
X160726381Y-71207333D01*
X160869239Y-71207333D01*
X160964477Y-71254952D01*
X161012096Y-71302571D01*
X161059715Y-71397810D01*
X161059715Y-71635905D01*
X161012096Y-71731143D01*
X160964477Y-71778762D01*
X160869239Y-71826381D01*
X160583524Y-71826381D01*
X160488286Y-71778762D01*
X160440667Y-71731143D01*
X170124381Y-80494095D02*
X169124381Y-80494095D01*
X169124381Y-80256000D01*
X169172000Y-80113142D01*
X169267238Y-80017904D01*
X169362476Y-79970285D01*
X169552952Y-79922666D01*
X169695810Y-79922666D01*
X169886286Y-79970285D01*
X169981524Y-80017904D01*
X170076762Y-80113142D01*
X170124381Y-80256000D01*
X170124381Y-80494095D01*
X169219619Y-79541714D02*
X169172000Y-79494095D01*
X169124381Y-79398857D01*
X169124381Y-79160761D01*
X169172000Y-79065523D01*
X169219619Y-79017904D01*
X169314857Y-78970285D01*
X169410095Y-78970285D01*
X169552952Y-79017904D01*
X170124381Y-79589333D01*
X170124381Y-78970285D01*
X121435905Y-65222381D02*
X121435905Y-64222381D01*
X121674000Y-64222381D01*
X121816858Y-64270000D01*
X121912096Y-64365238D01*
X121959715Y-64460476D01*
X122007334Y-64650952D01*
X122007334Y-64793810D01*
X121959715Y-64984286D01*
X121912096Y-65079524D01*
X121816858Y-65174762D01*
X121674000Y-65222381D01*
X121435905Y-65222381D01*
X122959715Y-65222381D02*
X122388286Y-65222381D01*
X122674000Y-65222381D02*
X122674000Y-64222381D01*
X122578762Y-64365238D01*
X122483524Y-64460476D01*
X122388286Y-64508095D01*
X124293334Y-78857143D02*
X124245715Y-78904762D01*
X124102858Y-78952381D01*
X124007620Y-78952381D01*
X123864762Y-78904762D01*
X123769524Y-78809524D01*
X123721905Y-78714286D01*
X123674286Y-78523810D01*
X123674286Y-78380952D01*
X123721905Y-78190476D01*
X123769524Y-78095238D01*
X123864762Y-78000000D01*
X124007620Y-77952381D01*
X124102858Y-77952381D01*
X124245715Y-78000000D01*
X124293334Y-78047619D01*
X125150477Y-77952381D02*
X124960000Y-77952381D01*
X124864762Y-78000000D01*
X124817143Y-78047619D01*
X124721905Y-78190476D01*
X124674286Y-78380952D01*
X124674286Y-78761905D01*
X124721905Y-78857143D01*
X124769524Y-78904762D01*
X124864762Y-78952381D01*
X125055239Y-78952381D01*
X125150477Y-78904762D01*
X125198096Y-78857143D01*
X125245715Y-78761905D01*
X125245715Y-78523810D01*
X125198096Y-78428571D01*
X125150477Y-78380952D01*
X125055239Y-78333333D01*
X124864762Y-78333333D01*
X124769524Y-78380952D01*
X124721905Y-78428571D01*
X124674286Y-78523810D01*
X123023334Y-86957143D02*
X122975715Y-87004762D01*
X122832858Y-87052381D01*
X122737620Y-87052381D01*
X122594762Y-87004762D01*
X122499524Y-86909524D01*
X122451905Y-86814286D01*
X122404286Y-86623810D01*
X122404286Y-86480952D01*
X122451905Y-86290476D01*
X122499524Y-86195238D01*
X122594762Y-86100000D01*
X122737620Y-86052381D01*
X122832858Y-86052381D01*
X122975715Y-86100000D01*
X123023334Y-86147619D01*
X123880477Y-86385714D02*
X123880477Y-87052381D01*
X123642381Y-86004762D02*
X123404286Y-86719048D01*
X124023334Y-86719048D01*
X124577143Y-82716666D02*
X124624762Y-82764285D01*
X124672381Y-82907142D01*
X124672381Y-83002380D01*
X124624762Y-83145238D01*
X124529524Y-83240476D01*
X124434286Y-83288095D01*
X124243810Y-83335714D01*
X124100952Y-83335714D01*
X123910476Y-83288095D01*
X123815238Y-83240476D01*
X123720000Y-83145238D01*
X123672381Y-83002380D01*
X123672381Y-82907142D01*
X123720000Y-82764285D01*
X123767619Y-82716666D01*
X123672381Y-82383333D02*
X123672381Y-81764285D01*
X124053333Y-82097619D01*
X124053333Y-81954761D01*
X124100952Y-81859523D01*
X124148571Y-81811904D01*
X124243810Y-81764285D01*
X124481905Y-81764285D01*
X124577143Y-81811904D01*
X124624762Y-81859523D01*
X124672381Y-81954761D01*
X124672381Y-82240476D01*
X124624762Y-82335714D01*
X124577143Y-82383333D01*
X136231334Y-75795143D02*
X136183715Y-75842762D01*
X136040858Y-75890381D01*
X135945620Y-75890381D01*
X135802762Y-75842762D01*
X135707524Y-75747524D01*
X135659905Y-75652286D01*
X135612286Y-75461810D01*
X135612286Y-75318952D01*
X135659905Y-75128476D01*
X135707524Y-75033238D01*
X135802762Y-74938000D01*
X135945620Y-74890381D01*
X136040858Y-74890381D01*
X136183715Y-74938000D01*
X136231334Y-74985619D01*
X136612286Y-74985619D02*
X136659905Y-74938000D01*
X136755143Y-74890381D01*
X136993239Y-74890381D01*
X137088477Y-74938000D01*
X137136096Y-74985619D01*
X137183715Y-75080857D01*
X137183715Y-75176095D01*
X137136096Y-75318952D01*
X136564667Y-75890381D01*
X137183715Y-75890381D01*
X136485334Y-90527143D02*
X136437715Y-90574762D01*
X136294858Y-90622381D01*
X136199620Y-90622381D01*
X136056762Y-90574762D01*
X135961524Y-90479524D01*
X135913905Y-90384286D01*
X135866286Y-90193810D01*
X135866286Y-90050952D01*
X135913905Y-89860476D01*
X135961524Y-89765238D01*
X136056762Y-89670000D01*
X136199620Y-89622381D01*
X136294858Y-89622381D01*
X136437715Y-89670000D01*
X136485334Y-89717619D01*
X137437715Y-90622381D02*
X136866286Y-90622381D01*
X137152000Y-90622381D02*
X137152000Y-89622381D01*
X137056762Y-89765238D01*
X136961524Y-89860476D01*
X136866286Y-89908095D01*
X153336667Y-124420381D02*
X153336667Y-125134667D01*
X153289047Y-125277524D01*
X153193809Y-125372762D01*
X153050952Y-125420381D01*
X152955714Y-125420381D01*
X153765238Y-124515619D02*
X153812857Y-124468000D01*
X153908095Y-124420381D01*
X154146191Y-124420381D01*
X154241429Y-124468000D01*
X154289048Y-124515619D01*
X154336667Y-124610857D01*
X154336667Y-124706095D01*
X154289048Y-124848952D01*
X153717619Y-125420381D01*
X154336667Y-125420381D01*
X113220667Y-74258762D02*
X113363524Y-74306381D01*
X113601620Y-74306381D01*
X113696858Y-74258762D01*
X113744477Y-74211143D01*
X113792096Y-74115905D01*
X113792096Y-74020667D01*
X113744477Y-73925429D01*
X113696858Y-73877810D01*
X113601620Y-73830190D01*
X113411143Y-73782571D01*
X113315905Y-73734952D01*
X113268286Y-73687333D01*
X113220667Y-73592095D01*
X113220667Y-73496857D01*
X113268286Y-73401619D01*
X113315905Y-73354000D01*
X113411143Y-73306381D01*
X113649239Y-73306381D01*
X113792096Y-73354000D01*
X114125429Y-73306381D02*
X114363524Y-74306381D01*
X114554001Y-73592095D01*
X114744477Y-74306381D01*
X114982572Y-73306381D01*
X115887334Y-74306381D02*
X115315905Y-74306381D01*
X115601619Y-74306381D02*
X115601619Y-73306381D01*
X115506381Y-73449238D01*
X115411143Y-73544476D01*
X115315905Y-73592095D01*
X152376190Y-83026191D02*
X152852381Y-83026191D01*
X151852381Y-83359524D02*
X152376190Y-83026191D01*
X151852381Y-82692857D01*
X152852381Y-81835714D02*
X152852381Y-82407143D01*
X152852381Y-82121429D02*
X151852381Y-82121429D01*
X151995238Y-82216667D01*
X152090476Y-82311905D01*
X152138095Y-82407143D01*
X130008381Y-69849905D02*
X130817905Y-69849905D01*
X130913143Y-69802286D01*
X130960762Y-69754667D01*
X131008381Y-69659429D01*
X131008381Y-69468952D01*
X130960762Y-69373714D01*
X130913143Y-69326095D01*
X130817905Y-69278476D01*
X130008381Y-69278476D01*
X130103619Y-68849905D02*
X130056000Y-68802286D01*
X130008381Y-68707048D01*
X130008381Y-68468952D01*
X130056000Y-68373714D01*
X130103619Y-68326095D01*
X130198857Y-68278476D01*
X130294095Y-68278476D01*
X130436952Y-68326095D01*
X131008381Y-68897524D01*
X131008381Y-68278476D01*
X146633619Y-108267428D02*
X146586000Y-108362666D01*
X146490762Y-108457904D01*
X146347905Y-108600761D01*
X146300286Y-108696000D01*
X146300286Y-108791238D01*
X146538381Y-108743619D02*
X146490762Y-108838857D01*
X146395524Y-108934095D01*
X146205048Y-108981714D01*
X145871714Y-108981714D01*
X145681238Y-108934095D01*
X145586000Y-108838857D01*
X145538381Y-108743619D01*
X145538381Y-108553142D01*
X145586000Y-108457904D01*
X145681238Y-108362666D01*
X145871714Y-108315047D01*
X146205048Y-108315047D01*
X146395524Y-108362666D01*
X146490762Y-108457904D01*
X146538381Y-108553142D01*
X146538381Y-108743619D01*
X146538381Y-107362666D02*
X146538381Y-107934095D01*
X146538381Y-107648381D02*
X145538381Y-107648381D01*
X145681238Y-107743619D01*
X145776476Y-107838857D01*
X145824095Y-107934095D01*
X145538381Y-106743619D02*
X145538381Y-106648380D01*
X145586000Y-106553142D01*
X145633619Y-106505523D01*
X145728857Y-106457904D01*
X145919333Y-106410285D01*
X146157429Y-106410285D01*
X146347905Y-106457904D01*
X146443143Y-106505523D01*
X146490762Y-106553142D01*
X146538381Y-106648380D01*
X146538381Y-106743619D01*
X146490762Y-106838857D01*
X146443143Y-106886476D01*
X146347905Y-106934095D01*
X146157429Y-106981714D01*
X145919333Y-106981714D01*
X145728857Y-106934095D01*
X145633619Y-106886476D01*
X145586000Y-106838857D01*
X145538381Y-106743619D01*
X134151619Y-109061238D02*
X134104000Y-109156476D01*
X134008762Y-109251714D01*
X133865905Y-109394571D01*
X133818286Y-109489810D01*
X133818286Y-109585048D01*
X134056381Y-109537429D02*
X134008762Y-109632667D01*
X133913524Y-109727905D01*
X133723048Y-109775524D01*
X133389714Y-109775524D01*
X133199238Y-109727905D01*
X133104000Y-109632667D01*
X133056381Y-109537429D01*
X133056381Y-109346952D01*
X133104000Y-109251714D01*
X133199238Y-109156476D01*
X133389714Y-109108857D01*
X133723048Y-109108857D01*
X133913524Y-109156476D01*
X134008762Y-109251714D01*
X134056381Y-109346952D01*
X134056381Y-109537429D01*
X134056381Y-108632667D02*
X134056381Y-108442191D01*
X134008762Y-108346952D01*
X133961143Y-108299333D01*
X133818286Y-108204095D01*
X133627810Y-108156476D01*
X133246857Y-108156476D01*
X133151619Y-108204095D01*
X133104000Y-108251714D01*
X133056381Y-108346952D01*
X133056381Y-108537429D01*
X133104000Y-108632667D01*
X133151619Y-108680286D01*
X133246857Y-108727905D01*
X133484952Y-108727905D01*
X133580190Y-108680286D01*
X133627810Y-108632667D01*
X133675429Y-108537429D01*
X133675429Y-108346952D01*
X133627810Y-108251714D01*
X133580190Y-108204095D01*
X133484952Y-108156476D01*
X123229619Y-107791238D02*
X123182000Y-107886476D01*
X123086762Y-107981714D01*
X122943905Y-108124571D01*
X122896286Y-108219810D01*
X122896286Y-108315048D01*
X123134381Y-108267429D02*
X123086762Y-108362667D01*
X122991524Y-108457905D01*
X122801048Y-108505524D01*
X122467714Y-108505524D01*
X122277238Y-108457905D01*
X122182000Y-108362667D01*
X122134381Y-108267429D01*
X122134381Y-108076952D01*
X122182000Y-107981714D01*
X122277238Y-107886476D01*
X122467714Y-107838857D01*
X122801048Y-107838857D01*
X122991524Y-107886476D01*
X123086762Y-107981714D01*
X123134381Y-108076952D01*
X123134381Y-108267429D01*
X122562952Y-107267429D02*
X122515333Y-107362667D01*
X122467714Y-107410286D01*
X122372476Y-107457905D01*
X122324857Y-107457905D01*
X122229619Y-107410286D01*
X122182000Y-107362667D01*
X122134381Y-107267429D01*
X122134381Y-107076952D01*
X122182000Y-106981714D01*
X122229619Y-106934095D01*
X122324857Y-106886476D01*
X122372476Y-106886476D01*
X122467714Y-106934095D01*
X122515333Y-106981714D01*
X122562952Y-107076952D01*
X122562952Y-107267429D01*
X122610571Y-107362667D01*
X122658190Y-107410286D01*
X122753429Y-107457905D01*
X122943905Y-107457905D01*
X123039143Y-107410286D01*
X123086762Y-107362667D01*
X123134381Y-107267429D01*
X123134381Y-107076952D01*
X123086762Y-106981714D01*
X123039143Y-106934095D01*
X122943905Y-106886476D01*
X122753429Y-106886476D01*
X122658190Y-106934095D01*
X122610571Y-106981714D01*
X122562952Y-107076952D01*
X177958762Y-94273619D02*
X177863524Y-94226000D01*
X177768286Y-94130762D01*
X177625429Y-93987905D01*
X177530190Y-93940286D01*
X177434952Y-93940286D01*
X177482571Y-94178381D02*
X177387333Y-94130762D01*
X177292095Y-94035524D01*
X177244476Y-93845048D01*
X177244476Y-93511714D01*
X177292095Y-93321238D01*
X177387333Y-93226000D01*
X177482571Y-93178381D01*
X177673048Y-93178381D01*
X177768286Y-93226000D01*
X177863524Y-93321238D01*
X177911143Y-93511714D01*
X177911143Y-93845048D01*
X177863524Y-94035524D01*
X177768286Y-94130762D01*
X177673048Y-94178381D01*
X177482571Y-94178381D01*
X178244476Y-93178381D02*
X178911143Y-93178381D01*
X178482571Y-94178381D01*
X168814762Y-94273619D02*
X168719524Y-94226000D01*
X168624286Y-94130762D01*
X168481429Y-93987905D01*
X168386190Y-93940286D01*
X168290952Y-93940286D01*
X168338571Y-94178381D02*
X168243333Y-94130762D01*
X168148095Y-94035524D01*
X168100476Y-93845048D01*
X168100476Y-93511714D01*
X168148095Y-93321238D01*
X168243333Y-93226000D01*
X168338571Y-93178381D01*
X168529048Y-93178381D01*
X168624286Y-93226000D01*
X168719524Y-93321238D01*
X168767143Y-93511714D01*
X168767143Y-93845048D01*
X168719524Y-94035524D01*
X168624286Y-94130762D01*
X168529048Y-94178381D01*
X168338571Y-94178381D01*
X169624286Y-93178381D02*
X169433809Y-93178381D01*
X169338571Y-93226000D01*
X169290952Y-93273619D01*
X169195714Y-93416476D01*
X169148095Y-93606952D01*
X169148095Y-93987905D01*
X169195714Y-94083143D01*
X169243333Y-94130762D01*
X169338571Y-94178381D01*
X169529048Y-94178381D01*
X169624286Y-94130762D01*
X169671905Y-94083143D01*
X169719524Y-93987905D01*
X169719524Y-93749810D01*
X169671905Y-93654571D01*
X169624286Y-93606952D01*
X169529048Y-93559333D01*
X169338571Y-93559333D01*
X169243333Y-93606952D01*
X169195714Y-93654571D01*
X169148095Y-93749810D01*
X160178762Y-94273619D02*
X160083524Y-94226000D01*
X159988286Y-94130762D01*
X159845429Y-93987905D01*
X159750190Y-93940286D01*
X159654952Y-93940286D01*
X159702571Y-94178381D02*
X159607333Y-94130762D01*
X159512095Y-94035524D01*
X159464476Y-93845048D01*
X159464476Y-93511714D01*
X159512095Y-93321238D01*
X159607333Y-93226000D01*
X159702571Y-93178381D01*
X159893048Y-93178381D01*
X159988286Y-93226000D01*
X160083524Y-93321238D01*
X160131143Y-93511714D01*
X160131143Y-93845048D01*
X160083524Y-94035524D01*
X159988286Y-94130762D01*
X159893048Y-94178381D01*
X159702571Y-94178381D01*
X161035905Y-93178381D02*
X160559714Y-93178381D01*
X160512095Y-93654571D01*
X160559714Y-93606952D01*
X160654952Y-93559333D01*
X160893048Y-93559333D01*
X160988286Y-93606952D01*
X161035905Y-93654571D01*
X161083524Y-93749810D01*
X161083524Y-93987905D01*
X161035905Y-94083143D01*
X160988286Y-94130762D01*
X160893048Y-94178381D01*
X160654952Y-94178381D01*
X160559714Y-94130762D01*
X160512095Y-94083143D01*
X151034762Y-94273619D02*
X150939524Y-94226000D01*
X150844286Y-94130762D01*
X150701429Y-93987905D01*
X150606190Y-93940286D01*
X150510952Y-93940286D01*
X150558571Y-94178381D02*
X150463333Y-94130762D01*
X150368095Y-94035524D01*
X150320476Y-93845048D01*
X150320476Y-93511714D01*
X150368095Y-93321238D01*
X150463333Y-93226000D01*
X150558571Y-93178381D01*
X150749048Y-93178381D01*
X150844286Y-93226000D01*
X150939524Y-93321238D01*
X150987143Y-93511714D01*
X150987143Y-93845048D01*
X150939524Y-94035524D01*
X150844286Y-94130762D01*
X150749048Y-94178381D01*
X150558571Y-94178381D01*
X151844286Y-93511714D02*
X151844286Y-94178381D01*
X151606190Y-93130762D02*
X151368095Y-93845048D01*
X151987143Y-93845048D01*
X141890762Y-94527619D02*
X141795524Y-94480000D01*
X141700286Y-94384762D01*
X141557429Y-94241905D01*
X141462190Y-94194286D01*
X141366952Y-94194286D01*
X141414571Y-94432381D02*
X141319333Y-94384762D01*
X141224095Y-94289524D01*
X141176476Y-94099048D01*
X141176476Y-93765714D01*
X141224095Y-93575238D01*
X141319333Y-93480000D01*
X141414571Y-93432381D01*
X141605048Y-93432381D01*
X141700286Y-93480000D01*
X141795524Y-93575238D01*
X141843143Y-93765714D01*
X141843143Y-94099048D01*
X141795524Y-94289524D01*
X141700286Y-94384762D01*
X141605048Y-94432381D01*
X141414571Y-94432381D01*
X142176476Y-93432381D02*
X142795524Y-93432381D01*
X142462190Y-93813333D01*
X142605048Y-93813333D01*
X142700286Y-93860952D01*
X142747905Y-93908571D01*
X142795524Y-94003810D01*
X142795524Y-94241905D01*
X142747905Y-94337143D01*
X142700286Y-94384762D01*
X142605048Y-94432381D01*
X142319333Y-94432381D01*
X142224095Y-94384762D01*
X142176476Y-94337143D01*
X133254762Y-94273619D02*
X133159524Y-94226000D01*
X133064286Y-94130762D01*
X132921429Y-93987905D01*
X132826190Y-93940286D01*
X132730952Y-93940286D01*
X132778571Y-94178381D02*
X132683333Y-94130762D01*
X132588095Y-94035524D01*
X132540476Y-93845048D01*
X132540476Y-93511714D01*
X132588095Y-93321238D01*
X132683333Y-93226000D01*
X132778571Y-93178381D01*
X132969048Y-93178381D01*
X133064286Y-93226000D01*
X133159524Y-93321238D01*
X133207143Y-93511714D01*
X133207143Y-93845048D01*
X133159524Y-94035524D01*
X133064286Y-94130762D01*
X132969048Y-94178381D01*
X132778571Y-94178381D01*
X133588095Y-93273619D02*
X133635714Y-93226000D01*
X133730952Y-93178381D01*
X133969048Y-93178381D01*
X134064286Y-93226000D01*
X134111905Y-93273619D01*
X134159524Y-93368857D01*
X134159524Y-93464095D01*
X134111905Y-93606952D01*
X133540476Y-94178381D01*
X134159524Y-94178381D01*
X124618762Y-94273619D02*
X124523524Y-94226000D01*
X124428286Y-94130762D01*
X124285429Y-93987905D01*
X124190190Y-93940286D01*
X124094952Y-93940286D01*
X124142571Y-94178381D02*
X124047333Y-94130762D01*
X123952095Y-94035524D01*
X123904476Y-93845048D01*
X123904476Y-93511714D01*
X123952095Y-93321238D01*
X124047333Y-93226000D01*
X124142571Y-93178381D01*
X124333048Y-93178381D01*
X124428286Y-93226000D01*
X124523524Y-93321238D01*
X124571143Y-93511714D01*
X124571143Y-93845048D01*
X124523524Y-94035524D01*
X124428286Y-94130762D01*
X124333048Y-94178381D01*
X124142571Y-94178381D01*
X125523524Y-94178381D02*
X124952095Y-94178381D01*
X125237809Y-94178381D02*
X125237809Y-93178381D01*
X125142571Y-93321238D01*
X125047333Y-93416476D01*
X124952095Y-93464095D01*
X159281905Y-82240381D02*
X159281905Y-81240381D01*
X159662858Y-81240381D01*
X159758096Y-81288000D01*
X159805715Y-81335619D01*
X159853334Y-81430857D01*
X159853334Y-81573714D01*
X159805715Y-81668952D01*
X159758096Y-81716571D01*
X159662858Y-81764190D01*
X159281905Y-81764190D01*
X160805715Y-82240381D02*
X160234286Y-82240381D01*
X160520000Y-82240381D02*
X160520000Y-81240381D01*
X160424762Y-81383238D01*
X160329524Y-81478476D01*
X160234286Y-81526095D01*
X183582381Y-71453333D02*
X184296667Y-71453333D01*
X184439524Y-71500953D01*
X184534762Y-71596191D01*
X184582381Y-71739048D01*
X184582381Y-71834286D01*
X183582381Y-70548571D02*
X183582381Y-70739048D01*
X183630000Y-70834286D01*
X183677619Y-70881905D01*
X183820476Y-70977143D01*
X184010952Y-71024762D01*
X184391905Y-71024762D01*
X184487143Y-70977143D01*
X184534762Y-70929524D01*
X184582381Y-70834286D01*
X184582381Y-70643809D01*
X184534762Y-70548571D01*
X184487143Y-70500952D01*
X184391905Y-70453333D01*
X184153810Y-70453333D01*
X184058571Y-70500952D01*
X184010952Y-70548571D01*
X183963333Y-70643809D01*
X183963333Y-70834286D01*
X184010952Y-70929524D01*
X184058571Y-70977143D01*
X184153810Y-71024762D01*
X168342381Y-89233333D02*
X169056667Y-89233333D01*
X169199524Y-89280953D01*
X169294762Y-89376191D01*
X169342381Y-89519048D01*
X169342381Y-89614286D01*
X168342381Y-88852381D02*
X168342381Y-88233333D01*
X168723333Y-88566667D01*
X168723333Y-88423809D01*
X168770952Y-88328571D01*
X168818571Y-88280952D01*
X168913810Y-88233333D01*
X169151905Y-88233333D01*
X169247143Y-88280952D01*
X169294762Y-88328571D01*
X169342381Y-88423809D01*
X169342381Y-88709524D01*
X169294762Y-88804762D01*
X169247143Y-88852381D01*
X124126667Y-112462381D02*
X124126667Y-113176667D01*
X124079047Y-113319524D01*
X123983809Y-113414762D01*
X123840952Y-113462381D01*
X123745714Y-113462381D01*
X125126667Y-113462381D02*
X124555238Y-113462381D01*
X124840952Y-113462381D02*
X124840952Y-112462381D01*
X124745714Y-112605238D01*
X124650476Y-112700476D01*
X124555238Y-112748095D01*
X123547143Y-82716666D02*
X123594762Y-82764285D01*
X123642381Y-82907142D01*
X123642381Y-83002380D01*
X123594762Y-83145238D01*
X123499524Y-83240476D01*
X123404286Y-83288095D01*
X123213810Y-83335714D01*
X123070952Y-83335714D01*
X122880476Y-83288095D01*
X122785238Y-83240476D01*
X122690000Y-83145238D01*
X122642381Y-83002380D01*
X122642381Y-82907142D01*
X122690000Y-82764285D01*
X122737619Y-82716666D01*
X122642381Y-81811904D02*
X122642381Y-82288095D01*
X123118571Y-82335714D01*
X123070952Y-82288095D01*
X123023333Y-82192857D01*
X123023333Y-81954761D01*
X123070952Y-81859523D01*
X123118571Y-81811904D01*
X123213810Y-81764285D01*
X123451905Y-81764285D01*
X123547143Y-81811904D01*
X123594762Y-81859523D01*
X123642381Y-81954761D01*
X123642381Y-82192857D01*
X123594762Y-82288095D01*
X123547143Y-82335714D01*
X129540095Y-88098381D02*
X129540095Y-88907905D01*
X129587714Y-89003143D01*
X129635333Y-89050762D01*
X129730571Y-89098381D01*
X129921048Y-89098381D01*
X130016286Y-89050762D01*
X130063905Y-89003143D01*
X130111524Y-88907905D01*
X130111524Y-88098381D01*
X131111524Y-89098381D02*
X130540095Y-89098381D01*
X130825809Y-89098381D02*
X130825809Y-88098381D01*
X130730571Y-88241238D01*
X130635333Y-88336476D01*
X130540095Y-88384095D01*
X147491201Y-62563333D02*
X148205487Y-62563333D01*
X148348344Y-62610953D01*
X148443582Y-62706191D01*
X148491201Y-62849048D01*
X148491201Y-62944286D01*
X147491201Y-61610952D02*
X147491201Y-62087143D01*
X147967391Y-62134762D01*
X147919772Y-62087143D01*
X147872153Y-61991905D01*
X147872153Y-61753809D01*
X147919772Y-61658571D01*
X147967391Y-61610952D01*
X148062630Y-61563333D01*
X148300725Y-61563333D01*
X148395963Y-61610952D01*
X148443582Y-61658571D01*
X148491201Y-61753809D01*
X148491201Y-61991905D01*
X148443582Y-62087143D01*
X148395963Y-62134762D01*
X172426381Y-62055333D02*
X173140667Y-62055333D01*
X173283524Y-62102953D01*
X173378762Y-62198191D01*
X173426381Y-62341048D01*
X173426381Y-62436286D01*
X172426381Y-61674381D02*
X172426381Y-61007714D01*
X173426381Y-61436286D01*
%LPC*%
D15*
X106680000Y-78200000D03*
X106680000Y-74200000D03*
D16*
X124492000Y-72136000D03*
X128492000Y-72136000D03*
D15*
X146050000Y-70580000D03*
X146050000Y-66580000D03*
D16*
X124492000Y-69342000D03*
X128492000Y-69342000D03*
X150400000Y-73660000D03*
X154400000Y-73660000D03*
D15*
X166370000Y-71660000D03*
X166370000Y-75660000D03*
X152400000Y-104680000D03*
X152400000Y-108680000D03*
X140462000Y-104934000D03*
X140462000Y-108934000D03*
X129540000Y-104680000D03*
X129540000Y-108680000D03*
X181102000Y-93758000D03*
X181102000Y-97758000D03*
D16*
X149320000Y-104140000D03*
X145320000Y-104140000D03*
X137382000Y-103886000D03*
X133382000Y-103886000D03*
X122460000Y-103378000D03*
X126460000Y-103378000D03*
X179292000Y-100584000D03*
X175292000Y-100584000D03*
D15*
X172466000Y-93758000D03*
X172466000Y-97758000D03*
X163576000Y-93758000D03*
X163576000Y-97758000D03*
X154432000Y-93758000D03*
X154432000Y-97758000D03*
X145542000Y-93758000D03*
X145542000Y-97758000D03*
X136906000Y-93758000D03*
X136906000Y-97758000D03*
D16*
X170656000Y-100584000D03*
X166656000Y-100584000D03*
X161766000Y-100584000D03*
X157766000Y-100584000D03*
X152622000Y-100584000D03*
X148622000Y-100584000D03*
X143732000Y-100584000D03*
X139732000Y-100584000D03*
X135096000Y-100584000D03*
X131096000Y-100584000D03*
D15*
X128270000Y-93758000D03*
X128270000Y-97758000D03*
D16*
X126460000Y-100584000D03*
X122460000Y-100584000D03*
D15*
X129794000Y-66516000D03*
X129794000Y-62516000D03*
D17*
X157584140Y-73660000D03*
X160423860Y-73660000D03*
D18*
X166624000Y-78336140D03*
X166624000Y-81175860D03*
D17*
X124056140Y-64770000D03*
X126895860Y-64770000D03*
D19*
X126460000Y-76200000D03*
X122460000Y-76200000D03*
X121190000Y-88900000D03*
X125190000Y-88900000D03*
D20*
X121920000Y-80550000D03*
X121920000Y-84550000D03*
D19*
X138970000Y-75184000D03*
X142970000Y-75184000D03*
X138970000Y-90170000D03*
X142970000Y-90170000D03*
D21*
X133350000Y-120650000D03*
D22*
X133350000Y-118110000D03*
X135890000Y-120650000D03*
X135890000Y-118110000D03*
X138430000Y-120650000D03*
X138430000Y-118110000D03*
X140970000Y-120650000D03*
X140970000Y-118110000D03*
X143510000Y-120650000D03*
X143510000Y-118110000D03*
X146050000Y-120650000D03*
X146050000Y-118110000D03*
X148590000Y-120650000D03*
X148590000Y-118110000D03*
X151130000Y-120650000D03*
X151130000Y-118110000D03*
X153670000Y-120650000D03*
X153670000Y-118110000D03*
X156210000Y-120650000D03*
X156210000Y-118110000D03*
X158750000Y-120650000D03*
X158750000Y-118110000D03*
X161290000Y-120650000D03*
X161290000Y-118110000D03*
X163830000Y-120650000D03*
X163830000Y-118110000D03*
X166370000Y-120650000D03*
X166370000Y-118110000D03*
X168910000Y-120650000D03*
X168910000Y-118110000D03*
X171450000Y-120650000D03*
X171450000Y-118110000D03*
X173990000Y-120650000D03*
X173990000Y-118110000D03*
D23*
X109964000Y-76454000D03*
X119144000Y-76454000D03*
D24*
X147320000Y-77701140D03*
X147320000Y-87398860D03*
D25*
X132935000Y-72180000D03*
X133585000Y-72180000D03*
X134235000Y-72180000D03*
X134885000Y-72180000D03*
X135535000Y-72180000D03*
X136185000Y-72180000D03*
X136835000Y-72180000D03*
X137485000Y-72180000D03*
X138135000Y-72180000D03*
X138785000Y-72180000D03*
X139435000Y-72180000D03*
X140085000Y-72180000D03*
X140735000Y-72180000D03*
X141385000Y-72180000D03*
X141385000Y-64980000D03*
X140735000Y-64980000D03*
X140085000Y-64980000D03*
X139435000Y-64980000D03*
X138785000Y-64980000D03*
X138135000Y-64980000D03*
X137485000Y-64980000D03*
X136835000Y-64980000D03*
X136185000Y-64980000D03*
X135535000Y-64980000D03*
X134885000Y-64980000D03*
X134235000Y-64980000D03*
X133585000Y-64980000D03*
X132935000Y-64980000D03*
D26*
X149336760Y-108646000D03*
X149336760Y-106746000D03*
X147337780Y-107696000D03*
X137398760Y-108392000D03*
X137398760Y-106492000D03*
X135399780Y-107442000D03*
X126730760Y-107630000D03*
X126730760Y-105730000D03*
X124731780Y-106680000D03*
X176799240Y-95570000D03*
X176799240Y-97470000D03*
X178798220Y-96520000D03*
X167909240Y-95570000D03*
X167909240Y-97470000D03*
X169908220Y-96520000D03*
X159019240Y-95570000D03*
X159019240Y-97470000D03*
X161018220Y-96520000D03*
X150129240Y-95570000D03*
X150129240Y-97470000D03*
X152128220Y-96520000D03*
X141239240Y-95570000D03*
X141239240Y-97470000D03*
X143238220Y-96520000D03*
X132349240Y-95570000D03*
X132349240Y-97470000D03*
X134348220Y-96520000D03*
X123459240Y-95570000D03*
X123459240Y-97470000D03*
X125458220Y-96520000D03*
D27*
X160020000Y-78740000D03*
D28*
X157480000Y-78740000D03*
X154940000Y-78740000D03*
D27*
X189230000Y-71120000D03*
D28*
X191770000Y-71120000D03*
X194310000Y-71120000D03*
X196850000Y-71120000D03*
D27*
X173990000Y-88900000D03*
D28*
X176530000Y-88900000D03*
X179070000Y-88900000D03*
X181610000Y-88900000D03*
D29*
X124460000Y-118110000D03*
D30*
X124460000Y-120650000D03*
D31*
X119380000Y-71120000D03*
D32*
X116840000Y-71120000D03*
X119380000Y-68580000D03*
X116840000Y-68580000D03*
X119380000Y-66040000D03*
X116840000Y-66040000D03*
D33*
X127000000Y-80350360D03*
X127000000Y-84749640D03*
D34*
X141410000Y-85350000D03*
X141410000Y-84550000D03*
X141410000Y-83750000D03*
X141410000Y-82950000D03*
X141410000Y-82150000D03*
X141410000Y-81350000D03*
X141410000Y-80550000D03*
X141410000Y-79750000D03*
D35*
X139960000Y-78300000D03*
X139160000Y-78300000D03*
X138360000Y-78300000D03*
X137560000Y-78300000D03*
X136760000Y-78300000D03*
X135960000Y-78300000D03*
X135160000Y-78300000D03*
X134360000Y-78300000D03*
D34*
X132910000Y-79750000D03*
X132910000Y-80550000D03*
X132910000Y-81350000D03*
X132910000Y-82150000D03*
X132910000Y-82950000D03*
X132910000Y-83750000D03*
X132910000Y-84550000D03*
X132910000Y-85350000D03*
D35*
X134360000Y-86800000D03*
X135160000Y-86800000D03*
X135960000Y-86800000D03*
X136760000Y-86800000D03*
X137560000Y-86800000D03*
X138360000Y-86800000D03*
X139160000Y-86800000D03*
X139960000Y-86800000D03*
D36*
X124460000Y-113030000D03*
X181610000Y-113030000D03*
X181610000Y-62230000D03*
X107950000Y-61722000D03*
D37*
X155740100Y-66027300D03*
D38*
X159390080Y-62151260D03*
D37*
X156540200Y-66027300D03*
X154940000Y-66027300D03*
X154139900Y-66027300D03*
X153339800Y-66027300D03*
D38*
X159390080Y-65580260D03*
X150489920Y-65580260D03*
X150495000Y-62103000D03*
D39*
X157139640Y-63080900D03*
X152740360Y-63080900D03*
D40*
X168945560Y-63350140D03*
X168290900Y-63350000D03*
X167640900Y-63350000D03*
X166990900Y-63350000D03*
X166340900Y-63350000D03*
D41*
X170140900Y-62522540D03*
X165140900Y-62522540D03*
D42*
X171140900Y-59822540D03*
X164140900Y-59822540D03*
D43*
X118626100Y-75148900D03*
X144195300Y-86639500D03*
X140100300Y-80657200D03*
X142374300Y-76508800D03*
X141410000Y-78933200D03*
X132349100Y-78933000D03*
X131220000Y-79231100D03*
X134925400Y-76993600D03*
X140225700Y-103352100D03*
X152306000Y-115112200D03*
X131718100Y-98370700D03*
X145269700Y-99821800D03*
X140202100Y-98310300D03*
X164944200Y-97758000D03*
X162990500Y-64005300D03*
X165101800Y-65614400D03*
X148948600Y-64980000D03*
X155176700Y-68119800D03*
X133524600Y-73558800D03*
X138028000Y-85488000D03*
X135755800Y-73568300D03*
X139347300Y-85487400D03*
X145223600Y-68176700D03*
X141860400Y-108934000D03*
X157680400Y-109420400D03*
X130663600Y-80977600D03*
X126268100Y-93758000D03*
X127302600Y-91737000D03*
X135023400Y-80902300D03*
X131383100Y-96903000D03*
X136373900Y-80455600D03*
X139793700Y-97193000D03*
X135120300Y-84550000D03*
X147436600Y-97214400D03*
X139587700Y-88110000D03*
X155947900Y-99296400D03*
X140080300Y-84550000D03*
X164125500Y-95682300D03*
X140073800Y-79626800D03*
X141055700Y-86146400D03*
X143810700Y-91883300D03*
X127844600Y-102159500D03*
X136324900Y-79620300D03*
X131007700Y-103354600D03*
X136065400Y-76996000D03*
X143674600Y-104045400D03*
X132991400Y-86378600D03*
X156128900Y-68044700D03*
X165241900Y-66804600D03*
M02*
