%TF.GenerationSoftware,KiCad,Pcbnew,4.0.2+dfsg1-stable*%
%TF.CreationDate,2019-02-28T19:11:37+01:00*%
%TF.ProjectId,usbavrfloppy,757362617672666C6F7070792E6B6963,rev?*%
%TF.FileFunction,Legend,Top*%
%FSLAX46Y46*%
G04 Gerber Fmt 4.6, Leading zero omitted, Abs format (unit mm)*
G04 Created by KiCad (PCBNEW 4.0.2+dfsg1-stable) date Thu 28 Feb 2019 19:11:37 CET*
%MOMM*%
G01*
G04 APERTURE LIST*
%ADD10C,0.100000*%
%ADD11C,0.200000*%
%ADD12C,0.120000*%
%ADD13C,0.300000*%
%ADD14C,0.150000*%
%ADD15R,0.400000X3.000000*%
%ADD16O,1.250000X0.950000*%
%ADD17O,1.000000X1.550000*%
%ADD18R,0.500380X3.000000*%
%ADD19R,1.998980X2.499360*%
%ADD20C,0.899160*%
%ADD21C,4.064000*%
%ADD22R,1.300000X1.500000*%
%ADD23R,1.500000X1.300000*%
%ADD24R,1.198880X1.198880*%
%ADD25R,1.600000X0.550000*%
%ADD26R,0.550000X1.600000*%
%ADD27R,1.500000X1.250000*%
%ADD28R,1.250000X1.500000*%
%ADD29R,1.600200X2.999740*%
%ADD30R,1.727200X1.727200*%
%ADD31O,1.727200X1.727200*%
%ADD32R,2.032000X2.032000*%
%ADD33O,2.032000X2.032000*%
%ADD34R,1.727200X2.032000*%
%ADD35O,1.727200X2.032000*%
%ADD36R,0.800100X0.800100*%
%ADD37R,0.450000X1.750000*%
%ADD38R,2.100580X5.600700*%
%ADD39R,2.180000X1.600000*%
%ADD40R,1.520000X1.520000*%
%ADD41C,1.520000*%
%ADD42C,0.600000*%
G04 APERTURE END LIST*
D10*
D11*
X125603000Y-67310000D02*
G75*
G03X125603000Y-67310000I-127000J0D01*
G01*
X160274000Y-74930000D02*
G75*
G03X160274000Y-74930000I-127000J0D01*
G01*
X168148000Y-80772000D02*
G75*
G03X168148000Y-80772000I-127000J0D01*
G01*
X170180000Y-64262000D02*
G75*
G03X170180000Y-64262000I-127000J0D01*
G01*
X157607000Y-67691000D02*
G75*
G03X157607000Y-67691000I-127000J0D01*
G01*
D12*
X155895001Y-127226190D02*
X155895001Y-126726190D01*
X155895001Y-127202381D02*
X155828334Y-127226190D01*
X155695001Y-127226190D01*
X155628334Y-127202381D01*
X155595001Y-127178571D01*
X155561667Y-127130952D01*
X155561667Y-126988095D01*
X155595001Y-126940476D01*
X155628334Y-126916667D01*
X155695001Y-126892857D01*
X155828334Y-126892857D01*
X155895001Y-126916667D01*
X156495000Y-127202381D02*
X156428334Y-127226190D01*
X156295000Y-127226190D01*
X156228334Y-127202381D01*
X156195000Y-127154762D01*
X156195000Y-126964286D01*
X156228334Y-126916667D01*
X156295000Y-126892857D01*
X156428334Y-126892857D01*
X156495000Y-126916667D01*
X156528334Y-126964286D01*
X156528334Y-127011905D01*
X156195000Y-127059524D01*
X156795000Y-127202381D02*
X156861667Y-127226190D01*
X156995000Y-127226190D01*
X157061667Y-127202381D01*
X157095000Y-127154762D01*
X157095000Y-127130952D01*
X157061667Y-127083333D01*
X156995000Y-127059524D01*
X156895000Y-127059524D01*
X156828334Y-127035714D01*
X156795000Y-126988095D01*
X156795000Y-126964286D01*
X156828334Y-126916667D01*
X156895000Y-126892857D01*
X156995000Y-126892857D01*
X157061667Y-126916667D01*
X157395001Y-127226190D02*
X157395001Y-126892857D01*
X157395001Y-126726190D02*
X157361667Y-126750000D01*
X157395001Y-126773810D01*
X157428334Y-126750000D01*
X157395001Y-126726190D01*
X157395001Y-126773810D01*
X158028334Y-126892857D02*
X158028334Y-127297619D01*
X157995000Y-127345238D01*
X157961667Y-127369048D01*
X157895000Y-127392857D01*
X157795000Y-127392857D01*
X157728334Y-127369048D01*
X158028334Y-127202381D02*
X157961667Y-127226190D01*
X157828334Y-127226190D01*
X157761667Y-127202381D01*
X157728334Y-127178571D01*
X157695000Y-127130952D01*
X157695000Y-126988095D01*
X157728334Y-126940476D01*
X157761667Y-126916667D01*
X157828334Y-126892857D01*
X157961667Y-126892857D01*
X158028334Y-126916667D01*
X158361667Y-126892857D02*
X158361667Y-127226190D01*
X158361667Y-126940476D02*
X158395000Y-126916667D01*
X158461667Y-126892857D01*
X158561667Y-126892857D01*
X158628333Y-126916667D01*
X158661667Y-126964286D01*
X158661667Y-127226190D01*
X159261666Y-127202381D02*
X159195000Y-127226190D01*
X159061666Y-127226190D01*
X158995000Y-127202381D01*
X158961666Y-127154762D01*
X158961666Y-126964286D01*
X158995000Y-126916667D01*
X159061666Y-126892857D01*
X159195000Y-126892857D01*
X159261666Y-126916667D01*
X159295000Y-126964286D01*
X159295000Y-127011905D01*
X158961666Y-127059524D01*
X159895000Y-127226190D02*
X159895000Y-126726190D01*
X159895000Y-127202381D02*
X159828333Y-127226190D01*
X159695000Y-127226190D01*
X159628333Y-127202381D01*
X159595000Y-127178571D01*
X159561666Y-127130952D01*
X159561666Y-126988095D01*
X159595000Y-126940476D01*
X159628333Y-126916667D01*
X159695000Y-126892857D01*
X159828333Y-126892857D01*
X159895000Y-126916667D01*
X160761666Y-127226190D02*
X160761666Y-126726190D01*
X160761666Y-126916667D02*
X160828332Y-126892857D01*
X160961666Y-126892857D01*
X161028332Y-126916667D01*
X161061666Y-126940476D01*
X161094999Y-126988095D01*
X161094999Y-127130952D01*
X161061666Y-127178571D01*
X161028332Y-127202381D01*
X160961666Y-127226190D01*
X160828332Y-127226190D01*
X160761666Y-127202381D01*
X161328332Y-126892857D02*
X161494999Y-127226190D01*
X161661665Y-126892857D02*
X161494999Y-127226190D01*
X161428332Y-127345238D01*
X161394999Y-127369048D01*
X161328332Y-127392857D01*
X162861665Y-127226190D02*
X162628331Y-126988095D01*
X162461665Y-127226190D02*
X162461665Y-126726190D01*
X162728331Y-126726190D01*
X162794998Y-126750000D01*
X162828331Y-126773810D01*
X162861665Y-126821429D01*
X162861665Y-126892857D01*
X162828331Y-126940476D01*
X162794998Y-126964286D01*
X162728331Y-126988095D01*
X162461665Y-126988095D01*
X163161665Y-127178571D02*
X163194998Y-127202381D01*
X163161665Y-127226190D01*
X163128331Y-127202381D01*
X163161665Y-127178571D01*
X163161665Y-127226190D01*
X163861664Y-126750000D02*
X163794998Y-126726190D01*
X163694998Y-126726190D01*
X163594998Y-126750000D01*
X163528331Y-126797619D01*
X163494998Y-126845238D01*
X163461664Y-126940476D01*
X163461664Y-127011905D01*
X163494998Y-127107143D01*
X163528331Y-127154762D01*
X163594998Y-127202381D01*
X163694998Y-127226190D01*
X163761664Y-127226190D01*
X163861664Y-127202381D01*
X163894998Y-127178571D01*
X163894998Y-127011905D01*
X163761664Y-127011905D01*
X164194998Y-127178571D02*
X164228331Y-127202381D01*
X164194998Y-127226190D01*
X164161664Y-127202381D01*
X164194998Y-127178571D01*
X164194998Y-127226190D01*
X165028330Y-126773810D02*
X165061664Y-126750000D01*
X165128330Y-126726190D01*
X165294997Y-126726190D01*
X165361664Y-126750000D01*
X165394997Y-126773810D01*
X165428330Y-126821429D01*
X165428330Y-126869048D01*
X165394997Y-126940476D01*
X164994997Y-127226190D01*
X165428330Y-127226190D01*
X165861664Y-126726190D02*
X165928331Y-126726190D01*
X165994997Y-126750000D01*
X166028331Y-126773810D01*
X166061664Y-126821429D01*
X166094997Y-126916667D01*
X166094997Y-127035714D01*
X166061664Y-127130952D01*
X166028331Y-127178571D01*
X165994997Y-127202381D01*
X165928331Y-127226190D01*
X165861664Y-127226190D01*
X165794997Y-127202381D01*
X165761664Y-127178571D01*
X165728331Y-127130952D01*
X165694997Y-127035714D01*
X165694997Y-126916667D01*
X165728331Y-126821429D01*
X165761664Y-126773810D01*
X165794997Y-126750000D01*
X165861664Y-126726190D01*
X166761664Y-127226190D02*
X166361664Y-127226190D01*
X166561664Y-127226190D02*
X166561664Y-126726190D01*
X166494998Y-126797619D01*
X166428331Y-126845238D01*
X166361664Y-126869048D01*
X167161665Y-126940476D02*
X167094998Y-126916667D01*
X167061665Y-126892857D01*
X167028331Y-126845238D01*
X167028331Y-126821429D01*
X167061665Y-126773810D01*
X167094998Y-126750000D01*
X167161665Y-126726190D01*
X167294998Y-126726190D01*
X167361665Y-126750000D01*
X167394998Y-126773810D01*
X167428331Y-126821429D01*
X167428331Y-126845238D01*
X167394998Y-126892857D01*
X167361665Y-126916667D01*
X167294998Y-126940476D01*
X167161665Y-126940476D01*
X167094998Y-126964286D01*
X167061665Y-126988095D01*
X167028331Y-127035714D01*
X167028331Y-127130952D01*
X167061665Y-127178571D01*
X167094998Y-127202381D01*
X167161665Y-127226190D01*
X167294998Y-127226190D01*
X167361665Y-127202381D01*
X167394998Y-127178571D01*
X167428331Y-127130952D01*
X167428331Y-127035714D01*
X167394998Y-126988095D01*
X167361665Y-126964286D01*
X167294998Y-126940476D01*
X168228332Y-126702381D02*
X167628332Y-127345238D01*
X168428331Y-126773810D02*
X168461665Y-126750000D01*
X168528331Y-126726190D01*
X168694998Y-126726190D01*
X168761665Y-126750000D01*
X168794998Y-126773810D01*
X168828331Y-126821429D01*
X168828331Y-126869048D01*
X168794998Y-126940476D01*
X168394998Y-127226190D01*
X168828331Y-127226190D01*
X169261665Y-126726190D02*
X169328332Y-126726190D01*
X169394998Y-126750000D01*
X169428332Y-126773810D01*
X169461665Y-126821429D01*
X169494998Y-126916667D01*
X169494998Y-127035714D01*
X169461665Y-127130952D01*
X169428332Y-127178571D01*
X169394998Y-127202381D01*
X169328332Y-127226190D01*
X169261665Y-127226190D01*
X169194998Y-127202381D01*
X169161665Y-127178571D01*
X169128332Y-127130952D01*
X169094998Y-127035714D01*
X169094998Y-126916667D01*
X169128332Y-126821429D01*
X169161665Y-126773810D01*
X169194998Y-126750000D01*
X169261665Y-126726190D01*
X170161665Y-127226190D02*
X169761665Y-127226190D01*
X169961665Y-127226190D02*
X169961665Y-126726190D01*
X169894999Y-126797619D01*
X169828332Y-126845238D01*
X169761665Y-126869048D01*
X170494999Y-127226190D02*
X170628332Y-127226190D01*
X170694999Y-127202381D01*
X170728332Y-127178571D01*
X170794999Y-127107143D01*
X170828332Y-127011905D01*
X170828332Y-126821429D01*
X170794999Y-126773810D01*
X170761666Y-126750000D01*
X170694999Y-126726190D01*
X170561666Y-126726190D01*
X170494999Y-126750000D01*
X170461666Y-126773810D01*
X170428332Y-126821429D01*
X170428332Y-126940476D01*
X170461666Y-126988095D01*
X170494999Y-127011905D01*
X170561666Y-127035714D01*
X170694999Y-127035714D01*
X170761666Y-127011905D01*
X170794999Y-126988095D01*
X170828332Y-126940476D01*
D13*
X172775715Y-125670571D02*
X173704286Y-125670571D01*
X173204286Y-126242000D01*
X173418572Y-126242000D01*
X173561429Y-126313429D01*
X173632858Y-126384857D01*
X173704286Y-126527714D01*
X173704286Y-126884857D01*
X173632858Y-127027714D01*
X173561429Y-127099143D01*
X173418572Y-127170571D01*
X172990000Y-127170571D01*
X172847143Y-127099143D01*
X172775715Y-127027714D01*
X174204286Y-125670571D02*
X175132857Y-125670571D01*
X174632857Y-126242000D01*
X174847143Y-126242000D01*
X174990000Y-126313429D01*
X175061429Y-126384857D01*
X175132857Y-126527714D01*
X175132857Y-126884857D01*
X175061429Y-127027714D01*
X174990000Y-127099143D01*
X174847143Y-127170571D01*
X174418571Y-127170571D01*
X174275714Y-127099143D01*
X174204286Y-127027714D01*
X172775715Y-112208571D02*
X173704286Y-112208571D01*
X173204286Y-112780000D01*
X173418572Y-112780000D01*
X173561429Y-112851429D01*
X173632858Y-112922857D01*
X173704286Y-113065714D01*
X173704286Y-113422857D01*
X173632858Y-113565714D01*
X173561429Y-113637143D01*
X173418572Y-113708571D01*
X172990000Y-113708571D01*
X172847143Y-113637143D01*
X172775715Y-113565714D01*
X174990000Y-112708571D02*
X174990000Y-113708571D01*
X174632857Y-112137143D02*
X174275714Y-113208571D01*
X175204286Y-113208571D01*
X132921429Y-112351429D02*
X132992858Y-112280000D01*
X133135715Y-112208571D01*
X133492858Y-112208571D01*
X133635715Y-112280000D01*
X133707144Y-112351429D01*
X133778572Y-112494286D01*
X133778572Y-112637143D01*
X133707144Y-112851429D01*
X132850001Y-113708571D01*
X133778572Y-113708571D01*
X133778572Y-127170571D02*
X132921429Y-127170571D01*
X133350001Y-127170571D02*
X133350001Y-125670571D01*
X133207144Y-125884857D01*
X133064286Y-126027714D01*
X132921429Y-126099143D01*
D10*
X173766667Y-85976667D02*
X173433334Y-85976667D01*
X173400000Y-86310000D01*
X173433334Y-86276667D01*
X173500000Y-86243333D01*
X173666667Y-86243333D01*
X173733334Y-86276667D01*
X173766667Y-86310000D01*
X173800000Y-86376667D01*
X173800000Y-86543333D01*
X173766667Y-86610000D01*
X173733334Y-86643333D01*
X173666667Y-86676667D01*
X173500000Y-86676667D01*
X173433334Y-86643333D01*
X173400000Y-86610000D01*
X174000001Y-85976667D02*
X174233334Y-86676667D01*
X174466667Y-85976667D01*
X175600000Y-86010000D02*
X175533334Y-85976667D01*
X175433334Y-85976667D01*
X175333334Y-86010000D01*
X175266667Y-86076667D01*
X175233334Y-86143333D01*
X175200000Y-86276667D01*
X175200000Y-86376667D01*
X175233334Y-86510000D01*
X175266667Y-86576667D01*
X175333334Y-86643333D01*
X175433334Y-86676667D01*
X175500000Y-86676667D01*
X175600000Y-86643333D01*
X175633334Y-86610000D01*
X175633334Y-86376667D01*
X175500000Y-86376667D01*
X175933334Y-86676667D02*
X175933334Y-85976667D01*
X176333334Y-86676667D01*
X176333334Y-85976667D01*
X176666667Y-86676667D02*
X176666667Y-85976667D01*
X176833333Y-85976667D01*
X176933333Y-86010000D01*
X177000000Y-86076667D01*
X177033333Y-86143333D01*
X177066667Y-86276667D01*
X177066667Y-86376667D01*
X177033333Y-86510000D01*
X177000000Y-86576667D01*
X176933333Y-86643333D01*
X176833333Y-86676667D01*
X176666667Y-86676667D01*
X178266666Y-86010000D02*
X178200000Y-85976667D01*
X178100000Y-85976667D01*
X178000000Y-86010000D01*
X177933333Y-86076667D01*
X177900000Y-86143333D01*
X177866666Y-86276667D01*
X177866666Y-86376667D01*
X177900000Y-86510000D01*
X177933333Y-86576667D01*
X178000000Y-86643333D01*
X178100000Y-86676667D01*
X178166666Y-86676667D01*
X178266666Y-86643333D01*
X178300000Y-86610000D01*
X178300000Y-86376667D01*
X178166666Y-86376667D01*
X178600000Y-86676667D02*
X178600000Y-85976667D01*
X179000000Y-86676667D01*
X179000000Y-85976667D01*
X179333333Y-86676667D02*
X179333333Y-85976667D01*
X179499999Y-85976667D01*
X179599999Y-86010000D01*
X179666666Y-86076667D01*
X179699999Y-86143333D01*
X179733333Y-86276667D01*
X179733333Y-86376667D01*
X179699999Y-86510000D01*
X179666666Y-86576667D01*
X179599999Y-86643333D01*
X179499999Y-86676667D01*
X179333333Y-86676667D01*
X180933332Y-86676667D02*
X180533332Y-86676667D01*
X180733332Y-86676667D02*
X180733332Y-85976667D01*
X180666666Y-86076667D01*
X180599999Y-86143333D01*
X180533332Y-86176667D01*
X181199999Y-86043333D02*
X181233333Y-86010000D01*
X181299999Y-85976667D01*
X181466666Y-85976667D01*
X181533333Y-86010000D01*
X181566666Y-86043333D01*
X181599999Y-86110000D01*
X181599999Y-86176667D01*
X181566666Y-86276667D01*
X181166666Y-86676667D01*
X181599999Y-86676667D01*
X181800000Y-85976667D02*
X182033333Y-86676667D01*
X182266666Y-85976667D01*
D11*
X131572000Y-73914000D02*
G75*
G03X131572000Y-73914000I-254000J0D01*
G01*
X142748000Y-63754000D02*
X142748000Y-63500000D01*
X131572000Y-63500000D02*
X142748000Y-63500000D01*
X131572000Y-73406000D02*
X131572000Y-63500000D01*
X142748000Y-73406000D02*
X131572000Y-73406000D01*
X142748000Y-63500000D02*
X142748000Y-73406000D01*
X141986000Y-87122000D02*
G75*
G03X141986000Y-87122000I-254000J0D01*
G01*
X131572000Y-88138000D02*
X131572000Y-76962000D01*
X142748000Y-88138000D02*
X131572000Y-88138000D01*
X142748000Y-76962000D02*
X142748000Y-88138000D01*
X131572000Y-76962000D02*
X142748000Y-76962000D01*
D13*
X111550990Y-83935634D02*
X111702512Y-83077005D01*
X110944898Y-83329543D02*
X112005558Y-82268882D01*
X112409619Y-82672943D01*
X112460127Y-82824467D01*
X112460126Y-82925482D01*
X112409619Y-83077005D01*
X112258097Y-83228527D01*
X112106573Y-83279035D01*
X112005558Y-83279035D01*
X111854035Y-83228527D01*
X111449974Y-82824467D01*
X112914696Y-84188172D02*
X113015711Y-84390203D01*
X113015711Y-84491218D01*
X112965203Y-84642741D01*
X112813680Y-84794264D01*
X112662157Y-84844771D01*
X112561142Y-84844772D01*
X112409619Y-84794263D01*
X112005558Y-84390203D01*
X113066219Y-83329543D01*
X113419772Y-83683096D01*
X113470279Y-83834619D01*
X113470279Y-83935635D01*
X113419771Y-84087157D01*
X113318756Y-84188172D01*
X113167234Y-84238680D01*
X113066218Y-84238680D01*
X112914696Y-84188172D01*
X112561142Y-83834619D01*
X113571295Y-85955939D02*
X113066219Y-85450863D01*
X114126879Y-84390203D01*
X115187539Y-85450863D02*
X115288554Y-85551878D01*
X115339061Y-85703401D01*
X115339061Y-85804417D01*
X115288554Y-85955940D01*
X115137031Y-86208478D01*
X114884493Y-86461016D01*
X114631955Y-86612539D01*
X114480432Y-86663046D01*
X114379416Y-86663046D01*
X114227894Y-86612538D01*
X114126879Y-86511523D01*
X114076371Y-86360001D01*
X114076371Y-86258985D01*
X114126879Y-86107462D01*
X114278401Y-85854924D01*
X114530939Y-85602386D01*
X114783478Y-85450864D01*
X114935000Y-85400356D01*
X115036016Y-85400356D01*
X115187539Y-85450863D01*
X116197691Y-86461015D02*
X116298706Y-86562030D01*
X116349214Y-86713553D01*
X116349214Y-86814569D01*
X116298706Y-86966092D01*
X116147183Y-87218630D01*
X115894645Y-87471168D01*
X115642107Y-87622691D01*
X115490584Y-87673198D01*
X115389569Y-87673198D01*
X115238046Y-87622690D01*
X115137031Y-87521675D01*
X115086523Y-87370153D01*
X115086523Y-87269137D01*
X115137031Y-87117615D01*
X115288553Y-86865076D01*
X115541092Y-86612538D01*
X115793630Y-86461016D01*
X115945152Y-86410508D01*
X116046168Y-86410508D01*
X116197691Y-86461015D01*
X116904798Y-87168122D02*
X117561397Y-87824721D01*
X116803782Y-87875229D01*
X116955305Y-88026752D01*
X117005812Y-88178275D01*
X117005813Y-88279290D01*
X116955305Y-88430812D01*
X116702767Y-88683351D01*
X116551245Y-88733859D01*
X116450229Y-88733859D01*
X116298706Y-88683351D01*
X115995660Y-88380304D01*
X115945152Y-88228782D01*
X115945153Y-88127767D01*
X117056320Y-89238934D02*
X117056320Y-89339950D01*
X116955305Y-89339950D01*
X116955304Y-89238934D01*
X117056320Y-89238934D01*
X116955305Y-89339950D01*
X119026118Y-89289442D02*
X118521042Y-88784366D01*
X117965457Y-89238934D01*
X118066473Y-89238935D01*
X118217996Y-89289442D01*
X118470534Y-89541981D01*
X118521041Y-89693504D01*
X118521042Y-89794519D01*
X118470534Y-89946041D01*
X118217996Y-90198579D01*
X118066473Y-90249087D01*
X117965457Y-90249087D01*
X117813935Y-90198579D01*
X117561397Y-89946041D01*
X117510889Y-89794519D01*
X117510889Y-89693503D01*
D11*
X161787024Y-83986667D02*
X162263215Y-83986667D01*
X161656071Y-84272381D02*
X162114404Y-83272381D01*
X162322738Y-84272381D01*
X162656071Y-84272381D02*
X162781071Y-83272381D01*
X163025120Y-83986667D01*
X163447738Y-83272381D01*
X163322738Y-84272381D01*
X163798928Y-84272381D02*
X163923928Y-83272381D01*
X164917976Y-83320000D02*
X164828690Y-83272381D01*
X164685833Y-83272381D01*
X164537023Y-83320000D01*
X164429880Y-83415238D01*
X164370357Y-83510476D01*
X164298928Y-83700952D01*
X164281071Y-83843810D01*
X164304880Y-84034286D01*
X164340595Y-84129524D01*
X164423928Y-84224762D01*
X164560833Y-84272381D01*
X164656071Y-84272381D01*
X164804881Y-84224762D01*
X164858452Y-84177143D01*
X164900119Y-83843810D01*
X164709643Y-83843810D01*
X165263214Y-83986667D02*
X165739405Y-83986667D01*
X165132261Y-84272381D02*
X165590594Y-83272381D01*
X165798928Y-84272381D01*
X167292977Y-83748571D02*
X166959643Y-83748571D01*
X166894166Y-84272381D02*
X167019166Y-83272381D01*
X167495357Y-83272381D01*
X168227500Y-84272381D02*
X167751309Y-84272381D01*
X167876309Y-83272381D01*
X168876309Y-83272381D02*
X169066786Y-83272381D01*
X169156072Y-83320000D01*
X169239405Y-83415238D01*
X169263215Y-83605714D01*
X169221548Y-83939048D01*
X169150120Y-84129524D01*
X169042977Y-84224762D01*
X168941786Y-84272381D01*
X168751309Y-84272381D01*
X168662024Y-84224762D01*
X168578691Y-84129524D01*
X168554881Y-83939048D01*
X168596548Y-83605714D01*
X168667976Y-83415238D01*
X168775119Y-83320000D01*
X168876309Y-83272381D01*
X169608452Y-84272381D02*
X169733452Y-83272381D01*
X170114405Y-83272381D01*
X170203691Y-83320000D01*
X170245358Y-83367619D01*
X170281072Y-83462857D01*
X170263215Y-83605714D01*
X170203691Y-83700952D01*
X170150120Y-83748571D01*
X170048929Y-83796190D01*
X169667976Y-83796190D01*
X170608452Y-84272381D02*
X170733452Y-83272381D01*
X171114405Y-83272381D01*
X171203691Y-83320000D01*
X171245358Y-83367619D01*
X171281072Y-83462857D01*
X171263215Y-83605714D01*
X171203691Y-83700952D01*
X171150120Y-83748571D01*
X171048929Y-83796190D01*
X170667976Y-83796190D01*
X171858452Y-83796190D02*
X171798928Y-84272381D01*
X171590595Y-83272381D02*
X171858452Y-83796190D01*
X172257262Y-83272381D01*
X173227500Y-84272381D02*
X173352500Y-83272381D01*
X173590595Y-83272381D01*
X173727501Y-83320000D01*
X173810834Y-83415238D01*
X173846549Y-83510476D01*
X173870358Y-83700952D01*
X173852501Y-83843810D01*
X173781072Y-84034286D01*
X173721549Y-84129524D01*
X173614406Y-84224762D01*
X173465595Y-84272381D01*
X173227500Y-84272381D01*
X174227500Y-84272381D02*
X174352500Y-83272381D01*
X174662024Y-84224762D02*
X174798928Y-84272381D01*
X175037024Y-84272381D01*
X175138215Y-84224762D01*
X175191786Y-84177143D01*
X175251310Y-84081905D01*
X175263215Y-83986667D01*
X175227500Y-83891429D01*
X175185834Y-83843810D01*
X175096548Y-83796190D01*
X174912024Y-83748571D01*
X174822738Y-83700952D01*
X174781071Y-83653333D01*
X174745357Y-83558095D01*
X174757262Y-83462857D01*
X174816786Y-83367619D01*
X174870357Y-83320000D01*
X174971547Y-83272381D01*
X175209643Y-83272381D01*
X175346548Y-83320000D01*
X175656071Y-84272381D02*
X175781071Y-83272381D01*
X176227500Y-84272381D02*
X175870357Y-83700952D01*
X176352500Y-83272381D02*
X175709643Y-83843810D01*
X177406072Y-83986667D02*
X177882263Y-83986667D01*
X177275119Y-84272381D02*
X177733452Y-83272381D01*
X177941786Y-84272381D01*
X178275119Y-84272381D02*
X178400119Y-83272381D01*
X178638214Y-83272381D01*
X178775120Y-83320000D01*
X178858453Y-83415238D01*
X178894168Y-83510476D01*
X178917977Y-83700952D01*
X178900120Y-83843810D01*
X178828691Y-84034286D01*
X178769168Y-84129524D01*
X178662025Y-84224762D01*
X178513214Y-84272381D01*
X178275119Y-84272381D01*
X179673930Y-83748571D02*
X179340596Y-83748571D01*
X179275119Y-84272381D02*
X179400119Y-83272381D01*
X179876310Y-83272381D01*
X181465596Y-84272381D02*
X181191786Y-83796190D01*
X180894167Y-84272381D02*
X181019167Y-83272381D01*
X181400120Y-83272381D01*
X181489406Y-83320000D01*
X181531073Y-83367619D01*
X181566787Y-83462857D01*
X181548930Y-83605714D01*
X181489406Y-83700952D01*
X181435835Y-83748571D01*
X181334644Y-83796190D01*
X180953691Y-83796190D01*
X181959644Y-83748571D02*
X182292978Y-83748571D01*
X182370358Y-84272381D02*
X181894167Y-84272381D01*
X182019167Y-83272381D01*
X182495358Y-83272381D01*
X182787025Y-83986667D02*
X183263216Y-83986667D01*
X182656072Y-84272381D02*
X183114405Y-83272381D01*
X183322739Y-84272381D01*
X183656072Y-84272381D02*
X183781072Y-83272381D01*
X184019167Y-83272381D01*
X184156073Y-83320000D01*
X184239406Y-83415238D01*
X184275121Y-83510476D01*
X184298930Y-83700952D01*
X184281073Y-83843810D01*
X184209644Y-84034286D01*
X184150121Y-84129524D01*
X184042978Y-84224762D01*
X183894167Y-84272381D01*
X183656072Y-84272381D01*
X184721549Y-83748571D02*
X185054883Y-83748571D01*
X185132263Y-84272381D02*
X184656072Y-84272381D01*
X184781072Y-83272381D01*
X185257263Y-83272381D01*
X186132263Y-84272381D02*
X185858453Y-83796190D01*
X185560834Y-84272381D02*
X185685834Y-83272381D01*
X186066787Y-83272381D01*
X186156073Y-83320000D01*
X186197740Y-83367619D01*
X186233454Y-83462857D01*
X186215597Y-83605714D01*
X186156073Y-83700952D01*
X186102502Y-83748571D01*
X186001311Y-83796190D01*
X185620358Y-83796190D01*
X187406073Y-83224762D02*
X186388215Y-84510476D01*
X187638215Y-83272381D02*
X187751310Y-84272381D01*
X188031073Y-83558095D01*
X188132263Y-84272381D01*
X188495358Y-83272381D01*
X189322739Y-84272381D02*
X189048929Y-83796190D01*
X188751310Y-84272381D02*
X188876310Y-83272381D01*
X189257263Y-83272381D01*
X189346549Y-83320000D01*
X189388216Y-83367619D01*
X189423930Y-83462857D01*
X189406073Y-83605714D01*
X189346549Y-83700952D01*
X189292978Y-83748571D01*
X189191787Y-83796190D01*
X188810834Y-83796190D01*
X189751310Y-84272381D02*
X189876310Y-83272381D01*
X190209643Y-83272381D02*
X190781072Y-83272381D01*
X190370357Y-84272381D02*
X190495357Y-83272381D01*
X191054882Y-83748571D02*
X191388216Y-83748571D01*
X191465596Y-84272381D02*
X190989405Y-84272381D01*
X191114405Y-83272381D01*
X191590596Y-83272381D01*
X192465596Y-84272381D02*
X192191786Y-83796190D01*
X191894167Y-84272381D02*
X192019167Y-83272381D01*
X192400120Y-83272381D01*
X192489406Y-83320000D01*
X192531073Y-83367619D01*
X192566787Y-83462857D01*
X192548930Y-83605714D01*
X192489406Y-83700952D01*
X192435835Y-83748571D01*
X192334644Y-83796190D01*
X191953691Y-83796190D01*
D13*
X144189572Y-112795857D02*
X143689572Y-112795857D01*
X143689572Y-113581571D02*
X143689572Y-112081571D01*
X144403858Y-112081571D01*
X145689572Y-113581571D02*
X144975286Y-113581571D01*
X144975286Y-112081571D01*
X146475286Y-112081571D02*
X146761000Y-112081571D01*
X146903858Y-112153000D01*
X147046715Y-112295857D01*
X147118143Y-112581571D01*
X147118143Y-113081571D01*
X147046715Y-113367286D01*
X146903858Y-113510143D01*
X146761000Y-113581571D01*
X146475286Y-113581571D01*
X146332429Y-113510143D01*
X146189572Y-113367286D01*
X146118143Y-113081571D01*
X146118143Y-112581571D01*
X146189572Y-112295857D01*
X146332429Y-112153000D01*
X146475286Y-112081571D01*
X147761001Y-113581571D02*
X147761001Y-112081571D01*
X148332429Y-112081571D01*
X148475287Y-112153000D01*
X148546715Y-112224429D01*
X148618144Y-112367286D01*
X148618144Y-112581571D01*
X148546715Y-112724429D01*
X148475287Y-112795857D01*
X148332429Y-112867286D01*
X147761001Y-112867286D01*
X149261001Y-113581571D02*
X149261001Y-112081571D01*
X149832429Y-112081571D01*
X149975287Y-112153000D01*
X150046715Y-112224429D01*
X150118144Y-112367286D01*
X150118144Y-112581571D01*
X150046715Y-112724429D01*
X149975287Y-112795857D01*
X149832429Y-112867286D01*
X149261001Y-112867286D01*
X151046715Y-112867286D02*
X151046715Y-113581571D01*
X150546715Y-112081571D02*
X151046715Y-112867286D01*
X151546715Y-112081571D01*
X154046715Y-113438714D02*
X153975286Y-113510143D01*
X153761000Y-113581571D01*
X153618143Y-113581571D01*
X153403858Y-113510143D01*
X153261000Y-113367286D01*
X153189572Y-113224429D01*
X153118143Y-112938714D01*
X153118143Y-112724429D01*
X153189572Y-112438714D01*
X153261000Y-112295857D01*
X153403858Y-112153000D01*
X153618143Y-112081571D01*
X153761000Y-112081571D01*
X153975286Y-112153000D01*
X154046715Y-112224429D01*
X154618143Y-113153000D02*
X155332429Y-113153000D01*
X154475286Y-113581571D02*
X154975286Y-112081571D01*
X155475286Y-113581571D01*
X156475286Y-112795857D02*
X156689572Y-112867286D01*
X156761000Y-112938714D01*
X156832429Y-113081571D01*
X156832429Y-113295857D01*
X156761000Y-113438714D01*
X156689572Y-113510143D01*
X156546714Y-113581571D01*
X155975286Y-113581571D01*
X155975286Y-112081571D01*
X156475286Y-112081571D01*
X156618143Y-112153000D01*
X156689572Y-112224429D01*
X156761000Y-112367286D01*
X156761000Y-112510143D01*
X156689572Y-112653000D01*
X156618143Y-112724429D01*
X156475286Y-112795857D01*
X155975286Y-112795857D01*
X158189572Y-113581571D02*
X157475286Y-113581571D01*
X157475286Y-112081571D01*
X158689572Y-112795857D02*
X159189572Y-112795857D01*
X159403858Y-113581571D02*
X158689572Y-113581571D01*
X158689572Y-112081571D01*
X159403858Y-112081571D01*
X151725715Y-69028571D02*
X151725715Y-70242857D01*
X151797143Y-70385714D01*
X151868572Y-70457143D01*
X152011429Y-70528571D01*
X152297143Y-70528571D01*
X152440001Y-70457143D01*
X152511429Y-70385714D01*
X152582858Y-70242857D01*
X152582858Y-69028571D01*
X153225715Y-70457143D02*
X153440001Y-70528571D01*
X153797144Y-70528571D01*
X153940001Y-70457143D01*
X154011430Y-70385714D01*
X154082858Y-70242857D01*
X154082858Y-70100000D01*
X154011430Y-69957143D01*
X153940001Y-69885714D01*
X153797144Y-69814286D01*
X153511430Y-69742857D01*
X153368572Y-69671429D01*
X153297144Y-69600000D01*
X153225715Y-69457143D01*
X153225715Y-69314286D01*
X153297144Y-69171429D01*
X153368572Y-69100000D01*
X153511430Y-69028571D01*
X153868572Y-69028571D01*
X154082858Y-69100000D01*
X155225715Y-69742857D02*
X155440001Y-69814286D01*
X155511429Y-69885714D01*
X155582858Y-70028571D01*
X155582858Y-70242857D01*
X155511429Y-70385714D01*
X155440001Y-70457143D01*
X155297143Y-70528571D01*
X154725715Y-70528571D01*
X154725715Y-69028571D01*
X155225715Y-69028571D01*
X155368572Y-69100000D01*
X155440001Y-69171429D01*
X155511429Y-69314286D01*
X155511429Y-69457143D01*
X155440001Y-69600000D01*
X155368572Y-69671429D01*
X155225715Y-69742857D01*
X154725715Y-69742857D01*
X155868572Y-70671429D02*
X157011429Y-70671429D01*
X157868572Y-69742857D02*
X158082858Y-69814286D01*
X158154286Y-69885714D01*
X158225715Y-70028571D01*
X158225715Y-70242857D01*
X158154286Y-70385714D01*
X158082858Y-70457143D01*
X157940000Y-70528571D01*
X157368572Y-70528571D01*
X157368572Y-69028571D01*
X157868572Y-69028571D01*
X158011429Y-69100000D01*
X158082858Y-69171429D01*
X158154286Y-69314286D01*
X158154286Y-69457143D01*
X158082858Y-69600000D01*
X158011429Y-69671429D01*
X157868572Y-69742857D01*
X157368572Y-69742857D01*
X163068572Y-66488571D02*
X163068572Y-67702857D01*
X163140000Y-67845714D01*
X163211429Y-67917143D01*
X163354286Y-67988571D01*
X163640000Y-67988571D01*
X163782858Y-67917143D01*
X163854286Y-67845714D01*
X163925715Y-67702857D01*
X163925715Y-66488571D01*
X164568572Y-67917143D02*
X164782858Y-67988571D01*
X165140001Y-67988571D01*
X165282858Y-67917143D01*
X165354287Y-67845714D01*
X165425715Y-67702857D01*
X165425715Y-67560000D01*
X165354287Y-67417143D01*
X165282858Y-67345714D01*
X165140001Y-67274286D01*
X164854287Y-67202857D01*
X164711429Y-67131429D01*
X164640001Y-67060000D01*
X164568572Y-66917143D01*
X164568572Y-66774286D01*
X164640001Y-66631429D01*
X164711429Y-66560000D01*
X164854287Y-66488571D01*
X165211429Y-66488571D01*
X165425715Y-66560000D01*
X166568572Y-67202857D02*
X166782858Y-67274286D01*
X166854286Y-67345714D01*
X166925715Y-67488571D01*
X166925715Y-67702857D01*
X166854286Y-67845714D01*
X166782858Y-67917143D01*
X166640000Y-67988571D01*
X166068572Y-67988571D01*
X166068572Y-66488571D01*
X166568572Y-66488571D01*
X166711429Y-66560000D01*
X166782858Y-66631429D01*
X166854286Y-66774286D01*
X166854286Y-66917143D01*
X166782858Y-67060000D01*
X166711429Y-67131429D01*
X166568572Y-67202857D01*
X166068572Y-67202857D01*
X167211429Y-68131429D02*
X168354286Y-68131429D01*
X168997143Y-66488571D02*
X169282857Y-66488571D01*
X169425715Y-66560000D01*
X169568572Y-66702857D01*
X169640000Y-66988571D01*
X169640000Y-67488571D01*
X169568572Y-67774286D01*
X169425715Y-67917143D01*
X169282857Y-67988571D01*
X168997143Y-67988571D01*
X168854286Y-67917143D01*
X168711429Y-67774286D01*
X168640000Y-67488571D01*
X168640000Y-66988571D01*
X168711429Y-66702857D01*
X168854286Y-66560000D01*
X168997143Y-66488571D01*
X170068572Y-66488571D02*
X170925715Y-66488571D01*
X170497144Y-67988571D02*
X170497144Y-66488571D01*
X172211429Y-66560000D02*
X172068572Y-66488571D01*
X171854286Y-66488571D01*
X171640001Y-66560000D01*
X171497143Y-66702857D01*
X171425715Y-66845714D01*
X171354286Y-67131429D01*
X171354286Y-67345714D01*
X171425715Y-67631429D01*
X171497143Y-67774286D01*
X171640001Y-67917143D01*
X171854286Y-67988571D01*
X171997143Y-67988571D01*
X172211429Y-67917143D01*
X172282858Y-67845714D01*
X172282858Y-67345714D01*
X171997143Y-67345714D01*
D11*
X188532072Y-73985381D02*
X188074929Y-73985381D01*
X188303500Y-73985381D02*
X188303500Y-72985381D01*
X188227310Y-73128238D01*
X188151119Y-73223476D01*
X188074929Y-73271095D01*
X188836834Y-73080619D02*
X188874929Y-73033000D01*
X188951120Y-72985381D01*
X189141596Y-72985381D01*
X189217786Y-73033000D01*
X189255882Y-73080619D01*
X189293977Y-73175857D01*
X189293977Y-73271095D01*
X189255882Y-73413952D01*
X188798739Y-73985381D01*
X189293977Y-73985381D01*
X189522548Y-72985381D02*
X189789215Y-73985381D01*
X190055882Y-72985381D01*
X191351120Y-73033000D02*
X191274929Y-72985381D01*
X191160644Y-72985381D01*
X191046358Y-73033000D01*
X190970167Y-73128238D01*
X190932072Y-73223476D01*
X190893977Y-73413952D01*
X190893977Y-73556810D01*
X190932072Y-73747286D01*
X190970167Y-73842524D01*
X191046358Y-73937762D01*
X191160644Y-73985381D01*
X191236834Y-73985381D01*
X191351120Y-73937762D01*
X191389215Y-73890143D01*
X191389215Y-73556810D01*
X191236834Y-73556810D01*
X191732072Y-73985381D02*
X191732072Y-72985381D01*
X192189215Y-73985381D01*
X192189215Y-72985381D01*
X192570167Y-73985381D02*
X192570167Y-72985381D01*
X192760643Y-72985381D01*
X192874929Y-73033000D01*
X192951120Y-73128238D01*
X192989215Y-73223476D01*
X193027310Y-73413952D01*
X193027310Y-73556810D01*
X192989215Y-73747286D01*
X192951120Y-73842524D01*
X192874929Y-73937762D01*
X192760643Y-73985381D01*
X192570167Y-73985381D01*
X194398739Y-73033000D02*
X194322548Y-72985381D01*
X194208263Y-72985381D01*
X194093977Y-73033000D01*
X194017786Y-73128238D01*
X193979691Y-73223476D01*
X193941596Y-73413952D01*
X193941596Y-73556810D01*
X193979691Y-73747286D01*
X194017786Y-73842524D01*
X194093977Y-73937762D01*
X194208263Y-73985381D01*
X194284453Y-73985381D01*
X194398739Y-73937762D01*
X194436834Y-73890143D01*
X194436834Y-73556810D01*
X194284453Y-73556810D01*
X194779691Y-73985381D02*
X194779691Y-72985381D01*
X195236834Y-73985381D01*
X195236834Y-72985381D01*
X195617786Y-73985381D02*
X195617786Y-72985381D01*
X195808262Y-72985381D01*
X195922548Y-73033000D01*
X195998739Y-73128238D01*
X196036834Y-73223476D01*
X196074929Y-73413952D01*
X196074929Y-73556810D01*
X196036834Y-73747286D01*
X195998739Y-73842524D01*
X195922548Y-73937762D01*
X195808262Y-73985381D01*
X195617786Y-73985381D01*
X197408263Y-72985381D02*
X197027310Y-72985381D01*
X196989215Y-73461571D01*
X197027310Y-73413952D01*
X197103501Y-73366333D01*
X197293977Y-73366333D01*
X197370167Y-73413952D01*
X197408263Y-73461571D01*
X197446358Y-73556810D01*
X197446358Y-73794905D01*
X197408263Y-73890143D01*
X197370167Y-73937762D01*
X197293977Y-73985381D01*
X197103501Y-73985381D01*
X197027310Y-73937762D01*
X196989215Y-73890143D01*
X197674929Y-72985381D02*
X197941596Y-73985381D01*
X198208263Y-72985381D01*
X154927618Y-76028571D02*
X154927618Y-76561905D01*
X154584761Y-76028571D02*
X154584761Y-76447619D01*
X154622856Y-76523810D01*
X154699047Y-76561905D01*
X154813333Y-76561905D01*
X154889523Y-76523810D01*
X154927618Y-76485714D01*
X155270476Y-76523810D02*
X155346666Y-76561905D01*
X155499047Y-76561905D01*
X155575238Y-76523810D01*
X155613333Y-76447619D01*
X155613333Y-76409524D01*
X155575238Y-76333333D01*
X155499047Y-76295238D01*
X155384762Y-76295238D01*
X155308571Y-76257143D01*
X155270476Y-76180952D01*
X155270476Y-76142857D01*
X155308571Y-76066667D01*
X155384762Y-76028571D01*
X155499047Y-76028571D01*
X155575238Y-76066667D01*
X155956190Y-76561905D02*
X155956190Y-75761905D01*
X155956190Y-76066667D02*
X156032381Y-76028571D01*
X156184762Y-76028571D01*
X156260952Y-76066667D01*
X156299047Y-76104762D01*
X156337143Y-76180952D01*
X156337143Y-76409524D01*
X156299047Y-76485714D01*
X156260952Y-76523810D01*
X156184762Y-76561905D01*
X156032381Y-76561905D01*
X155956190Y-76523810D01*
X156489524Y-76638095D02*
X157099048Y-76638095D01*
X157289524Y-76028571D02*
X157289524Y-76828571D01*
X157289524Y-76066667D02*
X157365715Y-76028571D01*
X157518096Y-76028571D01*
X157594286Y-76066667D01*
X157632381Y-76104762D01*
X157670477Y-76180952D01*
X157670477Y-76409524D01*
X157632381Y-76485714D01*
X157594286Y-76523810D01*
X157518096Y-76561905D01*
X157365715Y-76561905D01*
X157289524Y-76523810D01*
X158127620Y-76561905D02*
X158051429Y-76523810D01*
X158013334Y-76485714D01*
X157975239Y-76409524D01*
X157975239Y-76180952D01*
X158013334Y-76104762D01*
X158051429Y-76066667D01*
X158127620Y-76028571D01*
X158241906Y-76028571D01*
X158318096Y-76066667D01*
X158356191Y-76104762D01*
X158394287Y-76180952D01*
X158394287Y-76409524D01*
X158356191Y-76485714D01*
X158318096Y-76523810D01*
X158241906Y-76561905D01*
X158127620Y-76561905D01*
X158660954Y-76028571D02*
X158813335Y-76561905D01*
X158965716Y-76180952D01*
X159118097Y-76561905D01*
X159270478Y-76028571D01*
X159880001Y-76523810D02*
X159803811Y-76561905D01*
X159651430Y-76561905D01*
X159575239Y-76523810D01*
X159537144Y-76447619D01*
X159537144Y-76142857D01*
X159575239Y-76066667D01*
X159651430Y-76028571D01*
X159803811Y-76028571D01*
X159880001Y-76066667D01*
X159918096Y-76142857D01*
X159918096Y-76219048D01*
X159537144Y-76295238D01*
X160260953Y-76561905D02*
X160260953Y-76028571D01*
X160260953Y-76180952D02*
X160299048Y-76104762D01*
X160337144Y-76066667D01*
X160413334Y-76028571D01*
X160489525Y-76028571D01*
X172657143Y-91368571D02*
X172323809Y-91368571D01*
X172323809Y-91892381D02*
X172323809Y-90892381D01*
X172800000Y-90892381D01*
X173657143Y-91892381D02*
X173180952Y-91892381D01*
X173180952Y-90892381D01*
X174180952Y-90892381D02*
X174371429Y-90892381D01*
X174466667Y-90940000D01*
X174561905Y-91035238D01*
X174609524Y-91225714D01*
X174609524Y-91559048D01*
X174561905Y-91749524D01*
X174466667Y-91844762D01*
X174371429Y-91892381D01*
X174180952Y-91892381D01*
X174085714Y-91844762D01*
X173990476Y-91749524D01*
X173942857Y-91559048D01*
X173942857Y-91225714D01*
X173990476Y-91035238D01*
X174085714Y-90940000D01*
X174180952Y-90892381D01*
X175038095Y-91892381D02*
X175038095Y-90892381D01*
X175419048Y-90892381D01*
X175514286Y-90940000D01*
X175561905Y-90987619D01*
X175609524Y-91082857D01*
X175609524Y-91225714D01*
X175561905Y-91320952D01*
X175514286Y-91368571D01*
X175419048Y-91416190D01*
X175038095Y-91416190D01*
X176038095Y-91892381D02*
X176038095Y-90892381D01*
X176419048Y-90892381D01*
X176514286Y-90940000D01*
X176561905Y-90987619D01*
X176609524Y-91082857D01*
X176609524Y-91225714D01*
X176561905Y-91320952D01*
X176514286Y-91368571D01*
X176419048Y-91416190D01*
X176038095Y-91416190D01*
X177228571Y-91416190D02*
X177228571Y-91892381D01*
X176895238Y-90892381D02*
X177228571Y-91416190D01*
X177561905Y-90892381D01*
X178657143Y-91892381D02*
X178657143Y-90892381D01*
X179038096Y-90892381D01*
X179133334Y-90940000D01*
X179180953Y-90987619D01*
X179228572Y-91082857D01*
X179228572Y-91225714D01*
X179180953Y-91320952D01*
X179133334Y-91368571D01*
X179038096Y-91416190D01*
X178657143Y-91416190D01*
X179847619Y-90892381D02*
X180038096Y-90892381D01*
X180133334Y-90940000D01*
X180228572Y-91035238D01*
X180276191Y-91225714D01*
X180276191Y-91559048D01*
X180228572Y-91749524D01*
X180133334Y-91844762D01*
X180038096Y-91892381D01*
X179847619Y-91892381D01*
X179752381Y-91844762D01*
X179657143Y-91749524D01*
X179609524Y-91559048D01*
X179609524Y-91225714D01*
X179657143Y-91035238D01*
X179752381Y-90940000D01*
X179847619Y-90892381D01*
X180609524Y-90892381D02*
X180847619Y-91892381D01*
X181038096Y-91178095D01*
X181228572Y-91892381D01*
X181466667Y-90892381D01*
X181847619Y-91368571D02*
X182180953Y-91368571D01*
X182323810Y-91892381D02*
X181847619Y-91892381D01*
X181847619Y-90892381D01*
X182323810Y-90892381D01*
X183323810Y-91892381D02*
X182990476Y-91416190D01*
X182752381Y-91892381D02*
X182752381Y-90892381D01*
X183133334Y-90892381D01*
X183228572Y-90940000D01*
X183276191Y-90987619D01*
X183323810Y-91082857D01*
X183323810Y-91225714D01*
X183276191Y-91320952D01*
X183228572Y-91368571D01*
X183133334Y-91416190D01*
X182752381Y-91416190D01*
D13*
X188432857Y-76878571D02*
X188432857Y-75378571D01*
X189004285Y-75378571D01*
X189147143Y-75450000D01*
X189218571Y-75521429D01*
X189290000Y-75664286D01*
X189290000Y-75878571D01*
X189218571Y-76021429D01*
X189147143Y-76092857D01*
X189004285Y-76164286D01*
X188432857Y-76164286D01*
X190218571Y-75378571D02*
X190504285Y-75378571D01*
X190647143Y-75450000D01*
X190790000Y-75592857D01*
X190861428Y-75878571D01*
X190861428Y-76378571D01*
X190790000Y-76664286D01*
X190647143Y-76807143D01*
X190504285Y-76878571D01*
X190218571Y-76878571D01*
X190075714Y-76807143D01*
X189932857Y-76664286D01*
X189861428Y-76378571D01*
X189861428Y-75878571D01*
X189932857Y-75592857D01*
X190075714Y-75450000D01*
X190218571Y-75378571D01*
X191361429Y-75378571D02*
X191718572Y-76878571D01*
X192004286Y-75807143D01*
X192290000Y-76878571D01*
X192647143Y-75378571D01*
X193218572Y-76092857D02*
X193718572Y-76092857D01*
X193932858Y-76878571D02*
X193218572Y-76878571D01*
X193218572Y-75378571D01*
X193932858Y-75378571D01*
X195432858Y-76878571D02*
X194932858Y-76164286D01*
X194575715Y-76878571D02*
X194575715Y-75378571D01*
X195147143Y-75378571D01*
X195290001Y-75450000D01*
X195361429Y-75521429D01*
X195432858Y-75664286D01*
X195432858Y-75878571D01*
X195361429Y-76021429D01*
X195290001Y-76092857D01*
X195147143Y-76164286D01*
X194575715Y-76164286D01*
X196075715Y-76878571D02*
X196075715Y-75378571D01*
X196790001Y-76878571D02*
X196790001Y-75378571D01*
X197647144Y-76878571D01*
X197647144Y-75378571D01*
D11*
X112443143Y-62480000D02*
X113157429Y-62480000D01*
X112300286Y-62908571D02*
X112800286Y-61408571D01*
X113300286Y-62908571D01*
X113586000Y-61408571D02*
X114086000Y-62908571D01*
X114586000Y-61408571D01*
X115943143Y-62908571D02*
X115443143Y-62194286D01*
X115086000Y-62908571D02*
X115086000Y-61408571D01*
X115657428Y-61408571D01*
X115800286Y-61480000D01*
X115871714Y-61551429D01*
X115943143Y-61694286D01*
X115943143Y-61908571D01*
X115871714Y-62051429D01*
X115800286Y-62122857D01*
X115657428Y-62194286D01*
X115086000Y-62194286D01*
X116228857Y-63051429D02*
X117371714Y-63051429D01*
X117728857Y-62908571D02*
X117728857Y-61408571D01*
X118371714Y-62837143D02*
X118586000Y-62908571D01*
X118943143Y-62908571D01*
X119086000Y-62837143D01*
X119157429Y-62765714D01*
X119228857Y-62622857D01*
X119228857Y-62480000D01*
X119157429Y-62337143D01*
X119086000Y-62265714D01*
X118943143Y-62194286D01*
X118657429Y-62122857D01*
X118514571Y-62051429D01*
X118443143Y-61980000D01*
X118371714Y-61837143D01*
X118371714Y-61694286D01*
X118443143Y-61551429D01*
X118514571Y-61480000D01*
X118657429Y-61408571D01*
X119014571Y-61408571D01*
X119228857Y-61480000D01*
X119871714Y-62908571D02*
X119871714Y-61408571D01*
X120443142Y-61408571D01*
X120586000Y-61480000D01*
X120657428Y-61551429D01*
X120728857Y-61694286D01*
X120728857Y-61908571D01*
X120657428Y-62051429D01*
X120586000Y-62122857D01*
X120443142Y-62194286D01*
X119871714Y-62194286D01*
D14*
X171990900Y-57142540D02*
X163290900Y-57142540D01*
X171990900Y-63547540D02*
X163290900Y-63547540D01*
X163290900Y-63547540D02*
X163290900Y-57142540D01*
X163290900Y-58372540D02*
X171990900Y-58372540D01*
X171990900Y-57142540D02*
X171990900Y-63547540D01*
X158790640Y-58630820D02*
X151089360Y-58630820D01*
X158790640Y-57630060D02*
X151089360Y-57630060D01*
X151089360Y-57630060D02*
X151089360Y-66829940D01*
X151089360Y-66829940D02*
X158790640Y-66829940D01*
X158790640Y-66829940D02*
X158790640Y-57630060D01*
X110236000Y-61722000D02*
G75*
G03X110236000Y-61722000I-2286000J0D01*
G01*
X183896000Y-62230000D02*
G75*
G03X183896000Y-62230000I-2286000J0D01*
G01*
X183896000Y-113030000D02*
G75*
G03X183896000Y-113030000I-2286000J0D01*
G01*
X126746000Y-113030000D02*
G75*
G03X126746000Y-113030000I-2286000J0D01*
G01*
X108190000Y-75219000D02*
X108190000Y-76419000D01*
X106440000Y-76419000D02*
X106440000Y-75219000D01*
X127854000Y-72503000D02*
X126654000Y-72503000D01*
X126654000Y-70753000D02*
X127854000Y-70753000D01*
X146036000Y-68615000D02*
X146036000Y-69815000D01*
X144286000Y-69815000D02*
X144286000Y-68615000D01*
X127219000Y-69963000D02*
X126019000Y-69963000D01*
X126019000Y-68213000D02*
X127219000Y-68213000D01*
X151984000Y-75043000D02*
X150784000Y-75043000D01*
X150784000Y-73293000D02*
X151984000Y-73293000D01*
X165749000Y-75276000D02*
X165749000Y-74076000D01*
X167499000Y-74076000D02*
X167499000Y-75276000D01*
X160604000Y-72910000D02*
X157904000Y-72910000D01*
X160604000Y-74410000D02*
X157904000Y-74410000D01*
X159104000Y-73510000D02*
X159104000Y-73760000D01*
X159104000Y-73760000D02*
X159254000Y-73610000D01*
X159354000Y-74010000D02*
X159354000Y-73310000D01*
X159004000Y-73660000D02*
X158654000Y-73660000D01*
X159354000Y-73660000D02*
X159004000Y-74010000D01*
X159004000Y-74010000D02*
X159004000Y-73310000D01*
X159004000Y-73310000D02*
X159354000Y-73660000D01*
X167374000Y-81356000D02*
X167374000Y-78656000D01*
X165874000Y-81356000D02*
X165874000Y-78656000D01*
X166774000Y-79856000D02*
X166524000Y-79856000D01*
X166524000Y-79856000D02*
X166674000Y-80006000D01*
X166274000Y-80106000D02*
X166974000Y-80106000D01*
X166624000Y-79756000D02*
X166624000Y-79406000D01*
X166624000Y-80106000D02*
X166274000Y-79756000D01*
X166274000Y-79756000D02*
X166974000Y-79756000D01*
X166974000Y-79756000D02*
X166624000Y-80106000D01*
X140785000Y-86175000D02*
X140785000Y-85850000D01*
X133535000Y-86175000D02*
X133535000Y-85850000D01*
X133535000Y-78925000D02*
X133535000Y-79250000D01*
X140785000Y-78925000D02*
X140785000Y-79250000D01*
X140785000Y-86175000D02*
X140460000Y-86175000D01*
X140785000Y-78925000D02*
X140460000Y-78925000D01*
X133535000Y-78925000D02*
X133860000Y-78925000D01*
X133535000Y-86175000D02*
X133860000Y-86175000D01*
X140785000Y-85850000D02*
X142210000Y-85850000D01*
X142740000Y-89320000D02*
X141740000Y-89320000D01*
X141740000Y-91020000D02*
X142740000Y-91020000D01*
X142740000Y-74080000D02*
X141740000Y-74080000D01*
X141740000Y-75780000D02*
X142740000Y-75780000D01*
X122770000Y-83050000D02*
X122770000Y-82050000D01*
X121070000Y-82050000D02*
X121070000Y-83050000D01*
X123690000Y-88050000D02*
X122690000Y-88050000D01*
X122690000Y-89750000D02*
X123690000Y-89750000D01*
X126365000Y-84836000D02*
X127762000Y-84836000D01*
X126111000Y-84709000D02*
X127889000Y-84709000D01*
X125730000Y-84582000D02*
X128270000Y-84582000D01*
X128397000Y-84455000D02*
X125603000Y-84455000D01*
X125476000Y-84328000D02*
X128524000Y-84328000D01*
X128651000Y-84201000D02*
X125349000Y-84201000D01*
X125222000Y-84074000D02*
X128778000Y-84074000D01*
X124333000Y-85217000D02*
X124333000Y-80645000D01*
X124333000Y-80645000D02*
X125095000Y-79883000D01*
X125095000Y-79883000D02*
X128905000Y-79883000D01*
X128905000Y-79883000D02*
X129667000Y-80645000D01*
X129667000Y-80645000D02*
X129667000Y-85217000D01*
X129667000Y-85217000D02*
X124333000Y-85217000D01*
X127000000Y-80391000D02*
X127000000Y-81153000D01*
X126619000Y-80772000D02*
X127381000Y-80772000D01*
X129413000Y-82550000D02*
G75*
G03X129413000Y-82550000I-2413000J0D01*
G01*
X123960000Y-77050000D02*
X124960000Y-77050000D01*
X124960000Y-75350000D02*
X123960000Y-75350000D01*
X117856000Y-65786000D02*
X118364000Y-65786000D01*
X117856000Y-66294000D02*
X118364000Y-66294000D01*
X117856000Y-68326000D02*
X118364000Y-68326000D01*
X117856000Y-68834000D02*
X118364000Y-68834000D01*
X117856000Y-70866000D02*
X118364000Y-70866000D01*
X117856000Y-71374000D02*
X118364000Y-71374000D01*
X115316000Y-68834000D02*
X115824000Y-68834000D01*
X115316000Y-68326000D02*
X115824000Y-68326000D01*
X115316000Y-66294000D02*
X115824000Y-66294000D01*
X115316000Y-65786000D02*
X115824000Y-65786000D01*
X115316000Y-71374000D02*
X115824000Y-71374000D01*
X115316000Y-70866000D02*
X115824000Y-70866000D01*
X119380000Y-72670000D02*
X120530000Y-72670000D01*
X120530000Y-72670000D02*
X120530000Y-71120000D01*
X112776000Y-71247000D02*
X106807000Y-71247000D01*
X106807000Y-71247000D02*
X106807000Y-70993000D01*
X106807000Y-70993000D02*
X112649000Y-70993000D01*
X112649000Y-70993000D02*
X112649000Y-71120000D01*
X112649000Y-71120000D02*
X106807000Y-71120000D01*
X115316000Y-69850000D02*
X115316000Y-67310000D01*
X115316000Y-67310000D02*
X112776000Y-67310000D01*
X112776000Y-68834000D02*
X106680000Y-68834000D01*
X106680000Y-68834000D02*
X106680000Y-68326000D01*
X106680000Y-68326000D02*
X112776000Y-68326000D01*
X112776000Y-67310000D02*
X112776000Y-69850000D01*
X115316000Y-64770000D02*
X112776000Y-64770000D01*
X112776000Y-64770000D02*
X112776000Y-67310000D01*
X106680000Y-65786000D02*
X112776000Y-65786000D01*
X106680000Y-66294000D02*
X106680000Y-65786000D01*
X112776000Y-66294000D02*
X106680000Y-66294000D01*
X115316000Y-64770000D02*
X112776000Y-64770000D01*
X115316000Y-67310000D02*
X115316000Y-64770000D01*
X115316000Y-67310000D02*
X112776000Y-67310000D01*
X115316000Y-69850000D02*
X112776000Y-69850000D01*
X112776000Y-69850000D02*
X112776000Y-72390000D01*
X106680000Y-70866000D02*
X112776000Y-70866000D01*
X106680000Y-71374000D02*
X106680000Y-70866000D01*
X112776000Y-71374000D02*
X106680000Y-71374000D01*
X115316000Y-69850000D02*
X112776000Y-69850000D01*
X115316000Y-72390000D02*
X115316000Y-69850000D01*
X115316000Y-72390000D02*
X112776000Y-72390000D01*
X126060000Y-65290000D02*
X123360000Y-65290000D01*
X126060000Y-66790000D02*
X123360000Y-66790000D01*
X124560000Y-65890000D02*
X124560000Y-66140000D01*
X124560000Y-66140000D02*
X124710000Y-65990000D01*
X124810000Y-66390000D02*
X124810000Y-65690000D01*
X124460000Y-66040000D02*
X124110000Y-66040000D01*
X124810000Y-66040000D02*
X124460000Y-66390000D01*
X124460000Y-66390000D02*
X124460000Y-65690000D01*
X124460000Y-65690000D02*
X124810000Y-66040000D01*
X125730000Y-119380000D02*
X125730000Y-121920000D01*
X126010000Y-116560000D02*
X126010000Y-118110000D01*
X125730000Y-119380000D02*
X123190000Y-119380000D01*
X122910000Y-118110000D02*
X122910000Y-116560000D01*
X122910000Y-116560000D02*
X126010000Y-116560000D01*
X123190000Y-119380000D02*
X123190000Y-121920000D01*
X123190000Y-121920000D02*
X125730000Y-121920000D01*
X175260000Y-90170000D02*
X182880000Y-90170000D01*
X175260000Y-87630000D02*
X182880000Y-87630000D01*
X172440000Y-87350000D02*
X173990000Y-87350000D01*
X182880000Y-90170000D02*
X182880000Y-87630000D01*
X175260000Y-87630000D02*
X175260000Y-90170000D01*
X173990000Y-90450000D02*
X172440000Y-90450000D01*
X172440000Y-90450000D02*
X172440000Y-87350000D01*
X187680000Y-72420000D02*
X189230000Y-72420000D01*
X187680000Y-71120000D02*
X187680000Y-72420000D01*
X189103000Y-66929000D02*
X189103000Y-61087000D01*
X189103000Y-61087000D02*
X189357000Y-61087000D01*
X189357000Y-61087000D02*
X189357000Y-66929000D01*
X189357000Y-66929000D02*
X189230000Y-66929000D01*
X189230000Y-66929000D02*
X189230000Y-61087000D01*
X188976000Y-69596000D02*
X188976000Y-69977000D01*
X189484000Y-69596000D02*
X189484000Y-69977000D01*
X191516000Y-69596000D02*
X191516000Y-69977000D01*
X192024000Y-69596000D02*
X192024000Y-69977000D01*
X194056000Y-69596000D02*
X194056000Y-69977000D01*
X194564000Y-69596000D02*
X194564000Y-69977000D01*
X197104000Y-69596000D02*
X197104000Y-69977000D01*
X196596000Y-69596000D02*
X196596000Y-69977000D01*
X187960000Y-69596000D02*
X187960000Y-67056000D01*
X190500000Y-69596000D02*
X190500000Y-67056000D01*
X190500000Y-69596000D02*
X193040000Y-69596000D01*
X193040000Y-69596000D02*
X193040000Y-67056000D01*
X191516000Y-67056000D02*
X191516000Y-60960000D01*
X191516000Y-60960000D02*
X192024000Y-60960000D01*
X192024000Y-60960000D02*
X192024000Y-67056000D01*
X193040000Y-67056000D02*
X190500000Y-67056000D01*
X190500000Y-67056000D02*
X187960000Y-67056000D01*
X189484000Y-60960000D02*
X189484000Y-67056000D01*
X188976000Y-60960000D02*
X189484000Y-60960000D01*
X188976000Y-67056000D02*
X188976000Y-60960000D01*
X190500000Y-69596000D02*
X190500000Y-67056000D01*
X187960000Y-69596000D02*
X190500000Y-69596000D01*
X195580000Y-69596000D02*
X195580000Y-67056000D01*
X195580000Y-69596000D02*
X198120000Y-69596000D01*
X198120000Y-69596000D02*
X198120000Y-67056000D01*
X196596000Y-67056000D02*
X196596000Y-60960000D01*
X196596000Y-60960000D02*
X197104000Y-60960000D01*
X197104000Y-60960000D02*
X197104000Y-67056000D01*
X198120000Y-67056000D02*
X195580000Y-67056000D01*
X195580000Y-67056000D02*
X193040000Y-67056000D01*
X194564000Y-60960000D02*
X194564000Y-67056000D01*
X194056000Y-60960000D02*
X194564000Y-60960000D01*
X194056000Y-67056000D02*
X194056000Y-60960000D01*
X195580000Y-69596000D02*
X195580000Y-67056000D01*
X193040000Y-69596000D02*
X195580000Y-69596000D01*
X193040000Y-69596000D02*
X193040000Y-67056000D01*
X158750000Y-77470000D02*
X153670000Y-77470000D01*
X153670000Y-77470000D02*
X153670000Y-80010000D01*
X153670000Y-80010000D02*
X158750000Y-80010000D01*
X161570000Y-80290000D02*
X160020000Y-80290000D01*
X158750000Y-80010000D02*
X158750000Y-77470000D01*
X160020000Y-77190000D02*
X161570000Y-77190000D01*
X161570000Y-77190000D02*
X161570000Y-80290000D01*
X125110240Y-97819160D02*
X125110240Y-97770900D01*
X124409200Y-95020180D02*
X125110240Y-95020180D01*
X125110240Y-95020180D02*
X125110240Y-95269100D01*
X125110240Y-97819160D02*
X125110240Y-98019820D01*
X125110240Y-98019820D02*
X124409200Y-98019820D01*
X134000240Y-97819160D02*
X134000240Y-97770900D01*
X133299200Y-95020180D02*
X134000240Y-95020180D01*
X134000240Y-95020180D02*
X134000240Y-95269100D01*
X134000240Y-97819160D02*
X134000240Y-98019820D01*
X134000240Y-98019820D02*
X133299200Y-98019820D01*
X142890240Y-97819160D02*
X142890240Y-97770900D01*
X142189200Y-95020180D02*
X142890240Y-95020180D01*
X142890240Y-95020180D02*
X142890240Y-95269100D01*
X142890240Y-97819160D02*
X142890240Y-98019820D01*
X142890240Y-98019820D02*
X142189200Y-98019820D01*
X151780240Y-97819160D02*
X151780240Y-97770900D01*
X151079200Y-95020180D02*
X151780240Y-95020180D01*
X151780240Y-95020180D02*
X151780240Y-95269100D01*
X151780240Y-97819160D02*
X151780240Y-98019820D01*
X151780240Y-98019820D02*
X151079200Y-98019820D01*
X160670240Y-97819160D02*
X160670240Y-97770900D01*
X159969200Y-95020180D02*
X160670240Y-95020180D01*
X160670240Y-95020180D02*
X160670240Y-95269100D01*
X160670240Y-97819160D02*
X160670240Y-98019820D01*
X160670240Y-98019820D02*
X159969200Y-98019820D01*
X169560240Y-97819160D02*
X169560240Y-97770900D01*
X168859200Y-95020180D02*
X169560240Y-95020180D01*
X169560240Y-95020180D02*
X169560240Y-95269100D01*
X169560240Y-97819160D02*
X169560240Y-98019820D01*
X169560240Y-98019820D02*
X168859200Y-98019820D01*
X178450240Y-97819160D02*
X178450240Y-97770900D01*
X177749200Y-95020180D02*
X178450240Y-95020180D01*
X178450240Y-95020180D02*
X178450240Y-95269100D01*
X178450240Y-97819160D02*
X178450240Y-98019820D01*
X178450240Y-98019820D02*
X177749200Y-98019820D01*
X125079760Y-105380840D02*
X125079760Y-105429100D01*
X125780800Y-108179820D02*
X125079760Y-108179820D01*
X125079760Y-108179820D02*
X125079760Y-107930900D01*
X125079760Y-105380840D02*
X125079760Y-105180180D01*
X125079760Y-105180180D02*
X125780800Y-105180180D01*
X135239760Y-105380840D02*
X135239760Y-105429100D01*
X135940800Y-108179820D02*
X135239760Y-108179820D01*
X135239760Y-108179820D02*
X135239760Y-107930900D01*
X135239760Y-105380840D02*
X135239760Y-105180180D01*
X135239760Y-105180180D02*
X135940800Y-105180180D01*
X146669760Y-105380840D02*
X146669760Y-105429100D01*
X147370800Y-108179820D02*
X146669760Y-108179820D01*
X146669760Y-108179820D02*
X146669760Y-107930900D01*
X146669760Y-105380840D02*
X146669760Y-105180180D01*
X146669760Y-105180180D02*
X147370800Y-105180180D01*
X130415000Y-64170000D02*
X130415000Y-65370000D01*
X128665000Y-65370000D02*
X128665000Y-64170000D01*
X125130000Y-99455000D02*
X126330000Y-99455000D01*
X126330000Y-101205000D02*
X125130000Y-101205000D01*
X127395000Y-97120000D02*
X127395000Y-95920000D01*
X129145000Y-95920000D02*
X129145000Y-97120000D01*
X132750000Y-99455000D02*
X133950000Y-99455000D01*
X133950000Y-101205000D02*
X132750000Y-101205000D01*
X141640000Y-99455000D02*
X142840000Y-99455000D01*
X142840000Y-101205000D02*
X141640000Y-101205000D01*
X150530000Y-99455000D02*
X151730000Y-99455000D01*
X151730000Y-101205000D02*
X150530000Y-101205000D01*
X159420000Y-99455000D02*
X160620000Y-99455000D01*
X160620000Y-101205000D02*
X159420000Y-101205000D01*
X168310000Y-99455000D02*
X169510000Y-99455000D01*
X169510000Y-101205000D02*
X168310000Y-101205000D01*
X136285000Y-97120000D02*
X136285000Y-95920000D01*
X138035000Y-95920000D02*
X138035000Y-97120000D01*
X145175000Y-97120000D02*
X145175000Y-95920000D01*
X146925000Y-95920000D02*
X146925000Y-97120000D01*
X154065000Y-97120000D02*
X154065000Y-95920000D01*
X155815000Y-95920000D02*
X155815000Y-97120000D01*
X162955000Y-97120000D02*
X162955000Y-95920000D01*
X164705000Y-95920000D02*
X164705000Y-97120000D01*
X171845000Y-97120000D02*
X171845000Y-95920000D01*
X173595000Y-95920000D02*
X173595000Y-97120000D01*
X177200000Y-99455000D02*
X178400000Y-99455000D01*
X178400000Y-101205000D02*
X177200000Y-101205000D01*
X126330000Y-103745000D02*
X125130000Y-103745000D01*
X125130000Y-101995000D02*
X126330000Y-101995000D01*
X134020000Y-101995000D02*
X135220000Y-101995000D01*
X135220000Y-103745000D02*
X134020000Y-103745000D01*
X144180000Y-101995000D02*
X145380000Y-101995000D01*
X145380000Y-103745000D02*
X144180000Y-103745000D01*
X180735000Y-97120000D02*
X180735000Y-95920000D01*
X182485000Y-95920000D02*
X182485000Y-97120000D01*
X128665000Y-107280000D02*
X128665000Y-106080000D01*
X130415000Y-106080000D02*
X130415000Y-107280000D01*
X140095000Y-107280000D02*
X140095000Y-106080000D01*
X141845000Y-106080000D02*
X141845000Y-107280000D01*
X151525000Y-107280000D02*
X151525000Y-106080000D01*
X153275000Y-106080000D02*
X153275000Y-107280000D01*
X131835000Y-71455000D02*
X132485000Y-71455000D01*
X131835000Y-65705000D02*
X132485000Y-65705000D01*
X142485000Y-65705000D02*
X141835000Y-65705000D01*
X142485000Y-71455000D02*
X141835000Y-71455000D01*
X131835000Y-71455000D02*
X131835000Y-65705000D01*
X142485000Y-71455000D02*
X142485000Y-65705000D01*
X132485000Y-71455000D02*
X132485000Y-73055000D01*
X144820640Y-76700380D02*
X144820640Y-88399620D01*
X149819360Y-88399620D02*
X149819360Y-76700380D01*
X144820640Y-88399620D02*
X145669000Y-88399620D01*
X149819360Y-88399620D02*
X148971000Y-88399620D01*
X144820640Y-76700380D02*
X145669000Y-76700380D01*
X149819360Y-76700380D02*
X148971000Y-76700380D01*
D12*
X111494000Y-74644000D02*
X117614000Y-74644000D01*
X117614000Y-74644000D02*
X117614000Y-78264000D01*
X117614000Y-78264000D02*
X111494000Y-78264000D01*
X111494000Y-78264000D02*
X111494000Y-74644000D01*
D14*
X128270000Y-123190000D02*
X128270000Y-115570000D01*
X128270000Y-115570000D02*
X179070000Y-115570000D01*
X179070000Y-115570000D02*
X179070000Y-123190000D01*
X179070000Y-123190000D02*
X128270000Y-123190000D01*
D12*
X133604000Y-124968000D02*
X133350000Y-124460000D01*
X133096000Y-124968000D02*
X133604000Y-124968000D01*
X133350000Y-124460000D02*
X133096000Y-124968000D01*
D14*
X172426381Y-62055333D02*
X173140667Y-62055333D01*
X173283524Y-62102953D01*
X173378762Y-62198191D01*
X173426381Y-62341048D01*
X173426381Y-62436286D01*
X172426381Y-61674381D02*
X172426381Y-61007714D01*
X173426381Y-61436286D01*
X147491201Y-62563333D02*
X148205487Y-62563333D01*
X148348344Y-62610953D01*
X148443582Y-62706191D01*
X148491201Y-62849048D01*
X148491201Y-62944286D01*
X147491201Y-61610952D02*
X147491201Y-62087143D01*
X147967391Y-62134762D01*
X147919772Y-62087143D01*
X147872153Y-61991905D01*
X147872153Y-61753809D01*
X147919772Y-61658571D01*
X147967391Y-61610952D01*
X148062630Y-61563333D01*
X148300725Y-61563333D01*
X148395963Y-61610952D01*
X148443582Y-61658571D01*
X148491201Y-61753809D01*
X148491201Y-61991905D01*
X148443582Y-62087143D01*
X148395963Y-62134762D01*
X106672143Y-79827381D02*
X106338809Y-79351190D01*
X106100714Y-79827381D02*
X106100714Y-78827381D01*
X106481667Y-78827381D01*
X106576905Y-78875000D01*
X106624524Y-78922619D01*
X106672143Y-79017857D01*
X106672143Y-79160714D01*
X106624524Y-79255952D01*
X106576905Y-79303571D01*
X106481667Y-79351190D01*
X106100714Y-79351190D01*
X107053095Y-78922619D02*
X107100714Y-78875000D01*
X107195952Y-78827381D01*
X107434048Y-78827381D01*
X107529286Y-78875000D01*
X107576905Y-78922619D01*
X107624524Y-79017857D01*
X107624524Y-79113095D01*
X107576905Y-79255952D01*
X107005476Y-79827381D01*
X107624524Y-79827381D01*
X107957857Y-78827381D02*
X108624524Y-78827381D01*
X108195952Y-79827381D01*
X123817143Y-74112381D02*
X123483809Y-73636190D01*
X123245714Y-74112381D02*
X123245714Y-73112381D01*
X123626667Y-73112381D01*
X123721905Y-73160000D01*
X123769524Y-73207619D01*
X123817143Y-73302857D01*
X123817143Y-73445714D01*
X123769524Y-73540952D01*
X123721905Y-73588571D01*
X123626667Y-73636190D01*
X123245714Y-73636190D01*
X124198095Y-73207619D02*
X124245714Y-73160000D01*
X124340952Y-73112381D01*
X124579048Y-73112381D01*
X124674286Y-73160000D01*
X124721905Y-73207619D01*
X124769524Y-73302857D01*
X124769524Y-73398095D01*
X124721905Y-73540952D01*
X124150476Y-74112381D01*
X124769524Y-74112381D01*
X125626667Y-73112381D02*
X125436190Y-73112381D01*
X125340952Y-73160000D01*
X125293333Y-73207619D01*
X125198095Y-73350476D01*
X125150476Y-73540952D01*
X125150476Y-73921905D01*
X125198095Y-74017143D01*
X125245714Y-74064762D01*
X125340952Y-74112381D01*
X125531429Y-74112381D01*
X125626667Y-74064762D01*
X125674286Y-74017143D01*
X125721905Y-73921905D01*
X125721905Y-73683810D01*
X125674286Y-73588571D01*
X125626667Y-73540952D01*
X125531429Y-73493333D01*
X125340952Y-73493333D01*
X125245714Y-73540952D01*
X125198095Y-73588571D01*
X125150476Y-73683810D01*
X147518381Y-69857857D02*
X147042190Y-70191191D01*
X147518381Y-70429286D02*
X146518381Y-70429286D01*
X146518381Y-70048333D01*
X146566000Y-69953095D01*
X146613619Y-69905476D01*
X146708857Y-69857857D01*
X146851714Y-69857857D01*
X146946952Y-69905476D01*
X146994571Y-69953095D01*
X147042190Y-70048333D01*
X147042190Y-70429286D01*
X146613619Y-69476905D02*
X146566000Y-69429286D01*
X146518381Y-69334048D01*
X146518381Y-69095952D01*
X146566000Y-69000714D01*
X146613619Y-68953095D01*
X146708857Y-68905476D01*
X146804095Y-68905476D01*
X146946952Y-68953095D01*
X147518381Y-69524524D01*
X147518381Y-68905476D01*
X146518381Y-68000714D02*
X146518381Y-68476905D01*
X146994571Y-68524524D01*
X146946952Y-68476905D01*
X146899333Y-68381667D01*
X146899333Y-68143571D01*
X146946952Y-68048333D01*
X146994571Y-68000714D01*
X147089810Y-67953095D01*
X147327905Y-67953095D01*
X147423143Y-68000714D01*
X147470762Y-68048333D01*
X147518381Y-68143571D01*
X147518381Y-68381667D01*
X147470762Y-68476905D01*
X147423143Y-68524524D01*
X121912143Y-69413381D02*
X121578809Y-68937190D01*
X121340714Y-69413381D02*
X121340714Y-68413381D01*
X121721667Y-68413381D01*
X121816905Y-68461000D01*
X121864524Y-68508619D01*
X121912143Y-68603857D01*
X121912143Y-68746714D01*
X121864524Y-68841952D01*
X121816905Y-68889571D01*
X121721667Y-68937190D01*
X121340714Y-68937190D01*
X122293095Y-68508619D02*
X122340714Y-68461000D01*
X122435952Y-68413381D01*
X122674048Y-68413381D01*
X122769286Y-68461000D01*
X122816905Y-68508619D01*
X122864524Y-68603857D01*
X122864524Y-68699095D01*
X122816905Y-68841952D01*
X122245476Y-69413381D01*
X122864524Y-69413381D01*
X123721667Y-68746714D02*
X123721667Y-69413381D01*
X123483571Y-68365762D02*
X123245476Y-69080048D01*
X123864524Y-69080048D01*
X150741143Y-77160381D02*
X150407809Y-76684190D01*
X150169714Y-77160381D02*
X150169714Y-76160381D01*
X150550667Y-76160381D01*
X150645905Y-76208000D01*
X150693524Y-76255619D01*
X150741143Y-76350857D01*
X150741143Y-76493714D01*
X150693524Y-76588952D01*
X150645905Y-76636571D01*
X150550667Y-76684190D01*
X150169714Y-76684190D01*
X151122095Y-76255619D02*
X151169714Y-76208000D01*
X151264952Y-76160381D01*
X151503048Y-76160381D01*
X151598286Y-76208000D01*
X151645905Y-76255619D01*
X151693524Y-76350857D01*
X151693524Y-76446095D01*
X151645905Y-76588952D01*
X151074476Y-77160381D01*
X151693524Y-77160381D01*
X152026857Y-76160381D02*
X152645905Y-76160381D01*
X152312571Y-76541333D01*
X152455429Y-76541333D01*
X152550667Y-76588952D01*
X152598286Y-76636571D01*
X152645905Y-76731810D01*
X152645905Y-76969905D01*
X152598286Y-77065143D01*
X152550667Y-77112762D01*
X152455429Y-77160381D01*
X152169714Y-77160381D01*
X152074476Y-77112762D01*
X152026857Y-77065143D01*
X169176381Y-75318857D02*
X168700190Y-75652191D01*
X169176381Y-75890286D02*
X168176381Y-75890286D01*
X168176381Y-75509333D01*
X168224000Y-75414095D01*
X168271619Y-75366476D01*
X168366857Y-75318857D01*
X168509714Y-75318857D01*
X168604952Y-75366476D01*
X168652571Y-75414095D01*
X168700190Y-75509333D01*
X168700190Y-75890286D01*
X168271619Y-74937905D02*
X168224000Y-74890286D01*
X168176381Y-74795048D01*
X168176381Y-74556952D01*
X168224000Y-74461714D01*
X168271619Y-74414095D01*
X168366857Y-74366476D01*
X168462095Y-74366476D01*
X168604952Y-74414095D01*
X169176381Y-74985524D01*
X169176381Y-74366476D01*
X168271619Y-73985524D02*
X168224000Y-73937905D01*
X168176381Y-73842667D01*
X168176381Y-73604571D01*
X168224000Y-73509333D01*
X168271619Y-73461714D01*
X168366857Y-73414095D01*
X168462095Y-73414095D01*
X168604952Y-73461714D01*
X169176381Y-74033143D01*
X169176381Y-73414095D01*
X159789905Y-72080381D02*
X159789905Y-71080381D01*
X160028000Y-71080381D01*
X160170858Y-71128000D01*
X160266096Y-71223238D01*
X160313715Y-71318476D01*
X160361334Y-71508952D01*
X160361334Y-71651810D01*
X160313715Y-71842286D01*
X160266096Y-71937524D01*
X160170858Y-72032762D01*
X160028000Y-72080381D01*
X159789905Y-72080381D01*
X160694667Y-71080381D02*
X161313715Y-71080381D01*
X160980381Y-71461333D01*
X161123239Y-71461333D01*
X161218477Y-71508952D01*
X161266096Y-71556571D01*
X161313715Y-71651810D01*
X161313715Y-71889905D01*
X161266096Y-71985143D01*
X161218477Y-72032762D01*
X161123239Y-72080381D01*
X160837524Y-72080381D01*
X160742286Y-72032762D01*
X160694667Y-71985143D01*
X165326381Y-80494095D02*
X164326381Y-80494095D01*
X164326381Y-80256000D01*
X164374000Y-80113142D01*
X164469238Y-80017904D01*
X164564476Y-79970285D01*
X164754952Y-79922666D01*
X164897810Y-79922666D01*
X165088286Y-79970285D01*
X165183524Y-80017904D01*
X165278762Y-80113142D01*
X165326381Y-80256000D01*
X165326381Y-80494095D01*
X164421619Y-79541714D02*
X164374000Y-79494095D01*
X164326381Y-79398857D01*
X164326381Y-79160761D01*
X164374000Y-79065523D01*
X164421619Y-79017904D01*
X164516857Y-78970285D01*
X164612095Y-78970285D01*
X164754952Y-79017904D01*
X165326381Y-79589333D01*
X165326381Y-78970285D01*
X131699095Y-88606381D02*
X131699095Y-89415905D01*
X131746714Y-89511143D01*
X131794333Y-89558762D01*
X131889571Y-89606381D01*
X132080048Y-89606381D01*
X132175286Y-89558762D01*
X132222905Y-89511143D01*
X132270524Y-89415905D01*
X132270524Y-88606381D01*
X133270524Y-89606381D02*
X132699095Y-89606381D01*
X132984809Y-89606381D02*
X132984809Y-88606381D01*
X132889571Y-88749238D01*
X132794333Y-88844476D01*
X132699095Y-88892095D01*
X138263334Y-90527143D02*
X138215715Y-90574762D01*
X138072858Y-90622381D01*
X137977620Y-90622381D01*
X137834762Y-90574762D01*
X137739524Y-90479524D01*
X137691905Y-90384286D01*
X137644286Y-90193810D01*
X137644286Y-90050952D01*
X137691905Y-89860476D01*
X137739524Y-89765238D01*
X137834762Y-89670000D01*
X137977620Y-89622381D01*
X138072858Y-89622381D01*
X138215715Y-89670000D01*
X138263334Y-89717619D01*
X139215715Y-90622381D02*
X138644286Y-90622381D01*
X138930000Y-90622381D02*
X138930000Y-89622381D01*
X138834762Y-89765238D01*
X138739524Y-89860476D01*
X138644286Y-89908095D01*
X143851334Y-73509143D02*
X143803715Y-73556762D01*
X143660858Y-73604381D01*
X143565620Y-73604381D01*
X143422762Y-73556762D01*
X143327524Y-73461524D01*
X143279905Y-73366286D01*
X143232286Y-73175810D01*
X143232286Y-73032952D01*
X143279905Y-72842476D01*
X143327524Y-72747238D01*
X143422762Y-72652000D01*
X143565620Y-72604381D01*
X143660858Y-72604381D01*
X143803715Y-72652000D01*
X143851334Y-72699619D01*
X144232286Y-72699619D02*
X144279905Y-72652000D01*
X144375143Y-72604381D01*
X144613239Y-72604381D01*
X144708477Y-72652000D01*
X144756096Y-72699619D01*
X144803715Y-72794857D01*
X144803715Y-72890095D01*
X144756096Y-73032952D01*
X144184667Y-73604381D01*
X144803715Y-73604381D01*
X120372143Y-82716666D02*
X120419762Y-82764285D01*
X120467381Y-82907142D01*
X120467381Y-83002380D01*
X120419762Y-83145238D01*
X120324524Y-83240476D01*
X120229286Y-83288095D01*
X120038810Y-83335714D01*
X119895952Y-83335714D01*
X119705476Y-83288095D01*
X119610238Y-83240476D01*
X119515000Y-83145238D01*
X119467381Y-83002380D01*
X119467381Y-82907142D01*
X119515000Y-82764285D01*
X119562619Y-82716666D01*
X119467381Y-82383333D02*
X119467381Y-81764285D01*
X119848333Y-82097619D01*
X119848333Y-81954761D01*
X119895952Y-81859523D01*
X119943571Y-81811904D01*
X120038810Y-81764285D01*
X120276905Y-81764285D01*
X120372143Y-81811904D01*
X120419762Y-81859523D01*
X120467381Y-81954761D01*
X120467381Y-82240476D01*
X120419762Y-82335714D01*
X120372143Y-82383333D01*
X123023334Y-87157143D02*
X122975715Y-87204762D01*
X122832858Y-87252381D01*
X122737620Y-87252381D01*
X122594762Y-87204762D01*
X122499524Y-87109524D01*
X122451905Y-87014286D01*
X122404286Y-86823810D01*
X122404286Y-86680952D01*
X122451905Y-86490476D01*
X122499524Y-86395238D01*
X122594762Y-86300000D01*
X122737620Y-86252381D01*
X122832858Y-86252381D01*
X122975715Y-86300000D01*
X123023334Y-86347619D01*
X123880477Y-86585714D02*
X123880477Y-87252381D01*
X123642381Y-86204762D02*
X123404286Y-86919048D01*
X124023334Y-86919048D01*
X126833334Y-87987143D02*
X126785715Y-88034762D01*
X126642858Y-88082381D01*
X126547620Y-88082381D01*
X126404762Y-88034762D01*
X126309524Y-87939524D01*
X126261905Y-87844286D01*
X126214286Y-87653810D01*
X126214286Y-87510952D01*
X126261905Y-87320476D01*
X126309524Y-87225238D01*
X126404762Y-87130000D01*
X126547620Y-87082381D01*
X126642858Y-87082381D01*
X126785715Y-87130000D01*
X126833334Y-87177619D01*
X127738096Y-87082381D02*
X127261905Y-87082381D01*
X127214286Y-87558571D01*
X127261905Y-87510952D01*
X127357143Y-87463333D01*
X127595239Y-87463333D01*
X127690477Y-87510952D01*
X127738096Y-87558571D01*
X127785715Y-87653810D01*
X127785715Y-87891905D01*
X127738096Y-87987143D01*
X127690477Y-88034762D01*
X127595239Y-88082381D01*
X127357143Y-88082381D01*
X127261905Y-88034762D01*
X127214286Y-87987143D01*
X127976334Y-76811143D02*
X127928715Y-76858762D01*
X127785858Y-76906381D01*
X127690620Y-76906381D01*
X127547762Y-76858762D01*
X127452524Y-76763524D01*
X127404905Y-76668286D01*
X127357286Y-76477810D01*
X127357286Y-76334952D01*
X127404905Y-76144476D01*
X127452524Y-76049238D01*
X127547762Y-75954000D01*
X127690620Y-75906381D01*
X127785858Y-75906381D01*
X127928715Y-75954000D01*
X127976334Y-76001619D01*
X128833477Y-75906381D02*
X128643000Y-75906381D01*
X128547762Y-75954000D01*
X128500143Y-76001619D01*
X128404905Y-76144476D01*
X128357286Y-76334952D01*
X128357286Y-76715905D01*
X128404905Y-76811143D01*
X128452524Y-76858762D01*
X128547762Y-76906381D01*
X128738239Y-76906381D01*
X128833477Y-76858762D01*
X128881096Y-76811143D01*
X128928715Y-76715905D01*
X128928715Y-76477810D01*
X128881096Y-76382571D01*
X128833477Y-76334952D01*
X128738239Y-76287333D01*
X128547762Y-76287333D01*
X128452524Y-76334952D01*
X128404905Y-76382571D01*
X128357286Y-76477810D01*
X106021143Y-69794285D02*
X106068762Y-69841904D01*
X106116381Y-69984761D01*
X106116381Y-70079999D01*
X106068762Y-70222857D01*
X105973524Y-70318095D01*
X105878286Y-70365714D01*
X105687810Y-70413333D01*
X105544952Y-70413333D01*
X105354476Y-70365714D01*
X105259238Y-70318095D01*
X105164000Y-70222857D01*
X105116381Y-70079999D01*
X105116381Y-69984761D01*
X105164000Y-69841904D01*
X105211619Y-69794285D01*
X105116381Y-69175238D02*
X105116381Y-68984761D01*
X105164000Y-68889523D01*
X105259238Y-68794285D01*
X105449714Y-68746666D01*
X105783048Y-68746666D01*
X105973524Y-68794285D01*
X106068762Y-68889523D01*
X106116381Y-68984761D01*
X106116381Y-69175238D01*
X106068762Y-69270476D01*
X105973524Y-69365714D01*
X105783048Y-69413333D01*
X105449714Y-69413333D01*
X105259238Y-69365714D01*
X105164000Y-69270476D01*
X105116381Y-69175238D01*
X106116381Y-68318095D02*
X105116381Y-68318095D01*
X106116381Y-67746666D01*
X105116381Y-67746666D01*
X106116381Y-66746666D02*
X106116381Y-67318095D01*
X106116381Y-67032381D02*
X105116381Y-67032381D01*
X105259238Y-67127619D01*
X105354476Y-67222857D01*
X105402095Y-67318095D01*
X121054905Y-66492381D02*
X121054905Y-65492381D01*
X121293000Y-65492381D01*
X121435858Y-65540000D01*
X121531096Y-65635238D01*
X121578715Y-65730476D01*
X121626334Y-65920952D01*
X121626334Y-66063810D01*
X121578715Y-66254286D01*
X121531096Y-66349524D01*
X121435858Y-66444762D01*
X121293000Y-66492381D01*
X121054905Y-66492381D01*
X122578715Y-66492381D02*
X122007286Y-66492381D01*
X122293000Y-66492381D02*
X122293000Y-65492381D01*
X122197762Y-65635238D01*
X122102524Y-65730476D01*
X122007286Y-65778095D01*
X124126667Y-122642381D02*
X124126667Y-123356667D01*
X124079047Y-123499524D01*
X123983809Y-123594762D01*
X123840952Y-123642381D01*
X123745714Y-123642381D01*
X125126667Y-123642381D02*
X124555238Y-123642381D01*
X124840952Y-123642381D02*
X124840952Y-122642381D01*
X124745714Y-122785238D01*
X124650476Y-122880476D01*
X124555238Y-122928095D01*
X184324667Y-88098381D02*
X184324667Y-88812667D01*
X184277047Y-88955524D01*
X184181809Y-89050762D01*
X184038952Y-89098381D01*
X183943714Y-89098381D01*
X184705619Y-88098381D02*
X185324667Y-88098381D01*
X184991333Y-88479333D01*
X185134191Y-88479333D01*
X185229429Y-88526952D01*
X185277048Y-88574571D01*
X185324667Y-88669810D01*
X185324667Y-88907905D01*
X185277048Y-89003143D01*
X185229429Y-89050762D01*
X185134191Y-89098381D01*
X184848476Y-89098381D01*
X184753238Y-89050762D01*
X184705619Y-89003143D01*
X186142381Y-71453333D02*
X186856667Y-71453333D01*
X186999524Y-71500953D01*
X187094762Y-71596191D01*
X187142381Y-71739048D01*
X187142381Y-71834286D01*
X186142381Y-70548571D02*
X186142381Y-70739048D01*
X186190000Y-70834286D01*
X186237619Y-70881905D01*
X186380476Y-70977143D01*
X186570952Y-71024762D01*
X186951905Y-71024762D01*
X187047143Y-70977143D01*
X187094762Y-70929524D01*
X187142381Y-70834286D01*
X187142381Y-70643809D01*
X187094762Y-70548571D01*
X187047143Y-70500952D01*
X186951905Y-70453333D01*
X186713810Y-70453333D01*
X186618571Y-70500952D01*
X186570952Y-70548571D01*
X186523333Y-70643809D01*
X186523333Y-70834286D01*
X186570952Y-70929524D01*
X186618571Y-70977143D01*
X186713810Y-71024762D01*
X156741905Y-81732381D02*
X156741905Y-80732381D01*
X157122858Y-80732381D01*
X157218096Y-80780000D01*
X157265715Y-80827619D01*
X157313334Y-80922857D01*
X157313334Y-81065714D01*
X157265715Y-81160952D01*
X157218096Y-81208571D01*
X157122858Y-81256190D01*
X156741905Y-81256190D01*
X158265715Y-81732381D02*
X157694286Y-81732381D01*
X157980000Y-81732381D02*
X157980000Y-80732381D01*
X157884762Y-80875238D01*
X157789524Y-80970476D01*
X157694286Y-81018095D01*
X124364762Y-94527619D02*
X124269524Y-94480000D01*
X124174286Y-94384762D01*
X124031429Y-94241905D01*
X123936190Y-94194286D01*
X123840952Y-94194286D01*
X123888571Y-94432381D02*
X123793333Y-94384762D01*
X123698095Y-94289524D01*
X123650476Y-94099048D01*
X123650476Y-93765714D01*
X123698095Y-93575238D01*
X123793333Y-93480000D01*
X123888571Y-93432381D01*
X124079048Y-93432381D01*
X124174286Y-93480000D01*
X124269524Y-93575238D01*
X124317143Y-93765714D01*
X124317143Y-94099048D01*
X124269524Y-94289524D01*
X124174286Y-94384762D01*
X124079048Y-94432381D01*
X123888571Y-94432381D01*
X125269524Y-94432381D02*
X124698095Y-94432381D01*
X124983809Y-94432381D02*
X124983809Y-93432381D01*
X124888571Y-93575238D01*
X124793333Y-93670476D01*
X124698095Y-93718095D01*
X133254762Y-94527619D02*
X133159524Y-94480000D01*
X133064286Y-94384762D01*
X132921429Y-94241905D01*
X132826190Y-94194286D01*
X132730952Y-94194286D01*
X132778571Y-94432381D02*
X132683333Y-94384762D01*
X132588095Y-94289524D01*
X132540476Y-94099048D01*
X132540476Y-93765714D01*
X132588095Y-93575238D01*
X132683333Y-93480000D01*
X132778571Y-93432381D01*
X132969048Y-93432381D01*
X133064286Y-93480000D01*
X133159524Y-93575238D01*
X133207143Y-93765714D01*
X133207143Y-94099048D01*
X133159524Y-94289524D01*
X133064286Y-94384762D01*
X132969048Y-94432381D01*
X132778571Y-94432381D01*
X133588095Y-93527619D02*
X133635714Y-93480000D01*
X133730952Y-93432381D01*
X133969048Y-93432381D01*
X134064286Y-93480000D01*
X134111905Y-93527619D01*
X134159524Y-93622857D01*
X134159524Y-93718095D01*
X134111905Y-93860952D01*
X133540476Y-94432381D01*
X134159524Y-94432381D01*
X142144762Y-94527619D02*
X142049524Y-94480000D01*
X141954286Y-94384762D01*
X141811429Y-94241905D01*
X141716190Y-94194286D01*
X141620952Y-94194286D01*
X141668571Y-94432381D02*
X141573333Y-94384762D01*
X141478095Y-94289524D01*
X141430476Y-94099048D01*
X141430476Y-93765714D01*
X141478095Y-93575238D01*
X141573333Y-93480000D01*
X141668571Y-93432381D01*
X141859048Y-93432381D01*
X141954286Y-93480000D01*
X142049524Y-93575238D01*
X142097143Y-93765714D01*
X142097143Y-94099048D01*
X142049524Y-94289524D01*
X141954286Y-94384762D01*
X141859048Y-94432381D01*
X141668571Y-94432381D01*
X142430476Y-93432381D02*
X143049524Y-93432381D01*
X142716190Y-93813333D01*
X142859048Y-93813333D01*
X142954286Y-93860952D01*
X143001905Y-93908571D01*
X143049524Y-94003810D01*
X143049524Y-94241905D01*
X143001905Y-94337143D01*
X142954286Y-94384762D01*
X142859048Y-94432381D01*
X142573333Y-94432381D01*
X142478095Y-94384762D01*
X142430476Y-94337143D01*
X151034762Y-94527619D02*
X150939524Y-94480000D01*
X150844286Y-94384762D01*
X150701429Y-94241905D01*
X150606190Y-94194286D01*
X150510952Y-94194286D01*
X150558571Y-94432381D02*
X150463333Y-94384762D01*
X150368095Y-94289524D01*
X150320476Y-94099048D01*
X150320476Y-93765714D01*
X150368095Y-93575238D01*
X150463333Y-93480000D01*
X150558571Y-93432381D01*
X150749048Y-93432381D01*
X150844286Y-93480000D01*
X150939524Y-93575238D01*
X150987143Y-93765714D01*
X150987143Y-94099048D01*
X150939524Y-94289524D01*
X150844286Y-94384762D01*
X150749048Y-94432381D01*
X150558571Y-94432381D01*
X151844286Y-93765714D02*
X151844286Y-94432381D01*
X151606190Y-93384762D02*
X151368095Y-94099048D01*
X151987143Y-94099048D01*
X159924762Y-94527619D02*
X159829524Y-94480000D01*
X159734286Y-94384762D01*
X159591429Y-94241905D01*
X159496190Y-94194286D01*
X159400952Y-94194286D01*
X159448571Y-94432381D02*
X159353333Y-94384762D01*
X159258095Y-94289524D01*
X159210476Y-94099048D01*
X159210476Y-93765714D01*
X159258095Y-93575238D01*
X159353333Y-93480000D01*
X159448571Y-93432381D01*
X159639048Y-93432381D01*
X159734286Y-93480000D01*
X159829524Y-93575238D01*
X159877143Y-93765714D01*
X159877143Y-94099048D01*
X159829524Y-94289524D01*
X159734286Y-94384762D01*
X159639048Y-94432381D01*
X159448571Y-94432381D01*
X160781905Y-93432381D02*
X160305714Y-93432381D01*
X160258095Y-93908571D01*
X160305714Y-93860952D01*
X160400952Y-93813333D01*
X160639048Y-93813333D01*
X160734286Y-93860952D01*
X160781905Y-93908571D01*
X160829524Y-94003810D01*
X160829524Y-94241905D01*
X160781905Y-94337143D01*
X160734286Y-94384762D01*
X160639048Y-94432381D01*
X160400952Y-94432381D01*
X160305714Y-94384762D01*
X160258095Y-94337143D01*
X168814762Y-94527619D02*
X168719524Y-94480000D01*
X168624286Y-94384762D01*
X168481429Y-94241905D01*
X168386190Y-94194286D01*
X168290952Y-94194286D01*
X168338571Y-94432381D02*
X168243333Y-94384762D01*
X168148095Y-94289524D01*
X168100476Y-94099048D01*
X168100476Y-93765714D01*
X168148095Y-93575238D01*
X168243333Y-93480000D01*
X168338571Y-93432381D01*
X168529048Y-93432381D01*
X168624286Y-93480000D01*
X168719524Y-93575238D01*
X168767143Y-93765714D01*
X168767143Y-94099048D01*
X168719524Y-94289524D01*
X168624286Y-94384762D01*
X168529048Y-94432381D01*
X168338571Y-94432381D01*
X169624286Y-93432381D02*
X169433809Y-93432381D01*
X169338571Y-93480000D01*
X169290952Y-93527619D01*
X169195714Y-93670476D01*
X169148095Y-93860952D01*
X169148095Y-94241905D01*
X169195714Y-94337143D01*
X169243333Y-94384762D01*
X169338571Y-94432381D01*
X169529048Y-94432381D01*
X169624286Y-94384762D01*
X169671905Y-94337143D01*
X169719524Y-94241905D01*
X169719524Y-94003810D01*
X169671905Y-93908571D01*
X169624286Y-93860952D01*
X169529048Y-93813333D01*
X169338571Y-93813333D01*
X169243333Y-93860952D01*
X169195714Y-93908571D01*
X169148095Y-94003810D01*
X177704762Y-94527619D02*
X177609524Y-94480000D01*
X177514286Y-94384762D01*
X177371429Y-94241905D01*
X177276190Y-94194286D01*
X177180952Y-94194286D01*
X177228571Y-94432381D02*
X177133333Y-94384762D01*
X177038095Y-94289524D01*
X176990476Y-94099048D01*
X176990476Y-93765714D01*
X177038095Y-93575238D01*
X177133333Y-93480000D01*
X177228571Y-93432381D01*
X177419048Y-93432381D01*
X177514286Y-93480000D01*
X177609524Y-93575238D01*
X177657143Y-93765714D01*
X177657143Y-94099048D01*
X177609524Y-94289524D01*
X177514286Y-94384762D01*
X177419048Y-94432381D01*
X177228571Y-94432381D01*
X177990476Y-93432381D02*
X178657143Y-93432381D01*
X178228571Y-94432381D01*
X126269762Y-110402619D02*
X126174524Y-110355000D01*
X126079286Y-110259762D01*
X125936429Y-110116905D01*
X125841190Y-110069286D01*
X125745952Y-110069286D01*
X125793571Y-110307381D02*
X125698333Y-110259762D01*
X125603095Y-110164524D01*
X125555476Y-109974048D01*
X125555476Y-109640714D01*
X125603095Y-109450238D01*
X125698333Y-109355000D01*
X125793571Y-109307381D01*
X125984048Y-109307381D01*
X126079286Y-109355000D01*
X126174524Y-109450238D01*
X126222143Y-109640714D01*
X126222143Y-109974048D01*
X126174524Y-110164524D01*
X126079286Y-110259762D01*
X125984048Y-110307381D01*
X125793571Y-110307381D01*
X126793571Y-109735952D02*
X126698333Y-109688333D01*
X126650714Y-109640714D01*
X126603095Y-109545476D01*
X126603095Y-109497857D01*
X126650714Y-109402619D01*
X126698333Y-109355000D01*
X126793571Y-109307381D01*
X126984048Y-109307381D01*
X127079286Y-109355000D01*
X127126905Y-109402619D01*
X127174524Y-109497857D01*
X127174524Y-109545476D01*
X127126905Y-109640714D01*
X127079286Y-109688333D01*
X126984048Y-109735952D01*
X126793571Y-109735952D01*
X126698333Y-109783571D01*
X126650714Y-109831190D01*
X126603095Y-109926429D01*
X126603095Y-110116905D01*
X126650714Y-110212143D01*
X126698333Y-110259762D01*
X126793571Y-110307381D01*
X126984048Y-110307381D01*
X127079286Y-110259762D01*
X127126905Y-110212143D01*
X127174524Y-110116905D01*
X127174524Y-109926429D01*
X127126905Y-109831190D01*
X127079286Y-109783571D01*
X126984048Y-109735952D01*
X135794762Y-109767619D02*
X135699524Y-109720000D01*
X135604286Y-109624762D01*
X135461429Y-109481905D01*
X135366190Y-109434286D01*
X135270952Y-109434286D01*
X135318571Y-109672381D02*
X135223333Y-109624762D01*
X135128095Y-109529524D01*
X135080476Y-109339048D01*
X135080476Y-109005714D01*
X135128095Y-108815238D01*
X135223333Y-108720000D01*
X135318571Y-108672381D01*
X135509048Y-108672381D01*
X135604286Y-108720000D01*
X135699524Y-108815238D01*
X135747143Y-109005714D01*
X135747143Y-109339048D01*
X135699524Y-109529524D01*
X135604286Y-109624762D01*
X135509048Y-109672381D01*
X135318571Y-109672381D01*
X136223333Y-109672381D02*
X136413809Y-109672381D01*
X136509048Y-109624762D01*
X136556667Y-109577143D01*
X136651905Y-109434286D01*
X136699524Y-109243810D01*
X136699524Y-108862857D01*
X136651905Y-108767619D01*
X136604286Y-108720000D01*
X136509048Y-108672381D01*
X136318571Y-108672381D01*
X136223333Y-108720000D01*
X136175714Y-108767619D01*
X136128095Y-108862857D01*
X136128095Y-109100952D01*
X136175714Y-109196190D01*
X136223333Y-109243810D01*
X136318571Y-109291429D01*
X136509048Y-109291429D01*
X136604286Y-109243810D01*
X136651905Y-109196190D01*
X136699524Y-109100952D01*
X146748572Y-109767619D02*
X146653334Y-109720000D01*
X146558096Y-109624762D01*
X146415239Y-109481905D01*
X146320000Y-109434286D01*
X146224762Y-109434286D01*
X146272381Y-109672381D02*
X146177143Y-109624762D01*
X146081905Y-109529524D01*
X146034286Y-109339048D01*
X146034286Y-109005714D01*
X146081905Y-108815238D01*
X146177143Y-108720000D01*
X146272381Y-108672381D01*
X146462858Y-108672381D01*
X146558096Y-108720000D01*
X146653334Y-108815238D01*
X146700953Y-109005714D01*
X146700953Y-109339048D01*
X146653334Y-109529524D01*
X146558096Y-109624762D01*
X146462858Y-109672381D01*
X146272381Y-109672381D01*
X147653334Y-109672381D02*
X147081905Y-109672381D01*
X147367619Y-109672381D02*
X147367619Y-108672381D01*
X147272381Y-108815238D01*
X147177143Y-108910476D01*
X147081905Y-108958095D01*
X148272381Y-108672381D02*
X148367620Y-108672381D01*
X148462858Y-108720000D01*
X148510477Y-108767619D01*
X148558096Y-108862857D01*
X148605715Y-109053333D01*
X148605715Y-109291429D01*
X148558096Y-109481905D01*
X148510477Y-109577143D01*
X148462858Y-109624762D01*
X148367620Y-109672381D01*
X148272381Y-109672381D01*
X148177143Y-109624762D01*
X148129524Y-109577143D01*
X148081905Y-109481905D01*
X148034286Y-109291429D01*
X148034286Y-109053333D01*
X148081905Y-108862857D01*
X148129524Y-108767619D01*
X148177143Y-108720000D01*
X148272381Y-108672381D01*
X127892381Y-64936666D02*
X127416190Y-65270000D01*
X127892381Y-65508095D02*
X126892381Y-65508095D01*
X126892381Y-65127142D01*
X126940000Y-65031904D01*
X126987619Y-64984285D01*
X127082857Y-64936666D01*
X127225714Y-64936666D01*
X127320952Y-64984285D01*
X127368571Y-65031904D01*
X127416190Y-65127142D01*
X127416190Y-65508095D01*
X127892381Y-63984285D02*
X127892381Y-64555714D01*
X127892381Y-64270000D02*
X126892381Y-64270000D01*
X127035238Y-64365238D01*
X127130476Y-64460476D01*
X127178095Y-64555714D01*
X122007334Y-103322381D02*
X121674000Y-102846190D01*
X121435905Y-103322381D02*
X121435905Y-102322381D01*
X121816858Y-102322381D01*
X121912096Y-102370000D01*
X121959715Y-102417619D01*
X122007334Y-102512857D01*
X122007334Y-102655714D01*
X121959715Y-102750952D01*
X121912096Y-102798571D01*
X121816858Y-102846190D01*
X121435905Y-102846190D01*
X122388286Y-102417619D02*
X122435905Y-102370000D01*
X122531143Y-102322381D01*
X122769239Y-102322381D01*
X122864477Y-102370000D01*
X122912096Y-102417619D01*
X122959715Y-102512857D01*
X122959715Y-102608095D01*
X122912096Y-102750952D01*
X122340667Y-103322381D01*
X122959715Y-103322381D01*
X130822381Y-96686666D02*
X130346190Y-97020000D01*
X130822381Y-97258095D02*
X129822381Y-97258095D01*
X129822381Y-96877142D01*
X129870000Y-96781904D01*
X129917619Y-96734285D01*
X130012857Y-96686666D01*
X130155714Y-96686666D01*
X130250952Y-96734285D01*
X130298571Y-96781904D01*
X130346190Y-96877142D01*
X130346190Y-97258095D01*
X129822381Y-96353333D02*
X129822381Y-95734285D01*
X130203333Y-96067619D01*
X130203333Y-95924761D01*
X130250952Y-95829523D01*
X130298571Y-95781904D01*
X130393810Y-95734285D01*
X130631905Y-95734285D01*
X130727143Y-95781904D01*
X130774762Y-95829523D01*
X130822381Y-95924761D01*
X130822381Y-96210476D01*
X130774762Y-96305714D01*
X130727143Y-96353333D01*
X129627334Y-101036381D02*
X129294000Y-100560190D01*
X129055905Y-101036381D02*
X129055905Y-100036381D01*
X129436858Y-100036381D01*
X129532096Y-100084000D01*
X129579715Y-100131619D01*
X129627334Y-100226857D01*
X129627334Y-100369714D01*
X129579715Y-100464952D01*
X129532096Y-100512571D01*
X129436858Y-100560190D01*
X129055905Y-100560190D01*
X130484477Y-100369714D02*
X130484477Y-101036381D01*
X130246381Y-99988762D02*
X130008286Y-100703048D01*
X130627334Y-100703048D01*
X138263334Y-100782381D02*
X137930000Y-100306190D01*
X137691905Y-100782381D02*
X137691905Y-99782381D01*
X138072858Y-99782381D01*
X138168096Y-99830000D01*
X138215715Y-99877619D01*
X138263334Y-99972857D01*
X138263334Y-100115714D01*
X138215715Y-100210952D01*
X138168096Y-100258571D01*
X138072858Y-100306190D01*
X137691905Y-100306190D01*
X139168096Y-99782381D02*
X138691905Y-99782381D01*
X138644286Y-100258571D01*
X138691905Y-100210952D01*
X138787143Y-100163333D01*
X139025239Y-100163333D01*
X139120477Y-100210952D01*
X139168096Y-100258571D01*
X139215715Y-100353810D01*
X139215715Y-100591905D01*
X139168096Y-100687143D01*
X139120477Y-100734762D01*
X139025239Y-100782381D01*
X138787143Y-100782381D01*
X138691905Y-100734762D01*
X138644286Y-100687143D01*
X150963334Y-102882381D02*
X150630000Y-102406190D01*
X150391905Y-102882381D02*
X150391905Y-101882381D01*
X150772858Y-101882381D01*
X150868096Y-101930000D01*
X150915715Y-101977619D01*
X150963334Y-102072857D01*
X150963334Y-102215714D01*
X150915715Y-102310952D01*
X150868096Y-102358571D01*
X150772858Y-102406190D01*
X150391905Y-102406190D01*
X151820477Y-101882381D02*
X151630000Y-101882381D01*
X151534762Y-101930000D01*
X151487143Y-101977619D01*
X151391905Y-102120476D01*
X151344286Y-102310952D01*
X151344286Y-102691905D01*
X151391905Y-102787143D01*
X151439524Y-102834762D01*
X151534762Y-102882381D01*
X151725239Y-102882381D01*
X151820477Y-102834762D01*
X151868096Y-102787143D01*
X151915715Y-102691905D01*
X151915715Y-102453810D01*
X151868096Y-102358571D01*
X151820477Y-102310952D01*
X151725239Y-102263333D01*
X151534762Y-102263333D01*
X151439524Y-102310952D01*
X151391905Y-102358571D01*
X151344286Y-102453810D01*
X159853334Y-102882381D02*
X159520000Y-102406190D01*
X159281905Y-102882381D02*
X159281905Y-101882381D01*
X159662858Y-101882381D01*
X159758096Y-101930000D01*
X159805715Y-101977619D01*
X159853334Y-102072857D01*
X159853334Y-102215714D01*
X159805715Y-102310952D01*
X159758096Y-102358571D01*
X159662858Y-102406190D01*
X159281905Y-102406190D01*
X160186667Y-101882381D02*
X160853334Y-101882381D01*
X160424762Y-102882381D01*
X168743334Y-102882381D02*
X168410000Y-102406190D01*
X168171905Y-102882381D02*
X168171905Y-101882381D01*
X168552858Y-101882381D01*
X168648096Y-101930000D01*
X168695715Y-101977619D01*
X168743334Y-102072857D01*
X168743334Y-102215714D01*
X168695715Y-102310952D01*
X168648096Y-102358571D01*
X168552858Y-102406190D01*
X168171905Y-102406190D01*
X169314762Y-102310952D02*
X169219524Y-102263333D01*
X169171905Y-102215714D01*
X169124286Y-102120476D01*
X169124286Y-102072857D01*
X169171905Y-101977619D01*
X169219524Y-101930000D01*
X169314762Y-101882381D01*
X169505239Y-101882381D01*
X169600477Y-101930000D01*
X169648096Y-101977619D01*
X169695715Y-102072857D01*
X169695715Y-102120476D01*
X169648096Y-102215714D01*
X169600477Y-102263333D01*
X169505239Y-102310952D01*
X169314762Y-102310952D01*
X169219524Y-102358571D01*
X169171905Y-102406190D01*
X169124286Y-102501429D01*
X169124286Y-102691905D01*
X169171905Y-102787143D01*
X169219524Y-102834762D01*
X169314762Y-102882381D01*
X169505239Y-102882381D01*
X169600477Y-102834762D01*
X169648096Y-102787143D01*
X169695715Y-102691905D01*
X169695715Y-102501429D01*
X169648096Y-102406190D01*
X169600477Y-102358571D01*
X169505239Y-102310952D01*
X139712381Y-96686666D02*
X139236190Y-97020000D01*
X139712381Y-97258095D02*
X138712381Y-97258095D01*
X138712381Y-96877142D01*
X138760000Y-96781904D01*
X138807619Y-96734285D01*
X138902857Y-96686666D01*
X139045714Y-96686666D01*
X139140952Y-96734285D01*
X139188571Y-96781904D01*
X139236190Y-96877142D01*
X139236190Y-97258095D01*
X139712381Y-96210476D02*
X139712381Y-96020000D01*
X139664762Y-95924761D01*
X139617143Y-95877142D01*
X139474286Y-95781904D01*
X139283810Y-95734285D01*
X138902857Y-95734285D01*
X138807619Y-95781904D01*
X138760000Y-95829523D01*
X138712381Y-95924761D01*
X138712381Y-96115238D01*
X138760000Y-96210476D01*
X138807619Y-96258095D01*
X138902857Y-96305714D01*
X139140952Y-96305714D01*
X139236190Y-96258095D01*
X139283810Y-96210476D01*
X139331429Y-96115238D01*
X139331429Y-95924761D01*
X139283810Y-95829523D01*
X139236190Y-95781904D01*
X139140952Y-95734285D01*
X148602381Y-97162857D02*
X148126190Y-97496191D01*
X148602381Y-97734286D02*
X147602381Y-97734286D01*
X147602381Y-97353333D01*
X147650000Y-97258095D01*
X147697619Y-97210476D01*
X147792857Y-97162857D01*
X147935714Y-97162857D01*
X148030952Y-97210476D01*
X148078571Y-97258095D01*
X148126190Y-97353333D01*
X148126190Y-97734286D01*
X148602381Y-96210476D02*
X148602381Y-96781905D01*
X148602381Y-96496191D02*
X147602381Y-96496191D01*
X147745238Y-96591429D01*
X147840476Y-96686667D01*
X147888095Y-96781905D01*
X147602381Y-95591429D02*
X147602381Y-95496190D01*
X147650000Y-95400952D01*
X147697619Y-95353333D01*
X147792857Y-95305714D01*
X147983333Y-95258095D01*
X148221429Y-95258095D01*
X148411905Y-95305714D01*
X148507143Y-95353333D01*
X148554762Y-95400952D01*
X148602381Y-95496190D01*
X148602381Y-95591429D01*
X148554762Y-95686667D01*
X148507143Y-95734286D01*
X148411905Y-95781905D01*
X148221429Y-95829524D01*
X147983333Y-95829524D01*
X147792857Y-95781905D01*
X147697619Y-95734286D01*
X147650000Y-95686667D01*
X147602381Y-95591429D01*
X157492381Y-97162857D02*
X157016190Y-97496191D01*
X157492381Y-97734286D02*
X156492381Y-97734286D01*
X156492381Y-97353333D01*
X156540000Y-97258095D01*
X156587619Y-97210476D01*
X156682857Y-97162857D01*
X156825714Y-97162857D01*
X156920952Y-97210476D01*
X156968571Y-97258095D01*
X157016190Y-97353333D01*
X157016190Y-97734286D01*
X157492381Y-96210476D02*
X157492381Y-96781905D01*
X157492381Y-96496191D02*
X156492381Y-96496191D01*
X156635238Y-96591429D01*
X156730476Y-96686667D01*
X156778095Y-96781905D01*
X157492381Y-95258095D02*
X157492381Y-95829524D01*
X157492381Y-95543810D02*
X156492381Y-95543810D01*
X156635238Y-95639048D01*
X156730476Y-95734286D01*
X156778095Y-95829524D01*
X166382381Y-97162857D02*
X165906190Y-97496191D01*
X166382381Y-97734286D02*
X165382381Y-97734286D01*
X165382381Y-97353333D01*
X165430000Y-97258095D01*
X165477619Y-97210476D01*
X165572857Y-97162857D01*
X165715714Y-97162857D01*
X165810952Y-97210476D01*
X165858571Y-97258095D01*
X165906190Y-97353333D01*
X165906190Y-97734286D01*
X166382381Y-96210476D02*
X166382381Y-96781905D01*
X166382381Y-96496191D02*
X165382381Y-96496191D01*
X165525238Y-96591429D01*
X165620476Y-96686667D01*
X165668095Y-96781905D01*
X165477619Y-95829524D02*
X165430000Y-95781905D01*
X165382381Y-95686667D01*
X165382381Y-95448571D01*
X165430000Y-95353333D01*
X165477619Y-95305714D01*
X165572857Y-95258095D01*
X165668095Y-95258095D01*
X165810952Y-95305714D01*
X166382381Y-95877143D01*
X166382381Y-95258095D01*
X175272381Y-97162857D02*
X174796190Y-97496191D01*
X175272381Y-97734286D02*
X174272381Y-97734286D01*
X174272381Y-97353333D01*
X174320000Y-97258095D01*
X174367619Y-97210476D01*
X174462857Y-97162857D01*
X174605714Y-97162857D01*
X174700952Y-97210476D01*
X174748571Y-97258095D01*
X174796190Y-97353333D01*
X174796190Y-97734286D01*
X175272381Y-96210476D02*
X175272381Y-96781905D01*
X175272381Y-96496191D02*
X174272381Y-96496191D01*
X174415238Y-96591429D01*
X174510476Y-96686667D01*
X174558095Y-96781905D01*
X174272381Y-95877143D02*
X174272381Y-95258095D01*
X174653333Y-95591429D01*
X174653333Y-95448571D01*
X174700952Y-95353333D01*
X174748571Y-95305714D01*
X174843810Y-95258095D01*
X175081905Y-95258095D01*
X175177143Y-95305714D01*
X175224762Y-95353333D01*
X175272381Y-95448571D01*
X175272381Y-95734286D01*
X175224762Y-95829524D01*
X175177143Y-95877143D01*
X177157143Y-102882381D02*
X176823809Y-102406190D01*
X176585714Y-102882381D02*
X176585714Y-101882381D01*
X176966667Y-101882381D01*
X177061905Y-101930000D01*
X177109524Y-101977619D01*
X177157143Y-102072857D01*
X177157143Y-102215714D01*
X177109524Y-102310952D01*
X177061905Y-102358571D01*
X176966667Y-102406190D01*
X176585714Y-102406190D01*
X178109524Y-102882381D02*
X177538095Y-102882381D01*
X177823809Y-102882381D02*
X177823809Y-101882381D01*
X177728571Y-102025238D01*
X177633333Y-102120476D01*
X177538095Y-102168095D01*
X178966667Y-102215714D02*
X178966667Y-102882381D01*
X178728571Y-101834762D02*
X178490476Y-102549048D01*
X179109524Y-102549048D01*
X121023143Y-101036381D02*
X120689809Y-100560190D01*
X120451714Y-101036381D02*
X120451714Y-100036381D01*
X120832667Y-100036381D01*
X120927905Y-100084000D01*
X120975524Y-100131619D01*
X121023143Y-100226857D01*
X121023143Y-100369714D01*
X120975524Y-100464952D01*
X120927905Y-100512571D01*
X120832667Y-100560190D01*
X120451714Y-100560190D01*
X121975524Y-101036381D02*
X121404095Y-101036381D01*
X121689809Y-101036381D02*
X121689809Y-100036381D01*
X121594571Y-100179238D01*
X121499333Y-100274476D01*
X121404095Y-100322095D01*
X122880286Y-100036381D02*
X122404095Y-100036381D01*
X122356476Y-100512571D01*
X122404095Y-100464952D01*
X122499333Y-100417333D01*
X122737429Y-100417333D01*
X122832667Y-100464952D01*
X122880286Y-100512571D01*
X122927905Y-100607810D01*
X122927905Y-100845905D01*
X122880286Y-100941143D01*
X122832667Y-100988762D01*
X122737429Y-101036381D01*
X122499333Y-101036381D01*
X122404095Y-100988762D01*
X122356476Y-100941143D01*
X130167143Y-103576381D02*
X129833809Y-103100190D01*
X129595714Y-103576381D02*
X129595714Y-102576381D01*
X129976667Y-102576381D01*
X130071905Y-102624000D01*
X130119524Y-102671619D01*
X130167143Y-102766857D01*
X130167143Y-102909714D01*
X130119524Y-103004952D01*
X130071905Y-103052571D01*
X129976667Y-103100190D01*
X129595714Y-103100190D01*
X131119524Y-103576381D02*
X130548095Y-103576381D01*
X130833809Y-103576381D02*
X130833809Y-102576381D01*
X130738571Y-102719238D01*
X130643333Y-102814476D01*
X130548095Y-102862095D01*
X131976667Y-102576381D02*
X131786190Y-102576381D01*
X131690952Y-102624000D01*
X131643333Y-102671619D01*
X131548095Y-102814476D01*
X131500476Y-103004952D01*
X131500476Y-103385905D01*
X131548095Y-103481143D01*
X131595714Y-103528762D01*
X131690952Y-103576381D01*
X131881429Y-103576381D01*
X131976667Y-103528762D01*
X132024286Y-103481143D01*
X132071905Y-103385905D01*
X132071905Y-103147810D01*
X132024286Y-103052571D01*
X131976667Y-103004952D01*
X131881429Y-102957333D01*
X131690952Y-102957333D01*
X131595714Y-103004952D01*
X131548095Y-103052571D01*
X131500476Y-103147810D01*
X140327143Y-103322381D02*
X139993809Y-102846190D01*
X139755714Y-103322381D02*
X139755714Y-102322381D01*
X140136667Y-102322381D01*
X140231905Y-102370000D01*
X140279524Y-102417619D01*
X140327143Y-102512857D01*
X140327143Y-102655714D01*
X140279524Y-102750952D01*
X140231905Y-102798571D01*
X140136667Y-102846190D01*
X139755714Y-102846190D01*
X141279524Y-103322381D02*
X140708095Y-103322381D01*
X140993809Y-103322381D02*
X140993809Y-102322381D01*
X140898571Y-102465238D01*
X140803333Y-102560476D01*
X140708095Y-102608095D01*
X141612857Y-102322381D02*
X142279524Y-102322381D01*
X141850952Y-103322381D01*
X184162381Y-97162857D02*
X183686190Y-97496191D01*
X184162381Y-97734286D02*
X183162381Y-97734286D01*
X183162381Y-97353333D01*
X183210000Y-97258095D01*
X183257619Y-97210476D01*
X183352857Y-97162857D01*
X183495714Y-97162857D01*
X183590952Y-97210476D01*
X183638571Y-97258095D01*
X183686190Y-97353333D01*
X183686190Y-97734286D01*
X184162381Y-96210476D02*
X184162381Y-96781905D01*
X184162381Y-96496191D02*
X183162381Y-96496191D01*
X183305238Y-96591429D01*
X183400476Y-96686667D01*
X183448095Y-96781905D01*
X183590952Y-95639048D02*
X183543333Y-95734286D01*
X183495714Y-95781905D01*
X183400476Y-95829524D01*
X183352857Y-95829524D01*
X183257619Y-95781905D01*
X183210000Y-95734286D01*
X183162381Y-95639048D01*
X183162381Y-95448571D01*
X183210000Y-95353333D01*
X183257619Y-95305714D01*
X183352857Y-95258095D01*
X183400476Y-95258095D01*
X183495714Y-95305714D01*
X183543333Y-95353333D01*
X183590952Y-95448571D01*
X183590952Y-95639048D01*
X183638571Y-95734286D01*
X183686190Y-95781905D01*
X183781429Y-95829524D01*
X183971905Y-95829524D01*
X184067143Y-95781905D01*
X184114762Y-95734286D01*
X184162381Y-95639048D01*
X184162381Y-95448571D01*
X184114762Y-95353333D01*
X184067143Y-95305714D01*
X183971905Y-95258095D01*
X183781429Y-95258095D01*
X183686190Y-95305714D01*
X183638571Y-95353333D01*
X183590952Y-95448571D01*
X132092381Y-107322857D02*
X131616190Y-107656191D01*
X132092381Y-107894286D02*
X131092381Y-107894286D01*
X131092381Y-107513333D01*
X131140000Y-107418095D01*
X131187619Y-107370476D01*
X131282857Y-107322857D01*
X131425714Y-107322857D01*
X131520952Y-107370476D01*
X131568571Y-107418095D01*
X131616190Y-107513333D01*
X131616190Y-107894286D01*
X132092381Y-106370476D02*
X132092381Y-106941905D01*
X132092381Y-106656191D02*
X131092381Y-106656191D01*
X131235238Y-106751429D01*
X131330476Y-106846667D01*
X131378095Y-106941905D01*
X132092381Y-105894286D02*
X132092381Y-105703810D01*
X132044762Y-105608571D01*
X131997143Y-105560952D01*
X131854286Y-105465714D01*
X131663810Y-105418095D01*
X131282857Y-105418095D01*
X131187619Y-105465714D01*
X131140000Y-105513333D01*
X131092381Y-105608571D01*
X131092381Y-105799048D01*
X131140000Y-105894286D01*
X131187619Y-105941905D01*
X131282857Y-105989524D01*
X131520952Y-105989524D01*
X131616190Y-105941905D01*
X131663810Y-105894286D01*
X131711429Y-105799048D01*
X131711429Y-105608571D01*
X131663810Y-105513333D01*
X131616190Y-105465714D01*
X131520952Y-105418095D01*
X143522381Y-107322857D02*
X143046190Y-107656191D01*
X143522381Y-107894286D02*
X142522381Y-107894286D01*
X142522381Y-107513333D01*
X142570000Y-107418095D01*
X142617619Y-107370476D01*
X142712857Y-107322857D01*
X142855714Y-107322857D01*
X142950952Y-107370476D01*
X142998571Y-107418095D01*
X143046190Y-107513333D01*
X143046190Y-107894286D01*
X142617619Y-106941905D02*
X142570000Y-106894286D01*
X142522381Y-106799048D01*
X142522381Y-106560952D01*
X142570000Y-106465714D01*
X142617619Y-106418095D01*
X142712857Y-106370476D01*
X142808095Y-106370476D01*
X142950952Y-106418095D01*
X143522381Y-106989524D01*
X143522381Y-106370476D01*
X142522381Y-105751429D02*
X142522381Y-105656190D01*
X142570000Y-105560952D01*
X142617619Y-105513333D01*
X142712857Y-105465714D01*
X142903333Y-105418095D01*
X143141429Y-105418095D01*
X143331905Y-105465714D01*
X143427143Y-105513333D01*
X143474762Y-105560952D01*
X143522381Y-105656190D01*
X143522381Y-105751429D01*
X143474762Y-105846667D01*
X143427143Y-105894286D01*
X143331905Y-105941905D01*
X143141429Y-105989524D01*
X142903333Y-105989524D01*
X142712857Y-105941905D01*
X142617619Y-105894286D01*
X142570000Y-105846667D01*
X142522381Y-105751429D01*
X154952381Y-107322857D02*
X154476190Y-107656191D01*
X154952381Y-107894286D02*
X153952381Y-107894286D01*
X153952381Y-107513333D01*
X154000000Y-107418095D01*
X154047619Y-107370476D01*
X154142857Y-107322857D01*
X154285714Y-107322857D01*
X154380952Y-107370476D01*
X154428571Y-107418095D01*
X154476190Y-107513333D01*
X154476190Y-107894286D01*
X154047619Y-106941905D02*
X154000000Y-106894286D01*
X153952381Y-106799048D01*
X153952381Y-106560952D01*
X154000000Y-106465714D01*
X154047619Y-106418095D01*
X154142857Y-106370476D01*
X154238095Y-106370476D01*
X154380952Y-106418095D01*
X154952381Y-106989524D01*
X154952381Y-106370476D01*
X154952381Y-105418095D02*
X154952381Y-105989524D01*
X154952381Y-105703810D02*
X153952381Y-105703810D01*
X154095238Y-105799048D01*
X154190476Y-105894286D01*
X154238095Y-105989524D01*
X132080095Y-61936381D02*
X132080095Y-62745905D01*
X132127714Y-62841143D01*
X132175333Y-62888762D01*
X132270571Y-62936381D01*
X132461048Y-62936381D01*
X132556286Y-62888762D01*
X132603905Y-62841143D01*
X132651524Y-62745905D01*
X132651524Y-61936381D01*
X133080095Y-62031619D02*
X133127714Y-61984000D01*
X133222952Y-61936381D01*
X133461048Y-61936381D01*
X133556286Y-61984000D01*
X133603905Y-62031619D01*
X133651524Y-62126857D01*
X133651524Y-62222095D01*
X133603905Y-62364952D01*
X133032476Y-62936381D01*
X133651524Y-62936381D01*
X150653809Y-82526190D02*
X150653809Y-83002381D01*
X150320476Y-82002381D02*
X150653809Y-82526190D01*
X150987143Y-82002381D01*
X151844286Y-83002381D02*
X151272857Y-83002381D01*
X151558571Y-83002381D02*
X151558571Y-82002381D01*
X151463333Y-82145238D01*
X151368095Y-82240476D01*
X151272857Y-82288095D01*
X113728667Y-79906762D02*
X113871524Y-79954381D01*
X114109620Y-79954381D01*
X114204858Y-79906762D01*
X114252477Y-79859143D01*
X114300096Y-79763905D01*
X114300096Y-79668667D01*
X114252477Y-79573429D01*
X114204858Y-79525810D01*
X114109620Y-79478190D01*
X113919143Y-79430571D01*
X113823905Y-79382952D01*
X113776286Y-79335333D01*
X113728667Y-79240095D01*
X113728667Y-79144857D01*
X113776286Y-79049619D01*
X113823905Y-79002000D01*
X113919143Y-78954381D01*
X114157239Y-78954381D01*
X114300096Y-79002000D01*
X114633429Y-78954381D02*
X114871524Y-79954381D01*
X115062001Y-79240095D01*
X115252477Y-79954381D01*
X115490572Y-78954381D01*
X116395334Y-79954381D02*
X115823905Y-79954381D01*
X116109619Y-79954381D02*
X116109619Y-78954381D01*
X116014381Y-79097238D01*
X115919143Y-79192476D01*
X115823905Y-79240095D01*
X129206667Y-123912381D02*
X129206667Y-124626667D01*
X129159047Y-124769524D01*
X129063809Y-124864762D01*
X128920952Y-124912381D01*
X128825714Y-124912381D01*
X129635238Y-124007619D02*
X129682857Y-123960000D01*
X129778095Y-123912381D01*
X130016191Y-123912381D01*
X130111429Y-123960000D01*
X130159048Y-124007619D01*
X130206667Y-124102857D01*
X130206667Y-124198095D01*
X130159048Y-124340952D01*
X129587619Y-124912381D01*
X130206667Y-124912381D01*
%LPC*%
D15*
X168945560Y-63350140D03*
X168290900Y-63350000D03*
X167640900Y-63350000D03*
X166990900Y-63350000D03*
X166340900Y-63350000D03*
D16*
X170140900Y-62522540D03*
X165140900Y-62522540D03*
D17*
X171140900Y-59822540D03*
X164140900Y-59822540D03*
D18*
X155740100Y-66027300D03*
D19*
X159390080Y-62151260D03*
D18*
X156540200Y-66027300D03*
X154940000Y-66027300D03*
X154139900Y-66027300D03*
X153339800Y-66027300D03*
D19*
X159390080Y-65580260D03*
X150489920Y-65580260D03*
X150495000Y-62103000D03*
D20*
X157139640Y-63080900D03*
X152740360Y-63080900D03*
D21*
X107950000Y-61722000D03*
X181610000Y-62230000D03*
X181610000Y-113030000D03*
X124460000Y-113030000D03*
D22*
X107315000Y-77169000D03*
X107315000Y-74469000D03*
D23*
X125904000Y-71628000D03*
X128604000Y-71628000D03*
D22*
X145161000Y-70565000D03*
X145161000Y-67865000D03*
D23*
X125269000Y-69088000D03*
X127969000Y-69088000D03*
X150034000Y-74168000D03*
X152734000Y-74168000D03*
D22*
X166624000Y-73326000D03*
X166624000Y-76026000D03*
D24*
X157954980Y-73660000D03*
X160053020Y-73660000D03*
X166624000Y-78706980D03*
X166624000Y-80805020D03*
D25*
X141410000Y-85350000D03*
X141410000Y-84550000D03*
X141410000Y-83750000D03*
X141410000Y-82950000D03*
X141410000Y-82150000D03*
X141410000Y-81350000D03*
X141410000Y-80550000D03*
X141410000Y-79750000D03*
D26*
X139960000Y-78300000D03*
X139160000Y-78300000D03*
X138360000Y-78300000D03*
X137560000Y-78300000D03*
X136760000Y-78300000D03*
X135960000Y-78300000D03*
X135160000Y-78300000D03*
X134360000Y-78300000D03*
D25*
X132910000Y-79750000D03*
X132910000Y-80550000D03*
X132910000Y-81350000D03*
X132910000Y-82150000D03*
X132910000Y-82950000D03*
X132910000Y-83750000D03*
X132910000Y-84550000D03*
X132910000Y-85350000D03*
D26*
X134360000Y-86800000D03*
X135160000Y-86800000D03*
X135960000Y-86800000D03*
X136760000Y-86800000D03*
X137560000Y-86800000D03*
X138360000Y-86800000D03*
X139160000Y-86800000D03*
X139960000Y-86800000D03*
D27*
X140990000Y-90170000D03*
X143490000Y-90170000D03*
X140990000Y-74930000D03*
X143490000Y-74930000D03*
D28*
X121920000Y-81300000D03*
X121920000Y-83800000D03*
D27*
X121940000Y-88900000D03*
X124440000Y-88900000D03*
D29*
X127000000Y-80350360D03*
X127000000Y-84749640D03*
D27*
X125710000Y-76200000D03*
X123210000Y-76200000D03*
D30*
X119380000Y-71120000D03*
D31*
X116840000Y-71120000D03*
X119380000Y-68580000D03*
X116840000Y-68580000D03*
X119380000Y-66040000D03*
X116840000Y-66040000D03*
D24*
X123410980Y-66040000D03*
X125509020Y-66040000D03*
D32*
X124460000Y-118110000D03*
D33*
X124460000Y-120650000D03*
D34*
X173990000Y-88900000D03*
D35*
X176530000Y-88900000D03*
X179070000Y-88900000D03*
X181610000Y-88900000D03*
D34*
X189230000Y-71120000D03*
D35*
X191770000Y-71120000D03*
X194310000Y-71120000D03*
X196850000Y-71120000D03*
D34*
X160020000Y-78740000D03*
D35*
X157480000Y-78740000D03*
X154940000Y-78740000D03*
D36*
X123459240Y-95570000D03*
X123459240Y-97470000D03*
X125458220Y-96520000D03*
X132349240Y-95570000D03*
X132349240Y-97470000D03*
X134348220Y-96520000D03*
X141239240Y-95570000D03*
X141239240Y-97470000D03*
X143238220Y-96520000D03*
X150129240Y-95570000D03*
X150129240Y-97470000D03*
X152128220Y-96520000D03*
X159019240Y-95570000D03*
X159019240Y-97470000D03*
X161018220Y-96520000D03*
X167909240Y-95570000D03*
X167909240Y-97470000D03*
X169908220Y-96520000D03*
X176799240Y-95570000D03*
X176799240Y-97470000D03*
X178798220Y-96520000D03*
X126730760Y-107630000D03*
X126730760Y-105730000D03*
X124731780Y-106680000D03*
X136890760Y-107630000D03*
X136890760Y-105730000D03*
X134891780Y-106680000D03*
X148320760Y-107630000D03*
X148320760Y-105730000D03*
X146321780Y-106680000D03*
D22*
X129540000Y-66120000D03*
X129540000Y-63420000D03*
D23*
X127080000Y-100330000D03*
X124380000Y-100330000D03*
D22*
X128270000Y-95170000D03*
X128270000Y-97870000D03*
D23*
X134700000Y-100330000D03*
X132000000Y-100330000D03*
X143590000Y-100330000D03*
X140890000Y-100330000D03*
X152480000Y-100330000D03*
X149780000Y-100330000D03*
X161370000Y-100330000D03*
X158670000Y-100330000D03*
X170260000Y-100330000D03*
X167560000Y-100330000D03*
D22*
X137160000Y-95170000D03*
X137160000Y-97870000D03*
X146050000Y-95170000D03*
X146050000Y-97870000D03*
X154940000Y-95170000D03*
X154940000Y-97870000D03*
X163830000Y-95170000D03*
X163830000Y-97870000D03*
X172720000Y-95170000D03*
X172720000Y-97870000D03*
D23*
X179150000Y-100330000D03*
X176450000Y-100330000D03*
X124380000Y-102870000D03*
X127080000Y-102870000D03*
X135970000Y-102870000D03*
X133270000Y-102870000D03*
X146130000Y-102870000D03*
X143430000Y-102870000D03*
D22*
X181610000Y-95170000D03*
X181610000Y-97870000D03*
X129540000Y-105330000D03*
X129540000Y-108030000D03*
X140970000Y-105330000D03*
X140970000Y-108030000D03*
X152400000Y-105330000D03*
X152400000Y-108030000D03*
D37*
X132935000Y-72180000D03*
X133585000Y-72180000D03*
X134235000Y-72180000D03*
X134885000Y-72180000D03*
X135535000Y-72180000D03*
X136185000Y-72180000D03*
X136835000Y-72180000D03*
X137485000Y-72180000D03*
X138135000Y-72180000D03*
X138785000Y-72180000D03*
X139435000Y-72180000D03*
X140085000Y-72180000D03*
X140735000Y-72180000D03*
X141385000Y-72180000D03*
X141385000Y-64980000D03*
X140735000Y-64980000D03*
X140085000Y-64980000D03*
X139435000Y-64980000D03*
X138785000Y-64980000D03*
X138135000Y-64980000D03*
X137485000Y-64980000D03*
X136835000Y-64980000D03*
X136185000Y-64980000D03*
X135535000Y-64980000D03*
X134885000Y-64980000D03*
X134235000Y-64980000D03*
X133585000Y-64980000D03*
X132935000Y-64980000D03*
D38*
X147320000Y-77701140D03*
X147320000Y-87398860D03*
D39*
X109964000Y-76454000D03*
X119144000Y-76454000D03*
D40*
X133350000Y-120650000D03*
D41*
X133350000Y-118110000D03*
X135890000Y-120650000D03*
X135890000Y-118110000D03*
X138430000Y-120650000D03*
X138430000Y-118110000D03*
X140970000Y-120650000D03*
X140970000Y-118110000D03*
X143510000Y-120650000D03*
X143510000Y-118110000D03*
X146050000Y-120650000D03*
X146050000Y-118110000D03*
X148590000Y-120650000D03*
X148590000Y-118110000D03*
X151130000Y-120650000D03*
X151130000Y-118110000D03*
X153670000Y-120650000D03*
X153670000Y-118110000D03*
X156210000Y-120650000D03*
X156210000Y-118110000D03*
X158750000Y-120650000D03*
X158750000Y-118110000D03*
X161290000Y-120650000D03*
X161290000Y-118110000D03*
X163830000Y-120650000D03*
X163830000Y-118110000D03*
X166370000Y-120650000D03*
X166370000Y-118110000D03*
X168910000Y-120650000D03*
X168910000Y-118110000D03*
X171450000Y-120650000D03*
X171450000Y-118110000D03*
X173990000Y-120650000D03*
X173990000Y-118110000D03*
D42*
X123046000Y-83674200D03*
X117348000Y-74803000D03*
X120747000Y-76581200D03*
X123210000Y-77371000D03*
X131607000Y-83077600D03*
X128651000Y-84836000D03*
X136779000Y-74041000D03*
X136906000Y-75565000D03*
X134816000Y-63599000D03*
X139304000Y-63599000D03*
X128342000Y-63439200D03*
X131191000Y-66421000D03*
X137087000Y-70788100D03*
X137322000Y-66367300D03*
X153478000Y-64719200D03*
X140095000Y-82150000D03*
X140049000Y-83750000D03*
X127000000Y-82720900D03*
X139726000Y-90130500D03*
X161185000Y-74045500D03*
X167736000Y-80544500D03*
X122603000Y-90065400D03*
X137643000Y-62684000D03*
X125470000Y-86347700D03*
X125046000Y-77879900D03*
X131264000Y-79654900D03*
X126432000Y-73828600D03*
X152402000Y-98236000D03*
X170651000Y-97700100D03*
X129489000Y-102689000D03*
X149120000Y-97163200D03*
X147010000Y-105325000D03*
X168016000Y-98711000D03*
X157776000Y-69333300D03*
X161525000Y-62571600D03*
X133171000Y-74061700D03*
X134290000Y-85412700D03*
X134061000Y-74199300D03*
X135439000Y-84571300D03*
X140360000Y-70702000D03*
X139048000Y-85412700D03*
X133192000Y-86241300D03*
X159151000Y-94438600D03*
X138304000Y-80422900D03*
X124840000Y-99179600D03*
X136004000Y-96671800D03*
X137857000Y-82640200D03*
X145354000Y-84138700D03*
X157853000Y-97094000D03*
X143174000Y-77961000D03*
X158931000Y-99024600D03*
X145354000Y-86454800D03*
X162353000Y-96847300D03*
X134996000Y-80487500D03*
X126309000Y-101600000D03*
X139911000Y-80137500D03*
X134620000Y-102720000D03*
M02*
