M48
; DRILL file {KiCad 5.1.9+dfsg1-1~bpo10+1} date Mon Apr  5 15:54:59 2021
; FORMAT={-:-/ absolute / inch / decimal}
; #@! TF.CreationDate,2021-04-05T15:54:59+02:00
; #@! TF.GenerationSoftware,Kicad,Pcbnew,5.1.9+dfsg1-1~bpo10+1
; #@! TF.FileFunction,Plated,1,2,PTH
FMAT,2
INCH
T1C0.0118
T2C0.0157
T3C0.0197
T4C0.0217
T5C0.0300
T6C0.0315
T7C0.0358
T8C0.0394
%
G90
G05
T1
X5.7492Y-4.2794
X5.8149Y-4.1
T2
X4.826Y-3.7576
X4.961Y-4.0154
X5.0925Y-3.0827
X5.1657Y-3.7596
X5.1736Y-3.1398
X5.194Y-2.8433
X5.194Y-3.4364
X5.2576Y-4.0353
X5.2784Y-3.0311
X5.3266Y-3.1348
X5.344Y-3.1787
X5.3542Y-3.0312
X5.381Y-3.3128
X5.3867Y-3.349
X5.4421Y-3.8807
X5.4654Y-3.0155
X5.4787Y-3.3647
X5.4789Y-3.2892
X5.4967Y-3.1345
X5.5023Y-2.8963
X5.5113Y-3.1644
X5.5152Y-2.6127
X5.6645Y-3.1718
X5.6664Y-3.3287
X5.6948Y-2.639
X5.9557Y-3.8769
X6.1103Y-3.7795
X6.1473Y-4.1782
X6.1606Y-2.679
X6.2021Y-2.7343
X6.2541Y-3.7996
X6.6377Y-3.8773
T5
X5.5669Y-4.9106
X5.6063Y-4.9894
X5.6457Y-4.9106
X5.685Y-4.9894
X5.7244Y-4.9106
X5.7638Y-4.9894
X5.8031Y-4.9106
X5.8425Y-4.9894
X5.8819Y-4.9106
X5.9213Y-4.9894
X5.9606Y-4.9106
X6.0Y-4.9894
X6.0394Y-4.9106
X6.0787Y-4.9894
X6.1181Y-4.9106
X6.1575Y-4.9894
X6.1969Y-4.9106
X6.2362Y-4.9894
X6.2756Y-4.9106
X6.315Y-4.9894
X6.3543Y-4.9106
X6.3937Y-4.9894
X6.4331Y-4.9106
X6.4724Y-4.9894
X6.5118Y-4.9106
X6.5512Y-4.9894
T6
X5.8Y-3.15
X5.8Y-3.3421
T7
X5.25Y-4.65
X5.25Y-4.75
X5.35Y-4.65
X5.35Y-4.75
X5.45Y-4.65
X5.45Y-4.75
X5.55Y-4.65
X5.55Y-4.75
X5.65Y-4.65
X5.65Y-4.75
X5.75Y-4.65
X5.75Y-4.75
X5.85Y-4.65
X5.85Y-4.75
X5.95Y-4.65
X5.95Y-4.75
X6.05Y-4.65
X6.05Y-4.75
X6.15Y-4.65
X6.15Y-4.75
X6.25Y-4.65
X6.25Y-4.75
X6.35Y-4.65
X6.35Y-4.75
X6.45Y-4.65
X6.45Y-4.75
X6.55Y-4.65
X6.55Y-4.75
X6.65Y-4.65
X6.65Y-4.75
X6.75Y-4.65
X6.75Y-4.75
X6.85Y-4.65
X6.85Y-4.75
T8
X4.6Y-2.6
X4.6Y-2.7
X4.6Y-2.8
X4.7Y-2.6
X4.7Y-2.7
X4.7Y-2.8
X4.9Y-4.65
X4.9Y-4.75
X6.1Y-3.1
X6.2Y-3.1
X6.3Y-3.1
X6.85Y-3.5
X6.95Y-3.5
X7.0Y-2.7
X7.05Y-3.5
X7.1Y-2.7
X7.15Y-3.5
X7.2Y-2.7
X7.3Y-2.7
T3
G00X6.4622Y-2.3424
M15
G01X6.4622Y-2.368
M16
G05
G00X6.7378Y-2.3424
M15
G01X6.7378Y-2.368
M16
G05
T4
G00X6.5075Y-2.4615
M15
G01X6.4957Y-2.4615
M16
G05
G00X6.7044Y-2.4615
M15
G01X6.6926Y-2.4615
M16
G05
T0
M30
