%TF.GenerationSoftware,KiCad,Pcbnew,4.0.2+dfsg1-stable*%
%TF.CreationDate,2018-12-23T00:41:53+01:00*%
%TF.ProjectId,usbavrfloppy,757362617672666C6F7070792E6B6963,rev?*%
%TF.FileFunction,Paste,Top*%
%FSLAX46Y46*%
G04 Gerber Fmt 4.6, Leading zero omitted, Abs format (unit mm)*
G04 Created by KiCad (PCBNEW 4.0.2+dfsg1-stable) date Sun 23 Dec 2018 00:41:53 CET*
%MOMM*%
G01*
G04 APERTURE LIST*
%ADD10C,0.100000*%
%ADD11R,2.100580X5.600700*%
%ADD12R,0.450000X1.750000*%
%ADD13R,1.300000X1.500000*%
%ADD14R,1.500000X1.300000*%
%ADD15R,0.800100X0.800100*%
%ADD16R,1.198880X1.198880*%
%ADD17R,1.500000X1.250000*%
%ADD18R,1.600200X2.999740*%
%ADD19R,1.250000X1.500000*%
%ADD20R,1.600000X0.550000*%
%ADD21R,0.550000X1.600000*%
%ADD22R,2.180000X1.600000*%
%ADD23R,0.400000X3.000000*%
%ADD24R,0.500380X3.000000*%
%ADD25R,1.998980X2.499360*%
G04 APERTURE END LIST*
D10*
D11*
X147320000Y-77701140D03*
X147320000Y-87398860D03*
D12*
X132935000Y-72180000D03*
X133585000Y-72180000D03*
X134235000Y-72180000D03*
X134885000Y-72180000D03*
X135535000Y-72180000D03*
X136185000Y-72180000D03*
X136835000Y-72180000D03*
X137485000Y-72180000D03*
X138135000Y-72180000D03*
X138785000Y-72180000D03*
X139435000Y-72180000D03*
X140085000Y-72180000D03*
X140735000Y-72180000D03*
X141385000Y-72180000D03*
X141385000Y-64980000D03*
X140735000Y-64980000D03*
X140085000Y-64980000D03*
X139435000Y-64980000D03*
X138785000Y-64980000D03*
X138135000Y-64980000D03*
X137485000Y-64980000D03*
X136835000Y-64980000D03*
X136185000Y-64980000D03*
X135535000Y-64980000D03*
X134885000Y-64980000D03*
X134235000Y-64980000D03*
X133585000Y-64980000D03*
X132935000Y-64980000D03*
D13*
X152400000Y-105330000D03*
X152400000Y-108030000D03*
X140970000Y-105330000D03*
X140970000Y-108030000D03*
X129540000Y-105330000D03*
X129540000Y-108030000D03*
X181610000Y-95170000D03*
X181610000Y-97870000D03*
D14*
X146130000Y-102870000D03*
X143430000Y-102870000D03*
X135970000Y-102870000D03*
X133270000Y-102870000D03*
X124380000Y-102870000D03*
X127080000Y-102870000D03*
X179150000Y-100330000D03*
X176450000Y-100330000D03*
D13*
X172720000Y-95170000D03*
X172720000Y-97870000D03*
X163830000Y-95170000D03*
X163830000Y-97870000D03*
X154940000Y-95170000D03*
X154940000Y-97870000D03*
X146050000Y-95170000D03*
X146050000Y-97870000D03*
X137160000Y-95170000D03*
X137160000Y-97870000D03*
D14*
X170260000Y-100330000D03*
X167560000Y-100330000D03*
X161370000Y-100330000D03*
X158670000Y-100330000D03*
X152480000Y-100330000D03*
X149780000Y-100330000D03*
X143590000Y-100330000D03*
X140890000Y-100330000D03*
X134700000Y-100330000D03*
X132000000Y-100330000D03*
D13*
X128270000Y-95170000D03*
X128270000Y-97870000D03*
D14*
X127080000Y-100330000D03*
X124380000Y-100330000D03*
D13*
X129540000Y-66120000D03*
X129540000Y-63420000D03*
D15*
X148320760Y-107630000D03*
X148320760Y-105730000D03*
X146321780Y-106680000D03*
X136890760Y-107630000D03*
X136890760Y-105730000D03*
X134891780Y-106680000D03*
X126730760Y-107630000D03*
X126730760Y-105730000D03*
X124731780Y-106680000D03*
X176799240Y-95570000D03*
X176799240Y-97470000D03*
X178798220Y-96520000D03*
X167909240Y-95570000D03*
X167909240Y-97470000D03*
X169908220Y-96520000D03*
X159019240Y-95570000D03*
X159019240Y-97470000D03*
X161018220Y-96520000D03*
X150129240Y-95570000D03*
X150129240Y-97470000D03*
X152128220Y-96520000D03*
X141239240Y-95570000D03*
X141239240Y-97470000D03*
X143238220Y-96520000D03*
X132349240Y-95570000D03*
X132349240Y-97470000D03*
X134348220Y-96520000D03*
X123459240Y-95570000D03*
X123459240Y-97470000D03*
X125458220Y-96520000D03*
D16*
X123410980Y-66040000D03*
X125509020Y-66040000D03*
D17*
X125710000Y-76200000D03*
X123210000Y-76200000D03*
D18*
X127000000Y-80350360D03*
X127000000Y-84749640D03*
D17*
X121940000Y-88900000D03*
X124440000Y-88900000D03*
D19*
X121920000Y-81300000D03*
X121920000Y-83800000D03*
D17*
X140990000Y-74930000D03*
X143490000Y-74930000D03*
X140990000Y-90170000D03*
X143490000Y-90170000D03*
D20*
X141410000Y-85350000D03*
X141410000Y-84550000D03*
X141410000Y-83750000D03*
X141410000Y-82950000D03*
X141410000Y-82150000D03*
X141410000Y-81350000D03*
X141410000Y-80550000D03*
X141410000Y-79750000D03*
D21*
X139960000Y-78300000D03*
X139160000Y-78300000D03*
X138360000Y-78300000D03*
X137560000Y-78300000D03*
X136760000Y-78300000D03*
X135960000Y-78300000D03*
X135160000Y-78300000D03*
X134360000Y-78300000D03*
D20*
X132910000Y-79750000D03*
X132910000Y-80550000D03*
X132910000Y-81350000D03*
X132910000Y-82150000D03*
X132910000Y-82950000D03*
X132910000Y-83750000D03*
X132910000Y-84550000D03*
X132910000Y-85350000D03*
D21*
X134360000Y-86800000D03*
X135160000Y-86800000D03*
X135960000Y-86800000D03*
X136760000Y-86800000D03*
X137560000Y-86800000D03*
X138360000Y-86800000D03*
X139160000Y-86800000D03*
X139960000Y-86800000D03*
D22*
X109951570Y-76451680D03*
X119156430Y-76456320D03*
D16*
X166624000Y-78706980D03*
X166624000Y-80805020D03*
X157954980Y-73660000D03*
X160053020Y-73660000D03*
D13*
X166624000Y-73326000D03*
X166624000Y-76026000D03*
D14*
X150034000Y-74168000D03*
X152734000Y-74168000D03*
X125269000Y-69088000D03*
X127969000Y-69088000D03*
D13*
X145161000Y-70565000D03*
X145161000Y-67865000D03*
D14*
X125904000Y-71628000D03*
X128604000Y-71628000D03*
D13*
X107315000Y-77169000D03*
X107315000Y-74469000D03*
D23*
X168945560Y-63350140D03*
X168290900Y-63350000D03*
X167640900Y-63350000D03*
X166990900Y-63350000D03*
X166340900Y-63350000D03*
D24*
X155740100Y-66730000D03*
D25*
X159390080Y-62151260D03*
D24*
X156540200Y-66730000D03*
X154940000Y-66730000D03*
X154139900Y-66730000D03*
X153339800Y-66730000D03*
D25*
X159390080Y-65580260D03*
X150489920Y-65580260D03*
X150495000Y-62103000D03*
M02*
