%TF.GenerationSoftware,KiCad,Pcbnew,4.0.2+dfsg1-stable*%
%TF.CreationDate,2019-06-17T11:56:57+02:00*%
%TF.ProjectId,usbavrfloppy,757362617672666C6F7070792E6B6963,rev?*%
%TF.FileFunction,Paste,Top*%
%FSLAX46Y46*%
G04 Gerber Fmt 4.6, Leading zero omitted, Abs format (unit mm)*
G04 Created by KiCad (PCBNEW 4.0.2+dfsg1-stable) date lun 17 giu 2019 11:56:57 CEST*
%MOMM*%
G01*
G04 APERTURE LIST*
%ADD10C,0.100000*%
%ADD11R,1.700000X2.000000*%
%ADD12R,2.000000X1.700000*%
%ADD13R,1.597660X1.800860*%
%ADD14R,1.800860X1.597660*%
%ADD15R,2.000000X1.600000*%
%ADD16R,1.600000X2.000000*%
%ADD17R,2.180000X1.600000*%
%ADD18R,2.100580X5.600700*%
%ADD19R,0.450000X1.750000*%
%ADD20R,0.800100X0.800100*%
%ADD21R,1.600200X2.999740*%
%ADD22R,1.600000X0.550000*%
%ADD23R,0.550000X1.600000*%
%ADD24R,0.500380X3.000000*%
%ADD25R,1.998980X2.499360*%
%ADD26R,0.400000X3.000000*%
G04 APERTURE END LIST*
D10*
D11*
X106680000Y-78200000D03*
X106680000Y-74200000D03*
D12*
X124492000Y-72136000D03*
X128492000Y-72136000D03*
D11*
X146050000Y-70580000D03*
X146050000Y-66580000D03*
D12*
X124492000Y-69342000D03*
X128492000Y-69342000D03*
X150400000Y-73660000D03*
X154400000Y-73660000D03*
D11*
X166370000Y-71660000D03*
X166370000Y-75660000D03*
X152400000Y-104680000D03*
X152400000Y-108680000D03*
X140462000Y-104934000D03*
X140462000Y-108934000D03*
X129540000Y-104680000D03*
X129540000Y-108680000D03*
X181102000Y-93758000D03*
X181102000Y-97758000D03*
D12*
X149320000Y-104140000D03*
X145320000Y-104140000D03*
X137382000Y-103886000D03*
X133382000Y-103886000D03*
X122460000Y-103378000D03*
X126460000Y-103378000D03*
X179292000Y-100584000D03*
X175292000Y-100584000D03*
D11*
X172466000Y-93758000D03*
X172466000Y-97758000D03*
X163576000Y-93758000D03*
X163576000Y-97758000D03*
X154432000Y-93758000D03*
X154432000Y-97758000D03*
X145542000Y-93758000D03*
X145542000Y-97758000D03*
X136906000Y-93758000D03*
X136906000Y-97758000D03*
D12*
X170656000Y-100584000D03*
X166656000Y-100584000D03*
X161766000Y-100584000D03*
X157766000Y-100584000D03*
X152622000Y-100584000D03*
X148622000Y-100584000D03*
X143732000Y-100584000D03*
X139732000Y-100584000D03*
X135096000Y-100584000D03*
X131096000Y-100584000D03*
D11*
X128270000Y-93758000D03*
X128270000Y-97758000D03*
D12*
X126460000Y-100584000D03*
X122460000Y-100584000D03*
D11*
X129794000Y-66516000D03*
X129794000Y-62516000D03*
D13*
X157584140Y-73660000D03*
X160423860Y-73660000D03*
D14*
X166624000Y-78336140D03*
X166624000Y-81175860D03*
D13*
X124056140Y-64770000D03*
X126895860Y-64770000D03*
D15*
X126460000Y-76200000D03*
X122460000Y-76200000D03*
X121190000Y-88900000D03*
X125190000Y-88900000D03*
D16*
X121920000Y-80550000D03*
X121920000Y-84550000D03*
D15*
X138970000Y-75184000D03*
X142970000Y-75184000D03*
X138970000Y-90170000D03*
X142970000Y-90170000D03*
D17*
X109964000Y-76454000D03*
X119144000Y-76454000D03*
D18*
X147320000Y-77701140D03*
X147320000Y-87398860D03*
D19*
X132935000Y-72180000D03*
X133585000Y-72180000D03*
X134235000Y-72180000D03*
X134885000Y-72180000D03*
X135535000Y-72180000D03*
X136185000Y-72180000D03*
X136835000Y-72180000D03*
X137485000Y-72180000D03*
X138135000Y-72180000D03*
X138785000Y-72180000D03*
X139435000Y-72180000D03*
X140085000Y-72180000D03*
X140735000Y-72180000D03*
X141385000Y-72180000D03*
X141385000Y-64980000D03*
X140735000Y-64980000D03*
X140085000Y-64980000D03*
X139435000Y-64980000D03*
X138785000Y-64980000D03*
X138135000Y-64980000D03*
X137485000Y-64980000D03*
X136835000Y-64980000D03*
X136185000Y-64980000D03*
X135535000Y-64980000D03*
X134885000Y-64980000D03*
X134235000Y-64980000D03*
X133585000Y-64980000D03*
X132935000Y-64980000D03*
D20*
X149336760Y-108646000D03*
X149336760Y-106746000D03*
X147337780Y-107696000D03*
X137398760Y-108392000D03*
X137398760Y-106492000D03*
X135399780Y-107442000D03*
X126730760Y-107630000D03*
X126730760Y-105730000D03*
X124731780Y-106680000D03*
X176799240Y-95570000D03*
X176799240Y-97470000D03*
X178798220Y-96520000D03*
X167909240Y-95570000D03*
X167909240Y-97470000D03*
X169908220Y-96520000D03*
X159019240Y-95570000D03*
X159019240Y-97470000D03*
X161018220Y-96520000D03*
X150129240Y-95570000D03*
X150129240Y-97470000D03*
X152128220Y-96520000D03*
X141239240Y-95570000D03*
X141239240Y-97470000D03*
X143238220Y-96520000D03*
X132349240Y-95570000D03*
X132349240Y-97470000D03*
X134348220Y-96520000D03*
X123459240Y-95570000D03*
X123459240Y-97470000D03*
X125458220Y-96520000D03*
D21*
X127000000Y-80350360D03*
X127000000Y-84749640D03*
D22*
X141410000Y-85350000D03*
X141410000Y-84550000D03*
X141410000Y-83750000D03*
X141410000Y-82950000D03*
X141410000Y-82150000D03*
X141410000Y-81350000D03*
X141410000Y-80550000D03*
X141410000Y-79750000D03*
D23*
X139960000Y-78300000D03*
X139160000Y-78300000D03*
X138360000Y-78300000D03*
X137560000Y-78300000D03*
X136760000Y-78300000D03*
X135960000Y-78300000D03*
X135160000Y-78300000D03*
X134360000Y-78300000D03*
D22*
X132910000Y-79750000D03*
X132910000Y-80550000D03*
X132910000Y-81350000D03*
X132910000Y-82150000D03*
X132910000Y-82950000D03*
X132910000Y-83750000D03*
X132910000Y-84550000D03*
X132910000Y-85350000D03*
D23*
X134360000Y-86800000D03*
X135160000Y-86800000D03*
X135960000Y-86800000D03*
X136760000Y-86800000D03*
X137560000Y-86800000D03*
X138360000Y-86800000D03*
X139160000Y-86800000D03*
X139960000Y-86800000D03*
D24*
X155740100Y-66027300D03*
D25*
X159390080Y-62151260D03*
D24*
X156540200Y-66027300D03*
X154940000Y-66027300D03*
X154139900Y-66027300D03*
X153339800Y-66027300D03*
D25*
X159390080Y-65580260D03*
X150489920Y-65580260D03*
X150495000Y-62103000D03*
D26*
X168945560Y-63350140D03*
X168290900Y-63350000D03*
X167640900Y-63350000D03*
X166990900Y-63350000D03*
X166340900Y-63350000D03*
M02*
