%TF.GenerationSoftware,KiCad,Pcbnew,5.1.9+dfsg1-1~bpo10+1*%
%TF.CreationDate,2021-04-05T15:55:01+02:00*%
%TF.ProjectId,usbavrfloppy,75736261-7672-4666-9c6f-7070792e6b69,rev?*%
%TF.SameCoordinates,Original*%
%TF.FileFunction,Other,User*%
%FSLAX46Y46*%
G04 Gerber Fmt 4.6, Leading zero omitted, Abs format (unit mm)*
G04 Created by KiCad (PCBNEW 5.1.9+dfsg1-1~bpo10+1) date 2021-04-05 15:55:01*
%MOMM*%
%LPD*%
G01*
G04 APERTURE LIST*
%ADD10C,0.300000*%
%ADD11C,0.150000*%
%ADD12C,0.250000*%
G04 APERTURE END LIST*
D10*
X196371428Y-81961428D02*
X196371428Y-81247142D01*
X195657142Y-81175714D01*
X195728571Y-81247142D01*
X195800000Y-81390000D01*
X195800000Y-81747142D01*
X195728571Y-81890000D01*
X195657142Y-81961428D01*
X195514285Y-82032857D01*
X195157142Y-82032857D01*
X195014285Y-81961428D01*
X194942857Y-81890000D01*
X194871428Y-81747142D01*
X194871428Y-81390000D01*
X194942857Y-81247142D01*
X195014285Y-81175714D01*
X194871428Y-83461428D02*
X194871428Y-82604285D01*
X194871428Y-83032857D02*
X196371428Y-83032857D01*
X196157142Y-82890000D01*
X196014285Y-82747142D01*
X195942857Y-82604285D01*
X195014285Y-84104285D02*
X194942857Y-84175714D01*
X194871428Y-84104285D01*
X194942857Y-84032857D01*
X195014285Y-84104285D01*
X194871428Y-84104285D01*
X196228571Y-84747142D02*
X196300000Y-84818571D01*
X196371428Y-84961428D01*
X196371428Y-85318571D01*
X196300000Y-85461428D01*
X196228571Y-85532857D01*
X196085714Y-85604285D01*
X195942857Y-85604285D01*
X195728571Y-85532857D01*
X194871428Y-84675714D01*
X194871428Y-85604285D01*
X195728571Y-86461428D02*
X195800000Y-86318571D01*
X195871428Y-86247142D01*
X196014285Y-86175714D01*
X196085714Y-86175714D01*
X196228571Y-86247142D01*
X196300000Y-86318571D01*
X196371428Y-86461428D01*
X196371428Y-86747142D01*
X196300000Y-86890000D01*
X196228571Y-86961428D01*
X196085714Y-87032857D01*
X196014285Y-87032857D01*
X195871428Y-86961428D01*
X195800000Y-86890000D01*
X195728571Y-86747142D01*
X195728571Y-86461428D01*
X195657142Y-86318571D01*
X195585714Y-86247142D01*
X195442857Y-86175714D01*
X195157142Y-86175714D01*
X195014285Y-86247142D01*
X194942857Y-86318571D01*
X194871428Y-86461428D01*
X194871428Y-86747142D01*
X194942857Y-86890000D01*
X195014285Y-86961428D01*
X195157142Y-87032857D01*
X195442857Y-87032857D01*
X195585714Y-86961428D01*
X195657142Y-86890000D01*
X195728571Y-86747142D01*
X196371428Y-87961428D02*
X196371428Y-88104285D01*
X196300000Y-88247142D01*
X196228571Y-88318571D01*
X196085714Y-88390000D01*
X195800000Y-88461428D01*
X195442857Y-88461428D01*
X195157142Y-88390000D01*
X195014285Y-88318571D01*
X194942857Y-88247142D01*
X194871428Y-88104285D01*
X194871428Y-87961428D01*
X194942857Y-87818571D01*
X195014285Y-87747142D01*
X195157142Y-87675714D01*
X195442857Y-87604285D01*
X195800000Y-87604285D01*
X196085714Y-87675714D01*
X196228571Y-87747142D01*
X196300000Y-87818571D01*
X196371428Y-87961428D01*
X194871428Y-90247142D02*
X195871428Y-90247142D01*
X195728571Y-90247142D02*
X195800000Y-90318571D01*
X195871428Y-90461428D01*
X195871428Y-90675714D01*
X195800000Y-90818571D01*
X195657142Y-90890000D01*
X194871428Y-90890000D01*
X195657142Y-90890000D02*
X195800000Y-90961428D01*
X195871428Y-91104285D01*
X195871428Y-91318571D01*
X195800000Y-91461428D01*
X195657142Y-91532857D01*
X194871428Y-91532857D01*
X194871428Y-92247142D02*
X195871428Y-92247142D01*
X195728571Y-92247142D02*
X195800000Y-92318571D01*
X195871428Y-92461428D01*
X195871428Y-92675714D01*
X195800000Y-92818571D01*
X195657142Y-92890000D01*
X194871428Y-92890000D01*
X195657142Y-92890000D02*
X195800000Y-92961428D01*
X195871428Y-93104285D01*
X195871428Y-93318571D01*
X195800000Y-93461428D01*
X195657142Y-93532857D01*
X194871428Y-93532857D01*
D11*
X196850000Y-61750000D02*
X196850000Y-113030000D01*
X196850000Y-61750000D02*
X196263579Y-61750000D01*
X196850000Y-113030000D02*
X196263579Y-113030000D01*
X196850000Y-113030000D02*
X196263579Y-111903496D01*
X196850000Y-113030000D02*
X197436421Y-111903496D01*
X196850000Y-61750000D02*
X196263579Y-62876504D01*
X196850000Y-61750000D02*
X197436421Y-62876504D01*
D12*
X148450460Y-52594937D02*
X148355221Y-52547318D01*
X148307602Y-52499699D01*
X148259983Y-52404461D01*
X148259983Y-52356842D01*
X148307602Y-52261604D01*
X148355221Y-52213985D01*
X148450460Y-52166365D01*
X148640936Y-52166365D01*
X148736174Y-52213985D01*
X148783793Y-52261604D01*
X148831412Y-52356842D01*
X148831412Y-52404461D01*
X148783793Y-52499699D01*
X148736174Y-52547318D01*
X148640936Y-52594937D01*
X148450460Y-52594937D01*
X148355221Y-52642556D01*
X148307602Y-52690175D01*
X148259983Y-52785413D01*
X148259983Y-52975889D01*
X148307602Y-53071127D01*
X148355221Y-53118746D01*
X148450460Y-53166365D01*
X148640936Y-53166365D01*
X148736174Y-53118746D01*
X148783793Y-53071127D01*
X148831412Y-52975889D01*
X148831412Y-52785413D01*
X148783793Y-52690175D01*
X148736174Y-52642556D01*
X148640936Y-52594937D01*
X149402841Y-52594937D02*
X149307602Y-52547318D01*
X149259983Y-52499699D01*
X149212364Y-52404461D01*
X149212364Y-52356842D01*
X149259983Y-52261604D01*
X149307602Y-52213985D01*
X149402841Y-52166365D01*
X149593317Y-52166365D01*
X149688555Y-52213985D01*
X149736174Y-52261604D01*
X149783793Y-52356842D01*
X149783793Y-52404461D01*
X149736174Y-52499699D01*
X149688555Y-52547318D01*
X149593317Y-52594937D01*
X149402841Y-52594937D01*
X149307602Y-52642556D01*
X149259983Y-52690175D01*
X149212364Y-52785413D01*
X149212364Y-52975889D01*
X149259983Y-53071127D01*
X149307602Y-53118746D01*
X149402841Y-53166365D01*
X149593317Y-53166365D01*
X149688555Y-53118746D01*
X149736174Y-53071127D01*
X149783793Y-52975889D01*
X149783793Y-52785413D01*
X149736174Y-52690175D01*
X149688555Y-52642556D01*
X149593317Y-52594937D01*
X150212364Y-53071127D02*
X150259983Y-53118746D01*
X150212364Y-53166365D01*
X150164745Y-53118746D01*
X150212364Y-53071127D01*
X150212364Y-53166365D01*
X150736174Y-53166365D02*
X150926650Y-53166365D01*
X151021888Y-53118746D01*
X151069507Y-53071127D01*
X151164745Y-52928270D01*
X151212364Y-52737794D01*
X151212364Y-52356842D01*
X151164745Y-52261604D01*
X151117126Y-52213985D01*
X151021888Y-52166365D01*
X150831412Y-52166365D01*
X150736174Y-52213985D01*
X150688555Y-52261604D01*
X150640936Y-52356842D01*
X150640936Y-52594937D01*
X150688555Y-52690175D01*
X150736174Y-52737794D01*
X150831412Y-52785413D01*
X151021888Y-52785413D01*
X151117126Y-52737794D01*
X151164745Y-52690175D01*
X151212364Y-52594937D01*
X151831412Y-52166365D02*
X151926650Y-52166365D01*
X152021888Y-52213985D01*
X152069507Y-52261604D01*
X152117126Y-52356842D01*
X152164745Y-52547318D01*
X152164745Y-52785413D01*
X152117126Y-52975889D01*
X152069507Y-53071127D01*
X152021888Y-53118746D01*
X151926650Y-53166365D01*
X151831412Y-53166365D01*
X151736174Y-53118746D01*
X151688555Y-53071127D01*
X151640936Y-52975889D01*
X151593317Y-52785413D01*
X151593317Y-52547318D01*
X151640936Y-52356842D01*
X151688555Y-52261604D01*
X151736174Y-52213985D01*
X151831412Y-52166365D01*
X152783793Y-52166365D02*
X152879031Y-52166365D01*
X152974269Y-52213985D01*
X153021888Y-52261604D01*
X153069507Y-52356842D01*
X153117126Y-52547318D01*
X153117126Y-52785413D01*
X153069507Y-52975889D01*
X153021888Y-53071127D01*
X152974269Y-53118746D01*
X152879031Y-53166365D01*
X152783793Y-53166365D01*
X152688555Y-53118746D01*
X152640936Y-53071127D01*
X152593317Y-52975889D01*
X152545698Y-52785413D01*
X152545698Y-52547318D01*
X152593317Y-52356842D01*
X152640936Y-52261604D01*
X152688555Y-52213985D01*
X152783793Y-52166365D01*
X154307602Y-53166365D02*
X154307602Y-52499699D01*
X154307602Y-52594937D02*
X154355221Y-52547318D01*
X154450460Y-52499699D01*
X154593317Y-52499699D01*
X154688555Y-52547318D01*
X154736174Y-52642556D01*
X154736174Y-53166365D01*
X154736174Y-52642556D02*
X154783793Y-52547318D01*
X154879031Y-52499699D01*
X155021888Y-52499699D01*
X155117126Y-52547318D01*
X155164745Y-52642556D01*
X155164745Y-53166365D01*
X155640936Y-53166365D02*
X155640936Y-52499699D01*
X155640936Y-52594937D02*
X155688555Y-52547318D01*
X155783793Y-52499699D01*
X155926650Y-52499699D01*
X156021888Y-52547318D01*
X156069507Y-52642556D01*
X156069507Y-53166365D01*
X156069507Y-52642556D02*
X156117126Y-52547318D01*
X156212364Y-52499699D01*
X156355221Y-52499699D01*
X156450460Y-52547318D01*
X156498079Y-52642556D01*
X156498079Y-53166365D01*
D11*
X196852432Y-54027985D02*
X107952432Y-53999985D01*
X196850000Y-61750000D02*
X196852617Y-53441565D01*
X107950000Y-61722000D02*
X107952617Y-53413565D01*
X107952432Y-53999985D02*
X109079120Y-53413919D01*
X107952432Y-53999985D02*
X109078751Y-54586761D01*
X196852432Y-54027985D02*
X195726113Y-53441209D01*
X196852432Y-54027985D02*
X195725744Y-54614051D01*
D10*
X91419428Y-81947428D02*
X91419428Y-81233142D01*
X90705142Y-81161714D01*
X90776571Y-81233142D01*
X90848000Y-81376000D01*
X90848000Y-81733142D01*
X90776571Y-81876000D01*
X90705142Y-81947428D01*
X90562285Y-82018857D01*
X90205142Y-82018857D01*
X90062285Y-81947428D01*
X89990857Y-81876000D01*
X89919428Y-81733142D01*
X89919428Y-81376000D01*
X89990857Y-81233142D01*
X90062285Y-81161714D01*
X89919428Y-83447428D02*
X89919428Y-82590285D01*
X89919428Y-83018857D02*
X91419428Y-83018857D01*
X91205142Y-82876000D01*
X91062285Y-82733142D01*
X90990857Y-82590285D01*
X89990857Y-84161714D02*
X89919428Y-84161714D01*
X89776571Y-84090285D01*
X89705142Y-84018857D01*
X91419428Y-84661714D02*
X91419428Y-85590285D01*
X90848000Y-85090285D01*
X90848000Y-85304571D01*
X90776571Y-85447428D01*
X90705142Y-85518857D01*
X90562285Y-85590285D01*
X90205142Y-85590285D01*
X90062285Y-85518857D01*
X89990857Y-85447428D01*
X89919428Y-85304571D01*
X89919428Y-84876000D01*
X89990857Y-84733142D01*
X90062285Y-84661714D01*
X91419428Y-86518857D02*
X91419428Y-86661714D01*
X91348000Y-86804571D01*
X91276571Y-86876000D01*
X91133714Y-86947428D01*
X90848000Y-87018857D01*
X90490857Y-87018857D01*
X90205142Y-86947428D01*
X90062285Y-86876000D01*
X89990857Y-86804571D01*
X89919428Y-86661714D01*
X89919428Y-86518857D01*
X89990857Y-86376000D01*
X90062285Y-86304571D01*
X90205142Y-86233142D01*
X90490857Y-86161714D01*
X90848000Y-86161714D01*
X91133714Y-86233142D01*
X91276571Y-86304571D01*
X91348000Y-86376000D01*
X91419428Y-86518857D01*
X90776571Y-87876000D02*
X90848000Y-87733142D01*
X90919428Y-87661714D01*
X91062285Y-87590285D01*
X91133714Y-87590285D01*
X91276571Y-87661714D01*
X91348000Y-87733142D01*
X91419428Y-87876000D01*
X91419428Y-88161714D01*
X91348000Y-88304571D01*
X91276571Y-88376000D01*
X91133714Y-88447428D01*
X91062285Y-88447428D01*
X90919428Y-88376000D01*
X90848000Y-88304571D01*
X90776571Y-88161714D01*
X90776571Y-87876000D01*
X90705142Y-87733142D01*
X90633714Y-87661714D01*
X90490857Y-87590285D01*
X90205142Y-87590285D01*
X90062285Y-87661714D01*
X89990857Y-87733142D01*
X89919428Y-87876000D01*
X89919428Y-88161714D01*
X89990857Y-88304571D01*
X90062285Y-88376000D01*
X90205142Y-88447428D01*
X90490857Y-88447428D01*
X90633714Y-88376000D01*
X90705142Y-88304571D01*
X90776571Y-88161714D01*
X89919428Y-90233142D02*
X90919428Y-90233142D01*
X90776571Y-90233142D02*
X90848000Y-90304571D01*
X90919428Y-90447428D01*
X90919428Y-90661714D01*
X90848000Y-90804571D01*
X90705142Y-90876000D01*
X89919428Y-90876000D01*
X90705142Y-90876000D02*
X90848000Y-90947428D01*
X90919428Y-91090285D01*
X90919428Y-91304571D01*
X90848000Y-91447428D01*
X90705142Y-91518857D01*
X89919428Y-91518857D01*
X89919428Y-92233142D02*
X90919428Y-92233142D01*
X90776571Y-92233142D02*
X90848000Y-92304571D01*
X90919428Y-92447428D01*
X90919428Y-92661714D01*
X90848000Y-92804571D01*
X90705142Y-92876000D01*
X89919428Y-92876000D01*
X90705142Y-92876000D02*
X90848000Y-92947428D01*
X90919428Y-93090285D01*
X90919428Y-93304571D01*
X90848000Y-93447428D01*
X90705142Y-93518857D01*
X89919428Y-93518857D01*
X91948000Y-61722000D02*
X91948000Y-113030000D01*
X107950000Y-61722000D02*
X89248000Y-61722000D01*
X107950000Y-113030000D02*
X89248000Y-113030000D01*
X91948000Y-113030000D02*
X91361579Y-111903496D01*
X91948000Y-113030000D02*
X92534421Y-111903496D01*
X91948000Y-61722000D02*
X91361579Y-62848504D01*
X91948000Y-61722000D02*
X92534421Y-62848504D01*
X146900000Y-141498571D02*
X146614285Y-141498571D01*
X146471428Y-141570000D01*
X146400000Y-141641428D01*
X146257142Y-141855714D01*
X146185714Y-142141428D01*
X146185714Y-142712857D01*
X146257142Y-142855714D01*
X146328571Y-142927142D01*
X146471428Y-142998571D01*
X146757142Y-142998571D01*
X146900000Y-142927142D01*
X146971428Y-142855714D01*
X147042857Y-142712857D01*
X147042857Y-142355714D01*
X146971428Y-142212857D01*
X146900000Y-142141428D01*
X146757142Y-142070000D01*
X146471428Y-142070000D01*
X146328571Y-142141428D01*
X146257142Y-142212857D01*
X146185714Y-142355714D01*
X148328571Y-141498571D02*
X148042857Y-141498571D01*
X147900000Y-141570000D01*
X147828571Y-141641428D01*
X147685714Y-141855714D01*
X147614285Y-142141428D01*
X147614285Y-142712857D01*
X147685714Y-142855714D01*
X147757142Y-142927142D01*
X147900000Y-142998571D01*
X148185714Y-142998571D01*
X148328571Y-142927142D01*
X148400000Y-142855714D01*
X148471428Y-142712857D01*
X148471428Y-142355714D01*
X148400000Y-142212857D01*
X148328571Y-142141428D01*
X148185714Y-142070000D01*
X147900000Y-142070000D01*
X147757142Y-142141428D01*
X147685714Y-142212857D01*
X147614285Y-142355714D01*
X149185714Y-142927142D02*
X149185714Y-142998571D01*
X149114285Y-143141428D01*
X149042857Y-143212857D01*
X150114285Y-141498571D02*
X150257142Y-141498571D01*
X150400000Y-141570000D01*
X150471428Y-141641428D01*
X150542857Y-141784285D01*
X150614285Y-142070000D01*
X150614285Y-142427142D01*
X150542857Y-142712857D01*
X150471428Y-142855714D01*
X150400000Y-142927142D01*
X150257142Y-142998571D01*
X150114285Y-142998571D01*
X149971428Y-142927142D01*
X149900000Y-142855714D01*
X149828571Y-142712857D01*
X149757142Y-142427142D01*
X149757142Y-142070000D01*
X149828571Y-141784285D01*
X149900000Y-141641428D01*
X149971428Y-141570000D01*
X150114285Y-141498571D01*
X151900000Y-141998571D02*
X151900000Y-142998571D01*
X151542857Y-141427142D02*
X151185714Y-142498571D01*
X152114285Y-142498571D01*
X152971428Y-141498571D02*
X153114285Y-141498571D01*
X153257142Y-141570000D01*
X153328571Y-141641428D01*
X153400000Y-141784285D01*
X153471428Y-142070000D01*
X153471428Y-142427142D01*
X153400000Y-142712857D01*
X153328571Y-142855714D01*
X153257142Y-142927142D01*
X153114285Y-142998571D01*
X152971428Y-142998571D01*
X152828571Y-142927142D01*
X152757142Y-142855714D01*
X152685714Y-142712857D01*
X152614285Y-142427142D01*
X152614285Y-142070000D01*
X152685714Y-141784285D01*
X152757142Y-141641428D01*
X152828571Y-141570000D01*
X152971428Y-141498571D01*
X155257142Y-142998571D02*
X155257142Y-141998571D01*
X155257142Y-142141428D02*
X155328571Y-142070000D01*
X155471428Y-141998571D01*
X155685714Y-141998571D01*
X155828571Y-142070000D01*
X155900000Y-142212857D01*
X155900000Y-142998571D01*
X155900000Y-142212857D02*
X155971428Y-142070000D01*
X156114285Y-141998571D01*
X156328571Y-141998571D01*
X156471428Y-142070000D01*
X156542857Y-142212857D01*
X156542857Y-142998571D01*
X157257142Y-142998571D02*
X157257142Y-141998571D01*
X157257142Y-142141428D02*
X157328571Y-142070000D01*
X157471428Y-141998571D01*
X157685714Y-141998571D01*
X157828571Y-142070000D01*
X157900000Y-142212857D01*
X157900000Y-142998571D01*
X157900000Y-142212857D02*
X157971428Y-142070000D01*
X158114285Y-141998571D01*
X158328571Y-141998571D01*
X158471428Y-142070000D01*
X158542857Y-142212857D01*
X158542857Y-142998571D01*
X185420000Y-140970000D02*
X119380000Y-140970000D01*
X185420000Y-128905000D02*
X185420000Y-143670000D01*
X119380000Y-128905000D02*
X119380000Y-143670000D01*
X119380000Y-140970000D02*
X120506504Y-140383579D01*
X119380000Y-140970000D02*
X120506504Y-141556421D01*
X185420000Y-140970000D02*
X184293496Y-140383579D01*
X185420000Y-140970000D02*
X184293496Y-141556421D01*
X187682857Y-135378571D02*
X186825714Y-135378571D01*
X187254285Y-135378571D02*
X187254285Y-133878571D01*
X187111428Y-134092857D01*
X186968571Y-134235714D01*
X186825714Y-134307142D01*
X189040000Y-133878571D02*
X188325714Y-133878571D01*
X188254285Y-134592857D01*
X188325714Y-134521428D01*
X188468571Y-134450000D01*
X188825714Y-134450000D01*
X188968571Y-134521428D01*
X189040000Y-134592857D01*
X189111428Y-134735714D01*
X189111428Y-135092857D01*
X189040000Y-135235714D01*
X188968571Y-135307142D01*
X188825714Y-135378571D01*
X188468571Y-135378571D01*
X188325714Y-135307142D01*
X188254285Y-135235714D01*
X189825714Y-135307142D02*
X189825714Y-135378571D01*
X189754285Y-135521428D01*
X189682857Y-135592857D01*
X190397142Y-134021428D02*
X190468571Y-133950000D01*
X190611428Y-133878571D01*
X190968571Y-133878571D01*
X191111428Y-133950000D01*
X191182857Y-134021428D01*
X191254285Y-134164285D01*
X191254285Y-134307142D01*
X191182857Y-134521428D01*
X190325714Y-135378571D01*
X191254285Y-135378571D01*
X192540000Y-134378571D02*
X192540000Y-135378571D01*
X192182857Y-133807142D02*
X191825714Y-134878571D01*
X192754285Y-134878571D01*
X193611428Y-133878571D02*
X193754285Y-133878571D01*
X193897142Y-133950000D01*
X193968571Y-134021428D01*
X194040000Y-134164285D01*
X194111428Y-134450000D01*
X194111428Y-134807142D01*
X194040000Y-135092857D01*
X193968571Y-135235714D01*
X193897142Y-135307142D01*
X193754285Y-135378571D01*
X193611428Y-135378571D01*
X193468571Y-135307142D01*
X193397142Y-135235714D01*
X193325714Y-135092857D01*
X193254285Y-134807142D01*
X193254285Y-134450000D01*
X193325714Y-134164285D01*
X193397142Y-134021428D01*
X193468571Y-133950000D01*
X193611428Y-133878571D01*
X195897142Y-135378571D02*
X195897142Y-134378571D01*
X195897142Y-134521428D02*
X195968571Y-134450000D01*
X196111428Y-134378571D01*
X196325714Y-134378571D01*
X196468571Y-134450000D01*
X196540000Y-134592857D01*
X196540000Y-135378571D01*
X196540000Y-134592857D02*
X196611428Y-134450000D01*
X196754285Y-134378571D01*
X196968571Y-134378571D01*
X197111428Y-134450000D01*
X197182857Y-134592857D01*
X197182857Y-135378571D01*
X197897142Y-135378571D02*
X197897142Y-134378571D01*
X197897142Y-134521428D02*
X197968571Y-134450000D01*
X198111428Y-134378571D01*
X198325714Y-134378571D01*
X198468571Y-134450000D01*
X198540000Y-134592857D01*
X198540000Y-135378571D01*
X198540000Y-134592857D02*
X198611428Y-134450000D01*
X198754285Y-134378571D01*
X198968571Y-134378571D01*
X199111428Y-134450000D01*
X199182857Y-134592857D01*
X199182857Y-135378571D01*
X200660000Y-133350000D02*
X185420000Y-133350000D01*
X200660000Y-93980000D02*
X200660000Y-136050000D01*
X185420000Y-93980000D02*
X185420000Y-136050000D01*
X185420000Y-133350000D02*
X186546504Y-132763579D01*
X185420000Y-133350000D02*
X186546504Y-133936421D01*
X200660000Y-133350000D02*
X199533496Y-132763579D01*
X200660000Y-133350000D02*
X199533496Y-133936421D01*
X106402857Y-135378571D02*
X105545714Y-135378571D01*
X105974285Y-135378571D02*
X105974285Y-133878571D01*
X105831428Y-134092857D01*
X105688571Y-134235714D01*
X105545714Y-134307142D01*
X107760000Y-133878571D02*
X107045714Y-133878571D01*
X106974285Y-134592857D01*
X107045714Y-134521428D01*
X107188571Y-134450000D01*
X107545714Y-134450000D01*
X107688571Y-134521428D01*
X107760000Y-134592857D01*
X107831428Y-134735714D01*
X107831428Y-135092857D01*
X107760000Y-135235714D01*
X107688571Y-135307142D01*
X107545714Y-135378571D01*
X107188571Y-135378571D01*
X107045714Y-135307142D01*
X106974285Y-135235714D01*
X108545714Y-135307142D02*
X108545714Y-135378571D01*
X108474285Y-135521428D01*
X108402857Y-135592857D01*
X109117142Y-134021428D02*
X109188571Y-133950000D01*
X109331428Y-133878571D01*
X109688571Y-133878571D01*
X109831428Y-133950000D01*
X109902857Y-134021428D01*
X109974285Y-134164285D01*
X109974285Y-134307142D01*
X109902857Y-134521428D01*
X109045714Y-135378571D01*
X109974285Y-135378571D01*
X111260000Y-134378571D02*
X111260000Y-135378571D01*
X110902857Y-133807142D02*
X110545714Y-134878571D01*
X111474285Y-134878571D01*
X112331428Y-133878571D02*
X112474285Y-133878571D01*
X112617142Y-133950000D01*
X112688571Y-134021428D01*
X112760000Y-134164285D01*
X112831428Y-134450000D01*
X112831428Y-134807142D01*
X112760000Y-135092857D01*
X112688571Y-135235714D01*
X112617142Y-135307142D01*
X112474285Y-135378571D01*
X112331428Y-135378571D01*
X112188571Y-135307142D01*
X112117142Y-135235714D01*
X112045714Y-135092857D01*
X111974285Y-134807142D01*
X111974285Y-134450000D01*
X112045714Y-134164285D01*
X112117142Y-134021428D01*
X112188571Y-133950000D01*
X112331428Y-133878571D01*
X114617142Y-135378571D02*
X114617142Y-134378571D01*
X114617142Y-134521428D02*
X114688571Y-134450000D01*
X114831428Y-134378571D01*
X115045714Y-134378571D01*
X115188571Y-134450000D01*
X115260000Y-134592857D01*
X115260000Y-135378571D01*
X115260000Y-134592857D02*
X115331428Y-134450000D01*
X115474285Y-134378571D01*
X115688571Y-134378571D01*
X115831428Y-134450000D01*
X115902857Y-134592857D01*
X115902857Y-135378571D01*
X116617142Y-135378571D02*
X116617142Y-134378571D01*
X116617142Y-134521428D02*
X116688571Y-134450000D01*
X116831428Y-134378571D01*
X117045714Y-134378571D01*
X117188571Y-134450000D01*
X117260000Y-134592857D01*
X117260000Y-135378571D01*
X117260000Y-134592857D02*
X117331428Y-134450000D01*
X117474285Y-134378571D01*
X117688571Y-134378571D01*
X117831428Y-134450000D01*
X117902857Y-134592857D01*
X117902857Y-135378571D01*
X119380000Y-133350000D02*
X104140000Y-133350000D01*
X119380000Y-93980000D02*
X119380000Y-136050000D01*
X104140000Y-93980000D02*
X104140000Y-136050000D01*
X104140000Y-133350000D02*
X105266504Y-132763579D01*
X104140000Y-133350000D02*
X105266504Y-133936421D01*
X119380000Y-133350000D02*
X118253496Y-132763579D01*
X119380000Y-133350000D02*
X118253496Y-133936421D01*
X213626428Y-87376785D02*
X213626428Y-88376785D01*
X212126428Y-87733928D01*
X213626428Y-89233928D02*
X213626428Y-89376785D01*
X213555000Y-89519642D01*
X213483571Y-89591071D01*
X213340714Y-89662500D01*
X213055000Y-89733928D01*
X212697857Y-89733928D01*
X212412142Y-89662500D01*
X212269285Y-89591071D01*
X212197857Y-89519642D01*
X212126428Y-89376785D01*
X212126428Y-89233928D01*
X212197857Y-89091071D01*
X212269285Y-89019642D01*
X212412142Y-88948214D01*
X212697857Y-88876785D01*
X213055000Y-88876785D01*
X213340714Y-88948214D01*
X213483571Y-89019642D01*
X213555000Y-89091071D01*
X213626428Y-89233928D01*
X212197857Y-90448214D02*
X212126428Y-90448214D01*
X211983571Y-90376785D01*
X211912142Y-90305357D01*
X213126428Y-91733928D02*
X212126428Y-91733928D01*
X213697857Y-91376785D02*
X212626428Y-91019642D01*
X212626428Y-91948214D01*
X212983571Y-92733928D02*
X213055000Y-92591071D01*
X213126428Y-92519642D01*
X213269285Y-92448214D01*
X213340714Y-92448214D01*
X213483571Y-92519642D01*
X213555000Y-92591071D01*
X213626428Y-92733928D01*
X213626428Y-93019642D01*
X213555000Y-93162500D01*
X213483571Y-93233928D01*
X213340714Y-93305357D01*
X213269285Y-93305357D01*
X213126428Y-93233928D01*
X213055000Y-93162500D01*
X212983571Y-93019642D01*
X212983571Y-92733928D01*
X212912142Y-92591071D01*
X212840714Y-92519642D01*
X212697857Y-92448214D01*
X212412142Y-92448214D01*
X212269285Y-92519642D01*
X212197857Y-92591071D01*
X212126428Y-92733928D01*
X212126428Y-93019642D01*
X212197857Y-93162500D01*
X212269285Y-93233928D01*
X212412142Y-93305357D01*
X212697857Y-93305357D01*
X212840714Y-93233928D01*
X212912142Y-93162500D01*
X212983571Y-93019642D01*
X213626428Y-94662500D02*
X213626428Y-93948214D01*
X212912142Y-93876785D01*
X212983571Y-93948214D01*
X213055000Y-94091071D01*
X213055000Y-94448214D01*
X212983571Y-94591071D01*
X212912142Y-94662500D01*
X212769285Y-94733928D01*
X212412142Y-94733928D01*
X212269285Y-94662500D01*
X212197857Y-94591071D01*
X212126428Y-94448214D01*
X212126428Y-94091071D01*
X212197857Y-93948214D01*
X212269285Y-93876785D01*
X212126428Y-96519642D02*
X213126428Y-96519642D01*
X212983571Y-96519642D02*
X213055000Y-96591071D01*
X213126428Y-96733928D01*
X213126428Y-96948214D01*
X213055000Y-97091071D01*
X212912142Y-97162500D01*
X212126428Y-97162500D01*
X212912142Y-97162500D02*
X213055000Y-97233928D01*
X213126428Y-97376785D01*
X213126428Y-97591071D01*
X213055000Y-97733928D01*
X212912142Y-97805357D01*
X212126428Y-97805357D01*
X212126428Y-98519642D02*
X213126428Y-98519642D01*
X212983571Y-98519642D02*
X213055000Y-98591071D01*
X213126428Y-98733928D01*
X213126428Y-98948214D01*
X213055000Y-99091071D01*
X212912142Y-99162500D01*
X212126428Y-99162500D01*
X212912142Y-99162500D02*
X213055000Y-99233928D01*
X213126428Y-99376785D01*
X213126428Y-99591071D01*
X213055000Y-99733928D01*
X212912142Y-99805357D01*
X212126428Y-99805357D01*
X211455000Y-58420000D02*
X211455000Y-128905000D01*
X200660000Y-58420000D02*
X214155000Y-58420000D01*
X200660000Y-128905000D02*
X214155000Y-128905000D01*
X211455000Y-128905000D02*
X210868579Y-127778496D01*
X211455000Y-128905000D02*
X212041421Y-127778496D01*
X211455000Y-58420000D02*
X210868579Y-59546504D01*
X211455000Y-58420000D02*
X212041421Y-59546504D01*
X147606428Y-130068571D02*
X146892142Y-130068571D01*
X146820714Y-130782857D01*
X146892142Y-130711428D01*
X147035000Y-130640000D01*
X147392142Y-130640000D01*
X147535000Y-130711428D01*
X147606428Y-130782857D01*
X147677857Y-130925714D01*
X147677857Y-131282857D01*
X147606428Y-131425714D01*
X147535000Y-131497142D01*
X147392142Y-131568571D01*
X147035000Y-131568571D01*
X146892142Y-131497142D01*
X146820714Y-131425714D01*
X148177857Y-130068571D02*
X149177857Y-130068571D01*
X148535000Y-131568571D01*
X149820714Y-131497142D02*
X149820714Y-131568571D01*
X149749285Y-131711428D01*
X149677857Y-131782857D01*
X151249285Y-131568571D02*
X150392142Y-131568571D01*
X150820714Y-131568571D02*
X150820714Y-130068571D01*
X150677857Y-130282857D01*
X150535000Y-130425714D01*
X150392142Y-130497142D01*
X152606428Y-130068571D02*
X151892142Y-130068571D01*
X151820714Y-130782857D01*
X151892142Y-130711428D01*
X152035000Y-130640000D01*
X152392142Y-130640000D01*
X152535000Y-130711428D01*
X152606428Y-130782857D01*
X152677857Y-130925714D01*
X152677857Y-131282857D01*
X152606428Y-131425714D01*
X152535000Y-131497142D01*
X152392142Y-131568571D01*
X152035000Y-131568571D01*
X151892142Y-131497142D01*
X151820714Y-131425714D01*
X153606428Y-130068571D02*
X153749285Y-130068571D01*
X153892142Y-130140000D01*
X153963571Y-130211428D01*
X154035000Y-130354285D01*
X154106428Y-130640000D01*
X154106428Y-130997142D01*
X154035000Y-131282857D01*
X153963571Y-131425714D01*
X153892142Y-131497142D01*
X153749285Y-131568571D01*
X153606428Y-131568571D01*
X153463571Y-131497142D01*
X153392142Y-131425714D01*
X153320714Y-131282857D01*
X153249285Y-130997142D01*
X153249285Y-130640000D01*
X153320714Y-130354285D01*
X153392142Y-130211428D01*
X153463571Y-130140000D01*
X153606428Y-130068571D01*
X155892142Y-131568571D02*
X155892142Y-130568571D01*
X155892142Y-130711428D02*
X155963571Y-130640000D01*
X156106428Y-130568571D01*
X156320714Y-130568571D01*
X156463571Y-130640000D01*
X156535000Y-130782857D01*
X156535000Y-131568571D01*
X156535000Y-130782857D02*
X156606428Y-130640000D01*
X156749285Y-130568571D01*
X156963571Y-130568571D01*
X157106428Y-130640000D01*
X157177857Y-130782857D01*
X157177857Y-131568571D01*
X157892142Y-131568571D02*
X157892142Y-130568571D01*
X157892142Y-130711428D02*
X157963571Y-130640000D01*
X158106428Y-130568571D01*
X158320714Y-130568571D01*
X158463571Y-130640000D01*
X158535000Y-130782857D01*
X158535000Y-131568571D01*
X158535000Y-130782857D02*
X158606428Y-130640000D01*
X158749285Y-130568571D01*
X158963571Y-130568571D01*
X159106428Y-130640000D01*
X159177857Y-130782857D01*
X159177857Y-131568571D01*
X124460000Y-129540000D02*
X181610000Y-129540000D01*
X124460000Y-113030000D02*
X124460000Y-132240000D01*
X181610000Y-113030000D02*
X181610000Y-132240000D01*
X181610000Y-129540000D02*
X180483496Y-130126421D01*
X181610000Y-129540000D02*
X180483496Y-128953579D01*
X124460000Y-129540000D02*
X125586504Y-130126421D01*
X124460000Y-129540000D02*
X125586504Y-128953579D01*
X96864571Y-62365714D02*
X96936000Y-62437142D01*
X97007428Y-62580000D01*
X97007428Y-62937142D01*
X96936000Y-63080000D01*
X96864571Y-63151428D01*
X96721714Y-63222857D01*
X96578857Y-63222857D01*
X96364571Y-63151428D01*
X95507428Y-62294285D01*
X95507428Y-63222857D01*
X97007428Y-64151428D02*
X97007428Y-64294285D01*
X96936000Y-64437142D01*
X96864571Y-64508571D01*
X96721714Y-64580000D01*
X96436000Y-64651428D01*
X96078857Y-64651428D01*
X95793142Y-64580000D01*
X95650285Y-64508571D01*
X95578857Y-64437142D01*
X95507428Y-64294285D01*
X95507428Y-64151428D01*
X95578857Y-64008571D01*
X95650285Y-63937142D01*
X95793142Y-63865714D01*
X96078857Y-63794285D01*
X96436000Y-63794285D01*
X96721714Y-63865714D01*
X96864571Y-63937142D01*
X96936000Y-64008571D01*
X97007428Y-64151428D01*
X95578857Y-65365714D02*
X95507428Y-65365714D01*
X95364571Y-65294285D01*
X95293142Y-65222857D01*
X97007428Y-65865714D02*
X97007428Y-66794285D01*
X96436000Y-66294285D01*
X96436000Y-66508571D01*
X96364571Y-66651428D01*
X96293142Y-66722857D01*
X96150285Y-66794285D01*
X95793142Y-66794285D01*
X95650285Y-66722857D01*
X95578857Y-66651428D01*
X95507428Y-66508571D01*
X95507428Y-66080000D01*
X95578857Y-65937142D01*
X95650285Y-65865714D01*
X96864571Y-67365714D02*
X96936000Y-67437142D01*
X97007428Y-67580000D01*
X97007428Y-67937142D01*
X96936000Y-68080000D01*
X96864571Y-68151428D01*
X96721714Y-68222857D01*
X96578857Y-68222857D01*
X96364571Y-68151428D01*
X95507428Y-67294285D01*
X95507428Y-68222857D01*
X97007428Y-69151428D02*
X97007428Y-69294285D01*
X96936000Y-69437142D01*
X96864571Y-69508571D01*
X96721714Y-69580000D01*
X96436000Y-69651428D01*
X96078857Y-69651428D01*
X95793142Y-69580000D01*
X95650285Y-69508571D01*
X95578857Y-69437142D01*
X95507428Y-69294285D01*
X95507428Y-69151428D01*
X95578857Y-69008571D01*
X95650285Y-68937142D01*
X95793142Y-68865714D01*
X96078857Y-68794285D01*
X96436000Y-68794285D01*
X96721714Y-68865714D01*
X96864571Y-68937142D01*
X96936000Y-69008571D01*
X97007428Y-69151428D01*
X95507428Y-71437142D02*
X96507428Y-71437142D01*
X96364571Y-71437142D02*
X96436000Y-71508571D01*
X96507428Y-71651428D01*
X96507428Y-71865714D01*
X96436000Y-72008571D01*
X96293142Y-72080000D01*
X95507428Y-72080000D01*
X96293142Y-72080000D02*
X96436000Y-72151428D01*
X96507428Y-72294285D01*
X96507428Y-72508571D01*
X96436000Y-72651428D01*
X96293142Y-72722857D01*
X95507428Y-72722857D01*
X95507428Y-73437142D02*
X96507428Y-73437142D01*
X96364571Y-73437142D02*
X96436000Y-73508571D01*
X96507428Y-73651428D01*
X96507428Y-73865714D01*
X96436000Y-74008571D01*
X96293142Y-74080000D01*
X95507428Y-74080000D01*
X96293142Y-74080000D02*
X96436000Y-74151428D01*
X96507428Y-74294285D01*
X96507428Y-74508571D01*
X96436000Y-74651428D01*
X96293142Y-74722857D01*
X95507428Y-74722857D01*
X97536000Y-58420000D02*
X97536000Y-78740000D01*
X103124000Y-58420000D02*
X94836000Y-58420000D01*
X103124000Y-78740000D02*
X94836000Y-78740000D01*
X97536000Y-78740000D02*
X96949579Y-77613496D01*
X97536000Y-78740000D02*
X98122421Y-77613496D01*
X97536000Y-58420000D02*
X96949579Y-59546504D01*
X97536000Y-58420000D02*
X98122421Y-59546504D01*
X146328571Y-50128571D02*
X146614285Y-50128571D01*
X146757142Y-50057142D01*
X146828571Y-49985714D01*
X146971428Y-49771428D01*
X147042857Y-49485714D01*
X147042857Y-48914285D01*
X146971428Y-48771428D01*
X146900000Y-48700000D01*
X146757142Y-48628571D01*
X146471428Y-48628571D01*
X146328571Y-48700000D01*
X146257142Y-48771428D01*
X146185714Y-48914285D01*
X146185714Y-49271428D01*
X146257142Y-49414285D01*
X146328571Y-49485714D01*
X146471428Y-49557142D01*
X146757142Y-49557142D01*
X146900000Y-49485714D01*
X146971428Y-49414285D01*
X147042857Y-49271428D01*
X148328571Y-48628571D02*
X148042857Y-48628571D01*
X147900000Y-48700000D01*
X147828571Y-48771428D01*
X147685714Y-48985714D01*
X147614285Y-49271428D01*
X147614285Y-49842857D01*
X147685714Y-49985714D01*
X147757142Y-50057142D01*
X147900000Y-50128571D01*
X148185714Y-50128571D01*
X148328571Y-50057142D01*
X148400000Y-49985714D01*
X148471428Y-49842857D01*
X148471428Y-49485714D01*
X148400000Y-49342857D01*
X148328571Y-49271428D01*
X148185714Y-49200000D01*
X147900000Y-49200000D01*
X147757142Y-49271428D01*
X147685714Y-49342857D01*
X147614285Y-49485714D01*
X149185714Y-50057142D02*
X149185714Y-50128571D01*
X149114285Y-50271428D01*
X149042857Y-50342857D01*
X150542857Y-48628571D02*
X149828571Y-48628571D01*
X149757142Y-49342857D01*
X149828571Y-49271428D01*
X149971428Y-49200000D01*
X150328571Y-49200000D01*
X150471428Y-49271428D01*
X150542857Y-49342857D01*
X150614285Y-49485714D01*
X150614285Y-49842857D01*
X150542857Y-49985714D01*
X150471428Y-50057142D01*
X150328571Y-50128571D01*
X149971428Y-50128571D01*
X149828571Y-50057142D01*
X149757142Y-49985714D01*
X151185714Y-48771428D02*
X151257142Y-48700000D01*
X151400000Y-48628571D01*
X151757142Y-48628571D01*
X151900000Y-48700000D01*
X151971428Y-48771428D01*
X152042857Y-48914285D01*
X152042857Y-49057142D01*
X151971428Y-49271428D01*
X151114285Y-50128571D01*
X152042857Y-50128571D01*
X152971428Y-48628571D02*
X153114285Y-48628571D01*
X153257142Y-48700000D01*
X153328571Y-48771428D01*
X153400000Y-48914285D01*
X153471428Y-49200000D01*
X153471428Y-49557142D01*
X153400000Y-49842857D01*
X153328571Y-49985714D01*
X153257142Y-50057142D01*
X153114285Y-50128571D01*
X152971428Y-50128571D01*
X152828571Y-50057142D01*
X152757142Y-49985714D01*
X152685714Y-49842857D01*
X152614285Y-49557142D01*
X152614285Y-49200000D01*
X152685714Y-48914285D01*
X152757142Y-48771428D01*
X152828571Y-48700000D01*
X152971428Y-48628571D01*
X155257142Y-50128571D02*
X155257142Y-49128571D01*
X155257142Y-49271428D02*
X155328571Y-49200000D01*
X155471428Y-49128571D01*
X155685714Y-49128571D01*
X155828571Y-49200000D01*
X155900000Y-49342857D01*
X155900000Y-50128571D01*
X155900000Y-49342857D02*
X155971428Y-49200000D01*
X156114285Y-49128571D01*
X156328571Y-49128571D01*
X156471428Y-49200000D01*
X156542857Y-49342857D01*
X156542857Y-50128571D01*
X157257142Y-50128571D02*
X157257142Y-49128571D01*
X157257142Y-49271428D02*
X157328571Y-49200000D01*
X157471428Y-49128571D01*
X157685714Y-49128571D01*
X157828571Y-49200000D01*
X157900000Y-49342857D01*
X157900000Y-50128571D01*
X157900000Y-49342857D02*
X157971428Y-49200000D01*
X158114285Y-49128571D01*
X158328571Y-49128571D01*
X158471428Y-49200000D01*
X158542857Y-49342857D01*
X158542857Y-50128571D01*
X104140000Y-50800000D02*
X200660000Y-50800000D01*
X104140000Y-55880000D02*
X104140000Y-48100000D01*
X200660000Y-55880000D02*
X200660000Y-48100000D01*
X200660000Y-50800000D02*
X199533496Y-51386421D01*
X200660000Y-50800000D02*
X199533496Y-50213579D01*
X104140000Y-50800000D02*
X105266504Y-51386421D01*
X104140000Y-50800000D02*
X105266504Y-50213579D01*
M02*
