%TF.GenerationSoftware,KiCad,Pcbnew,4.0.2+dfsg1-stable*%
%TF.CreationDate,2019-06-17T11:56:57+02:00*%
%TF.ProjectId,usbavrfloppy,757362617672666C6F7070792E6B6963,rev?*%
%TF.FileFunction,Copper,L2,Bot,Signal*%
%FSLAX46Y46*%
G04 Gerber Fmt 4.6, Leading zero omitted, Abs format (unit mm)*
G04 Created by KiCad (PCBNEW 4.0.2+dfsg1-stable) date lun 17 giu 2019 11:56:57 CEST*
%MOMM*%
G01*
G04 APERTURE LIST*
%ADD10C,0.100000*%
%ADD11R,1.520000X1.520000*%
%ADD12C,1.520000*%
%ADD13R,1.727200X2.032000*%
%ADD14O,1.727200X2.032000*%
%ADD15R,2.032000X2.032000*%
%ADD16O,2.032000X2.032000*%
%ADD17R,1.727200X1.727200*%
%ADD18O,1.727200X1.727200*%
%ADD19C,4.064000*%
%ADD20O,1.250000X0.950000*%
%ADD21O,1.000000X1.550000*%
%ADD22C,0.600000*%
%ADD23C,0.350000*%
%ADD24C,0.250000*%
%ADD25C,0.254000*%
G04 APERTURE END LIST*
D10*
D11*
X133350000Y-120650000D03*
D12*
X133350000Y-118110000D03*
X135890000Y-120650000D03*
X135890000Y-118110000D03*
X138430000Y-120650000D03*
X138430000Y-118110000D03*
X140970000Y-120650000D03*
X140970000Y-118110000D03*
X143510000Y-120650000D03*
X143510000Y-118110000D03*
X146050000Y-120650000D03*
X146050000Y-118110000D03*
X148590000Y-120650000D03*
X148590000Y-118110000D03*
X151130000Y-120650000D03*
X151130000Y-118110000D03*
X153670000Y-120650000D03*
X153670000Y-118110000D03*
X156210000Y-120650000D03*
X156210000Y-118110000D03*
X158750000Y-120650000D03*
X158750000Y-118110000D03*
X161290000Y-120650000D03*
X161290000Y-118110000D03*
X163830000Y-120650000D03*
X163830000Y-118110000D03*
X166370000Y-120650000D03*
X166370000Y-118110000D03*
X168910000Y-120650000D03*
X168910000Y-118110000D03*
X171450000Y-120650000D03*
X171450000Y-118110000D03*
X173990000Y-120650000D03*
X173990000Y-118110000D03*
D13*
X160020000Y-78740000D03*
D14*
X157480000Y-78740000D03*
X154940000Y-78740000D03*
D13*
X189230000Y-71120000D03*
D14*
X191770000Y-71120000D03*
X194310000Y-71120000D03*
X196850000Y-71120000D03*
D13*
X173990000Y-88900000D03*
D14*
X176530000Y-88900000D03*
X179070000Y-88900000D03*
X181610000Y-88900000D03*
D15*
X124460000Y-118110000D03*
D16*
X124460000Y-120650000D03*
D17*
X119380000Y-71120000D03*
D18*
X116840000Y-71120000D03*
X119380000Y-68580000D03*
X116840000Y-68580000D03*
X119380000Y-66040000D03*
X116840000Y-66040000D03*
D19*
X124460000Y-113030000D03*
X181610000Y-113030000D03*
X181610000Y-62230000D03*
X107950000Y-61722000D03*
D20*
X170140900Y-62522540D03*
X165140900Y-62522540D03*
D21*
X171140900Y-59822540D03*
X164140900Y-59822540D03*
D22*
X118626100Y-75148900D03*
X144195300Y-86639500D03*
X140100300Y-80657200D03*
X142374300Y-76508800D03*
X141410000Y-78933200D03*
X132349100Y-78933000D03*
X131220000Y-79231100D03*
X134925400Y-76993600D03*
X140225700Y-103352100D03*
X152306000Y-115112200D03*
X131718100Y-98370700D03*
X145269700Y-99821800D03*
X140202100Y-98310300D03*
X164944200Y-97758000D03*
X162990500Y-64005300D03*
X165101800Y-65614400D03*
X148948600Y-64980000D03*
X155176700Y-68119800D03*
X133524600Y-73558800D03*
X138028000Y-85488000D03*
X135755800Y-73568300D03*
X139347300Y-85487400D03*
X145223600Y-68176700D03*
X141860400Y-108934000D03*
X157680400Y-109420400D03*
X130663600Y-80977600D03*
X126268100Y-93758000D03*
X127302600Y-91737000D03*
X135023400Y-80902300D03*
X131383100Y-96903000D03*
X136373900Y-80455600D03*
X139793700Y-97193000D03*
X135120300Y-84550000D03*
X147436600Y-97214400D03*
X139587700Y-88110000D03*
X155947900Y-99296400D03*
X140080300Y-84550000D03*
X164125500Y-95682300D03*
X140073800Y-79626800D03*
X141055700Y-86146400D03*
X143810700Y-91883300D03*
X127844600Y-102159500D03*
X136324900Y-79620300D03*
X131007700Y-103354600D03*
X136065400Y-76996000D03*
X143674600Y-104045400D03*
X132991400Y-86378600D03*
X156128900Y-68044700D03*
X165241900Y-66804600D03*
D23*
X176530000Y-118110000D02*
X176530000Y-88900000D01*
X173990000Y-120650000D02*
X176530000Y-118110000D01*
X164840300Y-61672200D02*
X165140900Y-61672200D01*
X164140900Y-60972800D02*
X164840300Y-61672200D01*
X164140900Y-59822500D02*
X164140900Y-60972800D01*
X170441500Y-61672200D02*
X170140900Y-61672200D01*
X171140900Y-60972800D02*
X170441500Y-61672200D01*
X171140900Y-59822500D02*
X171140900Y-60972800D01*
X165140900Y-62097300D02*
X170140900Y-62097300D01*
X170140900Y-62522500D02*
X170140900Y-62097300D01*
X170140900Y-62097300D02*
X170140900Y-61672200D01*
X165140900Y-62522500D02*
X165140900Y-62097300D01*
X165140900Y-62097300D02*
X165140900Y-61672200D01*
X116840000Y-66040000D02*
X116840000Y-67278900D01*
X115597600Y-72120400D02*
X118626100Y-75148900D01*
X115597600Y-68056700D02*
X115597600Y-72120400D01*
X116375400Y-67278900D02*
X115597600Y-68056700D01*
X116840000Y-67278900D02*
X116375400Y-67278900D01*
D24*
X144195300Y-84752200D02*
X144195300Y-86639500D01*
X140100300Y-80657200D02*
X144195300Y-84752200D01*
X141410000Y-77473100D02*
X142374300Y-76508800D01*
X141410000Y-78933200D02*
X141410000Y-77473100D01*
X132349100Y-79030200D02*
X132349100Y-78933000D01*
X131522800Y-79856500D02*
X132349100Y-79030200D01*
X129305400Y-79856500D02*
X131522800Y-79856500D01*
X120568900Y-71120000D02*
X129305400Y-79856500D01*
X119380000Y-71120000D02*
X120568900Y-71120000D01*
X119380000Y-68580000D02*
X120568900Y-68580000D01*
X120568900Y-68580000D02*
X131220000Y-79231100D01*
X116840000Y-68580000D02*
X118028900Y-68580000D01*
X125321200Y-67389400D02*
X134925400Y-76993600D01*
X118848000Y-67389400D02*
X125321200Y-67389400D01*
X118028900Y-68208500D02*
X118848000Y-67389400D01*
X118028900Y-68580000D02*
X118028900Y-68208500D01*
X126912000Y-119539300D02*
X125801300Y-120650000D01*
X142080700Y-119539300D02*
X126912000Y-119539300D01*
X143510000Y-118110000D02*
X142080700Y-119539300D01*
X124460000Y-120650000D02*
X125801300Y-120650000D01*
X140970000Y-104096400D02*
X140970000Y-118110000D01*
X140225700Y-103352100D02*
X140970000Y-104096400D01*
X153670000Y-116476200D02*
X152306000Y-115112200D01*
X153670000Y-118110000D02*
X153670000Y-116476200D01*
X136470700Y-98370700D02*
X156210000Y-118110000D01*
X131718100Y-98370700D02*
X136470700Y-98370700D01*
X145541900Y-99821800D02*
X145269700Y-99821800D01*
X161290000Y-115569900D02*
X145541900Y-99821800D01*
X161290000Y-118110000D02*
X161290000Y-115569900D01*
X144667300Y-98310300D02*
X140202100Y-98310300D01*
X163830000Y-117473000D02*
X144667300Y-98310300D01*
X163830000Y-118110000D02*
X163830000Y-117473000D01*
X168910000Y-101723800D02*
X164944200Y-97758000D01*
X168910000Y-118110000D02*
X168910000Y-101723800D01*
X163492700Y-64005300D02*
X162990500Y-64005300D01*
X165101800Y-65614400D02*
X163492700Y-64005300D01*
X152036900Y-64980000D02*
X148948600Y-64980000D01*
X155176700Y-68119800D02*
X152036900Y-64980000D01*
X138028000Y-78062200D02*
X133524600Y-73558800D01*
X138028000Y-85488000D02*
X138028000Y-78062200D01*
X139347300Y-85487400D02*
X139347300Y-73568300D01*
X139832000Y-73568300D02*
X139347300Y-73568300D01*
X145223600Y-68176700D02*
X139832000Y-73568300D01*
X139347300Y-73568300D02*
X135755800Y-73568300D01*
X149982600Y-116962600D02*
X151130000Y-118110000D01*
X146050000Y-116962600D02*
X149982600Y-116962600D01*
X146050000Y-118110000D02*
X146050000Y-116962600D01*
X146050000Y-113123600D02*
X141860400Y-108934000D01*
X146050000Y-116962600D02*
X146050000Y-113123600D01*
X166370000Y-118110000D02*
X157680400Y-109420400D01*
D23*
X116840000Y-71120000D02*
X116840000Y-72358900D01*
X125458700Y-80977600D02*
X126268100Y-80977600D01*
X116840000Y-72358900D02*
X125458700Y-80977600D01*
X126268100Y-80977600D02*
X126268100Y-93758000D01*
X126268100Y-80977600D02*
X130663600Y-80977600D01*
D24*
X127302600Y-88623100D02*
X135023400Y-80902300D01*
X127302600Y-91737000D02*
X127302600Y-88623100D01*
X136373900Y-81457900D02*
X136373900Y-80455600D01*
X131383100Y-86448700D02*
X136373900Y-81457900D01*
X131383100Y-96903000D02*
X131383100Y-86448700D01*
X135120300Y-92519600D02*
X135120300Y-84550000D01*
X139793700Y-97193000D02*
X135120300Y-92519600D01*
X139587700Y-89365500D02*
X139587700Y-88110000D01*
X147436600Y-97214400D02*
X139587700Y-89365500D01*
X141201500Y-84550000D02*
X140080300Y-84550000D01*
X155947900Y-99296400D02*
X141201500Y-84550000D01*
X148070000Y-79626800D02*
X140073800Y-79626800D01*
X164125500Y-95682300D02*
X148070000Y-79626800D01*
X141055700Y-89128300D02*
X141055700Y-86146400D01*
X143810700Y-91883300D02*
X141055700Y-89128300D01*
X135665100Y-80280100D02*
X136324900Y-79620300D01*
X135665100Y-81398000D02*
X135665100Y-80280100D01*
X128978600Y-88084500D02*
X135665100Y-81398000D01*
X128978600Y-101025500D02*
X128978600Y-88084500D01*
X127844600Y-102159500D02*
X128978600Y-101025500D01*
X136999200Y-77929800D02*
X136065400Y-76996000D01*
X136999200Y-81469500D02*
X136999200Y-77929800D01*
X132008400Y-86460300D02*
X136999200Y-81469500D01*
X132008400Y-97162100D02*
X132008400Y-86460300D01*
X131007700Y-98162800D02*
X132008400Y-97162100D01*
X131007700Y-103354600D02*
X131007700Y-98162800D01*
X132991400Y-93362200D02*
X132991400Y-86378600D01*
X143674600Y-104045400D02*
X132991400Y-93362200D01*
X154940000Y-78740000D02*
X156128900Y-78740000D01*
X156128900Y-78740000D02*
X156128900Y-68044700D01*
X164001800Y-68044700D02*
X156128900Y-68044700D01*
X165241900Y-66804600D02*
X164001800Y-68044700D01*
X162641100Y-78740000D02*
X172801100Y-88900000D01*
X160020000Y-78740000D02*
X162641100Y-78740000D01*
X173990000Y-88900000D02*
X172801100Y-88900000D01*
X175178900Y-88379900D02*
X175178900Y-88900000D01*
X189427800Y-74131000D02*
X175178900Y-88379900D01*
X193170200Y-74131000D02*
X189427800Y-74131000D01*
X195661100Y-71640100D02*
X193170200Y-74131000D01*
X195661100Y-71120000D02*
X195661100Y-71640100D01*
X196850000Y-71120000D02*
X195661100Y-71120000D01*
X173990000Y-88900000D02*
X175178900Y-88900000D01*
D25*
G36*
X180101239Y-59967709D02*
X179350345Y-60717293D01*
X178943464Y-61697173D01*
X178942538Y-62758172D01*
X179347709Y-63738761D01*
X180097293Y-64489655D01*
X181077173Y-64896536D01*
X182138172Y-64897462D01*
X183118761Y-64492291D01*
X183869655Y-63742707D01*
X184276536Y-62762827D01*
X184277462Y-61701828D01*
X183872291Y-60721239D01*
X183122707Y-59970345D01*
X182753411Y-59817000D01*
X199263000Y-59817000D01*
X199263000Y-78687394D01*
X184060197Y-93890197D01*
X184032334Y-93932211D01*
X184023000Y-93980000D01*
X184023000Y-111885983D01*
X183872291Y-111521239D01*
X183122707Y-110770345D01*
X182142827Y-110363464D01*
X181081828Y-110362538D01*
X180101239Y-110767709D01*
X179350345Y-111517293D01*
X178943464Y-112497173D01*
X178942538Y-113558172D01*
X179347709Y-114538761D01*
X180097293Y-115289655D01*
X181077173Y-115696536D01*
X182138172Y-115697462D01*
X183118761Y-115292291D01*
X183869655Y-114542707D01*
X184023000Y-114173411D01*
X184023000Y-128143000D01*
X120777000Y-128143000D01*
X120777000Y-113558172D01*
X121792538Y-113558172D01*
X122197709Y-114538761D01*
X122947293Y-115289655D01*
X123927173Y-115696536D01*
X124988172Y-115697462D01*
X125968761Y-115292291D01*
X126719655Y-114542707D01*
X127126536Y-113562827D01*
X127127462Y-112501828D01*
X126722291Y-111521239D01*
X125972707Y-110770345D01*
X124992827Y-110363464D01*
X123931828Y-110362538D01*
X122951239Y-110767709D01*
X122200345Y-111517293D01*
X121793464Y-112497173D01*
X121792538Y-113558172D01*
X120777000Y-113558172D01*
X120777000Y-93980000D01*
X120766994Y-93930590D01*
X120739803Y-93890197D01*
X105537000Y-78687394D01*
X105537000Y-68580000D01*
X115312041Y-68580000D01*
X115426115Y-69153489D01*
X115750971Y-69639670D01*
X116065752Y-69850000D01*
X115750971Y-70060330D01*
X115426115Y-70546511D01*
X115312041Y-71120000D01*
X115426115Y-71693489D01*
X115750971Y-72179670D01*
X116031654Y-72367217D01*
X116091658Y-72668874D01*
X116267244Y-72931656D01*
X124885943Y-81550356D01*
X124948325Y-81592038D01*
X125148726Y-81725942D01*
X125458100Y-81787481D01*
X125458100Y-93270559D01*
X125333262Y-93571201D01*
X125332938Y-93943167D01*
X125474983Y-94286943D01*
X125737773Y-94550192D01*
X126081301Y-94692838D01*
X126453267Y-94693162D01*
X126797043Y-94551117D01*
X127060292Y-94288327D01*
X127202938Y-93944799D01*
X127203262Y-93572833D01*
X127078100Y-93269917D01*
X127078100Y-92656183D01*
X127115801Y-92671838D01*
X127487767Y-92672162D01*
X127831543Y-92530117D01*
X128094792Y-92267327D01*
X128218600Y-91969166D01*
X128218600Y-100710698D01*
X127704920Y-101224378D01*
X127659433Y-101224338D01*
X127315657Y-101366383D01*
X127052408Y-101629173D01*
X126909762Y-101972701D01*
X126909438Y-102344667D01*
X127051483Y-102688443D01*
X127314273Y-102951692D01*
X127657801Y-103094338D01*
X128029767Y-103094662D01*
X128373543Y-102952617D01*
X128636792Y-102689827D01*
X128779438Y-102346299D01*
X128779479Y-102299423D01*
X129516001Y-101562901D01*
X129680748Y-101316340D01*
X129738600Y-101025500D01*
X129738600Y-88399302D01*
X130623100Y-87514802D01*
X130623100Y-96340537D01*
X130590908Y-96372673D01*
X130448262Y-96716201D01*
X130447938Y-97088167D01*
X130589983Y-97431943D01*
X130626837Y-97468861D01*
X130470299Y-97625399D01*
X130305552Y-97871961D01*
X130247700Y-98162800D01*
X130247700Y-102792137D01*
X130215508Y-102824273D01*
X130072862Y-103167801D01*
X130072538Y-103539767D01*
X130214583Y-103883543D01*
X130477373Y-104146792D01*
X130820901Y-104289438D01*
X131192867Y-104289762D01*
X131536643Y-104147717D01*
X131799892Y-103884927D01*
X131942538Y-103541399D01*
X131942862Y-103169433D01*
X131800817Y-102825657D01*
X131767700Y-102792482D01*
X131767700Y-99305744D01*
X131903267Y-99305862D01*
X132247043Y-99163817D01*
X132280218Y-99130700D01*
X136155898Y-99130700D01*
X139640420Y-102615222D01*
X139433508Y-102821773D01*
X139290862Y-103165301D01*
X139290538Y-103537267D01*
X139432583Y-103881043D01*
X139695373Y-104144292D01*
X140038901Y-104286938D01*
X140085777Y-104286979D01*
X140210000Y-104411202D01*
X140210000Y-116914633D01*
X140180828Y-116926687D01*
X139788066Y-117318764D01*
X139700046Y-117530738D01*
X139613313Y-117320828D01*
X139221236Y-116928066D01*
X138708700Y-116715242D01*
X138153735Y-116714758D01*
X137640828Y-116926687D01*
X137248066Y-117318764D01*
X137160046Y-117530738D01*
X137073313Y-117320828D01*
X136681236Y-116928066D01*
X136168700Y-116715242D01*
X135613735Y-116714758D01*
X135100828Y-116926687D01*
X134708066Y-117318764D01*
X134620046Y-117530738D01*
X134533313Y-117320828D01*
X134141236Y-116928066D01*
X133628700Y-116715242D01*
X133073735Y-116714758D01*
X132560828Y-116926687D01*
X132168066Y-117318764D01*
X131955242Y-117831300D01*
X131954758Y-118386265D01*
X132117157Y-118779300D01*
X126912000Y-118779300D01*
X126621161Y-118837152D01*
X126374599Y-119001899D01*
X126091177Y-119285321D01*
X126123440Y-119126000D01*
X126123440Y-117094000D01*
X126079162Y-116858683D01*
X125940090Y-116642559D01*
X125727890Y-116497569D01*
X125476000Y-116446560D01*
X123444000Y-116446560D01*
X123208683Y-116490838D01*
X122992559Y-116629910D01*
X122847569Y-116842110D01*
X122796560Y-117094000D01*
X122796560Y-119126000D01*
X122840838Y-119361317D01*
X122979910Y-119577441D01*
X123128837Y-119679198D01*
X122902330Y-120018190D01*
X122776655Y-120650000D01*
X122902330Y-121281810D01*
X123260222Y-121817433D01*
X123795845Y-122175325D01*
X124427655Y-122301000D01*
X124492345Y-122301000D01*
X125124155Y-122175325D01*
X125659778Y-121817433D01*
X125952053Y-121380013D01*
X126092139Y-121352148D01*
X126338701Y-121187401D01*
X126590352Y-120935750D01*
X131955000Y-120935750D01*
X131955000Y-121536310D01*
X132051673Y-121769699D01*
X132230302Y-121948327D01*
X132463691Y-122045000D01*
X133064250Y-122045000D01*
X133223000Y-121886250D01*
X133223000Y-120777000D01*
X132113750Y-120777000D01*
X131955000Y-120935750D01*
X126590352Y-120935750D01*
X127226802Y-120299300D01*
X131955000Y-120299300D01*
X131955000Y-120364250D01*
X132113750Y-120523000D01*
X133223000Y-120523000D01*
X133223000Y-120503000D01*
X133477000Y-120503000D01*
X133477000Y-120523000D01*
X133497000Y-120523000D01*
X133497000Y-120777000D01*
X133477000Y-120777000D01*
X133477000Y-121886250D01*
X133635750Y-122045000D01*
X134236309Y-122045000D01*
X134469698Y-121948327D01*
X134648327Y-121769699D01*
X134706704Y-121628764D01*
X135090841Y-121628764D01*
X135160059Y-121870742D01*
X135682780Y-122057155D01*
X136237049Y-122029341D01*
X136619941Y-121870742D01*
X136689159Y-121628764D01*
X137630841Y-121628764D01*
X137700059Y-121870742D01*
X138222780Y-122057155D01*
X138777049Y-122029341D01*
X139159941Y-121870742D01*
X139229159Y-121628764D01*
X140170841Y-121628764D01*
X140240059Y-121870742D01*
X140762780Y-122057155D01*
X141317049Y-122029341D01*
X141699941Y-121870742D01*
X141769159Y-121628764D01*
X142710841Y-121628764D01*
X142780059Y-121870742D01*
X143302780Y-122057155D01*
X143857049Y-122029341D01*
X144239941Y-121870742D01*
X144309159Y-121628764D01*
X145250841Y-121628764D01*
X145320059Y-121870742D01*
X145842780Y-122057155D01*
X146397049Y-122029341D01*
X146779941Y-121870742D01*
X146849159Y-121628764D01*
X147790841Y-121628764D01*
X147860059Y-121870742D01*
X148382780Y-122057155D01*
X148937049Y-122029341D01*
X149319941Y-121870742D01*
X149389159Y-121628764D01*
X150330841Y-121628764D01*
X150400059Y-121870742D01*
X150922780Y-122057155D01*
X151477049Y-122029341D01*
X151859941Y-121870742D01*
X151929159Y-121628764D01*
X152870841Y-121628764D01*
X152940059Y-121870742D01*
X153462780Y-122057155D01*
X154017049Y-122029341D01*
X154399941Y-121870742D01*
X154469159Y-121628764D01*
X155410841Y-121628764D01*
X155480059Y-121870742D01*
X156002780Y-122057155D01*
X156557049Y-122029341D01*
X156939941Y-121870742D01*
X157009159Y-121628764D01*
X157950841Y-121628764D01*
X158020059Y-121870742D01*
X158542780Y-122057155D01*
X159097049Y-122029341D01*
X159479941Y-121870742D01*
X159549159Y-121628764D01*
X160490841Y-121628764D01*
X160560059Y-121870742D01*
X161082780Y-122057155D01*
X161637049Y-122029341D01*
X162019941Y-121870742D01*
X162089159Y-121628764D01*
X163030841Y-121628764D01*
X163100059Y-121870742D01*
X163622780Y-122057155D01*
X164177049Y-122029341D01*
X164559941Y-121870742D01*
X164629159Y-121628764D01*
X165570841Y-121628764D01*
X165640059Y-121870742D01*
X166162780Y-122057155D01*
X166717049Y-122029341D01*
X167099941Y-121870742D01*
X167169159Y-121628764D01*
X168110841Y-121628764D01*
X168180059Y-121870742D01*
X168702780Y-122057155D01*
X169257049Y-122029341D01*
X169639941Y-121870742D01*
X169709159Y-121628764D01*
X170650841Y-121628764D01*
X170720059Y-121870742D01*
X171242780Y-122057155D01*
X171797049Y-122029341D01*
X172179941Y-121870742D01*
X172249159Y-121628764D01*
X173190841Y-121628764D01*
X173260059Y-121870742D01*
X173782780Y-122057155D01*
X174337049Y-122029341D01*
X174719941Y-121870742D01*
X174789159Y-121628764D01*
X173990000Y-120829605D01*
X173190841Y-121628764D01*
X172249159Y-121628764D01*
X171450000Y-120829605D01*
X170650841Y-121628764D01*
X169709159Y-121628764D01*
X168910000Y-120829605D01*
X168110841Y-121628764D01*
X167169159Y-121628764D01*
X166370000Y-120829605D01*
X165570841Y-121628764D01*
X164629159Y-121628764D01*
X163830000Y-120829605D01*
X163030841Y-121628764D01*
X162089159Y-121628764D01*
X161290000Y-120829605D01*
X160490841Y-121628764D01*
X159549159Y-121628764D01*
X158750000Y-120829605D01*
X157950841Y-121628764D01*
X157009159Y-121628764D01*
X156210000Y-120829605D01*
X155410841Y-121628764D01*
X154469159Y-121628764D01*
X153670000Y-120829605D01*
X152870841Y-121628764D01*
X151929159Y-121628764D01*
X151130000Y-120829605D01*
X150330841Y-121628764D01*
X149389159Y-121628764D01*
X148590000Y-120829605D01*
X147790841Y-121628764D01*
X146849159Y-121628764D01*
X146050000Y-120829605D01*
X145250841Y-121628764D01*
X144309159Y-121628764D01*
X143510000Y-120829605D01*
X142710841Y-121628764D01*
X141769159Y-121628764D01*
X140970000Y-120829605D01*
X140170841Y-121628764D01*
X139229159Y-121628764D01*
X138430000Y-120829605D01*
X137630841Y-121628764D01*
X136689159Y-121628764D01*
X135890000Y-120829605D01*
X135090841Y-121628764D01*
X134706704Y-121628764D01*
X134745000Y-121536310D01*
X134745000Y-121401607D01*
X134911236Y-121449159D01*
X135710395Y-120650000D01*
X135696253Y-120635858D01*
X135875858Y-120456253D01*
X135890000Y-120470395D01*
X135904143Y-120456253D01*
X136083748Y-120635858D01*
X136069605Y-120650000D01*
X136868764Y-121449159D01*
X137110742Y-121379941D01*
X137156320Y-121252137D01*
X137209258Y-121379941D01*
X137451236Y-121449159D01*
X138250395Y-120650000D01*
X138236253Y-120635858D01*
X138415858Y-120456253D01*
X138430000Y-120470395D01*
X138444143Y-120456253D01*
X138623748Y-120635858D01*
X138609605Y-120650000D01*
X139408764Y-121449159D01*
X139650742Y-121379941D01*
X139696320Y-121252137D01*
X139749258Y-121379941D01*
X139991236Y-121449159D01*
X140790395Y-120650000D01*
X140776253Y-120635858D01*
X140955858Y-120456253D01*
X140970000Y-120470395D01*
X140984143Y-120456253D01*
X141163748Y-120635858D01*
X141149605Y-120650000D01*
X141948764Y-121449159D01*
X142190742Y-121379941D01*
X142236320Y-121252137D01*
X142289258Y-121379941D01*
X142531236Y-121449159D01*
X143330395Y-120650000D01*
X143689605Y-120650000D01*
X144488764Y-121449159D01*
X144730742Y-121379941D01*
X144776320Y-121252137D01*
X144829258Y-121379941D01*
X145071236Y-121449159D01*
X145870395Y-120650000D01*
X146229605Y-120650000D01*
X147028764Y-121449159D01*
X147270742Y-121379941D01*
X147316320Y-121252137D01*
X147369258Y-121379941D01*
X147611236Y-121449159D01*
X148410395Y-120650000D01*
X148769605Y-120650000D01*
X149568764Y-121449159D01*
X149810742Y-121379941D01*
X149856320Y-121252137D01*
X149909258Y-121379941D01*
X150151236Y-121449159D01*
X150950395Y-120650000D01*
X151309605Y-120650000D01*
X152108764Y-121449159D01*
X152350742Y-121379941D01*
X152396320Y-121252137D01*
X152449258Y-121379941D01*
X152691236Y-121449159D01*
X153490395Y-120650000D01*
X153849605Y-120650000D01*
X154648764Y-121449159D01*
X154890742Y-121379941D01*
X154936320Y-121252137D01*
X154989258Y-121379941D01*
X155231236Y-121449159D01*
X156030395Y-120650000D01*
X156389605Y-120650000D01*
X157188764Y-121449159D01*
X157430742Y-121379941D01*
X157476320Y-121252137D01*
X157529258Y-121379941D01*
X157771236Y-121449159D01*
X158570395Y-120650000D01*
X158929605Y-120650000D01*
X159728764Y-121449159D01*
X159970742Y-121379941D01*
X160016320Y-121252137D01*
X160069258Y-121379941D01*
X160311236Y-121449159D01*
X161110395Y-120650000D01*
X161469605Y-120650000D01*
X162268764Y-121449159D01*
X162510742Y-121379941D01*
X162556320Y-121252137D01*
X162609258Y-121379941D01*
X162851236Y-121449159D01*
X163650395Y-120650000D01*
X164009605Y-120650000D01*
X164808764Y-121449159D01*
X165050742Y-121379941D01*
X165096320Y-121252137D01*
X165149258Y-121379941D01*
X165391236Y-121449159D01*
X166190395Y-120650000D01*
X166549605Y-120650000D01*
X167348764Y-121449159D01*
X167590742Y-121379941D01*
X167636320Y-121252137D01*
X167689258Y-121379941D01*
X167931236Y-121449159D01*
X168730395Y-120650000D01*
X169089605Y-120650000D01*
X169888764Y-121449159D01*
X170130742Y-121379941D01*
X170176320Y-121252137D01*
X170229258Y-121379941D01*
X170471236Y-121449159D01*
X171270395Y-120650000D01*
X171629605Y-120650000D01*
X172428764Y-121449159D01*
X172670742Y-121379941D01*
X172716320Y-121252137D01*
X172769258Y-121379941D01*
X173011236Y-121449159D01*
X173810395Y-120650000D01*
X174169605Y-120650000D01*
X174968764Y-121449159D01*
X175210742Y-121379941D01*
X175397155Y-120857220D01*
X175369341Y-120302951D01*
X175210742Y-119920059D01*
X174968764Y-119850841D01*
X174169605Y-120650000D01*
X173810395Y-120650000D01*
X173011236Y-119850841D01*
X172769258Y-119920059D01*
X172723680Y-120047863D01*
X172670742Y-119920059D01*
X172428764Y-119850841D01*
X171629605Y-120650000D01*
X171270395Y-120650000D01*
X170471236Y-119850841D01*
X170229258Y-119920059D01*
X170183680Y-120047863D01*
X170130742Y-119920059D01*
X169888764Y-119850841D01*
X169089605Y-120650000D01*
X168730395Y-120650000D01*
X167931236Y-119850841D01*
X167689258Y-119920059D01*
X167643680Y-120047863D01*
X167590742Y-119920059D01*
X167348764Y-119850841D01*
X166549605Y-120650000D01*
X166190395Y-120650000D01*
X165391236Y-119850841D01*
X165149258Y-119920059D01*
X165103680Y-120047863D01*
X165050742Y-119920059D01*
X164808764Y-119850841D01*
X164009605Y-120650000D01*
X163650395Y-120650000D01*
X162851236Y-119850841D01*
X162609258Y-119920059D01*
X162563680Y-120047863D01*
X162510742Y-119920059D01*
X162268764Y-119850841D01*
X161469605Y-120650000D01*
X161110395Y-120650000D01*
X160311236Y-119850841D01*
X160069258Y-119920059D01*
X160023680Y-120047863D01*
X159970742Y-119920059D01*
X159728764Y-119850841D01*
X158929605Y-120650000D01*
X158570395Y-120650000D01*
X157771236Y-119850841D01*
X157529258Y-119920059D01*
X157483680Y-120047863D01*
X157430742Y-119920059D01*
X157188764Y-119850841D01*
X156389605Y-120650000D01*
X156030395Y-120650000D01*
X155231236Y-119850841D01*
X154989258Y-119920059D01*
X154943680Y-120047863D01*
X154890742Y-119920059D01*
X154648764Y-119850841D01*
X153849605Y-120650000D01*
X153490395Y-120650000D01*
X152691236Y-119850841D01*
X152449258Y-119920059D01*
X152403680Y-120047863D01*
X152350742Y-119920059D01*
X152108764Y-119850841D01*
X151309605Y-120650000D01*
X150950395Y-120650000D01*
X150151236Y-119850841D01*
X149909258Y-119920059D01*
X149863680Y-120047863D01*
X149810742Y-119920059D01*
X149568764Y-119850841D01*
X148769605Y-120650000D01*
X148410395Y-120650000D01*
X147611236Y-119850841D01*
X147369258Y-119920059D01*
X147323680Y-120047863D01*
X147270742Y-119920059D01*
X147028764Y-119850841D01*
X146229605Y-120650000D01*
X145870395Y-120650000D01*
X145071236Y-119850841D01*
X144829258Y-119920059D01*
X144783680Y-120047863D01*
X144730742Y-119920059D01*
X144488764Y-119850841D01*
X143689605Y-120650000D01*
X143330395Y-120650000D01*
X143316253Y-120635858D01*
X143495858Y-120456253D01*
X143510000Y-120470395D01*
X144309159Y-119671236D01*
X144239941Y-119429258D01*
X144095138Y-119377618D01*
X144299172Y-119293313D01*
X144691934Y-118901236D01*
X144779954Y-118689262D01*
X144866687Y-118899172D01*
X145258764Y-119291934D01*
X145454934Y-119373391D01*
X145320059Y-119429258D01*
X145250841Y-119671236D01*
X146050000Y-120470395D01*
X146849159Y-119671236D01*
X146779941Y-119429258D01*
X146635138Y-119377618D01*
X146839172Y-119293313D01*
X147231934Y-118901236D01*
X147319954Y-118689262D01*
X147406687Y-118899172D01*
X147798764Y-119291934D01*
X147994934Y-119373391D01*
X147860059Y-119429258D01*
X147790841Y-119671236D01*
X148590000Y-120470395D01*
X149389159Y-119671236D01*
X149319941Y-119429258D01*
X149175138Y-119377618D01*
X149379172Y-119293313D01*
X149771934Y-118901236D01*
X149859954Y-118689262D01*
X149946687Y-118899172D01*
X150338764Y-119291934D01*
X150534934Y-119373391D01*
X150400059Y-119429258D01*
X150330841Y-119671236D01*
X151130000Y-120470395D01*
X151929159Y-119671236D01*
X151859941Y-119429258D01*
X151715138Y-119377618D01*
X151919172Y-119293313D01*
X152311934Y-118901236D01*
X152399954Y-118689262D01*
X152486687Y-118899172D01*
X152878764Y-119291934D01*
X153074934Y-119373391D01*
X152940059Y-119429258D01*
X152870841Y-119671236D01*
X153670000Y-120470395D01*
X154469159Y-119671236D01*
X154399941Y-119429258D01*
X154255138Y-119377618D01*
X154459172Y-119293313D01*
X154851934Y-118901236D01*
X154939954Y-118689262D01*
X155026687Y-118899172D01*
X155418764Y-119291934D01*
X155614934Y-119373391D01*
X155480059Y-119429258D01*
X155410841Y-119671236D01*
X156210000Y-120470395D01*
X157009159Y-119671236D01*
X156939941Y-119429258D01*
X156795138Y-119377618D01*
X156999172Y-119293313D01*
X157391934Y-118901236D01*
X157479954Y-118689262D01*
X157566687Y-118899172D01*
X157958764Y-119291934D01*
X158154934Y-119373391D01*
X158020059Y-119429258D01*
X157950841Y-119671236D01*
X158750000Y-120470395D01*
X159549159Y-119671236D01*
X159479941Y-119429258D01*
X159335138Y-119377618D01*
X159539172Y-119293313D01*
X159931934Y-118901236D01*
X160019954Y-118689262D01*
X160106687Y-118899172D01*
X160498764Y-119291934D01*
X160694934Y-119373391D01*
X160560059Y-119429258D01*
X160490841Y-119671236D01*
X161290000Y-120470395D01*
X162089159Y-119671236D01*
X162019941Y-119429258D01*
X161875138Y-119377618D01*
X162079172Y-119293313D01*
X162471934Y-118901236D01*
X162559954Y-118689262D01*
X162646687Y-118899172D01*
X163038764Y-119291934D01*
X163234934Y-119373391D01*
X163100059Y-119429258D01*
X163030841Y-119671236D01*
X163830000Y-120470395D01*
X164629159Y-119671236D01*
X164559941Y-119429258D01*
X164415138Y-119377618D01*
X164619172Y-119293313D01*
X165011934Y-118901236D01*
X165099954Y-118689262D01*
X165186687Y-118899172D01*
X165578764Y-119291934D01*
X165774934Y-119373391D01*
X165640059Y-119429258D01*
X165570841Y-119671236D01*
X166370000Y-120470395D01*
X167169159Y-119671236D01*
X167099941Y-119429258D01*
X166955138Y-119377618D01*
X167159172Y-119293313D01*
X167551934Y-118901236D01*
X167639954Y-118689262D01*
X167726687Y-118899172D01*
X168118764Y-119291934D01*
X168314934Y-119373391D01*
X168180059Y-119429258D01*
X168110841Y-119671236D01*
X168910000Y-120470395D01*
X169709159Y-119671236D01*
X169639941Y-119429258D01*
X169495138Y-119377618D01*
X169699172Y-119293313D01*
X170091934Y-118901236D01*
X170179954Y-118689262D01*
X170266687Y-118899172D01*
X170658764Y-119291934D01*
X170854934Y-119373391D01*
X170720059Y-119429258D01*
X170650841Y-119671236D01*
X171450000Y-120470395D01*
X172249159Y-119671236D01*
X172179941Y-119429258D01*
X172035138Y-119377618D01*
X172239172Y-119293313D01*
X172631934Y-118901236D01*
X172719954Y-118689262D01*
X172806687Y-118899172D01*
X173198764Y-119291934D01*
X173394934Y-119373391D01*
X173260059Y-119429258D01*
X173190841Y-119671236D01*
X173990000Y-120470395D01*
X174789159Y-119671236D01*
X174719941Y-119429258D01*
X174575138Y-119377618D01*
X174779172Y-119293313D01*
X175171934Y-118901236D01*
X175384758Y-118388700D01*
X175385242Y-117833735D01*
X175173313Y-117320828D01*
X174781236Y-116928066D01*
X174268700Y-116715242D01*
X173713735Y-116714758D01*
X173200828Y-116926687D01*
X172808066Y-117318764D01*
X172720046Y-117530738D01*
X172633313Y-117320828D01*
X172241236Y-116928066D01*
X171728700Y-116715242D01*
X171173735Y-116714758D01*
X170660828Y-116926687D01*
X170268066Y-117318764D01*
X170180046Y-117530738D01*
X170093313Y-117320828D01*
X169701236Y-116928066D01*
X169670000Y-116915096D01*
X169670000Y-101723800D01*
X169612148Y-101432961D01*
X169447401Y-101186399D01*
X165879322Y-97618320D01*
X165879362Y-97572833D01*
X165737317Y-97229057D01*
X165474527Y-96965808D01*
X165130999Y-96823162D01*
X164759033Y-96822838D01*
X164415257Y-96964883D01*
X164152008Y-97227673D01*
X164009362Y-97571201D01*
X164009038Y-97943167D01*
X164151083Y-98286943D01*
X164413873Y-98550192D01*
X164757401Y-98692838D01*
X164804277Y-98692879D01*
X168150000Y-102038602D01*
X168150000Y-116914633D01*
X168120828Y-116926687D01*
X167728066Y-117318764D01*
X167640046Y-117530738D01*
X167553313Y-117320828D01*
X167161236Y-116928066D01*
X166648700Y-116715242D01*
X166093735Y-116714758D01*
X166062476Y-116727674D01*
X158615522Y-109280720D01*
X158615562Y-109235233D01*
X158473517Y-108891457D01*
X158210727Y-108628208D01*
X157867199Y-108485562D01*
X157495233Y-108485238D01*
X157151457Y-108627283D01*
X156888208Y-108890073D01*
X156745562Y-109233601D01*
X156745492Y-109313690D01*
X145204701Y-97772899D01*
X144958139Y-97608152D01*
X144667300Y-97550300D01*
X140764563Y-97550300D01*
X140732427Y-97518108D01*
X140680125Y-97496390D01*
X140728538Y-97379799D01*
X140728862Y-97007833D01*
X140586817Y-96664057D01*
X140324027Y-96400808D01*
X139980499Y-96258162D01*
X139933623Y-96258121D01*
X135880300Y-92204798D01*
X135880300Y-85112463D01*
X135912492Y-85080327D01*
X136055138Y-84736799D01*
X136055462Y-84364833D01*
X135913417Y-84021057D01*
X135718102Y-83825400D01*
X137268000Y-82275502D01*
X137268000Y-84925537D01*
X137235808Y-84957673D01*
X137093162Y-85301201D01*
X137092838Y-85673167D01*
X137234883Y-86016943D01*
X137497673Y-86280192D01*
X137841201Y-86422838D01*
X138213167Y-86423162D01*
X138556943Y-86281117D01*
X138687947Y-86150341D01*
X138816973Y-86279592D01*
X139160501Y-86422238D01*
X139532467Y-86422562D01*
X139876243Y-86280517D01*
X140120795Y-86036391D01*
X140120538Y-86331567D01*
X140262583Y-86675343D01*
X140295700Y-86708518D01*
X140295700Y-87495791D01*
X140118027Y-87317808D01*
X139774499Y-87175162D01*
X139402533Y-87174838D01*
X139058757Y-87316883D01*
X138795508Y-87579673D01*
X138652862Y-87923201D01*
X138652538Y-88295167D01*
X138794583Y-88638943D01*
X138827700Y-88672118D01*
X138827700Y-89365500D01*
X138885552Y-89656339D01*
X139050299Y-89902901D01*
X146501478Y-97354080D01*
X146501438Y-97399567D01*
X146643483Y-97743343D01*
X146906273Y-98006592D01*
X147249801Y-98149238D01*
X147621767Y-98149562D01*
X147965543Y-98007517D01*
X148228792Y-97744727D01*
X148371438Y-97401199D01*
X148371762Y-97029233D01*
X148229717Y-96685457D01*
X147966927Y-96422208D01*
X147623399Y-96279562D01*
X147576523Y-96279521D01*
X144080496Y-92783494D01*
X144339643Y-92676417D01*
X144602892Y-92413627D01*
X144745538Y-92070099D01*
X144745862Y-91698133D01*
X144603817Y-91354357D01*
X144341027Y-91091108D01*
X143997499Y-90948462D01*
X143950623Y-90948421D01*
X141815700Y-88813498D01*
X141815700Y-86708863D01*
X141847892Y-86676727D01*
X141966878Y-86390180D01*
X155012778Y-99436080D01*
X155012738Y-99481567D01*
X155154783Y-99825343D01*
X155417573Y-100088592D01*
X155761101Y-100231238D01*
X156133067Y-100231562D01*
X156476843Y-100089517D01*
X156740092Y-99826727D01*
X156882738Y-99483199D01*
X156883062Y-99111233D01*
X156741017Y-98767457D01*
X156478227Y-98504208D01*
X156134699Y-98361562D01*
X156087823Y-98361521D01*
X144941771Y-87215469D01*
X144987492Y-87169827D01*
X145130138Y-86826299D01*
X145130462Y-86454333D01*
X144988417Y-86110557D01*
X144955300Y-86077382D01*
X144955300Y-84752200D01*
X144897448Y-84461361D01*
X144732701Y-84214799D01*
X141035422Y-80517520D01*
X141035462Y-80472033D01*
X141000245Y-80386800D01*
X147755198Y-80386800D01*
X163190378Y-95821980D01*
X163190338Y-95867467D01*
X163332383Y-96211243D01*
X163595173Y-96474492D01*
X163938701Y-96617138D01*
X164310667Y-96617462D01*
X164654443Y-96475417D01*
X164917692Y-96212627D01*
X165060338Y-95869099D01*
X165060662Y-95497133D01*
X164918617Y-95153357D01*
X164655827Y-94890108D01*
X164312299Y-94747462D01*
X164265423Y-94747421D01*
X148607401Y-79089399D01*
X148360839Y-78924652D01*
X148070000Y-78866800D01*
X142345059Y-78866800D01*
X142345162Y-78748033D01*
X142203117Y-78404257D01*
X142170000Y-78371082D01*
X142170000Y-77787902D01*
X142513980Y-77443922D01*
X142559467Y-77443962D01*
X142903243Y-77301917D01*
X143166492Y-77039127D01*
X143309138Y-76695599D01*
X143309462Y-76323633D01*
X143167417Y-75979857D01*
X142904627Y-75716608D01*
X142561099Y-75573962D01*
X142189133Y-75573638D01*
X141845357Y-75715683D01*
X141582108Y-75978473D01*
X141439462Y-76322001D01*
X141439421Y-76368877D01*
X140872599Y-76935699D01*
X140707852Y-77182261D01*
X140650000Y-77473100D01*
X140650000Y-78370737D01*
X140617808Y-78402873D01*
X140475162Y-78746401D01*
X140475132Y-78781044D01*
X140260599Y-78691962D01*
X140107300Y-78691828D01*
X140107300Y-74273539D01*
X140122839Y-74270448D01*
X140369401Y-74105701D01*
X145363280Y-69111822D01*
X145408767Y-69111862D01*
X145752543Y-68969817D01*
X146015792Y-68707027D01*
X146158438Y-68363499D01*
X146158762Y-67991533D01*
X146016717Y-67647757D01*
X145753927Y-67384508D01*
X145410399Y-67241862D01*
X145038433Y-67241538D01*
X144694657Y-67383583D01*
X144431408Y-67646373D01*
X144288762Y-67989901D01*
X144288721Y-68036777D01*
X139517198Y-72808300D01*
X136318263Y-72808300D01*
X136286127Y-72776108D01*
X135942599Y-72633462D01*
X135570633Y-72633138D01*
X135226857Y-72775183D01*
X134963608Y-73037973D01*
X134820962Y-73381501D01*
X134820638Y-73753467D01*
X134839346Y-73798744D01*
X134459722Y-73419120D01*
X134459762Y-73373633D01*
X134317717Y-73029857D01*
X134054927Y-72766608D01*
X133711399Y-72623962D01*
X133339433Y-72623638D01*
X132995657Y-72765683D01*
X132732408Y-73028473D01*
X132589762Y-73372001D01*
X132589578Y-73582976D01*
X125858601Y-66851999D01*
X125612039Y-66687252D01*
X125321200Y-66629400D01*
X120783254Y-66629400D01*
X120793885Y-66613489D01*
X120907959Y-66040000D01*
X120793885Y-65466511D01*
X120592534Y-65165167D01*
X148013438Y-65165167D01*
X148155483Y-65508943D01*
X148418273Y-65772192D01*
X148761801Y-65914838D01*
X149133767Y-65915162D01*
X149477543Y-65773117D01*
X149510718Y-65740000D01*
X151722098Y-65740000D01*
X154241578Y-68259480D01*
X154241538Y-68304967D01*
X154383583Y-68648743D01*
X154646373Y-68911992D01*
X154989901Y-69054638D01*
X155361867Y-69054962D01*
X155368900Y-69052056D01*
X155368900Y-77141968D01*
X154940000Y-77056655D01*
X154366511Y-77170729D01*
X153880330Y-77495585D01*
X153555474Y-77981766D01*
X153441400Y-78555255D01*
X153441400Y-78924745D01*
X153555474Y-79498234D01*
X153880330Y-79984415D01*
X154366511Y-80309271D01*
X154940000Y-80423345D01*
X155513489Y-80309271D01*
X155999670Y-79984415D01*
X156210000Y-79669634D01*
X156420330Y-79984415D01*
X156906511Y-80309271D01*
X157480000Y-80423345D01*
X158053489Y-80309271D01*
X158539670Y-79984415D01*
X158549243Y-79970087D01*
X158553238Y-79991317D01*
X158692310Y-80207441D01*
X158904510Y-80352431D01*
X159156400Y-80403440D01*
X160883600Y-80403440D01*
X161118917Y-80359162D01*
X161335041Y-80220090D01*
X161480031Y-80007890D01*
X161531040Y-79756000D01*
X161531040Y-79500000D01*
X162326298Y-79500000D01*
X172263699Y-89437401D01*
X172478960Y-89581233D01*
X172478960Y-89916000D01*
X172523238Y-90151317D01*
X172662310Y-90367441D01*
X172874510Y-90512431D01*
X173126400Y-90563440D01*
X174853600Y-90563440D01*
X175088917Y-90519162D01*
X175305041Y-90380090D01*
X175450031Y-90167890D01*
X175469232Y-90073073D01*
X175627964Y-90250732D01*
X176155209Y-90504709D01*
X176170974Y-90507358D01*
X176403000Y-90386217D01*
X176403000Y-89027000D01*
X176657000Y-89027000D01*
X176657000Y-90386217D01*
X176889026Y-90507358D01*
X176904791Y-90504709D01*
X177432036Y-90250732D01*
X177800000Y-89838892D01*
X178167964Y-90250732D01*
X178695209Y-90504709D01*
X178710974Y-90507358D01*
X178943000Y-90386217D01*
X178943000Y-89027000D01*
X176657000Y-89027000D01*
X176403000Y-89027000D01*
X176383000Y-89027000D01*
X176383000Y-88773000D01*
X176403000Y-88773000D01*
X176403000Y-88753000D01*
X176657000Y-88753000D01*
X176657000Y-88773000D01*
X178943000Y-88773000D01*
X178943000Y-87413783D01*
X179197000Y-87413783D01*
X179197000Y-88773000D01*
X179217000Y-88773000D01*
X179217000Y-89027000D01*
X179197000Y-89027000D01*
X179197000Y-90386217D01*
X179429026Y-90507358D01*
X179444791Y-90504709D01*
X179972036Y-90250732D01*
X180343539Y-89834931D01*
X180550330Y-90144415D01*
X181036511Y-90469271D01*
X181610000Y-90583345D01*
X182183489Y-90469271D01*
X182669670Y-90144415D01*
X182994526Y-89658234D01*
X183108600Y-89084745D01*
X183108600Y-88715255D01*
X182994526Y-88141766D01*
X182669670Y-87655585D01*
X182183489Y-87330729D01*
X181610000Y-87216655D01*
X181036511Y-87330729D01*
X180550330Y-87655585D01*
X180343539Y-87965069D01*
X179972036Y-87549268D01*
X179444791Y-87295291D01*
X179429026Y-87292642D01*
X179197000Y-87413783D01*
X178943000Y-87413783D01*
X178710974Y-87292642D01*
X178695209Y-87295291D01*
X178167964Y-87549268D01*
X177800000Y-87961108D01*
X177432036Y-87549268D01*
X177197373Y-87436229D01*
X189742602Y-74891000D01*
X193170200Y-74891000D01*
X193461039Y-74833148D01*
X193707601Y-74668401D01*
X195922964Y-72453038D01*
X196276511Y-72689271D01*
X196850000Y-72803345D01*
X197423489Y-72689271D01*
X197909670Y-72364415D01*
X198234526Y-71878234D01*
X198348600Y-71304745D01*
X198348600Y-70935255D01*
X198234526Y-70361766D01*
X197909670Y-69875585D01*
X197423489Y-69550729D01*
X196850000Y-69436655D01*
X196276511Y-69550729D01*
X195790330Y-69875585D01*
X195583539Y-70185069D01*
X195212036Y-69769268D01*
X194684791Y-69515291D01*
X194669026Y-69512642D01*
X194437000Y-69633783D01*
X194437000Y-70993000D01*
X194457000Y-70993000D01*
X194457000Y-71247000D01*
X194437000Y-71247000D01*
X194437000Y-71267000D01*
X194183000Y-71267000D01*
X194183000Y-71247000D01*
X191897000Y-71247000D01*
X191897000Y-72606217D01*
X192129026Y-72727358D01*
X192144791Y-72724709D01*
X192672036Y-72470732D01*
X193040000Y-72058892D01*
X193407964Y-72470732D01*
X193642627Y-72583771D01*
X192855398Y-73371000D01*
X189427800Y-73371000D01*
X189136961Y-73428852D01*
X188890399Y-73593599D01*
X175159515Y-87324483D01*
X175105490Y-87287569D01*
X174853600Y-87236560D01*
X173126400Y-87236560D01*
X172891083Y-87280838D01*
X172674959Y-87419910D01*
X172561648Y-87585746D01*
X163178501Y-78202599D01*
X162931939Y-78037852D01*
X162641100Y-77980000D01*
X161531040Y-77980000D01*
X161531040Y-77724000D01*
X161486762Y-77488683D01*
X161347690Y-77272559D01*
X161135490Y-77127569D01*
X160883600Y-77076560D01*
X159156400Y-77076560D01*
X158921083Y-77120838D01*
X158704959Y-77259910D01*
X158559969Y-77472110D01*
X158551600Y-77513439D01*
X158539670Y-77495585D01*
X158053489Y-77170729D01*
X157480000Y-77056655D01*
X156906511Y-77170729D01*
X156888900Y-77182496D01*
X156888900Y-70104000D01*
X187718960Y-70104000D01*
X187718960Y-72136000D01*
X187763238Y-72371317D01*
X187902310Y-72587441D01*
X188114510Y-72732431D01*
X188366400Y-72783440D01*
X190093600Y-72783440D01*
X190328917Y-72739162D01*
X190545041Y-72600090D01*
X190690031Y-72387890D01*
X190709232Y-72293073D01*
X190867964Y-72470732D01*
X191395209Y-72724709D01*
X191410974Y-72727358D01*
X191643000Y-72606217D01*
X191643000Y-71247000D01*
X191623000Y-71247000D01*
X191623000Y-70993000D01*
X191643000Y-70993000D01*
X191643000Y-69633783D01*
X191897000Y-69633783D01*
X191897000Y-70993000D01*
X194183000Y-70993000D01*
X194183000Y-69633783D01*
X193950974Y-69512642D01*
X193935209Y-69515291D01*
X193407964Y-69769268D01*
X193040000Y-70181108D01*
X192672036Y-69769268D01*
X192144791Y-69515291D01*
X192129026Y-69512642D01*
X191897000Y-69633783D01*
X191643000Y-69633783D01*
X191410974Y-69512642D01*
X191395209Y-69515291D01*
X190867964Y-69769268D01*
X190711093Y-69944845D01*
X190696762Y-69868683D01*
X190557690Y-69652559D01*
X190345490Y-69507569D01*
X190093600Y-69456560D01*
X188366400Y-69456560D01*
X188131083Y-69500838D01*
X187914959Y-69639910D01*
X187769969Y-69852110D01*
X187718960Y-70104000D01*
X156888900Y-70104000D01*
X156888900Y-68804700D01*
X164001800Y-68804700D01*
X164292639Y-68746848D01*
X164539201Y-68582101D01*
X165381580Y-67739722D01*
X165427067Y-67739762D01*
X165770843Y-67597717D01*
X166034092Y-67334927D01*
X166176738Y-66991399D01*
X166177062Y-66619433D01*
X166035017Y-66275657D01*
X165897025Y-66137424D01*
X166036638Y-65801199D01*
X166036962Y-65429233D01*
X165894917Y-65085457D01*
X165632127Y-64822208D01*
X165288599Y-64679562D01*
X165241723Y-64679521D01*
X164030101Y-63467899D01*
X163783539Y-63303152D01*
X163567894Y-63260257D01*
X163520827Y-63213108D01*
X163177299Y-63070462D01*
X162805333Y-63070138D01*
X162461557Y-63212183D01*
X162198308Y-63474973D01*
X162055662Y-63818501D01*
X162055338Y-64190467D01*
X162197383Y-64534243D01*
X162460173Y-64797492D01*
X162803701Y-64940138D01*
X163175667Y-64940462D01*
X163301194Y-64888596D01*
X164166678Y-65754080D01*
X164166638Y-65799567D01*
X164308683Y-66143343D01*
X164446675Y-66281576D01*
X164307062Y-66617801D01*
X164307021Y-66664677D01*
X163686998Y-67284700D01*
X156691363Y-67284700D01*
X156659227Y-67252508D01*
X156315699Y-67109862D01*
X155943733Y-67109538D01*
X155599957Y-67251583D01*
X155577626Y-67273876D01*
X155363499Y-67184962D01*
X155316623Y-67184921D01*
X152574301Y-64442599D01*
X152327739Y-64277852D01*
X152036900Y-64220000D01*
X149511063Y-64220000D01*
X149478927Y-64187808D01*
X149135399Y-64045162D01*
X148763433Y-64044838D01*
X148419657Y-64186883D01*
X148156408Y-64449673D01*
X148013762Y-64793201D01*
X148013438Y-65165167D01*
X120592534Y-65165167D01*
X120469029Y-64980330D01*
X119982848Y-64655474D01*
X119409359Y-64541400D01*
X119350641Y-64541400D01*
X118777152Y-64655474D01*
X118290971Y-64980330D01*
X118110008Y-65251161D01*
X117728490Y-64833179D01*
X117199027Y-64585032D01*
X116967000Y-64705531D01*
X116967000Y-65913000D01*
X116987000Y-65913000D01*
X116987000Y-66167000D01*
X116967000Y-66167000D01*
X116967000Y-66187000D01*
X116713000Y-66187000D01*
X116713000Y-66167000D01*
X115506183Y-66167000D01*
X115385042Y-66399026D01*
X115557312Y-66814947D01*
X115951510Y-67246821D01*
X116074228Y-67304336D01*
X115750971Y-67520330D01*
X115426115Y-68006511D01*
X115312041Y-68580000D01*
X105537000Y-68580000D01*
X105537000Y-65680974D01*
X115385042Y-65680974D01*
X115506183Y-65913000D01*
X116713000Y-65913000D01*
X116713000Y-64705531D01*
X116480973Y-64585032D01*
X115951510Y-64833179D01*
X115557312Y-65265053D01*
X115385042Y-65680974D01*
X105537000Y-65680974D01*
X105537000Y-62866017D01*
X105687709Y-63230761D01*
X106437293Y-63981655D01*
X107417173Y-64388536D01*
X108478172Y-64389462D01*
X109458761Y-63984291D01*
X110148565Y-63295690D01*
X151655592Y-63295690D01*
X151820362Y-63694463D01*
X152125193Y-63999826D01*
X152523677Y-64165291D01*
X152955150Y-64165668D01*
X153353923Y-64000898D01*
X153659286Y-63696067D01*
X153824751Y-63297583D01*
X153824752Y-63295690D01*
X156054872Y-63295690D01*
X156219642Y-63694463D01*
X156524473Y-63999826D01*
X156922957Y-64165291D01*
X157354430Y-64165668D01*
X157753203Y-64000898D01*
X158058566Y-63696067D01*
X158224031Y-63297583D01*
X158224408Y-62866110D01*
X158205554Y-62820478D01*
X163921632Y-62820478D01*
X164105348Y-63194361D01*
X164429851Y-63482108D01*
X164839769Y-63623769D01*
X165013900Y-63475103D01*
X165013900Y-62649540D01*
X165267900Y-62649540D01*
X165267900Y-63475103D01*
X165442031Y-63623769D01*
X165851949Y-63482108D01*
X166176452Y-63194361D01*
X166360168Y-62820478D01*
X168921632Y-62820478D01*
X169105348Y-63194361D01*
X169429851Y-63482108D01*
X169839769Y-63623769D01*
X170013900Y-63475103D01*
X170013900Y-62649540D01*
X170267900Y-62649540D01*
X170267900Y-63475103D01*
X170442031Y-63623769D01*
X170851949Y-63482108D01*
X171176452Y-63194361D01*
X171360168Y-62820478D01*
X171233634Y-62649540D01*
X170267900Y-62649540D01*
X170013900Y-62649540D01*
X169048166Y-62649540D01*
X168921632Y-62820478D01*
X166360168Y-62820478D01*
X166233634Y-62649540D01*
X165267900Y-62649540D01*
X165013900Y-62649540D01*
X164048166Y-62649540D01*
X163921632Y-62820478D01*
X158205554Y-62820478D01*
X158059638Y-62467337D01*
X157817326Y-62224602D01*
X163921632Y-62224602D01*
X164048166Y-62395540D01*
X165013900Y-62395540D01*
X165013900Y-61569977D01*
X165267900Y-61569977D01*
X165267900Y-62395540D01*
X166233634Y-62395540D01*
X166360168Y-62224602D01*
X168921632Y-62224602D01*
X169048166Y-62395540D01*
X170013900Y-62395540D01*
X170013900Y-61569977D01*
X170267900Y-61569977D01*
X170267900Y-62395540D01*
X171233634Y-62395540D01*
X171360168Y-62224602D01*
X171176452Y-61850719D01*
X170851949Y-61562972D01*
X170442031Y-61421311D01*
X170267900Y-61569977D01*
X170013900Y-61569977D01*
X169839769Y-61421311D01*
X169429851Y-61562972D01*
X169105348Y-61850719D01*
X168921632Y-62224602D01*
X166360168Y-62224602D01*
X166176452Y-61850719D01*
X165851949Y-61562972D01*
X165442031Y-61421311D01*
X165267900Y-61569977D01*
X165013900Y-61569977D01*
X164839769Y-61421311D01*
X164429851Y-61562972D01*
X164105348Y-61850719D01*
X163921632Y-62224602D01*
X157817326Y-62224602D01*
X157754807Y-62161974D01*
X157356323Y-61996509D01*
X156924850Y-61996132D01*
X156526077Y-62160902D01*
X156220714Y-62465733D01*
X156055249Y-62864217D01*
X156054872Y-63295690D01*
X153824752Y-63295690D01*
X153825128Y-62866110D01*
X153660358Y-62467337D01*
X153355527Y-62161974D01*
X152957043Y-61996509D01*
X152525570Y-61996132D01*
X152126797Y-62160902D01*
X151821434Y-62465733D01*
X151655969Y-62864217D01*
X151655592Y-63295690D01*
X110148565Y-63295690D01*
X110209655Y-63234707D01*
X110616536Y-62254827D01*
X110617462Y-61193828D01*
X110212291Y-60213239D01*
X109949052Y-59949540D01*
X163005900Y-59949540D01*
X163005900Y-60224540D01*
X163140898Y-60649218D01*
X163428137Y-60989908D01*
X163839026Y-61191659D01*
X164013900Y-61065494D01*
X164013900Y-59949540D01*
X164267900Y-59949540D01*
X164267900Y-61065494D01*
X164442774Y-61191659D01*
X164853663Y-60989908D01*
X165140902Y-60649218D01*
X165275900Y-60224540D01*
X165275900Y-59949540D01*
X170005900Y-59949540D01*
X170005900Y-60224540D01*
X170140898Y-60649218D01*
X170428137Y-60989908D01*
X170839026Y-61191659D01*
X171013900Y-61065494D01*
X171013900Y-59949540D01*
X171267900Y-59949540D01*
X171267900Y-61065494D01*
X171442774Y-61191659D01*
X171853663Y-60989908D01*
X172140902Y-60649218D01*
X172275900Y-60224540D01*
X172275900Y-59949540D01*
X171267900Y-59949540D01*
X171013900Y-59949540D01*
X170005900Y-59949540D01*
X165275900Y-59949540D01*
X164267900Y-59949540D01*
X164013900Y-59949540D01*
X163005900Y-59949540D01*
X109949052Y-59949540D01*
X109816743Y-59817000D01*
X180465983Y-59817000D01*
X180101239Y-59967709D01*
X180101239Y-59967709D01*
G37*
X180101239Y-59967709D02*
X179350345Y-60717293D01*
X178943464Y-61697173D01*
X178942538Y-62758172D01*
X179347709Y-63738761D01*
X180097293Y-64489655D01*
X181077173Y-64896536D01*
X182138172Y-64897462D01*
X183118761Y-64492291D01*
X183869655Y-63742707D01*
X184276536Y-62762827D01*
X184277462Y-61701828D01*
X183872291Y-60721239D01*
X183122707Y-59970345D01*
X182753411Y-59817000D01*
X199263000Y-59817000D01*
X199263000Y-78687394D01*
X184060197Y-93890197D01*
X184032334Y-93932211D01*
X184023000Y-93980000D01*
X184023000Y-111885983D01*
X183872291Y-111521239D01*
X183122707Y-110770345D01*
X182142827Y-110363464D01*
X181081828Y-110362538D01*
X180101239Y-110767709D01*
X179350345Y-111517293D01*
X178943464Y-112497173D01*
X178942538Y-113558172D01*
X179347709Y-114538761D01*
X180097293Y-115289655D01*
X181077173Y-115696536D01*
X182138172Y-115697462D01*
X183118761Y-115292291D01*
X183869655Y-114542707D01*
X184023000Y-114173411D01*
X184023000Y-128143000D01*
X120777000Y-128143000D01*
X120777000Y-113558172D01*
X121792538Y-113558172D01*
X122197709Y-114538761D01*
X122947293Y-115289655D01*
X123927173Y-115696536D01*
X124988172Y-115697462D01*
X125968761Y-115292291D01*
X126719655Y-114542707D01*
X127126536Y-113562827D01*
X127127462Y-112501828D01*
X126722291Y-111521239D01*
X125972707Y-110770345D01*
X124992827Y-110363464D01*
X123931828Y-110362538D01*
X122951239Y-110767709D01*
X122200345Y-111517293D01*
X121793464Y-112497173D01*
X121792538Y-113558172D01*
X120777000Y-113558172D01*
X120777000Y-93980000D01*
X120766994Y-93930590D01*
X120739803Y-93890197D01*
X105537000Y-78687394D01*
X105537000Y-68580000D01*
X115312041Y-68580000D01*
X115426115Y-69153489D01*
X115750971Y-69639670D01*
X116065752Y-69850000D01*
X115750971Y-70060330D01*
X115426115Y-70546511D01*
X115312041Y-71120000D01*
X115426115Y-71693489D01*
X115750971Y-72179670D01*
X116031654Y-72367217D01*
X116091658Y-72668874D01*
X116267244Y-72931656D01*
X124885943Y-81550356D01*
X124948325Y-81592038D01*
X125148726Y-81725942D01*
X125458100Y-81787481D01*
X125458100Y-93270559D01*
X125333262Y-93571201D01*
X125332938Y-93943167D01*
X125474983Y-94286943D01*
X125737773Y-94550192D01*
X126081301Y-94692838D01*
X126453267Y-94693162D01*
X126797043Y-94551117D01*
X127060292Y-94288327D01*
X127202938Y-93944799D01*
X127203262Y-93572833D01*
X127078100Y-93269917D01*
X127078100Y-92656183D01*
X127115801Y-92671838D01*
X127487767Y-92672162D01*
X127831543Y-92530117D01*
X128094792Y-92267327D01*
X128218600Y-91969166D01*
X128218600Y-100710698D01*
X127704920Y-101224378D01*
X127659433Y-101224338D01*
X127315657Y-101366383D01*
X127052408Y-101629173D01*
X126909762Y-101972701D01*
X126909438Y-102344667D01*
X127051483Y-102688443D01*
X127314273Y-102951692D01*
X127657801Y-103094338D01*
X128029767Y-103094662D01*
X128373543Y-102952617D01*
X128636792Y-102689827D01*
X128779438Y-102346299D01*
X128779479Y-102299423D01*
X129516001Y-101562901D01*
X129680748Y-101316340D01*
X129738600Y-101025500D01*
X129738600Y-88399302D01*
X130623100Y-87514802D01*
X130623100Y-96340537D01*
X130590908Y-96372673D01*
X130448262Y-96716201D01*
X130447938Y-97088167D01*
X130589983Y-97431943D01*
X130626837Y-97468861D01*
X130470299Y-97625399D01*
X130305552Y-97871961D01*
X130247700Y-98162800D01*
X130247700Y-102792137D01*
X130215508Y-102824273D01*
X130072862Y-103167801D01*
X130072538Y-103539767D01*
X130214583Y-103883543D01*
X130477373Y-104146792D01*
X130820901Y-104289438D01*
X131192867Y-104289762D01*
X131536643Y-104147717D01*
X131799892Y-103884927D01*
X131942538Y-103541399D01*
X131942862Y-103169433D01*
X131800817Y-102825657D01*
X131767700Y-102792482D01*
X131767700Y-99305744D01*
X131903267Y-99305862D01*
X132247043Y-99163817D01*
X132280218Y-99130700D01*
X136155898Y-99130700D01*
X139640420Y-102615222D01*
X139433508Y-102821773D01*
X139290862Y-103165301D01*
X139290538Y-103537267D01*
X139432583Y-103881043D01*
X139695373Y-104144292D01*
X140038901Y-104286938D01*
X140085777Y-104286979D01*
X140210000Y-104411202D01*
X140210000Y-116914633D01*
X140180828Y-116926687D01*
X139788066Y-117318764D01*
X139700046Y-117530738D01*
X139613313Y-117320828D01*
X139221236Y-116928066D01*
X138708700Y-116715242D01*
X138153735Y-116714758D01*
X137640828Y-116926687D01*
X137248066Y-117318764D01*
X137160046Y-117530738D01*
X137073313Y-117320828D01*
X136681236Y-116928066D01*
X136168700Y-116715242D01*
X135613735Y-116714758D01*
X135100828Y-116926687D01*
X134708066Y-117318764D01*
X134620046Y-117530738D01*
X134533313Y-117320828D01*
X134141236Y-116928066D01*
X133628700Y-116715242D01*
X133073735Y-116714758D01*
X132560828Y-116926687D01*
X132168066Y-117318764D01*
X131955242Y-117831300D01*
X131954758Y-118386265D01*
X132117157Y-118779300D01*
X126912000Y-118779300D01*
X126621161Y-118837152D01*
X126374599Y-119001899D01*
X126091177Y-119285321D01*
X126123440Y-119126000D01*
X126123440Y-117094000D01*
X126079162Y-116858683D01*
X125940090Y-116642559D01*
X125727890Y-116497569D01*
X125476000Y-116446560D01*
X123444000Y-116446560D01*
X123208683Y-116490838D01*
X122992559Y-116629910D01*
X122847569Y-116842110D01*
X122796560Y-117094000D01*
X122796560Y-119126000D01*
X122840838Y-119361317D01*
X122979910Y-119577441D01*
X123128837Y-119679198D01*
X122902330Y-120018190D01*
X122776655Y-120650000D01*
X122902330Y-121281810D01*
X123260222Y-121817433D01*
X123795845Y-122175325D01*
X124427655Y-122301000D01*
X124492345Y-122301000D01*
X125124155Y-122175325D01*
X125659778Y-121817433D01*
X125952053Y-121380013D01*
X126092139Y-121352148D01*
X126338701Y-121187401D01*
X126590352Y-120935750D01*
X131955000Y-120935750D01*
X131955000Y-121536310D01*
X132051673Y-121769699D01*
X132230302Y-121948327D01*
X132463691Y-122045000D01*
X133064250Y-122045000D01*
X133223000Y-121886250D01*
X133223000Y-120777000D01*
X132113750Y-120777000D01*
X131955000Y-120935750D01*
X126590352Y-120935750D01*
X127226802Y-120299300D01*
X131955000Y-120299300D01*
X131955000Y-120364250D01*
X132113750Y-120523000D01*
X133223000Y-120523000D01*
X133223000Y-120503000D01*
X133477000Y-120503000D01*
X133477000Y-120523000D01*
X133497000Y-120523000D01*
X133497000Y-120777000D01*
X133477000Y-120777000D01*
X133477000Y-121886250D01*
X133635750Y-122045000D01*
X134236309Y-122045000D01*
X134469698Y-121948327D01*
X134648327Y-121769699D01*
X134706704Y-121628764D01*
X135090841Y-121628764D01*
X135160059Y-121870742D01*
X135682780Y-122057155D01*
X136237049Y-122029341D01*
X136619941Y-121870742D01*
X136689159Y-121628764D01*
X137630841Y-121628764D01*
X137700059Y-121870742D01*
X138222780Y-122057155D01*
X138777049Y-122029341D01*
X139159941Y-121870742D01*
X139229159Y-121628764D01*
X140170841Y-121628764D01*
X140240059Y-121870742D01*
X140762780Y-122057155D01*
X141317049Y-122029341D01*
X141699941Y-121870742D01*
X141769159Y-121628764D01*
X142710841Y-121628764D01*
X142780059Y-121870742D01*
X143302780Y-122057155D01*
X143857049Y-122029341D01*
X144239941Y-121870742D01*
X144309159Y-121628764D01*
X145250841Y-121628764D01*
X145320059Y-121870742D01*
X145842780Y-122057155D01*
X146397049Y-122029341D01*
X146779941Y-121870742D01*
X146849159Y-121628764D01*
X147790841Y-121628764D01*
X147860059Y-121870742D01*
X148382780Y-122057155D01*
X148937049Y-122029341D01*
X149319941Y-121870742D01*
X149389159Y-121628764D01*
X150330841Y-121628764D01*
X150400059Y-121870742D01*
X150922780Y-122057155D01*
X151477049Y-122029341D01*
X151859941Y-121870742D01*
X151929159Y-121628764D01*
X152870841Y-121628764D01*
X152940059Y-121870742D01*
X153462780Y-122057155D01*
X154017049Y-122029341D01*
X154399941Y-121870742D01*
X154469159Y-121628764D01*
X155410841Y-121628764D01*
X155480059Y-121870742D01*
X156002780Y-122057155D01*
X156557049Y-122029341D01*
X156939941Y-121870742D01*
X157009159Y-121628764D01*
X157950841Y-121628764D01*
X158020059Y-121870742D01*
X158542780Y-122057155D01*
X159097049Y-122029341D01*
X159479941Y-121870742D01*
X159549159Y-121628764D01*
X160490841Y-121628764D01*
X160560059Y-121870742D01*
X161082780Y-122057155D01*
X161637049Y-122029341D01*
X162019941Y-121870742D01*
X162089159Y-121628764D01*
X163030841Y-121628764D01*
X163100059Y-121870742D01*
X163622780Y-122057155D01*
X164177049Y-122029341D01*
X164559941Y-121870742D01*
X164629159Y-121628764D01*
X165570841Y-121628764D01*
X165640059Y-121870742D01*
X166162780Y-122057155D01*
X166717049Y-122029341D01*
X167099941Y-121870742D01*
X167169159Y-121628764D01*
X168110841Y-121628764D01*
X168180059Y-121870742D01*
X168702780Y-122057155D01*
X169257049Y-122029341D01*
X169639941Y-121870742D01*
X169709159Y-121628764D01*
X170650841Y-121628764D01*
X170720059Y-121870742D01*
X171242780Y-122057155D01*
X171797049Y-122029341D01*
X172179941Y-121870742D01*
X172249159Y-121628764D01*
X173190841Y-121628764D01*
X173260059Y-121870742D01*
X173782780Y-122057155D01*
X174337049Y-122029341D01*
X174719941Y-121870742D01*
X174789159Y-121628764D01*
X173990000Y-120829605D01*
X173190841Y-121628764D01*
X172249159Y-121628764D01*
X171450000Y-120829605D01*
X170650841Y-121628764D01*
X169709159Y-121628764D01*
X168910000Y-120829605D01*
X168110841Y-121628764D01*
X167169159Y-121628764D01*
X166370000Y-120829605D01*
X165570841Y-121628764D01*
X164629159Y-121628764D01*
X163830000Y-120829605D01*
X163030841Y-121628764D01*
X162089159Y-121628764D01*
X161290000Y-120829605D01*
X160490841Y-121628764D01*
X159549159Y-121628764D01*
X158750000Y-120829605D01*
X157950841Y-121628764D01*
X157009159Y-121628764D01*
X156210000Y-120829605D01*
X155410841Y-121628764D01*
X154469159Y-121628764D01*
X153670000Y-120829605D01*
X152870841Y-121628764D01*
X151929159Y-121628764D01*
X151130000Y-120829605D01*
X150330841Y-121628764D01*
X149389159Y-121628764D01*
X148590000Y-120829605D01*
X147790841Y-121628764D01*
X146849159Y-121628764D01*
X146050000Y-120829605D01*
X145250841Y-121628764D01*
X144309159Y-121628764D01*
X143510000Y-120829605D01*
X142710841Y-121628764D01*
X141769159Y-121628764D01*
X140970000Y-120829605D01*
X140170841Y-121628764D01*
X139229159Y-121628764D01*
X138430000Y-120829605D01*
X137630841Y-121628764D01*
X136689159Y-121628764D01*
X135890000Y-120829605D01*
X135090841Y-121628764D01*
X134706704Y-121628764D01*
X134745000Y-121536310D01*
X134745000Y-121401607D01*
X134911236Y-121449159D01*
X135710395Y-120650000D01*
X135696253Y-120635858D01*
X135875858Y-120456253D01*
X135890000Y-120470395D01*
X135904143Y-120456253D01*
X136083748Y-120635858D01*
X136069605Y-120650000D01*
X136868764Y-121449159D01*
X137110742Y-121379941D01*
X137156320Y-121252137D01*
X137209258Y-121379941D01*
X137451236Y-121449159D01*
X138250395Y-120650000D01*
X138236253Y-120635858D01*
X138415858Y-120456253D01*
X138430000Y-120470395D01*
X138444143Y-120456253D01*
X138623748Y-120635858D01*
X138609605Y-120650000D01*
X139408764Y-121449159D01*
X139650742Y-121379941D01*
X139696320Y-121252137D01*
X139749258Y-121379941D01*
X139991236Y-121449159D01*
X140790395Y-120650000D01*
X140776253Y-120635858D01*
X140955858Y-120456253D01*
X140970000Y-120470395D01*
X140984143Y-120456253D01*
X141163748Y-120635858D01*
X141149605Y-120650000D01*
X141948764Y-121449159D01*
X142190742Y-121379941D01*
X142236320Y-121252137D01*
X142289258Y-121379941D01*
X142531236Y-121449159D01*
X143330395Y-120650000D01*
X143689605Y-120650000D01*
X144488764Y-121449159D01*
X144730742Y-121379941D01*
X144776320Y-121252137D01*
X144829258Y-121379941D01*
X145071236Y-121449159D01*
X145870395Y-120650000D01*
X146229605Y-120650000D01*
X147028764Y-121449159D01*
X147270742Y-121379941D01*
X147316320Y-121252137D01*
X147369258Y-121379941D01*
X147611236Y-121449159D01*
X148410395Y-120650000D01*
X148769605Y-120650000D01*
X149568764Y-121449159D01*
X149810742Y-121379941D01*
X149856320Y-121252137D01*
X149909258Y-121379941D01*
X150151236Y-121449159D01*
X150950395Y-120650000D01*
X151309605Y-120650000D01*
X152108764Y-121449159D01*
X152350742Y-121379941D01*
X152396320Y-121252137D01*
X152449258Y-121379941D01*
X152691236Y-121449159D01*
X153490395Y-120650000D01*
X153849605Y-120650000D01*
X154648764Y-121449159D01*
X154890742Y-121379941D01*
X154936320Y-121252137D01*
X154989258Y-121379941D01*
X155231236Y-121449159D01*
X156030395Y-120650000D01*
X156389605Y-120650000D01*
X157188764Y-121449159D01*
X157430742Y-121379941D01*
X157476320Y-121252137D01*
X157529258Y-121379941D01*
X157771236Y-121449159D01*
X158570395Y-120650000D01*
X158929605Y-120650000D01*
X159728764Y-121449159D01*
X159970742Y-121379941D01*
X160016320Y-121252137D01*
X160069258Y-121379941D01*
X160311236Y-121449159D01*
X161110395Y-120650000D01*
X161469605Y-120650000D01*
X162268764Y-121449159D01*
X162510742Y-121379941D01*
X162556320Y-121252137D01*
X162609258Y-121379941D01*
X162851236Y-121449159D01*
X163650395Y-120650000D01*
X164009605Y-120650000D01*
X164808764Y-121449159D01*
X165050742Y-121379941D01*
X165096320Y-121252137D01*
X165149258Y-121379941D01*
X165391236Y-121449159D01*
X166190395Y-120650000D01*
X166549605Y-120650000D01*
X167348764Y-121449159D01*
X167590742Y-121379941D01*
X167636320Y-121252137D01*
X167689258Y-121379941D01*
X167931236Y-121449159D01*
X168730395Y-120650000D01*
X169089605Y-120650000D01*
X169888764Y-121449159D01*
X170130742Y-121379941D01*
X170176320Y-121252137D01*
X170229258Y-121379941D01*
X170471236Y-121449159D01*
X171270395Y-120650000D01*
X171629605Y-120650000D01*
X172428764Y-121449159D01*
X172670742Y-121379941D01*
X172716320Y-121252137D01*
X172769258Y-121379941D01*
X173011236Y-121449159D01*
X173810395Y-120650000D01*
X174169605Y-120650000D01*
X174968764Y-121449159D01*
X175210742Y-121379941D01*
X175397155Y-120857220D01*
X175369341Y-120302951D01*
X175210742Y-119920059D01*
X174968764Y-119850841D01*
X174169605Y-120650000D01*
X173810395Y-120650000D01*
X173011236Y-119850841D01*
X172769258Y-119920059D01*
X172723680Y-120047863D01*
X172670742Y-119920059D01*
X172428764Y-119850841D01*
X171629605Y-120650000D01*
X171270395Y-120650000D01*
X170471236Y-119850841D01*
X170229258Y-119920059D01*
X170183680Y-120047863D01*
X170130742Y-119920059D01*
X169888764Y-119850841D01*
X169089605Y-120650000D01*
X168730395Y-120650000D01*
X167931236Y-119850841D01*
X167689258Y-119920059D01*
X167643680Y-120047863D01*
X167590742Y-119920059D01*
X167348764Y-119850841D01*
X166549605Y-120650000D01*
X166190395Y-120650000D01*
X165391236Y-119850841D01*
X165149258Y-119920059D01*
X165103680Y-120047863D01*
X165050742Y-119920059D01*
X164808764Y-119850841D01*
X164009605Y-120650000D01*
X163650395Y-120650000D01*
X162851236Y-119850841D01*
X162609258Y-119920059D01*
X162563680Y-120047863D01*
X162510742Y-119920059D01*
X162268764Y-119850841D01*
X161469605Y-120650000D01*
X161110395Y-120650000D01*
X160311236Y-119850841D01*
X160069258Y-119920059D01*
X160023680Y-120047863D01*
X159970742Y-119920059D01*
X159728764Y-119850841D01*
X158929605Y-120650000D01*
X158570395Y-120650000D01*
X157771236Y-119850841D01*
X157529258Y-119920059D01*
X157483680Y-120047863D01*
X157430742Y-119920059D01*
X157188764Y-119850841D01*
X156389605Y-120650000D01*
X156030395Y-120650000D01*
X155231236Y-119850841D01*
X154989258Y-119920059D01*
X154943680Y-120047863D01*
X154890742Y-119920059D01*
X154648764Y-119850841D01*
X153849605Y-120650000D01*
X153490395Y-120650000D01*
X152691236Y-119850841D01*
X152449258Y-119920059D01*
X152403680Y-120047863D01*
X152350742Y-119920059D01*
X152108764Y-119850841D01*
X151309605Y-120650000D01*
X150950395Y-120650000D01*
X150151236Y-119850841D01*
X149909258Y-119920059D01*
X149863680Y-120047863D01*
X149810742Y-119920059D01*
X149568764Y-119850841D01*
X148769605Y-120650000D01*
X148410395Y-120650000D01*
X147611236Y-119850841D01*
X147369258Y-119920059D01*
X147323680Y-120047863D01*
X147270742Y-119920059D01*
X147028764Y-119850841D01*
X146229605Y-120650000D01*
X145870395Y-120650000D01*
X145071236Y-119850841D01*
X144829258Y-119920059D01*
X144783680Y-120047863D01*
X144730742Y-119920059D01*
X144488764Y-119850841D01*
X143689605Y-120650000D01*
X143330395Y-120650000D01*
X143316253Y-120635858D01*
X143495858Y-120456253D01*
X143510000Y-120470395D01*
X144309159Y-119671236D01*
X144239941Y-119429258D01*
X144095138Y-119377618D01*
X144299172Y-119293313D01*
X144691934Y-118901236D01*
X144779954Y-118689262D01*
X144866687Y-118899172D01*
X145258764Y-119291934D01*
X145454934Y-119373391D01*
X145320059Y-119429258D01*
X145250841Y-119671236D01*
X146050000Y-120470395D01*
X146849159Y-119671236D01*
X146779941Y-119429258D01*
X146635138Y-119377618D01*
X146839172Y-119293313D01*
X147231934Y-118901236D01*
X147319954Y-118689262D01*
X147406687Y-118899172D01*
X147798764Y-119291934D01*
X147994934Y-119373391D01*
X147860059Y-119429258D01*
X147790841Y-119671236D01*
X148590000Y-120470395D01*
X149389159Y-119671236D01*
X149319941Y-119429258D01*
X149175138Y-119377618D01*
X149379172Y-119293313D01*
X149771934Y-118901236D01*
X149859954Y-118689262D01*
X149946687Y-118899172D01*
X150338764Y-119291934D01*
X150534934Y-119373391D01*
X150400059Y-119429258D01*
X150330841Y-119671236D01*
X151130000Y-120470395D01*
X151929159Y-119671236D01*
X151859941Y-119429258D01*
X151715138Y-119377618D01*
X151919172Y-119293313D01*
X152311934Y-118901236D01*
X152399954Y-118689262D01*
X152486687Y-118899172D01*
X152878764Y-119291934D01*
X153074934Y-119373391D01*
X152940059Y-119429258D01*
X152870841Y-119671236D01*
X153670000Y-120470395D01*
X154469159Y-119671236D01*
X154399941Y-119429258D01*
X154255138Y-119377618D01*
X154459172Y-119293313D01*
X154851934Y-118901236D01*
X154939954Y-118689262D01*
X155026687Y-118899172D01*
X155418764Y-119291934D01*
X155614934Y-119373391D01*
X155480059Y-119429258D01*
X155410841Y-119671236D01*
X156210000Y-120470395D01*
X157009159Y-119671236D01*
X156939941Y-119429258D01*
X156795138Y-119377618D01*
X156999172Y-119293313D01*
X157391934Y-118901236D01*
X157479954Y-118689262D01*
X157566687Y-118899172D01*
X157958764Y-119291934D01*
X158154934Y-119373391D01*
X158020059Y-119429258D01*
X157950841Y-119671236D01*
X158750000Y-120470395D01*
X159549159Y-119671236D01*
X159479941Y-119429258D01*
X159335138Y-119377618D01*
X159539172Y-119293313D01*
X159931934Y-118901236D01*
X160019954Y-118689262D01*
X160106687Y-118899172D01*
X160498764Y-119291934D01*
X160694934Y-119373391D01*
X160560059Y-119429258D01*
X160490841Y-119671236D01*
X161290000Y-120470395D01*
X162089159Y-119671236D01*
X162019941Y-119429258D01*
X161875138Y-119377618D01*
X162079172Y-119293313D01*
X162471934Y-118901236D01*
X162559954Y-118689262D01*
X162646687Y-118899172D01*
X163038764Y-119291934D01*
X163234934Y-119373391D01*
X163100059Y-119429258D01*
X163030841Y-119671236D01*
X163830000Y-120470395D01*
X164629159Y-119671236D01*
X164559941Y-119429258D01*
X164415138Y-119377618D01*
X164619172Y-119293313D01*
X165011934Y-118901236D01*
X165099954Y-118689262D01*
X165186687Y-118899172D01*
X165578764Y-119291934D01*
X165774934Y-119373391D01*
X165640059Y-119429258D01*
X165570841Y-119671236D01*
X166370000Y-120470395D01*
X167169159Y-119671236D01*
X167099941Y-119429258D01*
X166955138Y-119377618D01*
X167159172Y-119293313D01*
X167551934Y-118901236D01*
X167639954Y-118689262D01*
X167726687Y-118899172D01*
X168118764Y-119291934D01*
X168314934Y-119373391D01*
X168180059Y-119429258D01*
X168110841Y-119671236D01*
X168910000Y-120470395D01*
X169709159Y-119671236D01*
X169639941Y-119429258D01*
X169495138Y-119377618D01*
X169699172Y-119293313D01*
X170091934Y-118901236D01*
X170179954Y-118689262D01*
X170266687Y-118899172D01*
X170658764Y-119291934D01*
X170854934Y-119373391D01*
X170720059Y-119429258D01*
X170650841Y-119671236D01*
X171450000Y-120470395D01*
X172249159Y-119671236D01*
X172179941Y-119429258D01*
X172035138Y-119377618D01*
X172239172Y-119293313D01*
X172631934Y-118901236D01*
X172719954Y-118689262D01*
X172806687Y-118899172D01*
X173198764Y-119291934D01*
X173394934Y-119373391D01*
X173260059Y-119429258D01*
X173190841Y-119671236D01*
X173990000Y-120470395D01*
X174789159Y-119671236D01*
X174719941Y-119429258D01*
X174575138Y-119377618D01*
X174779172Y-119293313D01*
X175171934Y-118901236D01*
X175384758Y-118388700D01*
X175385242Y-117833735D01*
X175173313Y-117320828D01*
X174781236Y-116928066D01*
X174268700Y-116715242D01*
X173713735Y-116714758D01*
X173200828Y-116926687D01*
X172808066Y-117318764D01*
X172720046Y-117530738D01*
X172633313Y-117320828D01*
X172241236Y-116928066D01*
X171728700Y-116715242D01*
X171173735Y-116714758D01*
X170660828Y-116926687D01*
X170268066Y-117318764D01*
X170180046Y-117530738D01*
X170093313Y-117320828D01*
X169701236Y-116928066D01*
X169670000Y-116915096D01*
X169670000Y-101723800D01*
X169612148Y-101432961D01*
X169447401Y-101186399D01*
X165879322Y-97618320D01*
X165879362Y-97572833D01*
X165737317Y-97229057D01*
X165474527Y-96965808D01*
X165130999Y-96823162D01*
X164759033Y-96822838D01*
X164415257Y-96964883D01*
X164152008Y-97227673D01*
X164009362Y-97571201D01*
X164009038Y-97943167D01*
X164151083Y-98286943D01*
X164413873Y-98550192D01*
X164757401Y-98692838D01*
X164804277Y-98692879D01*
X168150000Y-102038602D01*
X168150000Y-116914633D01*
X168120828Y-116926687D01*
X167728066Y-117318764D01*
X167640046Y-117530738D01*
X167553313Y-117320828D01*
X167161236Y-116928066D01*
X166648700Y-116715242D01*
X166093735Y-116714758D01*
X166062476Y-116727674D01*
X158615522Y-109280720D01*
X158615562Y-109235233D01*
X158473517Y-108891457D01*
X158210727Y-108628208D01*
X157867199Y-108485562D01*
X157495233Y-108485238D01*
X157151457Y-108627283D01*
X156888208Y-108890073D01*
X156745562Y-109233601D01*
X156745492Y-109313690D01*
X145204701Y-97772899D01*
X144958139Y-97608152D01*
X144667300Y-97550300D01*
X140764563Y-97550300D01*
X140732427Y-97518108D01*
X140680125Y-97496390D01*
X140728538Y-97379799D01*
X140728862Y-97007833D01*
X140586817Y-96664057D01*
X140324027Y-96400808D01*
X139980499Y-96258162D01*
X139933623Y-96258121D01*
X135880300Y-92204798D01*
X135880300Y-85112463D01*
X135912492Y-85080327D01*
X136055138Y-84736799D01*
X136055462Y-84364833D01*
X135913417Y-84021057D01*
X135718102Y-83825400D01*
X137268000Y-82275502D01*
X137268000Y-84925537D01*
X137235808Y-84957673D01*
X137093162Y-85301201D01*
X137092838Y-85673167D01*
X137234883Y-86016943D01*
X137497673Y-86280192D01*
X137841201Y-86422838D01*
X138213167Y-86423162D01*
X138556943Y-86281117D01*
X138687947Y-86150341D01*
X138816973Y-86279592D01*
X139160501Y-86422238D01*
X139532467Y-86422562D01*
X139876243Y-86280517D01*
X140120795Y-86036391D01*
X140120538Y-86331567D01*
X140262583Y-86675343D01*
X140295700Y-86708518D01*
X140295700Y-87495791D01*
X140118027Y-87317808D01*
X139774499Y-87175162D01*
X139402533Y-87174838D01*
X139058757Y-87316883D01*
X138795508Y-87579673D01*
X138652862Y-87923201D01*
X138652538Y-88295167D01*
X138794583Y-88638943D01*
X138827700Y-88672118D01*
X138827700Y-89365500D01*
X138885552Y-89656339D01*
X139050299Y-89902901D01*
X146501478Y-97354080D01*
X146501438Y-97399567D01*
X146643483Y-97743343D01*
X146906273Y-98006592D01*
X147249801Y-98149238D01*
X147621767Y-98149562D01*
X147965543Y-98007517D01*
X148228792Y-97744727D01*
X148371438Y-97401199D01*
X148371762Y-97029233D01*
X148229717Y-96685457D01*
X147966927Y-96422208D01*
X147623399Y-96279562D01*
X147576523Y-96279521D01*
X144080496Y-92783494D01*
X144339643Y-92676417D01*
X144602892Y-92413627D01*
X144745538Y-92070099D01*
X144745862Y-91698133D01*
X144603817Y-91354357D01*
X144341027Y-91091108D01*
X143997499Y-90948462D01*
X143950623Y-90948421D01*
X141815700Y-88813498D01*
X141815700Y-86708863D01*
X141847892Y-86676727D01*
X141966878Y-86390180D01*
X155012778Y-99436080D01*
X155012738Y-99481567D01*
X155154783Y-99825343D01*
X155417573Y-100088592D01*
X155761101Y-100231238D01*
X156133067Y-100231562D01*
X156476843Y-100089517D01*
X156740092Y-99826727D01*
X156882738Y-99483199D01*
X156883062Y-99111233D01*
X156741017Y-98767457D01*
X156478227Y-98504208D01*
X156134699Y-98361562D01*
X156087823Y-98361521D01*
X144941771Y-87215469D01*
X144987492Y-87169827D01*
X145130138Y-86826299D01*
X145130462Y-86454333D01*
X144988417Y-86110557D01*
X144955300Y-86077382D01*
X144955300Y-84752200D01*
X144897448Y-84461361D01*
X144732701Y-84214799D01*
X141035422Y-80517520D01*
X141035462Y-80472033D01*
X141000245Y-80386800D01*
X147755198Y-80386800D01*
X163190378Y-95821980D01*
X163190338Y-95867467D01*
X163332383Y-96211243D01*
X163595173Y-96474492D01*
X163938701Y-96617138D01*
X164310667Y-96617462D01*
X164654443Y-96475417D01*
X164917692Y-96212627D01*
X165060338Y-95869099D01*
X165060662Y-95497133D01*
X164918617Y-95153357D01*
X164655827Y-94890108D01*
X164312299Y-94747462D01*
X164265423Y-94747421D01*
X148607401Y-79089399D01*
X148360839Y-78924652D01*
X148070000Y-78866800D01*
X142345059Y-78866800D01*
X142345162Y-78748033D01*
X142203117Y-78404257D01*
X142170000Y-78371082D01*
X142170000Y-77787902D01*
X142513980Y-77443922D01*
X142559467Y-77443962D01*
X142903243Y-77301917D01*
X143166492Y-77039127D01*
X143309138Y-76695599D01*
X143309462Y-76323633D01*
X143167417Y-75979857D01*
X142904627Y-75716608D01*
X142561099Y-75573962D01*
X142189133Y-75573638D01*
X141845357Y-75715683D01*
X141582108Y-75978473D01*
X141439462Y-76322001D01*
X141439421Y-76368877D01*
X140872599Y-76935699D01*
X140707852Y-77182261D01*
X140650000Y-77473100D01*
X140650000Y-78370737D01*
X140617808Y-78402873D01*
X140475162Y-78746401D01*
X140475132Y-78781044D01*
X140260599Y-78691962D01*
X140107300Y-78691828D01*
X140107300Y-74273539D01*
X140122839Y-74270448D01*
X140369401Y-74105701D01*
X145363280Y-69111822D01*
X145408767Y-69111862D01*
X145752543Y-68969817D01*
X146015792Y-68707027D01*
X146158438Y-68363499D01*
X146158762Y-67991533D01*
X146016717Y-67647757D01*
X145753927Y-67384508D01*
X145410399Y-67241862D01*
X145038433Y-67241538D01*
X144694657Y-67383583D01*
X144431408Y-67646373D01*
X144288762Y-67989901D01*
X144288721Y-68036777D01*
X139517198Y-72808300D01*
X136318263Y-72808300D01*
X136286127Y-72776108D01*
X135942599Y-72633462D01*
X135570633Y-72633138D01*
X135226857Y-72775183D01*
X134963608Y-73037973D01*
X134820962Y-73381501D01*
X134820638Y-73753467D01*
X134839346Y-73798744D01*
X134459722Y-73419120D01*
X134459762Y-73373633D01*
X134317717Y-73029857D01*
X134054927Y-72766608D01*
X133711399Y-72623962D01*
X133339433Y-72623638D01*
X132995657Y-72765683D01*
X132732408Y-73028473D01*
X132589762Y-73372001D01*
X132589578Y-73582976D01*
X125858601Y-66851999D01*
X125612039Y-66687252D01*
X125321200Y-66629400D01*
X120783254Y-66629400D01*
X120793885Y-66613489D01*
X120907959Y-66040000D01*
X120793885Y-65466511D01*
X120592534Y-65165167D01*
X148013438Y-65165167D01*
X148155483Y-65508943D01*
X148418273Y-65772192D01*
X148761801Y-65914838D01*
X149133767Y-65915162D01*
X149477543Y-65773117D01*
X149510718Y-65740000D01*
X151722098Y-65740000D01*
X154241578Y-68259480D01*
X154241538Y-68304967D01*
X154383583Y-68648743D01*
X154646373Y-68911992D01*
X154989901Y-69054638D01*
X155361867Y-69054962D01*
X155368900Y-69052056D01*
X155368900Y-77141968D01*
X154940000Y-77056655D01*
X154366511Y-77170729D01*
X153880330Y-77495585D01*
X153555474Y-77981766D01*
X153441400Y-78555255D01*
X153441400Y-78924745D01*
X153555474Y-79498234D01*
X153880330Y-79984415D01*
X154366511Y-80309271D01*
X154940000Y-80423345D01*
X155513489Y-80309271D01*
X155999670Y-79984415D01*
X156210000Y-79669634D01*
X156420330Y-79984415D01*
X156906511Y-80309271D01*
X157480000Y-80423345D01*
X158053489Y-80309271D01*
X158539670Y-79984415D01*
X158549243Y-79970087D01*
X158553238Y-79991317D01*
X158692310Y-80207441D01*
X158904510Y-80352431D01*
X159156400Y-80403440D01*
X160883600Y-80403440D01*
X161118917Y-80359162D01*
X161335041Y-80220090D01*
X161480031Y-80007890D01*
X161531040Y-79756000D01*
X161531040Y-79500000D01*
X162326298Y-79500000D01*
X172263699Y-89437401D01*
X172478960Y-89581233D01*
X172478960Y-89916000D01*
X172523238Y-90151317D01*
X172662310Y-90367441D01*
X172874510Y-90512431D01*
X173126400Y-90563440D01*
X174853600Y-90563440D01*
X175088917Y-90519162D01*
X175305041Y-90380090D01*
X175450031Y-90167890D01*
X175469232Y-90073073D01*
X175627964Y-90250732D01*
X176155209Y-90504709D01*
X176170974Y-90507358D01*
X176403000Y-90386217D01*
X176403000Y-89027000D01*
X176657000Y-89027000D01*
X176657000Y-90386217D01*
X176889026Y-90507358D01*
X176904791Y-90504709D01*
X177432036Y-90250732D01*
X177800000Y-89838892D01*
X178167964Y-90250732D01*
X178695209Y-90504709D01*
X178710974Y-90507358D01*
X178943000Y-90386217D01*
X178943000Y-89027000D01*
X176657000Y-89027000D01*
X176403000Y-89027000D01*
X176383000Y-89027000D01*
X176383000Y-88773000D01*
X176403000Y-88773000D01*
X176403000Y-88753000D01*
X176657000Y-88753000D01*
X176657000Y-88773000D01*
X178943000Y-88773000D01*
X178943000Y-87413783D01*
X179197000Y-87413783D01*
X179197000Y-88773000D01*
X179217000Y-88773000D01*
X179217000Y-89027000D01*
X179197000Y-89027000D01*
X179197000Y-90386217D01*
X179429026Y-90507358D01*
X179444791Y-90504709D01*
X179972036Y-90250732D01*
X180343539Y-89834931D01*
X180550330Y-90144415D01*
X181036511Y-90469271D01*
X181610000Y-90583345D01*
X182183489Y-90469271D01*
X182669670Y-90144415D01*
X182994526Y-89658234D01*
X183108600Y-89084745D01*
X183108600Y-88715255D01*
X182994526Y-88141766D01*
X182669670Y-87655585D01*
X182183489Y-87330729D01*
X181610000Y-87216655D01*
X181036511Y-87330729D01*
X180550330Y-87655585D01*
X180343539Y-87965069D01*
X179972036Y-87549268D01*
X179444791Y-87295291D01*
X179429026Y-87292642D01*
X179197000Y-87413783D01*
X178943000Y-87413783D01*
X178710974Y-87292642D01*
X178695209Y-87295291D01*
X178167964Y-87549268D01*
X177800000Y-87961108D01*
X177432036Y-87549268D01*
X177197373Y-87436229D01*
X189742602Y-74891000D01*
X193170200Y-74891000D01*
X193461039Y-74833148D01*
X193707601Y-74668401D01*
X195922964Y-72453038D01*
X196276511Y-72689271D01*
X196850000Y-72803345D01*
X197423489Y-72689271D01*
X197909670Y-72364415D01*
X198234526Y-71878234D01*
X198348600Y-71304745D01*
X198348600Y-70935255D01*
X198234526Y-70361766D01*
X197909670Y-69875585D01*
X197423489Y-69550729D01*
X196850000Y-69436655D01*
X196276511Y-69550729D01*
X195790330Y-69875585D01*
X195583539Y-70185069D01*
X195212036Y-69769268D01*
X194684791Y-69515291D01*
X194669026Y-69512642D01*
X194437000Y-69633783D01*
X194437000Y-70993000D01*
X194457000Y-70993000D01*
X194457000Y-71247000D01*
X194437000Y-71247000D01*
X194437000Y-71267000D01*
X194183000Y-71267000D01*
X194183000Y-71247000D01*
X191897000Y-71247000D01*
X191897000Y-72606217D01*
X192129026Y-72727358D01*
X192144791Y-72724709D01*
X192672036Y-72470732D01*
X193040000Y-72058892D01*
X193407964Y-72470732D01*
X193642627Y-72583771D01*
X192855398Y-73371000D01*
X189427800Y-73371000D01*
X189136961Y-73428852D01*
X188890399Y-73593599D01*
X175159515Y-87324483D01*
X175105490Y-87287569D01*
X174853600Y-87236560D01*
X173126400Y-87236560D01*
X172891083Y-87280838D01*
X172674959Y-87419910D01*
X172561648Y-87585746D01*
X163178501Y-78202599D01*
X162931939Y-78037852D01*
X162641100Y-77980000D01*
X161531040Y-77980000D01*
X161531040Y-77724000D01*
X161486762Y-77488683D01*
X161347690Y-77272559D01*
X161135490Y-77127569D01*
X160883600Y-77076560D01*
X159156400Y-77076560D01*
X158921083Y-77120838D01*
X158704959Y-77259910D01*
X158559969Y-77472110D01*
X158551600Y-77513439D01*
X158539670Y-77495585D01*
X158053489Y-77170729D01*
X157480000Y-77056655D01*
X156906511Y-77170729D01*
X156888900Y-77182496D01*
X156888900Y-70104000D01*
X187718960Y-70104000D01*
X187718960Y-72136000D01*
X187763238Y-72371317D01*
X187902310Y-72587441D01*
X188114510Y-72732431D01*
X188366400Y-72783440D01*
X190093600Y-72783440D01*
X190328917Y-72739162D01*
X190545041Y-72600090D01*
X190690031Y-72387890D01*
X190709232Y-72293073D01*
X190867964Y-72470732D01*
X191395209Y-72724709D01*
X191410974Y-72727358D01*
X191643000Y-72606217D01*
X191643000Y-71247000D01*
X191623000Y-71247000D01*
X191623000Y-70993000D01*
X191643000Y-70993000D01*
X191643000Y-69633783D01*
X191897000Y-69633783D01*
X191897000Y-70993000D01*
X194183000Y-70993000D01*
X194183000Y-69633783D01*
X193950974Y-69512642D01*
X193935209Y-69515291D01*
X193407964Y-69769268D01*
X193040000Y-70181108D01*
X192672036Y-69769268D01*
X192144791Y-69515291D01*
X192129026Y-69512642D01*
X191897000Y-69633783D01*
X191643000Y-69633783D01*
X191410974Y-69512642D01*
X191395209Y-69515291D01*
X190867964Y-69769268D01*
X190711093Y-69944845D01*
X190696762Y-69868683D01*
X190557690Y-69652559D01*
X190345490Y-69507569D01*
X190093600Y-69456560D01*
X188366400Y-69456560D01*
X188131083Y-69500838D01*
X187914959Y-69639910D01*
X187769969Y-69852110D01*
X187718960Y-70104000D01*
X156888900Y-70104000D01*
X156888900Y-68804700D01*
X164001800Y-68804700D01*
X164292639Y-68746848D01*
X164539201Y-68582101D01*
X165381580Y-67739722D01*
X165427067Y-67739762D01*
X165770843Y-67597717D01*
X166034092Y-67334927D01*
X166176738Y-66991399D01*
X166177062Y-66619433D01*
X166035017Y-66275657D01*
X165897025Y-66137424D01*
X166036638Y-65801199D01*
X166036962Y-65429233D01*
X165894917Y-65085457D01*
X165632127Y-64822208D01*
X165288599Y-64679562D01*
X165241723Y-64679521D01*
X164030101Y-63467899D01*
X163783539Y-63303152D01*
X163567894Y-63260257D01*
X163520827Y-63213108D01*
X163177299Y-63070462D01*
X162805333Y-63070138D01*
X162461557Y-63212183D01*
X162198308Y-63474973D01*
X162055662Y-63818501D01*
X162055338Y-64190467D01*
X162197383Y-64534243D01*
X162460173Y-64797492D01*
X162803701Y-64940138D01*
X163175667Y-64940462D01*
X163301194Y-64888596D01*
X164166678Y-65754080D01*
X164166638Y-65799567D01*
X164308683Y-66143343D01*
X164446675Y-66281576D01*
X164307062Y-66617801D01*
X164307021Y-66664677D01*
X163686998Y-67284700D01*
X156691363Y-67284700D01*
X156659227Y-67252508D01*
X156315699Y-67109862D01*
X155943733Y-67109538D01*
X155599957Y-67251583D01*
X155577626Y-67273876D01*
X155363499Y-67184962D01*
X155316623Y-67184921D01*
X152574301Y-64442599D01*
X152327739Y-64277852D01*
X152036900Y-64220000D01*
X149511063Y-64220000D01*
X149478927Y-64187808D01*
X149135399Y-64045162D01*
X148763433Y-64044838D01*
X148419657Y-64186883D01*
X148156408Y-64449673D01*
X148013762Y-64793201D01*
X148013438Y-65165167D01*
X120592534Y-65165167D01*
X120469029Y-64980330D01*
X119982848Y-64655474D01*
X119409359Y-64541400D01*
X119350641Y-64541400D01*
X118777152Y-64655474D01*
X118290971Y-64980330D01*
X118110008Y-65251161D01*
X117728490Y-64833179D01*
X117199027Y-64585032D01*
X116967000Y-64705531D01*
X116967000Y-65913000D01*
X116987000Y-65913000D01*
X116987000Y-66167000D01*
X116967000Y-66167000D01*
X116967000Y-66187000D01*
X116713000Y-66187000D01*
X116713000Y-66167000D01*
X115506183Y-66167000D01*
X115385042Y-66399026D01*
X115557312Y-66814947D01*
X115951510Y-67246821D01*
X116074228Y-67304336D01*
X115750971Y-67520330D01*
X115426115Y-68006511D01*
X115312041Y-68580000D01*
X105537000Y-68580000D01*
X105537000Y-65680974D01*
X115385042Y-65680974D01*
X115506183Y-65913000D01*
X116713000Y-65913000D01*
X116713000Y-64705531D01*
X116480973Y-64585032D01*
X115951510Y-64833179D01*
X115557312Y-65265053D01*
X115385042Y-65680974D01*
X105537000Y-65680974D01*
X105537000Y-62866017D01*
X105687709Y-63230761D01*
X106437293Y-63981655D01*
X107417173Y-64388536D01*
X108478172Y-64389462D01*
X109458761Y-63984291D01*
X110148565Y-63295690D01*
X151655592Y-63295690D01*
X151820362Y-63694463D01*
X152125193Y-63999826D01*
X152523677Y-64165291D01*
X152955150Y-64165668D01*
X153353923Y-64000898D01*
X153659286Y-63696067D01*
X153824751Y-63297583D01*
X153824752Y-63295690D01*
X156054872Y-63295690D01*
X156219642Y-63694463D01*
X156524473Y-63999826D01*
X156922957Y-64165291D01*
X157354430Y-64165668D01*
X157753203Y-64000898D01*
X158058566Y-63696067D01*
X158224031Y-63297583D01*
X158224408Y-62866110D01*
X158205554Y-62820478D01*
X163921632Y-62820478D01*
X164105348Y-63194361D01*
X164429851Y-63482108D01*
X164839769Y-63623769D01*
X165013900Y-63475103D01*
X165013900Y-62649540D01*
X165267900Y-62649540D01*
X165267900Y-63475103D01*
X165442031Y-63623769D01*
X165851949Y-63482108D01*
X166176452Y-63194361D01*
X166360168Y-62820478D01*
X168921632Y-62820478D01*
X169105348Y-63194361D01*
X169429851Y-63482108D01*
X169839769Y-63623769D01*
X170013900Y-63475103D01*
X170013900Y-62649540D01*
X170267900Y-62649540D01*
X170267900Y-63475103D01*
X170442031Y-63623769D01*
X170851949Y-63482108D01*
X171176452Y-63194361D01*
X171360168Y-62820478D01*
X171233634Y-62649540D01*
X170267900Y-62649540D01*
X170013900Y-62649540D01*
X169048166Y-62649540D01*
X168921632Y-62820478D01*
X166360168Y-62820478D01*
X166233634Y-62649540D01*
X165267900Y-62649540D01*
X165013900Y-62649540D01*
X164048166Y-62649540D01*
X163921632Y-62820478D01*
X158205554Y-62820478D01*
X158059638Y-62467337D01*
X157817326Y-62224602D01*
X163921632Y-62224602D01*
X164048166Y-62395540D01*
X165013900Y-62395540D01*
X165013900Y-61569977D01*
X165267900Y-61569977D01*
X165267900Y-62395540D01*
X166233634Y-62395540D01*
X166360168Y-62224602D01*
X168921632Y-62224602D01*
X169048166Y-62395540D01*
X170013900Y-62395540D01*
X170013900Y-61569977D01*
X170267900Y-61569977D01*
X170267900Y-62395540D01*
X171233634Y-62395540D01*
X171360168Y-62224602D01*
X171176452Y-61850719D01*
X170851949Y-61562972D01*
X170442031Y-61421311D01*
X170267900Y-61569977D01*
X170013900Y-61569977D01*
X169839769Y-61421311D01*
X169429851Y-61562972D01*
X169105348Y-61850719D01*
X168921632Y-62224602D01*
X166360168Y-62224602D01*
X166176452Y-61850719D01*
X165851949Y-61562972D01*
X165442031Y-61421311D01*
X165267900Y-61569977D01*
X165013900Y-61569977D01*
X164839769Y-61421311D01*
X164429851Y-61562972D01*
X164105348Y-61850719D01*
X163921632Y-62224602D01*
X157817326Y-62224602D01*
X157754807Y-62161974D01*
X157356323Y-61996509D01*
X156924850Y-61996132D01*
X156526077Y-62160902D01*
X156220714Y-62465733D01*
X156055249Y-62864217D01*
X156054872Y-63295690D01*
X153824752Y-63295690D01*
X153825128Y-62866110D01*
X153660358Y-62467337D01*
X153355527Y-62161974D01*
X152957043Y-61996509D01*
X152525570Y-61996132D01*
X152126797Y-62160902D01*
X151821434Y-62465733D01*
X151655969Y-62864217D01*
X151655592Y-63295690D01*
X110148565Y-63295690D01*
X110209655Y-63234707D01*
X110616536Y-62254827D01*
X110617462Y-61193828D01*
X110212291Y-60213239D01*
X109949052Y-59949540D01*
X163005900Y-59949540D01*
X163005900Y-60224540D01*
X163140898Y-60649218D01*
X163428137Y-60989908D01*
X163839026Y-61191659D01*
X164013900Y-61065494D01*
X164013900Y-59949540D01*
X164267900Y-59949540D01*
X164267900Y-61065494D01*
X164442774Y-61191659D01*
X164853663Y-60989908D01*
X165140902Y-60649218D01*
X165275900Y-60224540D01*
X165275900Y-59949540D01*
X170005900Y-59949540D01*
X170005900Y-60224540D01*
X170140898Y-60649218D01*
X170428137Y-60989908D01*
X170839026Y-61191659D01*
X171013900Y-61065494D01*
X171013900Y-59949540D01*
X171267900Y-59949540D01*
X171267900Y-61065494D01*
X171442774Y-61191659D01*
X171853663Y-60989908D01*
X172140902Y-60649218D01*
X172275900Y-60224540D01*
X172275900Y-59949540D01*
X171267900Y-59949540D01*
X171013900Y-59949540D01*
X170005900Y-59949540D01*
X165275900Y-59949540D01*
X164267900Y-59949540D01*
X164013900Y-59949540D01*
X163005900Y-59949540D01*
X109949052Y-59949540D01*
X109816743Y-59817000D01*
X180465983Y-59817000D01*
X180101239Y-59967709D01*
M02*
