%TF.GenerationSoftware,KiCad,Pcbnew,4.0.2+dfsg1-stable*%
%TF.CreationDate,2019-02-11T22:58:43+01:00*%
%TF.ProjectId,usbavrfloppy,757362617672666C6F7070792E6B6963,rev?*%
%TF.FileFunction,Copper,L1,Top,Signal*%
%FSLAX46Y46*%
G04 Gerber Fmt 4.6, Leading zero omitted, Abs format (unit mm)*
G04 Created by KiCad (PCBNEW 4.0.2+dfsg1-stable) date Mon 11 Feb 2019 22:58:43 CET*
%MOMM*%
G01*
G04 APERTURE LIST*
%ADD10C,0.100000*%
%ADD11C,0.381000*%
%ADD12R,0.400000X3.000000*%
%ADD13O,1.250000X0.950000*%
%ADD14O,1.000000X1.550000*%
%ADD15R,0.500380X3.000000*%
%ADD16R,1.998980X2.499360*%
%ADD17C,4.064000*%
%ADD18R,1.300000X1.500000*%
%ADD19R,1.500000X1.300000*%
%ADD20R,1.198880X1.198880*%
%ADD21R,1.600000X0.550000*%
%ADD22R,0.550000X1.600000*%
%ADD23R,1.500000X1.250000*%
%ADD24R,1.250000X1.500000*%
%ADD25R,1.600200X2.999740*%
%ADD26R,1.727200X1.727200*%
%ADD27O,1.727200X1.727200*%
%ADD28R,2.032000X2.032000*%
%ADD29O,2.032000X2.032000*%
%ADD30R,1.727200X2.032000*%
%ADD31O,1.727200X2.032000*%
%ADD32R,0.800100X0.800100*%
%ADD33R,0.450000X1.750000*%
%ADD34R,2.100580X5.600700*%
%ADD35R,2.180000X1.600000*%
%ADD36C,0.600000*%
%ADD37C,0.350000*%
%ADD38C,0.250000*%
G04 APERTURE END LIST*
D10*
D11*
X177360580Y-79039720D02*
X177360580Y-80639920D01*
X177360580Y-80639920D02*
X178559460Y-80639920D01*
X174861220Y-80639920D02*
X174861220Y-79138780D01*
X174861220Y-79138780D02*
X175760380Y-79138780D01*
X175760380Y-79138780D02*
X175961040Y-79138780D01*
X175961040Y-79138780D02*
X176159160Y-79240380D01*
X176159160Y-79240380D02*
X176260760Y-79441040D01*
X176260760Y-79441040D02*
X176260760Y-79639160D01*
X176260760Y-79639160D02*
X176060100Y-79839820D01*
X176060100Y-79839820D02*
X175760380Y-79938880D01*
X175760380Y-79938880D02*
X174861220Y-79938880D01*
X173659800Y-79240380D02*
X173459140Y-79138780D01*
X173459140Y-79138780D02*
X172958760Y-79138780D01*
X172958760Y-79138780D02*
X172659040Y-79240380D01*
X172659040Y-79240380D02*
X172460920Y-79339440D01*
X172460920Y-79339440D02*
X172260260Y-79639160D01*
X172260260Y-79639160D02*
X172260260Y-79938880D01*
X172260260Y-79938880D02*
X172359320Y-80340200D01*
X172359320Y-80340200D02*
X172659040Y-80540860D01*
X172659040Y-80540860D02*
X172958760Y-80639920D01*
X172958760Y-80639920D02*
X173261020Y-80639920D01*
X173261020Y-80639920D02*
X173758860Y-80540860D01*
X173758860Y-80540860D02*
X173758860Y-80040480D01*
X173758860Y-80040480D02*
X173261020Y-80040480D01*
X177060860Y-76540360D02*
X177060860Y-77840840D01*
X177060860Y-77840840D02*
X177360580Y-78038960D01*
X177360580Y-78038960D02*
X177660300Y-78038960D01*
X177660300Y-78038960D02*
X178059080Y-78038960D01*
X178059080Y-78038960D02*
X178358800Y-77939900D01*
X178358800Y-77939900D02*
X178559460Y-77840840D01*
X178559460Y-77840840D02*
X178559460Y-76540360D01*
X174459900Y-78038960D02*
X174459900Y-76540360D01*
X174459900Y-76540360D02*
X175961040Y-78038960D01*
X175961040Y-78038960D02*
X175961040Y-76540360D01*
X173261020Y-76639420D02*
X172958760Y-76540360D01*
X172958760Y-76540360D02*
X172460920Y-76639420D01*
X172460920Y-76639420D02*
X172059600Y-76840080D01*
X172059600Y-76840080D02*
X171858940Y-77238860D01*
X171858940Y-77238860D02*
X171960540Y-77640180D01*
X171960540Y-77640180D02*
X172260260Y-77939900D01*
X172260260Y-77939900D02*
X172760640Y-78140560D01*
X172760640Y-78140560D02*
X173459140Y-77939900D01*
X173459140Y-77939900D02*
X173459140Y-77439520D01*
X173459140Y-77439520D02*
X172958760Y-77439520D01*
X171196000Y-75692000D02*
X179324000Y-75692000D01*
X179324000Y-75692000D02*
X179324000Y-81280000D01*
X179324000Y-81280000D02*
X171196000Y-81280000D01*
X171196000Y-81280000D02*
X171196000Y-75692000D01*
D12*
X168945560Y-63350140D03*
X168290900Y-63350000D03*
X167640900Y-63350000D03*
X166990900Y-63350000D03*
X166340900Y-63350000D03*
D13*
X170140900Y-62522540D03*
X165140900Y-62522540D03*
D14*
X171140900Y-59822540D03*
X164140900Y-59822540D03*
D15*
X155740100Y-66027300D03*
D16*
X159390080Y-62151260D03*
D15*
X156540200Y-66027300D03*
X154940000Y-66027300D03*
X154139900Y-66027300D03*
X153339800Y-66027300D03*
D16*
X159390080Y-65580260D03*
X150489920Y-65580260D03*
X150495000Y-62103000D03*
D17*
X107950000Y-61722000D03*
X181610000Y-62230000D03*
X181610000Y-113030000D03*
X124460000Y-113030000D03*
D18*
X107315000Y-77169000D03*
X107315000Y-74469000D03*
D19*
X125904000Y-71628000D03*
X128604000Y-71628000D03*
D18*
X145161000Y-70565000D03*
X145161000Y-67865000D03*
D19*
X125269000Y-69088000D03*
X127969000Y-69088000D03*
X150034000Y-74168000D03*
X152734000Y-74168000D03*
D18*
X166624000Y-73326000D03*
X166624000Y-76026000D03*
D20*
X157954980Y-73660000D03*
X160053020Y-73660000D03*
X166624000Y-78706980D03*
X166624000Y-80805020D03*
D21*
X141410000Y-85350000D03*
X141410000Y-84550000D03*
X141410000Y-83750000D03*
X141410000Y-82950000D03*
X141410000Y-82150000D03*
X141410000Y-81350000D03*
X141410000Y-80550000D03*
X141410000Y-79750000D03*
D22*
X139960000Y-78300000D03*
X139160000Y-78300000D03*
X138360000Y-78300000D03*
X137560000Y-78300000D03*
X136760000Y-78300000D03*
X135960000Y-78300000D03*
X135160000Y-78300000D03*
X134360000Y-78300000D03*
D21*
X132910000Y-79750000D03*
X132910000Y-80550000D03*
X132910000Y-81350000D03*
X132910000Y-82150000D03*
X132910000Y-82950000D03*
X132910000Y-83750000D03*
X132910000Y-84550000D03*
X132910000Y-85350000D03*
D22*
X134360000Y-86800000D03*
X135160000Y-86800000D03*
X135960000Y-86800000D03*
X136760000Y-86800000D03*
X137560000Y-86800000D03*
X138360000Y-86800000D03*
X139160000Y-86800000D03*
X139960000Y-86800000D03*
D23*
X140990000Y-90170000D03*
X143490000Y-90170000D03*
X140990000Y-74930000D03*
X143490000Y-74930000D03*
D24*
X121920000Y-81300000D03*
X121920000Y-83800000D03*
D23*
X121940000Y-88900000D03*
X124440000Y-88900000D03*
D25*
X127000000Y-80350360D03*
X127000000Y-84749640D03*
D23*
X125710000Y-76200000D03*
X123210000Y-76200000D03*
D26*
X119380000Y-71120000D03*
D27*
X116840000Y-71120000D03*
X119380000Y-68580000D03*
X116840000Y-68580000D03*
X119380000Y-66040000D03*
X116840000Y-66040000D03*
D20*
X123410980Y-66040000D03*
X125509020Y-66040000D03*
D28*
X124460000Y-118110000D03*
D29*
X124460000Y-120650000D03*
D26*
X133350000Y-120650000D03*
D27*
X133350000Y-118110000D03*
X135890000Y-120650000D03*
X135890000Y-118110000D03*
X138430000Y-120650000D03*
X138430000Y-118110000D03*
X140970000Y-120650000D03*
X140970000Y-118110000D03*
X143510000Y-120650000D03*
X143510000Y-118110000D03*
X146050000Y-120650000D03*
X146050000Y-118110000D03*
X148590000Y-120650000D03*
X148590000Y-118110000D03*
X151130000Y-120650000D03*
X151130000Y-118110000D03*
X153670000Y-120650000D03*
X153670000Y-118110000D03*
X156210000Y-120650000D03*
X156210000Y-118110000D03*
X158750000Y-120650000D03*
X158750000Y-118110000D03*
X161290000Y-120650000D03*
X161290000Y-118110000D03*
X163830000Y-120650000D03*
X163830000Y-118110000D03*
X166370000Y-120650000D03*
X166370000Y-118110000D03*
X168910000Y-120650000D03*
X168910000Y-118110000D03*
X171450000Y-120650000D03*
X171450000Y-118110000D03*
X173990000Y-120650000D03*
X173990000Y-118110000D03*
D30*
X173990000Y-88900000D03*
D31*
X176530000Y-88900000D03*
X179070000Y-88900000D03*
X181610000Y-88900000D03*
D30*
X189230000Y-71120000D03*
D31*
X191770000Y-71120000D03*
X194310000Y-71120000D03*
X196850000Y-71120000D03*
D30*
X160020000Y-78740000D03*
D31*
X157480000Y-78740000D03*
X154940000Y-78740000D03*
D32*
X123459240Y-95570000D03*
X123459240Y-97470000D03*
X125458220Y-96520000D03*
X132349240Y-95570000D03*
X132349240Y-97470000D03*
X134348220Y-96520000D03*
X141239240Y-95570000D03*
X141239240Y-97470000D03*
X143238220Y-96520000D03*
X150129240Y-95570000D03*
X150129240Y-97470000D03*
X152128220Y-96520000D03*
X159019240Y-95570000D03*
X159019240Y-97470000D03*
X161018220Y-96520000D03*
X167909240Y-95570000D03*
X167909240Y-97470000D03*
X169908220Y-96520000D03*
X176799240Y-95570000D03*
X176799240Y-97470000D03*
X178798220Y-96520000D03*
X126730760Y-107630000D03*
X126730760Y-105730000D03*
X124731780Y-106680000D03*
X136890760Y-107630000D03*
X136890760Y-105730000D03*
X134891780Y-106680000D03*
X148320760Y-107630000D03*
X148320760Y-105730000D03*
X146321780Y-106680000D03*
D18*
X129540000Y-66120000D03*
X129540000Y-63420000D03*
D19*
X127080000Y-100330000D03*
X124380000Y-100330000D03*
D18*
X128270000Y-95170000D03*
X128270000Y-97870000D03*
D19*
X134700000Y-100330000D03*
X132000000Y-100330000D03*
X143590000Y-100330000D03*
X140890000Y-100330000D03*
X152480000Y-100330000D03*
X149780000Y-100330000D03*
X161370000Y-100330000D03*
X158670000Y-100330000D03*
X170260000Y-100330000D03*
X167560000Y-100330000D03*
D18*
X137160000Y-95170000D03*
X137160000Y-97870000D03*
X146050000Y-95170000D03*
X146050000Y-97870000D03*
X154940000Y-95170000D03*
X154940000Y-97870000D03*
X163830000Y-95170000D03*
X163830000Y-97870000D03*
X172720000Y-95170000D03*
X172720000Y-97870000D03*
D19*
X179150000Y-100330000D03*
X176450000Y-100330000D03*
X124380000Y-102870000D03*
X127080000Y-102870000D03*
X135970000Y-102870000D03*
X133270000Y-102870000D03*
X146130000Y-102870000D03*
X143430000Y-102870000D03*
D18*
X181610000Y-95170000D03*
X181610000Y-97870000D03*
X129540000Y-105330000D03*
X129540000Y-108030000D03*
X140970000Y-105330000D03*
X140970000Y-108030000D03*
X152400000Y-105330000D03*
X152400000Y-108030000D03*
D33*
X132935000Y-72180000D03*
X133585000Y-72180000D03*
X134235000Y-72180000D03*
X134885000Y-72180000D03*
X135535000Y-72180000D03*
X136185000Y-72180000D03*
X136835000Y-72180000D03*
X137485000Y-72180000D03*
X138135000Y-72180000D03*
X138785000Y-72180000D03*
X139435000Y-72180000D03*
X140085000Y-72180000D03*
X140735000Y-72180000D03*
X141385000Y-72180000D03*
X141385000Y-64980000D03*
X140735000Y-64980000D03*
X140085000Y-64980000D03*
X139435000Y-64980000D03*
X138785000Y-64980000D03*
X138135000Y-64980000D03*
X137485000Y-64980000D03*
X136835000Y-64980000D03*
X136185000Y-64980000D03*
X135535000Y-64980000D03*
X134885000Y-64980000D03*
X134235000Y-64980000D03*
X133585000Y-64980000D03*
X132935000Y-64980000D03*
D34*
X147320000Y-77701140D03*
X147320000Y-87398860D03*
D35*
X109964000Y-76454000D03*
X119144000Y-76454000D03*
D36*
X123046000Y-83674200D03*
X117348000Y-74803000D03*
X120747000Y-76581200D03*
X123210000Y-77371000D03*
X131607000Y-83077600D03*
X128651000Y-84836000D03*
X136779000Y-74041000D03*
X136906000Y-75565000D03*
X134816000Y-63599000D03*
X139304000Y-63599000D03*
X128342000Y-63439200D03*
X131191000Y-66421000D03*
X137087000Y-70788100D03*
X137322000Y-66367300D03*
X153478000Y-64719200D03*
X140095000Y-82150000D03*
X140049000Y-83750000D03*
X127000000Y-82720900D03*
X139726000Y-90130500D03*
X161185000Y-74045500D03*
X167736000Y-80544500D03*
X122603000Y-90065400D03*
X137643000Y-62684000D03*
X125470000Y-86347700D03*
X125046000Y-77879900D03*
X131264000Y-79654900D03*
X126432000Y-73828600D03*
X152402000Y-98236000D03*
X170651000Y-97700100D03*
X129489000Y-102689000D03*
X149120000Y-97163200D03*
X147010000Y-105325000D03*
X168016000Y-98711000D03*
X157776000Y-69333300D03*
X161525000Y-62571600D03*
X133171000Y-74061700D03*
X134290000Y-85412700D03*
X134061000Y-74199300D03*
X135439000Y-84571300D03*
X140360000Y-70702000D03*
X139048000Y-85412700D03*
X133192000Y-86241300D03*
X159151000Y-94438600D03*
X138304000Y-80422900D03*
X124840000Y-99179600D03*
X136004000Y-96671800D03*
X137857000Y-82640200D03*
X145354000Y-84138700D03*
X157853000Y-97094000D03*
X143174000Y-77961000D03*
X158931000Y-99024600D03*
X145354000Y-86454800D03*
X162353000Y-96847300D03*
X134996000Y-80487500D03*
X126309000Y-101600000D03*
X139911000Y-80137500D03*
X134620000Y-102720000D03*
D37*
X123210000Y-76200000D02*
X123210000Y-77371000D01*
X131735000Y-82950000D02*
X131607000Y-83077600D01*
X132910000Y-82950000D02*
X131735000Y-82950000D01*
X128565000Y-84749600D02*
X127000000Y-84749600D01*
X128651000Y-84836000D02*
X128565000Y-84749600D01*
X121920000Y-88880000D02*
X121940000Y-88900000D01*
X121920000Y-83800000D02*
X121920000Y-88880000D01*
X122920000Y-83800000D02*
X121920000Y-83800000D01*
X123046000Y-83674200D02*
X122920000Y-83800000D01*
X124122000Y-84749600D02*
X123046000Y-83674200D01*
X127000000Y-84749600D02*
X124122000Y-84749600D01*
X136835000Y-73985000D02*
X136835000Y-72180000D01*
X136779000Y-74041000D02*
X136835000Y-73985000D01*
X138176000Y-75565000D02*
X136906000Y-75565000D01*
X138811000Y-74930000D02*
X138176000Y-75565000D01*
X139865000Y-74930000D02*
X138811000Y-74930000D01*
X134816000Y-63599000D02*
X134816000Y-63729700D01*
X139435000Y-63729700D02*
X139304000Y-63599000D01*
X139435000Y-64980000D02*
X139435000Y-63729700D01*
X128515000Y-63420000D02*
X129540000Y-63420000D01*
X128496000Y-63439200D02*
X128515000Y-63420000D01*
X128342000Y-63439200D02*
X128496000Y-63439200D01*
X131245000Y-66367300D02*
X131191000Y-66421000D01*
X137322000Y-66367300D02*
X131245000Y-66367300D01*
X136835000Y-70929700D02*
X136835000Y-72180000D01*
X136946000Y-70929700D02*
X136835000Y-70929700D01*
X137087000Y-70788100D02*
X136946000Y-70929700D01*
X137485000Y-66230300D02*
X137485000Y-64980000D01*
X137459000Y-66230300D02*
X137485000Y-66230300D01*
X137322000Y-66367300D02*
X137459000Y-66230300D01*
X141410000Y-82150000D02*
X140095000Y-82150000D01*
X141410000Y-83750000D02*
X140049000Y-83750000D01*
X127000000Y-82720900D02*
X127000000Y-84749600D01*
X139825000Y-90130500D02*
X139726000Y-90130500D01*
X139865000Y-90170000D02*
X139825000Y-90130500D01*
X140990000Y-90170000D02*
X139865000Y-90170000D01*
X161028000Y-73660000D02*
X160053000Y-73660000D01*
X161028000Y-73888400D02*
X161028000Y-73660000D01*
X161185000Y-74045500D02*
X161028000Y-73888400D01*
X167599000Y-80805000D02*
X166624000Y-80805000D01*
X167599000Y-80681500D02*
X167599000Y-80805000D01*
X167736000Y-80544500D02*
X167599000Y-80681500D01*
X122438000Y-89900300D02*
X122603000Y-90065400D01*
X121940000Y-89900300D02*
X122438000Y-89900300D01*
X121940000Y-88900000D02*
X121940000Y-89900300D01*
X134885000Y-63729700D02*
X134816000Y-63729700D01*
X134885000Y-64980000D02*
X134885000Y-63729700D01*
X134235000Y-63729700D02*
X134235000Y-64980000D01*
X134816000Y-63729700D02*
X134235000Y-63729700D01*
X139954000Y-74930000D02*
X139865000Y-74930000D01*
X140990000Y-74930000D02*
X139954000Y-74930000D01*
X139954000Y-74930000D02*
X139865000Y-74930000D01*
X163830000Y-120650000D02*
X166370000Y-120650000D01*
X119156000Y-76456300D02*
X119156400Y-76456300D01*
X119156000Y-75468400D02*
X119156000Y-76456300D01*
X118999000Y-75311000D02*
X119156000Y-75468400D01*
X117856000Y-75311000D02*
X118999000Y-75311000D01*
X117348000Y-74803000D02*
X117856000Y-75311000D01*
X120622000Y-76456300D02*
X120747000Y-76581200D01*
X119156400Y-76456300D02*
X120622000Y-76456300D01*
X161290000Y-120650000D02*
X163830000Y-120650000D01*
X158750000Y-120650000D02*
X161290000Y-120650000D01*
X156210000Y-120650000D02*
X158750000Y-120650000D01*
X153670000Y-120650000D02*
X156210000Y-120650000D01*
X151130000Y-120650000D02*
X153670000Y-120650000D01*
X148590000Y-120650000D02*
X151130000Y-120650000D01*
X146050000Y-120650000D02*
X148590000Y-120650000D01*
X143510000Y-120650000D02*
X146050000Y-120650000D01*
X140970000Y-120650000D02*
X143510000Y-120650000D01*
X138430000Y-120650000D02*
X140970000Y-120650000D01*
X133350000Y-120650000D02*
X135890000Y-120650000D01*
X135890000Y-120650000D02*
X138430000Y-120650000D01*
X119440800Y-63439200D02*
X128342000Y-63439200D01*
X116840000Y-66040000D02*
X119440800Y-63439200D01*
X135706400Y-82950000D02*
X132910000Y-82950000D01*
X136681400Y-83925000D02*
X135706400Y-82950000D01*
X139874000Y-83925000D02*
X136681400Y-83925000D01*
X140049000Y-83750000D02*
X139874000Y-83925000D01*
X154140000Y-66730000D02*
X154140000Y-67667600D01*
X154139900Y-67667500D02*
X154139900Y-66730000D01*
X154140000Y-67667600D02*
X154139900Y-67667500D01*
X174944000Y-68175900D02*
X170140900Y-63372800D01*
X188748500Y-68175900D02*
X174944000Y-68175900D01*
X190531100Y-69958500D02*
X188748500Y-68175900D01*
X190531100Y-71120000D02*
X190531100Y-69958500D01*
X191770000Y-71120000D02*
X190531100Y-71120000D01*
X170140900Y-62522500D02*
X170140900Y-63372800D01*
X171141000Y-59822500D02*
X171141000Y-60672500D01*
X171140900Y-60672400D02*
X171140900Y-59822500D01*
X171141000Y-60672500D02*
X171140900Y-60672400D01*
X153339800Y-66730000D02*
X153340000Y-66730000D01*
X153340000Y-68605300D02*
X153340000Y-66730000D01*
X154140000Y-68605300D02*
X153340000Y-68605300D01*
X154140000Y-67667600D02*
X154140000Y-68605300D01*
X153343000Y-64854700D02*
X153478000Y-64719200D01*
X153340000Y-64854700D02*
X153343000Y-64854700D01*
X153340000Y-66730000D02*
X153340000Y-64854700D01*
X165641000Y-62522500D02*
X165140900Y-62522500D01*
X165141000Y-62522500D02*
X165641000Y-62522500D01*
X164141000Y-61522500D02*
X165141000Y-62522500D01*
X164141000Y-60672500D02*
X164141000Y-61522500D01*
X170641000Y-62022500D02*
X170141000Y-62522500D01*
X170640900Y-62022500D02*
X170140900Y-62522500D01*
X170641000Y-62022500D02*
X170640900Y-62022500D01*
X171141000Y-60672500D02*
X171141000Y-61097500D01*
X171141000Y-61522500D02*
X170641000Y-62022500D01*
X171141000Y-61097500D02*
X171141000Y-61522500D01*
X164566000Y-61097500D02*
X164141000Y-60672500D01*
X171141000Y-61097500D02*
X164566000Y-61097500D01*
X166141000Y-63150300D02*
X166340900Y-63350000D01*
X166141000Y-62522500D02*
X166141000Y-63150300D01*
X165641000Y-62522500D02*
X166141000Y-62522500D01*
X166340900Y-63350000D02*
X166341000Y-63350000D01*
X164141000Y-59822500D02*
X164141000Y-60247500D01*
X164141000Y-60247500D02*
X164141000Y-60672500D01*
X164140900Y-60247400D02*
X164140900Y-59822500D01*
X164141000Y-60247500D02*
X164140900Y-60247400D01*
D38*
X147320000Y-87398900D02*
X145944000Y-87398900D01*
X144124000Y-89219700D02*
X145944000Y-87398900D01*
X143490000Y-89219700D02*
X144124000Y-89219700D01*
X143490000Y-90170000D02*
X143490000Y-89219700D01*
X142649000Y-80550000D02*
X141410000Y-80550000D01*
X145979000Y-83879600D02*
X142649000Y-80550000D01*
X145979000Y-84397800D02*
X145979000Y-83879600D01*
X145944000Y-84432200D02*
X145979000Y-84397800D01*
X145944000Y-86161300D02*
X145944000Y-84432200D01*
X145979000Y-86195700D02*
X145944000Y-86161300D01*
X145979000Y-86713900D02*
X145979000Y-86195700D01*
X145944000Y-86748300D02*
X145979000Y-86713900D01*
X145944000Y-87398900D02*
X145944000Y-86748300D01*
X142535000Y-79750000D02*
X144584000Y-77701100D01*
X141410000Y-79750000D02*
X142535000Y-79750000D01*
X143490000Y-76606900D02*
X144584000Y-77701100D01*
X143490000Y-74930000D02*
X143490000Y-76606900D01*
X144584000Y-77701100D02*
X147320000Y-77701100D01*
X139339000Y-62684000D02*
X137643000Y-62684000D01*
X140085000Y-63429800D02*
X139339000Y-62684000D01*
X140085000Y-64980000D02*
X140085000Y-63429800D01*
X125470000Y-86919800D02*
X125470000Y-86347700D01*
X124440000Y-87949700D02*
X125470000Y-86919800D01*
X124440000Y-88900000D02*
X124440000Y-87949700D01*
X134360000Y-77174700D02*
X134360000Y-78300000D01*
X132435000Y-75249600D02*
X134360000Y-77174700D01*
X124739000Y-75249600D02*
X132435000Y-75249600D01*
X124635000Y-75354300D02*
X124739000Y-75249600D01*
X124635000Y-77468500D02*
X124635000Y-75354300D01*
X125046000Y-77879900D02*
X124635000Y-77468500D01*
X131690000Y-79654900D02*
X131264000Y-79654900D01*
X131785000Y-79750000D02*
X131690000Y-79654900D01*
X132910000Y-79750000D02*
X131785000Y-79750000D01*
X122486000Y-66040000D02*
X123411000Y-66040000D01*
X120569000Y-67957400D02*
X122486000Y-66040000D01*
X120569000Y-68580000D02*
X120569000Y-67957400D01*
X119380000Y-68580000D02*
X120569000Y-68580000D01*
X131814000Y-73828600D02*
X126432000Y-73828600D01*
X135160000Y-77174700D02*
X131814000Y-73828600D01*
X135160000Y-78300000D02*
X135160000Y-77174700D01*
X128485000Y-66040000D02*
X125509000Y-66040000D01*
X128565000Y-66120000D02*
X128485000Y-66040000D01*
X129540000Y-66120000D02*
X128565000Y-66120000D01*
X125801000Y-120650000D02*
X124460000Y-120650000D01*
X127152000Y-119299000D02*
X125801000Y-120650000D01*
X141504000Y-119299000D02*
X127152000Y-119299000D01*
X142321000Y-118482000D02*
X141504000Y-119299000D01*
X142321000Y-118110000D02*
X142321000Y-118482000D01*
X143510000Y-118110000D02*
X142321000Y-118110000D01*
X152768000Y-97870000D02*
X152402000Y-98236000D01*
X154940000Y-97870000D02*
X152768000Y-97870000D01*
X152128000Y-97962700D02*
X152128000Y-97241300D01*
X152402000Y-98236000D02*
X152128000Y-97962700D01*
X152128000Y-97241300D02*
X152128000Y-96520000D01*
X152128200Y-97241100D02*
X152128200Y-96520000D01*
X152128000Y-97241300D02*
X152128200Y-97241100D01*
X171745000Y-97870000D02*
X172720000Y-97870000D01*
X171575000Y-97700100D02*
X171745000Y-97870000D01*
X170651000Y-97700100D02*
X171575000Y-97700100D01*
X169908000Y-96520000D02*
X169908200Y-96520000D01*
X170634000Y-97682900D02*
X170651000Y-97700100D01*
X170634000Y-96520000D02*
X170634000Y-97682900D01*
X169908200Y-96520000D02*
X170634000Y-96520000D01*
X129489000Y-98113500D02*
X129489000Y-102689000D01*
X129245000Y-97870000D02*
X129489000Y-98113500D01*
X128270000Y-97870000D02*
X129245000Y-97870000D01*
X126184000Y-96520000D02*
X125458200Y-96520000D01*
X126184000Y-96758900D02*
X126184000Y-96520000D01*
X127295000Y-97870000D02*
X126184000Y-96758900D01*
X128270000Y-97870000D02*
X127295000Y-97870000D01*
X125458200Y-96520000D02*
X125458000Y-96520000D01*
X179524000Y-96520000D02*
X178798200Y-96520000D01*
X179524000Y-96758900D02*
X179524000Y-96520000D01*
X180635000Y-97870000D02*
X179524000Y-96758900D01*
X181610000Y-97870000D02*
X180635000Y-97870000D01*
X181610000Y-101092000D02*
X181610000Y-97870000D01*
X167640000Y-115062000D02*
X181610000Y-101092000D01*
X167640000Y-118543000D02*
X167640000Y-115062000D01*
X166884000Y-119299000D02*
X167640000Y-118543000D01*
X160756000Y-119299000D02*
X166884000Y-119299000D01*
X178798000Y-96520000D02*
X178798200Y-96520000D01*
X159939000Y-118482000D02*
X160756000Y-119299000D01*
X159939000Y-118110000D02*
X159939000Y-118482000D01*
X158750000Y-118110000D02*
X159939000Y-118110000D01*
X148413000Y-97870000D02*
X149120000Y-97163200D01*
X146050000Y-97870000D02*
X148413000Y-97870000D01*
X143238000Y-96520000D02*
X143238200Y-96520000D01*
X145075000Y-97870000D02*
X146050000Y-97870000D01*
X143964000Y-96758900D02*
X145075000Y-97870000D01*
X143964000Y-96520000D02*
X143964000Y-96758900D01*
X143238200Y-96520000D02*
X143964000Y-96520000D01*
X143540000Y-105325000D02*
X147010000Y-105325000D01*
X137160000Y-98945300D02*
X143540000Y-105325000D01*
X137160000Y-97870000D02*
X137160000Y-98945300D01*
X135074000Y-96520000D02*
X134348200Y-96520000D01*
X135074000Y-96977000D02*
X135074000Y-96520000D01*
X135967000Y-97870000D02*
X135074000Y-96977000D01*
X137160000Y-97870000D02*
X135967000Y-97870000D01*
X134348200Y-96520000D02*
X134348000Y-96520000D01*
X165646000Y-98711000D02*
X168016000Y-98711000D01*
X164805000Y-97870000D02*
X165646000Y-98711000D01*
X163830000Y-97870000D02*
X164805000Y-97870000D01*
X161018000Y-96520000D02*
X161018200Y-96520000D01*
X162491000Y-97870000D02*
X163830000Y-97870000D01*
X161727000Y-97106300D02*
X162491000Y-97870000D01*
X161727000Y-96588300D02*
X161727000Y-97106300D01*
X161744000Y-96572100D02*
X161727000Y-96588300D01*
X161744000Y-96520000D02*
X161744000Y-96572100D01*
X161018200Y-96520000D02*
X161744000Y-96520000D01*
D37*
X169855000Y-71120000D02*
X189230000Y-71120000D01*
X167649000Y-73326000D02*
X169855000Y-71120000D01*
X166624000Y-73326000D02*
X167649000Y-73326000D01*
D38*
X154672000Y-64005200D02*
X155740000Y-65073400D01*
X149396000Y-64005200D02*
X154672000Y-64005200D01*
X149170000Y-63779700D02*
X149396000Y-64005200D01*
X140735000Y-63779700D02*
X149170000Y-63779700D01*
X140735000Y-64980000D02*
X140735000Y-63779700D01*
X155740000Y-66730000D02*
X155740000Y-65901700D01*
X155740000Y-65901700D02*
X155740000Y-65073400D01*
X155740100Y-65901800D02*
X155740100Y-66730000D01*
X155740000Y-65901700D02*
X155740100Y-65901800D01*
X168291000Y-65175300D02*
X168291000Y-64262600D01*
X167841000Y-65625600D02*
X168291000Y-65175300D01*
X163929000Y-65625600D02*
X167841000Y-65625600D01*
X162308000Y-64005200D02*
X163929000Y-65625600D01*
X156640000Y-64005200D02*
X162308000Y-64005200D01*
X155740000Y-64904700D02*
X156640000Y-64005200D01*
X155740000Y-65073400D02*
X155740000Y-64904700D01*
X168291000Y-64262600D02*
X168291000Y-63350000D01*
X168290900Y-64262500D02*
X168290900Y-63350000D01*
X168291000Y-64262600D02*
X168290900Y-64262500D01*
X155686000Y-69333300D02*
X157776000Y-69333300D01*
X154940000Y-68586900D02*
X155686000Y-69333300D01*
X154412000Y-69114400D02*
X154940000Y-68586900D01*
X149885000Y-69114400D02*
X154412000Y-69114400D01*
X145750000Y-64980000D02*
X149885000Y-69114400D01*
X141385000Y-64980000D02*
X145750000Y-64980000D01*
X154940000Y-68586900D02*
X154940000Y-66730000D01*
X167641000Y-63350000D02*
X167641000Y-64262600D01*
X164128000Y-65175300D02*
X161525000Y-62571600D01*
X167641000Y-65175300D02*
X164128000Y-65175300D01*
X167641000Y-64262600D02*
X167641000Y-65175300D01*
X167640900Y-64262500D02*
X167640900Y-63350000D01*
X167641000Y-64262600D02*
X167640900Y-64262500D01*
X134360000Y-85482400D02*
X134360000Y-86800000D01*
X134290000Y-85412700D02*
X134360000Y-85482400D01*
X131712000Y-72603300D02*
X133171000Y-74061700D01*
X128604000Y-72603300D02*
X131712000Y-72603300D01*
X128604000Y-71628000D02*
X128604000Y-72603300D01*
X139435000Y-73380300D02*
X139435000Y-72180000D01*
X137977000Y-74838600D02*
X139435000Y-73380300D01*
X133814000Y-74838600D02*
X137977000Y-74838600D01*
X133171000Y-74195100D02*
X133814000Y-74838600D01*
X133171000Y-74061700D02*
X133171000Y-74195100D01*
X132935000Y-70979700D02*
X132935000Y-72180000D01*
X131043000Y-69088000D02*
X132935000Y-70979700D01*
X127969000Y-69088000D02*
X131043000Y-69088000D01*
X134061000Y-73983000D02*
X134061000Y-74199300D01*
X133458000Y-73380300D02*
X134061000Y-73983000D01*
X133225000Y-73380300D02*
X133458000Y-73380300D01*
X132935000Y-73090100D02*
X133225000Y-73380300D01*
X132935000Y-72180000D02*
X132935000Y-73090100D01*
X137257000Y-84571300D02*
X135439000Y-84571300D01*
X138360000Y-85674700D02*
X137257000Y-84571300D01*
X138360000Y-86800000D02*
X138360000Y-85674700D01*
X139802000Y-70143800D02*
X140360000Y-70702000D01*
X136371000Y-70143800D02*
X139802000Y-70143800D01*
X135535000Y-70979700D02*
X136371000Y-70143800D01*
X135535000Y-72180000D02*
X135535000Y-70979700D01*
X143197000Y-67865000D02*
X140360000Y-70702000D01*
X145161000Y-67865000D02*
X143197000Y-67865000D01*
X139160000Y-85524200D02*
X139160000Y-86800000D01*
X139048000Y-85412700D02*
X139160000Y-85524200D01*
X108536000Y-76923000D02*
X108536000Y-76451700D01*
X108290000Y-77169000D02*
X108536000Y-76923000D01*
X107315000Y-77169000D02*
X108290000Y-77169000D01*
X107994000Y-75909900D02*
X108536000Y-76451700D01*
X106857000Y-75909900D02*
X107994000Y-75909900D01*
X106340000Y-75392800D02*
X106857000Y-75909900D01*
X106340000Y-73518500D02*
X106340000Y-75392800D01*
X112629000Y-67228900D02*
X106340000Y-73518500D01*
X117374000Y-67228900D02*
X112629000Y-67228900D01*
X118191000Y-66411600D02*
X117374000Y-67228900D01*
X118191000Y-66040000D02*
X118191000Y-66411600D01*
X119380000Y-66040000D02*
X118191000Y-66040000D01*
X133192000Y-87185500D02*
X133192000Y-86241300D01*
X133932000Y-87925300D02*
X133192000Y-87185500D01*
X137560000Y-87925300D02*
X133932000Y-87925300D01*
X137560000Y-86800000D02*
X137560000Y-87925300D01*
X109952000Y-76451700D02*
X109951600Y-76451700D01*
X109951600Y-76451700D02*
X108536000Y-76451700D01*
X149941000Y-118110000D02*
X151130000Y-118110000D01*
X149941000Y-118482000D02*
X149941000Y-118110000D01*
X149124000Y-119299000D02*
X149941000Y-118482000D01*
X148056000Y-119299000D02*
X149124000Y-119299000D01*
X147239000Y-118482000D02*
X148056000Y-119299000D01*
X147239000Y-118110000D02*
X147239000Y-118482000D01*
X146050000Y-118110000D02*
X147239000Y-118110000D01*
X140970000Y-116921000D02*
X140970000Y-108568000D01*
X126990000Y-116921000D02*
X140970000Y-116921000D01*
X125801000Y-118110000D02*
X126990000Y-116921000D01*
X124460000Y-118110000D02*
X125801000Y-118110000D01*
X144861000Y-118110000D02*
X146050000Y-118110000D01*
X144861000Y-117738000D02*
X144861000Y-118110000D01*
X144044000Y-116921000D02*
X144861000Y-117738000D01*
X140970000Y-116921000D02*
X144044000Y-116921000D01*
X140970000Y-108030000D02*
X140970000Y-108568000D01*
X134892000Y-106680000D02*
X134892000Y-107042500D01*
X136054000Y-108568000D02*
X140970000Y-108568000D01*
X134892000Y-107405000D02*
X136054000Y-108568000D01*
X134892000Y-107042500D02*
X134892000Y-107405000D01*
X134891800Y-107042300D02*
X134891800Y-106680000D01*
X134892000Y-107042500D02*
X134891800Y-107042300D01*
X155473000Y-108030000D02*
X152400000Y-108030000D01*
X165181000Y-117738000D02*
X155473000Y-108030000D01*
X165181000Y-118110000D02*
X165181000Y-117738000D01*
X166370000Y-118110000D02*
X165181000Y-118110000D01*
X150075000Y-106680000D02*
X146322000Y-106680000D01*
X151425000Y-108030000D02*
X150075000Y-106680000D01*
X152400000Y-108030000D02*
X151425000Y-108030000D01*
X146322000Y-106680000D02*
X146321800Y-106680000D01*
X127295000Y-109788000D02*
X129052000Y-108030000D01*
X124322000Y-109788000D02*
X127295000Y-109788000D01*
X122062000Y-112048000D02*
X124322000Y-109788000D01*
X122062000Y-120190000D02*
X122062000Y-112048000D01*
X123902000Y-122030000D02*
X122062000Y-120190000D01*
X166728000Y-122030000D02*
X123902000Y-122030000D01*
X167640000Y-121119000D02*
X166728000Y-122030000D01*
X167640000Y-120238000D02*
X167640000Y-121119000D01*
X168579000Y-119299000D02*
X167640000Y-120238000D01*
X169444000Y-119299000D02*
X168579000Y-119299000D01*
X170261000Y-118482000D02*
X169444000Y-119299000D01*
X170261000Y-118110000D02*
X170261000Y-118482000D01*
X171450000Y-118110000D02*
X170261000Y-118110000D01*
X129540000Y-108030000D02*
X129052000Y-108030000D01*
X128565000Y-108030000D02*
X129052000Y-108030000D01*
X127215000Y-106680000D02*
X128565000Y-108030000D01*
X124732000Y-106680000D02*
X127215000Y-106680000D01*
X124732000Y-106680000D02*
X124731800Y-106680000D01*
D37*
X139676000Y-82950000D02*
X139403000Y-82677000D01*
X141410000Y-82950000D02*
X139676000Y-82950000D01*
X138723000Y-83357200D02*
X139403000Y-82677000D01*
X136892000Y-83357200D02*
X138723000Y-83357200D01*
X134085000Y-80550000D02*
X136892000Y-83357200D01*
X132910000Y-80550000D02*
X134085000Y-80550000D01*
X139907000Y-81350000D02*
X141410000Y-81350000D01*
X139403000Y-81854200D02*
X139907000Y-81350000D01*
X139403000Y-82677000D02*
X139403000Y-81854200D01*
X130910000Y-80550000D02*
X132910000Y-80550000D01*
X122920000Y-81300000D02*
X121920000Y-81300000D01*
X123870000Y-80350400D02*
X122920000Y-81300000D01*
X156032000Y-80187600D02*
X157480000Y-78740000D01*
X154452000Y-80187600D02*
X156032000Y-80187600D01*
X150034000Y-75770200D02*
X154452000Y-80187600D01*
X150034000Y-74168000D02*
X150034000Y-75770200D01*
X148909000Y-73287400D02*
X146186000Y-70565000D01*
X148909000Y-74168000D02*
X148909000Y-73287400D01*
X150034000Y-74168000D02*
X148909000Y-74168000D01*
X145161000Y-70565000D02*
X146186000Y-70565000D01*
X125955000Y-100713000D02*
X125955000Y-100330000D01*
X124823000Y-101845000D02*
X125955000Y-100713000D01*
X124380000Y-101845000D02*
X124823000Y-101845000D01*
X124380000Y-102870000D02*
X124380000Y-101845000D01*
X145641000Y-101355000D02*
X146130000Y-101845000D01*
X143590000Y-101355000D02*
X145641000Y-101355000D01*
X143590000Y-100330000D02*
X143590000Y-101355000D01*
X152480000Y-100330000D02*
X152480000Y-101355000D01*
X161370000Y-101355000D02*
X170260000Y-101355000D01*
X170260000Y-100330000D02*
X170260000Y-101355000D01*
X127245000Y-95170000D02*
X128270000Y-95170000D01*
X126845000Y-95570000D02*
X127245000Y-95170000D01*
X124646000Y-95570000D02*
X126845000Y-95570000D01*
X154468000Y-100330000D02*
X152480000Y-100330000D01*
X156365000Y-98432300D02*
X154468000Y-100330000D01*
X156365000Y-95570000D02*
X156365000Y-98432300D01*
X174145000Y-95570000D02*
X176799000Y-95570000D01*
X173745000Y-95170000D02*
X174145000Y-95570000D01*
X172720000Y-95170000D02*
X173745000Y-95170000D01*
X177975000Y-95170000D02*
X181610000Y-95170000D01*
X177575000Y-95570000D02*
X177975000Y-95170000D01*
X176799200Y-95570000D02*
X177575000Y-95570000D01*
X129295000Y-95170000D02*
X128270000Y-95170000D01*
X129564000Y-95439000D02*
X129295000Y-95170000D01*
X131022000Y-95439000D02*
X129564000Y-95439000D01*
X131153000Y-95570000D02*
X131022000Y-95439000D01*
X131952000Y-95570000D02*
X131153000Y-95570000D01*
X150650000Y-101845000D02*
X146130000Y-101845000D01*
X150650000Y-101355000D02*
X150650000Y-101845000D01*
X152480000Y-101355000D02*
X150650000Y-101355000D01*
X151375000Y-105330000D02*
X152400000Y-105330000D01*
X150650000Y-104606000D02*
X151375000Y-105330000D01*
X150650000Y-101845000D02*
X150650000Y-104606000D01*
X179150000Y-98478000D02*
X179150000Y-100330000D01*
X177017000Y-96345400D02*
X179150000Y-98478000D01*
X176799000Y-96345400D02*
X177017000Y-96345400D01*
X176799000Y-95570000D02*
X176799000Y-96345400D01*
X179150000Y-101355000D02*
X170260000Y-101355000D01*
X179150000Y-100330000D02*
X179150000Y-101355000D01*
X138646000Y-105033000D02*
X138646000Y-105330000D01*
X135970000Y-102357000D02*
X138646000Y-105033000D01*
X138646000Y-105330000D02*
X140970000Y-105330000D01*
X134700000Y-101355000D02*
X134945000Y-101600000D01*
X134700000Y-100330000D02*
X134700000Y-101355000D01*
X146130000Y-102870000D02*
X146130000Y-101845000D01*
X141995000Y-105330000D02*
X140970000Y-105330000D01*
X144295000Y-107630000D02*
X141995000Y-105330000D01*
X148320800Y-107630000D02*
X144295000Y-107630000D01*
X134885000Y-68337900D02*
X134885000Y-72180000D01*
X125269000Y-68062700D02*
X125269000Y-69088000D01*
X134610000Y-68062700D02*
X125269000Y-68062700D01*
X134885000Y-68337900D02*
X134610000Y-68062700D01*
X145687000Y-66454300D02*
X138190000Y-66454300D01*
X146186000Y-66953800D02*
X145687000Y-66454300D01*
X146186000Y-70565000D02*
X146186000Y-66953800D01*
X138190000Y-66230300D02*
X138190000Y-66454300D01*
X138135000Y-66175200D02*
X138190000Y-66230300D01*
X138135000Y-64980000D02*
X138135000Y-66175200D01*
X136307000Y-68337900D02*
X134885000Y-68337900D01*
X138190000Y-66454300D02*
X136307000Y-68337900D01*
X131952000Y-95170000D02*
X137160000Y-95170000D01*
X131952000Y-95570000D02*
X131952000Y-95170000D01*
X125710000Y-77200300D02*
X125710000Y-76200000D01*
X125721000Y-77211600D02*
X125710000Y-77200300D01*
X125721000Y-80350400D02*
X125721000Y-77211600D01*
X129540000Y-103364000D02*
X129540000Y-105330000D01*
X131533000Y-101600000D02*
X134945000Y-101600000D01*
X129769000Y-103364000D02*
X131533000Y-101600000D01*
X129540000Y-103364000D02*
X129769000Y-103364000D01*
X125341000Y-70185700D02*
X125341000Y-71628000D01*
X125269000Y-70113300D02*
X125341000Y-70185700D01*
X125269000Y-69088000D02*
X125269000Y-70113300D01*
X111689000Y-71120000D02*
X116840000Y-71120000D01*
X108340000Y-74469000D02*
X111689000Y-71120000D01*
X107315000Y-74469000D02*
X108340000Y-74469000D01*
X122064000Y-78545000D02*
X123870000Y-80350400D01*
X122064000Y-73379000D02*
X122064000Y-78545000D01*
X118079000Y-71120000D02*
X116840000Y-71120000D01*
X118079000Y-72086800D02*
X118079000Y-71120000D01*
X119371000Y-73379000D02*
X118079000Y-72086800D01*
X122064000Y-73379000D02*
X119371000Y-73379000D01*
X124646000Y-97876400D02*
X124646000Y-95570000D01*
X125955000Y-99185300D02*
X124646000Y-97876400D01*
X125955000Y-100330000D02*
X125955000Y-99185300D01*
X130910000Y-94128700D02*
X130910000Y-80550000D01*
X131952000Y-95170000D02*
X130910000Y-94128700D01*
X128375000Y-80550000D02*
X130910000Y-80550000D01*
X128175000Y-80350400D02*
X128375000Y-80550000D01*
X127000000Y-80350400D02*
X128175000Y-80350400D01*
X125904000Y-71628000D02*
X125341000Y-71628000D01*
X123028000Y-73379000D02*
X122064000Y-73379000D01*
X124779000Y-71628000D02*
X123028000Y-73379000D01*
X125341000Y-71628000D02*
X124779000Y-71628000D01*
X155965000Y-95170000D02*
X154940000Y-95170000D01*
X156365000Y-95570000D02*
X155965000Y-95170000D01*
X125955000Y-100330000D02*
X127080000Y-100330000D01*
X129209000Y-103364000D02*
X129540000Y-103364000D01*
X128814000Y-102968000D02*
X129209000Y-103364000D01*
X128814000Y-102576000D02*
X128814000Y-102968000D01*
X127593000Y-101355000D02*
X128814000Y-102576000D01*
X127080000Y-101355000D02*
X127593000Y-101355000D01*
X127080000Y-100330000D02*
X127080000Y-101355000D01*
X127000000Y-80350400D02*
X125721000Y-80350400D01*
X125721000Y-80350400D02*
X123870000Y-80350400D01*
X148321000Y-107630000D02*
X148320800Y-107630000D01*
X135970000Y-101845000D02*
X135970000Y-102357000D01*
X135189000Y-101845000D02*
X135970000Y-101845000D01*
X134945000Y-101600000D02*
X135189000Y-101845000D01*
X135970000Y-102357000D02*
X135970000Y-102870000D01*
X176799000Y-95570000D02*
X176799200Y-95570000D01*
X171295000Y-95570000D02*
X167909200Y-95570000D01*
X171695000Y-95170000D02*
X171295000Y-95570000D01*
X172720000Y-95170000D02*
X171695000Y-95170000D01*
X166734000Y-95170000D02*
X163830000Y-95170000D01*
X167134000Y-95570000D02*
X166734000Y-95170000D01*
X167909200Y-95570000D02*
X167134000Y-95570000D01*
X153515000Y-95570000D02*
X150129200Y-95570000D01*
X153915000Y-95170000D02*
X153515000Y-95570000D01*
X154940000Y-95170000D02*
X153915000Y-95170000D01*
X148954000Y-95170000D02*
X146050000Y-95170000D01*
X149354000Y-95570000D02*
X148954000Y-95170000D01*
X150129200Y-95570000D02*
X149354000Y-95570000D01*
X123459000Y-95570000D02*
X123459200Y-95570000D01*
X123459200Y-95570000D02*
X124646000Y-95570000D01*
X161370000Y-100330000D02*
X161370000Y-101355000D01*
X161370000Y-101355000D02*
X152480000Y-101355000D01*
X124290000Y-107630000D02*
X126730800Y-107630000D01*
X123956000Y-107296000D02*
X124290000Y-107630000D01*
X123956000Y-104319000D02*
X123956000Y-107296000D01*
X124380000Y-103895000D02*
X123956000Y-104319000D01*
X124380000Y-102870000D02*
X124380000Y-103895000D01*
X126730800Y-107630000D02*
X126731000Y-107630000D01*
X132349000Y-95570000D02*
X131952000Y-95570000D01*
X132349000Y-95570000D02*
X132349200Y-95570000D01*
X138585000Y-95570000D02*
X141239000Y-95570000D01*
X138185000Y-95170000D02*
X138585000Y-95570000D01*
X137160000Y-95170000D02*
X138185000Y-95170000D01*
X141239000Y-95570000D02*
X141239200Y-95570000D01*
X159019000Y-94570600D02*
X159019000Y-95070300D01*
X159151000Y-94438600D02*
X159019000Y-94570600D01*
X159019000Y-95570000D02*
X156365000Y-95570000D01*
X159019000Y-95070300D02*
X159019000Y-95570000D01*
X159019200Y-95070500D02*
X159019200Y-95570000D01*
X159019000Y-95070300D02*
X159019200Y-95070500D01*
X136891000Y-107630000D02*
X136891000Y-107242500D01*
X137121000Y-106855000D02*
X138646000Y-105330000D01*
X136891000Y-106855000D02*
X137121000Y-106855000D01*
X136891000Y-107242500D02*
X136891000Y-106855000D01*
X136890800Y-107242700D02*
X136890800Y-107630000D01*
X136891000Y-107242500D02*
X136890800Y-107242700D01*
D38*
X138360000Y-80367200D02*
X138304000Y-80422900D01*
X138360000Y-78300000D02*
X138360000Y-80367200D01*
X124665000Y-99354700D02*
X124840000Y-99179600D01*
X124380000Y-99354700D02*
X124665000Y-99354700D01*
X124380000Y-100330000D02*
X124380000Y-99354700D01*
X123459000Y-97470000D02*
X123459000Y-97832700D01*
X123856000Y-98195400D02*
X124840000Y-99179600D01*
X123459000Y-98195400D02*
X123856000Y-98195400D01*
X123459000Y-97832700D02*
X123459000Y-98195400D01*
X123459200Y-97832500D02*
X123459200Y-97470000D01*
X123459000Y-97832700D02*
X123459200Y-97832500D01*
X137560000Y-82343300D02*
X137560000Y-78300000D01*
X137857000Y-82640200D02*
X137560000Y-82343300D01*
X132349000Y-97470000D02*
X132349200Y-97470000D01*
X132349000Y-98195400D02*
X132349000Y-97470000D01*
X132000000Y-98544600D02*
X132349000Y-98195400D01*
X132000000Y-100330000D02*
X132000000Y-98544600D01*
X135126000Y-95794600D02*
X136004000Y-96671800D01*
X133814000Y-95794600D02*
X135126000Y-95794600D01*
X132863000Y-96744700D02*
X133814000Y-95794600D01*
X132349000Y-96744700D02*
X132863000Y-96744700D01*
X132349000Y-97470000D02*
X132349000Y-96744700D01*
X141239000Y-96744700D02*
X141239000Y-97875100D01*
X141330000Y-96744700D02*
X141239000Y-96744700D01*
X141965000Y-96109900D02*
X141330000Y-96744700D01*
X141965000Y-94987100D02*
X141965000Y-96109900D01*
X141530000Y-94552700D02*
X141965000Y-94987100D01*
X139206000Y-94552700D02*
X141530000Y-94552700D01*
X131785000Y-87131100D02*
X139206000Y-94552700D01*
X131785000Y-84550000D02*
X131785000Y-87131100D01*
X132910000Y-84550000D02*
X131785000Y-84550000D01*
X140890000Y-99354700D02*
X140890000Y-100330000D01*
X141239000Y-99005500D02*
X140890000Y-99354700D01*
X141239000Y-97875100D02*
X141239000Y-99005500D01*
X141239200Y-97874900D02*
X141239200Y-97470000D01*
X141239000Y-97875100D02*
X141239200Y-97874900D01*
X149780000Y-97594700D02*
X149780000Y-100330000D01*
X150129000Y-97245500D02*
X149780000Y-97594700D01*
X149391000Y-96507700D02*
X150129000Y-97245500D01*
X145466000Y-96507700D02*
X149391000Y-96507700D01*
X142065000Y-93107300D02*
X145466000Y-96507700D01*
X142065000Y-89327400D02*
X142065000Y-93107300D01*
X140663000Y-87925300D02*
X142065000Y-89327400D01*
X139960000Y-87925300D02*
X140663000Y-87925300D01*
X139960000Y-86800000D02*
X139960000Y-87925300D01*
X150129000Y-97470000D02*
X150129000Y-97357700D01*
X150129000Y-97357700D02*
X150129000Y-97245500D01*
X150129200Y-97357900D02*
X150129200Y-97470000D01*
X150129000Y-97357700D02*
X150129200Y-97357900D01*
X159019000Y-98195400D02*
X159019000Y-97832700D01*
X158876000Y-98195400D02*
X159019000Y-98195400D01*
X158306000Y-98765600D02*
X158876000Y-98195400D01*
X158306000Y-99965500D02*
X158306000Y-98765600D01*
X158670000Y-100330000D02*
X158306000Y-99965500D01*
X144942000Y-84550000D02*
X145354000Y-84138700D01*
X141410000Y-84550000D02*
X144942000Y-84550000D01*
X157918000Y-97094000D02*
X157853000Y-97094000D01*
X158294000Y-97470000D02*
X157918000Y-97094000D01*
X159019000Y-97470000D02*
X158294000Y-97470000D01*
X159019000Y-97832700D02*
X159019000Y-97470000D01*
X159019200Y-97832500D02*
X159019200Y-97470000D01*
X159019000Y-97832700D02*
X159019200Y-97832500D01*
X167560000Y-100330000D02*
X167560000Y-99354700D01*
X159261000Y-99354700D02*
X167560000Y-99354700D01*
X158931000Y-99024600D02*
X159261000Y-99354700D01*
X168668000Y-98228400D02*
X168288500Y-97849200D01*
X168668000Y-98978600D02*
X168668000Y-98228400D01*
X168292000Y-99354700D02*
X168668000Y-98978600D01*
X167560000Y-99354700D02*
X168292000Y-99354700D01*
X168288500Y-97849200D02*
X167909000Y-97470000D01*
X168288400Y-97849200D02*
X167909200Y-97470000D01*
X168288500Y-97849200D02*
X168288400Y-97849200D01*
X142387000Y-77174700D02*
X143174000Y-77961000D01*
X139160000Y-77174700D02*
X142387000Y-77174700D01*
X139160000Y-78300000D02*
X139160000Y-77174700D01*
X170704000Y-98950500D02*
X176450000Y-98950500D01*
X168460000Y-96706300D02*
X170704000Y-98950500D01*
X162494000Y-96706300D02*
X168460000Y-96706300D01*
X162353000Y-96847300D02*
X162494000Y-96706300D01*
X176450000Y-98950500D02*
X176450000Y-100330000D01*
X143640000Y-86454800D02*
X145354000Y-86454800D01*
X142535000Y-85350000D02*
X143640000Y-86454800D01*
X141410000Y-85350000D02*
X142535000Y-85350000D01*
X176799000Y-97470000D02*
X176799000Y-97832700D01*
X176450000Y-98544600D02*
X176450000Y-98950500D01*
X176799000Y-98195400D02*
X176450000Y-98544600D01*
X176799000Y-97832700D02*
X176799000Y-98195400D01*
X176799200Y-97832500D02*
X176799200Y-97470000D01*
X176799000Y-97832700D02*
X176799200Y-97832500D01*
X126604000Y-101895000D02*
X126309000Y-101600000D01*
X127080000Y-101895000D02*
X126604000Y-101895000D01*
X127080000Y-102870000D02*
X127080000Y-101895000D01*
X136058000Y-79425300D02*
X134996000Y-80487500D01*
X136760000Y-79425300D02*
X136058000Y-79425300D01*
X136760000Y-78300000D02*
X136760000Y-79425300D01*
X126731000Y-105730000D02*
X126731000Y-105367500D01*
X127080000Y-104655000D02*
X127080000Y-102870000D01*
X126731000Y-105005000D02*
X127080000Y-104655000D01*
X126731000Y-105367500D02*
X126731000Y-105005000D01*
X126730800Y-105367700D02*
X126730800Y-105730000D01*
X126731000Y-105367500D02*
X126730800Y-105367700D01*
X134345000Y-103910000D02*
X134345000Y-102870000D01*
X136165000Y-105730000D02*
X134345000Y-103910000D01*
X136890800Y-105730000D02*
X136165000Y-105730000D01*
X133270000Y-102870000D02*
X134345000Y-102870000D01*
X139960000Y-80088500D02*
X139911000Y-80137500D01*
X139960000Y-78300000D02*
X139960000Y-80088500D01*
X134495000Y-102720000D02*
X134345000Y-102870000D01*
X134620000Y-102720000D02*
X134495000Y-102720000D01*
X133270000Y-102870000D02*
X134345000Y-102870000D01*
X136891000Y-105730000D02*
X136890800Y-105730000D01*
X143430000Y-101895000D02*
X143430000Y-102382000D01*
X143186000Y-101895000D02*
X143430000Y-101895000D01*
X142455000Y-101163000D02*
X143186000Y-101895000D01*
X142455000Y-94840200D02*
X142455000Y-101163000D01*
X137090000Y-89475400D02*
X142455000Y-94840200D01*
X134766000Y-89475400D02*
X137090000Y-89475400D01*
X132567000Y-87276700D02*
X134766000Y-89475400D01*
X132567000Y-85692800D02*
X132567000Y-87276700D01*
X132910000Y-85350000D02*
X132567000Y-85692800D01*
X143430000Y-102870000D02*
X143430000Y-102382000D01*
X148320800Y-105730000D02*
X148320900Y-105729900D01*
X148321000Y-105730000D02*
X148320900Y-105729900D01*
X145747000Y-104700000D02*
X143430000Y-102382000D01*
X147290000Y-104700000D02*
X145747000Y-104700000D01*
X148320900Y-105729900D02*
X147290000Y-104700000D01*
X158880000Y-74800200D02*
X158880000Y-68442700D01*
X156129000Y-77551100D02*
X158880000Y-74800200D01*
X156129000Y-78740000D02*
X156129000Y-77551100D01*
X154940000Y-78740000D02*
X156129000Y-78740000D01*
X156540000Y-66730000D02*
X156540000Y-67586300D01*
X156540000Y-68442700D02*
X158880000Y-68442700D01*
X156540000Y-67586300D02*
X156540000Y-68442700D01*
X156540200Y-67586100D02*
X156540200Y-66730000D01*
X156540000Y-67586300D02*
X156540200Y-67586100D01*
X168946000Y-65175400D02*
X168946000Y-64262700D01*
X165678000Y-68442700D02*
X168946000Y-65175400D01*
X158880000Y-68442700D02*
X165678000Y-68442700D01*
X168946000Y-64262700D02*
X168946000Y-63350100D01*
X168945600Y-64262300D02*
X168945600Y-63350100D01*
X168946000Y-64262700D02*
X168945600Y-64262300D01*
X166624000Y-78707000D02*
X166624000Y-76026000D01*
X154317000Y-73660000D02*
X157955000Y-73660000D01*
X153809000Y-74168000D02*
X154317000Y-73660000D01*
X152734000Y-74168000D02*
X153809000Y-74168000D01*
X195661000Y-71120000D02*
X196850000Y-71120000D01*
X195661000Y-71640100D02*
X195661000Y-71120000D01*
X192630000Y-74670900D02*
X195661000Y-71640100D01*
X165278000Y-74670900D02*
X192630000Y-74670900D01*
X161209000Y-78740000D02*
X165278000Y-74670900D01*
X160020000Y-78740000D02*
X161209000Y-78740000D01*
M02*
