%TF.GenerationSoftware,KiCad,Pcbnew,4.0.2+dfsg1-stable*%
%TF.CreationDate,2019-02-28T19:11:37+01:00*%
%TF.ProjectId,usbavrfloppy,757362617672666C6F7070792E6B6963,rev?*%
%TF.FileFunction,Copper,L1,Top,Signal*%
%FSLAX46Y46*%
G04 Gerber Fmt 4.6, Leading zero omitted, Abs format (unit mm)*
G04 Created by KiCad (PCBNEW 4.0.2+dfsg1-stable) date Thu 28 Feb 2019 19:11:37 CET*
%MOMM*%
G01*
G04 APERTURE LIST*
%ADD10C,0.100000*%
%ADD11R,0.400000X3.000000*%
%ADD12O,1.250000X0.950000*%
%ADD13O,1.000000X1.550000*%
%ADD14R,0.500380X3.000000*%
%ADD15R,1.998980X2.499360*%
%ADD16C,4.064000*%
%ADD17R,1.300000X1.500000*%
%ADD18R,1.500000X1.300000*%
%ADD19R,1.198880X1.198880*%
%ADD20R,1.600000X0.550000*%
%ADD21R,0.550000X1.600000*%
%ADD22R,1.500000X1.250000*%
%ADD23R,1.250000X1.500000*%
%ADD24R,1.600200X2.999740*%
%ADD25R,1.727200X1.727200*%
%ADD26O,1.727200X1.727200*%
%ADD27R,2.032000X2.032000*%
%ADD28O,2.032000X2.032000*%
%ADD29R,1.727200X2.032000*%
%ADD30O,1.727200X2.032000*%
%ADD31R,0.800100X0.800100*%
%ADD32R,0.450000X1.750000*%
%ADD33R,2.100580X5.600700*%
%ADD34R,2.180000X1.600000*%
%ADD35R,1.520000X1.520000*%
%ADD36C,1.520000*%
%ADD37C,0.600000*%
%ADD38C,0.350000*%
%ADD39C,0.250000*%
%ADD40C,0.254000*%
G04 APERTURE END LIST*
D10*
D11*
X168945560Y-63350140D03*
X168290900Y-63350000D03*
X167640900Y-63350000D03*
X166990900Y-63350000D03*
X166340900Y-63350000D03*
D12*
X170140900Y-62522540D03*
X165140900Y-62522540D03*
D13*
X171140900Y-59822540D03*
X164140900Y-59822540D03*
D14*
X155740100Y-66027300D03*
D15*
X159390080Y-62151260D03*
D14*
X156540200Y-66027300D03*
X154940000Y-66027300D03*
X154139900Y-66027300D03*
X153339800Y-66027300D03*
D15*
X159390080Y-65580260D03*
X150489920Y-65580260D03*
X150495000Y-62103000D03*
D16*
X107950000Y-61722000D03*
X181610000Y-62230000D03*
X181610000Y-113030000D03*
X124460000Y-113030000D03*
D17*
X107315000Y-77169000D03*
X107315000Y-74469000D03*
D18*
X125904000Y-71628000D03*
X128604000Y-71628000D03*
D17*
X145161000Y-70565000D03*
X145161000Y-67865000D03*
D18*
X125269000Y-69088000D03*
X127969000Y-69088000D03*
X150034000Y-74168000D03*
X152734000Y-74168000D03*
D17*
X166624000Y-73326000D03*
X166624000Y-76026000D03*
D19*
X157954980Y-73660000D03*
X160053020Y-73660000D03*
X166624000Y-78706980D03*
X166624000Y-80805020D03*
D20*
X141410000Y-85350000D03*
X141410000Y-84550000D03*
X141410000Y-83750000D03*
X141410000Y-82950000D03*
X141410000Y-82150000D03*
X141410000Y-81350000D03*
X141410000Y-80550000D03*
X141410000Y-79750000D03*
D21*
X139960000Y-78300000D03*
X139160000Y-78300000D03*
X138360000Y-78300000D03*
X137560000Y-78300000D03*
X136760000Y-78300000D03*
X135960000Y-78300000D03*
X135160000Y-78300000D03*
X134360000Y-78300000D03*
D20*
X132910000Y-79750000D03*
X132910000Y-80550000D03*
X132910000Y-81350000D03*
X132910000Y-82150000D03*
X132910000Y-82950000D03*
X132910000Y-83750000D03*
X132910000Y-84550000D03*
X132910000Y-85350000D03*
D21*
X134360000Y-86800000D03*
X135160000Y-86800000D03*
X135960000Y-86800000D03*
X136760000Y-86800000D03*
X137560000Y-86800000D03*
X138360000Y-86800000D03*
X139160000Y-86800000D03*
X139960000Y-86800000D03*
D22*
X140990000Y-90170000D03*
X143490000Y-90170000D03*
X140990000Y-74930000D03*
X143490000Y-74930000D03*
D23*
X121920000Y-81300000D03*
X121920000Y-83800000D03*
D22*
X121940000Y-88900000D03*
X124440000Y-88900000D03*
D24*
X127000000Y-80350360D03*
X127000000Y-84749640D03*
D22*
X125710000Y-76200000D03*
X123210000Y-76200000D03*
D25*
X119380000Y-71120000D03*
D26*
X116840000Y-71120000D03*
X119380000Y-68580000D03*
X116840000Y-68580000D03*
X119380000Y-66040000D03*
X116840000Y-66040000D03*
D19*
X123410980Y-66040000D03*
X125509020Y-66040000D03*
D27*
X124460000Y-118110000D03*
D28*
X124460000Y-120650000D03*
D29*
X173990000Y-88900000D03*
D30*
X176530000Y-88900000D03*
X179070000Y-88900000D03*
X181610000Y-88900000D03*
D29*
X189230000Y-71120000D03*
D30*
X191770000Y-71120000D03*
X194310000Y-71120000D03*
X196850000Y-71120000D03*
D29*
X160020000Y-78740000D03*
D30*
X157480000Y-78740000D03*
X154940000Y-78740000D03*
D31*
X123459240Y-95570000D03*
X123459240Y-97470000D03*
X125458220Y-96520000D03*
X132349240Y-95570000D03*
X132349240Y-97470000D03*
X134348220Y-96520000D03*
X141239240Y-95570000D03*
X141239240Y-97470000D03*
X143238220Y-96520000D03*
X150129240Y-95570000D03*
X150129240Y-97470000D03*
X152128220Y-96520000D03*
X159019240Y-95570000D03*
X159019240Y-97470000D03*
X161018220Y-96520000D03*
X167909240Y-95570000D03*
X167909240Y-97470000D03*
X169908220Y-96520000D03*
X176799240Y-95570000D03*
X176799240Y-97470000D03*
X178798220Y-96520000D03*
X126730760Y-107630000D03*
X126730760Y-105730000D03*
X124731780Y-106680000D03*
X136890760Y-107630000D03*
X136890760Y-105730000D03*
X134891780Y-106680000D03*
X148320760Y-107630000D03*
X148320760Y-105730000D03*
X146321780Y-106680000D03*
D17*
X129540000Y-66120000D03*
X129540000Y-63420000D03*
D18*
X127080000Y-100330000D03*
X124380000Y-100330000D03*
D17*
X128270000Y-95170000D03*
X128270000Y-97870000D03*
D18*
X134700000Y-100330000D03*
X132000000Y-100330000D03*
X143590000Y-100330000D03*
X140890000Y-100330000D03*
X152480000Y-100330000D03*
X149780000Y-100330000D03*
X161370000Y-100330000D03*
X158670000Y-100330000D03*
X170260000Y-100330000D03*
X167560000Y-100330000D03*
D17*
X137160000Y-95170000D03*
X137160000Y-97870000D03*
X146050000Y-95170000D03*
X146050000Y-97870000D03*
X154940000Y-95170000D03*
X154940000Y-97870000D03*
X163830000Y-95170000D03*
X163830000Y-97870000D03*
X172720000Y-95170000D03*
X172720000Y-97870000D03*
D18*
X179150000Y-100330000D03*
X176450000Y-100330000D03*
X124380000Y-102870000D03*
X127080000Y-102870000D03*
X135970000Y-102870000D03*
X133270000Y-102870000D03*
X146130000Y-102870000D03*
X143430000Y-102870000D03*
D17*
X181610000Y-95170000D03*
X181610000Y-97870000D03*
X129540000Y-105330000D03*
X129540000Y-108030000D03*
X140970000Y-105330000D03*
X140970000Y-108030000D03*
X152400000Y-105330000D03*
X152400000Y-108030000D03*
D32*
X132935000Y-72180000D03*
X133585000Y-72180000D03*
X134235000Y-72180000D03*
X134885000Y-72180000D03*
X135535000Y-72180000D03*
X136185000Y-72180000D03*
X136835000Y-72180000D03*
X137485000Y-72180000D03*
X138135000Y-72180000D03*
X138785000Y-72180000D03*
X139435000Y-72180000D03*
X140085000Y-72180000D03*
X140735000Y-72180000D03*
X141385000Y-72180000D03*
X141385000Y-64980000D03*
X140735000Y-64980000D03*
X140085000Y-64980000D03*
X139435000Y-64980000D03*
X138785000Y-64980000D03*
X138135000Y-64980000D03*
X137485000Y-64980000D03*
X136835000Y-64980000D03*
X136185000Y-64980000D03*
X135535000Y-64980000D03*
X134885000Y-64980000D03*
X134235000Y-64980000D03*
X133585000Y-64980000D03*
X132935000Y-64980000D03*
D33*
X147320000Y-77701140D03*
X147320000Y-87398860D03*
D34*
X109964000Y-76454000D03*
X119144000Y-76454000D03*
D35*
X133350000Y-120650000D03*
D36*
X133350000Y-118110000D03*
X135890000Y-120650000D03*
X135890000Y-118110000D03*
X138430000Y-120650000D03*
X138430000Y-118110000D03*
X140970000Y-120650000D03*
X140970000Y-118110000D03*
X143510000Y-120650000D03*
X143510000Y-118110000D03*
X146050000Y-120650000D03*
X146050000Y-118110000D03*
X148590000Y-120650000D03*
X148590000Y-118110000D03*
X151130000Y-120650000D03*
X151130000Y-118110000D03*
X153670000Y-120650000D03*
X153670000Y-118110000D03*
X156210000Y-120650000D03*
X156210000Y-118110000D03*
X158750000Y-120650000D03*
X158750000Y-118110000D03*
X161290000Y-120650000D03*
X161290000Y-118110000D03*
X163830000Y-120650000D03*
X163830000Y-118110000D03*
X166370000Y-120650000D03*
X166370000Y-118110000D03*
X168910000Y-120650000D03*
X168910000Y-118110000D03*
X171450000Y-120650000D03*
X171450000Y-118110000D03*
X173990000Y-120650000D03*
X173990000Y-118110000D03*
D37*
X123046000Y-83674200D03*
X117348000Y-74803000D03*
X120747000Y-76581200D03*
X123210000Y-77371000D03*
X131607000Y-83077600D03*
X128651000Y-84836000D03*
X136779000Y-74041000D03*
X136906000Y-75565000D03*
X134816000Y-63599000D03*
X139304000Y-63599000D03*
X128342000Y-63439200D03*
X131191000Y-66421000D03*
X137087000Y-70788100D03*
X137322000Y-66367300D03*
X153478000Y-64719200D03*
X140095000Y-82150000D03*
X140049000Y-83750000D03*
X127000000Y-82720900D03*
X139726000Y-90130500D03*
X161185000Y-74045500D03*
X167736000Y-80544500D03*
X122603000Y-90065400D03*
X137643000Y-62684000D03*
X125470000Y-86347700D03*
X125046000Y-77879900D03*
X131264000Y-79654900D03*
X126432000Y-73828600D03*
X152402000Y-98236000D03*
X170651000Y-97700100D03*
X129489000Y-102689000D03*
X149120000Y-97163200D03*
X147010000Y-105325000D03*
X168016000Y-98711000D03*
X157776000Y-69333300D03*
X161525000Y-62571600D03*
X133171000Y-74061700D03*
X134290000Y-85412700D03*
X134061000Y-74199300D03*
X135439000Y-84571300D03*
X140360000Y-70702000D03*
X139048000Y-85412700D03*
X133192000Y-86241300D03*
X159151000Y-94438600D03*
X138304000Y-80422900D03*
X124840000Y-99179600D03*
X136004000Y-96671800D03*
X137857000Y-82640200D03*
X145354000Y-84138700D03*
X157853000Y-97094000D03*
X143174000Y-77961000D03*
X158931000Y-99024600D03*
X145354000Y-86454800D03*
X162353000Y-96847300D03*
X134996000Y-80487500D03*
X126309000Y-101600000D03*
X139911000Y-80137500D03*
X134620000Y-102720000D03*
D38*
X123210000Y-76200000D02*
X123210000Y-77371000D01*
X131735000Y-82950000D02*
X131607000Y-83077600D01*
X132910000Y-82950000D02*
X131735000Y-82950000D01*
X128565000Y-84749600D02*
X127000000Y-84749600D01*
X128651000Y-84836000D02*
X128565000Y-84749600D01*
X121920000Y-88880000D02*
X121940000Y-88900000D01*
X121920000Y-83800000D02*
X121920000Y-88880000D01*
X122920000Y-83800000D02*
X121920000Y-83800000D01*
X123046000Y-83674200D02*
X122920000Y-83800000D01*
X124122000Y-84749600D02*
X123046000Y-83674200D01*
X127000000Y-84749600D02*
X124122000Y-84749600D01*
X136835000Y-73985000D02*
X136835000Y-72180000D01*
X136779000Y-74041000D02*
X136835000Y-73985000D01*
X138176000Y-75565000D02*
X136906000Y-75565000D01*
X138811000Y-74930000D02*
X138176000Y-75565000D01*
X139865000Y-74930000D02*
X138811000Y-74930000D01*
X134816000Y-63599000D02*
X134816000Y-63729700D01*
X139435000Y-63729700D02*
X139304000Y-63599000D01*
X139435000Y-64980000D02*
X139435000Y-63729700D01*
X128515000Y-63420000D02*
X129540000Y-63420000D01*
X128496000Y-63439200D02*
X128515000Y-63420000D01*
X128342000Y-63439200D02*
X128496000Y-63439200D01*
X131245000Y-66367300D02*
X131191000Y-66421000D01*
X137322000Y-66367300D02*
X131245000Y-66367300D01*
X136835000Y-70929700D02*
X136835000Y-72180000D01*
X136946000Y-70929700D02*
X136835000Y-70929700D01*
X137087000Y-70788100D02*
X136946000Y-70929700D01*
X137485000Y-66230300D02*
X137485000Y-64980000D01*
X137459000Y-66230300D02*
X137485000Y-66230300D01*
X137322000Y-66367300D02*
X137459000Y-66230300D01*
X141410000Y-82150000D02*
X140095000Y-82150000D01*
X141410000Y-83750000D02*
X140049000Y-83750000D01*
X127000000Y-82720900D02*
X127000000Y-84749600D01*
X139825000Y-90130500D02*
X139726000Y-90130500D01*
X139865000Y-90170000D02*
X139825000Y-90130500D01*
X140990000Y-90170000D02*
X139865000Y-90170000D01*
X161028000Y-73660000D02*
X160053000Y-73660000D01*
X161028000Y-73888400D02*
X161028000Y-73660000D01*
X161185000Y-74045500D02*
X161028000Y-73888400D01*
X167599000Y-80805000D02*
X166624000Y-80805000D01*
X167599000Y-80681500D02*
X167599000Y-80805000D01*
X167736000Y-80544500D02*
X167599000Y-80681500D01*
X122438000Y-89900300D02*
X122603000Y-90065400D01*
X121940000Y-89900300D02*
X122438000Y-89900300D01*
X121940000Y-88900000D02*
X121940000Y-89900300D01*
X134885000Y-63729700D02*
X134816000Y-63729700D01*
X134885000Y-64980000D02*
X134885000Y-63729700D01*
X134235000Y-63729700D02*
X134235000Y-64980000D01*
X134816000Y-63729700D02*
X134235000Y-63729700D01*
X139954000Y-74930000D02*
X139865000Y-74930000D01*
X140990000Y-74930000D02*
X139954000Y-74930000D01*
X139954000Y-74930000D02*
X139865000Y-74930000D01*
X163830000Y-120650000D02*
X166370000Y-120650000D01*
X119156000Y-76456300D02*
X119156400Y-76456300D01*
X119156000Y-75468400D02*
X119156000Y-76456300D01*
X118999000Y-75311000D02*
X119156000Y-75468400D01*
X117856000Y-75311000D02*
X118999000Y-75311000D01*
X117348000Y-74803000D02*
X117856000Y-75311000D01*
X120622000Y-76456300D02*
X120747000Y-76581200D01*
X119156400Y-76456300D02*
X120622000Y-76456300D01*
X161290000Y-120650000D02*
X163830000Y-120650000D01*
X158750000Y-120650000D02*
X161290000Y-120650000D01*
X156210000Y-120650000D02*
X158750000Y-120650000D01*
X153670000Y-120650000D02*
X156210000Y-120650000D01*
X151130000Y-120650000D02*
X153670000Y-120650000D01*
X148590000Y-120650000D02*
X151130000Y-120650000D01*
X146050000Y-120650000D02*
X148590000Y-120650000D01*
X143510000Y-120650000D02*
X146050000Y-120650000D01*
X140970000Y-120650000D02*
X143510000Y-120650000D01*
X138430000Y-120650000D02*
X140970000Y-120650000D01*
X133350000Y-120650000D02*
X135890000Y-120650000D01*
X135890000Y-120650000D02*
X138430000Y-120650000D01*
X119440800Y-63439200D02*
X128342000Y-63439200D01*
X116840000Y-66040000D02*
X119440800Y-63439200D01*
X135706400Y-82950000D02*
X132910000Y-82950000D01*
X136681400Y-83925000D02*
X135706400Y-82950000D01*
X139874000Y-83925000D02*
X136681400Y-83925000D01*
X140049000Y-83750000D02*
X139874000Y-83925000D01*
X154140000Y-66730000D02*
X154140000Y-67667600D01*
X154139900Y-67667500D02*
X154139900Y-66730000D01*
X154140000Y-67667600D02*
X154139900Y-67667500D01*
X174944000Y-68175900D02*
X170140900Y-63372800D01*
X188748500Y-68175900D02*
X174944000Y-68175900D01*
X190531100Y-69958500D02*
X188748500Y-68175900D01*
X190531100Y-71120000D02*
X190531100Y-69958500D01*
X191770000Y-71120000D02*
X190531100Y-71120000D01*
X170140900Y-62522500D02*
X170140900Y-63372800D01*
X171141000Y-59822500D02*
X171141000Y-60672500D01*
X171140900Y-60672400D02*
X171140900Y-59822500D01*
X171141000Y-60672500D02*
X171140900Y-60672400D01*
X153339800Y-66730000D02*
X153340000Y-66730000D01*
X153340000Y-68605300D02*
X153340000Y-66730000D01*
X154140000Y-68605300D02*
X153340000Y-68605300D01*
X154140000Y-67667600D02*
X154140000Y-68605300D01*
X153343000Y-64854700D02*
X153478000Y-64719200D01*
X153340000Y-64854700D02*
X153343000Y-64854700D01*
X153340000Y-66730000D02*
X153340000Y-64854700D01*
X165641000Y-62522500D02*
X165140900Y-62522500D01*
X165141000Y-62522500D02*
X165641000Y-62522500D01*
X164141000Y-61522500D02*
X165141000Y-62522500D01*
X164141000Y-60672500D02*
X164141000Y-61522500D01*
X170641000Y-62022500D02*
X170141000Y-62522500D01*
X170640900Y-62022500D02*
X170140900Y-62522500D01*
X170641000Y-62022500D02*
X170640900Y-62022500D01*
X171141000Y-60672500D02*
X171141000Y-61097500D01*
X171141000Y-61522500D02*
X170641000Y-62022500D01*
X171141000Y-61097500D02*
X171141000Y-61522500D01*
X164566000Y-61097500D02*
X164141000Y-60672500D01*
X171141000Y-61097500D02*
X164566000Y-61097500D01*
X166141000Y-63150300D02*
X166340900Y-63350000D01*
X166141000Y-62522500D02*
X166141000Y-63150300D01*
X165641000Y-62522500D02*
X166141000Y-62522500D01*
X166340900Y-63350000D02*
X166341000Y-63350000D01*
X164141000Y-59822500D02*
X164141000Y-60247500D01*
X164141000Y-60247500D02*
X164141000Y-60672500D01*
X164140900Y-60247400D02*
X164140900Y-59822500D01*
X164141000Y-60247500D02*
X164140900Y-60247400D01*
D39*
X147320000Y-87398900D02*
X145944000Y-87398900D01*
X144124000Y-89219700D02*
X145944000Y-87398900D01*
X143490000Y-89219700D02*
X144124000Y-89219700D01*
X143490000Y-90170000D02*
X143490000Y-89219700D01*
X142649000Y-80550000D02*
X141410000Y-80550000D01*
X145979000Y-83879600D02*
X142649000Y-80550000D01*
X145979000Y-84397800D02*
X145979000Y-83879600D01*
X145944000Y-84432200D02*
X145979000Y-84397800D01*
X145944000Y-86161300D02*
X145944000Y-84432200D01*
X145979000Y-86195700D02*
X145944000Y-86161300D01*
X145979000Y-86713900D02*
X145979000Y-86195700D01*
X145944000Y-86748300D02*
X145979000Y-86713900D01*
X145944000Y-87398900D02*
X145944000Y-86748300D01*
X142535000Y-79750000D02*
X144584000Y-77701100D01*
X141410000Y-79750000D02*
X142535000Y-79750000D01*
X143490000Y-76606900D02*
X144584000Y-77701100D01*
X143490000Y-74930000D02*
X143490000Y-76606900D01*
X144584000Y-77701100D02*
X147320000Y-77701100D01*
X139339000Y-62684000D02*
X137643000Y-62684000D01*
X140085000Y-63429800D02*
X139339000Y-62684000D01*
X140085000Y-64980000D02*
X140085000Y-63429800D01*
X125470000Y-86919800D02*
X125470000Y-86347700D01*
X124440000Y-87949700D02*
X125470000Y-86919800D01*
X124440000Y-88900000D02*
X124440000Y-87949700D01*
X134360000Y-77174700D02*
X134360000Y-78300000D01*
X132435000Y-75249600D02*
X134360000Y-77174700D01*
X124739000Y-75249600D02*
X132435000Y-75249600D01*
X124635000Y-75354300D02*
X124739000Y-75249600D01*
X124635000Y-77468500D02*
X124635000Y-75354300D01*
X125046000Y-77879900D02*
X124635000Y-77468500D01*
X131690000Y-79654900D02*
X131264000Y-79654900D01*
X131785000Y-79750000D02*
X131690000Y-79654900D01*
X132910000Y-79750000D02*
X131785000Y-79750000D01*
X122486000Y-66040000D02*
X123411000Y-66040000D01*
X120569000Y-67957400D02*
X122486000Y-66040000D01*
X120569000Y-68580000D02*
X120569000Y-67957400D01*
X119380000Y-68580000D02*
X120569000Y-68580000D01*
X131814000Y-73828600D02*
X126432000Y-73828600D01*
X135160000Y-77174700D02*
X131814000Y-73828600D01*
X135160000Y-78300000D02*
X135160000Y-77174700D01*
X128485000Y-66040000D02*
X125509000Y-66040000D01*
X128565000Y-66120000D02*
X128485000Y-66040000D01*
X129540000Y-66120000D02*
X128565000Y-66120000D01*
X125801000Y-120650000D02*
X124460000Y-120650000D01*
X127152000Y-119299000D02*
X125801000Y-120650000D01*
X141504000Y-119299000D02*
X127152000Y-119299000D01*
X142321000Y-118482000D02*
X141504000Y-119299000D01*
X142321000Y-118110000D02*
X142321000Y-118482000D01*
X143510000Y-118110000D02*
X142321000Y-118110000D01*
X152768000Y-97870000D02*
X152402000Y-98236000D01*
X154940000Y-97870000D02*
X152768000Y-97870000D01*
X152128000Y-97962700D02*
X152128000Y-97241300D01*
X152402000Y-98236000D02*
X152128000Y-97962700D01*
X152128000Y-97241300D02*
X152128000Y-96520000D01*
X152128200Y-97241100D02*
X152128200Y-96520000D01*
X152128000Y-97241300D02*
X152128200Y-97241100D01*
X171745000Y-97870000D02*
X172720000Y-97870000D01*
X171575000Y-97700100D02*
X171745000Y-97870000D01*
X170651000Y-97700100D02*
X171575000Y-97700100D01*
X169908000Y-96520000D02*
X169908200Y-96520000D01*
X170634000Y-97682900D02*
X170651000Y-97700100D01*
X170634000Y-96520000D02*
X170634000Y-97682900D01*
X169908200Y-96520000D02*
X170634000Y-96520000D01*
X129489000Y-98113500D02*
X129489000Y-102689000D01*
X129245000Y-97870000D02*
X129489000Y-98113500D01*
X128270000Y-97870000D02*
X129245000Y-97870000D01*
X126184000Y-96520000D02*
X125458200Y-96520000D01*
X126184000Y-96758900D02*
X126184000Y-96520000D01*
X127295000Y-97870000D02*
X126184000Y-96758900D01*
X128270000Y-97870000D02*
X127295000Y-97870000D01*
X125458200Y-96520000D02*
X125458000Y-96520000D01*
X179524000Y-96520000D02*
X178798200Y-96520000D01*
X179524000Y-96758900D02*
X179524000Y-96520000D01*
X180635000Y-97870000D02*
X179524000Y-96758900D01*
X181610000Y-97870000D02*
X180635000Y-97870000D01*
X181610000Y-101092000D02*
X181610000Y-97870000D01*
X167640000Y-115062000D02*
X181610000Y-101092000D01*
X167640000Y-118543000D02*
X167640000Y-115062000D01*
X166884000Y-119299000D02*
X167640000Y-118543000D01*
X160756000Y-119299000D02*
X166884000Y-119299000D01*
X178798000Y-96520000D02*
X178798200Y-96520000D01*
X159939000Y-118482000D02*
X160756000Y-119299000D01*
X159939000Y-118110000D02*
X159939000Y-118482000D01*
X158750000Y-118110000D02*
X159939000Y-118110000D01*
X148413000Y-97870000D02*
X149120000Y-97163200D01*
X146050000Y-97870000D02*
X148413000Y-97870000D01*
X143238000Y-96520000D02*
X143238200Y-96520000D01*
X145075000Y-97870000D02*
X146050000Y-97870000D01*
X143964000Y-96758900D02*
X145075000Y-97870000D01*
X143964000Y-96520000D02*
X143964000Y-96758900D01*
X143238200Y-96520000D02*
X143964000Y-96520000D01*
X143540000Y-105325000D02*
X147010000Y-105325000D01*
X137160000Y-98945300D02*
X143540000Y-105325000D01*
X137160000Y-97870000D02*
X137160000Y-98945300D01*
X135074000Y-96520000D02*
X134348200Y-96520000D01*
X135074000Y-96977000D02*
X135074000Y-96520000D01*
X135967000Y-97870000D02*
X135074000Y-96977000D01*
X137160000Y-97870000D02*
X135967000Y-97870000D01*
X134348200Y-96520000D02*
X134348000Y-96520000D01*
X165646000Y-98711000D02*
X168016000Y-98711000D01*
X164805000Y-97870000D02*
X165646000Y-98711000D01*
X163830000Y-97870000D02*
X164805000Y-97870000D01*
X161018000Y-96520000D02*
X161018200Y-96520000D01*
X162491000Y-97870000D02*
X163830000Y-97870000D01*
X161727000Y-97106300D02*
X162491000Y-97870000D01*
X161727000Y-96588300D02*
X161727000Y-97106300D01*
X161744000Y-96572100D02*
X161727000Y-96588300D01*
X161744000Y-96520000D02*
X161744000Y-96572100D01*
X161018200Y-96520000D02*
X161744000Y-96520000D01*
D38*
X169855000Y-71120000D02*
X189230000Y-71120000D01*
X167649000Y-73326000D02*
X169855000Y-71120000D01*
X166624000Y-73326000D02*
X167649000Y-73326000D01*
D39*
X154672000Y-64005200D02*
X155740000Y-65073400D01*
X149396000Y-64005200D02*
X154672000Y-64005200D01*
X149170000Y-63779700D02*
X149396000Y-64005200D01*
X140735000Y-63779700D02*
X149170000Y-63779700D01*
X140735000Y-64980000D02*
X140735000Y-63779700D01*
X155740000Y-66730000D02*
X155740000Y-65901700D01*
X155740000Y-65901700D02*
X155740000Y-65073400D01*
X155740100Y-65901800D02*
X155740100Y-66730000D01*
X155740000Y-65901700D02*
X155740100Y-65901800D01*
X168291000Y-65175300D02*
X168291000Y-64262600D01*
X167841000Y-65625600D02*
X168291000Y-65175300D01*
X163929000Y-65625600D02*
X167841000Y-65625600D01*
X162308000Y-64005200D02*
X163929000Y-65625600D01*
X156640000Y-64005200D02*
X162308000Y-64005200D01*
X155740000Y-64904700D02*
X156640000Y-64005200D01*
X155740000Y-65073400D02*
X155740000Y-64904700D01*
X168291000Y-64262600D02*
X168291000Y-63350000D01*
X168290900Y-64262500D02*
X168290900Y-63350000D01*
X168291000Y-64262600D02*
X168290900Y-64262500D01*
X155686000Y-69333300D02*
X157776000Y-69333300D01*
X154940000Y-68586900D02*
X155686000Y-69333300D01*
X154412000Y-69114400D02*
X154940000Y-68586900D01*
X149885000Y-69114400D02*
X154412000Y-69114400D01*
X145750000Y-64980000D02*
X149885000Y-69114400D01*
X141385000Y-64980000D02*
X145750000Y-64980000D01*
X154940000Y-68586900D02*
X154940000Y-66730000D01*
X167641000Y-63350000D02*
X167641000Y-64262600D01*
X164128000Y-65175300D02*
X161525000Y-62571600D01*
X167641000Y-65175300D02*
X164128000Y-65175300D01*
X167641000Y-64262600D02*
X167641000Y-65175300D01*
X167640900Y-64262500D02*
X167640900Y-63350000D01*
X167641000Y-64262600D02*
X167640900Y-64262500D01*
X134360000Y-85482400D02*
X134360000Y-86800000D01*
X134290000Y-85412700D02*
X134360000Y-85482400D01*
X131712000Y-72603300D02*
X133171000Y-74061700D01*
X128604000Y-72603300D02*
X131712000Y-72603300D01*
X128604000Y-71628000D02*
X128604000Y-72603300D01*
X139435000Y-73380300D02*
X139435000Y-72180000D01*
X137977000Y-74838600D02*
X139435000Y-73380300D01*
X133814000Y-74838600D02*
X137977000Y-74838600D01*
X133171000Y-74195100D02*
X133814000Y-74838600D01*
X133171000Y-74061700D02*
X133171000Y-74195100D01*
X132935000Y-70979700D02*
X132935000Y-72180000D01*
X131043000Y-69088000D02*
X132935000Y-70979700D01*
X127969000Y-69088000D02*
X131043000Y-69088000D01*
X134061000Y-73983000D02*
X134061000Y-74199300D01*
X133458000Y-73380300D02*
X134061000Y-73983000D01*
X133225000Y-73380300D02*
X133458000Y-73380300D01*
X132935000Y-73090100D02*
X133225000Y-73380300D01*
X132935000Y-72180000D02*
X132935000Y-73090100D01*
X137257000Y-84571300D02*
X135439000Y-84571300D01*
X138360000Y-85674700D02*
X137257000Y-84571300D01*
X138360000Y-86800000D02*
X138360000Y-85674700D01*
X139802000Y-70143800D02*
X140360000Y-70702000D01*
X136371000Y-70143800D02*
X139802000Y-70143800D01*
X135535000Y-70979700D02*
X136371000Y-70143800D01*
X135535000Y-72180000D02*
X135535000Y-70979700D01*
X143197000Y-67865000D02*
X140360000Y-70702000D01*
X145161000Y-67865000D02*
X143197000Y-67865000D01*
X139160000Y-85524200D02*
X139160000Y-86800000D01*
X139048000Y-85412700D02*
X139160000Y-85524200D01*
X108536000Y-76923000D02*
X108536000Y-76451700D01*
X108290000Y-77169000D02*
X108536000Y-76923000D01*
X107315000Y-77169000D02*
X108290000Y-77169000D01*
X107994000Y-75909900D02*
X108536000Y-76451700D01*
X106857000Y-75909900D02*
X107994000Y-75909900D01*
X106340000Y-75392800D02*
X106857000Y-75909900D01*
X106340000Y-73518500D02*
X106340000Y-75392800D01*
X112629000Y-67228900D02*
X106340000Y-73518500D01*
X117374000Y-67228900D02*
X112629000Y-67228900D01*
X118191000Y-66411600D02*
X117374000Y-67228900D01*
X118191000Y-66040000D02*
X118191000Y-66411600D01*
X119380000Y-66040000D02*
X118191000Y-66040000D01*
X133192000Y-87185500D02*
X133192000Y-86241300D01*
X133932000Y-87925300D02*
X133192000Y-87185500D01*
X137560000Y-87925300D02*
X133932000Y-87925300D01*
X137560000Y-86800000D02*
X137560000Y-87925300D01*
X109952000Y-76451700D02*
X109951600Y-76451700D01*
X109951600Y-76451700D02*
X108536000Y-76451700D01*
X149941000Y-118110000D02*
X151130000Y-118110000D01*
X149941000Y-118482000D02*
X149941000Y-118110000D01*
X149124000Y-119299000D02*
X149941000Y-118482000D01*
X148056000Y-119299000D02*
X149124000Y-119299000D01*
X147239000Y-118482000D02*
X148056000Y-119299000D01*
X147239000Y-118110000D02*
X147239000Y-118482000D01*
X146050000Y-118110000D02*
X147239000Y-118110000D01*
X140970000Y-116921000D02*
X140970000Y-108568000D01*
X126990000Y-116921000D02*
X140970000Y-116921000D01*
X125801000Y-118110000D02*
X126990000Y-116921000D01*
X124460000Y-118110000D02*
X125801000Y-118110000D01*
X144861000Y-118110000D02*
X146050000Y-118110000D01*
X144861000Y-117738000D02*
X144861000Y-118110000D01*
X144044000Y-116921000D02*
X144861000Y-117738000D01*
X140970000Y-116921000D02*
X144044000Y-116921000D01*
X140970000Y-108030000D02*
X140970000Y-108568000D01*
X134892000Y-106680000D02*
X134892000Y-107042500D01*
X136054000Y-108568000D02*
X140970000Y-108568000D01*
X134892000Y-107405000D02*
X136054000Y-108568000D01*
X134892000Y-107042500D02*
X134892000Y-107405000D01*
X134891800Y-107042300D02*
X134891800Y-106680000D01*
X134892000Y-107042500D02*
X134891800Y-107042300D01*
X155473000Y-108030000D02*
X152400000Y-108030000D01*
X165181000Y-117738000D02*
X155473000Y-108030000D01*
X165181000Y-118110000D02*
X165181000Y-117738000D01*
X166370000Y-118110000D02*
X165181000Y-118110000D01*
X150075000Y-106680000D02*
X146322000Y-106680000D01*
X151425000Y-108030000D02*
X150075000Y-106680000D01*
X152400000Y-108030000D02*
X151425000Y-108030000D01*
X146322000Y-106680000D02*
X146321800Y-106680000D01*
X127295000Y-109788000D02*
X129052000Y-108030000D01*
X124322000Y-109788000D02*
X127295000Y-109788000D01*
X122062000Y-112048000D02*
X124322000Y-109788000D01*
X122062000Y-120190000D02*
X122062000Y-112048000D01*
X123902000Y-122030000D02*
X122062000Y-120190000D01*
X166728000Y-122030000D02*
X123902000Y-122030000D01*
X167640000Y-121119000D02*
X166728000Y-122030000D01*
X167640000Y-120238000D02*
X167640000Y-121119000D01*
X168579000Y-119299000D02*
X167640000Y-120238000D01*
X169444000Y-119299000D02*
X168579000Y-119299000D01*
X170261000Y-118482000D02*
X169444000Y-119299000D01*
X170261000Y-118110000D02*
X170261000Y-118482000D01*
X171450000Y-118110000D02*
X170261000Y-118110000D01*
X129540000Y-108030000D02*
X129052000Y-108030000D01*
X128565000Y-108030000D02*
X129052000Y-108030000D01*
X127215000Y-106680000D02*
X128565000Y-108030000D01*
X124732000Y-106680000D02*
X127215000Y-106680000D01*
X124732000Y-106680000D02*
X124731800Y-106680000D01*
D38*
X139676000Y-82950000D02*
X139403000Y-82677000D01*
X141410000Y-82950000D02*
X139676000Y-82950000D01*
X138723000Y-83357200D02*
X139403000Y-82677000D01*
X136892000Y-83357200D02*
X138723000Y-83357200D01*
X134085000Y-80550000D02*
X136892000Y-83357200D01*
X132910000Y-80550000D02*
X134085000Y-80550000D01*
X139907000Y-81350000D02*
X141410000Y-81350000D01*
X139403000Y-81854200D02*
X139907000Y-81350000D01*
X139403000Y-82677000D02*
X139403000Y-81854200D01*
X130910000Y-80550000D02*
X132910000Y-80550000D01*
X122920000Y-81300000D02*
X121920000Y-81300000D01*
X123870000Y-80350400D02*
X122920000Y-81300000D01*
X156032000Y-80187600D02*
X157480000Y-78740000D01*
X154452000Y-80187600D02*
X156032000Y-80187600D01*
X150034000Y-75770200D02*
X154452000Y-80187600D01*
X150034000Y-74168000D02*
X150034000Y-75770200D01*
X148909000Y-73287400D02*
X146186000Y-70565000D01*
X148909000Y-74168000D02*
X148909000Y-73287400D01*
X150034000Y-74168000D02*
X148909000Y-74168000D01*
X145161000Y-70565000D02*
X146186000Y-70565000D01*
X125955000Y-100713000D02*
X125955000Y-100330000D01*
X124823000Y-101845000D02*
X125955000Y-100713000D01*
X124380000Y-101845000D02*
X124823000Y-101845000D01*
X124380000Y-102870000D02*
X124380000Y-101845000D01*
X145641000Y-101355000D02*
X146130000Y-101845000D01*
X143590000Y-101355000D02*
X145641000Y-101355000D01*
X143590000Y-100330000D02*
X143590000Y-101355000D01*
X152480000Y-100330000D02*
X152480000Y-101355000D01*
X161370000Y-101355000D02*
X170260000Y-101355000D01*
X170260000Y-100330000D02*
X170260000Y-101355000D01*
X127245000Y-95170000D02*
X128270000Y-95170000D01*
X126845000Y-95570000D02*
X127245000Y-95170000D01*
X124646000Y-95570000D02*
X126845000Y-95570000D01*
X154468000Y-100330000D02*
X152480000Y-100330000D01*
X156365000Y-98432300D02*
X154468000Y-100330000D01*
X156365000Y-95570000D02*
X156365000Y-98432300D01*
X174145000Y-95570000D02*
X176799000Y-95570000D01*
X173745000Y-95170000D02*
X174145000Y-95570000D01*
X172720000Y-95170000D02*
X173745000Y-95170000D01*
X177975000Y-95170000D02*
X181610000Y-95170000D01*
X177575000Y-95570000D02*
X177975000Y-95170000D01*
X176799200Y-95570000D02*
X177575000Y-95570000D01*
X129295000Y-95170000D02*
X128270000Y-95170000D01*
X129564000Y-95439000D02*
X129295000Y-95170000D01*
X131022000Y-95439000D02*
X129564000Y-95439000D01*
X131153000Y-95570000D02*
X131022000Y-95439000D01*
X131952000Y-95570000D02*
X131153000Y-95570000D01*
X150650000Y-101845000D02*
X146130000Y-101845000D01*
X150650000Y-101355000D02*
X150650000Y-101845000D01*
X152480000Y-101355000D02*
X150650000Y-101355000D01*
X151375000Y-105330000D02*
X152400000Y-105330000D01*
X150650000Y-104606000D02*
X151375000Y-105330000D01*
X150650000Y-101845000D02*
X150650000Y-104606000D01*
X179150000Y-98478000D02*
X179150000Y-100330000D01*
X177017000Y-96345400D02*
X179150000Y-98478000D01*
X176799000Y-96345400D02*
X177017000Y-96345400D01*
X176799000Y-95570000D02*
X176799000Y-96345400D01*
X179150000Y-101355000D02*
X170260000Y-101355000D01*
X179150000Y-100330000D02*
X179150000Y-101355000D01*
X138646000Y-105033000D02*
X138646000Y-105330000D01*
X135970000Y-102357000D02*
X138646000Y-105033000D01*
X138646000Y-105330000D02*
X140970000Y-105330000D01*
X134700000Y-101355000D02*
X134945000Y-101600000D01*
X134700000Y-100330000D02*
X134700000Y-101355000D01*
X146130000Y-102870000D02*
X146130000Y-101845000D01*
X141995000Y-105330000D02*
X140970000Y-105330000D01*
X144295000Y-107630000D02*
X141995000Y-105330000D01*
X148320800Y-107630000D02*
X144295000Y-107630000D01*
X134885000Y-68337900D02*
X134885000Y-72180000D01*
X125269000Y-68062700D02*
X125269000Y-69088000D01*
X134610000Y-68062700D02*
X125269000Y-68062700D01*
X134885000Y-68337900D02*
X134610000Y-68062700D01*
X145687000Y-66454300D02*
X138190000Y-66454300D01*
X146186000Y-66953800D02*
X145687000Y-66454300D01*
X146186000Y-70565000D02*
X146186000Y-66953800D01*
X138190000Y-66230300D02*
X138190000Y-66454300D01*
X138135000Y-66175200D02*
X138190000Y-66230300D01*
X138135000Y-64980000D02*
X138135000Y-66175200D01*
X136307000Y-68337900D02*
X134885000Y-68337900D01*
X138190000Y-66454300D02*
X136307000Y-68337900D01*
X131952000Y-95170000D02*
X137160000Y-95170000D01*
X131952000Y-95570000D02*
X131952000Y-95170000D01*
X125710000Y-77200300D02*
X125710000Y-76200000D01*
X125721000Y-77211600D02*
X125710000Y-77200300D01*
X125721000Y-80350400D02*
X125721000Y-77211600D01*
X129540000Y-103364000D02*
X129540000Y-105330000D01*
X131533000Y-101600000D02*
X134945000Y-101600000D01*
X129769000Y-103364000D02*
X131533000Y-101600000D01*
X129540000Y-103364000D02*
X129769000Y-103364000D01*
X125341000Y-70185700D02*
X125341000Y-71628000D01*
X125269000Y-70113300D02*
X125341000Y-70185700D01*
X125269000Y-69088000D02*
X125269000Y-70113300D01*
X111689000Y-71120000D02*
X116840000Y-71120000D01*
X108340000Y-74469000D02*
X111689000Y-71120000D01*
X107315000Y-74469000D02*
X108340000Y-74469000D01*
X122064000Y-78545000D02*
X123870000Y-80350400D01*
X122064000Y-73379000D02*
X122064000Y-78545000D01*
X118079000Y-71120000D02*
X116840000Y-71120000D01*
X118079000Y-72086800D02*
X118079000Y-71120000D01*
X119371000Y-73379000D02*
X118079000Y-72086800D01*
X122064000Y-73379000D02*
X119371000Y-73379000D01*
X124646000Y-97876400D02*
X124646000Y-95570000D01*
X125955000Y-99185300D02*
X124646000Y-97876400D01*
X125955000Y-100330000D02*
X125955000Y-99185300D01*
X130910000Y-94128700D02*
X130910000Y-80550000D01*
X131952000Y-95170000D02*
X130910000Y-94128700D01*
X128375000Y-80550000D02*
X130910000Y-80550000D01*
X128175000Y-80350400D02*
X128375000Y-80550000D01*
X127000000Y-80350400D02*
X128175000Y-80350400D01*
X125904000Y-71628000D02*
X125341000Y-71628000D01*
X123028000Y-73379000D02*
X122064000Y-73379000D01*
X124779000Y-71628000D02*
X123028000Y-73379000D01*
X125341000Y-71628000D02*
X124779000Y-71628000D01*
X155965000Y-95170000D02*
X154940000Y-95170000D01*
X156365000Y-95570000D02*
X155965000Y-95170000D01*
X125955000Y-100330000D02*
X127080000Y-100330000D01*
X129209000Y-103364000D02*
X129540000Y-103364000D01*
X128814000Y-102968000D02*
X129209000Y-103364000D01*
X128814000Y-102576000D02*
X128814000Y-102968000D01*
X127593000Y-101355000D02*
X128814000Y-102576000D01*
X127080000Y-101355000D02*
X127593000Y-101355000D01*
X127080000Y-100330000D02*
X127080000Y-101355000D01*
X127000000Y-80350400D02*
X125721000Y-80350400D01*
X125721000Y-80350400D02*
X123870000Y-80350400D01*
X148321000Y-107630000D02*
X148320800Y-107630000D01*
X135970000Y-101845000D02*
X135970000Y-102357000D01*
X135189000Y-101845000D02*
X135970000Y-101845000D01*
X134945000Y-101600000D02*
X135189000Y-101845000D01*
X135970000Y-102357000D02*
X135970000Y-102870000D01*
X176799000Y-95570000D02*
X176799200Y-95570000D01*
X171295000Y-95570000D02*
X167909200Y-95570000D01*
X171695000Y-95170000D02*
X171295000Y-95570000D01*
X172720000Y-95170000D02*
X171695000Y-95170000D01*
X166734000Y-95170000D02*
X163830000Y-95170000D01*
X167134000Y-95570000D02*
X166734000Y-95170000D01*
X167909200Y-95570000D02*
X167134000Y-95570000D01*
X153515000Y-95570000D02*
X150129200Y-95570000D01*
X153915000Y-95170000D02*
X153515000Y-95570000D01*
X154940000Y-95170000D02*
X153915000Y-95170000D01*
X148954000Y-95170000D02*
X146050000Y-95170000D01*
X149354000Y-95570000D02*
X148954000Y-95170000D01*
X150129200Y-95570000D02*
X149354000Y-95570000D01*
X123459000Y-95570000D02*
X123459200Y-95570000D01*
X123459200Y-95570000D02*
X124646000Y-95570000D01*
X161370000Y-100330000D02*
X161370000Y-101355000D01*
X161370000Y-101355000D02*
X152480000Y-101355000D01*
X124290000Y-107630000D02*
X126730800Y-107630000D01*
X123956000Y-107296000D02*
X124290000Y-107630000D01*
X123956000Y-104319000D02*
X123956000Y-107296000D01*
X124380000Y-103895000D02*
X123956000Y-104319000D01*
X124380000Y-102870000D02*
X124380000Y-103895000D01*
X126730800Y-107630000D02*
X126731000Y-107630000D01*
X132349000Y-95570000D02*
X131952000Y-95570000D01*
X132349000Y-95570000D02*
X132349200Y-95570000D01*
X138585000Y-95570000D02*
X141239000Y-95570000D01*
X138185000Y-95170000D02*
X138585000Y-95570000D01*
X137160000Y-95170000D02*
X138185000Y-95170000D01*
X141239000Y-95570000D02*
X141239200Y-95570000D01*
X159019000Y-94570600D02*
X159019000Y-95070300D01*
X159151000Y-94438600D02*
X159019000Y-94570600D01*
X159019000Y-95570000D02*
X156365000Y-95570000D01*
X159019000Y-95070300D02*
X159019000Y-95570000D01*
X159019200Y-95070500D02*
X159019200Y-95570000D01*
X159019000Y-95070300D02*
X159019200Y-95070500D01*
X136891000Y-107630000D02*
X136891000Y-107242500D01*
X137121000Y-106855000D02*
X138646000Y-105330000D01*
X136891000Y-106855000D02*
X137121000Y-106855000D01*
X136891000Y-107242500D02*
X136891000Y-106855000D01*
X136890800Y-107242700D02*
X136890800Y-107630000D01*
X136891000Y-107242500D02*
X136890800Y-107242700D01*
D39*
X138360000Y-80367200D02*
X138304000Y-80422900D01*
X138360000Y-78300000D02*
X138360000Y-80367200D01*
X124665000Y-99354700D02*
X124840000Y-99179600D01*
X124380000Y-99354700D02*
X124665000Y-99354700D01*
X124380000Y-100330000D02*
X124380000Y-99354700D01*
X123459000Y-97470000D02*
X123459000Y-97832700D01*
X123856000Y-98195400D02*
X124840000Y-99179600D01*
X123459000Y-98195400D02*
X123856000Y-98195400D01*
X123459000Y-97832700D02*
X123459000Y-98195400D01*
X123459200Y-97832500D02*
X123459200Y-97470000D01*
X123459000Y-97832700D02*
X123459200Y-97832500D01*
X137560000Y-82343300D02*
X137560000Y-78300000D01*
X137857000Y-82640200D02*
X137560000Y-82343300D01*
X132349000Y-97470000D02*
X132349200Y-97470000D01*
X132349000Y-98195400D02*
X132349000Y-97470000D01*
X132000000Y-98544600D02*
X132349000Y-98195400D01*
X132000000Y-100330000D02*
X132000000Y-98544600D01*
X135126000Y-95794600D02*
X136004000Y-96671800D01*
X133814000Y-95794600D02*
X135126000Y-95794600D01*
X132863000Y-96744700D02*
X133814000Y-95794600D01*
X132349000Y-96744700D02*
X132863000Y-96744700D01*
X132349000Y-97470000D02*
X132349000Y-96744700D01*
X141239000Y-96744700D02*
X141239000Y-97875100D01*
X141330000Y-96744700D02*
X141239000Y-96744700D01*
X141965000Y-96109900D02*
X141330000Y-96744700D01*
X141965000Y-94987100D02*
X141965000Y-96109900D01*
X141530000Y-94552700D02*
X141965000Y-94987100D01*
X139206000Y-94552700D02*
X141530000Y-94552700D01*
X131785000Y-87131100D02*
X139206000Y-94552700D01*
X131785000Y-84550000D02*
X131785000Y-87131100D01*
X132910000Y-84550000D02*
X131785000Y-84550000D01*
X140890000Y-99354700D02*
X140890000Y-100330000D01*
X141239000Y-99005500D02*
X140890000Y-99354700D01*
X141239000Y-97875100D02*
X141239000Y-99005500D01*
X141239200Y-97874900D02*
X141239200Y-97470000D01*
X141239000Y-97875100D02*
X141239200Y-97874900D01*
X149780000Y-97594700D02*
X149780000Y-100330000D01*
X150129000Y-97245500D02*
X149780000Y-97594700D01*
X149391000Y-96507700D02*
X150129000Y-97245500D01*
X145466000Y-96507700D02*
X149391000Y-96507700D01*
X142065000Y-93107300D02*
X145466000Y-96507700D01*
X142065000Y-89327400D02*
X142065000Y-93107300D01*
X140663000Y-87925300D02*
X142065000Y-89327400D01*
X139960000Y-87925300D02*
X140663000Y-87925300D01*
X139960000Y-86800000D02*
X139960000Y-87925300D01*
X150129000Y-97470000D02*
X150129000Y-97357700D01*
X150129000Y-97357700D02*
X150129000Y-97245500D01*
X150129200Y-97357900D02*
X150129200Y-97470000D01*
X150129000Y-97357700D02*
X150129200Y-97357900D01*
X159019000Y-98195400D02*
X159019000Y-97832700D01*
X158876000Y-98195400D02*
X159019000Y-98195400D01*
X158306000Y-98765600D02*
X158876000Y-98195400D01*
X158306000Y-99965500D02*
X158306000Y-98765600D01*
X158670000Y-100330000D02*
X158306000Y-99965500D01*
X144942000Y-84550000D02*
X145354000Y-84138700D01*
X141410000Y-84550000D02*
X144942000Y-84550000D01*
X157918000Y-97094000D02*
X157853000Y-97094000D01*
X158294000Y-97470000D02*
X157918000Y-97094000D01*
X159019000Y-97470000D02*
X158294000Y-97470000D01*
X159019000Y-97832700D02*
X159019000Y-97470000D01*
X159019200Y-97832500D02*
X159019200Y-97470000D01*
X159019000Y-97832700D02*
X159019200Y-97832500D01*
X167560000Y-100330000D02*
X167560000Y-99354700D01*
X159261000Y-99354700D02*
X167560000Y-99354700D01*
X158931000Y-99024600D02*
X159261000Y-99354700D01*
X168668000Y-98228400D02*
X168288500Y-97849200D01*
X168668000Y-98978600D02*
X168668000Y-98228400D01*
X168292000Y-99354700D02*
X168668000Y-98978600D01*
X167560000Y-99354700D02*
X168292000Y-99354700D01*
X168288500Y-97849200D02*
X167909000Y-97470000D01*
X168288400Y-97849200D02*
X167909200Y-97470000D01*
X168288500Y-97849200D02*
X168288400Y-97849200D01*
X142387000Y-77174700D02*
X143174000Y-77961000D01*
X139160000Y-77174700D02*
X142387000Y-77174700D01*
X139160000Y-78300000D02*
X139160000Y-77174700D01*
X170704000Y-98950500D02*
X176450000Y-98950500D01*
X168460000Y-96706300D02*
X170704000Y-98950500D01*
X162494000Y-96706300D02*
X168460000Y-96706300D01*
X162353000Y-96847300D02*
X162494000Y-96706300D01*
X176450000Y-98950500D02*
X176450000Y-100330000D01*
X143640000Y-86454800D02*
X145354000Y-86454800D01*
X142535000Y-85350000D02*
X143640000Y-86454800D01*
X141410000Y-85350000D02*
X142535000Y-85350000D01*
X176799000Y-97470000D02*
X176799000Y-97832700D01*
X176450000Y-98544600D02*
X176450000Y-98950500D01*
X176799000Y-98195400D02*
X176450000Y-98544600D01*
X176799000Y-97832700D02*
X176799000Y-98195400D01*
X176799200Y-97832500D02*
X176799200Y-97470000D01*
X176799000Y-97832700D02*
X176799200Y-97832500D01*
X126604000Y-101895000D02*
X126309000Y-101600000D01*
X127080000Y-101895000D02*
X126604000Y-101895000D01*
X127080000Y-102870000D02*
X127080000Y-101895000D01*
X136058000Y-79425300D02*
X134996000Y-80487500D01*
X136760000Y-79425300D02*
X136058000Y-79425300D01*
X136760000Y-78300000D02*
X136760000Y-79425300D01*
X126731000Y-105730000D02*
X126731000Y-105367500D01*
X127080000Y-104655000D02*
X127080000Y-102870000D01*
X126731000Y-105005000D02*
X127080000Y-104655000D01*
X126731000Y-105367500D02*
X126731000Y-105005000D01*
X126730800Y-105367700D02*
X126730800Y-105730000D01*
X126731000Y-105367500D02*
X126730800Y-105367700D01*
X134345000Y-103910000D02*
X134345000Y-102870000D01*
X136165000Y-105730000D02*
X134345000Y-103910000D01*
X136890800Y-105730000D02*
X136165000Y-105730000D01*
X133270000Y-102870000D02*
X134345000Y-102870000D01*
X139960000Y-80088500D02*
X139911000Y-80137500D01*
X139960000Y-78300000D02*
X139960000Y-80088500D01*
X134495000Y-102720000D02*
X134345000Y-102870000D01*
X134620000Y-102720000D02*
X134495000Y-102720000D01*
X133270000Y-102870000D02*
X134345000Y-102870000D01*
X136891000Y-105730000D02*
X136890800Y-105730000D01*
X143430000Y-101895000D02*
X143430000Y-102382000D01*
X143186000Y-101895000D02*
X143430000Y-101895000D01*
X142455000Y-101163000D02*
X143186000Y-101895000D01*
X142455000Y-94840200D02*
X142455000Y-101163000D01*
X137090000Y-89475400D02*
X142455000Y-94840200D01*
X134766000Y-89475400D02*
X137090000Y-89475400D01*
X132567000Y-87276700D02*
X134766000Y-89475400D01*
X132567000Y-85692800D02*
X132567000Y-87276700D01*
X132910000Y-85350000D02*
X132567000Y-85692800D01*
X143430000Y-102870000D02*
X143430000Y-102382000D01*
X148320800Y-105730000D02*
X148320900Y-105729900D01*
X148321000Y-105730000D02*
X148320900Y-105729900D01*
X145747000Y-104700000D02*
X143430000Y-102382000D01*
X147290000Y-104700000D02*
X145747000Y-104700000D01*
X148320900Y-105729900D02*
X147290000Y-104700000D01*
X158880000Y-74800200D02*
X158880000Y-68442700D01*
X156129000Y-77551100D02*
X158880000Y-74800200D01*
X156129000Y-78740000D02*
X156129000Y-77551100D01*
X154940000Y-78740000D02*
X156129000Y-78740000D01*
X156540000Y-66730000D02*
X156540000Y-67586300D01*
X156540000Y-68442700D02*
X158880000Y-68442700D01*
X156540000Y-67586300D02*
X156540000Y-68442700D01*
X156540200Y-67586100D02*
X156540200Y-66730000D01*
X156540000Y-67586300D02*
X156540200Y-67586100D01*
X168946000Y-65175400D02*
X168946000Y-64262700D01*
X165678000Y-68442700D02*
X168946000Y-65175400D01*
X158880000Y-68442700D02*
X165678000Y-68442700D01*
X168946000Y-64262700D02*
X168946000Y-63350100D01*
X168945600Y-64262300D02*
X168945600Y-63350100D01*
X168946000Y-64262700D02*
X168945600Y-64262300D01*
X166624000Y-78707000D02*
X166624000Y-76026000D01*
X154317000Y-73660000D02*
X157955000Y-73660000D01*
X153809000Y-74168000D02*
X154317000Y-73660000D01*
X152734000Y-74168000D02*
X153809000Y-74168000D01*
X195661000Y-71120000D02*
X196850000Y-71120000D01*
X195661000Y-71640100D02*
X195661000Y-71120000D01*
X192630000Y-74670900D02*
X195661000Y-71640100D01*
X165278000Y-74670900D02*
X192630000Y-74670900D01*
X161209000Y-78740000D02*
X165278000Y-74670900D01*
X160020000Y-78740000D02*
X161209000Y-78740000D01*
D40*
G36*
X106441239Y-59459709D02*
X105690345Y-60209293D01*
X105283464Y-61189173D01*
X105282538Y-62250172D01*
X105687709Y-63230761D01*
X106437293Y-63981655D01*
X107417173Y-64388536D01*
X108478172Y-64389462D01*
X109458761Y-63984291D01*
X110209655Y-63234707D01*
X110496589Y-62543691D01*
X128255000Y-62543691D01*
X128255000Y-63134250D01*
X128413750Y-63293000D01*
X129413000Y-63293000D01*
X129413000Y-62193750D01*
X129667000Y-62193750D01*
X129667000Y-63293000D01*
X130666250Y-63293000D01*
X130825000Y-63134250D01*
X130825000Y-62543691D01*
X130728327Y-62310302D01*
X130549699Y-62131673D01*
X130316310Y-62035000D01*
X129825750Y-62035000D01*
X129667000Y-62193750D01*
X129413000Y-62193750D01*
X129254250Y-62035000D01*
X128763690Y-62035000D01*
X128530301Y-62131673D01*
X128351673Y-62310302D01*
X128255000Y-62543691D01*
X110496589Y-62543691D01*
X110616536Y-62254827D01*
X110617462Y-61193828D01*
X110212291Y-60213239D01*
X109949053Y-59949540D01*
X163005900Y-59949540D01*
X163005900Y-60224540D01*
X163140898Y-60649218D01*
X163428137Y-60989908D01*
X163839026Y-61191659D01*
X164013900Y-61065494D01*
X164013900Y-59949540D01*
X164267900Y-59949540D01*
X164267900Y-61065494D01*
X164442774Y-61191659D01*
X164853663Y-60989908D01*
X165140902Y-60649218D01*
X165275900Y-60224540D01*
X165275900Y-59949540D01*
X170005900Y-59949540D01*
X170005900Y-60224540D01*
X170140898Y-60649218D01*
X170428137Y-60989908D01*
X170839026Y-61191659D01*
X171013900Y-61065494D01*
X171013900Y-59949540D01*
X171267900Y-59949540D01*
X171267900Y-61065494D01*
X171442774Y-61191659D01*
X171853663Y-60989908D01*
X172140902Y-60649218D01*
X172275900Y-60224540D01*
X172275900Y-59949540D01*
X171267900Y-59949540D01*
X171013900Y-59949540D01*
X170005900Y-59949540D01*
X165275900Y-59949540D01*
X164267900Y-59949540D01*
X164013900Y-59949540D01*
X163005900Y-59949540D01*
X109949053Y-59949540D01*
X109462707Y-59462345D01*
X108655105Y-59127000D01*
X163099212Y-59127000D01*
X163005900Y-59420540D01*
X163005900Y-59695540D01*
X164013900Y-59695540D01*
X164013900Y-59675540D01*
X164267900Y-59675540D01*
X164267900Y-59695540D01*
X165275900Y-59695540D01*
X165275900Y-59420540D01*
X165182588Y-59127000D01*
X170099212Y-59127000D01*
X170005900Y-59420540D01*
X170005900Y-59695540D01*
X171013900Y-59695540D01*
X171013900Y-59675540D01*
X171267900Y-59675540D01*
X171267900Y-59695540D01*
X172275900Y-59695540D01*
X172275900Y-59420540D01*
X172182588Y-59127000D01*
X199873000Y-59127000D01*
X199873000Y-78447394D01*
X184910197Y-93410197D01*
X184882334Y-93452211D01*
X184873000Y-93500000D01*
X184873000Y-93589368D01*
X184787143Y-93717862D01*
X184735000Y-93980000D01*
X184735000Y-128220000D01*
X120127000Y-128220000D01*
X120127000Y-93500000D01*
X120116994Y-93450590D01*
X120088319Y-93408738D01*
X115724565Y-89185750D01*
X120555000Y-89185750D01*
X120555000Y-89651310D01*
X120651673Y-89884699D01*
X120830302Y-90063327D01*
X121063691Y-90160000D01*
X121654250Y-90160000D01*
X121813000Y-90001250D01*
X121813000Y-89027000D01*
X120713750Y-89027000D01*
X120555000Y-89185750D01*
X115724565Y-89185750D01*
X114652937Y-88148690D01*
X120555000Y-88148690D01*
X120555000Y-88614250D01*
X120713750Y-88773000D01*
X121813000Y-88773000D01*
X121813000Y-87798750D01*
X122067000Y-87798750D01*
X122067000Y-88773000D01*
X122087000Y-88773000D01*
X122087000Y-89027000D01*
X122067000Y-89027000D01*
X122067000Y-90001250D01*
X122225750Y-90160000D01*
X122816309Y-90160000D01*
X123049698Y-90063327D01*
X123190936Y-89922090D01*
X123225910Y-89976441D01*
X123438110Y-90121431D01*
X123690000Y-90172440D01*
X125190000Y-90172440D01*
X125425317Y-90128162D01*
X125641441Y-89989090D01*
X125786431Y-89776890D01*
X125837440Y-89525000D01*
X125837440Y-88275000D01*
X125793162Y-88039683D01*
X125654090Y-87823559D01*
X125646318Y-87818249D01*
X126007375Y-87457227D01*
X126007385Y-87457211D01*
X126007401Y-87457201D01*
X126091907Y-87330729D01*
X126172134Y-87210674D01*
X126172138Y-87210654D01*
X126172148Y-87210639D01*
X126200420Y-87068506D01*
X126230000Y-86919837D01*
X126229996Y-86919818D01*
X126230000Y-86919800D01*
X126230000Y-86910163D01*
X126255698Y-86884510D01*
X126714250Y-86884510D01*
X126873000Y-86725760D01*
X126873000Y-84876640D01*
X127127000Y-84876640D01*
X127127000Y-86725760D01*
X127285750Y-86884510D01*
X127926410Y-86884510D01*
X128159799Y-86787837D01*
X128338427Y-86609208D01*
X128435100Y-86375819D01*
X128435100Y-85035390D01*
X128276350Y-84876640D01*
X127127000Y-84876640D01*
X126873000Y-84876640D01*
X125723650Y-84876640D01*
X125564900Y-85035390D01*
X125564900Y-85412782D01*
X125284833Y-85412538D01*
X124941057Y-85554583D01*
X124677808Y-85817373D01*
X124535162Y-86160901D01*
X124534838Y-86532867D01*
X124607133Y-86707834D01*
X123902625Y-87412273D01*
X123902615Y-87412289D01*
X123902599Y-87412299D01*
X123820676Y-87534906D01*
X123758760Y-87627560D01*
X123690000Y-87627560D01*
X123454683Y-87671838D01*
X123238559Y-87810910D01*
X123192031Y-87879006D01*
X123049698Y-87736673D01*
X122816309Y-87640000D01*
X122225750Y-87640000D01*
X122067000Y-87798750D01*
X121813000Y-87798750D01*
X121654250Y-87640000D01*
X121063691Y-87640000D01*
X120830302Y-87736673D01*
X120651673Y-87915301D01*
X120555000Y-88148690D01*
X114652937Y-88148690D01*
X110454565Y-84085750D01*
X120660000Y-84085750D01*
X120660000Y-84676309D01*
X120756673Y-84909698D01*
X120935301Y-85088327D01*
X121168690Y-85185000D01*
X121634250Y-85185000D01*
X121793000Y-85026250D01*
X121793000Y-83927000D01*
X122047000Y-83927000D01*
X122047000Y-85026250D01*
X122205750Y-85185000D01*
X122671310Y-85185000D01*
X122904699Y-85088327D01*
X123083327Y-84909698D01*
X123180000Y-84676309D01*
X123180000Y-84085750D01*
X123021250Y-83927000D01*
X122047000Y-83927000D01*
X121793000Y-83927000D01*
X120818750Y-83927000D01*
X120660000Y-84085750D01*
X110454565Y-84085750D01*
X110452120Y-84083384D01*
X104825000Y-78456264D01*
X104825000Y-73518500D01*
X105580000Y-73518500D01*
X105580000Y-75392800D01*
X105608899Y-75538083D01*
X105637824Y-75683571D01*
X105637845Y-75683602D01*
X105637852Y-75683639D01*
X105720616Y-75807504D01*
X105802547Y-75930149D01*
X106063667Y-76191319D01*
X106017560Y-76419000D01*
X106017560Y-77919000D01*
X106061838Y-78154317D01*
X106200910Y-78370441D01*
X106413110Y-78515431D01*
X106665000Y-78566440D01*
X107965000Y-78566440D01*
X108200317Y-78522162D01*
X108416441Y-78383090D01*
X108561431Y-78170890D01*
X108612440Y-77919000D01*
X108612440Y-77850033D01*
X108617034Y-77846963D01*
X108622110Y-77850431D01*
X108874000Y-77901440D01*
X111054000Y-77901440D01*
X111289317Y-77857162D01*
X111505441Y-77718090D01*
X111650431Y-77505890D01*
X111701440Y-77254000D01*
X111701440Y-76739750D01*
X117419000Y-76739750D01*
X117419000Y-77380310D01*
X117515673Y-77613699D01*
X117694302Y-77792327D01*
X117927691Y-77889000D01*
X118858250Y-77889000D01*
X119017000Y-77730250D01*
X119017000Y-76581000D01*
X119271000Y-76581000D01*
X119271000Y-77730250D01*
X119429750Y-77889000D01*
X120360309Y-77889000D01*
X120593698Y-77792327D01*
X120772327Y-77613699D01*
X120869000Y-77380310D01*
X120869000Y-76739750D01*
X120710250Y-76581000D01*
X119271000Y-76581000D01*
X119017000Y-76581000D01*
X117577750Y-76581000D01*
X117419000Y-76739750D01*
X111701440Y-76739750D01*
X111701440Y-75654000D01*
X111677674Y-75527690D01*
X117419000Y-75527690D01*
X117419000Y-76168250D01*
X117577750Y-76327000D01*
X119017000Y-76327000D01*
X119017000Y-75177750D01*
X119271000Y-75177750D01*
X119271000Y-76327000D01*
X120710250Y-76327000D01*
X120869000Y-76168250D01*
X120869000Y-75527690D01*
X120772327Y-75294301D01*
X120593698Y-75115673D01*
X120360309Y-75019000D01*
X119429750Y-75019000D01*
X119271000Y-75177750D01*
X119017000Y-75177750D01*
X118858250Y-75019000D01*
X117927691Y-75019000D01*
X117694302Y-75115673D01*
X117515673Y-75294301D01*
X117419000Y-75527690D01*
X111677674Y-75527690D01*
X111657162Y-75418683D01*
X111518090Y-75202559D01*
X111305890Y-75057569D01*
X111054000Y-75006560D01*
X108947952Y-75006560D01*
X112024513Y-71930000D01*
X115584147Y-71930000D01*
X115750971Y-72179670D01*
X116237152Y-72504526D01*
X116810641Y-72618600D01*
X116869359Y-72618600D01*
X117407371Y-72511583D01*
X117417915Y-72527362D01*
X117506199Y-72659512D01*
X118798199Y-73951712D01*
X118798227Y-73951731D01*
X118798244Y-73951756D01*
X118928860Y-74039031D01*
X119060969Y-74127318D01*
X119060999Y-74127324D01*
X119061026Y-74127342D01*
X119223194Y-74159599D01*
X119370937Y-74188999D01*
X119370966Y-74188993D01*
X119371000Y-74189000D01*
X121254000Y-74189000D01*
X121254000Y-78545000D01*
X121254014Y-78545070D01*
X121254001Y-78545135D01*
X121284454Y-78698103D01*
X121315658Y-78854974D01*
X121315696Y-78855031D01*
X121315709Y-78855097D01*
X121403993Y-78987177D01*
X121491244Y-79117756D01*
X121491300Y-79117793D01*
X121491339Y-79117852D01*
X122276308Y-79902560D01*
X121295000Y-79902560D01*
X121059683Y-79946838D01*
X120843559Y-80085910D01*
X120698569Y-80298110D01*
X120647560Y-80550000D01*
X120647560Y-82050000D01*
X120691838Y-82285317D01*
X120830910Y-82501441D01*
X120899006Y-82547969D01*
X120756673Y-82690302D01*
X120660000Y-82923691D01*
X120660000Y-83514250D01*
X120818750Y-83673000D01*
X121793000Y-83673000D01*
X121793000Y-83653000D01*
X122047000Y-83653000D01*
X122047000Y-83673000D01*
X123021250Y-83673000D01*
X123180000Y-83514250D01*
X123180000Y-83123461D01*
X125564900Y-83123461D01*
X125564900Y-84463890D01*
X125723650Y-84622640D01*
X126873000Y-84622640D01*
X126873000Y-82773520D01*
X127127000Y-82773520D01*
X127127000Y-84622640D01*
X128276350Y-84622640D01*
X128435100Y-84463890D01*
X128435100Y-83123461D01*
X128338427Y-82890072D01*
X128159799Y-82711443D01*
X127926410Y-82614770D01*
X127285750Y-82614770D01*
X127127000Y-82773520D01*
X126873000Y-82773520D01*
X126714250Y-82614770D01*
X126073590Y-82614770D01*
X125840201Y-82711443D01*
X125661573Y-82890072D01*
X125564900Y-83123461D01*
X123180000Y-83123461D01*
X123180000Y-82923691D01*
X123083327Y-82690302D01*
X122942090Y-82549064D01*
X122996441Y-82514090D01*
X123141431Y-82301890D01*
X123191209Y-82056079D01*
X123229815Y-82048408D01*
X123229888Y-82048359D01*
X123229974Y-82048342D01*
X123360289Y-81961268D01*
X123492636Y-81872877D01*
X124205413Y-81160400D01*
X125552460Y-81160400D01*
X125552460Y-81850230D01*
X125596738Y-82085547D01*
X125735810Y-82301671D01*
X125948010Y-82446661D01*
X126199900Y-82497670D01*
X127800100Y-82497670D01*
X128035417Y-82453392D01*
X128251541Y-82314320D01*
X128396531Y-82102120D01*
X128447540Y-81850230D01*
X128447540Y-81360000D01*
X130100000Y-81360000D01*
X130100000Y-94128700D01*
X130100028Y-94128838D01*
X130100001Y-94128972D01*
X130130546Y-94282263D01*
X130161658Y-94438674D01*
X130161735Y-94438790D01*
X130161762Y-94438924D01*
X130249602Y-94570291D01*
X130288830Y-94629000D01*
X129899512Y-94629000D01*
X129867756Y-94597244D01*
X129832249Y-94573519D01*
X129604974Y-94421658D01*
X129566305Y-94413966D01*
X129523162Y-94184683D01*
X129384090Y-93968559D01*
X129171890Y-93823569D01*
X128920000Y-93772560D01*
X127620000Y-93772560D01*
X127384683Y-93816838D01*
X127168559Y-93955910D01*
X127023569Y-94168110D01*
X126973786Y-94413948D01*
X126935026Y-94421658D01*
X126821455Y-94497544D01*
X126672243Y-94597244D01*
X126509487Y-94760000D01*
X124350079Y-94760000D01*
X124323380Y-94718509D01*
X124111180Y-94573519D01*
X123859290Y-94522510D01*
X123059190Y-94522510D01*
X122823873Y-94566788D01*
X122607749Y-94705860D01*
X122462759Y-94918060D01*
X122411750Y-95169950D01*
X122411750Y-95970050D01*
X122456028Y-96205367D01*
X122595100Y-96421491D01*
X122740197Y-96520632D01*
X122607749Y-96605860D01*
X122462759Y-96818060D01*
X122411750Y-97069950D01*
X122411750Y-97870050D01*
X122456028Y-98105367D01*
X122595100Y-98321491D01*
X122744369Y-98423482D01*
X122756852Y-98486239D01*
X122921599Y-98732801D01*
X123168161Y-98897548D01*
X123459000Y-98955400D01*
X123541152Y-98955400D01*
X123620150Y-99034414D01*
X123394683Y-99076838D01*
X123178559Y-99215910D01*
X123033569Y-99428110D01*
X122982560Y-99680000D01*
X122982560Y-100980000D01*
X123026838Y-101215317D01*
X123165910Y-101431441D01*
X123378110Y-101576431D01*
X123489523Y-101598993D01*
X123394683Y-101616838D01*
X123178559Y-101755910D01*
X123033569Y-101968110D01*
X122982560Y-102220000D01*
X122982560Y-103520000D01*
X123026838Y-103755317D01*
X123165910Y-103971441D01*
X123211814Y-104002806D01*
X123207658Y-104009026D01*
X123146000Y-104319000D01*
X123146000Y-107296000D01*
X123207658Y-107605974D01*
X123338973Y-107802500D01*
X123383244Y-107868756D01*
X123717243Y-108202756D01*
X123829049Y-108277462D01*
X123980026Y-108378342D01*
X124290000Y-108440000D01*
X125839921Y-108440000D01*
X125866620Y-108481491D01*
X126078820Y-108626481D01*
X126330710Y-108677490D01*
X127130810Y-108677490D01*
X127366127Y-108633212D01*
X127389966Y-108617872D01*
X126980071Y-109028000D01*
X124322000Y-109028000D01*
X124031161Y-109085852D01*
X123784599Y-109250599D01*
X121524599Y-111510599D01*
X121359852Y-111757161D01*
X121302000Y-112048000D01*
X121302000Y-120190000D01*
X121359852Y-120480839D01*
X121524599Y-120727401D01*
X123364599Y-122567401D01*
X123611161Y-122732148D01*
X123902000Y-122790000D01*
X166728000Y-122790000D01*
X166873484Y-122761061D01*
X167018454Y-122732307D01*
X167018630Y-122732190D01*
X167018839Y-122732148D01*
X167142006Y-122649850D01*
X167265106Y-122567696D01*
X168000168Y-121833440D01*
X168021510Y-121856821D01*
X168550973Y-122104968D01*
X168783000Y-121984469D01*
X168783000Y-120777000D01*
X169037000Y-120777000D01*
X169037000Y-121984469D01*
X169269027Y-122104968D01*
X169798490Y-121856821D01*
X170180000Y-121438848D01*
X170561510Y-121856821D01*
X171090973Y-122104968D01*
X171323000Y-121984469D01*
X171323000Y-120777000D01*
X171577000Y-120777000D01*
X171577000Y-121984469D01*
X171809027Y-122104968D01*
X172338490Y-121856821D01*
X172720000Y-121438848D01*
X173101510Y-121856821D01*
X173630973Y-122104968D01*
X173863000Y-121984469D01*
X173863000Y-120777000D01*
X174117000Y-120777000D01*
X174117000Y-121984469D01*
X174349027Y-122104968D01*
X174878490Y-121856821D01*
X175272688Y-121424947D01*
X175444958Y-121009026D01*
X175323817Y-120777000D01*
X174117000Y-120777000D01*
X173863000Y-120777000D01*
X171577000Y-120777000D01*
X171323000Y-120777000D01*
X169037000Y-120777000D01*
X168783000Y-120777000D01*
X168763000Y-120777000D01*
X168763000Y-120523000D01*
X168783000Y-120523000D01*
X168783000Y-120503000D01*
X169037000Y-120503000D01*
X169037000Y-120523000D01*
X171323000Y-120523000D01*
X171323000Y-120503000D01*
X171577000Y-120503000D01*
X171577000Y-120523000D01*
X173863000Y-120523000D01*
X173863000Y-120503000D01*
X174117000Y-120503000D01*
X174117000Y-120523000D01*
X175323817Y-120523000D01*
X175444958Y-120290974D01*
X175272688Y-119875053D01*
X174878490Y-119443179D01*
X174755772Y-119385664D01*
X175079029Y-119169670D01*
X175403885Y-118683489D01*
X175517959Y-118110000D01*
X175403885Y-117536511D01*
X175079029Y-117050330D01*
X174592848Y-116725474D01*
X174019359Y-116611400D01*
X173960641Y-116611400D01*
X173387152Y-116725474D01*
X172900971Y-117050330D01*
X172720000Y-117321172D01*
X172539029Y-117050330D01*
X172052848Y-116725474D01*
X171479359Y-116611400D01*
X171420641Y-116611400D01*
X170847152Y-116725474D01*
X170360971Y-117050330D01*
X170180000Y-117321172D01*
X169999029Y-117050330D01*
X169512848Y-116725474D01*
X168939359Y-116611400D01*
X168880641Y-116611400D01*
X168400000Y-116707005D01*
X168400000Y-115376802D01*
X170218630Y-113558172D01*
X178942538Y-113558172D01*
X179347709Y-114538761D01*
X180097293Y-115289655D01*
X181077173Y-115696536D01*
X182138172Y-115697462D01*
X183118761Y-115292291D01*
X183869655Y-114542707D01*
X184276536Y-113562827D01*
X184277462Y-112501828D01*
X183872291Y-111521239D01*
X183122707Y-110770345D01*
X182142827Y-110363464D01*
X181081828Y-110362538D01*
X180101239Y-110767709D01*
X179350345Y-111517293D01*
X178943464Y-112497173D01*
X178942538Y-113558172D01*
X170218630Y-113558172D01*
X182147401Y-101629401D01*
X182312148Y-101382840D01*
X182321746Y-101334586D01*
X182370000Y-101092000D01*
X182370000Y-99246742D01*
X182495317Y-99223162D01*
X182711441Y-99084090D01*
X182856431Y-98871890D01*
X182907440Y-98620000D01*
X182907440Y-97120000D01*
X182863162Y-96884683D01*
X182724090Y-96668559D01*
X182511890Y-96523569D01*
X182498803Y-96520919D01*
X182711441Y-96384090D01*
X182856431Y-96171890D01*
X182907440Y-95920000D01*
X182907440Y-94420000D01*
X182863162Y-94184683D01*
X182724090Y-93968559D01*
X182511890Y-93823569D01*
X182260000Y-93772560D01*
X180960000Y-93772560D01*
X180724683Y-93816838D01*
X180508559Y-93955910D01*
X180363569Y-94168110D01*
X180324710Y-94360000D01*
X177975000Y-94360000D01*
X177665026Y-94421658D01*
X177551455Y-94497544D01*
X177440874Y-94571432D01*
X177199290Y-94522510D01*
X176399190Y-94522510D01*
X176163873Y-94566788D01*
X175947749Y-94705860D01*
X175910757Y-94760000D01*
X174480512Y-94760000D01*
X174317756Y-94597244D01*
X174282249Y-94573519D01*
X174054974Y-94421658D01*
X174016305Y-94413966D01*
X173973162Y-94184683D01*
X173834090Y-93968559D01*
X173621890Y-93823569D01*
X173370000Y-93772560D01*
X172070000Y-93772560D01*
X171834683Y-93816838D01*
X171618559Y-93955910D01*
X171473569Y-94168110D01*
X171423786Y-94413948D01*
X171385026Y-94421658D01*
X171271455Y-94497544D01*
X171122243Y-94597244D01*
X170959487Y-94760000D01*
X168800079Y-94760000D01*
X168773380Y-94718509D01*
X168561180Y-94573519D01*
X168309290Y-94522510D01*
X167509190Y-94522510D01*
X167273873Y-94566788D01*
X167267405Y-94570950D01*
X167043974Y-94421658D01*
X166734000Y-94360000D01*
X165116150Y-94360000D01*
X165083162Y-94184683D01*
X164944090Y-93968559D01*
X164731890Y-93823569D01*
X164480000Y-93772560D01*
X163180000Y-93772560D01*
X162944683Y-93816838D01*
X162728559Y-93955910D01*
X162583569Y-94168110D01*
X162532560Y-94420000D01*
X162532560Y-95912456D01*
X162175959Y-95912145D01*
X162034839Y-95817852D01*
X161970184Y-95804991D01*
X161882360Y-95668509D01*
X161670160Y-95523519D01*
X161418270Y-95472510D01*
X160618170Y-95472510D01*
X160382853Y-95516788D01*
X160166729Y-95655860D01*
X160066730Y-95802213D01*
X160066730Y-95169950D01*
X160022452Y-94934633D01*
X159982933Y-94873219D01*
X160085838Y-94625399D01*
X160086162Y-94253433D01*
X159944117Y-93909657D01*
X159681327Y-93646408D01*
X159337799Y-93503762D01*
X158965833Y-93503438D01*
X158622057Y-93645483D01*
X158358808Y-93908273D01*
X158216162Y-94251801D01*
X158215915Y-94535838D01*
X158209000Y-94570600D01*
X158209000Y-94679316D01*
X158167749Y-94705860D01*
X158130757Y-94760000D01*
X156700512Y-94760000D01*
X156537756Y-94597244D01*
X156502249Y-94573519D01*
X156274974Y-94421658D01*
X156236305Y-94413966D01*
X156193162Y-94184683D01*
X156054090Y-93968559D01*
X155841890Y-93823569D01*
X155590000Y-93772560D01*
X154290000Y-93772560D01*
X154054683Y-93816838D01*
X153838559Y-93955910D01*
X153693569Y-94168110D01*
X153643786Y-94413948D01*
X153605026Y-94421658D01*
X153491455Y-94497544D01*
X153342243Y-94597244D01*
X153179487Y-94760000D01*
X151020079Y-94760000D01*
X150993380Y-94718509D01*
X150781180Y-94573519D01*
X150529290Y-94522510D01*
X149729190Y-94522510D01*
X149493873Y-94566788D01*
X149487405Y-94570950D01*
X149263974Y-94421658D01*
X148954000Y-94360000D01*
X147336150Y-94360000D01*
X147303162Y-94184683D01*
X147164090Y-93968559D01*
X146951890Y-93823569D01*
X146700000Y-93772560D01*
X145400000Y-93772560D01*
X145164683Y-93816838D01*
X144948559Y-93955910D01*
X144803569Y-94168110D01*
X144752560Y-94420000D01*
X144752560Y-94719678D01*
X142825000Y-92792458D01*
X142825000Y-91442440D01*
X144240000Y-91442440D01*
X144475317Y-91398162D01*
X144691441Y-91259090D01*
X144836431Y-91046890D01*
X144887440Y-90795000D01*
X144887440Y-89545000D01*
X144885217Y-89533187D01*
X145622270Y-88795810D01*
X145622270Y-90199210D01*
X145666548Y-90434527D01*
X145805620Y-90650651D01*
X146017820Y-90795641D01*
X146269710Y-90846650D01*
X148370290Y-90846650D01*
X148605607Y-90802372D01*
X148821731Y-90663300D01*
X148966721Y-90451100D01*
X149017730Y-90199210D01*
X149017730Y-87884000D01*
X172478960Y-87884000D01*
X172478960Y-89916000D01*
X172523238Y-90151317D01*
X172662310Y-90367441D01*
X172874510Y-90512431D01*
X173126400Y-90563440D01*
X174853600Y-90563440D01*
X175088917Y-90519162D01*
X175305041Y-90380090D01*
X175450031Y-90167890D01*
X175469232Y-90073073D01*
X175627964Y-90250732D01*
X176155209Y-90504709D01*
X176170974Y-90507358D01*
X176403000Y-90386217D01*
X176403000Y-89027000D01*
X176657000Y-89027000D01*
X176657000Y-90386217D01*
X176889026Y-90507358D01*
X176904791Y-90504709D01*
X177432036Y-90250732D01*
X177800000Y-89838892D01*
X178167964Y-90250732D01*
X178695209Y-90504709D01*
X178710974Y-90507358D01*
X178943000Y-90386217D01*
X178943000Y-89027000D01*
X176657000Y-89027000D01*
X176403000Y-89027000D01*
X176383000Y-89027000D01*
X176383000Y-88773000D01*
X176403000Y-88773000D01*
X176403000Y-87413783D01*
X176657000Y-87413783D01*
X176657000Y-88773000D01*
X178943000Y-88773000D01*
X178943000Y-87413783D01*
X179197000Y-87413783D01*
X179197000Y-88773000D01*
X179217000Y-88773000D01*
X179217000Y-89027000D01*
X179197000Y-89027000D01*
X179197000Y-90386217D01*
X179429026Y-90507358D01*
X179444791Y-90504709D01*
X179972036Y-90250732D01*
X180343539Y-89834931D01*
X180550330Y-90144415D01*
X181036511Y-90469271D01*
X181610000Y-90583345D01*
X182183489Y-90469271D01*
X182669670Y-90144415D01*
X182994526Y-89658234D01*
X183108600Y-89084745D01*
X183108600Y-88715255D01*
X182994526Y-88141766D01*
X182669670Y-87655585D01*
X182183489Y-87330729D01*
X181610000Y-87216655D01*
X181036511Y-87330729D01*
X180550330Y-87655585D01*
X180343539Y-87965069D01*
X179972036Y-87549268D01*
X179444791Y-87295291D01*
X179429026Y-87292642D01*
X179197000Y-87413783D01*
X178943000Y-87413783D01*
X178710974Y-87292642D01*
X178695209Y-87295291D01*
X178167964Y-87549268D01*
X177800000Y-87961108D01*
X177432036Y-87549268D01*
X176904791Y-87295291D01*
X176889026Y-87292642D01*
X176657000Y-87413783D01*
X176403000Y-87413783D01*
X176170974Y-87292642D01*
X176155209Y-87295291D01*
X175627964Y-87549268D01*
X175471093Y-87724845D01*
X175456762Y-87648683D01*
X175317690Y-87432559D01*
X175105490Y-87287569D01*
X174853600Y-87236560D01*
X173126400Y-87236560D01*
X172891083Y-87280838D01*
X172674959Y-87419910D01*
X172529969Y-87632110D01*
X172478960Y-87884000D01*
X149017730Y-87884000D01*
X149017730Y-84598510D01*
X148973452Y-84363193D01*
X148834380Y-84147069D01*
X148622180Y-84002079D01*
X148370290Y-83951070D01*
X146739000Y-83951070D01*
X146739000Y-83879600D01*
X146738995Y-83879577D01*
X146739000Y-83879554D01*
X146710527Y-83736456D01*
X146681148Y-83588761D01*
X146681135Y-83588741D01*
X146681130Y-83588718D01*
X146595325Y-83460317D01*
X146516401Y-83342199D01*
X146516383Y-83342187D01*
X146516369Y-83342166D01*
X143266812Y-80093000D01*
X144898791Y-78461100D01*
X145622270Y-78461100D01*
X145622270Y-80501490D01*
X145666548Y-80736807D01*
X145805620Y-80952931D01*
X146017820Y-81097921D01*
X146269710Y-81148930D01*
X148370290Y-81148930D01*
X148605607Y-81104652D01*
X148627180Y-81090770D01*
X165389560Y-81090770D01*
X165389560Y-81530769D01*
X165486233Y-81764158D01*
X165664861Y-81942787D01*
X165898250Y-82039460D01*
X166338250Y-82039460D01*
X166497000Y-81880710D01*
X166497000Y-80932020D01*
X166751000Y-80932020D01*
X166751000Y-81880710D01*
X166909750Y-82039460D01*
X167349750Y-82039460D01*
X167583139Y-81942787D01*
X167761767Y-81764158D01*
X167858440Y-81530769D01*
X167858440Y-81090770D01*
X167699690Y-80932020D01*
X166751000Y-80932020D01*
X166497000Y-80932020D01*
X165548310Y-80932020D01*
X165389560Y-81090770D01*
X148627180Y-81090770D01*
X148821731Y-80965580D01*
X148966721Y-80753380D01*
X149017730Y-80501490D01*
X149017730Y-75404606D01*
X149032110Y-75414431D01*
X149224000Y-75453290D01*
X149224000Y-75770200D01*
X149224006Y-75770230D01*
X149224001Y-75770255D01*
X149251816Y-75910040D01*
X149285658Y-76080174D01*
X149285674Y-76080198D01*
X149285679Y-76080224D01*
X149375168Y-76214135D01*
X149461244Y-76342956D01*
X149461266Y-76342970D01*
X149461282Y-76342995D01*
X153879282Y-80760395D01*
X154010025Y-80847742D01*
X154142026Y-80935942D01*
X154142055Y-80935948D01*
X154142078Y-80935963D01*
X154288261Y-80965030D01*
X154452000Y-80997600D01*
X156032000Y-80997600D01*
X156190161Y-80966140D01*
X156341870Y-80935985D01*
X156341918Y-80935953D01*
X156341974Y-80935942D01*
X156472840Y-80848500D01*
X156604677Y-80760436D01*
X157031165Y-80334066D01*
X157480000Y-80423345D01*
X158053489Y-80309271D01*
X158539670Y-79984415D01*
X158549243Y-79970087D01*
X158553238Y-79991317D01*
X158692310Y-80207441D01*
X158904510Y-80352431D01*
X159156400Y-80403440D01*
X160883600Y-80403440D01*
X161118917Y-80359162D01*
X161335041Y-80220090D01*
X161480031Y-80007890D01*
X161531040Y-79756000D01*
X161531040Y-79421302D01*
X161677775Y-79323255D01*
X161746401Y-79277401D01*
X161746403Y-79277399D01*
X161746408Y-79277395D01*
X165326560Y-75697154D01*
X165326560Y-76776000D01*
X165370838Y-77011317D01*
X165509910Y-77227441D01*
X165722110Y-77372431D01*
X165864000Y-77401164D01*
X165864000Y-77490311D01*
X165789243Y-77504378D01*
X165573119Y-77643450D01*
X165428129Y-77855650D01*
X165377120Y-78107540D01*
X165377120Y-79306420D01*
X165421398Y-79541737D01*
X165560470Y-79757861D01*
X165568659Y-79763456D01*
X165486233Y-79845882D01*
X165389560Y-80079271D01*
X165389560Y-80519270D01*
X165548310Y-80678020D01*
X166497000Y-80678020D01*
X166497000Y-80658020D01*
X166751000Y-80658020D01*
X166751000Y-80678020D01*
X167699690Y-80678020D01*
X167858440Y-80519270D01*
X167858440Y-80079271D01*
X167761767Y-79845882D01*
X167679555Y-79763669D01*
X167819871Y-79558310D01*
X167870880Y-79306420D01*
X167870880Y-78107540D01*
X167826602Y-77872223D01*
X167687530Y-77656099D01*
X167475330Y-77511109D01*
X167384000Y-77492614D01*
X167384000Y-77402742D01*
X167509317Y-77379162D01*
X167725441Y-77240090D01*
X167870431Y-77027890D01*
X167921440Y-76776000D01*
X167921440Y-75430900D01*
X170422436Y-75430900D01*
X170370500Y-75692000D01*
X170370500Y-81280000D01*
X170433337Y-81595905D01*
X170612283Y-81863717D01*
X170880095Y-82042663D01*
X171196000Y-82105500D01*
X179324000Y-82105500D01*
X179639905Y-82042663D01*
X179907717Y-81863717D01*
X180086663Y-81595905D01*
X180149500Y-81280000D01*
X180149500Y-75692000D01*
X180097564Y-75430900D01*
X192630000Y-75430900D01*
X192783873Y-75400292D01*
X192920816Y-75373057D01*
X192920825Y-75373051D01*
X192920839Y-75373048D01*
X193056968Y-75282090D01*
X193167383Y-75208319D01*
X195922894Y-72452991D01*
X196276511Y-72689271D01*
X196850000Y-72803345D01*
X197423489Y-72689271D01*
X197909670Y-72364415D01*
X198234526Y-71878234D01*
X198348600Y-71304745D01*
X198348600Y-70935255D01*
X198234526Y-70361766D01*
X197909670Y-69875585D01*
X197423489Y-69550729D01*
X196850000Y-69436655D01*
X196276511Y-69550729D01*
X195790330Y-69875585D01*
X195583539Y-70185069D01*
X195212036Y-69769268D01*
X194684791Y-69515291D01*
X194669026Y-69512642D01*
X194437000Y-69633783D01*
X194437000Y-70993000D01*
X194457000Y-70993000D01*
X194457000Y-71247000D01*
X194437000Y-71247000D01*
X194437000Y-71267000D01*
X194183000Y-71267000D01*
X194183000Y-71247000D01*
X191897000Y-71247000D01*
X191897000Y-72606217D01*
X192129026Y-72727358D01*
X192144791Y-72724709D01*
X192672036Y-72470732D01*
X193040000Y-72058892D01*
X193407964Y-72470732D01*
X193642494Y-72583706D01*
X192315213Y-73910900D01*
X168203581Y-73910900D01*
X168221756Y-73898756D01*
X170190513Y-71930000D01*
X187718960Y-71930000D01*
X187718960Y-72136000D01*
X187763238Y-72371317D01*
X187902310Y-72587441D01*
X188114510Y-72732431D01*
X188366400Y-72783440D01*
X190093600Y-72783440D01*
X190328917Y-72739162D01*
X190545041Y-72600090D01*
X190690031Y-72387890D01*
X190709232Y-72293073D01*
X190867964Y-72470732D01*
X191395209Y-72724709D01*
X191410974Y-72727358D01*
X191643000Y-72606217D01*
X191643000Y-71247000D01*
X191623000Y-71247000D01*
X191623000Y-70993000D01*
X191643000Y-70993000D01*
X191643000Y-69633783D01*
X191897000Y-69633783D01*
X191897000Y-70993000D01*
X194183000Y-70993000D01*
X194183000Y-69633783D01*
X193950974Y-69512642D01*
X193935209Y-69515291D01*
X193407964Y-69769268D01*
X193040000Y-70181108D01*
X192672036Y-69769268D01*
X192144791Y-69515291D01*
X192129026Y-69512642D01*
X191897000Y-69633783D01*
X191643000Y-69633783D01*
X191410974Y-69512642D01*
X191395209Y-69515291D01*
X190867964Y-69769268D01*
X190711093Y-69944845D01*
X190696762Y-69868683D01*
X190557690Y-69652559D01*
X190345490Y-69507569D01*
X190093600Y-69456560D01*
X188366400Y-69456560D01*
X188131083Y-69500838D01*
X187914959Y-69639910D01*
X187769969Y-69852110D01*
X187718960Y-70104000D01*
X187718960Y-70310000D01*
X169855000Y-70310000D01*
X169545026Y-70371658D01*
X169450956Y-70434514D01*
X169282243Y-70547244D01*
X167718389Y-72111098D01*
X167525890Y-71979569D01*
X167274000Y-71928560D01*
X165974000Y-71928560D01*
X165738683Y-71972838D01*
X165522559Y-72111910D01*
X165377569Y-72324110D01*
X165326560Y-72576000D01*
X165326560Y-73910900D01*
X165278000Y-73910900D01*
X165277996Y-73910901D01*
X165277991Y-73910900D01*
X165147824Y-73936794D01*
X164987161Y-73968752D01*
X164987156Y-73968755D01*
X164987152Y-73968756D01*
X164860910Y-74053110D01*
X164740599Y-74133499D01*
X164740597Y-74133501D01*
X164740592Y-74133505D01*
X161447112Y-77427066D01*
X161347690Y-77272559D01*
X161135490Y-77127569D01*
X160883600Y-77076560D01*
X159156400Y-77076560D01*
X158921083Y-77120838D01*
X158704959Y-77259910D01*
X158559969Y-77472110D01*
X158551600Y-77513439D01*
X158539670Y-77495585D01*
X158053489Y-77170729D01*
X157662068Y-77092871D01*
X159417392Y-75337611D01*
X159417397Y-75337604D01*
X159417401Y-75337601D01*
X159480999Y-75242419D01*
X159582143Y-75091052D01*
X159582145Y-75091044D01*
X159582148Y-75091039D01*
X159614579Y-74928000D01*
X159621255Y-74894440D01*
X159767270Y-74894440D01*
X159926020Y-74735690D01*
X159926020Y-73787000D01*
X160180020Y-73787000D01*
X160180020Y-74735690D01*
X160338770Y-74894440D01*
X160778769Y-74894440D01*
X161012158Y-74797767D01*
X161190787Y-74619139D01*
X161287460Y-74385750D01*
X161287460Y-73945750D01*
X161128710Y-73787000D01*
X160180020Y-73787000D01*
X159926020Y-73787000D01*
X159906020Y-73787000D01*
X159906020Y-73533000D01*
X159926020Y-73533000D01*
X159926020Y-72584310D01*
X160180020Y-72584310D01*
X160180020Y-73533000D01*
X161128710Y-73533000D01*
X161287460Y-73374250D01*
X161287460Y-72934250D01*
X161190787Y-72700861D01*
X161012158Y-72522233D01*
X160778769Y-72425560D01*
X160338770Y-72425560D01*
X160180020Y-72584310D01*
X159926020Y-72584310D01*
X159767270Y-72425560D01*
X159640000Y-72425560D01*
X159640000Y-69202700D01*
X165678000Y-69202700D01*
X165823480Y-69173762D01*
X165968764Y-69144879D01*
X165968798Y-69144856D01*
X165968839Y-69144848D01*
X166089525Y-69064209D01*
X166215344Y-68980159D01*
X169483344Y-65712859D01*
X169483368Y-65712823D01*
X169483401Y-65712801D01*
X169562403Y-65594565D01*
X169648117Y-65466315D01*
X169648125Y-65466273D01*
X169648148Y-65466239D01*
X169676851Y-65321941D01*
X169706000Y-65175481D01*
X169705992Y-65175440D01*
X169706000Y-65175400D01*
X169706000Y-65154705D01*
X169741991Y-65102030D01*
X169793000Y-64850140D01*
X169793000Y-63607606D01*
X169839769Y-63623769D01*
X170013900Y-63475103D01*
X170013900Y-62649540D01*
X170267900Y-62649540D01*
X170267900Y-63475103D01*
X170442031Y-63623769D01*
X170851949Y-63482108D01*
X171176452Y-63194361D01*
X171360168Y-62820478D01*
X171314048Y-62758172D01*
X178942538Y-62758172D01*
X179347709Y-63738761D01*
X180097293Y-64489655D01*
X181077173Y-64896536D01*
X182138172Y-64897462D01*
X183118761Y-64492291D01*
X183869655Y-63742707D01*
X184276536Y-62762827D01*
X184277462Y-61701828D01*
X183872291Y-60721239D01*
X183122707Y-59970345D01*
X182142827Y-59563464D01*
X181081828Y-59562538D01*
X180101239Y-59967709D01*
X179350345Y-60717293D01*
X178943464Y-61697173D01*
X178942538Y-62758172D01*
X171314048Y-62758172D01*
X171233634Y-62649540D01*
X170267900Y-62649540D01*
X170013900Y-62649540D01*
X169993900Y-62649540D01*
X169993900Y-62395540D01*
X170013900Y-62395540D01*
X170013900Y-61569977D01*
X170267900Y-61569977D01*
X170267900Y-62395540D01*
X171233634Y-62395540D01*
X171360168Y-62224602D01*
X171176452Y-61850719D01*
X170851949Y-61562972D01*
X170442031Y-61421311D01*
X170267900Y-61569977D01*
X170013900Y-61569977D01*
X169839769Y-61421311D01*
X169663417Y-61482255D01*
X169609650Y-61398699D01*
X169397450Y-61253709D01*
X169145560Y-61202700D01*
X168745560Y-61202700D01*
X168613914Y-61227471D01*
X168490900Y-61202560D01*
X168090900Y-61202560D01*
X167961311Y-61226944D01*
X167840900Y-61202560D01*
X167440900Y-61202560D01*
X167311311Y-61226944D01*
X167190900Y-61202560D01*
X166790900Y-61202560D01*
X166685195Y-61222450D01*
X166667210Y-61215000D01*
X166599650Y-61215000D01*
X166570646Y-61244004D01*
X166555583Y-61246838D01*
X166339459Y-61385910D01*
X166240900Y-61530156D01*
X166240900Y-61373750D01*
X166082150Y-61215000D01*
X166014590Y-61215000D01*
X165781201Y-61311673D01*
X165612613Y-61480262D01*
X165442031Y-61421311D01*
X165267900Y-61569977D01*
X165267900Y-62395540D01*
X165287900Y-62395540D01*
X165287900Y-62649540D01*
X165267900Y-62649540D01*
X165267900Y-63475103D01*
X165442031Y-63623769D01*
X165557936Y-63583714D01*
X165505900Y-63635750D01*
X165505900Y-64415300D01*
X164442862Y-64415300D01*
X162848469Y-62820478D01*
X163921632Y-62820478D01*
X164105348Y-63194361D01*
X164429851Y-63482108D01*
X164839769Y-63623769D01*
X165013900Y-63475103D01*
X165013900Y-62649540D01*
X164048166Y-62649540D01*
X163921632Y-62820478D01*
X162848469Y-62820478D01*
X162460122Y-62432027D01*
X162460162Y-62386433D01*
X162393295Y-62224602D01*
X163921632Y-62224602D01*
X164048166Y-62395540D01*
X165013900Y-62395540D01*
X165013900Y-61569977D01*
X164839769Y-61421311D01*
X164429851Y-61562972D01*
X164105348Y-61850719D01*
X163921632Y-62224602D01*
X162393295Y-62224602D01*
X162318117Y-62042657D01*
X162055327Y-61779408D01*
X161711799Y-61636762D01*
X161339833Y-61636438D01*
X161037010Y-61761562D01*
X161037010Y-60901580D01*
X160992732Y-60666263D01*
X160853660Y-60450139D01*
X160641460Y-60305149D01*
X160389570Y-60254140D01*
X158390590Y-60254140D01*
X158155273Y-60298418D01*
X157939149Y-60437490D01*
X157794159Y-60649690D01*
X157743150Y-60901580D01*
X157743150Y-62157134D01*
X157356323Y-61996509D01*
X156924850Y-61996132D01*
X156526077Y-62160902D01*
X156220714Y-62465733D01*
X156055249Y-62864217D01*
X156054872Y-63295690D01*
X156120912Y-63455519D01*
X156102748Y-63467649D01*
X155690308Y-63879860D01*
X155621385Y-63879860D01*
X155209451Y-63467849D01*
X155209421Y-63467829D01*
X155209401Y-63467799D01*
X155087201Y-63386148D01*
X154962905Y-63303079D01*
X154962869Y-63303072D01*
X154962839Y-63303052D01*
X154818793Y-63274399D01*
X154672071Y-63245200D01*
X154672035Y-63245207D01*
X154672000Y-63245200D01*
X153824797Y-63245200D01*
X153825128Y-62866110D01*
X153660358Y-62467337D01*
X153355527Y-62161974D01*
X152957043Y-61996509D01*
X152525570Y-61996132D01*
X152141930Y-62154649D01*
X152141930Y-60853320D01*
X152097652Y-60618003D01*
X151958580Y-60401879D01*
X151746380Y-60256889D01*
X151494490Y-60205880D01*
X149495510Y-60205880D01*
X149260193Y-60250158D01*
X149044069Y-60389230D01*
X148899079Y-60601430D01*
X148848070Y-60853320D01*
X148848070Y-63019700D01*
X140735000Y-63019700D01*
X140710693Y-63024535D01*
X140704862Y-63015811D01*
X140622401Y-62892399D01*
X140622358Y-62892370D01*
X140622329Y-62892327D01*
X139876329Y-62146527D01*
X139752823Y-62064027D01*
X139629839Y-61981852D01*
X139629788Y-61981842D01*
X139629745Y-61981813D01*
X139484276Y-61952897D01*
X139339000Y-61924000D01*
X138205463Y-61924000D01*
X138173327Y-61891808D01*
X137829799Y-61749162D01*
X137457833Y-61748838D01*
X137114057Y-61890883D01*
X136850808Y-62153673D01*
X136708162Y-62497201D01*
X136707838Y-62869167D01*
X136849883Y-63212943D01*
X137102707Y-63466208D01*
X137060000Y-63457560D01*
X136610000Y-63457560D01*
X136506329Y-63477067D01*
X136410000Y-63457560D01*
X135960000Y-63457560D01*
X135856329Y-63477067D01*
X135760000Y-63457560D01*
X135310000Y-63457560D01*
X135238677Y-63470980D01*
X135236310Y-63470000D01*
X135156250Y-63470000D01*
X135135938Y-63490312D01*
X135074683Y-63501838D01*
X134880084Y-63627059D01*
X134819699Y-63566673D01*
X134633153Y-63489403D01*
X134613750Y-63470000D01*
X134506250Y-63470000D01*
X134486847Y-63489403D01*
X134300301Y-63566673D01*
X134238044Y-63628930D01*
X134061890Y-63508569D01*
X133987192Y-63493442D01*
X133963750Y-63470000D01*
X133883690Y-63470000D01*
X133879665Y-63471667D01*
X133810000Y-63457560D01*
X133360000Y-63457560D01*
X133256329Y-63477067D01*
X133160000Y-63457560D01*
X132710000Y-63457560D01*
X132474683Y-63501838D01*
X132258559Y-63640910D01*
X132113569Y-63853110D01*
X132062560Y-64105000D01*
X132062560Y-65855000D01*
X132106838Y-66090317D01*
X132245910Y-66306441D01*
X132458110Y-66451431D01*
X132710000Y-66502440D01*
X133160000Y-66502440D01*
X133263671Y-66482933D01*
X133360000Y-66502440D01*
X133810000Y-66502440D01*
X133881323Y-66489020D01*
X133883690Y-66490000D01*
X133963750Y-66490000D01*
X133984062Y-66469688D01*
X134045317Y-66458162D01*
X134239916Y-66332941D01*
X134300301Y-66393327D01*
X134486847Y-66470597D01*
X134506250Y-66490000D01*
X134613750Y-66490000D01*
X134633153Y-66470597D01*
X134819699Y-66393327D01*
X134881956Y-66331070D01*
X135058110Y-66451431D01*
X135132808Y-66466558D01*
X135156250Y-66490000D01*
X135236310Y-66490000D01*
X135240335Y-66488333D01*
X135310000Y-66502440D01*
X135760000Y-66502440D01*
X135863671Y-66482933D01*
X135960000Y-66502440D01*
X136410000Y-66502440D01*
X136513671Y-66482933D01*
X136610000Y-66502440D01*
X136996545Y-66502440D01*
X135971411Y-67527900D01*
X135220686Y-67527900D01*
X135182965Y-67490152D01*
X135182838Y-67490067D01*
X135182756Y-67489944D01*
X135052300Y-67402776D01*
X134920245Y-67314470D01*
X134920098Y-67314441D01*
X134919974Y-67314358D01*
X134764446Y-67283421D01*
X134610294Y-67252701D01*
X134610149Y-67252730D01*
X134610000Y-67252700D01*
X130697052Y-67252700D01*
X130786431Y-67121890D01*
X130837440Y-66870000D01*
X130837440Y-65370000D01*
X130793162Y-65134683D01*
X130654090Y-64918559D01*
X130441890Y-64773569D01*
X130408510Y-64766809D01*
X130549699Y-64708327D01*
X130728327Y-64529698D01*
X130825000Y-64296309D01*
X130825000Y-63705750D01*
X130666250Y-63547000D01*
X129667000Y-63547000D01*
X129667000Y-63567000D01*
X129413000Y-63567000D01*
X129413000Y-63547000D01*
X128413750Y-63547000D01*
X128255000Y-63705750D01*
X128255000Y-64296309D01*
X128351673Y-64529698D01*
X128530301Y-64708327D01*
X128666287Y-64764654D01*
X128654683Y-64766838D01*
X128438559Y-64905910D01*
X128293569Y-65118110D01*
X128260785Y-65280000D01*
X126725689Y-65280000D01*
X126711622Y-65205243D01*
X126572550Y-64989119D01*
X126360350Y-64844129D01*
X126108460Y-64793120D01*
X124909580Y-64793120D01*
X124674263Y-64837398D01*
X124458139Y-64976470D01*
X124457457Y-64977467D01*
X124262310Y-64844129D01*
X124010420Y-64793120D01*
X122811540Y-64793120D01*
X122576223Y-64837398D01*
X122360099Y-64976470D01*
X122215109Y-65188670D01*
X122183297Y-65345763D01*
X122072271Y-65419964D01*
X121948599Y-65502599D01*
X121948577Y-65502633D01*
X121948543Y-65502655D01*
X120705115Y-66746342D01*
X120793885Y-66613489D01*
X120907959Y-66040000D01*
X120793885Y-65466511D01*
X120469029Y-64980330D01*
X119982848Y-64655474D01*
X119409359Y-64541400D01*
X119350641Y-64541400D01*
X118777152Y-64655474D01*
X118290971Y-64980330D01*
X118110008Y-65251161D01*
X117728490Y-64833179D01*
X117199027Y-64585032D01*
X116967000Y-64705531D01*
X116967000Y-65913000D01*
X116987000Y-65913000D01*
X116987000Y-66167000D01*
X116967000Y-66167000D01*
X116967000Y-66187000D01*
X116713000Y-66187000D01*
X116713000Y-66167000D01*
X115506183Y-66167000D01*
X115385042Y-66399026D01*
X115413983Y-66468900D01*
X112629000Y-66468900D01*
X112628982Y-66468904D01*
X112628963Y-66468900D01*
X112482321Y-66498077D01*
X112338161Y-66526752D01*
X112338146Y-66526762D01*
X112338127Y-66526766D01*
X112214206Y-66609576D01*
X112091599Y-66691499D01*
X112091589Y-66691515D01*
X112091573Y-66691525D01*
X105802573Y-72981124D01*
X105714290Y-73113263D01*
X105637852Y-73227661D01*
X105637849Y-73227678D01*
X105637838Y-73227694D01*
X105608693Y-73374250D01*
X105580000Y-73518500D01*
X104825000Y-73518500D01*
X104825000Y-65680974D01*
X115385042Y-65680974D01*
X115506183Y-65913000D01*
X116713000Y-65913000D01*
X116713000Y-64705531D01*
X116480973Y-64585032D01*
X115951510Y-64833179D01*
X115557312Y-65265053D01*
X115385042Y-65680974D01*
X104825000Y-65680974D01*
X104825000Y-59127000D01*
X107246457Y-59127000D01*
X106441239Y-59459709D01*
X106441239Y-59459709D01*
G37*
X106441239Y-59459709D02*
X105690345Y-60209293D01*
X105283464Y-61189173D01*
X105282538Y-62250172D01*
X105687709Y-63230761D01*
X106437293Y-63981655D01*
X107417173Y-64388536D01*
X108478172Y-64389462D01*
X109458761Y-63984291D01*
X110209655Y-63234707D01*
X110496589Y-62543691D01*
X128255000Y-62543691D01*
X128255000Y-63134250D01*
X128413750Y-63293000D01*
X129413000Y-63293000D01*
X129413000Y-62193750D01*
X129667000Y-62193750D01*
X129667000Y-63293000D01*
X130666250Y-63293000D01*
X130825000Y-63134250D01*
X130825000Y-62543691D01*
X130728327Y-62310302D01*
X130549699Y-62131673D01*
X130316310Y-62035000D01*
X129825750Y-62035000D01*
X129667000Y-62193750D01*
X129413000Y-62193750D01*
X129254250Y-62035000D01*
X128763690Y-62035000D01*
X128530301Y-62131673D01*
X128351673Y-62310302D01*
X128255000Y-62543691D01*
X110496589Y-62543691D01*
X110616536Y-62254827D01*
X110617462Y-61193828D01*
X110212291Y-60213239D01*
X109949053Y-59949540D01*
X163005900Y-59949540D01*
X163005900Y-60224540D01*
X163140898Y-60649218D01*
X163428137Y-60989908D01*
X163839026Y-61191659D01*
X164013900Y-61065494D01*
X164013900Y-59949540D01*
X164267900Y-59949540D01*
X164267900Y-61065494D01*
X164442774Y-61191659D01*
X164853663Y-60989908D01*
X165140902Y-60649218D01*
X165275900Y-60224540D01*
X165275900Y-59949540D01*
X170005900Y-59949540D01*
X170005900Y-60224540D01*
X170140898Y-60649218D01*
X170428137Y-60989908D01*
X170839026Y-61191659D01*
X171013900Y-61065494D01*
X171013900Y-59949540D01*
X171267900Y-59949540D01*
X171267900Y-61065494D01*
X171442774Y-61191659D01*
X171853663Y-60989908D01*
X172140902Y-60649218D01*
X172275900Y-60224540D01*
X172275900Y-59949540D01*
X171267900Y-59949540D01*
X171013900Y-59949540D01*
X170005900Y-59949540D01*
X165275900Y-59949540D01*
X164267900Y-59949540D01*
X164013900Y-59949540D01*
X163005900Y-59949540D01*
X109949053Y-59949540D01*
X109462707Y-59462345D01*
X108655105Y-59127000D01*
X163099212Y-59127000D01*
X163005900Y-59420540D01*
X163005900Y-59695540D01*
X164013900Y-59695540D01*
X164013900Y-59675540D01*
X164267900Y-59675540D01*
X164267900Y-59695540D01*
X165275900Y-59695540D01*
X165275900Y-59420540D01*
X165182588Y-59127000D01*
X170099212Y-59127000D01*
X170005900Y-59420540D01*
X170005900Y-59695540D01*
X171013900Y-59695540D01*
X171013900Y-59675540D01*
X171267900Y-59675540D01*
X171267900Y-59695540D01*
X172275900Y-59695540D01*
X172275900Y-59420540D01*
X172182588Y-59127000D01*
X199873000Y-59127000D01*
X199873000Y-78447394D01*
X184910197Y-93410197D01*
X184882334Y-93452211D01*
X184873000Y-93500000D01*
X184873000Y-93589368D01*
X184787143Y-93717862D01*
X184735000Y-93980000D01*
X184735000Y-128220000D01*
X120127000Y-128220000D01*
X120127000Y-93500000D01*
X120116994Y-93450590D01*
X120088319Y-93408738D01*
X115724565Y-89185750D01*
X120555000Y-89185750D01*
X120555000Y-89651310D01*
X120651673Y-89884699D01*
X120830302Y-90063327D01*
X121063691Y-90160000D01*
X121654250Y-90160000D01*
X121813000Y-90001250D01*
X121813000Y-89027000D01*
X120713750Y-89027000D01*
X120555000Y-89185750D01*
X115724565Y-89185750D01*
X114652937Y-88148690D01*
X120555000Y-88148690D01*
X120555000Y-88614250D01*
X120713750Y-88773000D01*
X121813000Y-88773000D01*
X121813000Y-87798750D01*
X122067000Y-87798750D01*
X122067000Y-88773000D01*
X122087000Y-88773000D01*
X122087000Y-89027000D01*
X122067000Y-89027000D01*
X122067000Y-90001250D01*
X122225750Y-90160000D01*
X122816309Y-90160000D01*
X123049698Y-90063327D01*
X123190936Y-89922090D01*
X123225910Y-89976441D01*
X123438110Y-90121431D01*
X123690000Y-90172440D01*
X125190000Y-90172440D01*
X125425317Y-90128162D01*
X125641441Y-89989090D01*
X125786431Y-89776890D01*
X125837440Y-89525000D01*
X125837440Y-88275000D01*
X125793162Y-88039683D01*
X125654090Y-87823559D01*
X125646318Y-87818249D01*
X126007375Y-87457227D01*
X126007385Y-87457211D01*
X126007401Y-87457201D01*
X126091907Y-87330729D01*
X126172134Y-87210674D01*
X126172138Y-87210654D01*
X126172148Y-87210639D01*
X126200420Y-87068506D01*
X126230000Y-86919837D01*
X126229996Y-86919818D01*
X126230000Y-86919800D01*
X126230000Y-86910163D01*
X126255698Y-86884510D01*
X126714250Y-86884510D01*
X126873000Y-86725760D01*
X126873000Y-84876640D01*
X127127000Y-84876640D01*
X127127000Y-86725760D01*
X127285750Y-86884510D01*
X127926410Y-86884510D01*
X128159799Y-86787837D01*
X128338427Y-86609208D01*
X128435100Y-86375819D01*
X128435100Y-85035390D01*
X128276350Y-84876640D01*
X127127000Y-84876640D01*
X126873000Y-84876640D01*
X125723650Y-84876640D01*
X125564900Y-85035390D01*
X125564900Y-85412782D01*
X125284833Y-85412538D01*
X124941057Y-85554583D01*
X124677808Y-85817373D01*
X124535162Y-86160901D01*
X124534838Y-86532867D01*
X124607133Y-86707834D01*
X123902625Y-87412273D01*
X123902615Y-87412289D01*
X123902599Y-87412299D01*
X123820676Y-87534906D01*
X123758760Y-87627560D01*
X123690000Y-87627560D01*
X123454683Y-87671838D01*
X123238559Y-87810910D01*
X123192031Y-87879006D01*
X123049698Y-87736673D01*
X122816309Y-87640000D01*
X122225750Y-87640000D01*
X122067000Y-87798750D01*
X121813000Y-87798750D01*
X121654250Y-87640000D01*
X121063691Y-87640000D01*
X120830302Y-87736673D01*
X120651673Y-87915301D01*
X120555000Y-88148690D01*
X114652937Y-88148690D01*
X110454565Y-84085750D01*
X120660000Y-84085750D01*
X120660000Y-84676309D01*
X120756673Y-84909698D01*
X120935301Y-85088327D01*
X121168690Y-85185000D01*
X121634250Y-85185000D01*
X121793000Y-85026250D01*
X121793000Y-83927000D01*
X122047000Y-83927000D01*
X122047000Y-85026250D01*
X122205750Y-85185000D01*
X122671310Y-85185000D01*
X122904699Y-85088327D01*
X123083327Y-84909698D01*
X123180000Y-84676309D01*
X123180000Y-84085750D01*
X123021250Y-83927000D01*
X122047000Y-83927000D01*
X121793000Y-83927000D01*
X120818750Y-83927000D01*
X120660000Y-84085750D01*
X110454565Y-84085750D01*
X110452120Y-84083384D01*
X104825000Y-78456264D01*
X104825000Y-73518500D01*
X105580000Y-73518500D01*
X105580000Y-75392800D01*
X105608899Y-75538083D01*
X105637824Y-75683571D01*
X105637845Y-75683602D01*
X105637852Y-75683639D01*
X105720616Y-75807504D01*
X105802547Y-75930149D01*
X106063667Y-76191319D01*
X106017560Y-76419000D01*
X106017560Y-77919000D01*
X106061838Y-78154317D01*
X106200910Y-78370441D01*
X106413110Y-78515431D01*
X106665000Y-78566440D01*
X107965000Y-78566440D01*
X108200317Y-78522162D01*
X108416441Y-78383090D01*
X108561431Y-78170890D01*
X108612440Y-77919000D01*
X108612440Y-77850033D01*
X108617034Y-77846963D01*
X108622110Y-77850431D01*
X108874000Y-77901440D01*
X111054000Y-77901440D01*
X111289317Y-77857162D01*
X111505441Y-77718090D01*
X111650431Y-77505890D01*
X111701440Y-77254000D01*
X111701440Y-76739750D01*
X117419000Y-76739750D01*
X117419000Y-77380310D01*
X117515673Y-77613699D01*
X117694302Y-77792327D01*
X117927691Y-77889000D01*
X118858250Y-77889000D01*
X119017000Y-77730250D01*
X119017000Y-76581000D01*
X119271000Y-76581000D01*
X119271000Y-77730250D01*
X119429750Y-77889000D01*
X120360309Y-77889000D01*
X120593698Y-77792327D01*
X120772327Y-77613699D01*
X120869000Y-77380310D01*
X120869000Y-76739750D01*
X120710250Y-76581000D01*
X119271000Y-76581000D01*
X119017000Y-76581000D01*
X117577750Y-76581000D01*
X117419000Y-76739750D01*
X111701440Y-76739750D01*
X111701440Y-75654000D01*
X111677674Y-75527690D01*
X117419000Y-75527690D01*
X117419000Y-76168250D01*
X117577750Y-76327000D01*
X119017000Y-76327000D01*
X119017000Y-75177750D01*
X119271000Y-75177750D01*
X119271000Y-76327000D01*
X120710250Y-76327000D01*
X120869000Y-76168250D01*
X120869000Y-75527690D01*
X120772327Y-75294301D01*
X120593698Y-75115673D01*
X120360309Y-75019000D01*
X119429750Y-75019000D01*
X119271000Y-75177750D01*
X119017000Y-75177750D01*
X118858250Y-75019000D01*
X117927691Y-75019000D01*
X117694302Y-75115673D01*
X117515673Y-75294301D01*
X117419000Y-75527690D01*
X111677674Y-75527690D01*
X111657162Y-75418683D01*
X111518090Y-75202559D01*
X111305890Y-75057569D01*
X111054000Y-75006560D01*
X108947952Y-75006560D01*
X112024513Y-71930000D01*
X115584147Y-71930000D01*
X115750971Y-72179670D01*
X116237152Y-72504526D01*
X116810641Y-72618600D01*
X116869359Y-72618600D01*
X117407371Y-72511583D01*
X117417915Y-72527362D01*
X117506199Y-72659512D01*
X118798199Y-73951712D01*
X118798227Y-73951731D01*
X118798244Y-73951756D01*
X118928860Y-74039031D01*
X119060969Y-74127318D01*
X119060999Y-74127324D01*
X119061026Y-74127342D01*
X119223194Y-74159599D01*
X119370937Y-74188999D01*
X119370966Y-74188993D01*
X119371000Y-74189000D01*
X121254000Y-74189000D01*
X121254000Y-78545000D01*
X121254014Y-78545070D01*
X121254001Y-78545135D01*
X121284454Y-78698103D01*
X121315658Y-78854974D01*
X121315696Y-78855031D01*
X121315709Y-78855097D01*
X121403993Y-78987177D01*
X121491244Y-79117756D01*
X121491300Y-79117793D01*
X121491339Y-79117852D01*
X122276308Y-79902560D01*
X121295000Y-79902560D01*
X121059683Y-79946838D01*
X120843559Y-80085910D01*
X120698569Y-80298110D01*
X120647560Y-80550000D01*
X120647560Y-82050000D01*
X120691838Y-82285317D01*
X120830910Y-82501441D01*
X120899006Y-82547969D01*
X120756673Y-82690302D01*
X120660000Y-82923691D01*
X120660000Y-83514250D01*
X120818750Y-83673000D01*
X121793000Y-83673000D01*
X121793000Y-83653000D01*
X122047000Y-83653000D01*
X122047000Y-83673000D01*
X123021250Y-83673000D01*
X123180000Y-83514250D01*
X123180000Y-83123461D01*
X125564900Y-83123461D01*
X125564900Y-84463890D01*
X125723650Y-84622640D01*
X126873000Y-84622640D01*
X126873000Y-82773520D01*
X127127000Y-82773520D01*
X127127000Y-84622640D01*
X128276350Y-84622640D01*
X128435100Y-84463890D01*
X128435100Y-83123461D01*
X128338427Y-82890072D01*
X128159799Y-82711443D01*
X127926410Y-82614770D01*
X127285750Y-82614770D01*
X127127000Y-82773520D01*
X126873000Y-82773520D01*
X126714250Y-82614770D01*
X126073590Y-82614770D01*
X125840201Y-82711443D01*
X125661573Y-82890072D01*
X125564900Y-83123461D01*
X123180000Y-83123461D01*
X123180000Y-82923691D01*
X123083327Y-82690302D01*
X122942090Y-82549064D01*
X122996441Y-82514090D01*
X123141431Y-82301890D01*
X123191209Y-82056079D01*
X123229815Y-82048408D01*
X123229888Y-82048359D01*
X123229974Y-82048342D01*
X123360289Y-81961268D01*
X123492636Y-81872877D01*
X124205413Y-81160400D01*
X125552460Y-81160400D01*
X125552460Y-81850230D01*
X125596738Y-82085547D01*
X125735810Y-82301671D01*
X125948010Y-82446661D01*
X126199900Y-82497670D01*
X127800100Y-82497670D01*
X128035417Y-82453392D01*
X128251541Y-82314320D01*
X128396531Y-82102120D01*
X128447540Y-81850230D01*
X128447540Y-81360000D01*
X130100000Y-81360000D01*
X130100000Y-94128700D01*
X130100028Y-94128838D01*
X130100001Y-94128972D01*
X130130546Y-94282263D01*
X130161658Y-94438674D01*
X130161735Y-94438790D01*
X130161762Y-94438924D01*
X130249602Y-94570291D01*
X130288830Y-94629000D01*
X129899512Y-94629000D01*
X129867756Y-94597244D01*
X129832249Y-94573519D01*
X129604974Y-94421658D01*
X129566305Y-94413966D01*
X129523162Y-94184683D01*
X129384090Y-93968559D01*
X129171890Y-93823569D01*
X128920000Y-93772560D01*
X127620000Y-93772560D01*
X127384683Y-93816838D01*
X127168559Y-93955910D01*
X127023569Y-94168110D01*
X126973786Y-94413948D01*
X126935026Y-94421658D01*
X126821455Y-94497544D01*
X126672243Y-94597244D01*
X126509487Y-94760000D01*
X124350079Y-94760000D01*
X124323380Y-94718509D01*
X124111180Y-94573519D01*
X123859290Y-94522510D01*
X123059190Y-94522510D01*
X122823873Y-94566788D01*
X122607749Y-94705860D01*
X122462759Y-94918060D01*
X122411750Y-95169950D01*
X122411750Y-95970050D01*
X122456028Y-96205367D01*
X122595100Y-96421491D01*
X122740197Y-96520632D01*
X122607749Y-96605860D01*
X122462759Y-96818060D01*
X122411750Y-97069950D01*
X122411750Y-97870050D01*
X122456028Y-98105367D01*
X122595100Y-98321491D01*
X122744369Y-98423482D01*
X122756852Y-98486239D01*
X122921599Y-98732801D01*
X123168161Y-98897548D01*
X123459000Y-98955400D01*
X123541152Y-98955400D01*
X123620150Y-99034414D01*
X123394683Y-99076838D01*
X123178559Y-99215910D01*
X123033569Y-99428110D01*
X122982560Y-99680000D01*
X122982560Y-100980000D01*
X123026838Y-101215317D01*
X123165910Y-101431441D01*
X123378110Y-101576431D01*
X123489523Y-101598993D01*
X123394683Y-101616838D01*
X123178559Y-101755910D01*
X123033569Y-101968110D01*
X122982560Y-102220000D01*
X122982560Y-103520000D01*
X123026838Y-103755317D01*
X123165910Y-103971441D01*
X123211814Y-104002806D01*
X123207658Y-104009026D01*
X123146000Y-104319000D01*
X123146000Y-107296000D01*
X123207658Y-107605974D01*
X123338973Y-107802500D01*
X123383244Y-107868756D01*
X123717243Y-108202756D01*
X123829049Y-108277462D01*
X123980026Y-108378342D01*
X124290000Y-108440000D01*
X125839921Y-108440000D01*
X125866620Y-108481491D01*
X126078820Y-108626481D01*
X126330710Y-108677490D01*
X127130810Y-108677490D01*
X127366127Y-108633212D01*
X127389966Y-108617872D01*
X126980071Y-109028000D01*
X124322000Y-109028000D01*
X124031161Y-109085852D01*
X123784599Y-109250599D01*
X121524599Y-111510599D01*
X121359852Y-111757161D01*
X121302000Y-112048000D01*
X121302000Y-120190000D01*
X121359852Y-120480839D01*
X121524599Y-120727401D01*
X123364599Y-122567401D01*
X123611161Y-122732148D01*
X123902000Y-122790000D01*
X166728000Y-122790000D01*
X166873484Y-122761061D01*
X167018454Y-122732307D01*
X167018630Y-122732190D01*
X167018839Y-122732148D01*
X167142006Y-122649850D01*
X167265106Y-122567696D01*
X168000168Y-121833440D01*
X168021510Y-121856821D01*
X168550973Y-122104968D01*
X168783000Y-121984469D01*
X168783000Y-120777000D01*
X169037000Y-120777000D01*
X169037000Y-121984469D01*
X169269027Y-122104968D01*
X169798490Y-121856821D01*
X170180000Y-121438848D01*
X170561510Y-121856821D01*
X171090973Y-122104968D01*
X171323000Y-121984469D01*
X171323000Y-120777000D01*
X171577000Y-120777000D01*
X171577000Y-121984469D01*
X171809027Y-122104968D01*
X172338490Y-121856821D01*
X172720000Y-121438848D01*
X173101510Y-121856821D01*
X173630973Y-122104968D01*
X173863000Y-121984469D01*
X173863000Y-120777000D01*
X174117000Y-120777000D01*
X174117000Y-121984469D01*
X174349027Y-122104968D01*
X174878490Y-121856821D01*
X175272688Y-121424947D01*
X175444958Y-121009026D01*
X175323817Y-120777000D01*
X174117000Y-120777000D01*
X173863000Y-120777000D01*
X171577000Y-120777000D01*
X171323000Y-120777000D01*
X169037000Y-120777000D01*
X168783000Y-120777000D01*
X168763000Y-120777000D01*
X168763000Y-120523000D01*
X168783000Y-120523000D01*
X168783000Y-120503000D01*
X169037000Y-120503000D01*
X169037000Y-120523000D01*
X171323000Y-120523000D01*
X171323000Y-120503000D01*
X171577000Y-120503000D01*
X171577000Y-120523000D01*
X173863000Y-120523000D01*
X173863000Y-120503000D01*
X174117000Y-120503000D01*
X174117000Y-120523000D01*
X175323817Y-120523000D01*
X175444958Y-120290974D01*
X175272688Y-119875053D01*
X174878490Y-119443179D01*
X174755772Y-119385664D01*
X175079029Y-119169670D01*
X175403885Y-118683489D01*
X175517959Y-118110000D01*
X175403885Y-117536511D01*
X175079029Y-117050330D01*
X174592848Y-116725474D01*
X174019359Y-116611400D01*
X173960641Y-116611400D01*
X173387152Y-116725474D01*
X172900971Y-117050330D01*
X172720000Y-117321172D01*
X172539029Y-117050330D01*
X172052848Y-116725474D01*
X171479359Y-116611400D01*
X171420641Y-116611400D01*
X170847152Y-116725474D01*
X170360971Y-117050330D01*
X170180000Y-117321172D01*
X169999029Y-117050330D01*
X169512848Y-116725474D01*
X168939359Y-116611400D01*
X168880641Y-116611400D01*
X168400000Y-116707005D01*
X168400000Y-115376802D01*
X170218630Y-113558172D01*
X178942538Y-113558172D01*
X179347709Y-114538761D01*
X180097293Y-115289655D01*
X181077173Y-115696536D01*
X182138172Y-115697462D01*
X183118761Y-115292291D01*
X183869655Y-114542707D01*
X184276536Y-113562827D01*
X184277462Y-112501828D01*
X183872291Y-111521239D01*
X183122707Y-110770345D01*
X182142827Y-110363464D01*
X181081828Y-110362538D01*
X180101239Y-110767709D01*
X179350345Y-111517293D01*
X178943464Y-112497173D01*
X178942538Y-113558172D01*
X170218630Y-113558172D01*
X182147401Y-101629401D01*
X182312148Y-101382840D01*
X182321746Y-101334586D01*
X182370000Y-101092000D01*
X182370000Y-99246742D01*
X182495317Y-99223162D01*
X182711441Y-99084090D01*
X182856431Y-98871890D01*
X182907440Y-98620000D01*
X182907440Y-97120000D01*
X182863162Y-96884683D01*
X182724090Y-96668559D01*
X182511890Y-96523569D01*
X182498803Y-96520919D01*
X182711441Y-96384090D01*
X182856431Y-96171890D01*
X182907440Y-95920000D01*
X182907440Y-94420000D01*
X182863162Y-94184683D01*
X182724090Y-93968559D01*
X182511890Y-93823569D01*
X182260000Y-93772560D01*
X180960000Y-93772560D01*
X180724683Y-93816838D01*
X180508559Y-93955910D01*
X180363569Y-94168110D01*
X180324710Y-94360000D01*
X177975000Y-94360000D01*
X177665026Y-94421658D01*
X177551455Y-94497544D01*
X177440874Y-94571432D01*
X177199290Y-94522510D01*
X176399190Y-94522510D01*
X176163873Y-94566788D01*
X175947749Y-94705860D01*
X175910757Y-94760000D01*
X174480512Y-94760000D01*
X174317756Y-94597244D01*
X174282249Y-94573519D01*
X174054974Y-94421658D01*
X174016305Y-94413966D01*
X173973162Y-94184683D01*
X173834090Y-93968559D01*
X173621890Y-93823569D01*
X173370000Y-93772560D01*
X172070000Y-93772560D01*
X171834683Y-93816838D01*
X171618559Y-93955910D01*
X171473569Y-94168110D01*
X171423786Y-94413948D01*
X171385026Y-94421658D01*
X171271455Y-94497544D01*
X171122243Y-94597244D01*
X170959487Y-94760000D01*
X168800079Y-94760000D01*
X168773380Y-94718509D01*
X168561180Y-94573519D01*
X168309290Y-94522510D01*
X167509190Y-94522510D01*
X167273873Y-94566788D01*
X167267405Y-94570950D01*
X167043974Y-94421658D01*
X166734000Y-94360000D01*
X165116150Y-94360000D01*
X165083162Y-94184683D01*
X164944090Y-93968559D01*
X164731890Y-93823569D01*
X164480000Y-93772560D01*
X163180000Y-93772560D01*
X162944683Y-93816838D01*
X162728559Y-93955910D01*
X162583569Y-94168110D01*
X162532560Y-94420000D01*
X162532560Y-95912456D01*
X162175959Y-95912145D01*
X162034839Y-95817852D01*
X161970184Y-95804991D01*
X161882360Y-95668509D01*
X161670160Y-95523519D01*
X161418270Y-95472510D01*
X160618170Y-95472510D01*
X160382853Y-95516788D01*
X160166729Y-95655860D01*
X160066730Y-95802213D01*
X160066730Y-95169950D01*
X160022452Y-94934633D01*
X159982933Y-94873219D01*
X160085838Y-94625399D01*
X160086162Y-94253433D01*
X159944117Y-93909657D01*
X159681327Y-93646408D01*
X159337799Y-93503762D01*
X158965833Y-93503438D01*
X158622057Y-93645483D01*
X158358808Y-93908273D01*
X158216162Y-94251801D01*
X158215915Y-94535838D01*
X158209000Y-94570600D01*
X158209000Y-94679316D01*
X158167749Y-94705860D01*
X158130757Y-94760000D01*
X156700512Y-94760000D01*
X156537756Y-94597244D01*
X156502249Y-94573519D01*
X156274974Y-94421658D01*
X156236305Y-94413966D01*
X156193162Y-94184683D01*
X156054090Y-93968559D01*
X155841890Y-93823569D01*
X155590000Y-93772560D01*
X154290000Y-93772560D01*
X154054683Y-93816838D01*
X153838559Y-93955910D01*
X153693569Y-94168110D01*
X153643786Y-94413948D01*
X153605026Y-94421658D01*
X153491455Y-94497544D01*
X153342243Y-94597244D01*
X153179487Y-94760000D01*
X151020079Y-94760000D01*
X150993380Y-94718509D01*
X150781180Y-94573519D01*
X150529290Y-94522510D01*
X149729190Y-94522510D01*
X149493873Y-94566788D01*
X149487405Y-94570950D01*
X149263974Y-94421658D01*
X148954000Y-94360000D01*
X147336150Y-94360000D01*
X147303162Y-94184683D01*
X147164090Y-93968559D01*
X146951890Y-93823569D01*
X146700000Y-93772560D01*
X145400000Y-93772560D01*
X145164683Y-93816838D01*
X144948559Y-93955910D01*
X144803569Y-94168110D01*
X144752560Y-94420000D01*
X144752560Y-94719678D01*
X142825000Y-92792458D01*
X142825000Y-91442440D01*
X144240000Y-91442440D01*
X144475317Y-91398162D01*
X144691441Y-91259090D01*
X144836431Y-91046890D01*
X144887440Y-90795000D01*
X144887440Y-89545000D01*
X144885217Y-89533187D01*
X145622270Y-88795810D01*
X145622270Y-90199210D01*
X145666548Y-90434527D01*
X145805620Y-90650651D01*
X146017820Y-90795641D01*
X146269710Y-90846650D01*
X148370290Y-90846650D01*
X148605607Y-90802372D01*
X148821731Y-90663300D01*
X148966721Y-90451100D01*
X149017730Y-90199210D01*
X149017730Y-87884000D01*
X172478960Y-87884000D01*
X172478960Y-89916000D01*
X172523238Y-90151317D01*
X172662310Y-90367441D01*
X172874510Y-90512431D01*
X173126400Y-90563440D01*
X174853600Y-90563440D01*
X175088917Y-90519162D01*
X175305041Y-90380090D01*
X175450031Y-90167890D01*
X175469232Y-90073073D01*
X175627964Y-90250732D01*
X176155209Y-90504709D01*
X176170974Y-90507358D01*
X176403000Y-90386217D01*
X176403000Y-89027000D01*
X176657000Y-89027000D01*
X176657000Y-90386217D01*
X176889026Y-90507358D01*
X176904791Y-90504709D01*
X177432036Y-90250732D01*
X177800000Y-89838892D01*
X178167964Y-90250732D01*
X178695209Y-90504709D01*
X178710974Y-90507358D01*
X178943000Y-90386217D01*
X178943000Y-89027000D01*
X176657000Y-89027000D01*
X176403000Y-89027000D01*
X176383000Y-89027000D01*
X176383000Y-88773000D01*
X176403000Y-88773000D01*
X176403000Y-87413783D01*
X176657000Y-87413783D01*
X176657000Y-88773000D01*
X178943000Y-88773000D01*
X178943000Y-87413783D01*
X179197000Y-87413783D01*
X179197000Y-88773000D01*
X179217000Y-88773000D01*
X179217000Y-89027000D01*
X179197000Y-89027000D01*
X179197000Y-90386217D01*
X179429026Y-90507358D01*
X179444791Y-90504709D01*
X179972036Y-90250732D01*
X180343539Y-89834931D01*
X180550330Y-90144415D01*
X181036511Y-90469271D01*
X181610000Y-90583345D01*
X182183489Y-90469271D01*
X182669670Y-90144415D01*
X182994526Y-89658234D01*
X183108600Y-89084745D01*
X183108600Y-88715255D01*
X182994526Y-88141766D01*
X182669670Y-87655585D01*
X182183489Y-87330729D01*
X181610000Y-87216655D01*
X181036511Y-87330729D01*
X180550330Y-87655585D01*
X180343539Y-87965069D01*
X179972036Y-87549268D01*
X179444791Y-87295291D01*
X179429026Y-87292642D01*
X179197000Y-87413783D01*
X178943000Y-87413783D01*
X178710974Y-87292642D01*
X178695209Y-87295291D01*
X178167964Y-87549268D01*
X177800000Y-87961108D01*
X177432036Y-87549268D01*
X176904791Y-87295291D01*
X176889026Y-87292642D01*
X176657000Y-87413783D01*
X176403000Y-87413783D01*
X176170974Y-87292642D01*
X176155209Y-87295291D01*
X175627964Y-87549268D01*
X175471093Y-87724845D01*
X175456762Y-87648683D01*
X175317690Y-87432559D01*
X175105490Y-87287569D01*
X174853600Y-87236560D01*
X173126400Y-87236560D01*
X172891083Y-87280838D01*
X172674959Y-87419910D01*
X172529969Y-87632110D01*
X172478960Y-87884000D01*
X149017730Y-87884000D01*
X149017730Y-84598510D01*
X148973452Y-84363193D01*
X148834380Y-84147069D01*
X148622180Y-84002079D01*
X148370290Y-83951070D01*
X146739000Y-83951070D01*
X146739000Y-83879600D01*
X146738995Y-83879577D01*
X146739000Y-83879554D01*
X146710527Y-83736456D01*
X146681148Y-83588761D01*
X146681135Y-83588741D01*
X146681130Y-83588718D01*
X146595325Y-83460317D01*
X146516401Y-83342199D01*
X146516383Y-83342187D01*
X146516369Y-83342166D01*
X143266812Y-80093000D01*
X144898791Y-78461100D01*
X145622270Y-78461100D01*
X145622270Y-80501490D01*
X145666548Y-80736807D01*
X145805620Y-80952931D01*
X146017820Y-81097921D01*
X146269710Y-81148930D01*
X148370290Y-81148930D01*
X148605607Y-81104652D01*
X148627180Y-81090770D01*
X165389560Y-81090770D01*
X165389560Y-81530769D01*
X165486233Y-81764158D01*
X165664861Y-81942787D01*
X165898250Y-82039460D01*
X166338250Y-82039460D01*
X166497000Y-81880710D01*
X166497000Y-80932020D01*
X166751000Y-80932020D01*
X166751000Y-81880710D01*
X166909750Y-82039460D01*
X167349750Y-82039460D01*
X167583139Y-81942787D01*
X167761767Y-81764158D01*
X167858440Y-81530769D01*
X167858440Y-81090770D01*
X167699690Y-80932020D01*
X166751000Y-80932020D01*
X166497000Y-80932020D01*
X165548310Y-80932020D01*
X165389560Y-81090770D01*
X148627180Y-81090770D01*
X148821731Y-80965580D01*
X148966721Y-80753380D01*
X149017730Y-80501490D01*
X149017730Y-75404606D01*
X149032110Y-75414431D01*
X149224000Y-75453290D01*
X149224000Y-75770200D01*
X149224006Y-75770230D01*
X149224001Y-75770255D01*
X149251816Y-75910040D01*
X149285658Y-76080174D01*
X149285674Y-76080198D01*
X149285679Y-76080224D01*
X149375168Y-76214135D01*
X149461244Y-76342956D01*
X149461266Y-76342970D01*
X149461282Y-76342995D01*
X153879282Y-80760395D01*
X154010025Y-80847742D01*
X154142026Y-80935942D01*
X154142055Y-80935948D01*
X154142078Y-80935963D01*
X154288261Y-80965030D01*
X154452000Y-80997600D01*
X156032000Y-80997600D01*
X156190161Y-80966140D01*
X156341870Y-80935985D01*
X156341918Y-80935953D01*
X156341974Y-80935942D01*
X156472840Y-80848500D01*
X156604677Y-80760436D01*
X157031165Y-80334066D01*
X157480000Y-80423345D01*
X158053489Y-80309271D01*
X158539670Y-79984415D01*
X158549243Y-79970087D01*
X158553238Y-79991317D01*
X158692310Y-80207441D01*
X158904510Y-80352431D01*
X159156400Y-80403440D01*
X160883600Y-80403440D01*
X161118917Y-80359162D01*
X161335041Y-80220090D01*
X161480031Y-80007890D01*
X161531040Y-79756000D01*
X161531040Y-79421302D01*
X161677775Y-79323255D01*
X161746401Y-79277401D01*
X161746403Y-79277399D01*
X161746408Y-79277395D01*
X165326560Y-75697154D01*
X165326560Y-76776000D01*
X165370838Y-77011317D01*
X165509910Y-77227441D01*
X165722110Y-77372431D01*
X165864000Y-77401164D01*
X165864000Y-77490311D01*
X165789243Y-77504378D01*
X165573119Y-77643450D01*
X165428129Y-77855650D01*
X165377120Y-78107540D01*
X165377120Y-79306420D01*
X165421398Y-79541737D01*
X165560470Y-79757861D01*
X165568659Y-79763456D01*
X165486233Y-79845882D01*
X165389560Y-80079271D01*
X165389560Y-80519270D01*
X165548310Y-80678020D01*
X166497000Y-80678020D01*
X166497000Y-80658020D01*
X166751000Y-80658020D01*
X166751000Y-80678020D01*
X167699690Y-80678020D01*
X167858440Y-80519270D01*
X167858440Y-80079271D01*
X167761767Y-79845882D01*
X167679555Y-79763669D01*
X167819871Y-79558310D01*
X167870880Y-79306420D01*
X167870880Y-78107540D01*
X167826602Y-77872223D01*
X167687530Y-77656099D01*
X167475330Y-77511109D01*
X167384000Y-77492614D01*
X167384000Y-77402742D01*
X167509317Y-77379162D01*
X167725441Y-77240090D01*
X167870431Y-77027890D01*
X167921440Y-76776000D01*
X167921440Y-75430900D01*
X170422436Y-75430900D01*
X170370500Y-75692000D01*
X170370500Y-81280000D01*
X170433337Y-81595905D01*
X170612283Y-81863717D01*
X170880095Y-82042663D01*
X171196000Y-82105500D01*
X179324000Y-82105500D01*
X179639905Y-82042663D01*
X179907717Y-81863717D01*
X180086663Y-81595905D01*
X180149500Y-81280000D01*
X180149500Y-75692000D01*
X180097564Y-75430900D01*
X192630000Y-75430900D01*
X192783873Y-75400292D01*
X192920816Y-75373057D01*
X192920825Y-75373051D01*
X192920839Y-75373048D01*
X193056968Y-75282090D01*
X193167383Y-75208319D01*
X195922894Y-72452991D01*
X196276511Y-72689271D01*
X196850000Y-72803345D01*
X197423489Y-72689271D01*
X197909670Y-72364415D01*
X198234526Y-71878234D01*
X198348600Y-71304745D01*
X198348600Y-70935255D01*
X198234526Y-70361766D01*
X197909670Y-69875585D01*
X197423489Y-69550729D01*
X196850000Y-69436655D01*
X196276511Y-69550729D01*
X195790330Y-69875585D01*
X195583539Y-70185069D01*
X195212036Y-69769268D01*
X194684791Y-69515291D01*
X194669026Y-69512642D01*
X194437000Y-69633783D01*
X194437000Y-70993000D01*
X194457000Y-70993000D01*
X194457000Y-71247000D01*
X194437000Y-71247000D01*
X194437000Y-71267000D01*
X194183000Y-71267000D01*
X194183000Y-71247000D01*
X191897000Y-71247000D01*
X191897000Y-72606217D01*
X192129026Y-72727358D01*
X192144791Y-72724709D01*
X192672036Y-72470732D01*
X193040000Y-72058892D01*
X193407964Y-72470732D01*
X193642494Y-72583706D01*
X192315213Y-73910900D01*
X168203581Y-73910900D01*
X168221756Y-73898756D01*
X170190513Y-71930000D01*
X187718960Y-71930000D01*
X187718960Y-72136000D01*
X187763238Y-72371317D01*
X187902310Y-72587441D01*
X188114510Y-72732431D01*
X188366400Y-72783440D01*
X190093600Y-72783440D01*
X190328917Y-72739162D01*
X190545041Y-72600090D01*
X190690031Y-72387890D01*
X190709232Y-72293073D01*
X190867964Y-72470732D01*
X191395209Y-72724709D01*
X191410974Y-72727358D01*
X191643000Y-72606217D01*
X191643000Y-71247000D01*
X191623000Y-71247000D01*
X191623000Y-70993000D01*
X191643000Y-70993000D01*
X191643000Y-69633783D01*
X191897000Y-69633783D01*
X191897000Y-70993000D01*
X194183000Y-70993000D01*
X194183000Y-69633783D01*
X193950974Y-69512642D01*
X193935209Y-69515291D01*
X193407964Y-69769268D01*
X193040000Y-70181108D01*
X192672036Y-69769268D01*
X192144791Y-69515291D01*
X192129026Y-69512642D01*
X191897000Y-69633783D01*
X191643000Y-69633783D01*
X191410974Y-69512642D01*
X191395209Y-69515291D01*
X190867964Y-69769268D01*
X190711093Y-69944845D01*
X190696762Y-69868683D01*
X190557690Y-69652559D01*
X190345490Y-69507569D01*
X190093600Y-69456560D01*
X188366400Y-69456560D01*
X188131083Y-69500838D01*
X187914959Y-69639910D01*
X187769969Y-69852110D01*
X187718960Y-70104000D01*
X187718960Y-70310000D01*
X169855000Y-70310000D01*
X169545026Y-70371658D01*
X169450956Y-70434514D01*
X169282243Y-70547244D01*
X167718389Y-72111098D01*
X167525890Y-71979569D01*
X167274000Y-71928560D01*
X165974000Y-71928560D01*
X165738683Y-71972838D01*
X165522559Y-72111910D01*
X165377569Y-72324110D01*
X165326560Y-72576000D01*
X165326560Y-73910900D01*
X165278000Y-73910900D01*
X165277996Y-73910901D01*
X165277991Y-73910900D01*
X165147824Y-73936794D01*
X164987161Y-73968752D01*
X164987156Y-73968755D01*
X164987152Y-73968756D01*
X164860910Y-74053110D01*
X164740599Y-74133499D01*
X164740597Y-74133501D01*
X164740592Y-74133505D01*
X161447112Y-77427066D01*
X161347690Y-77272559D01*
X161135490Y-77127569D01*
X160883600Y-77076560D01*
X159156400Y-77076560D01*
X158921083Y-77120838D01*
X158704959Y-77259910D01*
X158559969Y-77472110D01*
X158551600Y-77513439D01*
X158539670Y-77495585D01*
X158053489Y-77170729D01*
X157662068Y-77092871D01*
X159417392Y-75337611D01*
X159417397Y-75337604D01*
X159417401Y-75337601D01*
X159480999Y-75242419D01*
X159582143Y-75091052D01*
X159582145Y-75091044D01*
X159582148Y-75091039D01*
X159614579Y-74928000D01*
X159621255Y-74894440D01*
X159767270Y-74894440D01*
X159926020Y-74735690D01*
X159926020Y-73787000D01*
X160180020Y-73787000D01*
X160180020Y-74735690D01*
X160338770Y-74894440D01*
X160778769Y-74894440D01*
X161012158Y-74797767D01*
X161190787Y-74619139D01*
X161287460Y-74385750D01*
X161287460Y-73945750D01*
X161128710Y-73787000D01*
X160180020Y-73787000D01*
X159926020Y-73787000D01*
X159906020Y-73787000D01*
X159906020Y-73533000D01*
X159926020Y-73533000D01*
X159926020Y-72584310D01*
X160180020Y-72584310D01*
X160180020Y-73533000D01*
X161128710Y-73533000D01*
X161287460Y-73374250D01*
X161287460Y-72934250D01*
X161190787Y-72700861D01*
X161012158Y-72522233D01*
X160778769Y-72425560D01*
X160338770Y-72425560D01*
X160180020Y-72584310D01*
X159926020Y-72584310D01*
X159767270Y-72425560D01*
X159640000Y-72425560D01*
X159640000Y-69202700D01*
X165678000Y-69202700D01*
X165823480Y-69173762D01*
X165968764Y-69144879D01*
X165968798Y-69144856D01*
X165968839Y-69144848D01*
X166089525Y-69064209D01*
X166215344Y-68980159D01*
X169483344Y-65712859D01*
X169483368Y-65712823D01*
X169483401Y-65712801D01*
X169562403Y-65594565D01*
X169648117Y-65466315D01*
X169648125Y-65466273D01*
X169648148Y-65466239D01*
X169676851Y-65321941D01*
X169706000Y-65175481D01*
X169705992Y-65175440D01*
X169706000Y-65175400D01*
X169706000Y-65154705D01*
X169741991Y-65102030D01*
X169793000Y-64850140D01*
X169793000Y-63607606D01*
X169839769Y-63623769D01*
X170013900Y-63475103D01*
X170013900Y-62649540D01*
X170267900Y-62649540D01*
X170267900Y-63475103D01*
X170442031Y-63623769D01*
X170851949Y-63482108D01*
X171176452Y-63194361D01*
X171360168Y-62820478D01*
X171314048Y-62758172D01*
X178942538Y-62758172D01*
X179347709Y-63738761D01*
X180097293Y-64489655D01*
X181077173Y-64896536D01*
X182138172Y-64897462D01*
X183118761Y-64492291D01*
X183869655Y-63742707D01*
X184276536Y-62762827D01*
X184277462Y-61701828D01*
X183872291Y-60721239D01*
X183122707Y-59970345D01*
X182142827Y-59563464D01*
X181081828Y-59562538D01*
X180101239Y-59967709D01*
X179350345Y-60717293D01*
X178943464Y-61697173D01*
X178942538Y-62758172D01*
X171314048Y-62758172D01*
X171233634Y-62649540D01*
X170267900Y-62649540D01*
X170013900Y-62649540D01*
X169993900Y-62649540D01*
X169993900Y-62395540D01*
X170013900Y-62395540D01*
X170013900Y-61569977D01*
X170267900Y-61569977D01*
X170267900Y-62395540D01*
X171233634Y-62395540D01*
X171360168Y-62224602D01*
X171176452Y-61850719D01*
X170851949Y-61562972D01*
X170442031Y-61421311D01*
X170267900Y-61569977D01*
X170013900Y-61569977D01*
X169839769Y-61421311D01*
X169663417Y-61482255D01*
X169609650Y-61398699D01*
X169397450Y-61253709D01*
X169145560Y-61202700D01*
X168745560Y-61202700D01*
X168613914Y-61227471D01*
X168490900Y-61202560D01*
X168090900Y-61202560D01*
X167961311Y-61226944D01*
X167840900Y-61202560D01*
X167440900Y-61202560D01*
X167311311Y-61226944D01*
X167190900Y-61202560D01*
X166790900Y-61202560D01*
X166685195Y-61222450D01*
X166667210Y-61215000D01*
X166599650Y-61215000D01*
X166570646Y-61244004D01*
X166555583Y-61246838D01*
X166339459Y-61385910D01*
X166240900Y-61530156D01*
X166240900Y-61373750D01*
X166082150Y-61215000D01*
X166014590Y-61215000D01*
X165781201Y-61311673D01*
X165612613Y-61480262D01*
X165442031Y-61421311D01*
X165267900Y-61569977D01*
X165267900Y-62395540D01*
X165287900Y-62395540D01*
X165287900Y-62649540D01*
X165267900Y-62649540D01*
X165267900Y-63475103D01*
X165442031Y-63623769D01*
X165557936Y-63583714D01*
X165505900Y-63635750D01*
X165505900Y-64415300D01*
X164442862Y-64415300D01*
X162848469Y-62820478D01*
X163921632Y-62820478D01*
X164105348Y-63194361D01*
X164429851Y-63482108D01*
X164839769Y-63623769D01*
X165013900Y-63475103D01*
X165013900Y-62649540D01*
X164048166Y-62649540D01*
X163921632Y-62820478D01*
X162848469Y-62820478D01*
X162460122Y-62432027D01*
X162460162Y-62386433D01*
X162393295Y-62224602D01*
X163921632Y-62224602D01*
X164048166Y-62395540D01*
X165013900Y-62395540D01*
X165013900Y-61569977D01*
X164839769Y-61421311D01*
X164429851Y-61562972D01*
X164105348Y-61850719D01*
X163921632Y-62224602D01*
X162393295Y-62224602D01*
X162318117Y-62042657D01*
X162055327Y-61779408D01*
X161711799Y-61636762D01*
X161339833Y-61636438D01*
X161037010Y-61761562D01*
X161037010Y-60901580D01*
X160992732Y-60666263D01*
X160853660Y-60450139D01*
X160641460Y-60305149D01*
X160389570Y-60254140D01*
X158390590Y-60254140D01*
X158155273Y-60298418D01*
X157939149Y-60437490D01*
X157794159Y-60649690D01*
X157743150Y-60901580D01*
X157743150Y-62157134D01*
X157356323Y-61996509D01*
X156924850Y-61996132D01*
X156526077Y-62160902D01*
X156220714Y-62465733D01*
X156055249Y-62864217D01*
X156054872Y-63295690D01*
X156120912Y-63455519D01*
X156102748Y-63467649D01*
X155690308Y-63879860D01*
X155621385Y-63879860D01*
X155209451Y-63467849D01*
X155209421Y-63467829D01*
X155209401Y-63467799D01*
X155087201Y-63386148D01*
X154962905Y-63303079D01*
X154962869Y-63303072D01*
X154962839Y-63303052D01*
X154818793Y-63274399D01*
X154672071Y-63245200D01*
X154672035Y-63245207D01*
X154672000Y-63245200D01*
X153824797Y-63245200D01*
X153825128Y-62866110D01*
X153660358Y-62467337D01*
X153355527Y-62161974D01*
X152957043Y-61996509D01*
X152525570Y-61996132D01*
X152141930Y-62154649D01*
X152141930Y-60853320D01*
X152097652Y-60618003D01*
X151958580Y-60401879D01*
X151746380Y-60256889D01*
X151494490Y-60205880D01*
X149495510Y-60205880D01*
X149260193Y-60250158D01*
X149044069Y-60389230D01*
X148899079Y-60601430D01*
X148848070Y-60853320D01*
X148848070Y-63019700D01*
X140735000Y-63019700D01*
X140710693Y-63024535D01*
X140704862Y-63015811D01*
X140622401Y-62892399D01*
X140622358Y-62892370D01*
X140622329Y-62892327D01*
X139876329Y-62146527D01*
X139752823Y-62064027D01*
X139629839Y-61981852D01*
X139629788Y-61981842D01*
X139629745Y-61981813D01*
X139484276Y-61952897D01*
X139339000Y-61924000D01*
X138205463Y-61924000D01*
X138173327Y-61891808D01*
X137829799Y-61749162D01*
X137457833Y-61748838D01*
X137114057Y-61890883D01*
X136850808Y-62153673D01*
X136708162Y-62497201D01*
X136707838Y-62869167D01*
X136849883Y-63212943D01*
X137102707Y-63466208D01*
X137060000Y-63457560D01*
X136610000Y-63457560D01*
X136506329Y-63477067D01*
X136410000Y-63457560D01*
X135960000Y-63457560D01*
X135856329Y-63477067D01*
X135760000Y-63457560D01*
X135310000Y-63457560D01*
X135238677Y-63470980D01*
X135236310Y-63470000D01*
X135156250Y-63470000D01*
X135135938Y-63490312D01*
X135074683Y-63501838D01*
X134880084Y-63627059D01*
X134819699Y-63566673D01*
X134633153Y-63489403D01*
X134613750Y-63470000D01*
X134506250Y-63470000D01*
X134486847Y-63489403D01*
X134300301Y-63566673D01*
X134238044Y-63628930D01*
X134061890Y-63508569D01*
X133987192Y-63493442D01*
X133963750Y-63470000D01*
X133883690Y-63470000D01*
X133879665Y-63471667D01*
X133810000Y-63457560D01*
X133360000Y-63457560D01*
X133256329Y-63477067D01*
X133160000Y-63457560D01*
X132710000Y-63457560D01*
X132474683Y-63501838D01*
X132258559Y-63640910D01*
X132113569Y-63853110D01*
X132062560Y-64105000D01*
X132062560Y-65855000D01*
X132106838Y-66090317D01*
X132245910Y-66306441D01*
X132458110Y-66451431D01*
X132710000Y-66502440D01*
X133160000Y-66502440D01*
X133263671Y-66482933D01*
X133360000Y-66502440D01*
X133810000Y-66502440D01*
X133881323Y-66489020D01*
X133883690Y-66490000D01*
X133963750Y-66490000D01*
X133984062Y-66469688D01*
X134045317Y-66458162D01*
X134239916Y-66332941D01*
X134300301Y-66393327D01*
X134486847Y-66470597D01*
X134506250Y-66490000D01*
X134613750Y-66490000D01*
X134633153Y-66470597D01*
X134819699Y-66393327D01*
X134881956Y-66331070D01*
X135058110Y-66451431D01*
X135132808Y-66466558D01*
X135156250Y-66490000D01*
X135236310Y-66490000D01*
X135240335Y-66488333D01*
X135310000Y-66502440D01*
X135760000Y-66502440D01*
X135863671Y-66482933D01*
X135960000Y-66502440D01*
X136410000Y-66502440D01*
X136513671Y-66482933D01*
X136610000Y-66502440D01*
X136996545Y-66502440D01*
X135971411Y-67527900D01*
X135220686Y-67527900D01*
X135182965Y-67490152D01*
X135182838Y-67490067D01*
X135182756Y-67489944D01*
X135052300Y-67402776D01*
X134920245Y-67314470D01*
X134920098Y-67314441D01*
X134919974Y-67314358D01*
X134764446Y-67283421D01*
X134610294Y-67252701D01*
X134610149Y-67252730D01*
X134610000Y-67252700D01*
X130697052Y-67252700D01*
X130786431Y-67121890D01*
X130837440Y-66870000D01*
X130837440Y-65370000D01*
X130793162Y-65134683D01*
X130654090Y-64918559D01*
X130441890Y-64773569D01*
X130408510Y-64766809D01*
X130549699Y-64708327D01*
X130728327Y-64529698D01*
X130825000Y-64296309D01*
X130825000Y-63705750D01*
X130666250Y-63547000D01*
X129667000Y-63547000D01*
X129667000Y-63567000D01*
X129413000Y-63567000D01*
X129413000Y-63547000D01*
X128413750Y-63547000D01*
X128255000Y-63705750D01*
X128255000Y-64296309D01*
X128351673Y-64529698D01*
X128530301Y-64708327D01*
X128666287Y-64764654D01*
X128654683Y-64766838D01*
X128438559Y-64905910D01*
X128293569Y-65118110D01*
X128260785Y-65280000D01*
X126725689Y-65280000D01*
X126711622Y-65205243D01*
X126572550Y-64989119D01*
X126360350Y-64844129D01*
X126108460Y-64793120D01*
X124909580Y-64793120D01*
X124674263Y-64837398D01*
X124458139Y-64976470D01*
X124457457Y-64977467D01*
X124262310Y-64844129D01*
X124010420Y-64793120D01*
X122811540Y-64793120D01*
X122576223Y-64837398D01*
X122360099Y-64976470D01*
X122215109Y-65188670D01*
X122183297Y-65345763D01*
X122072271Y-65419964D01*
X121948599Y-65502599D01*
X121948577Y-65502633D01*
X121948543Y-65502655D01*
X120705115Y-66746342D01*
X120793885Y-66613489D01*
X120907959Y-66040000D01*
X120793885Y-65466511D01*
X120469029Y-64980330D01*
X119982848Y-64655474D01*
X119409359Y-64541400D01*
X119350641Y-64541400D01*
X118777152Y-64655474D01*
X118290971Y-64980330D01*
X118110008Y-65251161D01*
X117728490Y-64833179D01*
X117199027Y-64585032D01*
X116967000Y-64705531D01*
X116967000Y-65913000D01*
X116987000Y-65913000D01*
X116987000Y-66167000D01*
X116967000Y-66167000D01*
X116967000Y-66187000D01*
X116713000Y-66187000D01*
X116713000Y-66167000D01*
X115506183Y-66167000D01*
X115385042Y-66399026D01*
X115413983Y-66468900D01*
X112629000Y-66468900D01*
X112628982Y-66468904D01*
X112628963Y-66468900D01*
X112482321Y-66498077D01*
X112338161Y-66526752D01*
X112338146Y-66526762D01*
X112338127Y-66526766D01*
X112214206Y-66609576D01*
X112091599Y-66691499D01*
X112091589Y-66691515D01*
X112091573Y-66691525D01*
X105802573Y-72981124D01*
X105714290Y-73113263D01*
X105637852Y-73227661D01*
X105637849Y-73227678D01*
X105637838Y-73227694D01*
X105608693Y-73374250D01*
X105580000Y-73518500D01*
X104825000Y-73518500D01*
X104825000Y-65680974D01*
X115385042Y-65680974D01*
X115506183Y-65913000D01*
X116713000Y-65913000D01*
X116713000Y-64705531D01*
X116480973Y-64585032D01*
X115951510Y-64833179D01*
X115557312Y-65265053D01*
X115385042Y-65680974D01*
X104825000Y-65680974D01*
X104825000Y-59127000D01*
X107246457Y-59127000D01*
X106441239Y-59459709D01*
G36*
X131851400Y-120364250D02*
X132010150Y-120523000D01*
X133223000Y-120523000D01*
X133223000Y-120503000D01*
X133477000Y-120503000D01*
X133477000Y-120523000D01*
X135763000Y-120523000D01*
X135763000Y-120503000D01*
X136017000Y-120503000D01*
X136017000Y-120523000D01*
X138303000Y-120523000D01*
X138303000Y-120503000D01*
X138557000Y-120503000D01*
X138557000Y-120523000D01*
X140843000Y-120523000D01*
X140843000Y-120503000D01*
X141097000Y-120503000D01*
X141097000Y-120523000D01*
X143383000Y-120523000D01*
X143383000Y-120503000D01*
X143637000Y-120503000D01*
X143637000Y-120523000D01*
X145923000Y-120523000D01*
X145923000Y-120503000D01*
X146177000Y-120503000D01*
X146177000Y-120523000D01*
X148463000Y-120523000D01*
X148463000Y-120503000D01*
X148717000Y-120503000D01*
X148717000Y-120523000D01*
X151003000Y-120523000D01*
X151003000Y-120503000D01*
X151257000Y-120503000D01*
X151257000Y-120523000D01*
X153543000Y-120523000D01*
X153543000Y-120503000D01*
X153797000Y-120503000D01*
X153797000Y-120523000D01*
X156083000Y-120523000D01*
X156083000Y-120503000D01*
X156337000Y-120503000D01*
X156337000Y-120523000D01*
X158623000Y-120523000D01*
X158623000Y-120503000D01*
X158877000Y-120503000D01*
X158877000Y-120523000D01*
X161163000Y-120523000D01*
X161163000Y-120503000D01*
X161417000Y-120503000D01*
X161417000Y-120523000D01*
X163703000Y-120523000D01*
X163703000Y-120503000D01*
X163957000Y-120503000D01*
X163957000Y-120523000D01*
X166243000Y-120523000D01*
X166243000Y-120503000D01*
X166497000Y-120503000D01*
X166497000Y-120523000D01*
X166517000Y-120523000D01*
X166517000Y-120777000D01*
X166497000Y-120777000D01*
X166497000Y-120797000D01*
X166243000Y-120797000D01*
X166243000Y-120777000D01*
X163957000Y-120777000D01*
X163957000Y-120797000D01*
X163703000Y-120797000D01*
X163703000Y-120777000D01*
X161417000Y-120777000D01*
X161417000Y-120797000D01*
X161163000Y-120797000D01*
X161163000Y-120777000D01*
X158877000Y-120777000D01*
X158877000Y-120797000D01*
X158623000Y-120797000D01*
X158623000Y-120777000D01*
X156337000Y-120777000D01*
X156337000Y-120797000D01*
X156083000Y-120797000D01*
X156083000Y-120777000D01*
X153797000Y-120777000D01*
X153797000Y-120797000D01*
X153543000Y-120797000D01*
X153543000Y-120777000D01*
X151257000Y-120777000D01*
X151257000Y-120797000D01*
X151003000Y-120797000D01*
X151003000Y-120777000D01*
X148717000Y-120777000D01*
X148717000Y-120797000D01*
X148463000Y-120797000D01*
X148463000Y-120777000D01*
X146177000Y-120777000D01*
X146177000Y-120797000D01*
X145923000Y-120797000D01*
X145923000Y-120777000D01*
X143637000Y-120777000D01*
X143637000Y-120797000D01*
X143383000Y-120797000D01*
X143383000Y-120777000D01*
X141097000Y-120777000D01*
X141097000Y-120797000D01*
X140843000Y-120797000D01*
X140843000Y-120777000D01*
X138557000Y-120777000D01*
X138557000Y-120797000D01*
X138303000Y-120797000D01*
X138303000Y-120777000D01*
X136017000Y-120777000D01*
X136017000Y-120797000D01*
X135763000Y-120797000D01*
X135763000Y-120777000D01*
X133477000Y-120777000D01*
X133477000Y-120797000D01*
X133223000Y-120797000D01*
X133223000Y-120777000D01*
X132010150Y-120777000D01*
X131851400Y-120935750D01*
X131851400Y-121270000D01*
X126214783Y-121270000D01*
X126338401Y-121187401D01*
X127466802Y-120059000D01*
X131851400Y-120059000D01*
X131851400Y-120364250D01*
X131851400Y-120364250D01*
G37*
X131851400Y-120364250D02*
X132010150Y-120523000D01*
X133223000Y-120523000D01*
X133223000Y-120503000D01*
X133477000Y-120503000D01*
X133477000Y-120523000D01*
X135763000Y-120523000D01*
X135763000Y-120503000D01*
X136017000Y-120503000D01*
X136017000Y-120523000D01*
X138303000Y-120523000D01*
X138303000Y-120503000D01*
X138557000Y-120503000D01*
X138557000Y-120523000D01*
X140843000Y-120523000D01*
X140843000Y-120503000D01*
X141097000Y-120503000D01*
X141097000Y-120523000D01*
X143383000Y-120523000D01*
X143383000Y-120503000D01*
X143637000Y-120503000D01*
X143637000Y-120523000D01*
X145923000Y-120523000D01*
X145923000Y-120503000D01*
X146177000Y-120503000D01*
X146177000Y-120523000D01*
X148463000Y-120523000D01*
X148463000Y-120503000D01*
X148717000Y-120503000D01*
X148717000Y-120523000D01*
X151003000Y-120523000D01*
X151003000Y-120503000D01*
X151257000Y-120503000D01*
X151257000Y-120523000D01*
X153543000Y-120523000D01*
X153543000Y-120503000D01*
X153797000Y-120503000D01*
X153797000Y-120523000D01*
X156083000Y-120523000D01*
X156083000Y-120503000D01*
X156337000Y-120503000D01*
X156337000Y-120523000D01*
X158623000Y-120523000D01*
X158623000Y-120503000D01*
X158877000Y-120503000D01*
X158877000Y-120523000D01*
X161163000Y-120523000D01*
X161163000Y-120503000D01*
X161417000Y-120503000D01*
X161417000Y-120523000D01*
X163703000Y-120523000D01*
X163703000Y-120503000D01*
X163957000Y-120503000D01*
X163957000Y-120523000D01*
X166243000Y-120523000D01*
X166243000Y-120503000D01*
X166497000Y-120503000D01*
X166497000Y-120523000D01*
X166517000Y-120523000D01*
X166517000Y-120777000D01*
X166497000Y-120777000D01*
X166497000Y-120797000D01*
X166243000Y-120797000D01*
X166243000Y-120777000D01*
X163957000Y-120777000D01*
X163957000Y-120797000D01*
X163703000Y-120797000D01*
X163703000Y-120777000D01*
X161417000Y-120777000D01*
X161417000Y-120797000D01*
X161163000Y-120797000D01*
X161163000Y-120777000D01*
X158877000Y-120777000D01*
X158877000Y-120797000D01*
X158623000Y-120797000D01*
X158623000Y-120777000D01*
X156337000Y-120777000D01*
X156337000Y-120797000D01*
X156083000Y-120797000D01*
X156083000Y-120777000D01*
X153797000Y-120777000D01*
X153797000Y-120797000D01*
X153543000Y-120797000D01*
X153543000Y-120777000D01*
X151257000Y-120777000D01*
X151257000Y-120797000D01*
X151003000Y-120797000D01*
X151003000Y-120777000D01*
X148717000Y-120777000D01*
X148717000Y-120797000D01*
X148463000Y-120797000D01*
X148463000Y-120777000D01*
X146177000Y-120777000D01*
X146177000Y-120797000D01*
X145923000Y-120797000D01*
X145923000Y-120777000D01*
X143637000Y-120777000D01*
X143637000Y-120797000D01*
X143383000Y-120797000D01*
X143383000Y-120777000D01*
X141097000Y-120777000D01*
X141097000Y-120797000D01*
X140843000Y-120797000D01*
X140843000Y-120777000D01*
X138557000Y-120777000D01*
X138557000Y-120797000D01*
X138303000Y-120797000D01*
X138303000Y-120777000D01*
X136017000Y-120777000D01*
X136017000Y-120797000D01*
X135763000Y-120797000D01*
X135763000Y-120777000D01*
X133477000Y-120777000D01*
X133477000Y-120797000D01*
X133223000Y-120797000D01*
X133223000Y-120777000D01*
X132010150Y-120777000D01*
X131851400Y-120935750D01*
X131851400Y-121270000D01*
X126214783Y-121270000D01*
X126338401Y-121187401D01*
X127466802Y-120059000D01*
X131851400Y-120059000D01*
X131851400Y-120364250D01*
G36*
X138885000Y-88247440D02*
X139278767Y-88247440D01*
X139422599Y-88462701D01*
X139669161Y-88627448D01*
X139960000Y-88685300D01*
X140348182Y-88685300D01*
X140572866Y-88910000D01*
X140113691Y-88910000D01*
X139880302Y-89006673D01*
X139701673Y-89185301D01*
X139605000Y-89418690D01*
X139605000Y-89884250D01*
X139763750Y-90043000D01*
X140863000Y-90043000D01*
X140863000Y-90023000D01*
X141117000Y-90023000D01*
X141117000Y-90043000D01*
X141137000Y-90043000D01*
X141137000Y-90297000D01*
X141117000Y-90297000D01*
X141117000Y-91271250D01*
X141275750Y-91430000D01*
X141305000Y-91430000D01*
X141305000Y-92615461D01*
X140119495Y-91430000D01*
X140704250Y-91430000D01*
X140863000Y-91271250D01*
X140863000Y-90297000D01*
X139763750Y-90297000D01*
X139605000Y-90455750D01*
X139605000Y-90915524D01*
X137627391Y-88937989D01*
X137510587Y-88859946D01*
X137380839Y-88773252D01*
X137380831Y-88773250D01*
X137380826Y-88773247D01*
X137245774Y-88746386D01*
X137090000Y-88715400D01*
X135080772Y-88715400D01*
X135050668Y-88685300D01*
X137560000Y-88685300D01*
X137850839Y-88627448D01*
X138097401Y-88462701D01*
X138241233Y-88247440D01*
X138635000Y-88247440D01*
X138764589Y-88223056D01*
X138885000Y-88247440D01*
X138885000Y-88247440D01*
G37*
X138885000Y-88247440D02*
X139278767Y-88247440D01*
X139422599Y-88462701D01*
X139669161Y-88627448D01*
X139960000Y-88685300D01*
X140348182Y-88685300D01*
X140572866Y-88910000D01*
X140113691Y-88910000D01*
X139880302Y-89006673D01*
X139701673Y-89185301D01*
X139605000Y-89418690D01*
X139605000Y-89884250D01*
X139763750Y-90043000D01*
X140863000Y-90043000D01*
X140863000Y-90023000D01*
X141117000Y-90023000D01*
X141117000Y-90043000D01*
X141137000Y-90043000D01*
X141137000Y-90297000D01*
X141117000Y-90297000D01*
X141117000Y-91271250D01*
X141275750Y-91430000D01*
X141305000Y-91430000D01*
X141305000Y-92615461D01*
X140119495Y-91430000D01*
X140704250Y-91430000D01*
X140863000Y-91271250D01*
X140863000Y-90297000D01*
X139763750Y-90297000D01*
X139605000Y-90455750D01*
X139605000Y-90915524D01*
X137627391Y-88937989D01*
X137510587Y-88859946D01*
X137380839Y-88773252D01*
X137380831Y-88773250D01*
X137380826Y-88773247D01*
X137245774Y-88746386D01*
X137090000Y-88715400D01*
X135080772Y-88715400D01*
X135050668Y-88685300D01*
X137560000Y-88685300D01*
X137850839Y-88627448D01*
X138097401Y-88462701D01*
X138241233Y-88247440D01*
X138635000Y-88247440D01*
X138764589Y-88223056D01*
X138885000Y-88247440D01*
G36*
X139676000Y-83760000D02*
X139975000Y-83760000D01*
X139975000Y-83877002D01*
X140113400Y-83877002D01*
X140069505Y-83941245D01*
X139975000Y-84035750D01*
X139975000Y-84151310D01*
X139983468Y-84171753D01*
X139962560Y-84275000D01*
X139962560Y-84825000D01*
X139986944Y-84954589D01*
X139962560Y-85075000D01*
X139962560Y-85177672D01*
X139841117Y-84883757D01*
X139578327Y-84620508D01*
X139234799Y-84477862D01*
X138862833Y-84477538D01*
X138519057Y-84619583D01*
X138449392Y-84689127D01*
X137927655Y-84167200D01*
X138723000Y-84167200D01*
X138723062Y-84167188D01*
X138723119Y-84167199D01*
X138875918Y-84136783D01*
X139032974Y-84105542D01*
X139033024Y-84105509D01*
X139033083Y-84105497D01*
X139165959Y-84016684D01*
X139295756Y-83929956D01*
X139295789Y-83929907D01*
X139295841Y-83929872D01*
X139500552Y-83725101D01*
X139676000Y-83760000D01*
X139676000Y-83760000D01*
G37*
X139676000Y-83760000D02*
X139975000Y-83760000D01*
X139975000Y-83877002D01*
X140113400Y-83877002D01*
X140069505Y-83941245D01*
X139975000Y-84035750D01*
X139975000Y-84151310D01*
X139983468Y-84171753D01*
X139962560Y-84275000D01*
X139962560Y-84825000D01*
X139986944Y-84954589D01*
X139962560Y-85075000D01*
X139962560Y-85177672D01*
X139841117Y-84883757D01*
X139578327Y-84620508D01*
X139234799Y-84477862D01*
X138862833Y-84477538D01*
X138519057Y-84619583D01*
X138449392Y-84689127D01*
X137927655Y-84167200D01*
X138723000Y-84167200D01*
X138723062Y-84167188D01*
X138723119Y-84167199D01*
X138875918Y-84136783D01*
X139032974Y-84105542D01*
X139033024Y-84105509D01*
X139033083Y-84105497D01*
X139165959Y-84016684D01*
X139295756Y-83929956D01*
X139295789Y-83929907D01*
X139295841Y-83929872D01*
X139500552Y-83725101D01*
X139676000Y-83760000D01*
G36*
X124902110Y-72874431D02*
X125154000Y-72925440D01*
X126169382Y-72925440D01*
X125903057Y-73035483D01*
X125639808Y-73298273D01*
X125497162Y-73641801D01*
X125496838Y-74013767D01*
X125638883Y-74357543D01*
X125770710Y-74489600D01*
X124739000Y-74489600D01*
X124737724Y-74489854D01*
X124736451Y-74489605D01*
X124592523Y-74518736D01*
X124448161Y-74547452D01*
X124447080Y-74548174D01*
X124445807Y-74548432D01*
X124323770Y-74630567D01*
X124201599Y-74712199D01*
X124200878Y-74713278D01*
X124199799Y-74714004D01*
X124095799Y-74818704D01*
X124015339Y-74940000D01*
X123495750Y-74940000D01*
X123337000Y-75098750D01*
X123337000Y-76073000D01*
X123357000Y-76073000D01*
X123357000Y-76327000D01*
X123337000Y-76327000D01*
X123337000Y-77301250D01*
X123495750Y-77460000D01*
X123875000Y-77460000D01*
X123875000Y-77468500D01*
X123903882Y-77613699D01*
X123932711Y-77758998D01*
X123932815Y-77759154D01*
X123932852Y-77759339D01*
X124015140Y-77882491D01*
X124097338Y-78005640D01*
X124110878Y-78019193D01*
X124110838Y-78065067D01*
X124252883Y-78408843D01*
X124515673Y-78672092D01*
X124859201Y-78814738D01*
X124911000Y-78814783D01*
X124911000Y-79540400D01*
X124205434Y-79540400D01*
X122874000Y-78209408D01*
X122874000Y-77460000D01*
X122924250Y-77460000D01*
X123083000Y-77301250D01*
X123083000Y-76327000D01*
X123063000Y-76327000D01*
X123063000Y-76073000D01*
X123083000Y-76073000D01*
X123083000Y-75098750D01*
X122924250Y-74940000D01*
X122874000Y-74940000D01*
X122874000Y-74189000D01*
X123028000Y-74189000D01*
X123337974Y-74127342D01*
X123600756Y-73951756D01*
X124769019Y-72783494D01*
X124902110Y-72874431D01*
X124902110Y-72874431D01*
G37*
X124902110Y-72874431D02*
X125154000Y-72925440D01*
X126169382Y-72925440D01*
X125903057Y-73035483D01*
X125639808Y-73298273D01*
X125497162Y-73641801D01*
X125496838Y-74013767D01*
X125638883Y-74357543D01*
X125770710Y-74489600D01*
X124739000Y-74489600D01*
X124737724Y-74489854D01*
X124736451Y-74489605D01*
X124592523Y-74518736D01*
X124448161Y-74547452D01*
X124447080Y-74548174D01*
X124445807Y-74548432D01*
X124323770Y-74630567D01*
X124201599Y-74712199D01*
X124200878Y-74713278D01*
X124199799Y-74714004D01*
X124095799Y-74818704D01*
X124015339Y-74940000D01*
X123495750Y-74940000D01*
X123337000Y-75098750D01*
X123337000Y-76073000D01*
X123357000Y-76073000D01*
X123357000Y-76327000D01*
X123337000Y-76327000D01*
X123337000Y-77301250D01*
X123495750Y-77460000D01*
X123875000Y-77460000D01*
X123875000Y-77468500D01*
X123903882Y-77613699D01*
X123932711Y-77758998D01*
X123932815Y-77759154D01*
X123932852Y-77759339D01*
X124015140Y-77882491D01*
X124097338Y-78005640D01*
X124110878Y-78019193D01*
X124110838Y-78065067D01*
X124252883Y-78408843D01*
X124515673Y-78672092D01*
X124859201Y-78814738D01*
X124911000Y-78814783D01*
X124911000Y-79540400D01*
X124205434Y-79540400D01*
X122874000Y-78209408D01*
X122874000Y-77460000D01*
X122924250Y-77460000D01*
X123083000Y-77301250D01*
X123083000Y-76327000D01*
X123063000Y-76327000D01*
X123063000Y-76073000D01*
X123083000Y-76073000D01*
X123083000Y-75098750D01*
X122924250Y-74940000D01*
X122874000Y-74940000D01*
X122874000Y-74189000D01*
X123028000Y-74189000D01*
X123337974Y-74127342D01*
X123600756Y-73951756D01*
X124769019Y-72783494D01*
X124902110Y-72874431D01*
G36*
X139605000Y-74644250D02*
X139763750Y-74803000D01*
X140863000Y-74803000D01*
X140863000Y-74783000D01*
X141117000Y-74783000D01*
X141117000Y-74803000D01*
X141137000Y-74803000D01*
X141137000Y-75057000D01*
X141117000Y-75057000D01*
X141117000Y-76031250D01*
X141275750Y-76190000D01*
X141866309Y-76190000D01*
X142099698Y-76093327D01*
X142240936Y-75952090D01*
X142275910Y-76006441D01*
X142488110Y-76151431D01*
X142730000Y-76200415D01*
X142730000Y-76507405D01*
X142677839Y-76472552D01*
X142677670Y-76472518D01*
X142677527Y-76472423D01*
X142532413Y-76443625D01*
X142387000Y-76414700D01*
X139160000Y-76414700D01*
X138869161Y-76472552D01*
X138622599Y-76637299D01*
X138478767Y-76852560D01*
X138085000Y-76852560D01*
X137955411Y-76876944D01*
X137835000Y-76852560D01*
X137285000Y-76852560D01*
X137155411Y-76876944D01*
X137035000Y-76852560D01*
X136485000Y-76852560D01*
X136355411Y-76876944D01*
X136235000Y-76852560D01*
X135841233Y-76852560D01*
X135767634Y-76742410D01*
X135697409Y-76637307D01*
X134658733Y-75598600D01*
X137977000Y-75598600D01*
X137977039Y-75598592D01*
X137977078Y-75598600D01*
X138122664Y-75569625D01*
X138267839Y-75540748D01*
X138267872Y-75540726D01*
X138267912Y-75540718D01*
X138397192Y-75454317D01*
X138514401Y-75376001D01*
X138514423Y-75375968D01*
X138514456Y-75375946D01*
X138674619Y-75215750D01*
X139605000Y-75215750D01*
X139605000Y-75681310D01*
X139701673Y-75914699D01*
X139880302Y-76093327D01*
X140113691Y-76190000D01*
X140704250Y-76190000D01*
X140863000Y-76031250D01*
X140863000Y-75057000D01*
X139763750Y-75057000D01*
X139605000Y-75215750D01*
X138674619Y-75215750D01*
X139605000Y-74285178D01*
X139605000Y-74644250D01*
X139605000Y-74644250D01*
G37*
X139605000Y-74644250D02*
X139763750Y-74803000D01*
X140863000Y-74803000D01*
X140863000Y-74783000D01*
X141117000Y-74783000D01*
X141117000Y-74803000D01*
X141137000Y-74803000D01*
X141137000Y-75057000D01*
X141117000Y-75057000D01*
X141117000Y-76031250D01*
X141275750Y-76190000D01*
X141866309Y-76190000D01*
X142099698Y-76093327D01*
X142240936Y-75952090D01*
X142275910Y-76006441D01*
X142488110Y-76151431D01*
X142730000Y-76200415D01*
X142730000Y-76507405D01*
X142677839Y-76472552D01*
X142677670Y-76472518D01*
X142677527Y-76472423D01*
X142532413Y-76443625D01*
X142387000Y-76414700D01*
X139160000Y-76414700D01*
X138869161Y-76472552D01*
X138622599Y-76637299D01*
X138478767Y-76852560D01*
X138085000Y-76852560D01*
X137955411Y-76876944D01*
X137835000Y-76852560D01*
X137285000Y-76852560D01*
X137155411Y-76876944D01*
X137035000Y-76852560D01*
X136485000Y-76852560D01*
X136355411Y-76876944D01*
X136235000Y-76852560D01*
X135841233Y-76852560D01*
X135767634Y-76742410D01*
X135697409Y-76637307D01*
X134658733Y-75598600D01*
X137977000Y-75598600D01*
X137977039Y-75598592D01*
X137977078Y-75598600D01*
X138122664Y-75569625D01*
X138267839Y-75540748D01*
X138267872Y-75540726D01*
X138267912Y-75540718D01*
X138397192Y-75454317D01*
X138514401Y-75376001D01*
X138514423Y-75375968D01*
X138514456Y-75375946D01*
X138674619Y-75215750D01*
X139605000Y-75215750D01*
X139605000Y-75681310D01*
X139701673Y-75914699D01*
X139880302Y-76093327D01*
X140113691Y-76190000D01*
X140704250Y-76190000D01*
X140863000Y-76031250D01*
X140863000Y-75057000D01*
X139763750Y-75057000D01*
X139605000Y-75215750D01*
X138674619Y-75215750D01*
X139605000Y-74285178D01*
X139605000Y-74644250D01*
G36*
X137008110Y-73651431D02*
X137082808Y-73666558D01*
X137106250Y-73690000D01*
X137186310Y-73690000D01*
X137190335Y-73688333D01*
X137260000Y-73702440D01*
X137710000Y-73702440D01*
X137813671Y-73682933D01*
X137910000Y-73702440D01*
X138038235Y-73702440D01*
X137662152Y-74078600D01*
X134996106Y-74078600D01*
X134996162Y-74014133D01*
X134867373Y-73702440D01*
X135110000Y-73702440D01*
X135213671Y-73682933D01*
X135310000Y-73702440D01*
X135760000Y-73702440D01*
X135863671Y-73682933D01*
X135960000Y-73702440D01*
X136410000Y-73702440D01*
X136481323Y-73689020D01*
X136483690Y-73690000D01*
X136563750Y-73690000D01*
X136584062Y-73669688D01*
X136645317Y-73658162D01*
X136837227Y-73534671D01*
X137008110Y-73651431D01*
X137008110Y-73651431D01*
G37*
X137008110Y-73651431D02*
X137082808Y-73666558D01*
X137106250Y-73690000D01*
X137186310Y-73690000D01*
X137190335Y-73688333D01*
X137260000Y-73702440D01*
X137710000Y-73702440D01*
X137813671Y-73682933D01*
X137910000Y-73702440D01*
X138038235Y-73702440D01*
X137662152Y-74078600D01*
X134996106Y-74078600D01*
X134996162Y-74014133D01*
X134867373Y-73702440D01*
X135110000Y-73702440D01*
X135213671Y-73682933D01*
X135310000Y-73702440D01*
X135760000Y-73702440D01*
X135863671Y-73682933D01*
X135960000Y-73702440D01*
X136410000Y-73702440D01*
X136481323Y-73689020D01*
X136483690Y-73690000D01*
X136563750Y-73690000D01*
X136584062Y-73669688D01*
X136645317Y-73658162D01*
X136837227Y-73534671D01*
X137008110Y-73651431D01*
G36*
X152454610Y-65741550D02*
X152613360Y-65900300D01*
X153214705Y-65900300D01*
X153214705Y-65880300D01*
X153393460Y-65880300D01*
X153413460Y-65900300D01*
X153486800Y-65900300D01*
X153486800Y-66154300D01*
X153413460Y-66154300D01*
X153254710Y-66313050D01*
X153254710Y-67653609D01*
X153351383Y-67886998D01*
X153464895Y-68000511D01*
X153464895Y-68003550D01*
X153623645Y-68162300D01*
X153716300Y-68162300D01*
X153739850Y-68152545D01*
X153763400Y-68162300D01*
X153856055Y-68162300D01*
X154014805Y-68003550D01*
X154014805Y-68000511D01*
X154128317Y-67886998D01*
X154143343Y-67850723D01*
X154180000Y-67907690D01*
X154180000Y-68271887D01*
X154097408Y-68354400D01*
X150199770Y-68354400D01*
X149280004Y-67434768D01*
X149490430Y-67477380D01*
X151489410Y-67477380D01*
X151724727Y-67433102D01*
X151940851Y-67294030D01*
X152085841Y-67081830D01*
X152136850Y-66829940D01*
X152136850Y-66313050D01*
X152454610Y-66313050D01*
X152454610Y-67653609D01*
X152551283Y-67886998D01*
X152729911Y-68065627D01*
X152963300Y-68162300D01*
X153055955Y-68162300D01*
X153214705Y-68003550D01*
X153214705Y-66154300D01*
X152613360Y-66154300D01*
X152454610Y-66313050D01*
X152136850Y-66313050D01*
X152136850Y-64765200D01*
X152454610Y-64765200D01*
X152454610Y-65741550D01*
X152454610Y-65741550D01*
G37*
X152454610Y-65741550D02*
X152613360Y-65900300D01*
X153214705Y-65900300D01*
X153214705Y-65880300D01*
X153393460Y-65880300D01*
X153413460Y-65900300D01*
X153486800Y-65900300D01*
X153486800Y-66154300D01*
X153413460Y-66154300D01*
X153254710Y-66313050D01*
X153254710Y-67653609D01*
X153351383Y-67886998D01*
X153464895Y-68000511D01*
X153464895Y-68003550D01*
X153623645Y-68162300D01*
X153716300Y-68162300D01*
X153739850Y-68152545D01*
X153763400Y-68162300D01*
X153856055Y-68162300D01*
X154014805Y-68003550D01*
X154014805Y-68000511D01*
X154128317Y-67886998D01*
X154143343Y-67850723D01*
X154180000Y-67907690D01*
X154180000Y-68271887D01*
X154097408Y-68354400D01*
X150199770Y-68354400D01*
X149280004Y-67434768D01*
X149490430Y-67477380D01*
X151489410Y-67477380D01*
X151724727Y-67433102D01*
X151940851Y-67294030D01*
X152085841Y-67081830D01*
X152136850Y-66829940D01*
X152136850Y-66313050D01*
X152454610Y-66313050D01*
X152454610Y-67653609D01*
X152551283Y-67886998D01*
X152729911Y-68065627D01*
X152963300Y-68162300D01*
X153055955Y-68162300D01*
X153214705Y-68003550D01*
X153214705Y-66154300D01*
X152613360Y-66154300D01*
X152454610Y-66313050D01*
X152136850Y-66313050D01*
X152136850Y-64765200D01*
X152454610Y-64765200D01*
X152454610Y-65741550D01*
M02*
