%TF.GenerationSoftware,KiCad,Pcbnew,5.1.9+dfsg1-1~bpo10+1*%
%TF.CreationDate,2021-04-05T15:55:01+02:00*%
%TF.ProjectId,usbavrfloppy,75736261-7672-4666-9c6f-7070792e6b69,rev?*%
%TF.SameCoordinates,Original*%
%TF.FileFunction,Copper,L2,Bot*%
%TF.FilePolarity,Positive*%
%FSLAX46Y46*%
G04 Gerber Fmt 4.6, Leading zero omitted, Abs format (unit mm)*
G04 Created by KiCad (PCBNEW 5.1.9+dfsg1-1~bpo10+1) date 2021-04-05 15:55:01*
%MOMM*%
%LPD*%
G01*
G04 APERTURE LIST*
%TA.AperFunction,ComponentPad*%
%ADD10C,1.700000*%
%TD*%
%TA.AperFunction,ComponentPad*%
%ADD11O,1.250000X0.950000*%
%TD*%
%TA.AperFunction,ComponentPad*%
%ADD12O,1.000000X1.550000*%
%TD*%
%TA.AperFunction,ComponentPad*%
%ADD13R,1.700000X1.700000*%
%TD*%
%TA.AperFunction,ComponentPad*%
%ADD14O,1.700000X1.700000*%
%TD*%
%TA.AperFunction,ComponentPad*%
%ADD15R,1.520000X1.520000*%
%TD*%
%TA.AperFunction,ComponentPad*%
%ADD16C,1.520000*%
%TD*%
%TA.AperFunction,ComponentPad*%
%ADD17C,1.000000*%
%TD*%
%TA.AperFunction,ComponentPad*%
%ADD18R,1.000000X1.000000*%
%TD*%
%TA.AperFunction,ComponentPad*%
%ADD19C,1.500000*%
%TD*%
%TA.AperFunction,ViaPad*%
%ADD20C,0.600000*%
%TD*%
%TA.AperFunction,Conductor*%
%ADD21C,0.350000*%
%TD*%
%TA.AperFunction,Conductor*%
%ADD22C,0.250000*%
%TD*%
%TA.AperFunction,Conductor*%
%ADD23C,0.254000*%
%TD*%
%TA.AperFunction,Conductor*%
%ADD24C,0.100000*%
%TD*%
G04 APERTURE END LIST*
D10*
%TO.P,CON1,6*%
%TO.N,GND*%
X116840000Y-66040000D03*
%TO.P,CON1,4*%
%TO.N,/MOSI*%
X116840000Y-68580000D03*
%TO.P,CON1,2*%
%TO.N,Vcc_FLOPPY*%
X116840000Y-71120000D03*
%TO.P,CON1,5*%
%TO.N,/~mRESET*%
X119380000Y-66040000D03*
%TO.P,CON1,3*%
%TO.N,/SCK*%
X119380000Y-68580000D03*
%TO.P,CON1,1*%
%TO.N,/MISO*%
%TA.AperFunction,ComponentPad*%
G36*
G01*
X120230000Y-70520000D02*
X120230000Y-71720000D01*
G75*
G02*
X119980000Y-71970000I-250000J0D01*
G01*
X118780000Y-71970000D01*
G75*
G02*
X118530000Y-71720000I0J250000D01*
G01*
X118530000Y-70520000D01*
G75*
G02*
X118780000Y-70270000I250000J0D01*
G01*
X119980000Y-70270000D01*
G75*
G02*
X120230000Y-70520000I0J-250000D01*
G01*
G37*
%TD.AperFunction*%
%TD*%
D11*
%TO.P,J7,6*%
%TO.N,GND*%
X170140900Y-62522540D03*
X165140900Y-62522540D03*
D12*
X171140900Y-59822540D03*
X164140900Y-59822540D03*
%TD*%
D13*
%TO.P,J1,1*%
%TO.N,/~MOTEB*%
X124460000Y-118110000D03*
D14*
%TO.P,J1,2*%
%TO.N,Net-(J1-Pad2)*%
X124460000Y-120650000D03*
%TD*%
D15*
%TO.P,J2,1*%
%TO.N,GND*%
X133350000Y-120650000D03*
D16*
%TO.P,J2,2*%
%TO.N,Net-(J2-Pad2)*%
X133350000Y-118110000D03*
%TO.P,J2,3*%
%TO.N,GND*%
X135890000Y-120650000D03*
%TO.P,J2,4*%
%TO.N,Net-(J2-Pad4)*%
X135890000Y-118110000D03*
%TO.P,J2,5*%
%TO.N,GND*%
X138430000Y-120650000D03*
%TO.P,J2,6*%
%TO.N,Net-(J2-Pad6)*%
X138430000Y-118110000D03*
%TO.P,J2,7*%
%TO.N,GND*%
X140970000Y-120650000D03*
%TO.P,J2,8*%
%TO.N,/~INDEX*%
X140970000Y-118110000D03*
%TO.P,J2,9*%
%TO.N,GND*%
X143510000Y-120650000D03*
%TO.P,J2,10*%
%TO.N,Net-(J1-Pad2)*%
X143510000Y-118110000D03*
%TO.P,J2,11*%
%TO.N,GND*%
X146050000Y-120650000D03*
%TO.P,J2,12*%
%TO.N,/~MOTEB*%
X146050000Y-118110000D03*
%TO.P,J2,13*%
%TO.N,GND*%
X148590000Y-120650000D03*
%TO.P,J2,14*%
%TO.N,Net-(J1-Pad2)*%
X148590000Y-118110000D03*
%TO.P,J2,15*%
%TO.N,GND*%
X151130000Y-120650000D03*
%TO.P,J2,16*%
%TO.N,/~MOTEB*%
X151130000Y-118110000D03*
%TO.P,J2,17*%
%TO.N,GND*%
X153670000Y-120650000D03*
%TO.P,J2,18*%
%TO.N,/~DIR*%
X153670000Y-118110000D03*
%TO.P,J2,19*%
%TO.N,GND*%
X156210000Y-120650000D03*
%TO.P,J2,20*%
%TO.N,/~STEP*%
X156210000Y-118110000D03*
%TO.P,J2,21*%
%TO.N,GND*%
X158750000Y-120650000D03*
%TO.P,J2,22*%
%TO.N,/~WDATA*%
X158750000Y-118110000D03*
%TO.P,J2,23*%
%TO.N,GND*%
X161290000Y-120650000D03*
%TO.P,J2,24*%
%TO.N,/~WGATE*%
X161290000Y-118110000D03*
%TO.P,J2,25*%
%TO.N,GND*%
X163830000Y-120650000D03*
%TO.P,J2,26*%
%TO.N,/~TRK0*%
X163830000Y-118110000D03*
%TO.P,J2,27*%
%TO.N,GND*%
X166370000Y-120650000D03*
%TO.P,J2,28*%
%TO.N,/~WPROT*%
X166370000Y-118110000D03*
%TO.P,J2,29*%
%TO.N,GND*%
X168910000Y-120650000D03*
%TO.P,J2,30*%
%TO.N,/~RDATA*%
X168910000Y-118110000D03*
%TO.P,J2,31*%
%TO.N,GND*%
X171450000Y-120650000D03*
%TO.P,J2,32*%
%TO.N,/~SIDE1*%
X171450000Y-118110000D03*
%TO.P,J2,33*%
%TO.N,GND*%
X173990000Y-120650000D03*
%TO.P,J2,34*%
%TO.N,Net-(J2-Pad34)*%
X173990000Y-118110000D03*
%TD*%
D13*
%TO.P,J3,1*%
%TO.N,VCC*%
X173990000Y-88900000D03*
D14*
%TO.P,J3,2*%
%TO.N,GND*%
X176530000Y-88900000D03*
%TO.P,J3,3*%
X179070000Y-88900000D03*
%TO.P,J3,4*%
%TO.N,+12V*%
X181610000Y-88900000D03*
%TD*%
D17*
%TO.P,J4,2*%
%TO.N,/~INDEX*%
X142400000Y-126730000D03*
%TO.P,J4,4*%
%TO.N,/~MOTEB*%
X144400000Y-126730000D03*
%TO.P,J4,6*%
%TO.N,Net-(J4-Pad6)*%
X146400000Y-126730000D03*
%TO.P,J4,8*%
%TO.N,Net-(J4-Pad8)*%
X148400000Y-126730000D03*
%TO.P,J4,10*%
%TO.N,/~MOTEB*%
X150400000Y-126730000D03*
%TO.P,J4,12*%
%TO.N,/~DIR*%
X152400000Y-126730000D03*
%TO.P,J4,14*%
%TO.N,/~STEP*%
X154400000Y-126730000D03*
%TO.P,J4,16*%
%TO.N,/~WDATA*%
X156400000Y-126730000D03*
%TO.P,J4,18*%
%TO.N,/~WGATE*%
X158400000Y-126730000D03*
%TO.P,J4,20*%
%TO.N,/~TRK0*%
X160400000Y-126730000D03*
%TO.P,J4,22*%
%TO.N,/~WPROT*%
X162400000Y-126730000D03*
%TO.P,J4,24*%
%TO.N,/~RDATA*%
X164400000Y-126730000D03*
%TO.P,J4,26*%
%TO.N,/~SIDE1*%
X166400000Y-126730000D03*
D18*
%TO.P,J4,1*%
%TO.N,Vcc_FLOPPY*%
X141400000Y-124730000D03*
D17*
%TO.P,J4,3*%
X143400000Y-124730000D03*
%TO.P,J4,5*%
X145400000Y-124730000D03*
%TO.P,J4,7*%
%TO.N,Net-(J4-Pad7)*%
X147400000Y-124730000D03*
%TO.P,J4,9*%
%TO.N,Net-(J4-Pad9)*%
X149400000Y-124730000D03*
%TO.P,J4,11*%
%TO.N,Net-(J4-Pad11)*%
X151400000Y-124730000D03*
%TO.P,J4,13*%
%TO.N,Net-(J4-Pad13)*%
X153400000Y-124730000D03*
%TO.P,J4,15*%
%TO.N,GND*%
X155400000Y-124730000D03*
%TO.P,J4,17*%
X157400000Y-124730000D03*
%TO.P,J4,19*%
X159400000Y-124730000D03*
%TO.P,J4,21*%
X161400000Y-124730000D03*
%TO.P,J4,23*%
X163400000Y-124730000D03*
%TO.P,J4,25*%
X165400000Y-124730000D03*
%TD*%
D13*
%TO.P,J6,1*%
%TO.N,+12V*%
X177800000Y-68580000D03*
D14*
%TO.P,J6,2*%
%TO.N,GND*%
X180340000Y-68580000D03*
%TO.P,J6,3*%
X182880000Y-68580000D03*
%TO.P,J6,4*%
%TO.N,VCC*%
X185420000Y-68580000D03*
%TD*%
D13*
%TO.P,P1,1*%
%TO.N,VCC*%
X160020000Y-78740000D03*
D14*
%TO.P,P1,2*%
%TO.N,Vcc_FLOPPY*%
X157480000Y-78740000D03*
%TO.P,P1,3*%
%TO.N,VCC_USB*%
X154940000Y-78740000D03*
%TD*%
D19*
%TO.P,Y1,1*%
%TO.N,Net-(C2-Pad2)*%
X147320000Y-80010000D03*
%TO.P,Y1,2*%
%TO.N,Net-(C1-Pad2)*%
X147320000Y-84890000D03*
%TD*%
D20*
%TO.N,Net-(C1-Pad2)*%
X143878700Y-80563400D03*
%TO.N,Net-(C4-Pad2)*%
X131928200Y-87284000D03*
X140085000Y-66363400D03*
%TO.N,/MISO*%
X129350200Y-78300000D03*
%TO.N,/SCK*%
X131409500Y-79750000D03*
%TO.N,/MOSI*%
X134072300Y-76990600D03*
%TO.N,/~INDEX*%
X151275000Y-98473700D03*
%TO.N,/~DIR*%
X168596400Y-98483800D03*
%TO.N,/~WGATE*%
X156141500Y-106125100D03*
%TO.N,/~TRK0*%
X138229600Y-98569600D03*
%TO.N,/CTS*%
X139164700Y-83545700D03*
X139757400Y-73565400D03*
%TO.N,/RXD*%
X136676900Y-84146300D03*
X131926900Y-72219500D03*
%TO.N,/TXD*%
X139160000Y-85463700D03*
X144647800Y-67030000D03*
X138821100Y-76594800D03*
%TO.N,/~mRESET*%
X136822100Y-85064900D03*
%TO.N,Vcc_FLOPPY*%
X147698700Y-104140000D03*
X146030000Y-108696000D03*
%TO.N,/~mSTEP*%
X122579800Y-95444200D03*
X135997800Y-76991400D03*
%TO.N,/~mTRK0*%
X131209500Y-95494800D03*
X135736700Y-80739100D03*
%TO.N,/~mRDATA*%
X155202600Y-95998400D03*
X143927200Y-84550000D03*
%TO.N,/~mDIR*%
X158853100Y-96511100D03*
X139615000Y-79616200D03*
%TO.N,/~mHSEL*%
X126010000Y-101991100D03*
X135295300Y-79624500D03*
%TO.N,/~mMOTEN*%
X133541800Y-102495900D03*
X139986300Y-80376800D03*
%TO.N,VCC_USB*%
X157534200Y-69450300D03*
X156479200Y-68046100D03*
%TD*%
D21*
%TO.N,GND*%
X165140900Y-62522500D02*
X166141200Y-62522500D01*
X170140900Y-62097300D02*
X166566400Y-62097300D01*
X166566400Y-62097300D02*
X166141200Y-62522500D01*
X170140900Y-62097300D02*
X170140900Y-61672200D01*
X170140900Y-62522500D02*
X170140900Y-62097300D01*
X161290000Y-124675000D02*
X159455000Y-124675000D01*
X159455000Y-124675000D02*
X159400000Y-124730000D01*
X161400000Y-124730000D02*
X161345000Y-124675000D01*
X161345000Y-124675000D02*
X161290000Y-124675000D01*
X161290000Y-124675000D02*
X161290000Y-120650000D01*
X171140900Y-59822500D02*
X171140900Y-60972800D01*
X171140900Y-60972800D02*
X170441500Y-61672200D01*
X170441500Y-61672200D02*
X170140900Y-61672200D01*
X173990000Y-120650000D02*
X176530000Y-118110000D01*
X176530000Y-118110000D02*
X176530000Y-88900000D01*
D22*
%TO.N,Net-(C1-Pad2)*%
X147320000Y-84890000D02*
X143878700Y-81448700D01*
X143878700Y-81448700D02*
X143878700Y-80563400D01*
%TO.N,Net-(C4-Pad2)*%
X140085000Y-66363400D02*
X138087700Y-68360700D01*
X138087700Y-68360700D02*
X138087700Y-84710700D01*
X138087700Y-84710700D02*
X135514400Y-87284000D01*
X135514400Y-87284000D02*
X131928200Y-87284000D01*
%TO.N,/MISO*%
X119380000Y-71120000D02*
X126560000Y-78300000D01*
X126560000Y-78300000D02*
X129350200Y-78300000D01*
%TO.N,/SCK*%
X131409500Y-79750000D02*
X131409500Y-79469100D01*
X131409500Y-79469100D02*
X120520400Y-68580000D01*
X120520400Y-68580000D02*
X119380000Y-68580000D01*
%TO.N,/MOSI*%
X116840000Y-68580000D02*
X118030600Y-67389400D01*
X118030600Y-67389400D02*
X124471100Y-67389400D01*
X124471100Y-67389400D02*
X134072300Y-76990600D01*
%TO.N,/~INDEX*%
X140970000Y-118110000D02*
X142400000Y-119540000D01*
X142400000Y-119540000D02*
X142400000Y-126730000D01*
X151275000Y-98473700D02*
X140970000Y-108778700D01*
X140970000Y-108778700D02*
X140970000Y-118110000D01*
%TO.N,/~DIR*%
X153670000Y-118110000D02*
X152400000Y-119380000D01*
X152400000Y-119380000D02*
X152400000Y-126730000D01*
X168596400Y-98483800D02*
X162889900Y-98483800D01*
X162889900Y-98483800D02*
X153670000Y-107703700D01*
X153670000Y-107703700D02*
X153670000Y-118110000D01*
%TO.N,/~STEP*%
X156210000Y-118110000D02*
X155099400Y-119220600D01*
X155099400Y-119220600D02*
X155099400Y-121210600D01*
X155099400Y-121210600D02*
X154400000Y-121910000D01*
X154400000Y-121910000D02*
X154400000Y-126730000D01*
%TO.N,/~WDATA*%
X158750000Y-118110000D02*
X157639400Y-119220600D01*
X157639400Y-119220600D02*
X157639400Y-121901700D01*
X157639400Y-121901700D02*
X156400000Y-123141100D01*
X156400000Y-123141100D02*
X156400000Y-126730000D01*
%TO.N,/~WGATE*%
X161290000Y-118110000D02*
X161290000Y-111273600D01*
X161290000Y-111273600D02*
X156141500Y-106125100D01*
X158400000Y-126730000D02*
X158400000Y-124003500D01*
X158400000Y-124003500D02*
X160020000Y-122383500D01*
X160020000Y-122383500D02*
X160020000Y-119380000D01*
X160020000Y-119380000D02*
X161290000Y-118110000D01*
%TO.N,/~TRK0*%
X160400000Y-126730000D02*
X160581500Y-126730000D01*
X160581500Y-126730000D02*
X162560000Y-124751500D01*
X162560000Y-124751500D02*
X162560000Y-119380000D01*
X162560000Y-119380000D02*
X163830000Y-118110000D01*
X138229600Y-98569600D02*
X139515900Y-99855900D01*
X139515900Y-99855900D02*
X139515900Y-125113300D01*
X139515900Y-125113300D02*
X141963700Y-127561100D01*
X141963700Y-127561100D02*
X159568900Y-127561100D01*
X159568900Y-127561100D02*
X160400000Y-126730000D01*
%TO.N,/~RDATA*%
X164400000Y-126730000D02*
X164587200Y-126730000D01*
X164587200Y-126730000D02*
X167640000Y-123677200D01*
X167640000Y-123677200D02*
X167640000Y-119380000D01*
X167640000Y-119380000D02*
X168910000Y-118110000D01*
D21*
%TO.N,+12V*%
X181610000Y-88900000D02*
X181610000Y-87674700D01*
X177800000Y-68580000D02*
X177800000Y-83864700D01*
X177800000Y-83864700D02*
X181610000Y-87674700D01*
D22*
%TO.N,/CTS*%
X139164700Y-83545700D02*
X138989700Y-83370700D01*
X138989700Y-83370700D02*
X138989700Y-78385100D01*
X138989700Y-78385100D02*
X139757400Y-77617400D01*
X139757400Y-77617400D02*
X139757400Y-73565400D01*
%TO.N,/RXD*%
X131926900Y-72219500D02*
X132157600Y-72219500D01*
X132157600Y-72219500D02*
X136676900Y-76738800D01*
X136676900Y-76738800D02*
X136676900Y-84146300D01*
%TO.N,/TXD*%
X138821100Y-76594800D02*
X138821100Y-72856700D01*
X138821100Y-72856700D02*
X144647800Y-67030000D01*
X138821100Y-76594800D02*
X138539300Y-76876600D01*
X138539300Y-76876600D02*
X138539300Y-84843000D01*
X138539300Y-84843000D02*
X139160000Y-85463700D01*
%TO.N,/~mRESET*%
X136822100Y-85064900D02*
X137302200Y-84584800D01*
X137302200Y-84584800D02*
X137302200Y-76680000D01*
X137302200Y-76680000D02*
X126662200Y-66040000D01*
X126662200Y-66040000D02*
X119380000Y-66040000D01*
%TO.N,/~MOTEB*%
X147407600Y-119467600D02*
X147407600Y-123555200D01*
X146050000Y-118110000D02*
X147407600Y-119467600D01*
X151130000Y-118110000D02*
X149772400Y-119467600D01*
X149772400Y-119467600D02*
X147407600Y-119467600D01*
X147407600Y-123555200D02*
X146559400Y-124403400D01*
X146559400Y-124403400D02*
X146559400Y-124819100D01*
X146559400Y-124819100D02*
X144648500Y-126730000D01*
X144648500Y-126730000D02*
X144400000Y-126730000D01*
X150400000Y-126730000D02*
X150151500Y-126730000D01*
X150151500Y-126730000D02*
X148225400Y-124803900D01*
X148225400Y-124803900D02*
X148225400Y-124373000D01*
X148225400Y-124373000D02*
X147407600Y-123555200D01*
%TO.N,/~WPROT*%
X162400000Y-126730000D02*
X162567400Y-126730000D01*
X162567400Y-126730000D02*
X164240700Y-125056700D01*
X164240700Y-125056700D02*
X164240700Y-124579300D01*
X164240700Y-124579300D02*
X165100000Y-123720000D01*
X165100000Y-123720000D02*
X165100000Y-119380000D01*
X165100000Y-119380000D02*
X166370000Y-118110000D01*
%TO.N,/~SIDE1*%
X166400000Y-126730000D02*
X170180000Y-122950000D01*
X170180000Y-122950000D02*
X170180000Y-119380000D01*
X170180000Y-119380000D02*
X171450000Y-118110000D01*
D21*
%TO.N,Vcc_FLOPPY*%
X144857500Y-124187500D02*
X144857500Y-109868500D01*
X144857500Y-109868500D02*
X146030000Y-108696000D01*
X145400000Y-124730000D02*
X144857500Y-124187500D01*
X143400000Y-124730000D02*
X144315000Y-124730000D01*
X144315000Y-124730000D02*
X144857500Y-124187500D01*
X146030000Y-108696000D02*
X146030000Y-105808700D01*
X146030000Y-105808700D02*
X147698700Y-104140000D01*
D22*
%TO.N,/~mSTEP*%
X122579800Y-95444200D02*
X122579800Y-90409400D01*
X122579800Y-90409400D02*
X135997800Y-76991400D01*
%TO.N,/~mTRK0*%
X135736700Y-80739100D02*
X131209500Y-85266300D01*
X131209500Y-85266300D02*
X131209500Y-95494800D01*
%TO.N,/~mRDATA*%
X155202600Y-95998400D02*
X143927200Y-84723000D01*
X143927200Y-84723000D02*
X143927200Y-84550000D01*
%TO.N,/~mDIR*%
X158853100Y-96511100D02*
X157045200Y-96511100D01*
X157045200Y-96511100D02*
X140150400Y-79616300D01*
X140150400Y-79616300D02*
X139615000Y-79616300D01*
X139615000Y-79616300D02*
X139615000Y-79616200D01*
%TO.N,/~mHSEL*%
X135295300Y-79624500D02*
X126010000Y-88909800D01*
X126010000Y-88909800D02*
X126010000Y-101991100D01*
%TO.N,/~mMOTEN*%
X139986300Y-80376800D02*
X139986300Y-95928600D01*
X139986300Y-95928600D02*
X133541800Y-102373100D01*
X133541800Y-102373100D02*
X133541800Y-102495900D01*
%TO.N,VCC_USB*%
X154940000Y-78740000D02*
X154940000Y-72044500D01*
X154940000Y-72044500D02*
X157534200Y-69450300D01*
X157534200Y-69450300D02*
X156479200Y-68395300D01*
X156479200Y-68395300D02*
X156479200Y-68046100D01*
%TO.N,VCC*%
X173990000Y-88900000D02*
X173990000Y-87724700D01*
X172672700Y-78740000D02*
X172672700Y-71542700D01*
X172672700Y-71542700D02*
X176810700Y-67404700D01*
X176810700Y-67404700D02*
X183436800Y-67404700D01*
X183436800Y-67404700D02*
X184244700Y-68212600D01*
X184244700Y-68212600D02*
X184244700Y-68580000D01*
X173990000Y-87724700D02*
X172672700Y-86407400D01*
X172672700Y-86407400D02*
X172672700Y-78740000D01*
X161195300Y-78740000D02*
X172672700Y-78740000D01*
X185420000Y-68580000D02*
X184244700Y-68580000D01*
X160020000Y-78740000D02*
X161195300Y-78740000D01*
%TD*%
D23*
%TO.N,GND*%
X163052485Y-59201553D02*
X163005900Y-59420540D01*
X163005900Y-59695540D01*
X164013900Y-59695540D01*
X164013900Y-59675540D01*
X164267900Y-59675540D01*
X164267900Y-59695540D01*
X165275900Y-59695540D01*
X165275900Y-59420540D01*
X165229315Y-59201553D01*
X165197270Y-59127000D01*
X170084530Y-59127000D01*
X170052485Y-59201553D01*
X170005900Y-59420540D01*
X170005900Y-59695540D01*
X171013900Y-59695540D01*
X171013900Y-59675540D01*
X171267900Y-59675540D01*
X171267900Y-59695540D01*
X172275900Y-59695540D01*
X172275900Y-59420540D01*
X172229315Y-59201553D01*
X172197270Y-59127000D01*
X199873000Y-59127000D01*
X199873000Y-77947394D01*
X184910197Y-92910197D01*
X184894403Y-92929443D01*
X184882667Y-92951399D01*
X184875440Y-92975224D01*
X184873000Y-93000000D01*
X184873000Y-93566752D01*
X184872175Y-93567757D01*
X184847689Y-93597593D01*
X184784083Y-93716593D01*
X184784082Y-93716594D01*
X184744912Y-93845717D01*
X184731687Y-93980000D01*
X184735001Y-94013649D01*
X184735000Y-126966353D01*
X184735000Y-127873000D01*
X160331801Y-127873000D01*
X160339801Y-127865000D01*
X160511788Y-127865000D01*
X160731067Y-127821383D01*
X160937624Y-127735824D01*
X161123520Y-127611612D01*
X161281612Y-127453520D01*
X161400000Y-127276340D01*
X161518388Y-127453520D01*
X161676480Y-127611612D01*
X161862376Y-127735824D01*
X162068933Y-127821383D01*
X162288212Y-127865000D01*
X162511788Y-127865000D01*
X162731067Y-127821383D01*
X162937624Y-127735824D01*
X163123520Y-127611612D01*
X163281612Y-127453520D01*
X163400000Y-127276340D01*
X163518388Y-127453520D01*
X163676480Y-127611612D01*
X163862376Y-127735824D01*
X164068933Y-127821383D01*
X164288212Y-127865000D01*
X164511788Y-127865000D01*
X164731067Y-127821383D01*
X164937624Y-127735824D01*
X165123520Y-127611612D01*
X165281612Y-127453520D01*
X165400000Y-127276340D01*
X165518388Y-127453520D01*
X165676480Y-127611612D01*
X165862376Y-127735824D01*
X166068933Y-127821383D01*
X166288212Y-127865000D01*
X166511788Y-127865000D01*
X166731067Y-127821383D01*
X166937624Y-127735824D01*
X167123520Y-127611612D01*
X167281612Y-127453520D01*
X167405824Y-127267624D01*
X167491383Y-127061067D01*
X167535000Y-126841788D01*
X167535000Y-126669801D01*
X170691004Y-123513798D01*
X170720001Y-123490001D01*
X170814974Y-123374276D01*
X170885546Y-123242247D01*
X170929003Y-123098986D01*
X170940000Y-122987333D01*
X170940000Y-122987324D01*
X170943676Y-122950001D01*
X170940000Y-122912678D01*
X170940000Y-121951702D01*
X170980892Y-121970924D01*
X171247606Y-122037061D01*
X171522097Y-122049895D01*
X171793817Y-122008931D01*
X172052326Y-121915744D01*
X172167794Y-121854025D01*
X172234531Y-121614137D01*
X173205469Y-121614137D01*
X173272206Y-121854025D01*
X173520892Y-121970924D01*
X173787606Y-122037061D01*
X174062097Y-122049895D01*
X174333817Y-122008931D01*
X174592326Y-121915744D01*
X174707794Y-121854025D01*
X174774531Y-121614137D01*
X173990000Y-120829605D01*
X173205469Y-121614137D01*
X172234531Y-121614137D01*
X171450000Y-120829605D01*
X171435858Y-120843748D01*
X171256253Y-120664143D01*
X171270395Y-120650000D01*
X171629605Y-120650000D01*
X172414137Y-121434531D01*
X172654025Y-121367794D01*
X172717332Y-121233118D01*
X172724256Y-121252326D01*
X172785975Y-121367794D01*
X173025863Y-121434531D01*
X173810395Y-120650000D01*
X174169605Y-120650000D01*
X174954137Y-121434531D01*
X175194025Y-121367794D01*
X175310924Y-121119108D01*
X175377061Y-120852394D01*
X175389895Y-120577903D01*
X175348931Y-120306183D01*
X175255744Y-120047674D01*
X175194025Y-119932206D01*
X174954137Y-119865469D01*
X174169605Y-120650000D01*
X173810395Y-120650000D01*
X173025863Y-119865469D01*
X172785975Y-119932206D01*
X172722668Y-120066882D01*
X172715744Y-120047674D01*
X172654025Y-119932206D01*
X172414137Y-119865469D01*
X171629605Y-120650000D01*
X171270395Y-120650000D01*
X171256253Y-120635858D01*
X171435858Y-120456252D01*
X171450000Y-120470395D01*
X172234531Y-119685863D01*
X172167794Y-119445975D01*
X172028293Y-119380400D01*
X172110780Y-119346233D01*
X172339261Y-119193567D01*
X172533567Y-118999261D01*
X172686233Y-118770780D01*
X172720000Y-118689260D01*
X172753767Y-118770780D01*
X172906433Y-118999261D01*
X173100739Y-119193567D01*
X173329220Y-119346233D01*
X173405501Y-119377830D01*
X173387674Y-119384256D01*
X173272206Y-119445975D01*
X173205469Y-119685863D01*
X173990000Y-120470395D01*
X174774531Y-119685863D01*
X174707794Y-119445975D01*
X174568293Y-119380400D01*
X174650780Y-119346233D01*
X174879261Y-119193567D01*
X175073567Y-118999261D01*
X175226233Y-118770780D01*
X175331391Y-118516907D01*
X175385000Y-118247396D01*
X175385000Y-117972604D01*
X175331391Y-117703093D01*
X175226233Y-117449220D01*
X175073567Y-117220739D01*
X174879261Y-117026433D01*
X174650780Y-116873767D01*
X174396907Y-116768609D01*
X174127396Y-116715000D01*
X173852604Y-116715000D01*
X173583093Y-116768609D01*
X173329220Y-116873767D01*
X173100739Y-117026433D01*
X172906433Y-117220739D01*
X172753767Y-117449220D01*
X172720000Y-117530740D01*
X172686233Y-117449220D01*
X172533567Y-117220739D01*
X172339261Y-117026433D01*
X172110780Y-116873767D01*
X171856907Y-116768609D01*
X171587396Y-116715000D01*
X171312604Y-116715000D01*
X171043093Y-116768609D01*
X170789220Y-116873767D01*
X170560739Y-117026433D01*
X170366433Y-117220739D01*
X170213767Y-117449220D01*
X170180000Y-117530740D01*
X170146233Y-117449220D01*
X169993567Y-117220739D01*
X169799261Y-117026433D01*
X169570780Y-116873767D01*
X169316907Y-116768609D01*
X169047396Y-116715000D01*
X168772604Y-116715000D01*
X168503093Y-116768609D01*
X168249220Y-116873767D01*
X168020739Y-117026433D01*
X167826433Y-117220739D01*
X167673767Y-117449220D01*
X167640000Y-117530740D01*
X167606233Y-117449220D01*
X167453567Y-117220739D01*
X167259261Y-117026433D01*
X167030780Y-116873767D01*
X166776907Y-116768609D01*
X166507396Y-116715000D01*
X166232604Y-116715000D01*
X165963093Y-116768609D01*
X165709220Y-116873767D01*
X165480739Y-117026433D01*
X165286433Y-117220739D01*
X165133767Y-117449220D01*
X165100000Y-117530740D01*
X165066233Y-117449220D01*
X164913567Y-117220739D01*
X164719261Y-117026433D01*
X164490780Y-116873767D01*
X164236907Y-116768609D01*
X163967396Y-116715000D01*
X163692604Y-116715000D01*
X163423093Y-116768609D01*
X163169220Y-116873767D01*
X162940739Y-117026433D01*
X162746433Y-117220739D01*
X162593767Y-117449220D01*
X162560000Y-117530740D01*
X162526233Y-117449220D01*
X162373567Y-117220739D01*
X162179261Y-117026433D01*
X162050000Y-116940064D01*
X162050000Y-112819721D01*
X179475000Y-112819721D01*
X179475000Y-113240279D01*
X179557047Y-113652756D01*
X179717988Y-114041302D01*
X179951637Y-114390983D01*
X180249017Y-114688363D01*
X180598698Y-114922012D01*
X180987244Y-115082953D01*
X181399721Y-115165000D01*
X181820279Y-115165000D01*
X182232756Y-115082953D01*
X182621302Y-114922012D01*
X182970983Y-114688363D01*
X183268363Y-114390983D01*
X183502012Y-114041302D01*
X183662953Y-113652756D01*
X183745000Y-113240279D01*
X183745000Y-112819721D01*
X183662953Y-112407244D01*
X183502012Y-112018698D01*
X183268363Y-111669017D01*
X182970983Y-111371637D01*
X182621302Y-111137988D01*
X182232756Y-110977047D01*
X181820279Y-110895000D01*
X181399721Y-110895000D01*
X180987244Y-110977047D01*
X180598698Y-111137988D01*
X180249017Y-111371637D01*
X179951637Y-111669017D01*
X179717988Y-112018698D01*
X179557047Y-112407244D01*
X179475000Y-112819721D01*
X162050000Y-112819721D01*
X162050000Y-111310933D01*
X162053677Y-111273600D01*
X162039003Y-111124614D01*
X161995546Y-110981353D01*
X161924974Y-110849324D01*
X161853799Y-110762597D01*
X161830001Y-110733599D01*
X161801003Y-110709801D01*
X157064653Y-105973452D01*
X157040568Y-105852371D01*
X156970086Y-105682211D01*
X156888457Y-105560044D01*
X163204702Y-99243800D01*
X168050865Y-99243800D01*
X168153511Y-99312386D01*
X168323671Y-99382868D01*
X168504311Y-99418800D01*
X168688489Y-99418800D01*
X168869129Y-99382868D01*
X169039289Y-99312386D01*
X169192428Y-99210062D01*
X169322662Y-99079828D01*
X169424986Y-98926689D01*
X169495468Y-98756529D01*
X169531400Y-98575889D01*
X169531400Y-98391711D01*
X169495468Y-98211071D01*
X169424986Y-98040911D01*
X169322662Y-97887772D01*
X169192428Y-97757538D01*
X169039289Y-97655214D01*
X168869129Y-97584732D01*
X168688489Y-97548800D01*
X168504311Y-97548800D01*
X168323671Y-97584732D01*
X168153511Y-97655214D01*
X168050865Y-97723800D01*
X162927233Y-97723800D01*
X162889900Y-97720123D01*
X162852567Y-97723800D01*
X162740914Y-97734797D01*
X162597653Y-97778254D01*
X162465624Y-97848826D01*
X162349899Y-97943799D01*
X162326101Y-97972797D01*
X153159003Y-107139896D01*
X153129999Y-107163699D01*
X153074871Y-107230874D01*
X153035026Y-107279424D01*
X152964455Y-107411453D01*
X152964454Y-107411454D01*
X152920997Y-107554715D01*
X152910000Y-107666368D01*
X152910000Y-107666378D01*
X152906324Y-107703700D01*
X152910000Y-107741022D01*
X152910001Y-116940063D01*
X152780739Y-117026433D01*
X152586433Y-117220739D01*
X152433767Y-117449220D01*
X152400000Y-117530740D01*
X152366233Y-117449220D01*
X152213567Y-117220739D01*
X152019261Y-117026433D01*
X151790780Y-116873767D01*
X151536907Y-116768609D01*
X151267396Y-116715000D01*
X150992604Y-116715000D01*
X150723093Y-116768609D01*
X150469220Y-116873767D01*
X150240739Y-117026433D01*
X150046433Y-117220739D01*
X149893767Y-117449220D01*
X149860000Y-117530740D01*
X149826233Y-117449220D01*
X149673567Y-117220739D01*
X149479261Y-117026433D01*
X149250780Y-116873767D01*
X148996907Y-116768609D01*
X148727396Y-116715000D01*
X148452604Y-116715000D01*
X148183093Y-116768609D01*
X147929220Y-116873767D01*
X147700739Y-117026433D01*
X147506433Y-117220739D01*
X147353767Y-117449220D01*
X147320000Y-117530740D01*
X147286233Y-117449220D01*
X147133567Y-117220739D01*
X146939261Y-117026433D01*
X146710780Y-116873767D01*
X146456907Y-116768609D01*
X146187396Y-116715000D01*
X145912604Y-116715000D01*
X145667500Y-116763754D01*
X145667500Y-110204012D01*
X146269918Y-109601595D01*
X146302729Y-109595068D01*
X146472889Y-109524586D01*
X146626028Y-109422262D01*
X146756262Y-109292028D01*
X146858586Y-109138889D01*
X146929068Y-108968729D01*
X146965000Y-108788089D01*
X146965000Y-108603911D01*
X146929068Y-108423271D01*
X146858586Y-108253111D01*
X146840000Y-108225295D01*
X146840000Y-106144212D01*
X147938618Y-105045595D01*
X147971429Y-105039068D01*
X148141589Y-104968586D01*
X148294728Y-104866262D01*
X148424962Y-104736028D01*
X148527286Y-104582889D01*
X148597768Y-104412729D01*
X148633700Y-104232089D01*
X148633700Y-104047911D01*
X148597768Y-103867271D01*
X148527286Y-103697111D01*
X148424962Y-103543972D01*
X148294728Y-103413738D01*
X148141589Y-103311414D01*
X147971429Y-103240932D01*
X147790789Y-103205000D01*
X147618502Y-103205000D01*
X151426649Y-99396853D01*
X151547729Y-99372768D01*
X151717889Y-99302286D01*
X151871028Y-99199962D01*
X152001262Y-99069728D01*
X152103586Y-98916589D01*
X152174068Y-98746429D01*
X152210000Y-98565789D01*
X152210000Y-98381611D01*
X152174068Y-98200971D01*
X152103586Y-98030811D01*
X152001262Y-97877672D01*
X151871028Y-97747438D01*
X151717889Y-97645114D01*
X151547729Y-97574632D01*
X151367089Y-97538700D01*
X151182911Y-97538700D01*
X151002271Y-97574632D01*
X150832111Y-97645114D01*
X150678972Y-97747438D01*
X150548738Y-97877672D01*
X150446414Y-98030811D01*
X150375932Y-98200971D01*
X150351847Y-98322051D01*
X140459003Y-108214896D01*
X140429999Y-108238699D01*
X140374871Y-108305874D01*
X140335026Y-108354424D01*
X140275900Y-108465040D01*
X140275900Y-99893223D01*
X140279576Y-99855900D01*
X140275900Y-99818577D01*
X140275900Y-99818567D01*
X140264903Y-99706914D01*
X140221446Y-99563653D01*
X140150875Y-99431625D01*
X140150874Y-99431623D01*
X140079699Y-99344897D01*
X140055901Y-99315899D01*
X140026904Y-99292102D01*
X139152753Y-98417951D01*
X139128668Y-98296871D01*
X139058186Y-98126711D01*
X138980002Y-98009700D01*
X140497303Y-96492399D01*
X140526301Y-96468601D01*
X140621274Y-96352876D01*
X140691846Y-96220847D01*
X140735303Y-96077586D01*
X140746300Y-95965933D01*
X140746300Y-95965924D01*
X140749976Y-95928601D01*
X140746300Y-95891278D01*
X140746300Y-81287001D01*
X143307104Y-83847806D01*
X143200938Y-83953972D01*
X143098614Y-84107111D01*
X143028132Y-84277271D01*
X142992200Y-84457911D01*
X142992200Y-84642089D01*
X143028132Y-84822729D01*
X143098614Y-84992889D01*
X143200938Y-85146028D01*
X143331172Y-85276262D01*
X143484311Y-85378586D01*
X143524725Y-85395326D01*
X154279447Y-96150049D01*
X154303532Y-96271129D01*
X154374014Y-96441289D01*
X154476338Y-96594428D01*
X154606572Y-96724662D01*
X154759711Y-96826986D01*
X154929871Y-96897468D01*
X155110511Y-96933400D01*
X155294689Y-96933400D01*
X155475329Y-96897468D01*
X155645489Y-96826986D01*
X155798628Y-96724662D01*
X155928862Y-96594428D01*
X155978875Y-96519577D01*
X156481401Y-97022103D01*
X156505199Y-97051101D01*
X156620924Y-97146074D01*
X156752953Y-97216646D01*
X156896214Y-97260103D01*
X157007867Y-97271100D01*
X157007876Y-97271100D01*
X157045199Y-97274776D01*
X157082522Y-97271100D01*
X158307565Y-97271100D01*
X158410211Y-97339686D01*
X158580371Y-97410168D01*
X158761011Y-97446100D01*
X158945189Y-97446100D01*
X159125829Y-97410168D01*
X159295989Y-97339686D01*
X159449128Y-97237362D01*
X159579362Y-97107128D01*
X159681686Y-96953989D01*
X159752168Y-96783829D01*
X159788100Y-96603189D01*
X159788100Y-96419011D01*
X159752168Y-96238371D01*
X159681686Y-96068211D01*
X159579362Y-95915072D01*
X159449128Y-95784838D01*
X159295989Y-95682514D01*
X159125829Y-95612032D01*
X158945189Y-95576100D01*
X158761011Y-95576100D01*
X158580371Y-95612032D01*
X158410211Y-95682514D01*
X158307565Y-95751100D01*
X157360002Y-95751100D01*
X147799428Y-86190527D01*
X147976043Y-86117371D01*
X148202886Y-85965799D01*
X148395799Y-85772886D01*
X148547371Y-85546043D01*
X148651775Y-85293989D01*
X148705000Y-85026411D01*
X148705000Y-84753589D01*
X148651775Y-84486011D01*
X148547371Y-84233957D01*
X148395799Y-84007114D01*
X148202886Y-83814201D01*
X147976043Y-83662629D01*
X147723989Y-83558225D01*
X147456411Y-83505000D01*
X147183589Y-83505000D01*
X147038635Y-83533833D01*
X144638700Y-81133899D01*
X144638700Y-81108935D01*
X144707286Y-81006289D01*
X144777768Y-80836129D01*
X144813700Y-80655489D01*
X144813700Y-80471311D01*
X144777768Y-80290671D01*
X144707286Y-80120511D01*
X144604962Y-79967372D01*
X144511179Y-79873589D01*
X145935000Y-79873589D01*
X145935000Y-80146411D01*
X145988225Y-80413989D01*
X146092629Y-80666043D01*
X146244201Y-80892886D01*
X146437114Y-81085799D01*
X146663957Y-81237371D01*
X146916011Y-81341775D01*
X147183589Y-81395000D01*
X147456411Y-81395000D01*
X147723989Y-81341775D01*
X147976043Y-81237371D01*
X148202886Y-81085799D01*
X148395799Y-80892886D01*
X148547371Y-80666043D01*
X148651775Y-80413989D01*
X148705000Y-80146411D01*
X148705000Y-79873589D01*
X148651775Y-79606011D01*
X148547371Y-79353957D01*
X148395799Y-79127114D01*
X148202886Y-78934201D01*
X147976043Y-78782629D01*
X147723989Y-78678225D01*
X147456411Y-78625000D01*
X147183589Y-78625000D01*
X146916011Y-78678225D01*
X146663957Y-78782629D01*
X146437114Y-78934201D01*
X146244201Y-79127114D01*
X146092629Y-79353957D01*
X145988225Y-79606011D01*
X145935000Y-79873589D01*
X144511179Y-79873589D01*
X144474728Y-79837138D01*
X144321589Y-79734814D01*
X144151429Y-79664332D01*
X143970789Y-79628400D01*
X143786611Y-79628400D01*
X143605971Y-79664332D01*
X143435811Y-79734814D01*
X143282672Y-79837138D01*
X143152438Y-79967372D01*
X143050114Y-80120511D01*
X142979632Y-80290671D01*
X142943700Y-80471311D01*
X142943700Y-80655489D01*
X142979632Y-80836129D01*
X143050114Y-81006289D01*
X143118700Y-81108935D01*
X143118700Y-81411378D01*
X143115024Y-81448700D01*
X143118700Y-81486022D01*
X143118700Y-81486032D01*
X143121297Y-81512395D01*
X140714204Y-79105303D01*
X140690401Y-79076299D01*
X140574676Y-78981326D01*
X140442647Y-78910754D01*
X140299386Y-78867297D01*
X140187733Y-78856300D01*
X140187722Y-78856300D01*
X140156011Y-78853177D01*
X140057889Y-78787614D01*
X139887729Y-78717132D01*
X139758229Y-78691372D01*
X139855861Y-78593740D01*
X153455000Y-78593740D01*
X153455000Y-78886260D01*
X153512068Y-79173158D01*
X153624010Y-79443411D01*
X153786525Y-79686632D01*
X153993368Y-79893475D01*
X154236589Y-80055990D01*
X154506842Y-80167932D01*
X154793740Y-80225000D01*
X155086260Y-80225000D01*
X155373158Y-80167932D01*
X155643411Y-80055990D01*
X155886632Y-79893475D01*
X156093475Y-79686632D01*
X156210000Y-79512240D01*
X156326525Y-79686632D01*
X156533368Y-79893475D01*
X156776589Y-80055990D01*
X157046842Y-80167932D01*
X157333740Y-80225000D01*
X157626260Y-80225000D01*
X157913158Y-80167932D01*
X158183411Y-80055990D01*
X158426632Y-79893475D01*
X158558487Y-79761620D01*
X158580498Y-79834180D01*
X158639463Y-79944494D01*
X158718815Y-80041185D01*
X158815506Y-80120537D01*
X158925820Y-80179502D01*
X159045518Y-80215812D01*
X159170000Y-80228072D01*
X160870000Y-80228072D01*
X160994482Y-80215812D01*
X161114180Y-80179502D01*
X161224494Y-80120537D01*
X161321185Y-80041185D01*
X161400537Y-79944494D01*
X161459502Y-79834180D01*
X161495812Y-79714482D01*
X161508072Y-79590000D01*
X161508072Y-79500000D01*
X171912701Y-79500000D01*
X171912700Y-86370078D01*
X171909024Y-86407400D01*
X171912700Y-86444722D01*
X171912700Y-86444732D01*
X171923697Y-86556385D01*
X171951799Y-86649026D01*
X171967154Y-86699646D01*
X172037726Y-86831676D01*
X172060745Y-86859724D01*
X172132699Y-86947401D01*
X172161703Y-86971204D01*
X172744013Y-87553515D01*
X172688815Y-87598815D01*
X172609463Y-87695506D01*
X172550498Y-87805820D01*
X172514188Y-87925518D01*
X172501928Y-88050000D01*
X172501928Y-89750000D01*
X172514188Y-89874482D01*
X172550498Y-89994180D01*
X172609463Y-90104494D01*
X172688815Y-90201185D01*
X172785506Y-90280537D01*
X172895820Y-90339502D01*
X173015518Y-90375812D01*
X173140000Y-90388072D01*
X174840000Y-90388072D01*
X174964482Y-90375812D01*
X175084180Y-90339502D01*
X175194494Y-90280537D01*
X175291185Y-90201185D01*
X175370537Y-90104494D01*
X175429502Y-89994180D01*
X175453966Y-89913534D01*
X175529731Y-89997588D01*
X175763080Y-90171641D01*
X176025901Y-90296825D01*
X176173110Y-90341476D01*
X176403000Y-90220155D01*
X176403000Y-89027000D01*
X176657000Y-89027000D01*
X176657000Y-90220155D01*
X176886890Y-90341476D01*
X177034099Y-90296825D01*
X177296920Y-90171641D01*
X177530269Y-89997588D01*
X177725178Y-89781355D01*
X177800000Y-89655745D01*
X177874822Y-89781355D01*
X178069731Y-89997588D01*
X178303080Y-90171641D01*
X178565901Y-90296825D01*
X178713110Y-90341476D01*
X178943000Y-90220155D01*
X178943000Y-89027000D01*
X176657000Y-89027000D01*
X176403000Y-89027000D01*
X176383000Y-89027000D01*
X176383000Y-88773000D01*
X176403000Y-88773000D01*
X176403000Y-87579845D01*
X176657000Y-87579845D01*
X176657000Y-88773000D01*
X178943000Y-88773000D01*
X178943000Y-87579845D01*
X178713110Y-87458524D01*
X178565901Y-87503175D01*
X178303080Y-87628359D01*
X178069731Y-87802412D01*
X177874822Y-88018645D01*
X177800000Y-88144255D01*
X177725178Y-88018645D01*
X177530269Y-87802412D01*
X177296920Y-87628359D01*
X177034099Y-87503175D01*
X176886890Y-87458524D01*
X176657000Y-87579845D01*
X176403000Y-87579845D01*
X176173110Y-87458524D01*
X176025901Y-87503175D01*
X175763080Y-87628359D01*
X175529731Y-87802412D01*
X175453966Y-87886466D01*
X175429502Y-87805820D01*
X175370537Y-87695506D01*
X175291185Y-87598815D01*
X175194494Y-87519463D01*
X175084180Y-87460498D01*
X174964482Y-87424188D01*
X174840000Y-87411928D01*
X174684575Y-87411928D01*
X174624974Y-87300424D01*
X174553799Y-87213697D01*
X174530001Y-87184699D01*
X174501003Y-87160901D01*
X173432700Y-86092599D01*
X173432700Y-78777332D01*
X173436377Y-78740000D01*
X173432700Y-78702667D01*
X173432700Y-71857501D01*
X176311928Y-68978274D01*
X176311928Y-69430000D01*
X176324188Y-69554482D01*
X176360498Y-69674180D01*
X176419463Y-69784494D01*
X176498815Y-69881185D01*
X176595506Y-69960537D01*
X176705820Y-70019502D01*
X176825518Y-70055812D01*
X176950000Y-70068072D01*
X176990000Y-70068072D01*
X176990001Y-83824902D01*
X176986081Y-83864700D01*
X177000108Y-84007114D01*
X177001721Y-84023488D01*
X177030908Y-84119703D01*
X177048038Y-84176173D01*
X177123251Y-84316889D01*
X177170356Y-84374286D01*
X177224473Y-84440228D01*
X177255383Y-84465595D01*
X180599840Y-87810053D01*
X180456525Y-87953368D01*
X180334805Y-88135534D01*
X180265178Y-88018645D01*
X180070269Y-87802412D01*
X179836920Y-87628359D01*
X179574099Y-87503175D01*
X179426890Y-87458524D01*
X179197000Y-87579845D01*
X179197000Y-88773000D01*
X179217000Y-88773000D01*
X179217000Y-89027000D01*
X179197000Y-89027000D01*
X179197000Y-90220155D01*
X179426890Y-90341476D01*
X179574099Y-90296825D01*
X179836920Y-90171641D01*
X180070269Y-89997588D01*
X180265178Y-89781355D01*
X180334805Y-89664466D01*
X180456525Y-89846632D01*
X180663368Y-90053475D01*
X180906589Y-90215990D01*
X181176842Y-90327932D01*
X181463740Y-90385000D01*
X181756260Y-90385000D01*
X182043158Y-90327932D01*
X182313411Y-90215990D01*
X182556632Y-90053475D01*
X182763475Y-89846632D01*
X182925990Y-89603411D01*
X183037932Y-89333158D01*
X183095000Y-89046260D01*
X183095000Y-88753740D01*
X183037932Y-88466842D01*
X182925990Y-88196589D01*
X182763475Y-87953368D01*
X182556632Y-87746525D01*
X182422142Y-87656662D01*
X182416445Y-87598815D01*
X182408280Y-87515912D01*
X182361963Y-87363227D01*
X182361963Y-87363226D01*
X182286749Y-87222511D01*
X182214943Y-87135015D01*
X182185528Y-87099172D01*
X182154618Y-87073805D01*
X178610000Y-83529188D01*
X178610000Y-70068072D01*
X178650000Y-70068072D01*
X178774482Y-70055812D01*
X178894180Y-70019502D01*
X179004494Y-69960537D01*
X179101185Y-69881185D01*
X179180537Y-69784494D01*
X179239502Y-69674180D01*
X179263966Y-69593534D01*
X179339731Y-69677588D01*
X179573080Y-69851641D01*
X179835901Y-69976825D01*
X179983110Y-70021476D01*
X180213000Y-69900155D01*
X180213000Y-68707000D01*
X180467000Y-68707000D01*
X180467000Y-69900155D01*
X180696890Y-70021476D01*
X180844099Y-69976825D01*
X181106920Y-69851641D01*
X181340269Y-69677588D01*
X181535178Y-69461355D01*
X181610000Y-69335745D01*
X181684822Y-69461355D01*
X181879731Y-69677588D01*
X182113080Y-69851641D01*
X182375901Y-69976825D01*
X182523110Y-70021476D01*
X182753000Y-69900155D01*
X182753000Y-68707000D01*
X180467000Y-68707000D01*
X180213000Y-68707000D01*
X180193000Y-68707000D01*
X180193000Y-68453000D01*
X180213000Y-68453000D01*
X180213000Y-68433000D01*
X180467000Y-68433000D01*
X180467000Y-68453000D01*
X182753000Y-68453000D01*
X182753000Y-68433000D01*
X183007000Y-68433000D01*
X183007000Y-68453000D01*
X183027000Y-68453000D01*
X183027000Y-68707000D01*
X183007000Y-68707000D01*
X183007000Y-69900155D01*
X183236890Y-70021476D01*
X183384099Y-69976825D01*
X183646920Y-69851641D01*
X183880269Y-69677588D01*
X184075178Y-69461355D01*
X184144805Y-69344466D01*
X184266525Y-69526632D01*
X184473368Y-69733475D01*
X184716589Y-69895990D01*
X184986842Y-70007932D01*
X185273740Y-70065000D01*
X185566260Y-70065000D01*
X185853158Y-70007932D01*
X186123411Y-69895990D01*
X186366632Y-69733475D01*
X186573475Y-69526632D01*
X186735990Y-69283411D01*
X186847932Y-69013158D01*
X186905000Y-68726260D01*
X186905000Y-68433740D01*
X186847932Y-68146842D01*
X186735990Y-67876589D01*
X186573475Y-67633368D01*
X186366632Y-67426525D01*
X186123411Y-67264010D01*
X185853158Y-67152068D01*
X185566260Y-67095000D01*
X185273740Y-67095000D01*
X184986842Y-67152068D01*
X184716589Y-67264010D01*
X184509371Y-67402469D01*
X184000603Y-66893702D01*
X183976801Y-66864699D01*
X183861076Y-66769726D01*
X183729047Y-66699154D01*
X183585786Y-66655697D01*
X183474133Y-66644700D01*
X183474122Y-66644700D01*
X183436800Y-66641024D01*
X183399478Y-66644700D01*
X176848025Y-66644700D01*
X176810700Y-66641024D01*
X176773375Y-66644700D01*
X176773367Y-66644700D01*
X176661714Y-66655697D01*
X176518453Y-66699154D01*
X176386424Y-66769726D01*
X176270699Y-66864699D01*
X176246901Y-66893697D01*
X172161698Y-70978901D01*
X172132700Y-71002699D01*
X172108902Y-71031697D01*
X172108901Y-71031698D01*
X172037726Y-71118424D01*
X171967154Y-71250454D01*
X171956827Y-71284500D01*
X171923698Y-71393714D01*
X171912701Y-71505367D01*
X171909024Y-71542700D01*
X171912701Y-71580032D01*
X171912700Y-77980000D01*
X161508072Y-77980000D01*
X161508072Y-77890000D01*
X161495812Y-77765518D01*
X161459502Y-77645820D01*
X161400537Y-77535506D01*
X161321185Y-77438815D01*
X161224494Y-77359463D01*
X161114180Y-77300498D01*
X160994482Y-77264188D01*
X160870000Y-77251928D01*
X159170000Y-77251928D01*
X159045518Y-77264188D01*
X158925820Y-77300498D01*
X158815506Y-77359463D01*
X158718815Y-77438815D01*
X158639463Y-77535506D01*
X158580498Y-77645820D01*
X158558487Y-77718380D01*
X158426632Y-77586525D01*
X158183411Y-77424010D01*
X157913158Y-77312068D01*
X157626260Y-77255000D01*
X157333740Y-77255000D01*
X157046842Y-77312068D01*
X156776589Y-77424010D01*
X156533368Y-77586525D01*
X156326525Y-77793368D01*
X156210000Y-77967760D01*
X156093475Y-77793368D01*
X155886632Y-77586525D01*
X155700000Y-77461822D01*
X155700000Y-72359301D01*
X157685849Y-70373453D01*
X157806929Y-70349368D01*
X157977089Y-70278886D01*
X158130228Y-70176562D01*
X158260462Y-70046328D01*
X158362786Y-69893189D01*
X158433268Y-69723029D01*
X158469200Y-69542389D01*
X158469200Y-69358211D01*
X158433268Y-69177571D01*
X158362786Y-69007411D01*
X158260462Y-68854272D01*
X158130228Y-68724038D01*
X157977089Y-68621714D01*
X157806929Y-68551232D01*
X157685849Y-68527147D01*
X157394737Y-68236036D01*
X157414200Y-68138189D01*
X157414200Y-67954011D01*
X157378268Y-67773371D01*
X157307786Y-67603211D01*
X157205462Y-67450072D01*
X157075228Y-67319838D01*
X156922089Y-67217514D01*
X156751929Y-67147032D01*
X156571289Y-67111100D01*
X156387111Y-67111100D01*
X156206471Y-67147032D01*
X156036311Y-67217514D01*
X155883172Y-67319838D01*
X155752938Y-67450072D01*
X155650614Y-67603211D01*
X155580132Y-67773371D01*
X155544200Y-67954011D01*
X155544200Y-68138189D01*
X155580132Y-68318829D01*
X155650614Y-68488989D01*
X155752938Y-68642128D01*
X155762898Y-68652088D01*
X155773374Y-68686624D01*
X155773654Y-68687546D01*
X155844226Y-68819576D01*
X155867204Y-68847574D01*
X155939199Y-68935301D01*
X155968202Y-68959104D01*
X156459398Y-69450300D01*
X154428998Y-71480701D01*
X154400000Y-71504499D01*
X154376202Y-71533497D01*
X154376201Y-71533498D01*
X154305026Y-71620224D01*
X154234454Y-71752254D01*
X154190998Y-71895515D01*
X154176324Y-72044500D01*
X154180001Y-72081832D01*
X154180000Y-77461821D01*
X153993368Y-77586525D01*
X153786525Y-77793368D01*
X153624010Y-78036589D01*
X153512068Y-78306842D01*
X153455000Y-78593740D01*
X139855861Y-78593740D01*
X140268404Y-78181198D01*
X140297401Y-78157401D01*
X140392374Y-78041676D01*
X140462946Y-77909647D01*
X140506403Y-77766386D01*
X140517400Y-77654733D01*
X140517400Y-77654725D01*
X140521076Y-77617400D01*
X140517400Y-77580075D01*
X140517400Y-74110935D01*
X140585986Y-74008289D01*
X140656468Y-73838129D01*
X140692400Y-73657489D01*
X140692400Y-73473311D01*
X140656468Y-73292671D01*
X140585986Y-73122511D01*
X140483662Y-72969372D01*
X140353428Y-72839138D01*
X140200289Y-72736814D01*
X140069826Y-72682775D01*
X144799449Y-67953153D01*
X144920529Y-67929068D01*
X145090689Y-67858586D01*
X145243828Y-67756262D01*
X145374062Y-67626028D01*
X145476386Y-67472889D01*
X145546868Y-67302729D01*
X145582800Y-67122089D01*
X145582800Y-66937911D01*
X145546868Y-66757271D01*
X145476386Y-66587111D01*
X145374062Y-66433972D01*
X145243828Y-66303738D01*
X145090689Y-66201414D01*
X144920529Y-66130932D01*
X144739889Y-66095000D01*
X144555711Y-66095000D01*
X144375071Y-66130932D01*
X144204911Y-66201414D01*
X144051772Y-66303738D01*
X143921538Y-66433972D01*
X143819214Y-66587111D01*
X143748732Y-66757271D01*
X143724647Y-66878351D01*
X138847700Y-71755299D01*
X138847700Y-68675501D01*
X140236649Y-67286553D01*
X140357729Y-67262468D01*
X140527889Y-67191986D01*
X140681028Y-67089662D01*
X140811262Y-66959428D01*
X140913586Y-66806289D01*
X140984068Y-66636129D01*
X141020000Y-66455489D01*
X141020000Y-66271311D01*
X140984068Y-66090671D01*
X140913586Y-65920511D01*
X140811262Y-65767372D01*
X140681028Y-65637138D01*
X140527889Y-65534814D01*
X140357729Y-65464332D01*
X140177089Y-65428400D01*
X139992911Y-65428400D01*
X139812271Y-65464332D01*
X139642111Y-65534814D01*
X139488972Y-65637138D01*
X139358738Y-65767372D01*
X139256414Y-65920511D01*
X139185932Y-66090671D01*
X139161847Y-66211751D01*
X137576703Y-67796896D01*
X137547699Y-67820699D01*
X137503584Y-67874454D01*
X137452726Y-67936424D01*
X137397537Y-68039674D01*
X137382154Y-68068454D01*
X137338697Y-68211715D01*
X137327700Y-68323368D01*
X137327700Y-68323378D01*
X137324024Y-68360700D01*
X137327700Y-68398022D01*
X137327700Y-75630698D01*
X127226004Y-65529003D01*
X127202201Y-65499999D01*
X127086476Y-65405026D01*
X126954447Y-65334454D01*
X126811186Y-65290997D01*
X126699533Y-65280000D01*
X126699522Y-65280000D01*
X126662200Y-65276324D01*
X126624878Y-65280000D01*
X120658178Y-65280000D01*
X120533475Y-65093368D01*
X120326632Y-64886525D01*
X120083411Y-64724010D01*
X119813158Y-64612068D01*
X119526260Y-64555000D01*
X119233740Y-64555000D01*
X118946842Y-64612068D01*
X118676589Y-64724010D01*
X118433368Y-64886525D01*
X118226525Y-65093368D01*
X118110689Y-65266729D01*
X117868397Y-65191208D01*
X117019605Y-66040000D01*
X117033748Y-66054143D01*
X116854143Y-66233748D01*
X116840000Y-66219605D01*
X115991208Y-67068397D01*
X116066729Y-67310689D01*
X115893368Y-67426525D01*
X115686525Y-67633368D01*
X115524010Y-67876589D01*
X115412068Y-68146842D01*
X115355000Y-68433740D01*
X115355000Y-68726260D01*
X115412068Y-69013158D01*
X115524010Y-69283411D01*
X115686525Y-69526632D01*
X115893368Y-69733475D01*
X116067760Y-69850000D01*
X115893368Y-69966525D01*
X115686525Y-70173368D01*
X115524010Y-70416589D01*
X115412068Y-70686842D01*
X115355000Y-70973740D01*
X115355000Y-71266260D01*
X115412068Y-71553158D01*
X115524010Y-71823411D01*
X115686525Y-72066632D01*
X115893368Y-72273475D01*
X116136589Y-72435990D01*
X116406842Y-72547932D01*
X116693740Y-72605000D01*
X116986260Y-72605000D01*
X117273158Y-72547932D01*
X117543411Y-72435990D01*
X117786632Y-72273475D01*
X117973715Y-72086392D01*
X118041595Y-72213386D01*
X118152038Y-72347962D01*
X118286614Y-72458405D01*
X118440150Y-72540472D01*
X118606746Y-72591008D01*
X118780000Y-72608072D01*
X119793271Y-72608072D01*
X125996205Y-78811008D01*
X126019999Y-78840001D01*
X126048992Y-78863795D01*
X126048996Y-78863799D01*
X126079686Y-78888985D01*
X126135724Y-78934974D01*
X126267753Y-79005546D01*
X126411014Y-79049003D01*
X126522667Y-79060000D01*
X126522676Y-79060000D01*
X126559999Y-79063676D01*
X126597322Y-79060000D01*
X128804665Y-79060000D01*
X128907311Y-79128586D01*
X129077471Y-79199068D01*
X129258111Y-79235000D01*
X129442289Y-79235000D01*
X129622929Y-79199068D01*
X129793089Y-79128586D01*
X129913637Y-79048039D01*
X130482631Y-79617033D01*
X130474500Y-79657911D01*
X130474500Y-79842089D01*
X130510432Y-80022729D01*
X130580914Y-80192889D01*
X130683238Y-80346028D01*
X130813472Y-80476262D01*
X130966611Y-80578586D01*
X131136771Y-80649068D01*
X131244001Y-80670398D01*
X122068798Y-89845601D01*
X122039800Y-89869399D01*
X122016002Y-89898397D01*
X122016001Y-89898398D01*
X121944826Y-89985124D01*
X121874254Y-90117154D01*
X121830798Y-90260415D01*
X121816124Y-90409400D01*
X121819801Y-90446732D01*
X121819800Y-94898664D01*
X121751214Y-95001311D01*
X121680732Y-95171471D01*
X121644800Y-95352111D01*
X121644800Y-95536289D01*
X121680732Y-95716929D01*
X121751214Y-95887089D01*
X121853538Y-96040228D01*
X121983772Y-96170462D01*
X122136911Y-96272786D01*
X122307071Y-96343268D01*
X122487711Y-96379200D01*
X122671889Y-96379200D01*
X122852529Y-96343268D01*
X123022689Y-96272786D01*
X123175828Y-96170462D01*
X123306062Y-96040228D01*
X123408386Y-95887089D01*
X123478868Y-95716929D01*
X123514800Y-95536289D01*
X123514800Y-95352111D01*
X123478868Y-95171471D01*
X123408386Y-95001311D01*
X123339800Y-94898665D01*
X123339800Y-90724201D01*
X125256388Y-88807613D01*
X125250000Y-88872468D01*
X125250000Y-88872478D01*
X125246324Y-88909800D01*
X125250000Y-88947122D01*
X125250001Y-101445563D01*
X125181414Y-101548211D01*
X125110932Y-101718371D01*
X125075000Y-101899011D01*
X125075000Y-102083189D01*
X125110932Y-102263829D01*
X125181414Y-102433989D01*
X125283738Y-102587128D01*
X125413972Y-102717362D01*
X125567111Y-102819686D01*
X125737271Y-102890168D01*
X125917911Y-102926100D01*
X126102089Y-102926100D01*
X126282729Y-102890168D01*
X126452889Y-102819686D01*
X126606028Y-102717362D01*
X126736262Y-102587128D01*
X126838586Y-102433989D01*
X126909068Y-102263829D01*
X126945000Y-102083189D01*
X126945000Y-101899011D01*
X126909068Y-101718371D01*
X126838586Y-101548211D01*
X126770000Y-101445565D01*
X126770000Y-89224601D01*
X130449500Y-85545101D01*
X130449501Y-94949263D01*
X130380914Y-95051911D01*
X130310432Y-95222071D01*
X130274500Y-95402711D01*
X130274500Y-95586889D01*
X130310432Y-95767529D01*
X130380914Y-95937689D01*
X130483238Y-96090828D01*
X130613472Y-96221062D01*
X130766611Y-96323386D01*
X130936771Y-96393868D01*
X131117411Y-96429800D01*
X131301589Y-96429800D01*
X131482229Y-96393868D01*
X131652389Y-96323386D01*
X131805528Y-96221062D01*
X131935762Y-96090828D01*
X132038086Y-95937689D01*
X132108568Y-95767529D01*
X132144500Y-95586889D01*
X132144500Y-95402711D01*
X132108568Y-95222071D01*
X132038086Y-95051911D01*
X131969500Y-94949265D01*
X131969500Y-88219000D01*
X132020289Y-88219000D01*
X132200929Y-88183068D01*
X132371089Y-88112586D01*
X132473735Y-88044000D01*
X135477078Y-88044000D01*
X135514400Y-88047676D01*
X135551722Y-88044000D01*
X135551733Y-88044000D01*
X135663386Y-88033003D01*
X135806647Y-87989546D01*
X135938676Y-87918974D01*
X136054401Y-87824001D01*
X136078204Y-87794997D01*
X138240332Y-85632869D01*
X138260932Y-85736429D01*
X138331414Y-85906589D01*
X138433738Y-86059728D01*
X138563972Y-86189962D01*
X138717111Y-86292286D01*
X138887271Y-86362768D01*
X139067911Y-86398700D01*
X139226300Y-86398700D01*
X139226301Y-95613797D01*
X133225021Y-101615078D01*
X133098911Y-101667314D01*
X132945772Y-101769638D01*
X132815538Y-101899872D01*
X132713214Y-102053011D01*
X132642732Y-102223171D01*
X132606800Y-102403811D01*
X132606800Y-102587989D01*
X132642732Y-102768629D01*
X132713214Y-102938789D01*
X132815538Y-103091928D01*
X132945772Y-103222162D01*
X133098911Y-103324486D01*
X133269071Y-103394968D01*
X133449711Y-103430900D01*
X133633889Y-103430900D01*
X133814529Y-103394968D01*
X133984689Y-103324486D01*
X134137828Y-103222162D01*
X134268062Y-103091928D01*
X134370386Y-102938789D01*
X134440868Y-102768629D01*
X134476800Y-102587989D01*
X134476800Y-102512901D01*
X137669700Y-99320002D01*
X137786711Y-99398186D01*
X137956871Y-99468668D01*
X138077951Y-99492753D01*
X138755900Y-100170702D01*
X138755901Y-116752496D01*
X138567396Y-116715000D01*
X138292604Y-116715000D01*
X138023093Y-116768609D01*
X137769220Y-116873767D01*
X137540739Y-117026433D01*
X137346433Y-117220739D01*
X137193767Y-117449220D01*
X137160000Y-117530740D01*
X137126233Y-117449220D01*
X136973567Y-117220739D01*
X136779261Y-117026433D01*
X136550780Y-116873767D01*
X136296907Y-116768609D01*
X136027396Y-116715000D01*
X135752604Y-116715000D01*
X135483093Y-116768609D01*
X135229220Y-116873767D01*
X135000739Y-117026433D01*
X134806433Y-117220739D01*
X134653767Y-117449220D01*
X134620000Y-117530740D01*
X134586233Y-117449220D01*
X134433567Y-117220739D01*
X134239261Y-117026433D01*
X134010780Y-116873767D01*
X133756907Y-116768609D01*
X133487396Y-116715000D01*
X133212604Y-116715000D01*
X132943093Y-116768609D01*
X132689220Y-116873767D01*
X132460739Y-117026433D01*
X132266433Y-117220739D01*
X132113767Y-117449220D01*
X132008609Y-117703093D01*
X131955000Y-117972604D01*
X131955000Y-118247396D01*
X132008609Y-118516907D01*
X132113767Y-118770780D01*
X132266433Y-118999261D01*
X132460739Y-119193567D01*
X132553467Y-119255526D01*
X132465518Y-119264188D01*
X132345820Y-119300498D01*
X132235506Y-119359463D01*
X132138815Y-119438815D01*
X132059463Y-119535506D01*
X132000498Y-119645820D01*
X131964188Y-119765518D01*
X131951928Y-119890000D01*
X131955000Y-120364250D01*
X132113750Y-120523000D01*
X133223000Y-120523000D01*
X133223000Y-120503000D01*
X133477000Y-120503000D01*
X133477000Y-120523000D01*
X133497000Y-120523000D01*
X133497000Y-120777000D01*
X133477000Y-120777000D01*
X133477000Y-121886250D01*
X133635750Y-122045000D01*
X134110000Y-122048072D01*
X134234482Y-122035812D01*
X134354180Y-121999502D01*
X134464494Y-121940537D01*
X134561185Y-121861185D01*
X134640537Y-121764494D01*
X134699502Y-121654180D01*
X134711648Y-121614137D01*
X135105469Y-121614137D01*
X135172206Y-121854025D01*
X135420892Y-121970924D01*
X135687606Y-122037061D01*
X135962097Y-122049895D01*
X136233817Y-122008931D01*
X136492326Y-121915744D01*
X136607794Y-121854025D01*
X136674531Y-121614137D01*
X135890000Y-120829605D01*
X135105469Y-121614137D01*
X134711648Y-121614137D01*
X134735812Y-121534482D01*
X134748072Y-121410000D01*
X134747910Y-121385024D01*
X134925863Y-121434531D01*
X135710395Y-120650000D01*
X136069605Y-120650000D01*
X136854137Y-121434531D01*
X137094025Y-121367794D01*
X137157332Y-121233118D01*
X137164256Y-121252326D01*
X137225975Y-121367794D01*
X137465863Y-121434531D01*
X138250395Y-120650000D01*
X137465863Y-119865469D01*
X137225975Y-119932206D01*
X137162668Y-120066882D01*
X137155744Y-120047674D01*
X137094025Y-119932206D01*
X136854137Y-119865469D01*
X136069605Y-120650000D01*
X135710395Y-120650000D01*
X134925863Y-119865469D01*
X134747910Y-119914976D01*
X134748072Y-119890000D01*
X134735812Y-119765518D01*
X134699502Y-119645820D01*
X134640537Y-119535506D01*
X134561185Y-119438815D01*
X134464494Y-119359463D01*
X134354180Y-119300498D01*
X134234482Y-119264188D01*
X134146533Y-119255526D01*
X134239261Y-119193567D01*
X134433567Y-118999261D01*
X134586233Y-118770780D01*
X134620000Y-118689260D01*
X134653767Y-118770780D01*
X134806433Y-118999261D01*
X135000739Y-119193567D01*
X135229220Y-119346233D01*
X135305501Y-119377830D01*
X135287674Y-119384256D01*
X135172206Y-119445975D01*
X135105469Y-119685863D01*
X135890000Y-120470395D01*
X136674531Y-119685863D01*
X136607794Y-119445975D01*
X136468293Y-119380400D01*
X136550780Y-119346233D01*
X136779261Y-119193567D01*
X136973567Y-118999261D01*
X137126233Y-118770780D01*
X137160000Y-118689260D01*
X137193767Y-118770780D01*
X137346433Y-118999261D01*
X137540739Y-119193567D01*
X137769220Y-119346233D01*
X137845501Y-119377830D01*
X137827674Y-119384256D01*
X137712206Y-119445975D01*
X137645469Y-119685863D01*
X138430000Y-120470395D01*
X138444143Y-120456253D01*
X138623748Y-120635858D01*
X138609605Y-120650000D01*
X138623748Y-120664143D01*
X138444143Y-120843748D01*
X138430000Y-120829605D01*
X137645469Y-121614137D01*
X137712206Y-121854025D01*
X137960892Y-121970924D01*
X138227606Y-122037061D01*
X138502097Y-122049895D01*
X138755901Y-122011632D01*
X138755901Y-125075967D01*
X138752224Y-125113300D01*
X138755901Y-125150633D01*
X138766898Y-125262286D01*
X138775760Y-125291501D01*
X138810354Y-125405546D01*
X138880926Y-125537576D01*
X138952101Y-125624302D01*
X138975900Y-125653301D01*
X139004898Y-125677099D01*
X141200798Y-127873000D01*
X120127000Y-127873000D01*
X120127000Y-117260000D01*
X122971928Y-117260000D01*
X122971928Y-118960000D01*
X122984188Y-119084482D01*
X123020498Y-119204180D01*
X123079463Y-119314494D01*
X123158815Y-119411185D01*
X123255506Y-119490537D01*
X123365820Y-119549502D01*
X123438380Y-119571513D01*
X123306525Y-119703368D01*
X123144010Y-119946589D01*
X123032068Y-120216842D01*
X122975000Y-120503740D01*
X122975000Y-120796260D01*
X123032068Y-121083158D01*
X123144010Y-121353411D01*
X123306525Y-121596632D01*
X123513368Y-121803475D01*
X123756589Y-121965990D01*
X124026842Y-122077932D01*
X124313740Y-122135000D01*
X124606260Y-122135000D01*
X124893158Y-122077932D01*
X125163411Y-121965990D01*
X125406632Y-121803475D01*
X125613475Y-121596632D01*
X125738178Y-121410000D01*
X131951928Y-121410000D01*
X131964188Y-121534482D01*
X132000498Y-121654180D01*
X132059463Y-121764494D01*
X132138815Y-121861185D01*
X132235506Y-121940537D01*
X132345820Y-121999502D01*
X132465518Y-122035812D01*
X132590000Y-122048072D01*
X133064250Y-122045000D01*
X133223000Y-121886250D01*
X133223000Y-120777000D01*
X132113750Y-120777000D01*
X131955000Y-120935750D01*
X131951928Y-121410000D01*
X125738178Y-121410000D01*
X125775990Y-121353411D01*
X125887932Y-121083158D01*
X125945000Y-120796260D01*
X125945000Y-120503740D01*
X125887932Y-120216842D01*
X125775990Y-119946589D01*
X125613475Y-119703368D01*
X125481620Y-119571513D01*
X125554180Y-119549502D01*
X125664494Y-119490537D01*
X125761185Y-119411185D01*
X125840537Y-119314494D01*
X125899502Y-119204180D01*
X125935812Y-119084482D01*
X125948072Y-118960000D01*
X125948072Y-117260000D01*
X125935812Y-117135518D01*
X125899502Y-117015820D01*
X125840537Y-116905506D01*
X125761185Y-116808815D01*
X125664494Y-116729463D01*
X125554180Y-116670498D01*
X125434482Y-116634188D01*
X125310000Y-116621928D01*
X123610000Y-116621928D01*
X123485518Y-116634188D01*
X123365820Y-116670498D01*
X123255506Y-116729463D01*
X123158815Y-116808815D01*
X123079463Y-116905506D01*
X123020498Y-117015820D01*
X122984188Y-117135518D01*
X122971928Y-117260000D01*
X120127000Y-117260000D01*
X120127000Y-112819721D01*
X122325000Y-112819721D01*
X122325000Y-113240279D01*
X122407047Y-113652756D01*
X122567988Y-114041302D01*
X122801637Y-114390983D01*
X123099017Y-114688363D01*
X123448698Y-114922012D01*
X123837244Y-115082953D01*
X124249721Y-115165000D01*
X124670279Y-115165000D01*
X125082756Y-115082953D01*
X125471302Y-114922012D01*
X125820983Y-114688363D01*
X126118363Y-114390983D01*
X126352012Y-114041302D01*
X126512953Y-113652756D01*
X126595000Y-113240279D01*
X126595000Y-112819721D01*
X126512953Y-112407244D01*
X126352012Y-112018698D01*
X126118363Y-111669017D01*
X125820983Y-111371637D01*
X125471302Y-111137988D01*
X125082756Y-110977047D01*
X124670279Y-110895000D01*
X124249721Y-110895000D01*
X123837244Y-110977047D01*
X123448698Y-111137988D01*
X123099017Y-111371637D01*
X122801637Y-111669017D01*
X122567988Y-112018698D01*
X122407047Y-112407244D01*
X122325000Y-112819721D01*
X120127000Y-112819721D01*
X120127000Y-93000000D01*
X120124560Y-92975224D01*
X120117333Y-92951399D01*
X120105597Y-92929443D01*
X120089803Y-92910197D01*
X105127000Y-77947394D01*
X105127000Y-66108531D01*
X115349389Y-66108531D01*
X115391401Y-66398019D01*
X115489081Y-66673747D01*
X115562528Y-66811157D01*
X115811603Y-66888792D01*
X116660395Y-66040000D01*
X115811603Y-65191208D01*
X115562528Y-65268843D01*
X115436629Y-65532883D01*
X115364661Y-65816411D01*
X115349389Y-66108531D01*
X105127000Y-66108531D01*
X105127000Y-65011603D01*
X115991208Y-65011603D01*
X116840000Y-65860395D01*
X117688792Y-65011603D01*
X117611157Y-64762528D01*
X117347117Y-64636629D01*
X117063589Y-64564661D01*
X116771469Y-64549389D01*
X116481981Y-64591401D01*
X116206253Y-64689081D01*
X116068843Y-64762528D01*
X115991208Y-65011603D01*
X105127000Y-65011603D01*
X105127000Y-61511721D01*
X105815000Y-61511721D01*
X105815000Y-61932279D01*
X105897047Y-62344756D01*
X106057988Y-62733302D01*
X106291637Y-63082983D01*
X106589017Y-63380363D01*
X106938698Y-63614012D01*
X107327244Y-63774953D01*
X107739721Y-63857000D01*
X108160279Y-63857000D01*
X108572756Y-63774953D01*
X108961302Y-63614012D01*
X109310983Y-63380363D01*
X109608363Y-63082983D01*
X109681130Y-62974078D01*
X151655780Y-62974078D01*
X151655780Y-63187722D01*
X151697460Y-63397260D01*
X151779218Y-63594641D01*
X151897912Y-63772280D01*
X152048980Y-63923348D01*
X152226619Y-64042042D01*
X152424000Y-64123800D01*
X152633538Y-64165480D01*
X152847182Y-64165480D01*
X153056720Y-64123800D01*
X153254101Y-64042042D01*
X153431740Y-63923348D01*
X153582808Y-63772280D01*
X153701502Y-63594641D01*
X153783260Y-63397260D01*
X153824940Y-63187722D01*
X153824940Y-62974078D01*
X156055060Y-62974078D01*
X156055060Y-63187722D01*
X156096740Y-63397260D01*
X156178498Y-63594641D01*
X156297192Y-63772280D01*
X156448260Y-63923348D01*
X156625899Y-64042042D01*
X156823280Y-64123800D01*
X157032818Y-64165480D01*
X157246462Y-64165480D01*
X157456000Y-64123800D01*
X157653381Y-64042042D01*
X157831020Y-63923348D01*
X157982088Y-63772280D01*
X158100782Y-63594641D01*
X158182540Y-63397260D01*
X158224220Y-63187722D01*
X158224220Y-62974078D01*
X158193667Y-62820478D01*
X163921632Y-62820478D01*
X163991297Y-63008690D01*
X164105347Y-63194362D01*
X164253429Y-63354216D01*
X164429851Y-63482109D01*
X164627834Y-63573126D01*
X164839769Y-63623770D01*
X165013900Y-63475104D01*
X165013900Y-62649540D01*
X165267900Y-62649540D01*
X165267900Y-63475104D01*
X165442031Y-63623770D01*
X165653966Y-63573126D01*
X165851949Y-63482109D01*
X166028371Y-63354216D01*
X166176453Y-63194362D01*
X166290503Y-63008690D01*
X166360168Y-62820478D01*
X168921632Y-62820478D01*
X168991297Y-63008690D01*
X169105347Y-63194362D01*
X169253429Y-63354216D01*
X169429851Y-63482109D01*
X169627834Y-63573126D01*
X169839769Y-63623770D01*
X170013900Y-63475104D01*
X170013900Y-62649540D01*
X170267900Y-62649540D01*
X170267900Y-63475104D01*
X170442031Y-63623770D01*
X170653966Y-63573126D01*
X170851949Y-63482109D01*
X171028371Y-63354216D01*
X171176453Y-63194362D01*
X171290503Y-63008690D01*
X171360168Y-62820478D01*
X171233634Y-62649540D01*
X170267900Y-62649540D01*
X170013900Y-62649540D01*
X169048166Y-62649540D01*
X168921632Y-62820478D01*
X166360168Y-62820478D01*
X166233634Y-62649540D01*
X165267900Y-62649540D01*
X165013900Y-62649540D01*
X164048166Y-62649540D01*
X163921632Y-62820478D01*
X158193667Y-62820478D01*
X158182540Y-62764540D01*
X158100782Y-62567159D01*
X157982088Y-62389520D01*
X157831020Y-62238452D01*
X157810292Y-62224602D01*
X163921632Y-62224602D01*
X164048166Y-62395540D01*
X165013900Y-62395540D01*
X165013900Y-61569976D01*
X165267900Y-61569976D01*
X165267900Y-62395540D01*
X166233634Y-62395540D01*
X166360168Y-62224602D01*
X168921632Y-62224602D01*
X169048166Y-62395540D01*
X170013900Y-62395540D01*
X170013900Y-61569976D01*
X170267900Y-61569976D01*
X170267900Y-62395540D01*
X171233634Y-62395540D01*
X171360168Y-62224602D01*
X171290503Y-62036390D01*
X171280264Y-62019721D01*
X194715000Y-62019721D01*
X194715000Y-62440279D01*
X194797047Y-62852756D01*
X194957988Y-63241302D01*
X195191637Y-63590983D01*
X195489017Y-63888363D01*
X195838698Y-64122012D01*
X196227244Y-64282953D01*
X196639721Y-64365000D01*
X197060279Y-64365000D01*
X197472756Y-64282953D01*
X197861302Y-64122012D01*
X198210983Y-63888363D01*
X198508363Y-63590983D01*
X198742012Y-63241302D01*
X198902953Y-62852756D01*
X198985000Y-62440279D01*
X198985000Y-62019721D01*
X198902953Y-61607244D01*
X198742012Y-61218698D01*
X198508363Y-60869017D01*
X198210983Y-60571637D01*
X197861302Y-60337988D01*
X197472756Y-60177047D01*
X197060279Y-60095000D01*
X196639721Y-60095000D01*
X196227244Y-60177047D01*
X195838698Y-60337988D01*
X195489017Y-60571637D01*
X195191637Y-60869017D01*
X194957988Y-61218698D01*
X194797047Y-61607244D01*
X194715000Y-62019721D01*
X171280264Y-62019721D01*
X171176453Y-61850718D01*
X171028371Y-61690864D01*
X170851949Y-61562971D01*
X170653966Y-61471954D01*
X170442031Y-61421310D01*
X170267900Y-61569976D01*
X170013900Y-61569976D01*
X169839769Y-61421310D01*
X169627834Y-61471954D01*
X169429851Y-61562971D01*
X169253429Y-61690864D01*
X169105347Y-61850718D01*
X168991297Y-62036390D01*
X168921632Y-62224602D01*
X166360168Y-62224602D01*
X166290503Y-62036390D01*
X166176453Y-61850718D01*
X166028371Y-61690864D01*
X165851949Y-61562971D01*
X165653966Y-61471954D01*
X165442031Y-61421310D01*
X165267900Y-61569976D01*
X165013900Y-61569976D01*
X164839769Y-61421310D01*
X164627834Y-61471954D01*
X164429851Y-61562971D01*
X164253429Y-61690864D01*
X164105347Y-61850718D01*
X163991297Y-62036390D01*
X163921632Y-62224602D01*
X157810292Y-62224602D01*
X157653381Y-62119758D01*
X157456000Y-62038000D01*
X157246462Y-61996320D01*
X157032818Y-61996320D01*
X156823280Y-62038000D01*
X156625899Y-62119758D01*
X156448260Y-62238452D01*
X156297192Y-62389520D01*
X156178498Y-62567159D01*
X156096740Y-62764540D01*
X156055060Y-62974078D01*
X153824940Y-62974078D01*
X153783260Y-62764540D01*
X153701502Y-62567159D01*
X153582808Y-62389520D01*
X153431740Y-62238452D01*
X153254101Y-62119758D01*
X153056720Y-62038000D01*
X152847182Y-61996320D01*
X152633538Y-61996320D01*
X152424000Y-62038000D01*
X152226619Y-62119758D01*
X152048980Y-62238452D01*
X151897912Y-62389520D01*
X151779218Y-62567159D01*
X151697460Y-62764540D01*
X151655780Y-62974078D01*
X109681130Y-62974078D01*
X109842012Y-62733302D01*
X110002953Y-62344756D01*
X110085000Y-61932279D01*
X110085000Y-61511721D01*
X110002953Y-61099244D01*
X109842012Y-60710698D01*
X109608363Y-60361017D01*
X109310983Y-60063637D01*
X109140225Y-59949540D01*
X163005900Y-59949540D01*
X163005900Y-60224540D01*
X163052485Y-60443527D01*
X163140897Y-60649218D01*
X163267739Y-60833709D01*
X163428136Y-60989909D01*
X163615924Y-61111816D01*
X163839026Y-61191659D01*
X164013900Y-61065494D01*
X164013900Y-59949540D01*
X164267900Y-59949540D01*
X164267900Y-61065494D01*
X164442774Y-61191659D01*
X164665876Y-61111816D01*
X164853664Y-60989909D01*
X165014061Y-60833709D01*
X165140903Y-60649218D01*
X165229315Y-60443527D01*
X165275900Y-60224540D01*
X165275900Y-59949540D01*
X170005900Y-59949540D01*
X170005900Y-60224540D01*
X170052485Y-60443527D01*
X170140897Y-60649218D01*
X170267739Y-60833709D01*
X170428136Y-60989909D01*
X170615924Y-61111816D01*
X170839026Y-61191659D01*
X171013900Y-61065494D01*
X171013900Y-59949540D01*
X171267900Y-59949540D01*
X171267900Y-61065494D01*
X171442774Y-61191659D01*
X171665876Y-61111816D01*
X171853664Y-60989909D01*
X172014061Y-60833709D01*
X172140903Y-60649218D01*
X172229315Y-60443527D01*
X172275900Y-60224540D01*
X172275900Y-59949540D01*
X171267900Y-59949540D01*
X171013900Y-59949540D01*
X170005900Y-59949540D01*
X165275900Y-59949540D01*
X164267900Y-59949540D01*
X164013900Y-59949540D01*
X163005900Y-59949540D01*
X109140225Y-59949540D01*
X108961302Y-59829988D01*
X108572756Y-59669047D01*
X108160279Y-59587000D01*
X107739721Y-59587000D01*
X107327244Y-59669047D01*
X106938698Y-59829988D01*
X106589017Y-60063637D01*
X106291637Y-60361017D01*
X106057988Y-60710698D01*
X105897047Y-61099244D01*
X105815000Y-61511721D01*
X105127000Y-61511721D01*
X105127000Y-59127000D01*
X163084530Y-59127000D01*
X163052485Y-59201553D01*
%TA.AperFunction,Conductor*%
D24*
G36*
X163052485Y-59201553D02*
G01*
X163005900Y-59420540D01*
X163005900Y-59695540D01*
X164013900Y-59695540D01*
X164013900Y-59675540D01*
X164267900Y-59675540D01*
X164267900Y-59695540D01*
X165275900Y-59695540D01*
X165275900Y-59420540D01*
X165229315Y-59201553D01*
X165197270Y-59127000D01*
X170084530Y-59127000D01*
X170052485Y-59201553D01*
X170005900Y-59420540D01*
X170005900Y-59695540D01*
X171013900Y-59695540D01*
X171013900Y-59675540D01*
X171267900Y-59675540D01*
X171267900Y-59695540D01*
X172275900Y-59695540D01*
X172275900Y-59420540D01*
X172229315Y-59201553D01*
X172197270Y-59127000D01*
X199873000Y-59127000D01*
X199873000Y-77947394D01*
X184910197Y-92910197D01*
X184894403Y-92929443D01*
X184882667Y-92951399D01*
X184875440Y-92975224D01*
X184873000Y-93000000D01*
X184873000Y-93566752D01*
X184872175Y-93567757D01*
X184847689Y-93597593D01*
X184784083Y-93716593D01*
X184784082Y-93716594D01*
X184744912Y-93845717D01*
X184731687Y-93980000D01*
X184735001Y-94013649D01*
X184735000Y-126966353D01*
X184735000Y-127873000D01*
X160331801Y-127873000D01*
X160339801Y-127865000D01*
X160511788Y-127865000D01*
X160731067Y-127821383D01*
X160937624Y-127735824D01*
X161123520Y-127611612D01*
X161281612Y-127453520D01*
X161400000Y-127276340D01*
X161518388Y-127453520D01*
X161676480Y-127611612D01*
X161862376Y-127735824D01*
X162068933Y-127821383D01*
X162288212Y-127865000D01*
X162511788Y-127865000D01*
X162731067Y-127821383D01*
X162937624Y-127735824D01*
X163123520Y-127611612D01*
X163281612Y-127453520D01*
X163400000Y-127276340D01*
X163518388Y-127453520D01*
X163676480Y-127611612D01*
X163862376Y-127735824D01*
X164068933Y-127821383D01*
X164288212Y-127865000D01*
X164511788Y-127865000D01*
X164731067Y-127821383D01*
X164937624Y-127735824D01*
X165123520Y-127611612D01*
X165281612Y-127453520D01*
X165400000Y-127276340D01*
X165518388Y-127453520D01*
X165676480Y-127611612D01*
X165862376Y-127735824D01*
X166068933Y-127821383D01*
X166288212Y-127865000D01*
X166511788Y-127865000D01*
X166731067Y-127821383D01*
X166937624Y-127735824D01*
X167123520Y-127611612D01*
X167281612Y-127453520D01*
X167405824Y-127267624D01*
X167491383Y-127061067D01*
X167535000Y-126841788D01*
X167535000Y-126669801D01*
X170691004Y-123513798D01*
X170720001Y-123490001D01*
X170814974Y-123374276D01*
X170885546Y-123242247D01*
X170929003Y-123098986D01*
X170940000Y-122987333D01*
X170940000Y-122987324D01*
X170943676Y-122950001D01*
X170940000Y-122912678D01*
X170940000Y-121951702D01*
X170980892Y-121970924D01*
X171247606Y-122037061D01*
X171522097Y-122049895D01*
X171793817Y-122008931D01*
X172052326Y-121915744D01*
X172167794Y-121854025D01*
X172234531Y-121614137D01*
X173205469Y-121614137D01*
X173272206Y-121854025D01*
X173520892Y-121970924D01*
X173787606Y-122037061D01*
X174062097Y-122049895D01*
X174333817Y-122008931D01*
X174592326Y-121915744D01*
X174707794Y-121854025D01*
X174774531Y-121614137D01*
X173990000Y-120829605D01*
X173205469Y-121614137D01*
X172234531Y-121614137D01*
X171450000Y-120829605D01*
X171435858Y-120843748D01*
X171256253Y-120664143D01*
X171270395Y-120650000D01*
X171629605Y-120650000D01*
X172414137Y-121434531D01*
X172654025Y-121367794D01*
X172717332Y-121233118D01*
X172724256Y-121252326D01*
X172785975Y-121367794D01*
X173025863Y-121434531D01*
X173810395Y-120650000D01*
X174169605Y-120650000D01*
X174954137Y-121434531D01*
X175194025Y-121367794D01*
X175310924Y-121119108D01*
X175377061Y-120852394D01*
X175389895Y-120577903D01*
X175348931Y-120306183D01*
X175255744Y-120047674D01*
X175194025Y-119932206D01*
X174954137Y-119865469D01*
X174169605Y-120650000D01*
X173810395Y-120650000D01*
X173025863Y-119865469D01*
X172785975Y-119932206D01*
X172722668Y-120066882D01*
X172715744Y-120047674D01*
X172654025Y-119932206D01*
X172414137Y-119865469D01*
X171629605Y-120650000D01*
X171270395Y-120650000D01*
X171256253Y-120635858D01*
X171435858Y-120456252D01*
X171450000Y-120470395D01*
X172234531Y-119685863D01*
X172167794Y-119445975D01*
X172028293Y-119380400D01*
X172110780Y-119346233D01*
X172339261Y-119193567D01*
X172533567Y-118999261D01*
X172686233Y-118770780D01*
X172720000Y-118689260D01*
X172753767Y-118770780D01*
X172906433Y-118999261D01*
X173100739Y-119193567D01*
X173329220Y-119346233D01*
X173405501Y-119377830D01*
X173387674Y-119384256D01*
X173272206Y-119445975D01*
X173205469Y-119685863D01*
X173990000Y-120470395D01*
X174774531Y-119685863D01*
X174707794Y-119445975D01*
X174568293Y-119380400D01*
X174650780Y-119346233D01*
X174879261Y-119193567D01*
X175073567Y-118999261D01*
X175226233Y-118770780D01*
X175331391Y-118516907D01*
X175385000Y-118247396D01*
X175385000Y-117972604D01*
X175331391Y-117703093D01*
X175226233Y-117449220D01*
X175073567Y-117220739D01*
X174879261Y-117026433D01*
X174650780Y-116873767D01*
X174396907Y-116768609D01*
X174127396Y-116715000D01*
X173852604Y-116715000D01*
X173583093Y-116768609D01*
X173329220Y-116873767D01*
X173100739Y-117026433D01*
X172906433Y-117220739D01*
X172753767Y-117449220D01*
X172720000Y-117530740D01*
X172686233Y-117449220D01*
X172533567Y-117220739D01*
X172339261Y-117026433D01*
X172110780Y-116873767D01*
X171856907Y-116768609D01*
X171587396Y-116715000D01*
X171312604Y-116715000D01*
X171043093Y-116768609D01*
X170789220Y-116873767D01*
X170560739Y-117026433D01*
X170366433Y-117220739D01*
X170213767Y-117449220D01*
X170180000Y-117530740D01*
X170146233Y-117449220D01*
X169993567Y-117220739D01*
X169799261Y-117026433D01*
X169570780Y-116873767D01*
X169316907Y-116768609D01*
X169047396Y-116715000D01*
X168772604Y-116715000D01*
X168503093Y-116768609D01*
X168249220Y-116873767D01*
X168020739Y-117026433D01*
X167826433Y-117220739D01*
X167673767Y-117449220D01*
X167640000Y-117530740D01*
X167606233Y-117449220D01*
X167453567Y-117220739D01*
X167259261Y-117026433D01*
X167030780Y-116873767D01*
X166776907Y-116768609D01*
X166507396Y-116715000D01*
X166232604Y-116715000D01*
X165963093Y-116768609D01*
X165709220Y-116873767D01*
X165480739Y-117026433D01*
X165286433Y-117220739D01*
X165133767Y-117449220D01*
X165100000Y-117530740D01*
X165066233Y-117449220D01*
X164913567Y-117220739D01*
X164719261Y-117026433D01*
X164490780Y-116873767D01*
X164236907Y-116768609D01*
X163967396Y-116715000D01*
X163692604Y-116715000D01*
X163423093Y-116768609D01*
X163169220Y-116873767D01*
X162940739Y-117026433D01*
X162746433Y-117220739D01*
X162593767Y-117449220D01*
X162560000Y-117530740D01*
X162526233Y-117449220D01*
X162373567Y-117220739D01*
X162179261Y-117026433D01*
X162050000Y-116940064D01*
X162050000Y-112819721D01*
X179475000Y-112819721D01*
X179475000Y-113240279D01*
X179557047Y-113652756D01*
X179717988Y-114041302D01*
X179951637Y-114390983D01*
X180249017Y-114688363D01*
X180598698Y-114922012D01*
X180987244Y-115082953D01*
X181399721Y-115165000D01*
X181820279Y-115165000D01*
X182232756Y-115082953D01*
X182621302Y-114922012D01*
X182970983Y-114688363D01*
X183268363Y-114390983D01*
X183502012Y-114041302D01*
X183662953Y-113652756D01*
X183745000Y-113240279D01*
X183745000Y-112819721D01*
X183662953Y-112407244D01*
X183502012Y-112018698D01*
X183268363Y-111669017D01*
X182970983Y-111371637D01*
X182621302Y-111137988D01*
X182232756Y-110977047D01*
X181820279Y-110895000D01*
X181399721Y-110895000D01*
X180987244Y-110977047D01*
X180598698Y-111137988D01*
X180249017Y-111371637D01*
X179951637Y-111669017D01*
X179717988Y-112018698D01*
X179557047Y-112407244D01*
X179475000Y-112819721D01*
X162050000Y-112819721D01*
X162050000Y-111310933D01*
X162053677Y-111273600D01*
X162039003Y-111124614D01*
X161995546Y-110981353D01*
X161924974Y-110849324D01*
X161853799Y-110762597D01*
X161830001Y-110733599D01*
X161801003Y-110709801D01*
X157064653Y-105973452D01*
X157040568Y-105852371D01*
X156970086Y-105682211D01*
X156888457Y-105560044D01*
X163204702Y-99243800D01*
X168050865Y-99243800D01*
X168153511Y-99312386D01*
X168323671Y-99382868D01*
X168504311Y-99418800D01*
X168688489Y-99418800D01*
X168869129Y-99382868D01*
X169039289Y-99312386D01*
X169192428Y-99210062D01*
X169322662Y-99079828D01*
X169424986Y-98926689D01*
X169495468Y-98756529D01*
X169531400Y-98575889D01*
X169531400Y-98391711D01*
X169495468Y-98211071D01*
X169424986Y-98040911D01*
X169322662Y-97887772D01*
X169192428Y-97757538D01*
X169039289Y-97655214D01*
X168869129Y-97584732D01*
X168688489Y-97548800D01*
X168504311Y-97548800D01*
X168323671Y-97584732D01*
X168153511Y-97655214D01*
X168050865Y-97723800D01*
X162927233Y-97723800D01*
X162889900Y-97720123D01*
X162852567Y-97723800D01*
X162740914Y-97734797D01*
X162597653Y-97778254D01*
X162465624Y-97848826D01*
X162349899Y-97943799D01*
X162326101Y-97972797D01*
X153159003Y-107139896D01*
X153129999Y-107163699D01*
X153074871Y-107230874D01*
X153035026Y-107279424D01*
X152964455Y-107411453D01*
X152964454Y-107411454D01*
X152920997Y-107554715D01*
X152910000Y-107666368D01*
X152910000Y-107666378D01*
X152906324Y-107703700D01*
X152910000Y-107741022D01*
X152910001Y-116940063D01*
X152780739Y-117026433D01*
X152586433Y-117220739D01*
X152433767Y-117449220D01*
X152400000Y-117530740D01*
X152366233Y-117449220D01*
X152213567Y-117220739D01*
X152019261Y-117026433D01*
X151790780Y-116873767D01*
X151536907Y-116768609D01*
X151267396Y-116715000D01*
X150992604Y-116715000D01*
X150723093Y-116768609D01*
X150469220Y-116873767D01*
X150240739Y-117026433D01*
X150046433Y-117220739D01*
X149893767Y-117449220D01*
X149860000Y-117530740D01*
X149826233Y-117449220D01*
X149673567Y-117220739D01*
X149479261Y-117026433D01*
X149250780Y-116873767D01*
X148996907Y-116768609D01*
X148727396Y-116715000D01*
X148452604Y-116715000D01*
X148183093Y-116768609D01*
X147929220Y-116873767D01*
X147700739Y-117026433D01*
X147506433Y-117220739D01*
X147353767Y-117449220D01*
X147320000Y-117530740D01*
X147286233Y-117449220D01*
X147133567Y-117220739D01*
X146939261Y-117026433D01*
X146710780Y-116873767D01*
X146456907Y-116768609D01*
X146187396Y-116715000D01*
X145912604Y-116715000D01*
X145667500Y-116763754D01*
X145667500Y-110204012D01*
X146269918Y-109601595D01*
X146302729Y-109595068D01*
X146472889Y-109524586D01*
X146626028Y-109422262D01*
X146756262Y-109292028D01*
X146858586Y-109138889D01*
X146929068Y-108968729D01*
X146965000Y-108788089D01*
X146965000Y-108603911D01*
X146929068Y-108423271D01*
X146858586Y-108253111D01*
X146840000Y-108225295D01*
X146840000Y-106144212D01*
X147938618Y-105045595D01*
X147971429Y-105039068D01*
X148141589Y-104968586D01*
X148294728Y-104866262D01*
X148424962Y-104736028D01*
X148527286Y-104582889D01*
X148597768Y-104412729D01*
X148633700Y-104232089D01*
X148633700Y-104047911D01*
X148597768Y-103867271D01*
X148527286Y-103697111D01*
X148424962Y-103543972D01*
X148294728Y-103413738D01*
X148141589Y-103311414D01*
X147971429Y-103240932D01*
X147790789Y-103205000D01*
X147618502Y-103205000D01*
X151426649Y-99396853D01*
X151547729Y-99372768D01*
X151717889Y-99302286D01*
X151871028Y-99199962D01*
X152001262Y-99069728D01*
X152103586Y-98916589D01*
X152174068Y-98746429D01*
X152210000Y-98565789D01*
X152210000Y-98381611D01*
X152174068Y-98200971D01*
X152103586Y-98030811D01*
X152001262Y-97877672D01*
X151871028Y-97747438D01*
X151717889Y-97645114D01*
X151547729Y-97574632D01*
X151367089Y-97538700D01*
X151182911Y-97538700D01*
X151002271Y-97574632D01*
X150832111Y-97645114D01*
X150678972Y-97747438D01*
X150548738Y-97877672D01*
X150446414Y-98030811D01*
X150375932Y-98200971D01*
X150351847Y-98322051D01*
X140459003Y-108214896D01*
X140429999Y-108238699D01*
X140374871Y-108305874D01*
X140335026Y-108354424D01*
X140275900Y-108465040D01*
X140275900Y-99893223D01*
X140279576Y-99855900D01*
X140275900Y-99818577D01*
X140275900Y-99818567D01*
X140264903Y-99706914D01*
X140221446Y-99563653D01*
X140150875Y-99431625D01*
X140150874Y-99431623D01*
X140079699Y-99344897D01*
X140055901Y-99315899D01*
X140026904Y-99292102D01*
X139152753Y-98417951D01*
X139128668Y-98296871D01*
X139058186Y-98126711D01*
X138980002Y-98009700D01*
X140497303Y-96492399D01*
X140526301Y-96468601D01*
X140621274Y-96352876D01*
X140691846Y-96220847D01*
X140735303Y-96077586D01*
X140746300Y-95965933D01*
X140746300Y-95965924D01*
X140749976Y-95928601D01*
X140746300Y-95891278D01*
X140746300Y-81287001D01*
X143307104Y-83847806D01*
X143200938Y-83953972D01*
X143098614Y-84107111D01*
X143028132Y-84277271D01*
X142992200Y-84457911D01*
X142992200Y-84642089D01*
X143028132Y-84822729D01*
X143098614Y-84992889D01*
X143200938Y-85146028D01*
X143331172Y-85276262D01*
X143484311Y-85378586D01*
X143524725Y-85395326D01*
X154279447Y-96150049D01*
X154303532Y-96271129D01*
X154374014Y-96441289D01*
X154476338Y-96594428D01*
X154606572Y-96724662D01*
X154759711Y-96826986D01*
X154929871Y-96897468D01*
X155110511Y-96933400D01*
X155294689Y-96933400D01*
X155475329Y-96897468D01*
X155645489Y-96826986D01*
X155798628Y-96724662D01*
X155928862Y-96594428D01*
X155978875Y-96519577D01*
X156481401Y-97022103D01*
X156505199Y-97051101D01*
X156620924Y-97146074D01*
X156752953Y-97216646D01*
X156896214Y-97260103D01*
X157007867Y-97271100D01*
X157007876Y-97271100D01*
X157045199Y-97274776D01*
X157082522Y-97271100D01*
X158307565Y-97271100D01*
X158410211Y-97339686D01*
X158580371Y-97410168D01*
X158761011Y-97446100D01*
X158945189Y-97446100D01*
X159125829Y-97410168D01*
X159295989Y-97339686D01*
X159449128Y-97237362D01*
X159579362Y-97107128D01*
X159681686Y-96953989D01*
X159752168Y-96783829D01*
X159788100Y-96603189D01*
X159788100Y-96419011D01*
X159752168Y-96238371D01*
X159681686Y-96068211D01*
X159579362Y-95915072D01*
X159449128Y-95784838D01*
X159295989Y-95682514D01*
X159125829Y-95612032D01*
X158945189Y-95576100D01*
X158761011Y-95576100D01*
X158580371Y-95612032D01*
X158410211Y-95682514D01*
X158307565Y-95751100D01*
X157360002Y-95751100D01*
X147799428Y-86190527D01*
X147976043Y-86117371D01*
X148202886Y-85965799D01*
X148395799Y-85772886D01*
X148547371Y-85546043D01*
X148651775Y-85293989D01*
X148705000Y-85026411D01*
X148705000Y-84753589D01*
X148651775Y-84486011D01*
X148547371Y-84233957D01*
X148395799Y-84007114D01*
X148202886Y-83814201D01*
X147976043Y-83662629D01*
X147723989Y-83558225D01*
X147456411Y-83505000D01*
X147183589Y-83505000D01*
X147038635Y-83533833D01*
X144638700Y-81133899D01*
X144638700Y-81108935D01*
X144707286Y-81006289D01*
X144777768Y-80836129D01*
X144813700Y-80655489D01*
X144813700Y-80471311D01*
X144777768Y-80290671D01*
X144707286Y-80120511D01*
X144604962Y-79967372D01*
X144511179Y-79873589D01*
X145935000Y-79873589D01*
X145935000Y-80146411D01*
X145988225Y-80413989D01*
X146092629Y-80666043D01*
X146244201Y-80892886D01*
X146437114Y-81085799D01*
X146663957Y-81237371D01*
X146916011Y-81341775D01*
X147183589Y-81395000D01*
X147456411Y-81395000D01*
X147723989Y-81341775D01*
X147976043Y-81237371D01*
X148202886Y-81085799D01*
X148395799Y-80892886D01*
X148547371Y-80666043D01*
X148651775Y-80413989D01*
X148705000Y-80146411D01*
X148705000Y-79873589D01*
X148651775Y-79606011D01*
X148547371Y-79353957D01*
X148395799Y-79127114D01*
X148202886Y-78934201D01*
X147976043Y-78782629D01*
X147723989Y-78678225D01*
X147456411Y-78625000D01*
X147183589Y-78625000D01*
X146916011Y-78678225D01*
X146663957Y-78782629D01*
X146437114Y-78934201D01*
X146244201Y-79127114D01*
X146092629Y-79353957D01*
X145988225Y-79606011D01*
X145935000Y-79873589D01*
X144511179Y-79873589D01*
X144474728Y-79837138D01*
X144321589Y-79734814D01*
X144151429Y-79664332D01*
X143970789Y-79628400D01*
X143786611Y-79628400D01*
X143605971Y-79664332D01*
X143435811Y-79734814D01*
X143282672Y-79837138D01*
X143152438Y-79967372D01*
X143050114Y-80120511D01*
X142979632Y-80290671D01*
X142943700Y-80471311D01*
X142943700Y-80655489D01*
X142979632Y-80836129D01*
X143050114Y-81006289D01*
X143118700Y-81108935D01*
X143118700Y-81411378D01*
X143115024Y-81448700D01*
X143118700Y-81486022D01*
X143118700Y-81486032D01*
X143121297Y-81512395D01*
X140714204Y-79105303D01*
X140690401Y-79076299D01*
X140574676Y-78981326D01*
X140442647Y-78910754D01*
X140299386Y-78867297D01*
X140187733Y-78856300D01*
X140187722Y-78856300D01*
X140156011Y-78853177D01*
X140057889Y-78787614D01*
X139887729Y-78717132D01*
X139758229Y-78691372D01*
X139855861Y-78593740D01*
X153455000Y-78593740D01*
X153455000Y-78886260D01*
X153512068Y-79173158D01*
X153624010Y-79443411D01*
X153786525Y-79686632D01*
X153993368Y-79893475D01*
X154236589Y-80055990D01*
X154506842Y-80167932D01*
X154793740Y-80225000D01*
X155086260Y-80225000D01*
X155373158Y-80167932D01*
X155643411Y-80055990D01*
X155886632Y-79893475D01*
X156093475Y-79686632D01*
X156210000Y-79512240D01*
X156326525Y-79686632D01*
X156533368Y-79893475D01*
X156776589Y-80055990D01*
X157046842Y-80167932D01*
X157333740Y-80225000D01*
X157626260Y-80225000D01*
X157913158Y-80167932D01*
X158183411Y-80055990D01*
X158426632Y-79893475D01*
X158558487Y-79761620D01*
X158580498Y-79834180D01*
X158639463Y-79944494D01*
X158718815Y-80041185D01*
X158815506Y-80120537D01*
X158925820Y-80179502D01*
X159045518Y-80215812D01*
X159170000Y-80228072D01*
X160870000Y-80228072D01*
X160994482Y-80215812D01*
X161114180Y-80179502D01*
X161224494Y-80120537D01*
X161321185Y-80041185D01*
X161400537Y-79944494D01*
X161459502Y-79834180D01*
X161495812Y-79714482D01*
X161508072Y-79590000D01*
X161508072Y-79500000D01*
X171912701Y-79500000D01*
X171912700Y-86370078D01*
X171909024Y-86407400D01*
X171912700Y-86444722D01*
X171912700Y-86444732D01*
X171923697Y-86556385D01*
X171951799Y-86649026D01*
X171967154Y-86699646D01*
X172037726Y-86831676D01*
X172060745Y-86859724D01*
X172132699Y-86947401D01*
X172161703Y-86971204D01*
X172744013Y-87553515D01*
X172688815Y-87598815D01*
X172609463Y-87695506D01*
X172550498Y-87805820D01*
X172514188Y-87925518D01*
X172501928Y-88050000D01*
X172501928Y-89750000D01*
X172514188Y-89874482D01*
X172550498Y-89994180D01*
X172609463Y-90104494D01*
X172688815Y-90201185D01*
X172785506Y-90280537D01*
X172895820Y-90339502D01*
X173015518Y-90375812D01*
X173140000Y-90388072D01*
X174840000Y-90388072D01*
X174964482Y-90375812D01*
X175084180Y-90339502D01*
X175194494Y-90280537D01*
X175291185Y-90201185D01*
X175370537Y-90104494D01*
X175429502Y-89994180D01*
X175453966Y-89913534D01*
X175529731Y-89997588D01*
X175763080Y-90171641D01*
X176025901Y-90296825D01*
X176173110Y-90341476D01*
X176403000Y-90220155D01*
X176403000Y-89027000D01*
X176657000Y-89027000D01*
X176657000Y-90220155D01*
X176886890Y-90341476D01*
X177034099Y-90296825D01*
X177296920Y-90171641D01*
X177530269Y-89997588D01*
X177725178Y-89781355D01*
X177800000Y-89655745D01*
X177874822Y-89781355D01*
X178069731Y-89997588D01*
X178303080Y-90171641D01*
X178565901Y-90296825D01*
X178713110Y-90341476D01*
X178943000Y-90220155D01*
X178943000Y-89027000D01*
X176657000Y-89027000D01*
X176403000Y-89027000D01*
X176383000Y-89027000D01*
X176383000Y-88773000D01*
X176403000Y-88773000D01*
X176403000Y-87579845D01*
X176657000Y-87579845D01*
X176657000Y-88773000D01*
X178943000Y-88773000D01*
X178943000Y-87579845D01*
X178713110Y-87458524D01*
X178565901Y-87503175D01*
X178303080Y-87628359D01*
X178069731Y-87802412D01*
X177874822Y-88018645D01*
X177800000Y-88144255D01*
X177725178Y-88018645D01*
X177530269Y-87802412D01*
X177296920Y-87628359D01*
X177034099Y-87503175D01*
X176886890Y-87458524D01*
X176657000Y-87579845D01*
X176403000Y-87579845D01*
X176173110Y-87458524D01*
X176025901Y-87503175D01*
X175763080Y-87628359D01*
X175529731Y-87802412D01*
X175453966Y-87886466D01*
X175429502Y-87805820D01*
X175370537Y-87695506D01*
X175291185Y-87598815D01*
X175194494Y-87519463D01*
X175084180Y-87460498D01*
X174964482Y-87424188D01*
X174840000Y-87411928D01*
X174684575Y-87411928D01*
X174624974Y-87300424D01*
X174553799Y-87213697D01*
X174530001Y-87184699D01*
X174501003Y-87160901D01*
X173432700Y-86092599D01*
X173432700Y-78777332D01*
X173436377Y-78740000D01*
X173432700Y-78702667D01*
X173432700Y-71857501D01*
X176311928Y-68978274D01*
X176311928Y-69430000D01*
X176324188Y-69554482D01*
X176360498Y-69674180D01*
X176419463Y-69784494D01*
X176498815Y-69881185D01*
X176595506Y-69960537D01*
X176705820Y-70019502D01*
X176825518Y-70055812D01*
X176950000Y-70068072D01*
X176990000Y-70068072D01*
X176990001Y-83824902D01*
X176986081Y-83864700D01*
X177000108Y-84007114D01*
X177001721Y-84023488D01*
X177030908Y-84119703D01*
X177048038Y-84176173D01*
X177123251Y-84316889D01*
X177170356Y-84374286D01*
X177224473Y-84440228D01*
X177255383Y-84465595D01*
X180599840Y-87810053D01*
X180456525Y-87953368D01*
X180334805Y-88135534D01*
X180265178Y-88018645D01*
X180070269Y-87802412D01*
X179836920Y-87628359D01*
X179574099Y-87503175D01*
X179426890Y-87458524D01*
X179197000Y-87579845D01*
X179197000Y-88773000D01*
X179217000Y-88773000D01*
X179217000Y-89027000D01*
X179197000Y-89027000D01*
X179197000Y-90220155D01*
X179426890Y-90341476D01*
X179574099Y-90296825D01*
X179836920Y-90171641D01*
X180070269Y-89997588D01*
X180265178Y-89781355D01*
X180334805Y-89664466D01*
X180456525Y-89846632D01*
X180663368Y-90053475D01*
X180906589Y-90215990D01*
X181176842Y-90327932D01*
X181463740Y-90385000D01*
X181756260Y-90385000D01*
X182043158Y-90327932D01*
X182313411Y-90215990D01*
X182556632Y-90053475D01*
X182763475Y-89846632D01*
X182925990Y-89603411D01*
X183037932Y-89333158D01*
X183095000Y-89046260D01*
X183095000Y-88753740D01*
X183037932Y-88466842D01*
X182925990Y-88196589D01*
X182763475Y-87953368D01*
X182556632Y-87746525D01*
X182422142Y-87656662D01*
X182416445Y-87598815D01*
X182408280Y-87515912D01*
X182361963Y-87363227D01*
X182361963Y-87363226D01*
X182286749Y-87222511D01*
X182214943Y-87135015D01*
X182185528Y-87099172D01*
X182154618Y-87073805D01*
X178610000Y-83529188D01*
X178610000Y-70068072D01*
X178650000Y-70068072D01*
X178774482Y-70055812D01*
X178894180Y-70019502D01*
X179004494Y-69960537D01*
X179101185Y-69881185D01*
X179180537Y-69784494D01*
X179239502Y-69674180D01*
X179263966Y-69593534D01*
X179339731Y-69677588D01*
X179573080Y-69851641D01*
X179835901Y-69976825D01*
X179983110Y-70021476D01*
X180213000Y-69900155D01*
X180213000Y-68707000D01*
X180467000Y-68707000D01*
X180467000Y-69900155D01*
X180696890Y-70021476D01*
X180844099Y-69976825D01*
X181106920Y-69851641D01*
X181340269Y-69677588D01*
X181535178Y-69461355D01*
X181610000Y-69335745D01*
X181684822Y-69461355D01*
X181879731Y-69677588D01*
X182113080Y-69851641D01*
X182375901Y-69976825D01*
X182523110Y-70021476D01*
X182753000Y-69900155D01*
X182753000Y-68707000D01*
X180467000Y-68707000D01*
X180213000Y-68707000D01*
X180193000Y-68707000D01*
X180193000Y-68453000D01*
X180213000Y-68453000D01*
X180213000Y-68433000D01*
X180467000Y-68433000D01*
X180467000Y-68453000D01*
X182753000Y-68453000D01*
X182753000Y-68433000D01*
X183007000Y-68433000D01*
X183007000Y-68453000D01*
X183027000Y-68453000D01*
X183027000Y-68707000D01*
X183007000Y-68707000D01*
X183007000Y-69900155D01*
X183236890Y-70021476D01*
X183384099Y-69976825D01*
X183646920Y-69851641D01*
X183880269Y-69677588D01*
X184075178Y-69461355D01*
X184144805Y-69344466D01*
X184266525Y-69526632D01*
X184473368Y-69733475D01*
X184716589Y-69895990D01*
X184986842Y-70007932D01*
X185273740Y-70065000D01*
X185566260Y-70065000D01*
X185853158Y-70007932D01*
X186123411Y-69895990D01*
X186366632Y-69733475D01*
X186573475Y-69526632D01*
X186735990Y-69283411D01*
X186847932Y-69013158D01*
X186905000Y-68726260D01*
X186905000Y-68433740D01*
X186847932Y-68146842D01*
X186735990Y-67876589D01*
X186573475Y-67633368D01*
X186366632Y-67426525D01*
X186123411Y-67264010D01*
X185853158Y-67152068D01*
X185566260Y-67095000D01*
X185273740Y-67095000D01*
X184986842Y-67152068D01*
X184716589Y-67264010D01*
X184509371Y-67402469D01*
X184000603Y-66893702D01*
X183976801Y-66864699D01*
X183861076Y-66769726D01*
X183729047Y-66699154D01*
X183585786Y-66655697D01*
X183474133Y-66644700D01*
X183474122Y-66644700D01*
X183436800Y-66641024D01*
X183399478Y-66644700D01*
X176848025Y-66644700D01*
X176810700Y-66641024D01*
X176773375Y-66644700D01*
X176773367Y-66644700D01*
X176661714Y-66655697D01*
X176518453Y-66699154D01*
X176386424Y-66769726D01*
X176270699Y-66864699D01*
X176246901Y-66893697D01*
X172161698Y-70978901D01*
X172132700Y-71002699D01*
X172108902Y-71031697D01*
X172108901Y-71031698D01*
X172037726Y-71118424D01*
X171967154Y-71250454D01*
X171956827Y-71284500D01*
X171923698Y-71393714D01*
X171912701Y-71505367D01*
X171909024Y-71542700D01*
X171912701Y-71580032D01*
X171912700Y-77980000D01*
X161508072Y-77980000D01*
X161508072Y-77890000D01*
X161495812Y-77765518D01*
X161459502Y-77645820D01*
X161400537Y-77535506D01*
X161321185Y-77438815D01*
X161224494Y-77359463D01*
X161114180Y-77300498D01*
X160994482Y-77264188D01*
X160870000Y-77251928D01*
X159170000Y-77251928D01*
X159045518Y-77264188D01*
X158925820Y-77300498D01*
X158815506Y-77359463D01*
X158718815Y-77438815D01*
X158639463Y-77535506D01*
X158580498Y-77645820D01*
X158558487Y-77718380D01*
X158426632Y-77586525D01*
X158183411Y-77424010D01*
X157913158Y-77312068D01*
X157626260Y-77255000D01*
X157333740Y-77255000D01*
X157046842Y-77312068D01*
X156776589Y-77424010D01*
X156533368Y-77586525D01*
X156326525Y-77793368D01*
X156210000Y-77967760D01*
X156093475Y-77793368D01*
X155886632Y-77586525D01*
X155700000Y-77461822D01*
X155700000Y-72359301D01*
X157685849Y-70373453D01*
X157806929Y-70349368D01*
X157977089Y-70278886D01*
X158130228Y-70176562D01*
X158260462Y-70046328D01*
X158362786Y-69893189D01*
X158433268Y-69723029D01*
X158469200Y-69542389D01*
X158469200Y-69358211D01*
X158433268Y-69177571D01*
X158362786Y-69007411D01*
X158260462Y-68854272D01*
X158130228Y-68724038D01*
X157977089Y-68621714D01*
X157806929Y-68551232D01*
X157685849Y-68527147D01*
X157394737Y-68236036D01*
X157414200Y-68138189D01*
X157414200Y-67954011D01*
X157378268Y-67773371D01*
X157307786Y-67603211D01*
X157205462Y-67450072D01*
X157075228Y-67319838D01*
X156922089Y-67217514D01*
X156751929Y-67147032D01*
X156571289Y-67111100D01*
X156387111Y-67111100D01*
X156206471Y-67147032D01*
X156036311Y-67217514D01*
X155883172Y-67319838D01*
X155752938Y-67450072D01*
X155650614Y-67603211D01*
X155580132Y-67773371D01*
X155544200Y-67954011D01*
X155544200Y-68138189D01*
X155580132Y-68318829D01*
X155650614Y-68488989D01*
X155752938Y-68642128D01*
X155762898Y-68652088D01*
X155773374Y-68686624D01*
X155773654Y-68687546D01*
X155844226Y-68819576D01*
X155867204Y-68847574D01*
X155939199Y-68935301D01*
X155968202Y-68959104D01*
X156459398Y-69450300D01*
X154428998Y-71480701D01*
X154400000Y-71504499D01*
X154376202Y-71533497D01*
X154376201Y-71533498D01*
X154305026Y-71620224D01*
X154234454Y-71752254D01*
X154190998Y-71895515D01*
X154176324Y-72044500D01*
X154180001Y-72081832D01*
X154180000Y-77461821D01*
X153993368Y-77586525D01*
X153786525Y-77793368D01*
X153624010Y-78036589D01*
X153512068Y-78306842D01*
X153455000Y-78593740D01*
X139855861Y-78593740D01*
X140268404Y-78181198D01*
X140297401Y-78157401D01*
X140392374Y-78041676D01*
X140462946Y-77909647D01*
X140506403Y-77766386D01*
X140517400Y-77654733D01*
X140517400Y-77654725D01*
X140521076Y-77617400D01*
X140517400Y-77580075D01*
X140517400Y-74110935D01*
X140585986Y-74008289D01*
X140656468Y-73838129D01*
X140692400Y-73657489D01*
X140692400Y-73473311D01*
X140656468Y-73292671D01*
X140585986Y-73122511D01*
X140483662Y-72969372D01*
X140353428Y-72839138D01*
X140200289Y-72736814D01*
X140069826Y-72682775D01*
X144799449Y-67953153D01*
X144920529Y-67929068D01*
X145090689Y-67858586D01*
X145243828Y-67756262D01*
X145374062Y-67626028D01*
X145476386Y-67472889D01*
X145546868Y-67302729D01*
X145582800Y-67122089D01*
X145582800Y-66937911D01*
X145546868Y-66757271D01*
X145476386Y-66587111D01*
X145374062Y-66433972D01*
X145243828Y-66303738D01*
X145090689Y-66201414D01*
X144920529Y-66130932D01*
X144739889Y-66095000D01*
X144555711Y-66095000D01*
X144375071Y-66130932D01*
X144204911Y-66201414D01*
X144051772Y-66303738D01*
X143921538Y-66433972D01*
X143819214Y-66587111D01*
X143748732Y-66757271D01*
X143724647Y-66878351D01*
X138847700Y-71755299D01*
X138847700Y-68675501D01*
X140236649Y-67286553D01*
X140357729Y-67262468D01*
X140527889Y-67191986D01*
X140681028Y-67089662D01*
X140811262Y-66959428D01*
X140913586Y-66806289D01*
X140984068Y-66636129D01*
X141020000Y-66455489D01*
X141020000Y-66271311D01*
X140984068Y-66090671D01*
X140913586Y-65920511D01*
X140811262Y-65767372D01*
X140681028Y-65637138D01*
X140527889Y-65534814D01*
X140357729Y-65464332D01*
X140177089Y-65428400D01*
X139992911Y-65428400D01*
X139812271Y-65464332D01*
X139642111Y-65534814D01*
X139488972Y-65637138D01*
X139358738Y-65767372D01*
X139256414Y-65920511D01*
X139185932Y-66090671D01*
X139161847Y-66211751D01*
X137576703Y-67796896D01*
X137547699Y-67820699D01*
X137503584Y-67874454D01*
X137452726Y-67936424D01*
X137397537Y-68039674D01*
X137382154Y-68068454D01*
X137338697Y-68211715D01*
X137327700Y-68323368D01*
X137327700Y-68323378D01*
X137324024Y-68360700D01*
X137327700Y-68398022D01*
X137327700Y-75630698D01*
X127226004Y-65529003D01*
X127202201Y-65499999D01*
X127086476Y-65405026D01*
X126954447Y-65334454D01*
X126811186Y-65290997D01*
X126699533Y-65280000D01*
X126699522Y-65280000D01*
X126662200Y-65276324D01*
X126624878Y-65280000D01*
X120658178Y-65280000D01*
X120533475Y-65093368D01*
X120326632Y-64886525D01*
X120083411Y-64724010D01*
X119813158Y-64612068D01*
X119526260Y-64555000D01*
X119233740Y-64555000D01*
X118946842Y-64612068D01*
X118676589Y-64724010D01*
X118433368Y-64886525D01*
X118226525Y-65093368D01*
X118110689Y-65266729D01*
X117868397Y-65191208D01*
X117019605Y-66040000D01*
X117033748Y-66054143D01*
X116854143Y-66233748D01*
X116840000Y-66219605D01*
X115991208Y-67068397D01*
X116066729Y-67310689D01*
X115893368Y-67426525D01*
X115686525Y-67633368D01*
X115524010Y-67876589D01*
X115412068Y-68146842D01*
X115355000Y-68433740D01*
X115355000Y-68726260D01*
X115412068Y-69013158D01*
X115524010Y-69283411D01*
X115686525Y-69526632D01*
X115893368Y-69733475D01*
X116067760Y-69850000D01*
X115893368Y-69966525D01*
X115686525Y-70173368D01*
X115524010Y-70416589D01*
X115412068Y-70686842D01*
X115355000Y-70973740D01*
X115355000Y-71266260D01*
X115412068Y-71553158D01*
X115524010Y-71823411D01*
X115686525Y-72066632D01*
X115893368Y-72273475D01*
X116136589Y-72435990D01*
X116406842Y-72547932D01*
X116693740Y-72605000D01*
X116986260Y-72605000D01*
X117273158Y-72547932D01*
X117543411Y-72435990D01*
X117786632Y-72273475D01*
X117973715Y-72086392D01*
X118041595Y-72213386D01*
X118152038Y-72347962D01*
X118286614Y-72458405D01*
X118440150Y-72540472D01*
X118606746Y-72591008D01*
X118780000Y-72608072D01*
X119793271Y-72608072D01*
X125996205Y-78811008D01*
X126019999Y-78840001D01*
X126048992Y-78863795D01*
X126048996Y-78863799D01*
X126079686Y-78888985D01*
X126135724Y-78934974D01*
X126267753Y-79005546D01*
X126411014Y-79049003D01*
X126522667Y-79060000D01*
X126522676Y-79060000D01*
X126559999Y-79063676D01*
X126597322Y-79060000D01*
X128804665Y-79060000D01*
X128907311Y-79128586D01*
X129077471Y-79199068D01*
X129258111Y-79235000D01*
X129442289Y-79235000D01*
X129622929Y-79199068D01*
X129793089Y-79128586D01*
X129913637Y-79048039D01*
X130482631Y-79617033D01*
X130474500Y-79657911D01*
X130474500Y-79842089D01*
X130510432Y-80022729D01*
X130580914Y-80192889D01*
X130683238Y-80346028D01*
X130813472Y-80476262D01*
X130966611Y-80578586D01*
X131136771Y-80649068D01*
X131244001Y-80670398D01*
X122068798Y-89845601D01*
X122039800Y-89869399D01*
X122016002Y-89898397D01*
X122016001Y-89898398D01*
X121944826Y-89985124D01*
X121874254Y-90117154D01*
X121830798Y-90260415D01*
X121816124Y-90409400D01*
X121819801Y-90446732D01*
X121819800Y-94898664D01*
X121751214Y-95001311D01*
X121680732Y-95171471D01*
X121644800Y-95352111D01*
X121644800Y-95536289D01*
X121680732Y-95716929D01*
X121751214Y-95887089D01*
X121853538Y-96040228D01*
X121983772Y-96170462D01*
X122136911Y-96272786D01*
X122307071Y-96343268D01*
X122487711Y-96379200D01*
X122671889Y-96379200D01*
X122852529Y-96343268D01*
X123022689Y-96272786D01*
X123175828Y-96170462D01*
X123306062Y-96040228D01*
X123408386Y-95887089D01*
X123478868Y-95716929D01*
X123514800Y-95536289D01*
X123514800Y-95352111D01*
X123478868Y-95171471D01*
X123408386Y-95001311D01*
X123339800Y-94898665D01*
X123339800Y-90724201D01*
X125256388Y-88807613D01*
X125250000Y-88872468D01*
X125250000Y-88872478D01*
X125246324Y-88909800D01*
X125250000Y-88947122D01*
X125250001Y-101445563D01*
X125181414Y-101548211D01*
X125110932Y-101718371D01*
X125075000Y-101899011D01*
X125075000Y-102083189D01*
X125110932Y-102263829D01*
X125181414Y-102433989D01*
X125283738Y-102587128D01*
X125413972Y-102717362D01*
X125567111Y-102819686D01*
X125737271Y-102890168D01*
X125917911Y-102926100D01*
X126102089Y-102926100D01*
X126282729Y-102890168D01*
X126452889Y-102819686D01*
X126606028Y-102717362D01*
X126736262Y-102587128D01*
X126838586Y-102433989D01*
X126909068Y-102263829D01*
X126945000Y-102083189D01*
X126945000Y-101899011D01*
X126909068Y-101718371D01*
X126838586Y-101548211D01*
X126770000Y-101445565D01*
X126770000Y-89224601D01*
X130449500Y-85545101D01*
X130449501Y-94949263D01*
X130380914Y-95051911D01*
X130310432Y-95222071D01*
X130274500Y-95402711D01*
X130274500Y-95586889D01*
X130310432Y-95767529D01*
X130380914Y-95937689D01*
X130483238Y-96090828D01*
X130613472Y-96221062D01*
X130766611Y-96323386D01*
X130936771Y-96393868D01*
X131117411Y-96429800D01*
X131301589Y-96429800D01*
X131482229Y-96393868D01*
X131652389Y-96323386D01*
X131805528Y-96221062D01*
X131935762Y-96090828D01*
X132038086Y-95937689D01*
X132108568Y-95767529D01*
X132144500Y-95586889D01*
X132144500Y-95402711D01*
X132108568Y-95222071D01*
X132038086Y-95051911D01*
X131969500Y-94949265D01*
X131969500Y-88219000D01*
X132020289Y-88219000D01*
X132200929Y-88183068D01*
X132371089Y-88112586D01*
X132473735Y-88044000D01*
X135477078Y-88044000D01*
X135514400Y-88047676D01*
X135551722Y-88044000D01*
X135551733Y-88044000D01*
X135663386Y-88033003D01*
X135806647Y-87989546D01*
X135938676Y-87918974D01*
X136054401Y-87824001D01*
X136078204Y-87794997D01*
X138240332Y-85632869D01*
X138260932Y-85736429D01*
X138331414Y-85906589D01*
X138433738Y-86059728D01*
X138563972Y-86189962D01*
X138717111Y-86292286D01*
X138887271Y-86362768D01*
X139067911Y-86398700D01*
X139226300Y-86398700D01*
X139226301Y-95613797D01*
X133225021Y-101615078D01*
X133098911Y-101667314D01*
X132945772Y-101769638D01*
X132815538Y-101899872D01*
X132713214Y-102053011D01*
X132642732Y-102223171D01*
X132606800Y-102403811D01*
X132606800Y-102587989D01*
X132642732Y-102768629D01*
X132713214Y-102938789D01*
X132815538Y-103091928D01*
X132945772Y-103222162D01*
X133098911Y-103324486D01*
X133269071Y-103394968D01*
X133449711Y-103430900D01*
X133633889Y-103430900D01*
X133814529Y-103394968D01*
X133984689Y-103324486D01*
X134137828Y-103222162D01*
X134268062Y-103091928D01*
X134370386Y-102938789D01*
X134440868Y-102768629D01*
X134476800Y-102587989D01*
X134476800Y-102512901D01*
X137669700Y-99320002D01*
X137786711Y-99398186D01*
X137956871Y-99468668D01*
X138077951Y-99492753D01*
X138755900Y-100170702D01*
X138755901Y-116752496D01*
X138567396Y-116715000D01*
X138292604Y-116715000D01*
X138023093Y-116768609D01*
X137769220Y-116873767D01*
X137540739Y-117026433D01*
X137346433Y-117220739D01*
X137193767Y-117449220D01*
X137160000Y-117530740D01*
X137126233Y-117449220D01*
X136973567Y-117220739D01*
X136779261Y-117026433D01*
X136550780Y-116873767D01*
X136296907Y-116768609D01*
X136027396Y-116715000D01*
X135752604Y-116715000D01*
X135483093Y-116768609D01*
X135229220Y-116873767D01*
X135000739Y-117026433D01*
X134806433Y-117220739D01*
X134653767Y-117449220D01*
X134620000Y-117530740D01*
X134586233Y-117449220D01*
X134433567Y-117220739D01*
X134239261Y-117026433D01*
X134010780Y-116873767D01*
X133756907Y-116768609D01*
X133487396Y-116715000D01*
X133212604Y-116715000D01*
X132943093Y-116768609D01*
X132689220Y-116873767D01*
X132460739Y-117026433D01*
X132266433Y-117220739D01*
X132113767Y-117449220D01*
X132008609Y-117703093D01*
X131955000Y-117972604D01*
X131955000Y-118247396D01*
X132008609Y-118516907D01*
X132113767Y-118770780D01*
X132266433Y-118999261D01*
X132460739Y-119193567D01*
X132553467Y-119255526D01*
X132465518Y-119264188D01*
X132345820Y-119300498D01*
X132235506Y-119359463D01*
X132138815Y-119438815D01*
X132059463Y-119535506D01*
X132000498Y-119645820D01*
X131964188Y-119765518D01*
X131951928Y-119890000D01*
X131955000Y-120364250D01*
X132113750Y-120523000D01*
X133223000Y-120523000D01*
X133223000Y-120503000D01*
X133477000Y-120503000D01*
X133477000Y-120523000D01*
X133497000Y-120523000D01*
X133497000Y-120777000D01*
X133477000Y-120777000D01*
X133477000Y-121886250D01*
X133635750Y-122045000D01*
X134110000Y-122048072D01*
X134234482Y-122035812D01*
X134354180Y-121999502D01*
X134464494Y-121940537D01*
X134561185Y-121861185D01*
X134640537Y-121764494D01*
X134699502Y-121654180D01*
X134711648Y-121614137D01*
X135105469Y-121614137D01*
X135172206Y-121854025D01*
X135420892Y-121970924D01*
X135687606Y-122037061D01*
X135962097Y-122049895D01*
X136233817Y-122008931D01*
X136492326Y-121915744D01*
X136607794Y-121854025D01*
X136674531Y-121614137D01*
X135890000Y-120829605D01*
X135105469Y-121614137D01*
X134711648Y-121614137D01*
X134735812Y-121534482D01*
X134748072Y-121410000D01*
X134747910Y-121385024D01*
X134925863Y-121434531D01*
X135710395Y-120650000D01*
X136069605Y-120650000D01*
X136854137Y-121434531D01*
X137094025Y-121367794D01*
X137157332Y-121233118D01*
X137164256Y-121252326D01*
X137225975Y-121367794D01*
X137465863Y-121434531D01*
X138250395Y-120650000D01*
X137465863Y-119865469D01*
X137225975Y-119932206D01*
X137162668Y-120066882D01*
X137155744Y-120047674D01*
X137094025Y-119932206D01*
X136854137Y-119865469D01*
X136069605Y-120650000D01*
X135710395Y-120650000D01*
X134925863Y-119865469D01*
X134747910Y-119914976D01*
X134748072Y-119890000D01*
X134735812Y-119765518D01*
X134699502Y-119645820D01*
X134640537Y-119535506D01*
X134561185Y-119438815D01*
X134464494Y-119359463D01*
X134354180Y-119300498D01*
X134234482Y-119264188D01*
X134146533Y-119255526D01*
X134239261Y-119193567D01*
X134433567Y-118999261D01*
X134586233Y-118770780D01*
X134620000Y-118689260D01*
X134653767Y-118770780D01*
X134806433Y-118999261D01*
X135000739Y-119193567D01*
X135229220Y-119346233D01*
X135305501Y-119377830D01*
X135287674Y-119384256D01*
X135172206Y-119445975D01*
X135105469Y-119685863D01*
X135890000Y-120470395D01*
X136674531Y-119685863D01*
X136607794Y-119445975D01*
X136468293Y-119380400D01*
X136550780Y-119346233D01*
X136779261Y-119193567D01*
X136973567Y-118999261D01*
X137126233Y-118770780D01*
X137160000Y-118689260D01*
X137193767Y-118770780D01*
X137346433Y-118999261D01*
X137540739Y-119193567D01*
X137769220Y-119346233D01*
X137845501Y-119377830D01*
X137827674Y-119384256D01*
X137712206Y-119445975D01*
X137645469Y-119685863D01*
X138430000Y-120470395D01*
X138444143Y-120456253D01*
X138623748Y-120635858D01*
X138609605Y-120650000D01*
X138623748Y-120664143D01*
X138444143Y-120843748D01*
X138430000Y-120829605D01*
X137645469Y-121614137D01*
X137712206Y-121854025D01*
X137960892Y-121970924D01*
X138227606Y-122037061D01*
X138502097Y-122049895D01*
X138755901Y-122011632D01*
X138755901Y-125075967D01*
X138752224Y-125113300D01*
X138755901Y-125150633D01*
X138766898Y-125262286D01*
X138775760Y-125291501D01*
X138810354Y-125405546D01*
X138880926Y-125537576D01*
X138952101Y-125624302D01*
X138975900Y-125653301D01*
X139004898Y-125677099D01*
X141200798Y-127873000D01*
X120127000Y-127873000D01*
X120127000Y-117260000D01*
X122971928Y-117260000D01*
X122971928Y-118960000D01*
X122984188Y-119084482D01*
X123020498Y-119204180D01*
X123079463Y-119314494D01*
X123158815Y-119411185D01*
X123255506Y-119490537D01*
X123365820Y-119549502D01*
X123438380Y-119571513D01*
X123306525Y-119703368D01*
X123144010Y-119946589D01*
X123032068Y-120216842D01*
X122975000Y-120503740D01*
X122975000Y-120796260D01*
X123032068Y-121083158D01*
X123144010Y-121353411D01*
X123306525Y-121596632D01*
X123513368Y-121803475D01*
X123756589Y-121965990D01*
X124026842Y-122077932D01*
X124313740Y-122135000D01*
X124606260Y-122135000D01*
X124893158Y-122077932D01*
X125163411Y-121965990D01*
X125406632Y-121803475D01*
X125613475Y-121596632D01*
X125738178Y-121410000D01*
X131951928Y-121410000D01*
X131964188Y-121534482D01*
X132000498Y-121654180D01*
X132059463Y-121764494D01*
X132138815Y-121861185D01*
X132235506Y-121940537D01*
X132345820Y-121999502D01*
X132465518Y-122035812D01*
X132590000Y-122048072D01*
X133064250Y-122045000D01*
X133223000Y-121886250D01*
X133223000Y-120777000D01*
X132113750Y-120777000D01*
X131955000Y-120935750D01*
X131951928Y-121410000D01*
X125738178Y-121410000D01*
X125775990Y-121353411D01*
X125887932Y-121083158D01*
X125945000Y-120796260D01*
X125945000Y-120503740D01*
X125887932Y-120216842D01*
X125775990Y-119946589D01*
X125613475Y-119703368D01*
X125481620Y-119571513D01*
X125554180Y-119549502D01*
X125664494Y-119490537D01*
X125761185Y-119411185D01*
X125840537Y-119314494D01*
X125899502Y-119204180D01*
X125935812Y-119084482D01*
X125948072Y-118960000D01*
X125948072Y-117260000D01*
X125935812Y-117135518D01*
X125899502Y-117015820D01*
X125840537Y-116905506D01*
X125761185Y-116808815D01*
X125664494Y-116729463D01*
X125554180Y-116670498D01*
X125434482Y-116634188D01*
X125310000Y-116621928D01*
X123610000Y-116621928D01*
X123485518Y-116634188D01*
X123365820Y-116670498D01*
X123255506Y-116729463D01*
X123158815Y-116808815D01*
X123079463Y-116905506D01*
X123020498Y-117015820D01*
X122984188Y-117135518D01*
X122971928Y-117260000D01*
X120127000Y-117260000D01*
X120127000Y-112819721D01*
X122325000Y-112819721D01*
X122325000Y-113240279D01*
X122407047Y-113652756D01*
X122567988Y-114041302D01*
X122801637Y-114390983D01*
X123099017Y-114688363D01*
X123448698Y-114922012D01*
X123837244Y-115082953D01*
X124249721Y-115165000D01*
X124670279Y-115165000D01*
X125082756Y-115082953D01*
X125471302Y-114922012D01*
X125820983Y-114688363D01*
X126118363Y-114390983D01*
X126352012Y-114041302D01*
X126512953Y-113652756D01*
X126595000Y-113240279D01*
X126595000Y-112819721D01*
X126512953Y-112407244D01*
X126352012Y-112018698D01*
X126118363Y-111669017D01*
X125820983Y-111371637D01*
X125471302Y-111137988D01*
X125082756Y-110977047D01*
X124670279Y-110895000D01*
X124249721Y-110895000D01*
X123837244Y-110977047D01*
X123448698Y-111137988D01*
X123099017Y-111371637D01*
X122801637Y-111669017D01*
X122567988Y-112018698D01*
X122407047Y-112407244D01*
X122325000Y-112819721D01*
X120127000Y-112819721D01*
X120127000Y-93000000D01*
X120124560Y-92975224D01*
X120117333Y-92951399D01*
X120105597Y-92929443D01*
X120089803Y-92910197D01*
X105127000Y-77947394D01*
X105127000Y-66108531D01*
X115349389Y-66108531D01*
X115391401Y-66398019D01*
X115489081Y-66673747D01*
X115562528Y-66811157D01*
X115811603Y-66888792D01*
X116660395Y-66040000D01*
X115811603Y-65191208D01*
X115562528Y-65268843D01*
X115436629Y-65532883D01*
X115364661Y-65816411D01*
X115349389Y-66108531D01*
X105127000Y-66108531D01*
X105127000Y-65011603D01*
X115991208Y-65011603D01*
X116840000Y-65860395D01*
X117688792Y-65011603D01*
X117611157Y-64762528D01*
X117347117Y-64636629D01*
X117063589Y-64564661D01*
X116771469Y-64549389D01*
X116481981Y-64591401D01*
X116206253Y-64689081D01*
X116068843Y-64762528D01*
X115991208Y-65011603D01*
X105127000Y-65011603D01*
X105127000Y-61511721D01*
X105815000Y-61511721D01*
X105815000Y-61932279D01*
X105897047Y-62344756D01*
X106057988Y-62733302D01*
X106291637Y-63082983D01*
X106589017Y-63380363D01*
X106938698Y-63614012D01*
X107327244Y-63774953D01*
X107739721Y-63857000D01*
X108160279Y-63857000D01*
X108572756Y-63774953D01*
X108961302Y-63614012D01*
X109310983Y-63380363D01*
X109608363Y-63082983D01*
X109681130Y-62974078D01*
X151655780Y-62974078D01*
X151655780Y-63187722D01*
X151697460Y-63397260D01*
X151779218Y-63594641D01*
X151897912Y-63772280D01*
X152048980Y-63923348D01*
X152226619Y-64042042D01*
X152424000Y-64123800D01*
X152633538Y-64165480D01*
X152847182Y-64165480D01*
X153056720Y-64123800D01*
X153254101Y-64042042D01*
X153431740Y-63923348D01*
X153582808Y-63772280D01*
X153701502Y-63594641D01*
X153783260Y-63397260D01*
X153824940Y-63187722D01*
X153824940Y-62974078D01*
X156055060Y-62974078D01*
X156055060Y-63187722D01*
X156096740Y-63397260D01*
X156178498Y-63594641D01*
X156297192Y-63772280D01*
X156448260Y-63923348D01*
X156625899Y-64042042D01*
X156823280Y-64123800D01*
X157032818Y-64165480D01*
X157246462Y-64165480D01*
X157456000Y-64123800D01*
X157653381Y-64042042D01*
X157831020Y-63923348D01*
X157982088Y-63772280D01*
X158100782Y-63594641D01*
X158182540Y-63397260D01*
X158224220Y-63187722D01*
X158224220Y-62974078D01*
X158193667Y-62820478D01*
X163921632Y-62820478D01*
X163991297Y-63008690D01*
X164105347Y-63194362D01*
X164253429Y-63354216D01*
X164429851Y-63482109D01*
X164627834Y-63573126D01*
X164839769Y-63623770D01*
X165013900Y-63475104D01*
X165013900Y-62649540D01*
X165267900Y-62649540D01*
X165267900Y-63475104D01*
X165442031Y-63623770D01*
X165653966Y-63573126D01*
X165851949Y-63482109D01*
X166028371Y-63354216D01*
X166176453Y-63194362D01*
X166290503Y-63008690D01*
X166360168Y-62820478D01*
X168921632Y-62820478D01*
X168991297Y-63008690D01*
X169105347Y-63194362D01*
X169253429Y-63354216D01*
X169429851Y-63482109D01*
X169627834Y-63573126D01*
X169839769Y-63623770D01*
X170013900Y-63475104D01*
X170013900Y-62649540D01*
X170267900Y-62649540D01*
X170267900Y-63475104D01*
X170442031Y-63623770D01*
X170653966Y-63573126D01*
X170851949Y-63482109D01*
X171028371Y-63354216D01*
X171176453Y-63194362D01*
X171290503Y-63008690D01*
X171360168Y-62820478D01*
X171233634Y-62649540D01*
X170267900Y-62649540D01*
X170013900Y-62649540D01*
X169048166Y-62649540D01*
X168921632Y-62820478D01*
X166360168Y-62820478D01*
X166233634Y-62649540D01*
X165267900Y-62649540D01*
X165013900Y-62649540D01*
X164048166Y-62649540D01*
X163921632Y-62820478D01*
X158193667Y-62820478D01*
X158182540Y-62764540D01*
X158100782Y-62567159D01*
X157982088Y-62389520D01*
X157831020Y-62238452D01*
X157810292Y-62224602D01*
X163921632Y-62224602D01*
X164048166Y-62395540D01*
X165013900Y-62395540D01*
X165013900Y-61569976D01*
X165267900Y-61569976D01*
X165267900Y-62395540D01*
X166233634Y-62395540D01*
X166360168Y-62224602D01*
X168921632Y-62224602D01*
X169048166Y-62395540D01*
X170013900Y-62395540D01*
X170013900Y-61569976D01*
X170267900Y-61569976D01*
X170267900Y-62395540D01*
X171233634Y-62395540D01*
X171360168Y-62224602D01*
X171290503Y-62036390D01*
X171280264Y-62019721D01*
X194715000Y-62019721D01*
X194715000Y-62440279D01*
X194797047Y-62852756D01*
X194957988Y-63241302D01*
X195191637Y-63590983D01*
X195489017Y-63888363D01*
X195838698Y-64122012D01*
X196227244Y-64282953D01*
X196639721Y-64365000D01*
X197060279Y-64365000D01*
X197472756Y-64282953D01*
X197861302Y-64122012D01*
X198210983Y-63888363D01*
X198508363Y-63590983D01*
X198742012Y-63241302D01*
X198902953Y-62852756D01*
X198985000Y-62440279D01*
X198985000Y-62019721D01*
X198902953Y-61607244D01*
X198742012Y-61218698D01*
X198508363Y-60869017D01*
X198210983Y-60571637D01*
X197861302Y-60337988D01*
X197472756Y-60177047D01*
X197060279Y-60095000D01*
X196639721Y-60095000D01*
X196227244Y-60177047D01*
X195838698Y-60337988D01*
X195489017Y-60571637D01*
X195191637Y-60869017D01*
X194957988Y-61218698D01*
X194797047Y-61607244D01*
X194715000Y-62019721D01*
X171280264Y-62019721D01*
X171176453Y-61850718D01*
X171028371Y-61690864D01*
X170851949Y-61562971D01*
X170653966Y-61471954D01*
X170442031Y-61421310D01*
X170267900Y-61569976D01*
X170013900Y-61569976D01*
X169839769Y-61421310D01*
X169627834Y-61471954D01*
X169429851Y-61562971D01*
X169253429Y-61690864D01*
X169105347Y-61850718D01*
X168991297Y-62036390D01*
X168921632Y-62224602D01*
X166360168Y-62224602D01*
X166290503Y-62036390D01*
X166176453Y-61850718D01*
X166028371Y-61690864D01*
X165851949Y-61562971D01*
X165653966Y-61471954D01*
X165442031Y-61421310D01*
X165267900Y-61569976D01*
X165013900Y-61569976D01*
X164839769Y-61421310D01*
X164627834Y-61471954D01*
X164429851Y-61562971D01*
X164253429Y-61690864D01*
X164105347Y-61850718D01*
X163991297Y-62036390D01*
X163921632Y-62224602D01*
X157810292Y-62224602D01*
X157653381Y-62119758D01*
X157456000Y-62038000D01*
X157246462Y-61996320D01*
X157032818Y-61996320D01*
X156823280Y-62038000D01*
X156625899Y-62119758D01*
X156448260Y-62238452D01*
X156297192Y-62389520D01*
X156178498Y-62567159D01*
X156096740Y-62764540D01*
X156055060Y-62974078D01*
X153824940Y-62974078D01*
X153783260Y-62764540D01*
X153701502Y-62567159D01*
X153582808Y-62389520D01*
X153431740Y-62238452D01*
X153254101Y-62119758D01*
X153056720Y-62038000D01*
X152847182Y-61996320D01*
X152633538Y-61996320D01*
X152424000Y-62038000D01*
X152226619Y-62119758D01*
X152048980Y-62238452D01*
X151897912Y-62389520D01*
X151779218Y-62567159D01*
X151697460Y-62764540D01*
X151655780Y-62974078D01*
X109681130Y-62974078D01*
X109842012Y-62733302D01*
X110002953Y-62344756D01*
X110085000Y-61932279D01*
X110085000Y-61511721D01*
X110002953Y-61099244D01*
X109842012Y-60710698D01*
X109608363Y-60361017D01*
X109310983Y-60063637D01*
X109140225Y-59949540D01*
X163005900Y-59949540D01*
X163005900Y-60224540D01*
X163052485Y-60443527D01*
X163140897Y-60649218D01*
X163267739Y-60833709D01*
X163428136Y-60989909D01*
X163615924Y-61111816D01*
X163839026Y-61191659D01*
X164013900Y-61065494D01*
X164013900Y-59949540D01*
X164267900Y-59949540D01*
X164267900Y-61065494D01*
X164442774Y-61191659D01*
X164665876Y-61111816D01*
X164853664Y-60989909D01*
X165014061Y-60833709D01*
X165140903Y-60649218D01*
X165229315Y-60443527D01*
X165275900Y-60224540D01*
X165275900Y-59949540D01*
X170005900Y-59949540D01*
X170005900Y-60224540D01*
X170052485Y-60443527D01*
X170140897Y-60649218D01*
X170267739Y-60833709D01*
X170428136Y-60989909D01*
X170615924Y-61111816D01*
X170839026Y-61191659D01*
X171013900Y-61065494D01*
X171013900Y-59949540D01*
X171267900Y-59949540D01*
X171267900Y-61065494D01*
X171442774Y-61191659D01*
X171665876Y-61111816D01*
X171853664Y-60989909D01*
X172014061Y-60833709D01*
X172140903Y-60649218D01*
X172229315Y-60443527D01*
X172275900Y-60224540D01*
X172275900Y-59949540D01*
X171267900Y-59949540D01*
X171013900Y-59949540D01*
X170005900Y-59949540D01*
X165275900Y-59949540D01*
X164267900Y-59949540D01*
X164013900Y-59949540D01*
X163005900Y-59949540D01*
X109140225Y-59949540D01*
X108961302Y-59829988D01*
X108572756Y-59669047D01*
X108160279Y-59587000D01*
X107739721Y-59587000D01*
X107327244Y-59669047D01*
X106938698Y-59829988D01*
X106589017Y-60063637D01*
X106291637Y-60361017D01*
X106057988Y-60710698D01*
X105897047Y-61099244D01*
X105815000Y-61511721D01*
X105127000Y-61511721D01*
X105127000Y-59127000D01*
X163084530Y-59127000D01*
X163052485Y-59201553D01*
G37*
%TD.AperFunction*%
D23*
X161800000Y-123665703D02*
X161759174Y-123647542D01*
X161541095Y-123598269D01*
X161317594Y-123592489D01*
X161097260Y-123630423D01*
X160888560Y-123710613D01*
X160836550Y-123738412D01*
X160801439Y-123951834D01*
X161400000Y-124550395D01*
X161414143Y-124536253D01*
X161557294Y-124679404D01*
X160620145Y-125616553D01*
X160511788Y-125595000D01*
X160288212Y-125595000D01*
X160068933Y-125638617D01*
X159970384Y-125679437D01*
X159998561Y-125508166D01*
X159400000Y-124909605D01*
X159385858Y-124923748D01*
X159206253Y-124744143D01*
X159220395Y-124730000D01*
X159579605Y-124730000D01*
X160178166Y-125328561D01*
X160391588Y-125293450D01*
X160399230Y-125276271D01*
X160408412Y-125293450D01*
X160621834Y-125328561D01*
X161220395Y-124730000D01*
X160621834Y-124131439D01*
X160408412Y-124166550D01*
X160400770Y-124183729D01*
X160391588Y-124166550D01*
X160178166Y-124131439D01*
X159579605Y-124730000D01*
X159220395Y-124730000D01*
X159206253Y-124715858D01*
X159385858Y-124536253D01*
X159400000Y-124550395D01*
X159998561Y-123951834D01*
X159963450Y-123738412D01*
X159808720Y-123669582D01*
X160531004Y-122947298D01*
X160560001Y-122923501D01*
X160620606Y-122849654D01*
X160654974Y-122807777D01*
X160725546Y-122675747D01*
X160746325Y-122607246D01*
X160769003Y-122532486D01*
X160780000Y-122420833D01*
X160780000Y-122420823D01*
X160783676Y-122383500D01*
X160780000Y-122346177D01*
X160780000Y-121951702D01*
X160820892Y-121970924D01*
X161087606Y-122037061D01*
X161362097Y-122049895D01*
X161633817Y-122008931D01*
X161800001Y-121949025D01*
X161800000Y-123665703D01*
%TA.AperFunction,Conductor*%
D24*
G36*
X161800000Y-123665703D02*
G01*
X161759174Y-123647542D01*
X161541095Y-123598269D01*
X161317594Y-123592489D01*
X161097260Y-123630423D01*
X160888560Y-123710613D01*
X160836550Y-123738412D01*
X160801439Y-123951834D01*
X161400000Y-124550395D01*
X161414143Y-124536253D01*
X161557294Y-124679404D01*
X160620145Y-125616553D01*
X160511788Y-125595000D01*
X160288212Y-125595000D01*
X160068933Y-125638617D01*
X159970384Y-125679437D01*
X159998561Y-125508166D01*
X159400000Y-124909605D01*
X159385858Y-124923748D01*
X159206253Y-124744143D01*
X159220395Y-124730000D01*
X159579605Y-124730000D01*
X160178166Y-125328561D01*
X160391588Y-125293450D01*
X160399230Y-125276271D01*
X160408412Y-125293450D01*
X160621834Y-125328561D01*
X161220395Y-124730000D01*
X160621834Y-124131439D01*
X160408412Y-124166550D01*
X160400770Y-124183729D01*
X160391588Y-124166550D01*
X160178166Y-124131439D01*
X159579605Y-124730000D01*
X159220395Y-124730000D01*
X159206253Y-124715858D01*
X159385858Y-124536253D01*
X159400000Y-124550395D01*
X159998561Y-123951834D01*
X159963450Y-123738412D01*
X159808720Y-123669582D01*
X160531004Y-122947298D01*
X160560001Y-122923501D01*
X160620606Y-122849654D01*
X160654974Y-122807777D01*
X160725546Y-122675747D01*
X160746325Y-122607246D01*
X160769003Y-122532486D01*
X160780000Y-122420833D01*
X160780000Y-122420823D01*
X160783676Y-122383500D01*
X160780000Y-122346177D01*
X160780000Y-121951702D01*
X160820892Y-121970924D01*
X161087606Y-122037061D01*
X161362097Y-122049895D01*
X161633817Y-122008931D01*
X161800001Y-121949025D01*
X161800000Y-123665703D01*
G37*
%TD.AperFunction*%
D23*
X155593748Y-124715858D02*
X155579605Y-124730000D01*
X155593748Y-124744143D01*
X155414143Y-124923748D01*
X155400000Y-124909605D01*
X155385858Y-124923748D01*
X155206253Y-124744143D01*
X155220395Y-124730000D01*
X155206253Y-124715858D01*
X155385858Y-124536253D01*
X155400000Y-124550395D01*
X155414143Y-124536253D01*
X155593748Y-124715858D01*
%TA.AperFunction,Conductor*%
D24*
G36*
X155593748Y-124715858D02*
G01*
X155579605Y-124730000D01*
X155593748Y-124744143D01*
X155414143Y-124923748D01*
X155400000Y-124909605D01*
X155385858Y-124923748D01*
X155206253Y-124744143D01*
X155220395Y-124730000D01*
X155206253Y-124715858D01*
X155385858Y-124536253D01*
X155400000Y-124550395D01*
X155414143Y-124536253D01*
X155593748Y-124715858D01*
G37*
%TD.AperFunction*%
D23*
X157593748Y-124715858D02*
X157579605Y-124730000D01*
X157593748Y-124744143D01*
X157414143Y-124923748D01*
X157400000Y-124909605D01*
X157385858Y-124923748D01*
X157206253Y-124744143D01*
X157220395Y-124730000D01*
X157206253Y-124715858D01*
X157385858Y-124536253D01*
X157400000Y-124550395D01*
X157414143Y-124536253D01*
X157593748Y-124715858D01*
%TA.AperFunction,Conductor*%
D24*
G36*
X157593748Y-124715858D02*
G01*
X157579605Y-124730000D01*
X157593748Y-124744143D01*
X157414143Y-124923748D01*
X157400000Y-124909605D01*
X157385858Y-124923748D01*
X157206253Y-124744143D01*
X157220395Y-124730000D01*
X157206253Y-124715858D01*
X157385858Y-124536253D01*
X157400000Y-124550395D01*
X157414143Y-124536253D01*
X157593748Y-124715858D01*
G37*
%TD.AperFunction*%
D23*
X166880000Y-123362398D02*
X165352254Y-124890144D01*
X165206253Y-124744143D01*
X165220395Y-124730000D01*
X165206253Y-124715858D01*
X165385858Y-124536253D01*
X165400000Y-124550395D01*
X165998561Y-123951834D01*
X165963450Y-123738412D01*
X165861001Y-123692839D01*
X165860000Y-123682675D01*
X165860000Y-121951702D01*
X165900892Y-121970924D01*
X166167606Y-122037061D01*
X166442097Y-122049895D01*
X166713817Y-122008931D01*
X166880000Y-121949025D01*
X166880000Y-123362398D01*
%TA.AperFunction,Conductor*%
D24*
G36*
X166880000Y-123362398D02*
G01*
X165352254Y-124890144D01*
X165206253Y-124744143D01*
X165220395Y-124730000D01*
X165206253Y-124715858D01*
X165385858Y-124536253D01*
X165400000Y-124550395D01*
X165998561Y-123951834D01*
X165963450Y-123738412D01*
X165861001Y-123692839D01*
X165860000Y-123682675D01*
X165860000Y-121951702D01*
X165900892Y-121970924D01*
X166167606Y-122037061D01*
X166442097Y-122049895D01*
X166713817Y-122008931D01*
X166880000Y-121949025D01*
X166880000Y-123362398D01*
G37*
%TD.AperFunction*%
D23*
X163479191Y-124601301D02*
X163480700Y-124616622D01*
X163480700Y-124741898D01*
X163342354Y-124880244D01*
X163313808Y-124851698D01*
X163320000Y-124788833D01*
X163320000Y-124788832D01*
X163323677Y-124751500D01*
X163320000Y-124714167D01*
X163320000Y-124602110D01*
X163385858Y-124536253D01*
X163400000Y-124550395D01*
X163414143Y-124536253D01*
X163479191Y-124601301D01*
%TA.AperFunction,Conductor*%
D24*
G36*
X163479191Y-124601301D02*
G01*
X163480700Y-124616622D01*
X163480700Y-124741898D01*
X163342354Y-124880244D01*
X163313808Y-124851698D01*
X163320000Y-124788833D01*
X163320000Y-124788832D01*
X163323677Y-124751500D01*
X163320000Y-124714167D01*
X163320000Y-124602110D01*
X163385858Y-124536253D01*
X163400000Y-124550395D01*
X163414143Y-124536253D01*
X163479191Y-124601301D01*
G37*
%TD.AperFunction*%
D23*
X151323748Y-120635858D02*
X151309605Y-120650000D01*
X151323748Y-120664143D01*
X151144142Y-120843748D01*
X151130000Y-120829605D01*
X150345469Y-121614137D01*
X150412206Y-121854025D01*
X150660892Y-121970924D01*
X150927606Y-122037061D01*
X151202097Y-122049895D01*
X151473817Y-122008931D01*
X151640000Y-121949025D01*
X151640001Y-123620503D01*
X151511788Y-123595000D01*
X151288212Y-123595000D01*
X151068933Y-123638617D01*
X150862376Y-123724176D01*
X150676480Y-123848388D01*
X150518388Y-124006480D01*
X150400000Y-124183660D01*
X150281612Y-124006480D01*
X150123520Y-123848388D01*
X149937624Y-123724176D01*
X149731067Y-123638617D01*
X149511788Y-123595000D01*
X149288212Y-123595000D01*
X149068933Y-123638617D01*
X148862376Y-123724176D01*
X148735892Y-123808690D01*
X148167600Y-123240399D01*
X148167600Y-121982506D01*
X148387606Y-122037061D01*
X148662097Y-122049895D01*
X148933817Y-122008931D01*
X149192326Y-121915744D01*
X149307794Y-121854025D01*
X149374531Y-121614137D01*
X148590000Y-120829605D01*
X148575858Y-120843748D01*
X148396253Y-120664143D01*
X148410395Y-120650000D01*
X148396253Y-120635858D01*
X148575858Y-120456253D01*
X148590000Y-120470395D01*
X148604143Y-120456253D01*
X148783748Y-120635858D01*
X148769605Y-120650000D01*
X149554137Y-121434531D01*
X149794025Y-121367794D01*
X149857332Y-121233118D01*
X149864256Y-121252326D01*
X149925975Y-121367794D01*
X150165863Y-121434531D01*
X150950395Y-120650000D01*
X150936252Y-120635858D01*
X151115858Y-120456253D01*
X151130000Y-120470395D01*
X151144142Y-120456252D01*
X151323748Y-120635858D01*
%TA.AperFunction,Conductor*%
D24*
G36*
X151323748Y-120635858D02*
G01*
X151309605Y-120650000D01*
X151323748Y-120664143D01*
X151144142Y-120843748D01*
X151130000Y-120829605D01*
X150345469Y-121614137D01*
X150412206Y-121854025D01*
X150660892Y-121970924D01*
X150927606Y-122037061D01*
X151202097Y-122049895D01*
X151473817Y-122008931D01*
X151640000Y-121949025D01*
X151640001Y-123620503D01*
X151511788Y-123595000D01*
X151288212Y-123595000D01*
X151068933Y-123638617D01*
X150862376Y-123724176D01*
X150676480Y-123848388D01*
X150518388Y-124006480D01*
X150400000Y-124183660D01*
X150281612Y-124006480D01*
X150123520Y-123848388D01*
X149937624Y-123724176D01*
X149731067Y-123638617D01*
X149511788Y-123595000D01*
X149288212Y-123595000D01*
X149068933Y-123638617D01*
X148862376Y-123724176D01*
X148735892Y-123808690D01*
X148167600Y-123240399D01*
X148167600Y-121982506D01*
X148387606Y-122037061D01*
X148662097Y-122049895D01*
X148933817Y-122008931D01*
X149192326Y-121915744D01*
X149307794Y-121854025D01*
X149374531Y-121614137D01*
X148590000Y-120829605D01*
X148575858Y-120843748D01*
X148396253Y-120664143D01*
X148410395Y-120650000D01*
X148396253Y-120635858D01*
X148575858Y-120456253D01*
X148590000Y-120470395D01*
X148604143Y-120456253D01*
X148783748Y-120635858D01*
X148769605Y-120650000D01*
X149554137Y-121434531D01*
X149794025Y-121367794D01*
X149857332Y-121233118D01*
X149864256Y-121252326D01*
X149925975Y-121367794D01*
X150165863Y-121434531D01*
X150950395Y-120650000D01*
X150936252Y-120635858D01*
X151115858Y-120456253D01*
X151130000Y-120470395D01*
X151144142Y-120456252D01*
X151323748Y-120635858D01*
G37*
%TD.AperFunction*%
D23*
X153863748Y-120635858D02*
X153849605Y-120650000D01*
X153863748Y-120664143D01*
X153684143Y-120843748D01*
X153670000Y-120829605D01*
X153655858Y-120843748D01*
X153476253Y-120664143D01*
X153490395Y-120650000D01*
X153476253Y-120635858D01*
X153655858Y-120456252D01*
X153670000Y-120470395D01*
X153684142Y-120456252D01*
X153863748Y-120635858D01*
%TA.AperFunction,Conductor*%
D24*
G36*
X153863748Y-120635858D02*
G01*
X153849605Y-120650000D01*
X153863748Y-120664143D01*
X153684143Y-120843748D01*
X153670000Y-120829605D01*
X153655858Y-120843748D01*
X153476253Y-120664143D01*
X153490395Y-120650000D01*
X153476253Y-120635858D01*
X153655858Y-120456252D01*
X153670000Y-120470395D01*
X153684142Y-120456252D01*
X153863748Y-120635858D01*
G37*
%TD.AperFunction*%
D23*
X164023748Y-120635858D02*
X164009605Y-120650000D01*
X164023748Y-120664142D01*
X163844143Y-120843748D01*
X163830000Y-120829605D01*
X163815858Y-120843748D01*
X163636253Y-120664143D01*
X163650395Y-120650000D01*
X163636253Y-120635858D01*
X163815858Y-120456252D01*
X163830000Y-120470395D01*
X163844142Y-120456252D01*
X164023748Y-120635858D01*
%TA.AperFunction,Conductor*%
D24*
G36*
X164023748Y-120635858D02*
G01*
X164009605Y-120650000D01*
X164023748Y-120664142D01*
X163844143Y-120843748D01*
X163830000Y-120829605D01*
X163815858Y-120843748D01*
X163636253Y-120664143D01*
X163650395Y-120650000D01*
X163636253Y-120635858D01*
X163815858Y-120456252D01*
X163830000Y-120470395D01*
X163844142Y-120456252D01*
X164023748Y-120635858D01*
G37*
%TD.AperFunction*%
D23*
X161483748Y-120635858D02*
X161469605Y-120650000D01*
X161483748Y-120664142D01*
X161304143Y-120843748D01*
X161290000Y-120829605D01*
X161275858Y-120843748D01*
X161096253Y-120664143D01*
X161110395Y-120650000D01*
X161096253Y-120635858D01*
X161275858Y-120456252D01*
X161290000Y-120470395D01*
X161304142Y-120456252D01*
X161483748Y-120635858D01*
%TA.AperFunction,Conductor*%
D24*
G36*
X161483748Y-120635858D02*
G01*
X161469605Y-120650000D01*
X161483748Y-120664142D01*
X161304143Y-120843748D01*
X161290000Y-120829605D01*
X161275858Y-120843748D01*
X161096253Y-120664143D01*
X161110395Y-120650000D01*
X161096253Y-120635858D01*
X161275858Y-120456252D01*
X161290000Y-120470395D01*
X161304142Y-120456252D01*
X161483748Y-120635858D01*
G37*
%TD.AperFunction*%
D23*
X158943748Y-120635858D02*
X158929605Y-120650000D01*
X158943748Y-120664143D01*
X158764142Y-120843748D01*
X158750000Y-120829605D01*
X158735858Y-120843748D01*
X158556253Y-120664143D01*
X158570395Y-120650000D01*
X158556253Y-120635858D01*
X158735858Y-120456253D01*
X158750000Y-120470395D01*
X158764143Y-120456253D01*
X158943748Y-120635858D01*
%TA.AperFunction,Conductor*%
D24*
G36*
X158943748Y-120635858D02*
G01*
X158929605Y-120650000D01*
X158943748Y-120664143D01*
X158764142Y-120843748D01*
X158750000Y-120829605D01*
X158735858Y-120843748D01*
X158556253Y-120664143D01*
X158570395Y-120650000D01*
X158556253Y-120635858D01*
X158735858Y-120456253D01*
X158750000Y-120470395D01*
X158764143Y-120456253D01*
X158943748Y-120635858D01*
G37*
%TD.AperFunction*%
D23*
X143703748Y-120635858D02*
X143689605Y-120650000D01*
X143703748Y-120664143D01*
X143524142Y-120843748D01*
X143510000Y-120829605D01*
X143495858Y-120843748D01*
X143316253Y-120664143D01*
X143330395Y-120650000D01*
X143316253Y-120635858D01*
X143495858Y-120456253D01*
X143510000Y-120470395D01*
X143524142Y-120456252D01*
X143703748Y-120635858D01*
%TA.AperFunction,Conductor*%
D24*
G36*
X143703748Y-120635858D02*
G01*
X143689605Y-120650000D01*
X143703748Y-120664143D01*
X143524142Y-120843748D01*
X143510000Y-120829605D01*
X143495858Y-120843748D01*
X143316253Y-120664143D01*
X143330395Y-120650000D01*
X143316253Y-120635858D01*
X143495858Y-120456253D01*
X143510000Y-120470395D01*
X143524142Y-120456252D01*
X143703748Y-120635858D01*
G37*
%TD.AperFunction*%
D23*
X156403748Y-120635858D02*
X156389605Y-120650000D01*
X156403748Y-120664142D01*
X156224142Y-120843748D01*
X156210000Y-120829605D01*
X156195858Y-120843748D01*
X156016253Y-120664143D01*
X156030395Y-120650000D01*
X156016253Y-120635858D01*
X156195858Y-120456253D01*
X156210000Y-120470395D01*
X156224142Y-120456252D01*
X156403748Y-120635858D01*
%TA.AperFunction,Conductor*%
D24*
G36*
X156403748Y-120635858D02*
G01*
X156389605Y-120650000D01*
X156403748Y-120664142D01*
X156224142Y-120843748D01*
X156210000Y-120829605D01*
X156195858Y-120843748D01*
X156016253Y-120664143D01*
X156030395Y-120650000D01*
X156016253Y-120635858D01*
X156195858Y-120456253D01*
X156210000Y-120470395D01*
X156224142Y-120456252D01*
X156403748Y-120635858D01*
G37*
%TD.AperFunction*%
D23*
X168910000Y-120470395D02*
X168924143Y-120456253D01*
X169103748Y-120635858D01*
X169089605Y-120650000D01*
X169103748Y-120664142D01*
X168924142Y-120843748D01*
X168910000Y-120829605D01*
X168895858Y-120843748D01*
X168716253Y-120664143D01*
X168730395Y-120650000D01*
X168716253Y-120635858D01*
X168895858Y-120456252D01*
X168910000Y-120470395D01*
%TA.AperFunction,Conductor*%
D24*
G36*
X168910000Y-120470395D02*
G01*
X168924143Y-120456253D01*
X169103748Y-120635858D01*
X169089605Y-120650000D01*
X169103748Y-120664142D01*
X168924142Y-120843748D01*
X168910000Y-120829605D01*
X168895858Y-120843748D01*
X168716253Y-120664143D01*
X168730395Y-120650000D01*
X168716253Y-120635858D01*
X168895858Y-120456252D01*
X168910000Y-120470395D01*
G37*
%TD.AperFunction*%
D23*
X166563748Y-120635858D02*
X166549605Y-120650000D01*
X166563748Y-120664142D01*
X166384143Y-120843748D01*
X166370000Y-120829605D01*
X166355858Y-120843748D01*
X166176253Y-120664143D01*
X166190395Y-120650000D01*
X166176253Y-120635858D01*
X166355858Y-120456252D01*
X166370000Y-120470395D01*
X166384142Y-120456252D01*
X166563748Y-120635858D01*
%TA.AperFunction,Conductor*%
D24*
G36*
X166563748Y-120635858D02*
G01*
X166549605Y-120650000D01*
X166563748Y-120664142D01*
X166384143Y-120843748D01*
X166370000Y-120829605D01*
X166355858Y-120843748D01*
X166176253Y-120664143D01*
X166190395Y-120650000D01*
X166176253Y-120635858D01*
X166355858Y-120456252D01*
X166370000Y-120470395D01*
X166384142Y-120456252D01*
X166563748Y-120635858D01*
G37*
%TD.AperFunction*%
D23*
X146243748Y-120635858D02*
X146229605Y-120650000D01*
X146243748Y-120664143D01*
X146064142Y-120843748D01*
X146050000Y-120829605D01*
X146035858Y-120843748D01*
X145856253Y-120664143D01*
X145870395Y-120650000D01*
X145856253Y-120635858D01*
X146035858Y-120456253D01*
X146050000Y-120470395D01*
X146064142Y-120456252D01*
X146243748Y-120635858D01*
%TA.AperFunction,Conductor*%
D24*
G36*
X146243748Y-120635858D02*
G01*
X146229605Y-120650000D01*
X146243748Y-120664143D01*
X146064142Y-120843748D01*
X146050000Y-120829605D01*
X146035858Y-120843748D01*
X145856253Y-120664143D01*
X145870395Y-120650000D01*
X145856253Y-120635858D01*
X146035858Y-120456253D01*
X146050000Y-120470395D01*
X146064142Y-120456252D01*
X146243748Y-120635858D01*
G37*
%TD.AperFunction*%
D23*
X141163748Y-120635858D02*
X141149605Y-120650000D01*
X141163748Y-120664143D01*
X140984142Y-120843748D01*
X140970000Y-120829605D01*
X140955858Y-120843748D01*
X140776252Y-120664142D01*
X140790395Y-120650000D01*
X140776252Y-120635858D01*
X140955858Y-120456252D01*
X140970000Y-120470395D01*
X140984142Y-120456252D01*
X141163748Y-120635858D01*
%TA.AperFunction,Conductor*%
D24*
G36*
X141163748Y-120635858D02*
G01*
X141149605Y-120650000D01*
X141163748Y-120664143D01*
X140984142Y-120843748D01*
X140970000Y-120829605D01*
X140955858Y-120843748D01*
X140776252Y-120664142D01*
X140790395Y-120650000D01*
X140776252Y-120635858D01*
X140955858Y-120456252D01*
X140970000Y-120470395D01*
X140984142Y-120456252D01*
X141163748Y-120635858D01*
G37*
%TD.AperFunction*%
%TD*%
M02*
