%TF.GenerationSoftware,KiCad,Pcbnew,4.0.2+dfsg1-stable*%
%TF.CreationDate,2019-06-17T20:18:25+02:00*%
%TF.ProjectId,usbavrfloppy,757362617672666C6F7070792E6B6963,rev?*%
%TF.FileFunction,Soldermask,Bot*%
%FSLAX46Y46*%
G04 Gerber Fmt 4.6, Leading zero omitted, Abs format (unit mm)*
G04 Created by KiCad (PCBNEW 4.0.2+dfsg1-stable) date Mon 17 Jun 2019 20:18:25 CEST*
%MOMM*%
G01*
G04 APERTURE LIST*
%ADD10C,0.100000*%
%ADD11R,1.520000X1.520000*%
%ADD12C,1.520000*%
%ADD13R,1.727200X2.032000*%
%ADD14O,1.727200X2.032000*%
%ADD15R,2.032000X2.032000*%
%ADD16O,2.032000X2.032000*%
%ADD17R,1.727200X1.727200*%
%ADD18O,1.727200X1.727200*%
%ADD19C,4.064000*%
%ADD20C,0.899160*%
%ADD21O,1.250000X0.950000*%
%ADD22O,1.000000X1.550000*%
%ADD23C,0.600000*%
G04 APERTURE END LIST*
D10*
D11*
X133350000Y-120650000D03*
D12*
X133350000Y-118110000D03*
X135890000Y-120650000D03*
X135890000Y-118110000D03*
X138430000Y-120650000D03*
X138430000Y-118110000D03*
X140970000Y-120650000D03*
X140970000Y-118110000D03*
X143510000Y-120650000D03*
X143510000Y-118110000D03*
X146050000Y-120650000D03*
X146050000Y-118110000D03*
X148590000Y-120650000D03*
X148590000Y-118110000D03*
X151130000Y-120650000D03*
X151130000Y-118110000D03*
X153670000Y-120650000D03*
X153670000Y-118110000D03*
X156210000Y-120650000D03*
X156210000Y-118110000D03*
X158750000Y-120650000D03*
X158750000Y-118110000D03*
X161290000Y-120650000D03*
X161290000Y-118110000D03*
X163830000Y-120650000D03*
X163830000Y-118110000D03*
X166370000Y-120650000D03*
X166370000Y-118110000D03*
X168910000Y-120650000D03*
X168910000Y-118110000D03*
X171450000Y-120650000D03*
X171450000Y-118110000D03*
X173990000Y-120650000D03*
X173990000Y-118110000D03*
D13*
X160020000Y-78740000D03*
D14*
X157480000Y-78740000D03*
X154940000Y-78740000D03*
D13*
X189230000Y-71120000D03*
D14*
X191770000Y-71120000D03*
X194310000Y-71120000D03*
X196850000Y-71120000D03*
D13*
X173990000Y-88900000D03*
D14*
X176530000Y-88900000D03*
X179070000Y-88900000D03*
X181610000Y-88900000D03*
D15*
X124460000Y-118110000D03*
D16*
X124460000Y-120650000D03*
D17*
X119380000Y-71120000D03*
D18*
X116840000Y-71120000D03*
X119380000Y-68580000D03*
X116840000Y-68580000D03*
X119380000Y-66040000D03*
X116840000Y-66040000D03*
D19*
X124460000Y-113030000D03*
X181610000Y-113030000D03*
X181610000Y-62230000D03*
X107950000Y-61722000D03*
D20*
X157139640Y-63080900D03*
X152740360Y-63080900D03*
D21*
X170140900Y-62522540D03*
X165140900Y-62522540D03*
D22*
X171140900Y-59822540D03*
X164140900Y-59822540D03*
D23*
X118626100Y-75148900D03*
X144195300Y-86639500D03*
X140100300Y-80657200D03*
X142374300Y-76508800D03*
X141410000Y-78933200D03*
X132349100Y-78933000D03*
X131220000Y-79231100D03*
X134925400Y-76993600D03*
X140225700Y-103352100D03*
X152306000Y-115112200D03*
X131718100Y-98370700D03*
X145269700Y-99821800D03*
X140202100Y-98310300D03*
X164944200Y-97758000D03*
X162990500Y-64005300D03*
X165101800Y-65614400D03*
X148948600Y-64980000D03*
X155176700Y-68119800D03*
X133524600Y-73558800D03*
X138028000Y-85488000D03*
X135755800Y-73568300D03*
X139347300Y-85487400D03*
X145223600Y-68176700D03*
X141860400Y-108934000D03*
X157680400Y-109420400D03*
X130663600Y-80977600D03*
X126268100Y-93758000D03*
X127302600Y-91737000D03*
X135023400Y-80902300D03*
X131383100Y-96903000D03*
X136373900Y-80455600D03*
X139793700Y-97193000D03*
X135120300Y-84550000D03*
X147436600Y-97214400D03*
X139587700Y-88110000D03*
X155947900Y-99296400D03*
X140080300Y-84550000D03*
X164125500Y-95682300D03*
X140073800Y-79626800D03*
X141055700Y-86146400D03*
X143810700Y-91883300D03*
X127844600Y-102159500D03*
X136324900Y-79620300D03*
X131007700Y-103354600D03*
X136065400Y-76996000D03*
X143674600Y-104045400D03*
X132991400Y-86378600D03*
X156128900Y-68044700D03*
X165241900Y-66804600D03*
M02*
