%TF.GenerationSoftware,KiCad,Pcbnew,4.0.2+dfsg1-stable*%
%TF.CreationDate,2018-12-23T00:41:53+01:00*%
%TF.ProjectId,usbavrfloppy,757362617672666C6F7070792E6B6963,rev?*%
%TF.FileFunction,Copper,L2,Bot,Signal*%
%FSLAX46Y46*%
G04 Gerber Fmt 4.6, Leading zero omitted, Abs format (unit mm)*
G04 Created by KiCad (PCBNEW 4.0.2+dfsg1-stable) date Sun 23 Dec 2018 00:41:53 CET*
%MOMM*%
G01*
G04 APERTURE LIST*
%ADD10C,0.100000*%
%ADD11R,1.727200X2.032000*%
%ADD12O,1.727200X2.032000*%
%ADD13R,1.727200X1.727200*%
%ADD14O,1.727200X1.727200*%
%ADD15R,2.032000X2.032000*%
%ADD16O,2.032000X2.032000*%
%ADD17O,1.250000X0.950000*%
%ADD18O,1.000000X1.550000*%
%ADD19C,4.064000*%
%ADD20C,0.600000*%
%ADD21C,0.350000*%
%ADD22C,0.250000*%
%ADD23C,0.254000*%
G04 APERTURE END LIST*
D10*
D11*
X160020000Y-78740000D03*
D12*
X157480000Y-78740000D03*
X154940000Y-78740000D03*
D11*
X189230000Y-71120000D03*
D12*
X191770000Y-71120000D03*
X194310000Y-71120000D03*
X196850000Y-71120000D03*
D11*
X173990000Y-88900000D03*
D12*
X176530000Y-88900000D03*
X179070000Y-88900000D03*
X181610000Y-88900000D03*
D13*
X133350000Y-120650000D03*
D14*
X133350000Y-118110000D03*
X135890000Y-120650000D03*
X135890000Y-118110000D03*
X138430000Y-120650000D03*
X138430000Y-118110000D03*
X140970000Y-120650000D03*
X140970000Y-118110000D03*
X143510000Y-120650000D03*
X143510000Y-118110000D03*
X146050000Y-120650000D03*
X146050000Y-118110000D03*
X148590000Y-120650000D03*
X148590000Y-118110000D03*
X151130000Y-120650000D03*
X151130000Y-118110000D03*
X153670000Y-120650000D03*
X153670000Y-118110000D03*
X156210000Y-120650000D03*
X156210000Y-118110000D03*
X158750000Y-120650000D03*
X158750000Y-118110000D03*
X161290000Y-120650000D03*
X161290000Y-118110000D03*
X163830000Y-120650000D03*
X163830000Y-118110000D03*
X166370000Y-120650000D03*
X166370000Y-118110000D03*
X168910000Y-120650000D03*
X168910000Y-118110000D03*
X171450000Y-120650000D03*
X171450000Y-118110000D03*
X173990000Y-120650000D03*
X173990000Y-118110000D03*
D15*
X124460000Y-118110000D03*
D16*
X124460000Y-120650000D03*
D13*
X119380000Y-71120000D03*
D14*
X116840000Y-71120000D03*
X119380000Y-68580000D03*
X116840000Y-68580000D03*
X119380000Y-66040000D03*
X116840000Y-66040000D03*
D17*
X170140900Y-62522540D03*
X165140900Y-62522540D03*
D18*
X171140900Y-59822540D03*
X164140900Y-59822540D03*
D19*
X124460000Y-113030000D03*
X181610000Y-113030000D03*
X181610000Y-62230000D03*
X107950000Y-61722000D03*
D20*
X123046000Y-83674200D03*
X117348000Y-74803000D03*
X120747000Y-76581200D03*
X123210000Y-77371000D03*
X131607000Y-83077600D03*
X128651000Y-84836000D03*
X136779000Y-74041000D03*
X136906000Y-75565000D03*
X134816000Y-63599000D03*
X139304000Y-63599000D03*
X128342000Y-63439200D03*
X131191000Y-66421000D03*
X137087000Y-70788100D03*
X137322000Y-66367300D03*
X153478000Y-64719200D03*
X140095000Y-82150000D03*
X140049000Y-83750000D03*
X127000000Y-82720900D03*
X139726000Y-90130500D03*
X161185000Y-74045500D03*
X167736000Y-80544500D03*
X122603000Y-90065400D03*
X137643000Y-62684000D03*
X125470000Y-86347700D03*
X125046000Y-77879900D03*
X131264000Y-79654900D03*
X126432000Y-73828600D03*
X152402000Y-98236000D03*
X170651000Y-97700100D03*
X129489000Y-102689000D03*
X149120000Y-97163200D03*
X147010000Y-105325000D03*
X168016000Y-98711000D03*
X157776000Y-69333300D03*
X161525000Y-62571600D03*
X133171000Y-74061700D03*
X134290000Y-85412700D03*
X134061000Y-74199300D03*
X135439000Y-84571300D03*
X140360000Y-70702000D03*
X139048000Y-85412700D03*
X133192000Y-86241300D03*
X159151000Y-94438600D03*
X138304000Y-80422900D03*
X124840000Y-99179600D03*
X136004000Y-96671800D03*
X137857000Y-82640200D03*
X145354000Y-84138700D03*
X157853000Y-97094000D03*
X143174000Y-77961000D03*
X158931000Y-99024600D03*
X145354000Y-86454800D03*
X162353000Y-96847300D03*
X134996000Y-80487500D03*
X126309000Y-101600000D03*
X139911000Y-80137500D03*
X134620000Y-102720000D03*
D21*
X123210000Y-78125000D02*
X123210000Y-77371000D01*
X123444000Y-78359000D02*
X123210000Y-78125000D01*
X123444000Y-82677000D02*
X123444000Y-78359000D01*
X123046000Y-83074900D02*
X123444000Y-82677000D01*
X123046000Y-83674200D02*
X123046000Y-83074900D01*
X115062000Y-74803000D02*
X117348000Y-74803000D01*
X114046000Y-73787000D02*
X115062000Y-74803000D01*
X114046000Y-66675000D02*
X114046000Y-73787000D01*
X114681000Y-66040000D02*
X114046000Y-66675000D01*
X116840000Y-66040000D02*
X114681000Y-66040000D01*
X120747000Y-77185700D02*
X120747000Y-76581200D01*
X120932000Y-77371000D02*
X120747000Y-77185700D01*
X123210000Y-77371000D02*
X120932000Y-77371000D01*
X130409000Y-83077600D02*
X128651000Y-84836000D01*
X131607000Y-83077600D02*
X130409000Y-83077600D01*
X136779000Y-75438000D02*
X136779000Y-74041000D01*
X136906000Y-75565000D02*
X136779000Y-75438000D01*
X137322000Y-66367300D02*
X137322000Y-66456000D01*
X134816000Y-62034500D02*
X134816000Y-63599000D01*
X135255000Y-61595000D02*
X134816000Y-62034500D01*
X137668000Y-61595000D02*
X135255000Y-61595000D01*
X138430000Y-62357000D02*
X137668000Y-61595000D01*
X138430000Y-62738000D02*
X138430000Y-62357000D01*
X139291000Y-63599000D02*
X138430000Y-62738000D01*
X139304000Y-63599000D02*
X139291000Y-63599000D01*
X129479000Y-63439200D02*
X128342000Y-63439200D01*
X130810000Y-64770000D02*
X129479000Y-63439200D01*
X130810000Y-66040000D02*
X130810000Y-64770000D01*
X131191000Y-66421000D02*
X130810000Y-66040000D01*
X191770000Y-71120000D02*
X194310000Y-71120000D01*
X176530000Y-88900000D02*
X179070000Y-88900000D01*
X137322000Y-66367300D02*
X137322000Y-66456000D01*
X137322000Y-70553300D02*
X137087000Y-70788100D01*
X137322000Y-66456000D02*
X137322000Y-70553300D01*
X166370000Y-120650000D02*
X168910000Y-120650000D01*
X168910000Y-120650000D02*
X171450000Y-120650000D01*
X171450000Y-120650000D02*
X173990000Y-120650000D01*
X173990000Y-120650000D02*
X173990000Y-119411100D01*
X139304000Y-66562700D02*
X139304000Y-65096600D01*
X138684000Y-67183000D02*
X139304000Y-66562700D01*
X138049000Y-67183000D02*
X138684000Y-67183000D01*
X137322000Y-66456000D02*
X138049000Y-67183000D01*
X139304000Y-65096600D02*
X139304000Y-63599000D01*
X165140900Y-70141600D02*
X165140900Y-62522500D01*
X161237000Y-74045500D02*
X165140900Y-70141600D01*
X167736000Y-80544500D02*
X161237000Y-74045500D01*
X161237000Y-74045500D02*
X161185000Y-74045500D01*
X140049000Y-89807500D02*
X140049000Y-83750000D01*
X139726000Y-90130500D02*
X140049000Y-89807500D01*
X140095000Y-83750000D02*
X140095000Y-82150000D01*
X140049000Y-83750000D02*
X140095000Y-83750000D01*
X176530000Y-117335700D02*
X176530000Y-88900000D01*
X174454600Y-119411100D02*
X176530000Y-117335700D01*
X173990000Y-119411100D02*
X174454600Y-119411100D01*
X168064900Y-80544500D02*
X167736000Y-80544500D01*
X175291100Y-87770700D02*
X168064900Y-80544500D01*
X175291100Y-88900000D02*
X175291100Y-87770700D01*
X176530000Y-88900000D02*
X175291100Y-88900000D01*
X153345000Y-65096600D02*
X139304000Y-65096600D01*
X153345000Y-64852200D02*
X153345000Y-65096600D01*
X153478000Y-64719200D02*
X153345000Y-64852200D01*
X153345000Y-66205500D02*
X161185000Y-74045500D01*
X153345000Y-65096600D02*
X153345000Y-66205500D01*
D22*
X132546000Y-79272100D02*
X125470000Y-86347700D01*
X132546000Y-67781200D02*
X132546000Y-79272100D01*
X137643000Y-62684000D02*
X132546000Y-67781200D01*
X119475000Y-72308900D02*
X125046000Y-77879900D01*
X119380000Y-72308900D02*
X119475000Y-72308900D01*
X119380000Y-71120000D02*
X119380000Y-72308900D01*
X120569000Y-68959300D02*
X131264000Y-79654900D01*
X120569000Y-68580000D02*
X120569000Y-68959300D01*
X119380000Y-68580000D02*
X120569000Y-68580000D01*
X126432000Y-71387800D02*
X126432000Y-73828600D01*
X119846000Y-64802300D02*
X126432000Y-71387800D01*
X118899000Y-64802300D02*
X119846000Y-64802300D01*
X118029000Y-65672700D02*
X118899000Y-64802300D01*
X118029000Y-66573800D02*
X118029000Y-65672700D01*
X117212000Y-67391100D02*
X118029000Y-66573800D01*
X116840000Y-67391100D02*
X117212000Y-67391100D01*
X116840000Y-68580000D02*
X116840000Y-67391100D01*
X147401000Y-118110000D02*
X148590000Y-118110000D01*
X147401000Y-118482000D02*
X147401000Y-118110000D01*
X146584000Y-119299000D02*
X147401000Y-118482000D01*
X145516000Y-119299000D02*
X146584000Y-119299000D01*
X144699000Y-118482000D02*
X145516000Y-119299000D01*
X144699000Y-118110000D02*
X144699000Y-118482000D01*
X143510000Y-118110000D02*
X144699000Y-118110000D01*
X140970000Y-109668000D02*
X140970000Y-118110000D01*
X152402000Y-98236000D02*
X140970000Y-109668000D01*
X168141000Y-97700100D02*
X170651000Y-97700100D01*
X165100000Y-100741000D02*
X168141000Y-97700100D01*
X165100000Y-118543000D02*
X165100000Y-100741000D01*
X164344000Y-119299000D02*
X165100000Y-118543000D01*
X163499000Y-119299000D02*
X164344000Y-119299000D01*
X162479000Y-120319000D02*
X163499000Y-119299000D01*
X162479000Y-121173000D02*
X162479000Y-120319000D01*
X161757000Y-121895000D02*
X162479000Y-121173000D01*
X158307000Y-121895000D02*
X161757000Y-121895000D01*
X157480000Y-121068000D02*
X158307000Y-121895000D01*
X157480000Y-120213000D02*
X157480000Y-121068000D01*
X156566000Y-119299000D02*
X157480000Y-120213000D01*
X154859000Y-119299000D02*
X156566000Y-119299000D01*
X153670000Y-118110000D02*
X154859000Y-119299000D01*
X139700000Y-112900000D02*
X129489000Y-102689000D01*
X139700000Y-118543000D02*
X139700000Y-112900000D01*
X140456000Y-119299000D02*
X139700000Y-118543000D01*
X141484000Y-119299000D02*
X140456000Y-119299000D01*
X142159000Y-118624000D02*
X141484000Y-119299000D01*
X142159000Y-117723000D02*
X142159000Y-118624000D01*
X142963000Y-116920000D02*
X142159000Y-117723000D01*
X154202000Y-116920000D02*
X142963000Y-116920000D01*
X155021000Y-117738000D02*
X154202000Y-116920000D01*
X155021000Y-118110000D02*
X155021000Y-117738000D01*
X156210000Y-118110000D02*
X155021000Y-118110000D01*
X152254000Y-97163200D02*
X149120000Y-97163200D01*
X161290000Y-106199000D02*
X152254000Y-97163200D01*
X161290000Y-118110000D02*
X161290000Y-106199000D01*
X147714000Y-105325000D02*
X147010000Y-105325000D01*
X160020000Y-117631000D02*
X147714000Y-105325000D01*
X160020000Y-118543000D02*
X160020000Y-117631000D01*
X160776000Y-119299000D02*
X160020000Y-118543000D01*
X161824000Y-119299000D02*
X160776000Y-119299000D01*
X162641000Y-118482000D02*
X161824000Y-119299000D01*
X162641000Y-118110000D02*
X162641000Y-118482000D01*
X163830000Y-118110000D02*
X162641000Y-118110000D01*
X168910000Y-99605400D02*
X168016000Y-98711000D01*
X168910000Y-118110000D02*
X168910000Y-99605400D01*
D21*
X181610000Y-77501100D02*
X181610000Y-88900000D01*
X187991000Y-71120000D02*
X181610000Y-77501100D01*
X189230000Y-71120000D02*
X187991000Y-71120000D01*
D22*
X161525000Y-65584900D02*
X161525000Y-62571600D01*
X157776000Y-69333300D02*
X161525000Y-65584900D01*
X134290000Y-75181200D02*
X134290000Y-85412700D01*
X133934000Y-74824600D02*
X134290000Y-75181200D01*
X133802000Y-74824600D02*
X133934000Y-74824600D01*
X133436000Y-74458300D02*
X133802000Y-74824600D01*
X133436000Y-74326700D02*
X133436000Y-74458300D01*
X133171000Y-74061700D02*
X133436000Y-74326700D01*
X135631000Y-84379600D02*
X135439000Y-84571300D01*
X135631000Y-75769200D02*
X135631000Y-84379600D01*
X134061000Y-74199300D02*
X135631000Y-75769200D01*
X139048000Y-72013500D02*
X140360000Y-70702000D01*
X139048000Y-81870800D02*
X139048000Y-72013500D01*
X139334000Y-82156700D02*
X139048000Y-81870800D01*
X139334000Y-85126800D02*
X139334000Y-82156700D01*
X139048000Y-85412700D02*
X139334000Y-85126800D01*
X132424000Y-87009700D02*
X133192000Y-86241300D01*
X125238000Y-87009700D02*
X132424000Y-87009700D01*
X118167000Y-79938700D02*
X125238000Y-87009700D01*
X118167000Y-68070400D02*
X118167000Y-79938700D01*
X119008000Y-67228900D02*
X118167000Y-68070400D01*
X119380000Y-67228900D02*
X119008000Y-67228900D01*
X119380000Y-66040000D02*
X119380000Y-67228900D01*
D21*
X157480000Y-92767400D02*
X159151000Y-94438600D01*
X157480000Y-78740000D02*
X157480000Y-92767400D01*
D22*
X124840000Y-101019000D02*
X124840000Y-99179600D01*
X126059000Y-102238000D02*
X124840000Y-101019000D01*
X127413000Y-102238000D02*
X126059000Y-102238000D01*
X131396000Y-98255200D02*
X127413000Y-102238000D01*
X135378000Y-98255200D02*
X131396000Y-98255200D01*
X136862000Y-96771500D02*
X135378000Y-98255200D01*
X136862000Y-85659100D02*
X136862000Y-96771500D01*
X138509000Y-84011700D02*
X136862000Y-85659100D01*
X138509000Y-80628000D02*
X138509000Y-84011700D01*
X138304000Y-80422900D02*
X138509000Y-80628000D01*
X136401000Y-84096300D02*
X137857000Y-82640200D01*
X136401000Y-96274700D02*
X136401000Y-84096300D01*
X136004000Y-96671800D02*
X136401000Y-96274700D01*
X157853000Y-96638200D02*
X157853000Y-97094000D01*
X145354000Y-84138700D02*
X157853000Y-96638200D01*
X158899000Y-99024600D02*
X158931000Y-99024600D01*
X143174000Y-83298800D02*
X158899000Y-99024600D01*
X143174000Y-77961000D02*
X143174000Y-83298800D01*
X159548000Y-99651800D02*
X162353000Y-96847300D01*
X158550000Y-99651800D02*
X159548000Y-99651800D01*
X145354000Y-86454800D02*
X158550000Y-99651800D01*
X134996000Y-92913500D02*
X126309000Y-101600000D01*
X134996000Y-85011800D02*
X134996000Y-92913500D01*
X134814000Y-84830300D02*
X134996000Y-85011800D01*
X134814000Y-80669000D02*
X134814000Y-84830300D01*
X134996000Y-80487500D02*
X134814000Y-80669000D01*
X140724000Y-96616200D02*
X134620000Y-102720000D01*
X140724000Y-80950200D02*
X140724000Y-96616200D01*
X139911000Y-80137500D02*
X140724000Y-80950200D01*
X162641000Y-78740000D02*
X160020000Y-78740000D01*
X172801000Y-88900000D02*
X162641000Y-78740000D01*
X173990000Y-88900000D02*
X172801000Y-88900000D01*
D23*
G36*
X106441239Y-59459709D02*
X105690345Y-60209293D01*
X105283464Y-61189173D01*
X105282538Y-62250172D01*
X105687709Y-63230761D01*
X106437293Y-63981655D01*
X107417173Y-64388536D01*
X108478172Y-64389462D01*
X109458761Y-63984291D01*
X110209655Y-63234707D01*
X110616536Y-62254827D01*
X110617462Y-61193828D01*
X110212291Y-60213239D01*
X109949053Y-59949540D01*
X163005900Y-59949540D01*
X163005900Y-60224540D01*
X163140898Y-60649218D01*
X163428137Y-60989908D01*
X163839026Y-61191659D01*
X164013900Y-61065494D01*
X164013900Y-59949540D01*
X164267900Y-59949540D01*
X164267900Y-61065494D01*
X164442774Y-61191659D01*
X164853663Y-60989908D01*
X165140902Y-60649218D01*
X165275900Y-60224540D01*
X165275900Y-59949540D01*
X170005900Y-59949540D01*
X170005900Y-60224540D01*
X170140898Y-60649218D01*
X170428137Y-60989908D01*
X170839026Y-61191659D01*
X171013900Y-61065494D01*
X171013900Y-59949540D01*
X171267900Y-59949540D01*
X171267900Y-61065494D01*
X171442774Y-61191659D01*
X171853663Y-60989908D01*
X172140902Y-60649218D01*
X172275900Y-60224540D01*
X172275900Y-59949540D01*
X171267900Y-59949540D01*
X171013900Y-59949540D01*
X170005900Y-59949540D01*
X165275900Y-59949540D01*
X164267900Y-59949540D01*
X164013900Y-59949540D01*
X163005900Y-59949540D01*
X109949053Y-59949540D01*
X109462707Y-59462345D01*
X108787560Y-59182000D01*
X163081728Y-59182000D01*
X163005900Y-59420540D01*
X163005900Y-59695540D01*
X164013900Y-59695540D01*
X164013900Y-59675540D01*
X164267900Y-59675540D01*
X164267900Y-59695540D01*
X165275900Y-59695540D01*
X165275900Y-59420540D01*
X165200072Y-59182000D01*
X170081728Y-59182000D01*
X170005900Y-59420540D01*
X170005900Y-59695540D01*
X171013900Y-59695540D01*
X171013900Y-59675540D01*
X171267900Y-59675540D01*
X171267900Y-59695540D01*
X172275900Y-59695540D01*
X172275900Y-59420540D01*
X172200072Y-59182000D01*
X199898000Y-59182000D01*
X199898000Y-78533264D01*
X184935632Y-93495632D01*
X184787143Y-93717862D01*
X184767182Y-93818212D01*
X184695197Y-93890197D01*
X184667334Y-93932211D01*
X184658000Y-93980000D01*
X184658000Y-128143000D01*
X120142000Y-128143000D01*
X120142000Y-120650000D01*
X122776655Y-120650000D01*
X122902330Y-121281810D01*
X123260222Y-121817433D01*
X123795845Y-122175325D01*
X124427655Y-122301000D01*
X124492345Y-122301000D01*
X125124155Y-122175325D01*
X125659778Y-121817433D01*
X126017670Y-121281810D01*
X126086505Y-120935750D01*
X131851400Y-120935750D01*
X131851400Y-121639910D01*
X131948073Y-121873299D01*
X132126702Y-122051927D01*
X132360091Y-122148600D01*
X133064250Y-122148600D01*
X133223000Y-121989850D01*
X133223000Y-120777000D01*
X133477000Y-120777000D01*
X133477000Y-121989850D01*
X133635750Y-122148600D01*
X134339909Y-122148600D01*
X134573298Y-122051927D01*
X134751927Y-121873299D01*
X134834529Y-121673881D01*
X135001510Y-121856821D01*
X135530973Y-122104968D01*
X135763000Y-121984469D01*
X135763000Y-120777000D01*
X136017000Y-120777000D01*
X136017000Y-121984469D01*
X136249027Y-122104968D01*
X136778490Y-121856821D01*
X137160000Y-121438848D01*
X137541510Y-121856821D01*
X138070973Y-122104968D01*
X138303000Y-121984469D01*
X138303000Y-120777000D01*
X138557000Y-120777000D01*
X138557000Y-121984469D01*
X138789027Y-122104968D01*
X139318490Y-121856821D01*
X139700000Y-121438848D01*
X140081510Y-121856821D01*
X140610973Y-122104968D01*
X140843000Y-121984469D01*
X140843000Y-120777000D01*
X141097000Y-120777000D01*
X141097000Y-121984469D01*
X141329027Y-122104968D01*
X141858490Y-121856821D01*
X142240000Y-121438848D01*
X142621510Y-121856821D01*
X143150973Y-122104968D01*
X143383000Y-121984469D01*
X143383000Y-120777000D01*
X143637000Y-120777000D01*
X143637000Y-121984469D01*
X143869027Y-122104968D01*
X144398490Y-121856821D01*
X144780000Y-121438848D01*
X145161510Y-121856821D01*
X145690973Y-122104968D01*
X145923000Y-121984469D01*
X145923000Y-120777000D01*
X146177000Y-120777000D01*
X146177000Y-121984469D01*
X146409027Y-122104968D01*
X146938490Y-121856821D01*
X147320000Y-121438848D01*
X147701510Y-121856821D01*
X148230973Y-122104968D01*
X148463000Y-121984469D01*
X148463000Y-120777000D01*
X148717000Y-120777000D01*
X148717000Y-121984469D01*
X148949027Y-122104968D01*
X149478490Y-121856821D01*
X149860000Y-121438848D01*
X150241510Y-121856821D01*
X150770973Y-122104968D01*
X151003000Y-121984469D01*
X151003000Y-120777000D01*
X151257000Y-120777000D01*
X151257000Y-121984469D01*
X151489027Y-122104968D01*
X152018490Y-121856821D01*
X152400000Y-121438848D01*
X152781510Y-121856821D01*
X153310973Y-122104968D01*
X153543000Y-121984469D01*
X153543000Y-120777000D01*
X153797000Y-120777000D01*
X153797000Y-121984469D01*
X154029027Y-122104968D01*
X154558490Y-121856821D01*
X154940000Y-121438848D01*
X155321510Y-121856821D01*
X155850973Y-122104968D01*
X156083000Y-121984469D01*
X156083000Y-120777000D01*
X153797000Y-120777000D01*
X153543000Y-120777000D01*
X151257000Y-120777000D01*
X151003000Y-120777000D01*
X148717000Y-120777000D01*
X148463000Y-120777000D01*
X146177000Y-120777000D01*
X145923000Y-120777000D01*
X143637000Y-120777000D01*
X143383000Y-120777000D01*
X141097000Y-120777000D01*
X140843000Y-120777000D01*
X138557000Y-120777000D01*
X138303000Y-120777000D01*
X136017000Y-120777000D01*
X135763000Y-120777000D01*
X133477000Y-120777000D01*
X133223000Y-120777000D01*
X132010150Y-120777000D01*
X131851400Y-120935750D01*
X126086505Y-120935750D01*
X126143345Y-120650000D01*
X126017670Y-120018190D01*
X125790501Y-119678208D01*
X125927441Y-119590090D01*
X126072431Y-119377890D01*
X126123440Y-119126000D01*
X126123440Y-117094000D01*
X126079162Y-116858683D01*
X125940090Y-116642559D01*
X125727890Y-116497569D01*
X125476000Y-116446560D01*
X123444000Y-116446560D01*
X123208683Y-116490838D01*
X122992559Y-116629910D01*
X122847569Y-116842110D01*
X122796560Y-117094000D01*
X122796560Y-119126000D01*
X122840838Y-119361317D01*
X122979910Y-119577441D01*
X123128837Y-119679198D01*
X122902330Y-120018190D01*
X122776655Y-120650000D01*
X120142000Y-120650000D01*
X120142000Y-113558172D01*
X121792538Y-113558172D01*
X122197709Y-114538761D01*
X122947293Y-115289655D01*
X123927173Y-115696536D01*
X124988172Y-115697462D01*
X125968761Y-115292291D01*
X126719655Y-114542707D01*
X127126536Y-113562827D01*
X127127462Y-112501828D01*
X126722291Y-111521239D01*
X125972707Y-110770345D01*
X124992827Y-110363464D01*
X123931828Y-110362538D01*
X122951239Y-110767709D01*
X122200345Y-111517293D01*
X121793464Y-112497173D01*
X121792538Y-113558172D01*
X120142000Y-113558172D01*
X120142000Y-93345000D01*
X120131994Y-93295590D01*
X120102872Y-93253307D01*
X108562982Y-82194246D01*
X104902000Y-78533264D01*
X104902000Y-68580000D01*
X115312041Y-68580000D01*
X115426115Y-69153489D01*
X115750971Y-69639670D01*
X116065752Y-69850000D01*
X115750971Y-70060330D01*
X115426115Y-70546511D01*
X115312041Y-71120000D01*
X115426115Y-71693489D01*
X115750971Y-72179670D01*
X116237152Y-72504526D01*
X116810641Y-72618600D01*
X116869359Y-72618600D01*
X117407000Y-72511657D01*
X117407000Y-79938700D01*
X117464852Y-80229539D01*
X117629599Y-80476101D01*
X124700599Y-87547101D01*
X124947161Y-87711848D01*
X125238000Y-87769700D01*
X132424000Y-87769700D01*
X132424099Y-87769680D01*
X132424198Y-87769700D01*
X132569217Y-87740814D01*
X132714839Y-87711848D01*
X132714923Y-87711792D01*
X132715022Y-87711772D01*
X132838044Y-87629525D01*
X132961401Y-87547101D01*
X132961457Y-87547017D01*
X132961541Y-87546961D01*
X133331887Y-87176423D01*
X133377167Y-87176462D01*
X133720943Y-87034417D01*
X133984192Y-86771627D01*
X134126838Y-86428099D01*
X134126908Y-86347559D01*
X134236000Y-86347654D01*
X134236000Y-92598685D01*
X126169342Y-100664878D01*
X126123833Y-100664838D01*
X125780057Y-100806883D01*
X125741337Y-100845535D01*
X125600000Y-100704198D01*
X125600000Y-99742063D01*
X125632192Y-99709927D01*
X125774838Y-99366399D01*
X125775162Y-98994433D01*
X125633117Y-98650657D01*
X125370327Y-98387408D01*
X125026799Y-98244762D01*
X124654833Y-98244438D01*
X124311057Y-98386483D01*
X124047808Y-98649273D01*
X123905162Y-98992801D01*
X123904838Y-99364767D01*
X124046883Y-99708543D01*
X124080000Y-99741718D01*
X124080000Y-101019000D01*
X124137852Y-101309839D01*
X124302599Y-101556401D01*
X125521599Y-102775401D01*
X125768160Y-102940148D01*
X126059000Y-102998000D01*
X127413000Y-102998000D01*
X127561565Y-102968448D01*
X127703822Y-102940155D01*
X127703830Y-102940150D01*
X127703839Y-102940148D01*
X127802586Y-102874167D01*
X128553838Y-102874167D01*
X128695883Y-103217943D01*
X128958673Y-103481192D01*
X129302201Y-103623838D01*
X129349077Y-103623879D01*
X138940000Y-113214802D01*
X138940000Y-116707005D01*
X138459359Y-116611400D01*
X138400641Y-116611400D01*
X137827152Y-116725474D01*
X137340971Y-117050330D01*
X137160000Y-117321172D01*
X136979029Y-117050330D01*
X136492848Y-116725474D01*
X135919359Y-116611400D01*
X135860641Y-116611400D01*
X135287152Y-116725474D01*
X134800971Y-117050330D01*
X134620000Y-117321172D01*
X134439029Y-117050330D01*
X133952848Y-116725474D01*
X133379359Y-116611400D01*
X133320641Y-116611400D01*
X132747152Y-116725474D01*
X132260971Y-117050330D01*
X131936115Y-117536511D01*
X131822041Y-118110000D01*
X131936115Y-118683489D01*
X132260971Y-119169670D01*
X132282023Y-119183737D01*
X132126702Y-119248073D01*
X131948073Y-119426701D01*
X131851400Y-119660090D01*
X131851400Y-120364250D01*
X132010150Y-120523000D01*
X133223000Y-120523000D01*
X133223000Y-120503000D01*
X133477000Y-120503000D01*
X133477000Y-120523000D01*
X135763000Y-120523000D01*
X135763000Y-120503000D01*
X136017000Y-120503000D01*
X136017000Y-120523000D01*
X138303000Y-120523000D01*
X138303000Y-120503000D01*
X138557000Y-120503000D01*
X138557000Y-120523000D01*
X140843000Y-120523000D01*
X140843000Y-120503000D01*
X141097000Y-120503000D01*
X141097000Y-120523000D01*
X143383000Y-120523000D01*
X143383000Y-120503000D01*
X143637000Y-120503000D01*
X143637000Y-120523000D01*
X145923000Y-120523000D01*
X145923000Y-120503000D01*
X146177000Y-120503000D01*
X146177000Y-120523000D01*
X148463000Y-120523000D01*
X148463000Y-120503000D01*
X148717000Y-120503000D01*
X148717000Y-120523000D01*
X151003000Y-120523000D01*
X151003000Y-120503000D01*
X151257000Y-120503000D01*
X151257000Y-120523000D01*
X153543000Y-120523000D01*
X153543000Y-120503000D01*
X153797000Y-120503000D01*
X153797000Y-120523000D01*
X156083000Y-120523000D01*
X156083000Y-120503000D01*
X156337000Y-120503000D01*
X156337000Y-120523000D01*
X156357000Y-120523000D01*
X156357000Y-120777000D01*
X156337000Y-120777000D01*
X156337000Y-121984469D01*
X156569027Y-122104968D01*
X157098490Y-121856821D01*
X157144076Y-121806878D01*
X157769599Y-122432401D01*
X158016161Y-122597148D01*
X158307000Y-122655000D01*
X161757000Y-122655000D01*
X162047839Y-122597148D01*
X162294401Y-122432401D01*
X162907377Y-121819425D01*
X162941510Y-121856821D01*
X163470973Y-122104968D01*
X163703000Y-121984469D01*
X163703000Y-120777000D01*
X163957000Y-120777000D01*
X163957000Y-121984469D01*
X164189027Y-122104968D01*
X164718490Y-121856821D01*
X165100000Y-121438848D01*
X165481510Y-121856821D01*
X166010973Y-122104968D01*
X166243000Y-121984469D01*
X166243000Y-120777000D01*
X166497000Y-120777000D01*
X166497000Y-121984469D01*
X166729027Y-122104968D01*
X167258490Y-121856821D01*
X167640000Y-121438848D01*
X168021510Y-121856821D01*
X168550973Y-122104968D01*
X168783000Y-121984469D01*
X168783000Y-120777000D01*
X169037000Y-120777000D01*
X169037000Y-121984469D01*
X169269027Y-122104968D01*
X169798490Y-121856821D01*
X170180000Y-121438848D01*
X170561510Y-121856821D01*
X171090973Y-122104968D01*
X171323000Y-121984469D01*
X171323000Y-120777000D01*
X171577000Y-120777000D01*
X171577000Y-121984469D01*
X171809027Y-122104968D01*
X172338490Y-121856821D01*
X172720000Y-121438848D01*
X173101510Y-121856821D01*
X173630973Y-122104968D01*
X173863000Y-121984469D01*
X173863000Y-120777000D01*
X174117000Y-120777000D01*
X174117000Y-121984469D01*
X174349027Y-122104968D01*
X174878490Y-121856821D01*
X175272688Y-121424947D01*
X175444958Y-121009026D01*
X175323817Y-120777000D01*
X174117000Y-120777000D01*
X173863000Y-120777000D01*
X171577000Y-120777000D01*
X171323000Y-120777000D01*
X169037000Y-120777000D01*
X168783000Y-120777000D01*
X166497000Y-120777000D01*
X166243000Y-120777000D01*
X163957000Y-120777000D01*
X163703000Y-120777000D01*
X163683000Y-120777000D01*
X163683000Y-120523000D01*
X163703000Y-120523000D01*
X163703000Y-120503000D01*
X163957000Y-120503000D01*
X163957000Y-120523000D01*
X166243000Y-120523000D01*
X166243000Y-120503000D01*
X166497000Y-120503000D01*
X166497000Y-120523000D01*
X168783000Y-120523000D01*
X168783000Y-120503000D01*
X169037000Y-120503000D01*
X169037000Y-120523000D01*
X171323000Y-120523000D01*
X171323000Y-120503000D01*
X171577000Y-120503000D01*
X171577000Y-120523000D01*
X173863000Y-120523000D01*
X173863000Y-120503000D01*
X174117000Y-120503000D01*
X174117000Y-120523000D01*
X175323817Y-120523000D01*
X175444958Y-120290974D01*
X175272688Y-119875053D01*
X174878490Y-119443179D01*
X174755772Y-119385664D01*
X175079029Y-119169670D01*
X175403885Y-118683489D01*
X175517959Y-118110000D01*
X175403885Y-117536511D01*
X175079029Y-117050330D01*
X174592848Y-116725474D01*
X174019359Y-116611400D01*
X173960641Y-116611400D01*
X173387152Y-116725474D01*
X172900971Y-117050330D01*
X172720000Y-117321172D01*
X172539029Y-117050330D01*
X172052848Y-116725474D01*
X171479359Y-116611400D01*
X171420641Y-116611400D01*
X170847152Y-116725474D01*
X170360971Y-117050330D01*
X170180000Y-117321172D01*
X169999029Y-117050330D01*
X169670000Y-116830480D01*
X169670000Y-113558172D01*
X178942538Y-113558172D01*
X179347709Y-114538761D01*
X180097293Y-115289655D01*
X181077173Y-115696536D01*
X182138172Y-115697462D01*
X183118761Y-115292291D01*
X183869655Y-114542707D01*
X184276536Y-113562827D01*
X184277462Y-112501828D01*
X183872291Y-111521239D01*
X183122707Y-110770345D01*
X182142827Y-110363464D01*
X181081828Y-110362538D01*
X180101239Y-110767709D01*
X179350345Y-111517293D01*
X178943464Y-112497173D01*
X178942538Y-113558172D01*
X169670000Y-113558172D01*
X169670000Y-99605400D01*
X169641087Y-99460047D01*
X169612213Y-99314718D01*
X169612165Y-99314646D01*
X169612148Y-99314561D01*
X169529779Y-99191287D01*
X169447521Y-99068119D01*
X168951122Y-98571498D01*
X168951162Y-98525833D01*
X168924002Y-98460100D01*
X170088537Y-98460100D01*
X170120673Y-98492292D01*
X170464201Y-98634938D01*
X170836167Y-98635262D01*
X171179943Y-98493217D01*
X171443192Y-98230427D01*
X171585838Y-97886899D01*
X171586162Y-97514933D01*
X171444117Y-97171157D01*
X171181327Y-96907908D01*
X170837799Y-96765262D01*
X170465833Y-96764938D01*
X170122057Y-96906983D01*
X170088882Y-96940100D01*
X168141000Y-96940100D01*
X168001683Y-96967812D01*
X167850172Y-96997947D01*
X167850166Y-96997951D01*
X167850161Y-96997952D01*
X167753799Y-97062339D01*
X167603608Y-97162690D01*
X164562608Y-100203590D01*
X164562604Y-100203595D01*
X164562599Y-100203599D01*
X164486926Y-100316852D01*
X164397857Y-100450149D01*
X164397856Y-100450155D01*
X164397852Y-100450161D01*
X164367621Y-100602143D01*
X164340000Y-100740988D01*
X164340001Y-100740994D01*
X164340000Y-100741000D01*
X164340000Y-116707005D01*
X163859359Y-116611400D01*
X163800641Y-116611400D01*
X163227152Y-116725474D01*
X162740971Y-117050330D01*
X162560000Y-117321172D01*
X162379029Y-117050330D01*
X162050000Y-116830480D01*
X162050000Y-106199000D01*
X162049999Y-106198996D01*
X162050000Y-106198991D01*
X162015816Y-106027148D01*
X161992148Y-105908161D01*
X161992145Y-105908156D01*
X161992144Y-105908153D01*
X161925708Y-105808725D01*
X161827401Y-105661599D01*
X161827397Y-105661597D01*
X161827395Y-105661593D01*
X152791395Y-96625793D01*
X152657570Y-96536377D01*
X152544839Y-96461052D01*
X152544835Y-96461051D01*
X152544832Y-96461049D01*
X152398672Y-96431977D01*
X152254000Y-96403200D01*
X149682463Y-96403200D01*
X149650327Y-96371008D01*
X149306799Y-96228362D01*
X148934833Y-96228038D01*
X148591057Y-96370083D01*
X148327808Y-96632873D01*
X148185162Y-96976401D01*
X148184838Y-97348367D01*
X148326883Y-97692143D01*
X148589673Y-97955392D01*
X148933201Y-98098038D01*
X149305167Y-98098362D01*
X149648943Y-97956317D01*
X149682118Y-97923200D01*
X151519482Y-97923200D01*
X151467162Y-98049201D01*
X151467121Y-98096077D01*
X140432599Y-109130599D01*
X140267852Y-109377161D01*
X140210000Y-109668000D01*
X140210000Y-112335198D01*
X130424122Y-102549320D01*
X130424162Y-102503833D01*
X130282117Y-102160057D01*
X130019327Y-101896808D01*
X129675799Y-101754162D01*
X129303833Y-101753838D01*
X128960057Y-101895883D01*
X128696808Y-102158673D01*
X128554162Y-102502201D01*
X128553838Y-102874167D01*
X127802586Y-102874167D01*
X127814937Y-102865915D01*
X127950388Y-102775415D01*
X131710792Y-99015200D01*
X135378000Y-99015200D01*
X135525461Y-98985868D01*
X135668768Y-98957377D01*
X135668800Y-98957356D01*
X135668839Y-98957348D01*
X135793828Y-98873833D01*
X135915347Y-98792655D01*
X137399347Y-97308955D01*
X137399369Y-97308923D01*
X137399401Y-97308901D01*
X137480550Y-97187453D01*
X137564119Y-97062410D01*
X137564127Y-97062371D01*
X137564148Y-97062339D01*
X137592638Y-96919109D01*
X137622000Y-96771577D01*
X137621992Y-96771538D01*
X137622000Y-96771500D01*
X137622000Y-85973848D01*
X138112938Y-85482791D01*
X138112838Y-85597867D01*
X138254883Y-85941643D01*
X138517673Y-86204892D01*
X138861201Y-86347538D01*
X139233167Y-86347862D01*
X139576943Y-86205817D01*
X139840192Y-85943027D01*
X139964000Y-85644866D01*
X139964000Y-96301391D01*
X134480333Y-101784878D01*
X134434833Y-101784838D01*
X134091057Y-101926883D01*
X133827808Y-102189673D01*
X133685162Y-102533201D01*
X133684838Y-102905167D01*
X133826883Y-103248943D01*
X134089673Y-103512192D01*
X134433201Y-103654838D01*
X134805167Y-103655162D01*
X135148943Y-103513117D01*
X135412192Y-103250327D01*
X135554838Y-102906799D01*
X135554879Y-102859936D01*
X141261392Y-97153610D01*
X141261396Y-97153605D01*
X141261401Y-97153601D01*
X141343332Y-97030982D01*
X141426143Y-96907051D01*
X141426144Y-96907045D01*
X141426148Y-96907039D01*
X141455223Y-96760873D01*
X141484000Y-96616213D01*
X141483999Y-96616206D01*
X141484000Y-96616200D01*
X141484000Y-80950200D01*
X141483986Y-80950130D01*
X141484000Y-80950060D01*
X141454675Y-80802776D01*
X141426148Y-80659361D01*
X141426109Y-80659303D01*
X141426095Y-80659231D01*
X141342448Y-80534095D01*
X141261401Y-80412799D01*
X141261342Y-80412759D01*
X141261302Y-80412700D01*
X140846123Y-79997674D01*
X140846162Y-79952333D01*
X140704117Y-79608557D01*
X140441327Y-79345308D01*
X140097799Y-79202662D01*
X139808000Y-79202410D01*
X139808000Y-78146167D01*
X142238838Y-78146167D01*
X142380883Y-78489943D01*
X142414000Y-78523118D01*
X142414000Y-83298800D01*
X142441400Y-83436546D01*
X142471845Y-83589622D01*
X142471850Y-83589630D01*
X142471852Y-83589639D01*
X142551594Y-83708982D01*
X142636585Y-83836187D01*
X144643359Y-85843064D01*
X144561808Y-85924473D01*
X144419162Y-86268001D01*
X144418838Y-86639967D01*
X144560883Y-86983743D01*
X144823673Y-87246992D01*
X145167201Y-87389638D01*
X145214046Y-87389679D01*
X158012578Y-100189181D01*
X158012592Y-100189190D01*
X158012599Y-100189201D01*
X158125693Y-100264768D01*
X158259134Y-100353937D01*
X158259149Y-100353940D01*
X158259161Y-100353948D01*
X158402777Y-100382515D01*
X158549971Y-100411800D01*
X158549986Y-100411797D01*
X158550000Y-100411800D01*
X159548000Y-100411800D01*
X159692600Y-100383037D01*
X159838777Y-100353974D01*
X159838806Y-100353955D01*
X159838839Y-100353948D01*
X159960097Y-100272926D01*
X160085353Y-100189249D01*
X162492610Y-97782422D01*
X162538167Y-97782462D01*
X162881943Y-97640417D01*
X163145192Y-97377627D01*
X163287838Y-97034099D01*
X163288162Y-96662133D01*
X163146117Y-96318357D01*
X162883327Y-96055108D01*
X162539799Y-95912462D01*
X162167833Y-95912138D01*
X161824057Y-96054183D01*
X161560808Y-96316973D01*
X161418162Y-96660501D01*
X161418121Y-96707306D01*
X159676830Y-98448287D01*
X159461327Y-98232408D01*
X159117799Y-98089762D01*
X159038916Y-98089693D01*
X158609350Y-97660106D01*
X158645192Y-97624327D01*
X158787838Y-97280799D01*
X158788162Y-96908833D01*
X158646117Y-96565057D01*
X158586589Y-96505425D01*
X158582527Y-96485001D01*
X158555154Y-96347375D01*
X158555149Y-96347368D01*
X158555148Y-96347361D01*
X158475419Y-96228038D01*
X158390412Y-96100810D01*
X146289122Y-83999036D01*
X146289162Y-83953533D01*
X146147117Y-83609757D01*
X145884327Y-83346508D01*
X145540799Y-83203862D01*
X145168833Y-83203538D01*
X144825057Y-83345583D01*
X144561808Y-83608373D01*
X144560788Y-83610829D01*
X143934000Y-82984009D01*
X143934000Y-78555255D01*
X153441400Y-78555255D01*
X153441400Y-78924745D01*
X153555474Y-79498234D01*
X153880330Y-79984415D01*
X154366511Y-80309271D01*
X154940000Y-80423345D01*
X155513489Y-80309271D01*
X155999670Y-79984415D01*
X156210000Y-79669634D01*
X156420330Y-79984415D01*
X156670000Y-80151239D01*
X156670000Y-92767400D01*
X156701874Y-92927643D01*
X156731639Y-93077328D01*
X156731653Y-93077349D01*
X156731658Y-93077374D01*
X156816494Y-93204339D01*
X156907209Y-93340122D01*
X158233542Y-94666614D01*
X158357883Y-94967543D01*
X158620673Y-95230792D01*
X158964201Y-95373438D01*
X159336167Y-95373762D01*
X159679943Y-95231717D01*
X159943192Y-94968927D01*
X160085838Y-94625399D01*
X160086162Y-94253433D01*
X159944117Y-93909657D01*
X159681327Y-93646408D01*
X159378700Y-93520746D01*
X158290000Y-92431915D01*
X158290000Y-80151239D01*
X158539670Y-79984415D01*
X158549243Y-79970087D01*
X158553238Y-79991317D01*
X158692310Y-80207441D01*
X158904510Y-80352431D01*
X159156400Y-80403440D01*
X160883600Y-80403440D01*
X161118917Y-80359162D01*
X161335041Y-80220090D01*
X161480031Y-80007890D01*
X161531040Y-79756000D01*
X161531040Y-79500000D01*
X162326198Y-79500000D01*
X172263599Y-89437401D01*
X172478960Y-89581300D01*
X172478960Y-89916000D01*
X172523238Y-90151317D01*
X172662310Y-90367441D01*
X172874510Y-90512431D01*
X173126400Y-90563440D01*
X174853600Y-90563440D01*
X175088917Y-90519162D01*
X175305041Y-90380090D01*
X175450031Y-90167890D01*
X175469232Y-90073073D01*
X175627964Y-90250732D01*
X176155209Y-90504709D01*
X176170974Y-90507358D01*
X176403000Y-90386217D01*
X176403000Y-89027000D01*
X176657000Y-89027000D01*
X176657000Y-90386217D01*
X176889026Y-90507358D01*
X176904791Y-90504709D01*
X177432036Y-90250732D01*
X177800000Y-89838892D01*
X178167964Y-90250732D01*
X178695209Y-90504709D01*
X178710974Y-90507358D01*
X178943000Y-90386217D01*
X178943000Y-89027000D01*
X176657000Y-89027000D01*
X176403000Y-89027000D01*
X176383000Y-89027000D01*
X176383000Y-88773000D01*
X176403000Y-88773000D01*
X176403000Y-87413783D01*
X176657000Y-87413783D01*
X176657000Y-88773000D01*
X178943000Y-88773000D01*
X178943000Y-87413783D01*
X179197000Y-87413783D01*
X179197000Y-88773000D01*
X179217000Y-88773000D01*
X179217000Y-89027000D01*
X179197000Y-89027000D01*
X179197000Y-90386217D01*
X179429026Y-90507358D01*
X179444791Y-90504709D01*
X179972036Y-90250732D01*
X180343539Y-89834931D01*
X180550330Y-90144415D01*
X181036511Y-90469271D01*
X181610000Y-90583345D01*
X182183489Y-90469271D01*
X182669670Y-90144415D01*
X182994526Y-89658234D01*
X183108600Y-89084745D01*
X183108600Y-88715255D01*
X182994526Y-88141766D01*
X182669670Y-87655585D01*
X182420000Y-87488761D01*
X182420000Y-77836609D01*
X187810994Y-72445531D01*
X187902310Y-72587441D01*
X188114510Y-72732431D01*
X188366400Y-72783440D01*
X190093600Y-72783440D01*
X190328917Y-72739162D01*
X190545041Y-72600090D01*
X190690031Y-72387890D01*
X190709232Y-72293073D01*
X190867964Y-72470732D01*
X191395209Y-72724709D01*
X191410974Y-72727358D01*
X191643000Y-72606217D01*
X191643000Y-71247000D01*
X191897000Y-71247000D01*
X191897000Y-72606217D01*
X192129026Y-72727358D01*
X192144791Y-72724709D01*
X192672036Y-72470732D01*
X193040000Y-72058892D01*
X193407964Y-72470732D01*
X193935209Y-72724709D01*
X193950974Y-72727358D01*
X194183000Y-72606217D01*
X194183000Y-71247000D01*
X191897000Y-71247000D01*
X191643000Y-71247000D01*
X191623000Y-71247000D01*
X191623000Y-70993000D01*
X191643000Y-70993000D01*
X191643000Y-69633783D01*
X191897000Y-69633783D01*
X191897000Y-70993000D01*
X194183000Y-70993000D01*
X194183000Y-69633783D01*
X194437000Y-69633783D01*
X194437000Y-70993000D01*
X194457000Y-70993000D01*
X194457000Y-71247000D01*
X194437000Y-71247000D01*
X194437000Y-72606217D01*
X194669026Y-72727358D01*
X194684791Y-72724709D01*
X195212036Y-72470732D01*
X195583539Y-72054931D01*
X195790330Y-72364415D01*
X196276511Y-72689271D01*
X196850000Y-72803345D01*
X197423489Y-72689271D01*
X197909670Y-72364415D01*
X198234526Y-71878234D01*
X198348600Y-71304745D01*
X198348600Y-70935255D01*
X198234526Y-70361766D01*
X197909670Y-69875585D01*
X197423489Y-69550729D01*
X196850000Y-69436655D01*
X196276511Y-69550729D01*
X195790330Y-69875585D01*
X195583539Y-70185069D01*
X195212036Y-69769268D01*
X194684791Y-69515291D01*
X194669026Y-69512642D01*
X194437000Y-69633783D01*
X194183000Y-69633783D01*
X193950974Y-69512642D01*
X193935209Y-69515291D01*
X193407964Y-69769268D01*
X193040000Y-70181108D01*
X192672036Y-69769268D01*
X192144791Y-69515291D01*
X192129026Y-69512642D01*
X191897000Y-69633783D01*
X191643000Y-69633783D01*
X191410974Y-69512642D01*
X191395209Y-69515291D01*
X190867964Y-69769268D01*
X190711093Y-69944845D01*
X190696762Y-69868683D01*
X190557690Y-69652559D01*
X190345490Y-69507569D01*
X190093600Y-69456560D01*
X188366400Y-69456560D01*
X188131083Y-69500838D01*
X187914959Y-69639910D01*
X187769969Y-69852110D01*
X187718960Y-70104000D01*
X187718960Y-70364112D01*
X187681026Y-70371658D01*
X187681024Y-70371659D01*
X187681021Y-70371660D01*
X187504838Y-70489384D01*
X187418244Y-70547244D01*
X187418243Y-70547245D01*
X187418239Y-70547248D01*
X181037239Y-76928348D01*
X180951509Y-77056655D01*
X180861658Y-77191126D01*
X180861657Y-77191130D01*
X180861655Y-77191133D01*
X180835579Y-77322231D01*
X180800000Y-77501100D01*
X180800000Y-87488761D01*
X180550330Y-87655585D01*
X180343539Y-87965069D01*
X179972036Y-87549268D01*
X179444791Y-87295291D01*
X179429026Y-87292642D01*
X179197000Y-87413783D01*
X178943000Y-87413783D01*
X178710974Y-87292642D01*
X178695209Y-87295291D01*
X178167964Y-87549268D01*
X177800000Y-87961108D01*
X177432036Y-87549268D01*
X176904791Y-87295291D01*
X176889026Y-87292642D01*
X176657000Y-87413783D01*
X176403000Y-87413783D01*
X176170974Y-87292642D01*
X176155209Y-87295291D01*
X175627964Y-87549268D01*
X175471093Y-87724845D01*
X175456762Y-87648683D01*
X175317690Y-87432559D01*
X175105490Y-87287569D01*
X174853600Y-87236560D01*
X173126400Y-87236560D01*
X172891083Y-87280838D01*
X172674959Y-87419910D01*
X172561607Y-87585805D01*
X163178401Y-78202599D01*
X162931839Y-78037852D01*
X162641000Y-77980000D01*
X161531040Y-77980000D01*
X161531040Y-77724000D01*
X161486762Y-77488683D01*
X161347690Y-77272559D01*
X161135490Y-77127569D01*
X160883600Y-77076560D01*
X159156400Y-77076560D01*
X158921083Y-77120838D01*
X158704959Y-77259910D01*
X158559969Y-77472110D01*
X158551600Y-77513439D01*
X158539670Y-77495585D01*
X158053489Y-77170729D01*
X157480000Y-77056655D01*
X156906511Y-77170729D01*
X156420330Y-77495585D01*
X156210000Y-77810366D01*
X155999670Y-77495585D01*
X155513489Y-77170729D01*
X154940000Y-77056655D01*
X154366511Y-77170729D01*
X153880330Y-77495585D01*
X153555474Y-77981766D01*
X153441400Y-78555255D01*
X143934000Y-78555255D01*
X143934000Y-78523463D01*
X143966192Y-78491327D01*
X144108838Y-78147799D01*
X144109162Y-77775833D01*
X143967117Y-77432057D01*
X143704327Y-77168808D01*
X143360799Y-77026162D01*
X142988833Y-77025838D01*
X142645057Y-77167883D01*
X142381808Y-77430673D01*
X142239162Y-77774201D01*
X142238838Y-78146167D01*
X139808000Y-78146167D01*
X139808000Y-72328388D01*
X140499528Y-71637122D01*
X140545167Y-71637162D01*
X140888943Y-71495117D01*
X141152192Y-71232327D01*
X141294838Y-70888799D01*
X141295162Y-70516833D01*
X141153117Y-70173057D01*
X140890327Y-69909808D01*
X140546799Y-69767162D01*
X140174833Y-69766838D01*
X139831057Y-69908883D01*
X139567808Y-70171673D01*
X139425162Y-70515201D01*
X139425121Y-70561925D01*
X138510701Y-71475996D01*
X138510659Y-71476059D01*
X138510599Y-71476099D01*
X138428747Y-71598600D01*
X138345908Y-71722527D01*
X138345894Y-71722598D01*
X138345852Y-71722661D01*
X138316874Y-71868342D01*
X138288000Y-72013355D01*
X138288014Y-72013428D01*
X138288000Y-72013500D01*
X138288000Y-79487885D01*
X138118833Y-79487738D01*
X137775057Y-79629783D01*
X137511808Y-79892573D01*
X137369162Y-80236101D01*
X137368838Y-80608067D01*
X137510883Y-80951843D01*
X137749000Y-81190376D01*
X137749000Y-81705105D01*
X137671833Y-81705038D01*
X137328057Y-81847083D01*
X137064808Y-82109873D01*
X136922162Y-82453401D01*
X136922121Y-82500304D01*
X136391000Y-83031461D01*
X136391000Y-75769200D01*
X136390998Y-75769188D01*
X136391000Y-75769176D01*
X136361608Y-75621436D01*
X136333148Y-75478361D01*
X136333141Y-75478351D01*
X136333139Y-75478339D01*
X136250334Y-75354420D01*
X136168401Y-75231799D01*
X136168391Y-75231792D01*
X136168384Y-75231782D01*
X134996122Y-74059595D01*
X134996162Y-74014133D01*
X134854117Y-73670357D01*
X134591327Y-73407108D01*
X134247799Y-73264462D01*
X133875833Y-73264138D01*
X133748491Y-73316754D01*
X133701327Y-73269508D01*
X133357799Y-73126862D01*
X133306000Y-73126817D01*
X133306000Y-69518467D01*
X156840838Y-69518467D01*
X156982883Y-69862243D01*
X157245673Y-70125492D01*
X157589201Y-70268138D01*
X157961167Y-70268462D01*
X158304943Y-70126417D01*
X158568192Y-69863627D01*
X158710838Y-69520099D01*
X158710879Y-69473287D01*
X162062358Y-66122344D01*
X162062375Y-66122318D01*
X162062401Y-66122301D01*
X162145271Y-65998277D01*
X162227124Y-65875796D01*
X162227130Y-65875766D01*
X162227148Y-65875739D01*
X162257920Y-65721040D01*
X162284999Y-65584961D01*
X162284993Y-65584933D01*
X162285000Y-65584900D01*
X162285000Y-63134063D01*
X162317192Y-63101927D01*
X162434060Y-62820478D01*
X163921632Y-62820478D01*
X164105348Y-63194361D01*
X164429851Y-63482108D01*
X164839769Y-63623769D01*
X165013900Y-63475103D01*
X165013900Y-62649540D01*
X165267900Y-62649540D01*
X165267900Y-63475103D01*
X165442031Y-63623769D01*
X165851949Y-63482108D01*
X166176452Y-63194361D01*
X166360168Y-62820478D01*
X168921632Y-62820478D01*
X169105348Y-63194361D01*
X169429851Y-63482108D01*
X169839769Y-63623769D01*
X170013900Y-63475103D01*
X170013900Y-62649540D01*
X170267900Y-62649540D01*
X170267900Y-63475103D01*
X170442031Y-63623769D01*
X170851949Y-63482108D01*
X171176452Y-63194361D01*
X171360168Y-62820478D01*
X171314048Y-62758172D01*
X178942538Y-62758172D01*
X179347709Y-63738761D01*
X180097293Y-64489655D01*
X181077173Y-64896536D01*
X182138172Y-64897462D01*
X183118761Y-64492291D01*
X183869655Y-63742707D01*
X184276536Y-62762827D01*
X184277462Y-61701828D01*
X183872291Y-60721239D01*
X183122707Y-59970345D01*
X182142827Y-59563464D01*
X181081828Y-59562538D01*
X180101239Y-59967709D01*
X179350345Y-60717293D01*
X178943464Y-61697173D01*
X178942538Y-62758172D01*
X171314048Y-62758172D01*
X171233634Y-62649540D01*
X170267900Y-62649540D01*
X170013900Y-62649540D01*
X169048166Y-62649540D01*
X168921632Y-62820478D01*
X166360168Y-62820478D01*
X166233634Y-62649540D01*
X165267900Y-62649540D01*
X165013900Y-62649540D01*
X164048166Y-62649540D01*
X163921632Y-62820478D01*
X162434060Y-62820478D01*
X162459838Y-62758399D01*
X162460162Y-62386433D01*
X162393295Y-62224602D01*
X163921632Y-62224602D01*
X164048166Y-62395540D01*
X165013900Y-62395540D01*
X165013900Y-61569977D01*
X165267900Y-61569977D01*
X165267900Y-62395540D01*
X166233634Y-62395540D01*
X166360168Y-62224602D01*
X168921632Y-62224602D01*
X169048166Y-62395540D01*
X170013900Y-62395540D01*
X170013900Y-61569977D01*
X170267900Y-61569977D01*
X170267900Y-62395540D01*
X171233634Y-62395540D01*
X171360168Y-62224602D01*
X171176452Y-61850719D01*
X170851949Y-61562972D01*
X170442031Y-61421311D01*
X170267900Y-61569977D01*
X170013900Y-61569977D01*
X169839769Y-61421311D01*
X169429851Y-61562972D01*
X169105348Y-61850719D01*
X168921632Y-62224602D01*
X166360168Y-62224602D01*
X166176452Y-61850719D01*
X165851949Y-61562972D01*
X165442031Y-61421311D01*
X165267900Y-61569977D01*
X165013900Y-61569977D01*
X164839769Y-61421311D01*
X164429851Y-61562972D01*
X164105348Y-61850719D01*
X163921632Y-62224602D01*
X162393295Y-62224602D01*
X162318117Y-62042657D01*
X162055327Y-61779408D01*
X161711799Y-61636762D01*
X161339833Y-61636438D01*
X160996057Y-61778483D01*
X160732808Y-62041273D01*
X160590162Y-62384801D01*
X160589838Y-62756767D01*
X160731883Y-63100543D01*
X160765000Y-63133718D01*
X160765000Y-65270062D01*
X157636384Y-68398178D01*
X157590833Y-68398138D01*
X157247057Y-68540183D01*
X156983808Y-68802973D01*
X156841162Y-69146501D01*
X156840838Y-69518467D01*
X133306000Y-69518467D01*
X133306000Y-68095994D01*
X137782696Y-63619122D01*
X137828167Y-63619162D01*
X138171943Y-63477117D01*
X138353686Y-63295690D01*
X151655592Y-63295690D01*
X151820362Y-63694463D01*
X152125193Y-63999826D01*
X152523677Y-64165291D01*
X152955150Y-64165668D01*
X153353923Y-64000898D01*
X153659286Y-63696067D01*
X153824751Y-63297583D01*
X153824752Y-63295690D01*
X156054872Y-63295690D01*
X156219642Y-63694463D01*
X156524473Y-63999826D01*
X156922957Y-64165291D01*
X157354430Y-64165668D01*
X157753203Y-64000898D01*
X158058566Y-63696067D01*
X158224031Y-63297583D01*
X158224408Y-62866110D01*
X158059638Y-62467337D01*
X157754807Y-62161974D01*
X157356323Y-61996509D01*
X156924850Y-61996132D01*
X156526077Y-62160902D01*
X156220714Y-62465733D01*
X156055249Y-62864217D01*
X156054872Y-63295690D01*
X153824752Y-63295690D01*
X153825128Y-62866110D01*
X153660358Y-62467337D01*
X153355527Y-62161974D01*
X152957043Y-61996509D01*
X152525570Y-61996132D01*
X152126797Y-62160902D01*
X151821434Y-62465733D01*
X151655969Y-62864217D01*
X151655592Y-63295690D01*
X138353686Y-63295690D01*
X138435192Y-63214327D01*
X138577838Y-62870799D01*
X138578162Y-62498833D01*
X138436117Y-62155057D01*
X138173327Y-61891808D01*
X137829799Y-61749162D01*
X137457833Y-61748838D01*
X137114057Y-61890883D01*
X136850808Y-62153673D01*
X136708162Y-62497201D01*
X136708121Y-62544091D01*
X132008588Y-67243809D01*
X131925442Y-67368252D01*
X131843852Y-67490361D01*
X131843851Y-67490367D01*
X131843846Y-67490374D01*
X131812977Y-67645577D01*
X131786000Y-67781200D01*
X131786000Y-78859250D01*
X131450799Y-78720062D01*
X131403945Y-78720021D01*
X127133562Y-74449399D01*
X127224192Y-74358927D01*
X127366838Y-74015399D01*
X127367162Y-73643433D01*
X127225117Y-73299657D01*
X127192000Y-73266482D01*
X127192000Y-71387800D01*
X127191997Y-71387786D01*
X127192000Y-71387771D01*
X127160799Y-71230943D01*
X127134148Y-71096961D01*
X127134140Y-71096949D01*
X127134137Y-71096934D01*
X127044968Y-70963493D01*
X126969401Y-70850399D01*
X126969390Y-70850392D01*
X126969381Y-70850378D01*
X120383381Y-64264878D01*
X120248975Y-64175078D01*
X120136839Y-64100152D01*
X120136825Y-64100149D01*
X120136813Y-64100141D01*
X119990643Y-64071072D01*
X119846000Y-64042300D01*
X118899000Y-64042300D01*
X118898913Y-64042317D01*
X118898826Y-64042300D01*
X118753758Y-64071191D01*
X118608161Y-64100152D01*
X118608087Y-64100201D01*
X118607999Y-64100219D01*
X118484091Y-64183053D01*
X118361599Y-64264899D01*
X118361550Y-64264973D01*
X118361476Y-64265022D01*
X117759558Y-64867216D01*
X117728490Y-64833179D01*
X117199027Y-64585032D01*
X116967000Y-64705531D01*
X116967000Y-65913000D01*
X116987000Y-65913000D01*
X116987000Y-66167000D01*
X116967000Y-66167000D01*
X116967000Y-66187000D01*
X116713000Y-66187000D01*
X116713000Y-66167000D01*
X115506183Y-66167000D01*
X115385042Y-66399026D01*
X115557312Y-66814947D01*
X115951510Y-67246821D01*
X116074228Y-67304336D01*
X115750971Y-67520330D01*
X115426115Y-68006511D01*
X115312041Y-68580000D01*
X104902000Y-68580000D01*
X104902000Y-65680974D01*
X115385042Y-65680974D01*
X115506183Y-65913000D01*
X116713000Y-65913000D01*
X116713000Y-64705531D01*
X116480973Y-64585032D01*
X115951510Y-64833179D01*
X115557312Y-65265053D01*
X115385042Y-65680974D01*
X104902000Y-65680974D01*
X104902000Y-59182000D01*
X107113347Y-59182000D01*
X106441239Y-59459709D01*
X106441239Y-59459709D01*
G37*
X106441239Y-59459709D02*
X105690345Y-60209293D01*
X105283464Y-61189173D01*
X105282538Y-62250172D01*
X105687709Y-63230761D01*
X106437293Y-63981655D01*
X107417173Y-64388536D01*
X108478172Y-64389462D01*
X109458761Y-63984291D01*
X110209655Y-63234707D01*
X110616536Y-62254827D01*
X110617462Y-61193828D01*
X110212291Y-60213239D01*
X109949053Y-59949540D01*
X163005900Y-59949540D01*
X163005900Y-60224540D01*
X163140898Y-60649218D01*
X163428137Y-60989908D01*
X163839026Y-61191659D01*
X164013900Y-61065494D01*
X164013900Y-59949540D01*
X164267900Y-59949540D01*
X164267900Y-61065494D01*
X164442774Y-61191659D01*
X164853663Y-60989908D01*
X165140902Y-60649218D01*
X165275900Y-60224540D01*
X165275900Y-59949540D01*
X170005900Y-59949540D01*
X170005900Y-60224540D01*
X170140898Y-60649218D01*
X170428137Y-60989908D01*
X170839026Y-61191659D01*
X171013900Y-61065494D01*
X171013900Y-59949540D01*
X171267900Y-59949540D01*
X171267900Y-61065494D01*
X171442774Y-61191659D01*
X171853663Y-60989908D01*
X172140902Y-60649218D01*
X172275900Y-60224540D01*
X172275900Y-59949540D01*
X171267900Y-59949540D01*
X171013900Y-59949540D01*
X170005900Y-59949540D01*
X165275900Y-59949540D01*
X164267900Y-59949540D01*
X164013900Y-59949540D01*
X163005900Y-59949540D01*
X109949053Y-59949540D01*
X109462707Y-59462345D01*
X108787560Y-59182000D01*
X163081728Y-59182000D01*
X163005900Y-59420540D01*
X163005900Y-59695540D01*
X164013900Y-59695540D01*
X164013900Y-59675540D01*
X164267900Y-59675540D01*
X164267900Y-59695540D01*
X165275900Y-59695540D01*
X165275900Y-59420540D01*
X165200072Y-59182000D01*
X170081728Y-59182000D01*
X170005900Y-59420540D01*
X170005900Y-59695540D01*
X171013900Y-59695540D01*
X171013900Y-59675540D01*
X171267900Y-59675540D01*
X171267900Y-59695540D01*
X172275900Y-59695540D01*
X172275900Y-59420540D01*
X172200072Y-59182000D01*
X199898000Y-59182000D01*
X199898000Y-78533264D01*
X184935632Y-93495632D01*
X184787143Y-93717862D01*
X184767182Y-93818212D01*
X184695197Y-93890197D01*
X184667334Y-93932211D01*
X184658000Y-93980000D01*
X184658000Y-128143000D01*
X120142000Y-128143000D01*
X120142000Y-120650000D01*
X122776655Y-120650000D01*
X122902330Y-121281810D01*
X123260222Y-121817433D01*
X123795845Y-122175325D01*
X124427655Y-122301000D01*
X124492345Y-122301000D01*
X125124155Y-122175325D01*
X125659778Y-121817433D01*
X126017670Y-121281810D01*
X126086505Y-120935750D01*
X131851400Y-120935750D01*
X131851400Y-121639910D01*
X131948073Y-121873299D01*
X132126702Y-122051927D01*
X132360091Y-122148600D01*
X133064250Y-122148600D01*
X133223000Y-121989850D01*
X133223000Y-120777000D01*
X133477000Y-120777000D01*
X133477000Y-121989850D01*
X133635750Y-122148600D01*
X134339909Y-122148600D01*
X134573298Y-122051927D01*
X134751927Y-121873299D01*
X134834529Y-121673881D01*
X135001510Y-121856821D01*
X135530973Y-122104968D01*
X135763000Y-121984469D01*
X135763000Y-120777000D01*
X136017000Y-120777000D01*
X136017000Y-121984469D01*
X136249027Y-122104968D01*
X136778490Y-121856821D01*
X137160000Y-121438848D01*
X137541510Y-121856821D01*
X138070973Y-122104968D01*
X138303000Y-121984469D01*
X138303000Y-120777000D01*
X138557000Y-120777000D01*
X138557000Y-121984469D01*
X138789027Y-122104968D01*
X139318490Y-121856821D01*
X139700000Y-121438848D01*
X140081510Y-121856821D01*
X140610973Y-122104968D01*
X140843000Y-121984469D01*
X140843000Y-120777000D01*
X141097000Y-120777000D01*
X141097000Y-121984469D01*
X141329027Y-122104968D01*
X141858490Y-121856821D01*
X142240000Y-121438848D01*
X142621510Y-121856821D01*
X143150973Y-122104968D01*
X143383000Y-121984469D01*
X143383000Y-120777000D01*
X143637000Y-120777000D01*
X143637000Y-121984469D01*
X143869027Y-122104968D01*
X144398490Y-121856821D01*
X144780000Y-121438848D01*
X145161510Y-121856821D01*
X145690973Y-122104968D01*
X145923000Y-121984469D01*
X145923000Y-120777000D01*
X146177000Y-120777000D01*
X146177000Y-121984469D01*
X146409027Y-122104968D01*
X146938490Y-121856821D01*
X147320000Y-121438848D01*
X147701510Y-121856821D01*
X148230973Y-122104968D01*
X148463000Y-121984469D01*
X148463000Y-120777000D01*
X148717000Y-120777000D01*
X148717000Y-121984469D01*
X148949027Y-122104968D01*
X149478490Y-121856821D01*
X149860000Y-121438848D01*
X150241510Y-121856821D01*
X150770973Y-122104968D01*
X151003000Y-121984469D01*
X151003000Y-120777000D01*
X151257000Y-120777000D01*
X151257000Y-121984469D01*
X151489027Y-122104968D01*
X152018490Y-121856821D01*
X152400000Y-121438848D01*
X152781510Y-121856821D01*
X153310973Y-122104968D01*
X153543000Y-121984469D01*
X153543000Y-120777000D01*
X153797000Y-120777000D01*
X153797000Y-121984469D01*
X154029027Y-122104968D01*
X154558490Y-121856821D01*
X154940000Y-121438848D01*
X155321510Y-121856821D01*
X155850973Y-122104968D01*
X156083000Y-121984469D01*
X156083000Y-120777000D01*
X153797000Y-120777000D01*
X153543000Y-120777000D01*
X151257000Y-120777000D01*
X151003000Y-120777000D01*
X148717000Y-120777000D01*
X148463000Y-120777000D01*
X146177000Y-120777000D01*
X145923000Y-120777000D01*
X143637000Y-120777000D01*
X143383000Y-120777000D01*
X141097000Y-120777000D01*
X140843000Y-120777000D01*
X138557000Y-120777000D01*
X138303000Y-120777000D01*
X136017000Y-120777000D01*
X135763000Y-120777000D01*
X133477000Y-120777000D01*
X133223000Y-120777000D01*
X132010150Y-120777000D01*
X131851400Y-120935750D01*
X126086505Y-120935750D01*
X126143345Y-120650000D01*
X126017670Y-120018190D01*
X125790501Y-119678208D01*
X125927441Y-119590090D01*
X126072431Y-119377890D01*
X126123440Y-119126000D01*
X126123440Y-117094000D01*
X126079162Y-116858683D01*
X125940090Y-116642559D01*
X125727890Y-116497569D01*
X125476000Y-116446560D01*
X123444000Y-116446560D01*
X123208683Y-116490838D01*
X122992559Y-116629910D01*
X122847569Y-116842110D01*
X122796560Y-117094000D01*
X122796560Y-119126000D01*
X122840838Y-119361317D01*
X122979910Y-119577441D01*
X123128837Y-119679198D01*
X122902330Y-120018190D01*
X122776655Y-120650000D01*
X120142000Y-120650000D01*
X120142000Y-113558172D01*
X121792538Y-113558172D01*
X122197709Y-114538761D01*
X122947293Y-115289655D01*
X123927173Y-115696536D01*
X124988172Y-115697462D01*
X125968761Y-115292291D01*
X126719655Y-114542707D01*
X127126536Y-113562827D01*
X127127462Y-112501828D01*
X126722291Y-111521239D01*
X125972707Y-110770345D01*
X124992827Y-110363464D01*
X123931828Y-110362538D01*
X122951239Y-110767709D01*
X122200345Y-111517293D01*
X121793464Y-112497173D01*
X121792538Y-113558172D01*
X120142000Y-113558172D01*
X120142000Y-93345000D01*
X120131994Y-93295590D01*
X120102872Y-93253307D01*
X108562982Y-82194246D01*
X104902000Y-78533264D01*
X104902000Y-68580000D01*
X115312041Y-68580000D01*
X115426115Y-69153489D01*
X115750971Y-69639670D01*
X116065752Y-69850000D01*
X115750971Y-70060330D01*
X115426115Y-70546511D01*
X115312041Y-71120000D01*
X115426115Y-71693489D01*
X115750971Y-72179670D01*
X116237152Y-72504526D01*
X116810641Y-72618600D01*
X116869359Y-72618600D01*
X117407000Y-72511657D01*
X117407000Y-79938700D01*
X117464852Y-80229539D01*
X117629599Y-80476101D01*
X124700599Y-87547101D01*
X124947161Y-87711848D01*
X125238000Y-87769700D01*
X132424000Y-87769700D01*
X132424099Y-87769680D01*
X132424198Y-87769700D01*
X132569217Y-87740814D01*
X132714839Y-87711848D01*
X132714923Y-87711792D01*
X132715022Y-87711772D01*
X132838044Y-87629525D01*
X132961401Y-87547101D01*
X132961457Y-87547017D01*
X132961541Y-87546961D01*
X133331887Y-87176423D01*
X133377167Y-87176462D01*
X133720943Y-87034417D01*
X133984192Y-86771627D01*
X134126838Y-86428099D01*
X134126908Y-86347559D01*
X134236000Y-86347654D01*
X134236000Y-92598685D01*
X126169342Y-100664878D01*
X126123833Y-100664838D01*
X125780057Y-100806883D01*
X125741337Y-100845535D01*
X125600000Y-100704198D01*
X125600000Y-99742063D01*
X125632192Y-99709927D01*
X125774838Y-99366399D01*
X125775162Y-98994433D01*
X125633117Y-98650657D01*
X125370327Y-98387408D01*
X125026799Y-98244762D01*
X124654833Y-98244438D01*
X124311057Y-98386483D01*
X124047808Y-98649273D01*
X123905162Y-98992801D01*
X123904838Y-99364767D01*
X124046883Y-99708543D01*
X124080000Y-99741718D01*
X124080000Y-101019000D01*
X124137852Y-101309839D01*
X124302599Y-101556401D01*
X125521599Y-102775401D01*
X125768160Y-102940148D01*
X126059000Y-102998000D01*
X127413000Y-102998000D01*
X127561565Y-102968448D01*
X127703822Y-102940155D01*
X127703830Y-102940150D01*
X127703839Y-102940148D01*
X127802586Y-102874167D01*
X128553838Y-102874167D01*
X128695883Y-103217943D01*
X128958673Y-103481192D01*
X129302201Y-103623838D01*
X129349077Y-103623879D01*
X138940000Y-113214802D01*
X138940000Y-116707005D01*
X138459359Y-116611400D01*
X138400641Y-116611400D01*
X137827152Y-116725474D01*
X137340971Y-117050330D01*
X137160000Y-117321172D01*
X136979029Y-117050330D01*
X136492848Y-116725474D01*
X135919359Y-116611400D01*
X135860641Y-116611400D01*
X135287152Y-116725474D01*
X134800971Y-117050330D01*
X134620000Y-117321172D01*
X134439029Y-117050330D01*
X133952848Y-116725474D01*
X133379359Y-116611400D01*
X133320641Y-116611400D01*
X132747152Y-116725474D01*
X132260971Y-117050330D01*
X131936115Y-117536511D01*
X131822041Y-118110000D01*
X131936115Y-118683489D01*
X132260971Y-119169670D01*
X132282023Y-119183737D01*
X132126702Y-119248073D01*
X131948073Y-119426701D01*
X131851400Y-119660090D01*
X131851400Y-120364250D01*
X132010150Y-120523000D01*
X133223000Y-120523000D01*
X133223000Y-120503000D01*
X133477000Y-120503000D01*
X133477000Y-120523000D01*
X135763000Y-120523000D01*
X135763000Y-120503000D01*
X136017000Y-120503000D01*
X136017000Y-120523000D01*
X138303000Y-120523000D01*
X138303000Y-120503000D01*
X138557000Y-120503000D01*
X138557000Y-120523000D01*
X140843000Y-120523000D01*
X140843000Y-120503000D01*
X141097000Y-120503000D01*
X141097000Y-120523000D01*
X143383000Y-120523000D01*
X143383000Y-120503000D01*
X143637000Y-120503000D01*
X143637000Y-120523000D01*
X145923000Y-120523000D01*
X145923000Y-120503000D01*
X146177000Y-120503000D01*
X146177000Y-120523000D01*
X148463000Y-120523000D01*
X148463000Y-120503000D01*
X148717000Y-120503000D01*
X148717000Y-120523000D01*
X151003000Y-120523000D01*
X151003000Y-120503000D01*
X151257000Y-120503000D01*
X151257000Y-120523000D01*
X153543000Y-120523000D01*
X153543000Y-120503000D01*
X153797000Y-120503000D01*
X153797000Y-120523000D01*
X156083000Y-120523000D01*
X156083000Y-120503000D01*
X156337000Y-120503000D01*
X156337000Y-120523000D01*
X156357000Y-120523000D01*
X156357000Y-120777000D01*
X156337000Y-120777000D01*
X156337000Y-121984469D01*
X156569027Y-122104968D01*
X157098490Y-121856821D01*
X157144076Y-121806878D01*
X157769599Y-122432401D01*
X158016161Y-122597148D01*
X158307000Y-122655000D01*
X161757000Y-122655000D01*
X162047839Y-122597148D01*
X162294401Y-122432401D01*
X162907377Y-121819425D01*
X162941510Y-121856821D01*
X163470973Y-122104968D01*
X163703000Y-121984469D01*
X163703000Y-120777000D01*
X163957000Y-120777000D01*
X163957000Y-121984469D01*
X164189027Y-122104968D01*
X164718490Y-121856821D01*
X165100000Y-121438848D01*
X165481510Y-121856821D01*
X166010973Y-122104968D01*
X166243000Y-121984469D01*
X166243000Y-120777000D01*
X166497000Y-120777000D01*
X166497000Y-121984469D01*
X166729027Y-122104968D01*
X167258490Y-121856821D01*
X167640000Y-121438848D01*
X168021510Y-121856821D01*
X168550973Y-122104968D01*
X168783000Y-121984469D01*
X168783000Y-120777000D01*
X169037000Y-120777000D01*
X169037000Y-121984469D01*
X169269027Y-122104968D01*
X169798490Y-121856821D01*
X170180000Y-121438848D01*
X170561510Y-121856821D01*
X171090973Y-122104968D01*
X171323000Y-121984469D01*
X171323000Y-120777000D01*
X171577000Y-120777000D01*
X171577000Y-121984469D01*
X171809027Y-122104968D01*
X172338490Y-121856821D01*
X172720000Y-121438848D01*
X173101510Y-121856821D01*
X173630973Y-122104968D01*
X173863000Y-121984469D01*
X173863000Y-120777000D01*
X174117000Y-120777000D01*
X174117000Y-121984469D01*
X174349027Y-122104968D01*
X174878490Y-121856821D01*
X175272688Y-121424947D01*
X175444958Y-121009026D01*
X175323817Y-120777000D01*
X174117000Y-120777000D01*
X173863000Y-120777000D01*
X171577000Y-120777000D01*
X171323000Y-120777000D01*
X169037000Y-120777000D01*
X168783000Y-120777000D01*
X166497000Y-120777000D01*
X166243000Y-120777000D01*
X163957000Y-120777000D01*
X163703000Y-120777000D01*
X163683000Y-120777000D01*
X163683000Y-120523000D01*
X163703000Y-120523000D01*
X163703000Y-120503000D01*
X163957000Y-120503000D01*
X163957000Y-120523000D01*
X166243000Y-120523000D01*
X166243000Y-120503000D01*
X166497000Y-120503000D01*
X166497000Y-120523000D01*
X168783000Y-120523000D01*
X168783000Y-120503000D01*
X169037000Y-120503000D01*
X169037000Y-120523000D01*
X171323000Y-120523000D01*
X171323000Y-120503000D01*
X171577000Y-120503000D01*
X171577000Y-120523000D01*
X173863000Y-120523000D01*
X173863000Y-120503000D01*
X174117000Y-120503000D01*
X174117000Y-120523000D01*
X175323817Y-120523000D01*
X175444958Y-120290974D01*
X175272688Y-119875053D01*
X174878490Y-119443179D01*
X174755772Y-119385664D01*
X175079029Y-119169670D01*
X175403885Y-118683489D01*
X175517959Y-118110000D01*
X175403885Y-117536511D01*
X175079029Y-117050330D01*
X174592848Y-116725474D01*
X174019359Y-116611400D01*
X173960641Y-116611400D01*
X173387152Y-116725474D01*
X172900971Y-117050330D01*
X172720000Y-117321172D01*
X172539029Y-117050330D01*
X172052848Y-116725474D01*
X171479359Y-116611400D01*
X171420641Y-116611400D01*
X170847152Y-116725474D01*
X170360971Y-117050330D01*
X170180000Y-117321172D01*
X169999029Y-117050330D01*
X169670000Y-116830480D01*
X169670000Y-113558172D01*
X178942538Y-113558172D01*
X179347709Y-114538761D01*
X180097293Y-115289655D01*
X181077173Y-115696536D01*
X182138172Y-115697462D01*
X183118761Y-115292291D01*
X183869655Y-114542707D01*
X184276536Y-113562827D01*
X184277462Y-112501828D01*
X183872291Y-111521239D01*
X183122707Y-110770345D01*
X182142827Y-110363464D01*
X181081828Y-110362538D01*
X180101239Y-110767709D01*
X179350345Y-111517293D01*
X178943464Y-112497173D01*
X178942538Y-113558172D01*
X169670000Y-113558172D01*
X169670000Y-99605400D01*
X169641087Y-99460047D01*
X169612213Y-99314718D01*
X169612165Y-99314646D01*
X169612148Y-99314561D01*
X169529779Y-99191287D01*
X169447521Y-99068119D01*
X168951122Y-98571498D01*
X168951162Y-98525833D01*
X168924002Y-98460100D01*
X170088537Y-98460100D01*
X170120673Y-98492292D01*
X170464201Y-98634938D01*
X170836167Y-98635262D01*
X171179943Y-98493217D01*
X171443192Y-98230427D01*
X171585838Y-97886899D01*
X171586162Y-97514933D01*
X171444117Y-97171157D01*
X171181327Y-96907908D01*
X170837799Y-96765262D01*
X170465833Y-96764938D01*
X170122057Y-96906983D01*
X170088882Y-96940100D01*
X168141000Y-96940100D01*
X168001683Y-96967812D01*
X167850172Y-96997947D01*
X167850166Y-96997951D01*
X167850161Y-96997952D01*
X167753799Y-97062339D01*
X167603608Y-97162690D01*
X164562608Y-100203590D01*
X164562604Y-100203595D01*
X164562599Y-100203599D01*
X164486926Y-100316852D01*
X164397857Y-100450149D01*
X164397856Y-100450155D01*
X164397852Y-100450161D01*
X164367621Y-100602143D01*
X164340000Y-100740988D01*
X164340001Y-100740994D01*
X164340000Y-100741000D01*
X164340000Y-116707005D01*
X163859359Y-116611400D01*
X163800641Y-116611400D01*
X163227152Y-116725474D01*
X162740971Y-117050330D01*
X162560000Y-117321172D01*
X162379029Y-117050330D01*
X162050000Y-116830480D01*
X162050000Y-106199000D01*
X162049999Y-106198996D01*
X162050000Y-106198991D01*
X162015816Y-106027148D01*
X161992148Y-105908161D01*
X161992145Y-105908156D01*
X161992144Y-105908153D01*
X161925708Y-105808725D01*
X161827401Y-105661599D01*
X161827397Y-105661597D01*
X161827395Y-105661593D01*
X152791395Y-96625793D01*
X152657570Y-96536377D01*
X152544839Y-96461052D01*
X152544835Y-96461051D01*
X152544832Y-96461049D01*
X152398672Y-96431977D01*
X152254000Y-96403200D01*
X149682463Y-96403200D01*
X149650327Y-96371008D01*
X149306799Y-96228362D01*
X148934833Y-96228038D01*
X148591057Y-96370083D01*
X148327808Y-96632873D01*
X148185162Y-96976401D01*
X148184838Y-97348367D01*
X148326883Y-97692143D01*
X148589673Y-97955392D01*
X148933201Y-98098038D01*
X149305167Y-98098362D01*
X149648943Y-97956317D01*
X149682118Y-97923200D01*
X151519482Y-97923200D01*
X151467162Y-98049201D01*
X151467121Y-98096077D01*
X140432599Y-109130599D01*
X140267852Y-109377161D01*
X140210000Y-109668000D01*
X140210000Y-112335198D01*
X130424122Y-102549320D01*
X130424162Y-102503833D01*
X130282117Y-102160057D01*
X130019327Y-101896808D01*
X129675799Y-101754162D01*
X129303833Y-101753838D01*
X128960057Y-101895883D01*
X128696808Y-102158673D01*
X128554162Y-102502201D01*
X128553838Y-102874167D01*
X127802586Y-102874167D01*
X127814937Y-102865915D01*
X127950388Y-102775415D01*
X131710792Y-99015200D01*
X135378000Y-99015200D01*
X135525461Y-98985868D01*
X135668768Y-98957377D01*
X135668800Y-98957356D01*
X135668839Y-98957348D01*
X135793828Y-98873833D01*
X135915347Y-98792655D01*
X137399347Y-97308955D01*
X137399369Y-97308923D01*
X137399401Y-97308901D01*
X137480550Y-97187453D01*
X137564119Y-97062410D01*
X137564127Y-97062371D01*
X137564148Y-97062339D01*
X137592638Y-96919109D01*
X137622000Y-96771577D01*
X137621992Y-96771538D01*
X137622000Y-96771500D01*
X137622000Y-85973848D01*
X138112938Y-85482791D01*
X138112838Y-85597867D01*
X138254883Y-85941643D01*
X138517673Y-86204892D01*
X138861201Y-86347538D01*
X139233167Y-86347862D01*
X139576943Y-86205817D01*
X139840192Y-85943027D01*
X139964000Y-85644866D01*
X139964000Y-96301391D01*
X134480333Y-101784878D01*
X134434833Y-101784838D01*
X134091057Y-101926883D01*
X133827808Y-102189673D01*
X133685162Y-102533201D01*
X133684838Y-102905167D01*
X133826883Y-103248943D01*
X134089673Y-103512192D01*
X134433201Y-103654838D01*
X134805167Y-103655162D01*
X135148943Y-103513117D01*
X135412192Y-103250327D01*
X135554838Y-102906799D01*
X135554879Y-102859936D01*
X141261392Y-97153610D01*
X141261396Y-97153605D01*
X141261401Y-97153601D01*
X141343332Y-97030982D01*
X141426143Y-96907051D01*
X141426144Y-96907045D01*
X141426148Y-96907039D01*
X141455223Y-96760873D01*
X141484000Y-96616213D01*
X141483999Y-96616206D01*
X141484000Y-96616200D01*
X141484000Y-80950200D01*
X141483986Y-80950130D01*
X141484000Y-80950060D01*
X141454675Y-80802776D01*
X141426148Y-80659361D01*
X141426109Y-80659303D01*
X141426095Y-80659231D01*
X141342448Y-80534095D01*
X141261401Y-80412799D01*
X141261342Y-80412759D01*
X141261302Y-80412700D01*
X140846123Y-79997674D01*
X140846162Y-79952333D01*
X140704117Y-79608557D01*
X140441327Y-79345308D01*
X140097799Y-79202662D01*
X139808000Y-79202410D01*
X139808000Y-78146167D01*
X142238838Y-78146167D01*
X142380883Y-78489943D01*
X142414000Y-78523118D01*
X142414000Y-83298800D01*
X142441400Y-83436546D01*
X142471845Y-83589622D01*
X142471850Y-83589630D01*
X142471852Y-83589639D01*
X142551594Y-83708982D01*
X142636585Y-83836187D01*
X144643359Y-85843064D01*
X144561808Y-85924473D01*
X144419162Y-86268001D01*
X144418838Y-86639967D01*
X144560883Y-86983743D01*
X144823673Y-87246992D01*
X145167201Y-87389638D01*
X145214046Y-87389679D01*
X158012578Y-100189181D01*
X158012592Y-100189190D01*
X158012599Y-100189201D01*
X158125693Y-100264768D01*
X158259134Y-100353937D01*
X158259149Y-100353940D01*
X158259161Y-100353948D01*
X158402777Y-100382515D01*
X158549971Y-100411800D01*
X158549986Y-100411797D01*
X158550000Y-100411800D01*
X159548000Y-100411800D01*
X159692600Y-100383037D01*
X159838777Y-100353974D01*
X159838806Y-100353955D01*
X159838839Y-100353948D01*
X159960097Y-100272926D01*
X160085353Y-100189249D01*
X162492610Y-97782422D01*
X162538167Y-97782462D01*
X162881943Y-97640417D01*
X163145192Y-97377627D01*
X163287838Y-97034099D01*
X163288162Y-96662133D01*
X163146117Y-96318357D01*
X162883327Y-96055108D01*
X162539799Y-95912462D01*
X162167833Y-95912138D01*
X161824057Y-96054183D01*
X161560808Y-96316973D01*
X161418162Y-96660501D01*
X161418121Y-96707306D01*
X159676830Y-98448287D01*
X159461327Y-98232408D01*
X159117799Y-98089762D01*
X159038916Y-98089693D01*
X158609350Y-97660106D01*
X158645192Y-97624327D01*
X158787838Y-97280799D01*
X158788162Y-96908833D01*
X158646117Y-96565057D01*
X158586589Y-96505425D01*
X158582527Y-96485001D01*
X158555154Y-96347375D01*
X158555149Y-96347368D01*
X158555148Y-96347361D01*
X158475419Y-96228038D01*
X158390412Y-96100810D01*
X146289122Y-83999036D01*
X146289162Y-83953533D01*
X146147117Y-83609757D01*
X145884327Y-83346508D01*
X145540799Y-83203862D01*
X145168833Y-83203538D01*
X144825057Y-83345583D01*
X144561808Y-83608373D01*
X144560788Y-83610829D01*
X143934000Y-82984009D01*
X143934000Y-78555255D01*
X153441400Y-78555255D01*
X153441400Y-78924745D01*
X153555474Y-79498234D01*
X153880330Y-79984415D01*
X154366511Y-80309271D01*
X154940000Y-80423345D01*
X155513489Y-80309271D01*
X155999670Y-79984415D01*
X156210000Y-79669634D01*
X156420330Y-79984415D01*
X156670000Y-80151239D01*
X156670000Y-92767400D01*
X156701874Y-92927643D01*
X156731639Y-93077328D01*
X156731653Y-93077349D01*
X156731658Y-93077374D01*
X156816494Y-93204339D01*
X156907209Y-93340122D01*
X158233542Y-94666614D01*
X158357883Y-94967543D01*
X158620673Y-95230792D01*
X158964201Y-95373438D01*
X159336167Y-95373762D01*
X159679943Y-95231717D01*
X159943192Y-94968927D01*
X160085838Y-94625399D01*
X160086162Y-94253433D01*
X159944117Y-93909657D01*
X159681327Y-93646408D01*
X159378700Y-93520746D01*
X158290000Y-92431915D01*
X158290000Y-80151239D01*
X158539670Y-79984415D01*
X158549243Y-79970087D01*
X158553238Y-79991317D01*
X158692310Y-80207441D01*
X158904510Y-80352431D01*
X159156400Y-80403440D01*
X160883600Y-80403440D01*
X161118917Y-80359162D01*
X161335041Y-80220090D01*
X161480031Y-80007890D01*
X161531040Y-79756000D01*
X161531040Y-79500000D01*
X162326198Y-79500000D01*
X172263599Y-89437401D01*
X172478960Y-89581300D01*
X172478960Y-89916000D01*
X172523238Y-90151317D01*
X172662310Y-90367441D01*
X172874510Y-90512431D01*
X173126400Y-90563440D01*
X174853600Y-90563440D01*
X175088917Y-90519162D01*
X175305041Y-90380090D01*
X175450031Y-90167890D01*
X175469232Y-90073073D01*
X175627964Y-90250732D01*
X176155209Y-90504709D01*
X176170974Y-90507358D01*
X176403000Y-90386217D01*
X176403000Y-89027000D01*
X176657000Y-89027000D01*
X176657000Y-90386217D01*
X176889026Y-90507358D01*
X176904791Y-90504709D01*
X177432036Y-90250732D01*
X177800000Y-89838892D01*
X178167964Y-90250732D01*
X178695209Y-90504709D01*
X178710974Y-90507358D01*
X178943000Y-90386217D01*
X178943000Y-89027000D01*
X176657000Y-89027000D01*
X176403000Y-89027000D01*
X176383000Y-89027000D01*
X176383000Y-88773000D01*
X176403000Y-88773000D01*
X176403000Y-87413783D01*
X176657000Y-87413783D01*
X176657000Y-88773000D01*
X178943000Y-88773000D01*
X178943000Y-87413783D01*
X179197000Y-87413783D01*
X179197000Y-88773000D01*
X179217000Y-88773000D01*
X179217000Y-89027000D01*
X179197000Y-89027000D01*
X179197000Y-90386217D01*
X179429026Y-90507358D01*
X179444791Y-90504709D01*
X179972036Y-90250732D01*
X180343539Y-89834931D01*
X180550330Y-90144415D01*
X181036511Y-90469271D01*
X181610000Y-90583345D01*
X182183489Y-90469271D01*
X182669670Y-90144415D01*
X182994526Y-89658234D01*
X183108600Y-89084745D01*
X183108600Y-88715255D01*
X182994526Y-88141766D01*
X182669670Y-87655585D01*
X182420000Y-87488761D01*
X182420000Y-77836609D01*
X187810994Y-72445531D01*
X187902310Y-72587441D01*
X188114510Y-72732431D01*
X188366400Y-72783440D01*
X190093600Y-72783440D01*
X190328917Y-72739162D01*
X190545041Y-72600090D01*
X190690031Y-72387890D01*
X190709232Y-72293073D01*
X190867964Y-72470732D01*
X191395209Y-72724709D01*
X191410974Y-72727358D01*
X191643000Y-72606217D01*
X191643000Y-71247000D01*
X191897000Y-71247000D01*
X191897000Y-72606217D01*
X192129026Y-72727358D01*
X192144791Y-72724709D01*
X192672036Y-72470732D01*
X193040000Y-72058892D01*
X193407964Y-72470732D01*
X193935209Y-72724709D01*
X193950974Y-72727358D01*
X194183000Y-72606217D01*
X194183000Y-71247000D01*
X191897000Y-71247000D01*
X191643000Y-71247000D01*
X191623000Y-71247000D01*
X191623000Y-70993000D01*
X191643000Y-70993000D01*
X191643000Y-69633783D01*
X191897000Y-69633783D01*
X191897000Y-70993000D01*
X194183000Y-70993000D01*
X194183000Y-69633783D01*
X194437000Y-69633783D01*
X194437000Y-70993000D01*
X194457000Y-70993000D01*
X194457000Y-71247000D01*
X194437000Y-71247000D01*
X194437000Y-72606217D01*
X194669026Y-72727358D01*
X194684791Y-72724709D01*
X195212036Y-72470732D01*
X195583539Y-72054931D01*
X195790330Y-72364415D01*
X196276511Y-72689271D01*
X196850000Y-72803345D01*
X197423489Y-72689271D01*
X197909670Y-72364415D01*
X198234526Y-71878234D01*
X198348600Y-71304745D01*
X198348600Y-70935255D01*
X198234526Y-70361766D01*
X197909670Y-69875585D01*
X197423489Y-69550729D01*
X196850000Y-69436655D01*
X196276511Y-69550729D01*
X195790330Y-69875585D01*
X195583539Y-70185069D01*
X195212036Y-69769268D01*
X194684791Y-69515291D01*
X194669026Y-69512642D01*
X194437000Y-69633783D01*
X194183000Y-69633783D01*
X193950974Y-69512642D01*
X193935209Y-69515291D01*
X193407964Y-69769268D01*
X193040000Y-70181108D01*
X192672036Y-69769268D01*
X192144791Y-69515291D01*
X192129026Y-69512642D01*
X191897000Y-69633783D01*
X191643000Y-69633783D01*
X191410974Y-69512642D01*
X191395209Y-69515291D01*
X190867964Y-69769268D01*
X190711093Y-69944845D01*
X190696762Y-69868683D01*
X190557690Y-69652559D01*
X190345490Y-69507569D01*
X190093600Y-69456560D01*
X188366400Y-69456560D01*
X188131083Y-69500838D01*
X187914959Y-69639910D01*
X187769969Y-69852110D01*
X187718960Y-70104000D01*
X187718960Y-70364112D01*
X187681026Y-70371658D01*
X187681024Y-70371659D01*
X187681021Y-70371660D01*
X187504838Y-70489384D01*
X187418244Y-70547244D01*
X187418243Y-70547245D01*
X187418239Y-70547248D01*
X181037239Y-76928348D01*
X180951509Y-77056655D01*
X180861658Y-77191126D01*
X180861657Y-77191130D01*
X180861655Y-77191133D01*
X180835579Y-77322231D01*
X180800000Y-77501100D01*
X180800000Y-87488761D01*
X180550330Y-87655585D01*
X180343539Y-87965069D01*
X179972036Y-87549268D01*
X179444791Y-87295291D01*
X179429026Y-87292642D01*
X179197000Y-87413783D01*
X178943000Y-87413783D01*
X178710974Y-87292642D01*
X178695209Y-87295291D01*
X178167964Y-87549268D01*
X177800000Y-87961108D01*
X177432036Y-87549268D01*
X176904791Y-87295291D01*
X176889026Y-87292642D01*
X176657000Y-87413783D01*
X176403000Y-87413783D01*
X176170974Y-87292642D01*
X176155209Y-87295291D01*
X175627964Y-87549268D01*
X175471093Y-87724845D01*
X175456762Y-87648683D01*
X175317690Y-87432559D01*
X175105490Y-87287569D01*
X174853600Y-87236560D01*
X173126400Y-87236560D01*
X172891083Y-87280838D01*
X172674959Y-87419910D01*
X172561607Y-87585805D01*
X163178401Y-78202599D01*
X162931839Y-78037852D01*
X162641000Y-77980000D01*
X161531040Y-77980000D01*
X161531040Y-77724000D01*
X161486762Y-77488683D01*
X161347690Y-77272559D01*
X161135490Y-77127569D01*
X160883600Y-77076560D01*
X159156400Y-77076560D01*
X158921083Y-77120838D01*
X158704959Y-77259910D01*
X158559969Y-77472110D01*
X158551600Y-77513439D01*
X158539670Y-77495585D01*
X158053489Y-77170729D01*
X157480000Y-77056655D01*
X156906511Y-77170729D01*
X156420330Y-77495585D01*
X156210000Y-77810366D01*
X155999670Y-77495585D01*
X155513489Y-77170729D01*
X154940000Y-77056655D01*
X154366511Y-77170729D01*
X153880330Y-77495585D01*
X153555474Y-77981766D01*
X153441400Y-78555255D01*
X143934000Y-78555255D01*
X143934000Y-78523463D01*
X143966192Y-78491327D01*
X144108838Y-78147799D01*
X144109162Y-77775833D01*
X143967117Y-77432057D01*
X143704327Y-77168808D01*
X143360799Y-77026162D01*
X142988833Y-77025838D01*
X142645057Y-77167883D01*
X142381808Y-77430673D01*
X142239162Y-77774201D01*
X142238838Y-78146167D01*
X139808000Y-78146167D01*
X139808000Y-72328388D01*
X140499528Y-71637122D01*
X140545167Y-71637162D01*
X140888943Y-71495117D01*
X141152192Y-71232327D01*
X141294838Y-70888799D01*
X141295162Y-70516833D01*
X141153117Y-70173057D01*
X140890327Y-69909808D01*
X140546799Y-69767162D01*
X140174833Y-69766838D01*
X139831057Y-69908883D01*
X139567808Y-70171673D01*
X139425162Y-70515201D01*
X139425121Y-70561925D01*
X138510701Y-71475996D01*
X138510659Y-71476059D01*
X138510599Y-71476099D01*
X138428747Y-71598600D01*
X138345908Y-71722527D01*
X138345894Y-71722598D01*
X138345852Y-71722661D01*
X138316874Y-71868342D01*
X138288000Y-72013355D01*
X138288014Y-72013428D01*
X138288000Y-72013500D01*
X138288000Y-79487885D01*
X138118833Y-79487738D01*
X137775057Y-79629783D01*
X137511808Y-79892573D01*
X137369162Y-80236101D01*
X137368838Y-80608067D01*
X137510883Y-80951843D01*
X137749000Y-81190376D01*
X137749000Y-81705105D01*
X137671833Y-81705038D01*
X137328057Y-81847083D01*
X137064808Y-82109873D01*
X136922162Y-82453401D01*
X136922121Y-82500304D01*
X136391000Y-83031461D01*
X136391000Y-75769200D01*
X136390998Y-75769188D01*
X136391000Y-75769176D01*
X136361608Y-75621436D01*
X136333148Y-75478361D01*
X136333141Y-75478351D01*
X136333139Y-75478339D01*
X136250334Y-75354420D01*
X136168401Y-75231799D01*
X136168391Y-75231792D01*
X136168384Y-75231782D01*
X134996122Y-74059595D01*
X134996162Y-74014133D01*
X134854117Y-73670357D01*
X134591327Y-73407108D01*
X134247799Y-73264462D01*
X133875833Y-73264138D01*
X133748491Y-73316754D01*
X133701327Y-73269508D01*
X133357799Y-73126862D01*
X133306000Y-73126817D01*
X133306000Y-69518467D01*
X156840838Y-69518467D01*
X156982883Y-69862243D01*
X157245673Y-70125492D01*
X157589201Y-70268138D01*
X157961167Y-70268462D01*
X158304943Y-70126417D01*
X158568192Y-69863627D01*
X158710838Y-69520099D01*
X158710879Y-69473287D01*
X162062358Y-66122344D01*
X162062375Y-66122318D01*
X162062401Y-66122301D01*
X162145271Y-65998277D01*
X162227124Y-65875796D01*
X162227130Y-65875766D01*
X162227148Y-65875739D01*
X162257920Y-65721040D01*
X162284999Y-65584961D01*
X162284993Y-65584933D01*
X162285000Y-65584900D01*
X162285000Y-63134063D01*
X162317192Y-63101927D01*
X162434060Y-62820478D01*
X163921632Y-62820478D01*
X164105348Y-63194361D01*
X164429851Y-63482108D01*
X164839769Y-63623769D01*
X165013900Y-63475103D01*
X165013900Y-62649540D01*
X165267900Y-62649540D01*
X165267900Y-63475103D01*
X165442031Y-63623769D01*
X165851949Y-63482108D01*
X166176452Y-63194361D01*
X166360168Y-62820478D01*
X168921632Y-62820478D01*
X169105348Y-63194361D01*
X169429851Y-63482108D01*
X169839769Y-63623769D01*
X170013900Y-63475103D01*
X170013900Y-62649540D01*
X170267900Y-62649540D01*
X170267900Y-63475103D01*
X170442031Y-63623769D01*
X170851949Y-63482108D01*
X171176452Y-63194361D01*
X171360168Y-62820478D01*
X171314048Y-62758172D01*
X178942538Y-62758172D01*
X179347709Y-63738761D01*
X180097293Y-64489655D01*
X181077173Y-64896536D01*
X182138172Y-64897462D01*
X183118761Y-64492291D01*
X183869655Y-63742707D01*
X184276536Y-62762827D01*
X184277462Y-61701828D01*
X183872291Y-60721239D01*
X183122707Y-59970345D01*
X182142827Y-59563464D01*
X181081828Y-59562538D01*
X180101239Y-59967709D01*
X179350345Y-60717293D01*
X178943464Y-61697173D01*
X178942538Y-62758172D01*
X171314048Y-62758172D01*
X171233634Y-62649540D01*
X170267900Y-62649540D01*
X170013900Y-62649540D01*
X169048166Y-62649540D01*
X168921632Y-62820478D01*
X166360168Y-62820478D01*
X166233634Y-62649540D01*
X165267900Y-62649540D01*
X165013900Y-62649540D01*
X164048166Y-62649540D01*
X163921632Y-62820478D01*
X162434060Y-62820478D01*
X162459838Y-62758399D01*
X162460162Y-62386433D01*
X162393295Y-62224602D01*
X163921632Y-62224602D01*
X164048166Y-62395540D01*
X165013900Y-62395540D01*
X165013900Y-61569977D01*
X165267900Y-61569977D01*
X165267900Y-62395540D01*
X166233634Y-62395540D01*
X166360168Y-62224602D01*
X168921632Y-62224602D01*
X169048166Y-62395540D01*
X170013900Y-62395540D01*
X170013900Y-61569977D01*
X170267900Y-61569977D01*
X170267900Y-62395540D01*
X171233634Y-62395540D01*
X171360168Y-62224602D01*
X171176452Y-61850719D01*
X170851949Y-61562972D01*
X170442031Y-61421311D01*
X170267900Y-61569977D01*
X170013900Y-61569977D01*
X169839769Y-61421311D01*
X169429851Y-61562972D01*
X169105348Y-61850719D01*
X168921632Y-62224602D01*
X166360168Y-62224602D01*
X166176452Y-61850719D01*
X165851949Y-61562972D01*
X165442031Y-61421311D01*
X165267900Y-61569977D01*
X165013900Y-61569977D01*
X164839769Y-61421311D01*
X164429851Y-61562972D01*
X164105348Y-61850719D01*
X163921632Y-62224602D01*
X162393295Y-62224602D01*
X162318117Y-62042657D01*
X162055327Y-61779408D01*
X161711799Y-61636762D01*
X161339833Y-61636438D01*
X160996057Y-61778483D01*
X160732808Y-62041273D01*
X160590162Y-62384801D01*
X160589838Y-62756767D01*
X160731883Y-63100543D01*
X160765000Y-63133718D01*
X160765000Y-65270062D01*
X157636384Y-68398178D01*
X157590833Y-68398138D01*
X157247057Y-68540183D01*
X156983808Y-68802973D01*
X156841162Y-69146501D01*
X156840838Y-69518467D01*
X133306000Y-69518467D01*
X133306000Y-68095994D01*
X137782696Y-63619122D01*
X137828167Y-63619162D01*
X138171943Y-63477117D01*
X138353686Y-63295690D01*
X151655592Y-63295690D01*
X151820362Y-63694463D01*
X152125193Y-63999826D01*
X152523677Y-64165291D01*
X152955150Y-64165668D01*
X153353923Y-64000898D01*
X153659286Y-63696067D01*
X153824751Y-63297583D01*
X153824752Y-63295690D01*
X156054872Y-63295690D01*
X156219642Y-63694463D01*
X156524473Y-63999826D01*
X156922957Y-64165291D01*
X157354430Y-64165668D01*
X157753203Y-64000898D01*
X158058566Y-63696067D01*
X158224031Y-63297583D01*
X158224408Y-62866110D01*
X158059638Y-62467337D01*
X157754807Y-62161974D01*
X157356323Y-61996509D01*
X156924850Y-61996132D01*
X156526077Y-62160902D01*
X156220714Y-62465733D01*
X156055249Y-62864217D01*
X156054872Y-63295690D01*
X153824752Y-63295690D01*
X153825128Y-62866110D01*
X153660358Y-62467337D01*
X153355527Y-62161974D01*
X152957043Y-61996509D01*
X152525570Y-61996132D01*
X152126797Y-62160902D01*
X151821434Y-62465733D01*
X151655969Y-62864217D01*
X151655592Y-63295690D01*
X138353686Y-63295690D01*
X138435192Y-63214327D01*
X138577838Y-62870799D01*
X138578162Y-62498833D01*
X138436117Y-62155057D01*
X138173327Y-61891808D01*
X137829799Y-61749162D01*
X137457833Y-61748838D01*
X137114057Y-61890883D01*
X136850808Y-62153673D01*
X136708162Y-62497201D01*
X136708121Y-62544091D01*
X132008588Y-67243809D01*
X131925442Y-67368252D01*
X131843852Y-67490361D01*
X131843851Y-67490367D01*
X131843846Y-67490374D01*
X131812977Y-67645577D01*
X131786000Y-67781200D01*
X131786000Y-78859250D01*
X131450799Y-78720062D01*
X131403945Y-78720021D01*
X127133562Y-74449399D01*
X127224192Y-74358927D01*
X127366838Y-74015399D01*
X127367162Y-73643433D01*
X127225117Y-73299657D01*
X127192000Y-73266482D01*
X127192000Y-71387800D01*
X127191997Y-71387786D01*
X127192000Y-71387771D01*
X127160799Y-71230943D01*
X127134148Y-71096961D01*
X127134140Y-71096949D01*
X127134137Y-71096934D01*
X127044968Y-70963493D01*
X126969401Y-70850399D01*
X126969390Y-70850392D01*
X126969381Y-70850378D01*
X120383381Y-64264878D01*
X120248975Y-64175078D01*
X120136839Y-64100152D01*
X120136825Y-64100149D01*
X120136813Y-64100141D01*
X119990643Y-64071072D01*
X119846000Y-64042300D01*
X118899000Y-64042300D01*
X118898913Y-64042317D01*
X118898826Y-64042300D01*
X118753758Y-64071191D01*
X118608161Y-64100152D01*
X118608087Y-64100201D01*
X118607999Y-64100219D01*
X118484091Y-64183053D01*
X118361599Y-64264899D01*
X118361550Y-64264973D01*
X118361476Y-64265022D01*
X117759558Y-64867216D01*
X117728490Y-64833179D01*
X117199027Y-64585032D01*
X116967000Y-64705531D01*
X116967000Y-65913000D01*
X116987000Y-65913000D01*
X116987000Y-66167000D01*
X116967000Y-66167000D01*
X116967000Y-66187000D01*
X116713000Y-66187000D01*
X116713000Y-66167000D01*
X115506183Y-66167000D01*
X115385042Y-66399026D01*
X115557312Y-66814947D01*
X115951510Y-67246821D01*
X116074228Y-67304336D01*
X115750971Y-67520330D01*
X115426115Y-68006511D01*
X115312041Y-68580000D01*
X104902000Y-68580000D01*
X104902000Y-65680974D01*
X115385042Y-65680974D01*
X115506183Y-65913000D01*
X116713000Y-65913000D01*
X116713000Y-64705531D01*
X116480973Y-64585032D01*
X115951510Y-64833179D01*
X115557312Y-65265053D01*
X115385042Y-65680974D01*
X104902000Y-65680974D01*
X104902000Y-59182000D01*
X107113347Y-59182000D01*
X106441239Y-59459709D01*
G36*
X158877000Y-120523000D02*
X161163000Y-120523000D01*
X161163000Y-120503000D01*
X161417000Y-120503000D01*
X161417000Y-120523000D01*
X161437000Y-120523000D01*
X161437000Y-120777000D01*
X161417000Y-120777000D01*
X161417000Y-120797000D01*
X161163000Y-120797000D01*
X161163000Y-120777000D01*
X158877000Y-120777000D01*
X158877000Y-120797000D01*
X158623000Y-120797000D01*
X158623000Y-120777000D01*
X158603000Y-120777000D01*
X158603000Y-120523000D01*
X158623000Y-120523000D01*
X158623000Y-120503000D01*
X158877000Y-120503000D01*
X158877000Y-120523000D01*
X158877000Y-120523000D01*
G37*
X158877000Y-120523000D02*
X161163000Y-120523000D01*
X161163000Y-120503000D01*
X161417000Y-120503000D01*
X161417000Y-120523000D01*
X161437000Y-120523000D01*
X161437000Y-120777000D01*
X161417000Y-120777000D01*
X161417000Y-120797000D01*
X161163000Y-120797000D01*
X161163000Y-120777000D01*
X158877000Y-120777000D01*
X158877000Y-120797000D01*
X158623000Y-120797000D01*
X158623000Y-120777000D01*
X158603000Y-120777000D01*
X158603000Y-120523000D01*
X158623000Y-120523000D01*
X158623000Y-120503000D01*
X158877000Y-120503000D01*
X158877000Y-120523000D01*
G36*
X133387539Y-75444146D02*
X133510873Y-75526628D01*
X133511027Y-75526659D01*
X133511161Y-75526748D01*
X133530000Y-75530495D01*
X133530000Y-84850237D01*
X133497808Y-84882373D01*
X133355162Y-85225901D01*
X133355092Y-85306441D01*
X133006833Y-85306138D01*
X132663057Y-85448183D01*
X132399808Y-85710973D01*
X132257162Y-86054501D01*
X132257121Y-86101584D01*
X132109082Y-86249700D01*
X126642838Y-86249700D01*
X133083386Y-79809517D01*
X133083393Y-79809506D01*
X133083401Y-79809501D01*
X133165246Y-79687011D01*
X133248139Y-79562959D01*
X133248141Y-79562950D01*
X133248148Y-79562939D01*
X133279057Y-79407551D01*
X133306000Y-79272122D01*
X133305998Y-79272111D01*
X133306000Y-79272100D01*
X133306000Y-75389664D01*
X133387539Y-75444146D01*
X133387539Y-75444146D01*
G37*
X133387539Y-75444146D02*
X133510873Y-75526628D01*
X133511027Y-75526659D01*
X133511161Y-75526748D01*
X133530000Y-75530495D01*
X133530000Y-84850237D01*
X133497808Y-84882373D01*
X133355162Y-85225901D01*
X133355092Y-85306441D01*
X133006833Y-85306138D01*
X132663057Y-85448183D01*
X132399808Y-85710973D01*
X132257162Y-86054501D01*
X132257121Y-86101584D01*
X132109082Y-86249700D01*
X126642838Y-86249700D01*
X133083386Y-79809517D01*
X133083393Y-79809506D01*
X133083401Y-79809501D01*
X133165246Y-79687011D01*
X133248139Y-79562959D01*
X133248141Y-79562950D01*
X133248148Y-79562939D01*
X133279057Y-79407551D01*
X133306000Y-79272122D01*
X133305998Y-79272111D01*
X133306000Y-79272100D01*
X133306000Y-75389664D01*
X133387539Y-75444146D01*
G36*
X130328878Y-79794557D02*
X130328838Y-79840067D01*
X130470883Y-80183843D01*
X130515088Y-80228125D01*
X125330343Y-85412578D01*
X125284833Y-85412538D01*
X124941057Y-85554583D01*
X124899335Y-85596233D01*
X118927000Y-79623898D01*
X118927000Y-72902696D01*
X119089161Y-73011048D01*
X119105620Y-73014322D01*
X124110878Y-78019580D01*
X124110838Y-78065067D01*
X124252883Y-78408843D01*
X124515673Y-78672092D01*
X124859201Y-78814738D01*
X125231167Y-78815062D01*
X125574943Y-78673017D01*
X125838192Y-78410227D01*
X125980838Y-78066699D01*
X125981162Y-77694733D01*
X125839117Y-77350957D01*
X125576327Y-77087708D01*
X125232799Y-76945062D01*
X125185923Y-76945021D01*
X120691117Y-72450215D01*
X120695041Y-72447690D01*
X120840031Y-72235490D01*
X120891040Y-71983600D01*
X120891040Y-70356190D01*
X130328878Y-79794557D01*
X130328878Y-79794557D01*
G37*
X130328878Y-79794557D02*
X130328838Y-79840067D01*
X130470883Y-80183843D01*
X130515088Y-80228125D01*
X125330343Y-85412578D01*
X125284833Y-85412538D01*
X124941057Y-85554583D01*
X124899335Y-85596233D01*
X118927000Y-79623898D01*
X118927000Y-72902696D01*
X119089161Y-73011048D01*
X119105620Y-73014322D01*
X124110878Y-78019580D01*
X124110838Y-78065067D01*
X124252883Y-78408843D01*
X124515673Y-78672092D01*
X124859201Y-78814738D01*
X125231167Y-78815062D01*
X125574943Y-78673017D01*
X125838192Y-78410227D01*
X125980838Y-78066699D01*
X125981162Y-77694733D01*
X125839117Y-77350957D01*
X125576327Y-77087708D01*
X125232799Y-76945062D01*
X125185923Y-76945021D01*
X120691117Y-72450215D01*
X120695041Y-72447690D01*
X120840031Y-72235490D01*
X120891040Y-71983600D01*
X120891040Y-70356190D01*
X130328878Y-79794557D01*
M02*
