M48
;DRILL file {KiCad 4.0.2+dfsg1-stable} date Sun 23 Dec 2018 20:21:35 CET
;FORMAT={-:-/ absolute / metric / decimal}
FMAT,2
METRIC,TZ
T1C0.300
T2C0.400
T3C0.500
T4C0.550
T5C1.016
T6C3.048
T7C0.899
%
G90
G05
M71
T1
X117.348Y-74.803
X120.747Y-76.581
X122.603Y-90.065
X123.046Y-83.674
X123.21Y-77.371
X127.Y-82.721
X128.342Y-63.439
X128.651Y-84.836
X131.191Y-66.421
X131.607Y-83.078
X134.816Y-63.599
X136.779Y-74.041
X136.906Y-75.565
X137.087Y-70.788
X137.322Y-66.367
X139.304Y-63.599
X139.726Y-90.13
X140.049Y-83.75
X140.095Y-82.15
X153.478Y-64.719
X159.151Y-94.439
X161.185Y-74.045
X167.736Y-80.544
T2
X124.84Y-99.18
X125.046Y-77.88
X125.47Y-86.348
X126.309Y-101.6
X126.432Y-73.829
X129.489Y-102.689
X131.264Y-79.655
X133.171Y-74.062
X133.192Y-86.241
X134.061Y-74.199
X134.29Y-85.413
X134.62Y-102.72
X134.996Y-80.487
X135.439Y-84.571
X136.004Y-96.672
X137.643Y-62.684
X137.857Y-82.64
X138.304Y-80.423
X139.048Y-85.413
X139.911Y-80.138
X140.36Y-70.702
X143.174Y-77.961
X145.354Y-84.139
X145.354Y-86.455
X147.01Y-105.325
X149.12Y-97.163
X152.402Y-98.236
X157.776Y-69.333
X157.853Y-97.094
X158.931Y-99.025
X161.525Y-62.572
X162.353Y-96.847
X168.016Y-98.711
X170.651Y-97.7
T5
X116.84Y-66.04
X116.84Y-68.58
X116.84Y-71.12
X119.38Y-66.04
X119.38Y-68.58
X119.38Y-71.12
X124.46Y-118.11
X124.46Y-120.65
X133.35Y-118.11
X133.35Y-120.65
X135.89Y-118.11
X135.89Y-120.65
X138.43Y-118.11
X138.43Y-120.65
X140.97Y-118.11
X140.97Y-120.65
X143.51Y-118.11
X143.51Y-120.65
X146.05Y-118.11
X146.05Y-120.65
X148.59Y-118.11
X148.59Y-120.65
X151.13Y-118.11
X151.13Y-120.65
X153.67Y-118.11
X153.67Y-120.65
X154.94Y-78.74
X156.21Y-118.11
X156.21Y-120.65
X157.48Y-78.74
X158.75Y-118.11
X158.75Y-120.65
X160.02Y-78.74
X161.29Y-118.11
X161.29Y-120.65
X163.83Y-118.11
X163.83Y-120.65
X166.37Y-118.11
X166.37Y-120.65
X168.91Y-118.11
X168.91Y-120.65
X171.45Y-118.11
X171.45Y-120.65
X173.99Y-88.9
X173.99Y-118.11
X173.99Y-120.65
X176.53Y-88.9
X179.07Y-88.9
X181.61Y-88.9
X189.23Y-71.12
X191.77Y-71.12
X194.31Y-71.12
X196.85Y-71.12
T6
X107.95Y-61.722
X124.46Y-113.03
X181.61Y-62.23
X181.61Y-113.03
T7
X152.74Y-63.081
X157.14Y-63.081
T3
X164.141Y-59.498G85X164.141Y-60.148
G05
X171.141Y-59.498G85X171.141Y-60.148
G05
T4
X165.291Y-62.523G85X164.991Y-62.523
G05
X170.291Y-62.523G85X169.991Y-62.523
G05
T0
M30
