%TF.GenerationSoftware,KiCad,Pcbnew,4.0.2+dfsg1-stable*%
%TF.CreationDate,2018-12-23T20:21:32+01:00*%
%TF.ProjectId,usbavrfloppy,757362617672666C6F7070792E6B6963,rev?*%
%TF.FileFunction,Legend,Bot*%
%FSLAX46Y46*%
G04 Gerber Fmt 4.6, Leading zero omitted, Abs format (unit mm)*
G04 Created by KiCad (PCBNEW 4.0.2+dfsg1-stable) date Sun 23 Dec 2018 20:21:32 CET*
%MOMM*%
G01*
G04 APERTURE LIST*
%ADD10C,0.100000*%
%ADD11C,0.300000*%
%ADD12C,0.010000*%
%ADD13R,1.727200X2.032000*%
%ADD14O,1.727200X2.032000*%
%ADD15R,1.727200X1.727200*%
%ADD16O,1.727200X1.727200*%
%ADD17R,2.032000X2.032000*%
%ADD18O,2.032000X2.032000*%
%ADD19O,1.250000X0.950000*%
%ADD20O,1.000000X1.550000*%
%ADD21C,4.064000*%
%ADD22C,0.899160*%
%ADD23C,0.600000*%
G04 APERTURE END LIST*
D10*
D11*
X120492857Y-61638571D02*
X120492857Y-60638571D01*
X120492857Y-60138571D02*
X120421428Y-60210000D01*
X120492857Y-60281429D01*
X120564285Y-60210000D01*
X120492857Y-60138571D01*
X120492857Y-60281429D01*
X121207143Y-60638571D02*
X121207143Y-61638571D01*
X121207143Y-60781429D02*
X121278571Y-60710000D01*
X121421429Y-60638571D01*
X121635714Y-60638571D01*
X121778571Y-60710000D01*
X121850000Y-60852857D01*
X121850000Y-61638571D01*
X123707143Y-61638571D02*
X123707143Y-60638571D01*
X123707143Y-60781429D02*
X123778571Y-60710000D01*
X123921429Y-60638571D01*
X124135714Y-60638571D01*
X124278571Y-60710000D01*
X124350000Y-60852857D01*
X124350000Y-61638571D01*
X124350000Y-60852857D02*
X124421429Y-60710000D01*
X124564286Y-60638571D01*
X124778571Y-60638571D01*
X124921429Y-60710000D01*
X124992857Y-60852857D01*
X124992857Y-61638571D01*
X126278571Y-61567143D02*
X126135714Y-61638571D01*
X125850000Y-61638571D01*
X125707143Y-61567143D01*
X125635714Y-61424286D01*
X125635714Y-60852857D01*
X125707143Y-60710000D01*
X125850000Y-60638571D01*
X126135714Y-60638571D01*
X126278571Y-60710000D01*
X126350000Y-60852857D01*
X126350000Y-60995714D01*
X125635714Y-61138571D01*
X126992857Y-61638571D02*
X126992857Y-60638571D01*
X126992857Y-60781429D02*
X127064285Y-60710000D01*
X127207143Y-60638571D01*
X127421428Y-60638571D01*
X127564285Y-60710000D01*
X127635714Y-60852857D01*
X127635714Y-61638571D01*
X127635714Y-60852857D02*
X127707143Y-60710000D01*
X127850000Y-60638571D01*
X128064285Y-60638571D01*
X128207143Y-60710000D01*
X128278571Y-60852857D01*
X128278571Y-61638571D01*
X129207143Y-61638571D02*
X129064285Y-61567143D01*
X128992857Y-61495714D01*
X128921428Y-61352857D01*
X128921428Y-60924286D01*
X128992857Y-60781429D01*
X129064285Y-60710000D01*
X129207143Y-60638571D01*
X129421428Y-60638571D01*
X129564285Y-60710000D01*
X129635714Y-60781429D01*
X129707143Y-60924286D01*
X129707143Y-61352857D01*
X129635714Y-61495714D01*
X129564285Y-61567143D01*
X129421428Y-61638571D01*
X129207143Y-61638571D01*
X130350000Y-61638571D02*
X130350000Y-60638571D01*
X130350000Y-60924286D02*
X130421428Y-60781429D01*
X130492857Y-60710000D01*
X130635714Y-60638571D01*
X130778571Y-60638571D01*
X131278571Y-61638571D02*
X131278571Y-60638571D01*
X131278571Y-60138571D02*
X131207142Y-60210000D01*
X131278571Y-60281429D01*
X131349999Y-60210000D01*
X131278571Y-60138571D01*
X131278571Y-60281429D01*
X132635714Y-61638571D02*
X132635714Y-60852857D01*
X132564285Y-60710000D01*
X132421428Y-60638571D01*
X132135714Y-60638571D01*
X131992857Y-60710000D01*
X132635714Y-61567143D02*
X132492857Y-61638571D01*
X132135714Y-61638571D01*
X131992857Y-61567143D01*
X131921428Y-61424286D01*
X131921428Y-61281429D01*
X131992857Y-61138571D01*
X132135714Y-61067143D01*
X132492857Y-61067143D01*
X132635714Y-60995714D01*
X133350000Y-61638571D02*
X133350000Y-60638571D01*
X133350000Y-60781429D02*
X133421428Y-60710000D01*
X133564286Y-60638571D01*
X133778571Y-60638571D01*
X133921428Y-60710000D01*
X133992857Y-60852857D01*
X133992857Y-61638571D01*
X133992857Y-60852857D02*
X134064286Y-60710000D01*
X134207143Y-60638571D01*
X134421428Y-60638571D01*
X134564286Y-60710000D01*
X134635714Y-60852857D01*
X134635714Y-61638571D01*
X136421428Y-61210000D02*
X137135714Y-61210000D01*
X136278571Y-61638571D02*
X136778571Y-60138571D01*
X137278571Y-61638571D01*
X137778571Y-61495714D02*
X137849999Y-61567143D01*
X137778571Y-61638571D01*
X137707142Y-61567143D01*
X137778571Y-61495714D01*
X137778571Y-61638571D01*
X138421428Y-61567143D02*
X138635714Y-61638571D01*
X138992857Y-61638571D01*
X139135714Y-61567143D01*
X139207143Y-61495714D01*
X139278571Y-61352857D01*
X139278571Y-61210000D01*
X139207143Y-61067143D01*
X139135714Y-60995714D01*
X138992857Y-60924286D01*
X138707143Y-60852857D01*
X138564285Y-60781429D01*
X138492857Y-60710000D01*
X138421428Y-60567143D01*
X138421428Y-60424286D01*
X138492857Y-60281429D01*
X138564285Y-60210000D01*
X138707143Y-60138571D01*
X139064285Y-60138571D01*
X139278571Y-60210000D01*
X139921428Y-61495714D02*
X139992856Y-61567143D01*
X139921428Y-61638571D01*
X139849999Y-61567143D01*
X139921428Y-61495714D01*
X139921428Y-61638571D01*
X140635714Y-61067143D02*
X141778571Y-61067143D01*
X143278571Y-60210000D02*
X143135714Y-60138571D01*
X142921428Y-60138571D01*
X142707143Y-60210000D01*
X142564285Y-60352857D01*
X142492857Y-60495714D01*
X142421428Y-60781429D01*
X142421428Y-60995714D01*
X142492857Y-61281429D01*
X142564285Y-61424286D01*
X142707143Y-61567143D01*
X142921428Y-61638571D01*
X143064285Y-61638571D01*
X143278571Y-61567143D01*
X143350000Y-61495714D01*
X143350000Y-60995714D01*
X143064285Y-60995714D01*
X143992857Y-61495714D02*
X144064285Y-61567143D01*
X143992857Y-61638571D01*
X143921428Y-61567143D01*
X143992857Y-61495714D01*
X143992857Y-61638571D01*
X144707143Y-61638571D02*
X144707143Y-60138571D01*
X145064286Y-60138571D01*
X145278571Y-60210000D01*
X145421429Y-60352857D01*
X145492857Y-60495714D01*
X145564286Y-60781429D01*
X145564286Y-60995714D01*
X145492857Y-61281429D01*
X145421429Y-61424286D01*
X145278571Y-61567143D01*
X145064286Y-61638571D01*
X144707143Y-61638571D01*
X146207143Y-61495714D02*
X146278571Y-61567143D01*
X146207143Y-61638571D01*
X146135714Y-61567143D01*
X146207143Y-61495714D01*
X146207143Y-61638571D01*
X142554286Y-82228571D02*
X142554286Y-83728571D01*
X142554286Y-82300000D02*
X142697143Y-82228571D01*
X142982857Y-82228571D01*
X143125714Y-82300000D01*
X143197143Y-82371429D01*
X143268572Y-82514286D01*
X143268572Y-82942857D01*
X143197143Y-83085714D01*
X143125714Y-83157143D01*
X142982857Y-83228571D01*
X142697143Y-83228571D01*
X142554286Y-83157143D01*
X144125715Y-83228571D02*
X143982857Y-83157143D01*
X143911429Y-83085714D01*
X143840000Y-82942857D01*
X143840000Y-82514286D01*
X143911429Y-82371429D01*
X143982857Y-82300000D01*
X144125715Y-82228571D01*
X144340000Y-82228571D01*
X144482857Y-82300000D01*
X144554286Y-82371429D01*
X144625715Y-82514286D01*
X144625715Y-82942857D01*
X144554286Y-83085714D01*
X144482857Y-83157143D01*
X144340000Y-83228571D01*
X144125715Y-83228571D01*
X145125715Y-82228571D02*
X145411429Y-83228571D01*
X145697143Y-82514286D01*
X145982858Y-83228571D01*
X146268572Y-82228571D01*
X147411429Y-83157143D02*
X147268572Y-83228571D01*
X146982858Y-83228571D01*
X146840001Y-83157143D01*
X146768572Y-83014286D01*
X146768572Y-82442857D01*
X146840001Y-82300000D01*
X146982858Y-82228571D01*
X147268572Y-82228571D01*
X147411429Y-82300000D01*
X147482858Y-82442857D01*
X147482858Y-82585714D01*
X146768572Y-82728571D01*
X148125715Y-83228571D02*
X148125715Y-82228571D01*
X148125715Y-82514286D02*
X148197143Y-82371429D01*
X148268572Y-82300000D01*
X148411429Y-82228571D01*
X148554286Y-82228571D01*
X149625714Y-83157143D02*
X149482857Y-83228571D01*
X149197143Y-83228571D01*
X149054286Y-83157143D01*
X148982857Y-83014286D01*
X148982857Y-82442857D01*
X149054286Y-82300000D01*
X149197143Y-82228571D01*
X149482857Y-82228571D01*
X149625714Y-82300000D01*
X149697143Y-82442857D01*
X149697143Y-82585714D01*
X148982857Y-82728571D01*
X150982857Y-83228571D02*
X150982857Y-81728571D01*
X150982857Y-83157143D02*
X150840000Y-83228571D01*
X150554286Y-83228571D01*
X150411428Y-83157143D01*
X150340000Y-83085714D01*
X150268571Y-82942857D01*
X150268571Y-82514286D01*
X150340000Y-82371429D01*
X150411428Y-82300000D01*
X150554286Y-82228571D01*
X150840000Y-82228571D01*
X150982857Y-82300000D01*
X152840000Y-83228571D02*
X152840000Y-81728571D01*
X152840000Y-82300000D02*
X152982857Y-82228571D01*
X153268571Y-82228571D01*
X153411428Y-82300000D01*
X153482857Y-82371429D01*
X153554286Y-82514286D01*
X153554286Y-82942857D01*
X153482857Y-83085714D01*
X153411428Y-83157143D01*
X153268571Y-83228571D01*
X152982857Y-83228571D01*
X152840000Y-83157143D01*
X154054286Y-82228571D02*
X154411429Y-83228571D01*
X154768571Y-82228571D02*
X154411429Y-83228571D01*
X154268571Y-83585714D01*
X154197143Y-83657143D01*
X154054286Y-83728571D01*
D12*
G36*
X161788444Y-84342284D02*
X161242834Y-84430311D01*
X160779140Y-84590106D01*
X160713218Y-84623859D01*
X160178229Y-85001184D01*
X159697745Y-85508116D01*
X159306807Y-86106053D01*
X159231328Y-86256424D01*
X159116104Y-86509285D01*
X159039412Y-86719674D01*
X158993444Y-86933505D01*
X158970389Y-87196688D01*
X158962437Y-87555135D01*
X158961667Y-87841666D01*
X158964959Y-88288607D01*
X158979310Y-88610638D01*
X159011430Y-88852126D01*
X159068031Y-89057438D01*
X159155824Y-89270941D01*
X159188578Y-89341796D01*
X159520491Y-89890582D01*
X159963706Y-90392998D01*
X160468782Y-90795895D01*
X160631795Y-90893158D01*
X160872523Y-91013303D01*
X161097206Y-91089389D01*
X161360958Y-91133294D01*
X161718895Y-91156896D01*
X161882667Y-91162749D01*
X162425565Y-91160960D01*
X162827627Y-91118119D01*
X162993300Y-91073853D01*
X163576698Y-90779196D01*
X164038780Y-90382774D01*
X164368246Y-89899752D01*
X164553792Y-89345292D01*
X164592000Y-88928877D01*
X164592000Y-88646000D01*
X163364333Y-88646000D01*
X162876702Y-88648417D01*
X162534465Y-88657317D01*
X162313732Y-88675172D01*
X162190612Y-88704452D01*
X162141213Y-88747629D01*
X162136667Y-88773000D01*
X162175680Y-88846743D01*
X162313981Y-88886335D01*
X162583459Y-88899749D01*
X162644667Y-88900000D01*
X163152667Y-88900000D01*
X163152535Y-89513833D01*
X163107242Y-90068387D01*
X162972356Y-90484332D01*
X162748968Y-90758855D01*
X162644667Y-90823740D01*
X162444955Y-90881645D01*
X162150619Y-90920585D01*
X161916354Y-90930751D01*
X161436351Y-90877205D01*
X161058382Y-90701784D01*
X160751310Y-90386241D01*
X160612667Y-90166723D01*
X160541107Y-90031952D01*
X160487245Y-89900494D01*
X160448055Y-89745758D01*
X160420512Y-89541157D01*
X160401593Y-89260101D01*
X160388272Y-88876002D01*
X160377524Y-88362271D01*
X160372251Y-88053333D01*
X160365025Y-87317259D01*
X160372643Y-86727543D01*
X160398463Y-86261603D01*
X160445840Y-85896855D01*
X160518133Y-85610713D01*
X160618698Y-85380594D01*
X160750892Y-85183914D01*
X160809108Y-85114394D01*
X161156987Y-84807676D01*
X161560344Y-84635901D01*
X162059382Y-84582002D01*
X162063009Y-84581999D01*
X162568894Y-84659609D01*
X163005516Y-84889498D01*
X163367813Y-85267254D01*
X163650724Y-85788464D01*
X163744095Y-86047319D01*
X163834132Y-86262240D01*
X163939549Y-86343492D01*
X164016871Y-86343653D01*
X164105411Y-86313503D01*
X164156167Y-86231929D01*
X164178787Y-86061669D01*
X164182915Y-85765462D01*
X164182504Y-85703833D01*
X164179508Y-85393264D01*
X164176229Y-85150064D01*
X164173337Y-85023062D01*
X164173123Y-85019071D01*
X164096562Y-84938573D01*
X163901625Y-84822005D01*
X163629888Y-84688883D01*
X163322924Y-84558724D01*
X163022307Y-84451045D01*
X162869760Y-84407215D01*
X162352057Y-84332445D01*
X161788444Y-84342284D01*
X161788444Y-84342284D01*
G37*
X161788444Y-84342284D02*
X161242834Y-84430311D01*
X160779140Y-84590106D01*
X160713218Y-84623859D01*
X160178229Y-85001184D01*
X159697745Y-85508116D01*
X159306807Y-86106053D01*
X159231328Y-86256424D01*
X159116104Y-86509285D01*
X159039412Y-86719674D01*
X158993444Y-86933505D01*
X158970389Y-87196688D01*
X158962437Y-87555135D01*
X158961667Y-87841666D01*
X158964959Y-88288607D01*
X158979310Y-88610638D01*
X159011430Y-88852126D01*
X159068031Y-89057438D01*
X159155824Y-89270941D01*
X159188578Y-89341796D01*
X159520491Y-89890582D01*
X159963706Y-90392998D01*
X160468782Y-90795895D01*
X160631795Y-90893158D01*
X160872523Y-91013303D01*
X161097206Y-91089389D01*
X161360958Y-91133294D01*
X161718895Y-91156896D01*
X161882667Y-91162749D01*
X162425565Y-91160960D01*
X162827627Y-91118119D01*
X162993300Y-91073853D01*
X163576698Y-90779196D01*
X164038780Y-90382774D01*
X164368246Y-89899752D01*
X164553792Y-89345292D01*
X164592000Y-88928877D01*
X164592000Y-88646000D01*
X163364333Y-88646000D01*
X162876702Y-88648417D01*
X162534465Y-88657317D01*
X162313732Y-88675172D01*
X162190612Y-88704452D01*
X162141213Y-88747629D01*
X162136667Y-88773000D01*
X162175680Y-88846743D01*
X162313981Y-88886335D01*
X162583459Y-88899749D01*
X162644667Y-88900000D01*
X163152667Y-88900000D01*
X163152535Y-89513833D01*
X163107242Y-90068387D01*
X162972356Y-90484332D01*
X162748968Y-90758855D01*
X162644667Y-90823740D01*
X162444955Y-90881645D01*
X162150619Y-90920585D01*
X161916354Y-90930751D01*
X161436351Y-90877205D01*
X161058382Y-90701784D01*
X160751310Y-90386241D01*
X160612667Y-90166723D01*
X160541107Y-90031952D01*
X160487245Y-89900494D01*
X160448055Y-89745758D01*
X160420512Y-89541157D01*
X160401593Y-89260101D01*
X160388272Y-88876002D01*
X160377524Y-88362271D01*
X160372251Y-88053333D01*
X160365025Y-87317259D01*
X160372643Y-86727543D01*
X160398463Y-86261603D01*
X160445840Y-85896855D01*
X160518133Y-85610713D01*
X160618698Y-85380594D01*
X160750892Y-85183914D01*
X160809108Y-85114394D01*
X161156987Y-84807676D01*
X161560344Y-84635901D01*
X162059382Y-84582002D01*
X162063009Y-84581999D01*
X162568894Y-84659609D01*
X163005516Y-84889498D01*
X163367813Y-85267254D01*
X163650724Y-85788464D01*
X163744095Y-86047319D01*
X163834132Y-86262240D01*
X163939549Y-86343492D01*
X164016871Y-86343653D01*
X164105411Y-86313503D01*
X164156167Y-86231929D01*
X164178787Y-86061669D01*
X164182915Y-85765462D01*
X164182504Y-85703833D01*
X164179508Y-85393264D01*
X164176229Y-85150064D01*
X164173337Y-85023062D01*
X164173123Y-85019071D01*
X164096562Y-84938573D01*
X163901625Y-84822005D01*
X163629888Y-84688883D01*
X163322924Y-84558724D01*
X163022307Y-84451045D01*
X162869760Y-84407215D01*
X162352057Y-84332445D01*
X161788444Y-84342284D01*
G36*
X167400729Y-84374869D02*
X167337070Y-84460047D01*
X167254969Y-84613281D01*
X167149064Y-84847629D01*
X167013989Y-85176147D01*
X166844381Y-85611892D01*
X166634875Y-86167923D01*
X166380107Y-86857295D01*
X166074713Y-87693067D01*
X166066850Y-87714666D01*
X165807447Y-88427695D01*
X165566847Y-89089763D01*
X165351051Y-89684305D01*
X165166059Y-90194756D01*
X165017871Y-90604552D01*
X164912488Y-90897129D01*
X164855909Y-91055921D01*
X164847762Y-91080166D01*
X164916447Y-91097938D01*
X164994167Y-91100902D01*
X165073990Y-91060274D01*
X165165501Y-90925292D01*
X165278816Y-90675635D01*
X165424050Y-90290983D01*
X165489406Y-90106069D01*
X165836479Y-89111666D01*
X168000935Y-89111666D01*
X168349217Y-90106500D01*
X168697498Y-91101333D01*
X169650416Y-91101333D01*
X170075644Y-91097514D01*
X170357408Y-91083859D01*
X170521455Y-91057068D01*
X170593527Y-91013841D01*
X170603333Y-90979201D01*
X170527228Y-90885479D01*
X170294327Y-90834759D01*
X170250294Y-90831034D01*
X170062683Y-90811378D01*
X169942631Y-90762222D01*
X169855239Y-90646737D01*
X169765608Y-90428091D01*
X169704169Y-90254666D01*
X169627885Y-90036747D01*
X169504548Y-89683810D01*
X169342842Y-89220734D01*
X169179179Y-88751833D01*
X167814801Y-88751833D01*
X167733563Y-88777508D01*
X167517665Y-88798206D01*
X167201760Y-88811548D01*
X166889305Y-88815333D01*
X165969276Y-88815333D01*
X166444805Y-87503310D01*
X166605709Y-87066239D01*
X166748525Y-86691233D01*
X166862862Y-86404553D01*
X166938332Y-86232462D01*
X166962667Y-86194241D01*
X167000577Y-86270465D01*
X167078310Y-86475019D01*
X167184812Y-86774725D01*
X167309028Y-87136404D01*
X167439904Y-87526876D01*
X167566386Y-87912964D01*
X167677418Y-88261488D01*
X167761947Y-88539269D01*
X167808918Y-88713129D01*
X167814801Y-88751833D01*
X169179179Y-88751833D01*
X169151453Y-88672399D01*
X168939066Y-88063682D01*
X168714364Y-87419465D01*
X168625395Y-87164333D01*
X168406275Y-86536586D01*
X168203067Y-85955664D01*
X168022992Y-85442113D01*
X167873270Y-85016480D01*
X167761123Y-84699310D01*
X167693771Y-84511151D01*
X167679078Y-84471690D01*
X167553317Y-84352866D01*
X167451312Y-84344690D01*
X167400729Y-84374869D01*
X167400729Y-84374869D01*
G37*
X167400729Y-84374869D02*
X167337070Y-84460047D01*
X167254969Y-84613281D01*
X167149064Y-84847629D01*
X167013989Y-85176147D01*
X166844381Y-85611892D01*
X166634875Y-86167923D01*
X166380107Y-86857295D01*
X166074713Y-87693067D01*
X166066850Y-87714666D01*
X165807447Y-88427695D01*
X165566847Y-89089763D01*
X165351051Y-89684305D01*
X165166059Y-90194756D01*
X165017871Y-90604552D01*
X164912488Y-90897129D01*
X164855909Y-91055921D01*
X164847762Y-91080166D01*
X164916447Y-91097938D01*
X164994167Y-91100902D01*
X165073990Y-91060274D01*
X165165501Y-90925292D01*
X165278816Y-90675635D01*
X165424050Y-90290983D01*
X165489406Y-90106069D01*
X165836479Y-89111666D01*
X168000935Y-89111666D01*
X168349217Y-90106500D01*
X168697498Y-91101333D01*
X169650416Y-91101333D01*
X170075644Y-91097514D01*
X170357408Y-91083859D01*
X170521455Y-91057068D01*
X170593527Y-91013841D01*
X170603333Y-90979201D01*
X170527228Y-90885479D01*
X170294327Y-90834759D01*
X170250294Y-90831034D01*
X170062683Y-90811378D01*
X169942631Y-90762222D01*
X169855239Y-90646737D01*
X169765608Y-90428091D01*
X169704169Y-90254666D01*
X169627885Y-90036747D01*
X169504548Y-89683810D01*
X169342842Y-89220734D01*
X169179179Y-88751833D01*
X167814801Y-88751833D01*
X167733563Y-88777508D01*
X167517665Y-88798206D01*
X167201760Y-88811548D01*
X166889305Y-88815333D01*
X165969276Y-88815333D01*
X166444805Y-87503310D01*
X166605709Y-87066239D01*
X166748525Y-86691233D01*
X166862862Y-86404553D01*
X166938332Y-86232462D01*
X166962667Y-86194241D01*
X167000577Y-86270465D01*
X167078310Y-86475019D01*
X167184812Y-86774725D01*
X167309028Y-87136404D01*
X167439904Y-87526876D01*
X167566386Y-87912964D01*
X167677418Y-88261488D01*
X167761947Y-88539269D01*
X167808918Y-88713129D01*
X167814801Y-88751833D01*
X169179179Y-88751833D01*
X169151453Y-88672399D01*
X168939066Y-88063682D01*
X168714364Y-87419465D01*
X168625395Y-87164333D01*
X168406275Y-86536586D01*
X168203067Y-85955664D01*
X168022992Y-85442113D01*
X167873270Y-85016480D01*
X167761123Y-84699310D01*
X167693771Y-84511151D01*
X167679078Y-84471690D01*
X167553317Y-84352866D01*
X167451312Y-84344690D01*
X167400729Y-84374869D01*
G36*
X156105197Y-87651166D02*
X156083000Y-90805000D01*
X155638500Y-90830591D01*
X155355095Y-90862795D01*
X155216875Y-90922637D01*
X155194000Y-90978757D01*
X155218004Y-91022729D01*
X155304003Y-91055093D01*
X155472976Y-91077491D01*
X155745902Y-91091566D01*
X156143760Y-91098959D01*
X156687531Y-91101311D01*
X156760333Y-91101333D01*
X157322086Y-91099462D01*
X157735537Y-91092752D01*
X158021688Y-91079556D01*
X158201541Y-91058229D01*
X158296097Y-91027124D01*
X158326359Y-90984594D01*
X158326667Y-90978558D01*
X158274370Y-90901046D01*
X158100485Y-90853290D01*
X157839833Y-90830391D01*
X157353000Y-90805000D01*
X157330764Y-87778166D01*
X157308528Y-84751333D01*
X157817597Y-84751333D01*
X158112922Y-84741616D01*
X158271631Y-84707161D01*
X158325611Y-84640015D01*
X158326667Y-84624333D01*
X158302127Y-84571418D01*
X158211801Y-84535159D01*
X158030633Y-84512661D01*
X157733565Y-84501031D01*
X157295539Y-84497374D01*
X157227031Y-84497333D01*
X156127394Y-84497333D01*
X156105197Y-87651166D01*
X156105197Y-87651166D01*
G37*
X156105197Y-87651166D02*
X156083000Y-90805000D01*
X155638500Y-90830591D01*
X155355095Y-90862795D01*
X155216875Y-90922637D01*
X155194000Y-90978757D01*
X155218004Y-91022729D01*
X155304003Y-91055093D01*
X155472976Y-91077491D01*
X155745902Y-91091566D01*
X156143760Y-91098959D01*
X156687531Y-91101311D01*
X156760333Y-91101333D01*
X157322086Y-91099462D01*
X157735537Y-91092752D01*
X158021688Y-91079556D01*
X158201541Y-91058229D01*
X158296097Y-91027124D01*
X158326359Y-90984594D01*
X158326667Y-90978558D01*
X158274370Y-90901046D01*
X158100485Y-90853290D01*
X157839833Y-90830391D01*
X157353000Y-90805000D01*
X157330764Y-87778166D01*
X157308528Y-84751333D01*
X157817597Y-84751333D01*
X158112922Y-84741616D01*
X158271631Y-84707161D01*
X158325611Y-84640015D01*
X158326667Y-84624333D01*
X158302127Y-84571418D01*
X158211801Y-84535159D01*
X158030633Y-84512661D01*
X157733565Y-84501031D01*
X157295539Y-84497374D01*
X157227031Y-84497333D01*
X156127394Y-84497333D01*
X156105197Y-87651166D01*
G36*
X153060052Y-84515322D02*
X152280770Y-84539666D01*
X151599552Y-86631004D01*
X151414332Y-87195674D01*
X151244416Y-87706184D01*
X151097266Y-88140709D01*
X150980347Y-88477427D01*
X150901121Y-88694514D01*
X150868159Y-88769622D01*
X150831152Y-88704925D01*
X150752278Y-88498492D01*
X150638439Y-88170745D01*
X150496538Y-87742106D01*
X150333479Y-87232998D01*
X150156164Y-86663843D01*
X150154097Y-86657118D01*
X149490209Y-84497333D01*
X148186382Y-84497333D01*
X147668763Y-84500462D01*
X147301696Y-84510890D01*
X147066498Y-84530174D01*
X146944484Y-84559872D01*
X146916971Y-84601543D01*
X146917467Y-84603166D01*
X147020751Y-84671244D01*
X147257397Y-84719517D01*
X147432523Y-84734391D01*
X147912667Y-84759783D01*
X147912667Y-87930558D01*
X147912892Y-88746128D01*
X147914138Y-89408332D01*
X147917255Y-89933137D01*
X147923098Y-90336512D01*
X147932519Y-90634423D01*
X147946370Y-90842838D01*
X147965504Y-90977725D01*
X147990775Y-91055051D01*
X148023034Y-91090783D01*
X148063135Y-91100889D01*
X148082000Y-91101333D01*
X148126488Y-91096904D01*
X148162459Y-91072725D01*
X148190861Y-91012453D01*
X148212645Y-90899748D01*
X148228759Y-90718268D01*
X148240152Y-90451672D01*
X148247773Y-90083620D01*
X148252571Y-89597769D01*
X148255495Y-88977780D01*
X148257494Y-88207310D01*
X148257779Y-88074500D01*
X148264225Y-85047666D01*
X148758963Y-86571666D01*
X148962993Y-87201993D01*
X149194155Y-87919110D01*
X149429460Y-88651525D01*
X149645921Y-89327744D01*
X149733833Y-89603386D01*
X149904733Y-90134666D01*
X150035759Y-90524609D01*
X150136076Y-90793954D01*
X150214849Y-90963442D01*
X150281243Y-91053812D01*
X150344422Y-91085805D01*
X150388559Y-91085052D01*
X150440049Y-91060361D01*
X150497564Y-90991479D01*
X150566648Y-90863664D01*
X150652840Y-90662175D01*
X150761685Y-90372270D01*
X150898724Y-89979207D01*
X151069499Y-89468245D01*
X151279553Y-88824643D01*
X151526761Y-88057538D01*
X151745719Y-87377692D01*
X151949320Y-86749686D01*
X152131621Y-86191536D01*
X152286681Y-85721257D01*
X152408556Y-85356862D01*
X152491306Y-85116366D01*
X152528986Y-85017785D01*
X152529851Y-85016593D01*
X152538878Y-85088862D01*
X152547180Y-85311938D01*
X152554515Y-85667295D01*
X152560639Y-86136407D01*
X152565312Y-86700750D01*
X152568290Y-87341797D01*
X152569333Y-88039222D01*
X152569333Y-91101333D01*
X153670000Y-91101333D01*
X154128407Y-91098502D01*
X154442592Y-91088085D01*
X154637605Y-91067190D01*
X154738491Y-91032927D01*
X154770299Y-90982406D01*
X154770667Y-90974333D01*
X154728860Y-90897744D01*
X154582164Y-90858313D01*
X154305000Y-90847333D01*
X153839333Y-90847333D01*
X153839333Y-84490978D01*
X153060052Y-84515322D01*
X153060052Y-84515322D01*
G37*
X153060052Y-84515322D02*
X152280770Y-84539666D01*
X151599552Y-86631004D01*
X151414332Y-87195674D01*
X151244416Y-87706184D01*
X151097266Y-88140709D01*
X150980347Y-88477427D01*
X150901121Y-88694514D01*
X150868159Y-88769622D01*
X150831152Y-88704925D01*
X150752278Y-88498492D01*
X150638439Y-88170745D01*
X150496538Y-87742106D01*
X150333479Y-87232998D01*
X150156164Y-86663843D01*
X150154097Y-86657118D01*
X149490209Y-84497333D01*
X148186382Y-84497333D01*
X147668763Y-84500462D01*
X147301696Y-84510890D01*
X147066498Y-84530174D01*
X146944484Y-84559872D01*
X146916971Y-84601543D01*
X146917467Y-84603166D01*
X147020751Y-84671244D01*
X147257397Y-84719517D01*
X147432523Y-84734391D01*
X147912667Y-84759783D01*
X147912667Y-87930558D01*
X147912892Y-88746128D01*
X147914138Y-89408332D01*
X147917255Y-89933137D01*
X147923098Y-90336512D01*
X147932519Y-90634423D01*
X147946370Y-90842838D01*
X147965504Y-90977725D01*
X147990775Y-91055051D01*
X148023034Y-91090783D01*
X148063135Y-91100889D01*
X148082000Y-91101333D01*
X148126488Y-91096904D01*
X148162459Y-91072725D01*
X148190861Y-91012453D01*
X148212645Y-90899748D01*
X148228759Y-90718268D01*
X148240152Y-90451672D01*
X148247773Y-90083620D01*
X148252571Y-89597769D01*
X148255495Y-88977780D01*
X148257494Y-88207310D01*
X148257779Y-88074500D01*
X148264225Y-85047666D01*
X148758963Y-86571666D01*
X148962993Y-87201993D01*
X149194155Y-87919110D01*
X149429460Y-88651525D01*
X149645921Y-89327744D01*
X149733833Y-89603386D01*
X149904733Y-90134666D01*
X150035759Y-90524609D01*
X150136076Y-90793954D01*
X150214849Y-90963442D01*
X150281243Y-91053812D01*
X150344422Y-91085805D01*
X150388559Y-91085052D01*
X150440049Y-91060361D01*
X150497564Y-90991479D01*
X150566648Y-90863664D01*
X150652840Y-90662175D01*
X150761685Y-90372270D01*
X150898724Y-89979207D01*
X151069499Y-89468245D01*
X151279553Y-88824643D01*
X151526761Y-88057538D01*
X151745719Y-87377692D01*
X151949320Y-86749686D01*
X152131621Y-86191536D01*
X152286681Y-85721257D01*
X152408556Y-85356862D01*
X152491306Y-85116366D01*
X152528986Y-85017785D01*
X152529851Y-85016593D01*
X152538878Y-85088862D01*
X152547180Y-85311938D01*
X152554515Y-85667295D01*
X152560639Y-86136407D01*
X152565312Y-86700750D01*
X152568290Y-87341797D01*
X152569333Y-88039222D01*
X152569333Y-91101333D01*
X153670000Y-91101333D01*
X154128407Y-91098502D01*
X154442592Y-91088085D01*
X154637605Y-91067190D01*
X154738491Y-91032927D01*
X154770299Y-90982406D01*
X154770667Y-90974333D01*
X154728860Y-90897744D01*
X154582164Y-90858313D01*
X154305000Y-90847333D01*
X153839333Y-90847333D01*
X153839333Y-84490978D01*
X153060052Y-84515322D01*
G36*
X144353649Y-84340117D02*
X144330435Y-84344732D01*
X144278923Y-84371842D01*
X144217007Y-84448048D01*
X144139021Y-84587017D01*
X144039299Y-84802415D01*
X143912176Y-85107907D01*
X143751986Y-85517161D01*
X143553062Y-86043841D01*
X143309738Y-86701615D01*
X143016350Y-87504149D01*
X142985941Y-87587666D01*
X142677706Y-88433883D01*
X142422510Y-89134313D01*
X142216015Y-89702484D01*
X142053883Y-90151924D01*
X141931773Y-90496162D01*
X141845348Y-90748726D01*
X141790268Y-90923144D01*
X141762195Y-91032946D01*
X141756790Y-91091658D01*
X141769714Y-91112810D01*
X141796628Y-91109930D01*
X141833194Y-91096546D01*
X141863326Y-91087949D01*
X141957153Y-91009427D01*
X142076271Y-90798643D01*
X142226476Y-90443891D01*
X142359787Y-90085333D01*
X142708570Y-89111666D01*
X144842184Y-89064442D01*
X145209433Y-90082887D01*
X145576682Y-91101333D01*
X146533008Y-91101333D01*
X146959095Y-91097535D01*
X147241683Y-91083951D01*
X147406483Y-91057298D01*
X147479203Y-91014293D01*
X147489333Y-90979201D01*
X147415005Y-90886631D01*
X147186055Y-90835884D01*
X147129500Y-90831034D01*
X146769667Y-90805000D01*
X146054189Y-88751933D01*
X144695333Y-88751933D01*
X144616379Y-88777441D01*
X144402329Y-88798045D01*
X144087400Y-88811410D01*
X143766521Y-88815333D01*
X142837708Y-88815333D01*
X143182581Y-87862833D01*
X143332437Y-87447959D01*
X143474270Y-87053555D01*
X143590578Y-86728389D01*
X143655966Y-86543806D01*
X143743346Y-86342651D01*
X143820527Y-86244677D01*
X143848346Y-86247472D01*
X143893232Y-86345401D01*
X143977958Y-86569682D01*
X144090718Y-86885407D01*
X144219704Y-87257663D01*
X144353110Y-87651539D01*
X144479129Y-88032124D01*
X144585955Y-88364507D01*
X144661780Y-88613776D01*
X144694799Y-88745021D01*
X144695333Y-88751933D01*
X146054189Y-88751933D01*
X146032024Y-88688333D01*
X145701914Y-87740787D01*
X145423035Y-86940679D01*
X145190552Y-86275665D01*
X144999629Y-85733403D01*
X144845430Y-85301547D01*
X144723120Y-84967755D01*
X144627864Y-84719683D01*
X144554825Y-84544987D01*
X144499168Y-84431323D01*
X144456058Y-84366348D01*
X144420658Y-84337718D01*
X144388134Y-84333089D01*
X144353649Y-84340117D01*
X144353649Y-84340117D01*
G37*
X144353649Y-84340117D02*
X144330435Y-84344732D01*
X144278923Y-84371842D01*
X144217007Y-84448048D01*
X144139021Y-84587017D01*
X144039299Y-84802415D01*
X143912176Y-85107907D01*
X143751986Y-85517161D01*
X143553062Y-86043841D01*
X143309738Y-86701615D01*
X143016350Y-87504149D01*
X142985941Y-87587666D01*
X142677706Y-88433883D01*
X142422510Y-89134313D01*
X142216015Y-89702484D01*
X142053883Y-90151924D01*
X141931773Y-90496162D01*
X141845348Y-90748726D01*
X141790268Y-90923144D01*
X141762195Y-91032946D01*
X141756790Y-91091658D01*
X141769714Y-91112810D01*
X141796628Y-91109930D01*
X141833194Y-91096546D01*
X141863326Y-91087949D01*
X141957153Y-91009427D01*
X142076271Y-90798643D01*
X142226476Y-90443891D01*
X142359787Y-90085333D01*
X142708570Y-89111666D01*
X144842184Y-89064442D01*
X145209433Y-90082887D01*
X145576682Y-91101333D01*
X146533008Y-91101333D01*
X146959095Y-91097535D01*
X147241683Y-91083951D01*
X147406483Y-91057298D01*
X147479203Y-91014293D01*
X147489333Y-90979201D01*
X147415005Y-90886631D01*
X147186055Y-90835884D01*
X147129500Y-90831034D01*
X146769667Y-90805000D01*
X146054189Y-88751933D01*
X144695333Y-88751933D01*
X144616379Y-88777441D01*
X144402329Y-88798045D01*
X144087400Y-88811410D01*
X143766521Y-88815333D01*
X142837708Y-88815333D01*
X143182581Y-87862833D01*
X143332437Y-87447959D01*
X143474270Y-87053555D01*
X143590578Y-86728389D01*
X143655966Y-86543806D01*
X143743346Y-86342651D01*
X143820527Y-86244677D01*
X143848346Y-86247472D01*
X143893232Y-86345401D01*
X143977958Y-86569682D01*
X144090718Y-86885407D01*
X144219704Y-87257663D01*
X144353110Y-87651539D01*
X144479129Y-88032124D01*
X144585955Y-88364507D01*
X144661780Y-88613776D01*
X144694799Y-88745021D01*
X144695333Y-88751933D01*
X146054189Y-88751933D01*
X146032024Y-88688333D01*
X145701914Y-87740787D01*
X145423035Y-86940679D01*
X145190552Y-86275665D01*
X144999629Y-85733403D01*
X144845430Y-85301547D01*
X144723120Y-84967755D01*
X144627864Y-84719683D01*
X144554825Y-84544987D01*
X144499168Y-84431323D01*
X144456058Y-84366348D01*
X144420658Y-84337718D01*
X144388134Y-84333089D01*
X144353649Y-84340117D01*
G36*
X157330651Y-81558306D02*
X157121951Y-81621446D01*
X156845332Y-81708747D01*
X156546114Y-81805538D01*
X156269620Y-81897147D01*
X156061170Y-81968903D01*
X155966086Y-82006133D01*
X155964882Y-82007034D01*
X155970646Y-82096597D01*
X156014504Y-82302418D01*
X156084020Y-82579133D01*
X156166757Y-82881381D01*
X156250280Y-83163802D01*
X156322152Y-83381032D01*
X156369936Y-83487711D01*
X156371201Y-83489068D01*
X156469673Y-83489433D01*
X156690139Y-83447916D01*
X156992824Y-83372674D01*
X157141333Y-83331122D01*
X157466546Y-83234651D01*
X157724272Y-83153552D01*
X157875261Y-83100381D01*
X157897654Y-83089178D01*
X157887316Y-83003384D01*
X157836778Y-82800967D01*
X157759142Y-82525138D01*
X157667510Y-82219109D01*
X157574983Y-81926091D01*
X157494665Y-81689293D01*
X157439656Y-81551928D01*
X157426111Y-81534000D01*
X157330651Y-81558306D01*
X157330651Y-81558306D01*
G37*
X157330651Y-81558306D02*
X157121951Y-81621446D01*
X156845332Y-81708747D01*
X156546114Y-81805538D01*
X156269620Y-81897147D01*
X156061170Y-81968903D01*
X155966086Y-82006133D01*
X155964882Y-82007034D01*
X155970646Y-82096597D01*
X156014504Y-82302418D01*
X156084020Y-82579133D01*
X156166757Y-82881381D01*
X156250280Y-83163802D01*
X156322152Y-83381032D01*
X156369936Y-83487711D01*
X156371201Y-83489068D01*
X156469673Y-83489433D01*
X156690139Y-83447916D01*
X156992824Y-83372674D01*
X157141333Y-83331122D01*
X157466546Y-83234651D01*
X157724272Y-83153552D01*
X157875261Y-83100381D01*
X157897654Y-83089178D01*
X157887316Y-83003384D01*
X157836778Y-82800967D01*
X157759142Y-82525138D01*
X157667510Y-82219109D01*
X157574983Y-81926091D01*
X157494665Y-81689293D01*
X157439656Y-81551928D01*
X157426111Y-81534000D01*
X157330651Y-81558306D01*
G36*
X152362597Y-111191226D02*
X152339020Y-111230833D01*
X152232445Y-111327774D01*
X152181278Y-111336667D01*
X152123433Y-111371090D01*
X152086822Y-111492169D01*
X152067461Y-111726613D01*
X152061367Y-112101133D01*
X152061333Y-112141000D01*
X152065466Y-112486633D01*
X152076576Y-112757866D01*
X152092726Y-112917927D01*
X152103666Y-112945333D01*
X152122856Y-112867175D01*
X152137507Y-112658702D01*
X152145310Y-112358921D01*
X152146000Y-112230467D01*
X152150473Y-111874113D01*
X152169774Y-111646791D01*
X152212723Y-111508311D01*
X152288142Y-111418478D01*
X152331392Y-111385748D01*
X152444227Y-111270527D01*
X152446800Y-111190447D01*
X152362597Y-111191226D01*
X152362597Y-111191226D01*
G37*
X152362597Y-111191226D02*
X152339020Y-111230833D01*
X152232445Y-111327774D01*
X152181278Y-111336667D01*
X152123433Y-111371090D01*
X152086822Y-111492169D01*
X152067461Y-111726613D01*
X152061367Y-112101133D01*
X152061333Y-112141000D01*
X152065466Y-112486633D01*
X152076576Y-112757866D01*
X152092726Y-112917927D01*
X152103666Y-112945333D01*
X152122856Y-112867175D01*
X152137507Y-112658702D01*
X152145310Y-112358921D01*
X152146000Y-112230467D01*
X152150473Y-111874113D01*
X152169774Y-111646791D01*
X152212723Y-111508311D01*
X152288142Y-111418478D01*
X152331392Y-111385748D01*
X152444227Y-111270527D01*
X152446800Y-111190447D01*
X152362597Y-111191226D01*
G36*
X143867817Y-103237855D02*
X143835915Y-103280112D01*
X143808835Y-103346984D01*
X143786099Y-103452012D01*
X143767229Y-103608740D01*
X143751748Y-103830707D01*
X143739176Y-104131456D01*
X143729037Y-104524529D01*
X143720851Y-105023467D01*
X143714141Y-105641811D01*
X143708430Y-106393104D01*
X143703238Y-107290887D01*
X143699725Y-107999433D01*
X143695760Y-109183391D01*
X143695933Y-110198544D01*
X143700250Y-111045370D01*
X143708717Y-111724349D01*
X143721342Y-112235958D01*
X143738130Y-112580676D01*
X143759088Y-112758980D01*
X143766203Y-112780117D01*
X143791998Y-112818722D01*
X143834137Y-112850797D01*
X143907296Y-112876944D01*
X144026155Y-112897770D01*
X144205392Y-112913878D01*
X144459686Y-112925873D01*
X144803714Y-112934359D01*
X145252155Y-112939941D01*
X145819688Y-112943223D01*
X146520990Y-112944809D01*
X147370741Y-112945305D01*
X147778278Y-112945333D01*
X148733151Y-112944442D01*
X149531336Y-112941538D01*
X150185471Y-112936273D01*
X150708193Y-112928300D01*
X151112139Y-112917274D01*
X151409948Y-112902845D01*
X151614256Y-112884669D01*
X151737702Y-112862397D01*
X151792922Y-112835683D01*
X151793425Y-112835091D01*
X151837223Y-112704663D01*
X151875865Y-112450727D01*
X151903178Y-112119103D01*
X151909626Y-111972629D01*
X151934333Y-111220410D01*
X152363654Y-111003372D01*
X152668091Y-110801571D01*
X152988072Y-110513698D01*
X153274638Y-110190868D01*
X153478833Y-109884194D01*
X153519105Y-109797005D01*
X153608536Y-109669303D01*
X153667272Y-109643333D01*
X153740054Y-109573640D01*
X153751991Y-109495167D01*
X153739689Y-109435003D01*
X153695990Y-109439592D01*
X153605970Y-109524592D01*
X153454705Y-109705660D01*
X153227273Y-109998453D01*
X153049981Y-110231714D01*
X152863155Y-110454905D01*
X152699463Y-110609631D01*
X152605481Y-110659333D01*
X152496687Y-110695584D01*
X152484666Y-110723332D01*
X152413395Y-110805163D01*
X152246908Y-110891311D01*
X152056198Y-110953703D01*
X151912258Y-110964270D01*
X151893980Y-110956890D01*
X151815167Y-110872687D01*
X151869414Y-110783025D01*
X152070160Y-110671150D01*
X152152775Y-110634289D01*
X152376081Y-110505701D01*
X152621049Y-110317557D01*
X152846779Y-110107849D01*
X153012373Y-109914572D01*
X153076929Y-109775790D01*
X153129879Y-109661187D01*
X153240390Y-109521790D01*
X153388168Y-109300145D01*
X153461235Y-109114167D01*
X153485628Y-108952442D01*
X153418165Y-108890656D01*
X153256843Y-108881333D01*
X153074177Y-108861865D01*
X153012953Y-108779460D01*
X153014831Y-108690833D01*
X152986387Y-108534700D01*
X152865666Y-108488166D01*
X152685418Y-108473719D01*
X152615900Y-108467000D01*
X152594764Y-108413267D01*
X152637066Y-108356400D01*
X152731929Y-108216971D01*
X152696537Y-108145402D01*
X152583478Y-108157177D01*
X152439383Y-108143154D01*
X152327778Y-107985835D01*
X152263765Y-107868996D01*
X152176785Y-107805800D01*
X152022242Y-107783494D01*
X151755543Y-107789323D01*
X151657467Y-107794119D01*
X151344078Y-107798239D01*
X151145138Y-107775902D01*
X151087666Y-107738333D01*
X151157867Y-107680852D01*
X151271805Y-107677041D01*
X151441048Y-107660705D01*
X151509636Y-107613541D01*
X151628359Y-107544550D01*
X151756406Y-107526667D01*
X151952094Y-107447307D01*
X151969340Y-107421758D01*
X151431945Y-107421758D01*
X151348722Y-107435316D01*
X151238908Y-107419749D01*
X151237998Y-107399667D01*
X151130000Y-107399667D01*
X151087666Y-107442000D01*
X151045333Y-107399667D01*
X151087666Y-107357333D01*
X151130000Y-107399667D01*
X151237998Y-107399667D01*
X151237597Y-107390847D01*
X151350914Y-107370636D01*
X151399875Y-107384163D01*
X151431945Y-107421758D01*
X151969340Y-107421758D01*
X152055324Y-107294378D01*
X152107882Y-107146153D01*
X150822137Y-107146153D01*
X150818032Y-107254886D01*
X150735018Y-107261105D01*
X150667949Y-107193850D01*
X150675800Y-107084955D01*
X150696414Y-107067336D01*
X150787241Y-107089103D01*
X150822137Y-107146153D01*
X152107882Y-107146153D01*
X152110532Y-107138680D01*
X152082523Y-107022671D01*
X151948560Y-106885403D01*
X151881612Y-106828711D01*
X151641894Y-106682570D01*
X151380233Y-106602237D01*
X151150357Y-106596806D01*
X151005996Y-106675371D01*
X151003000Y-106680000D01*
X150888788Y-106740510D01*
X150696559Y-106764667D01*
X150531204Y-106777550D01*
X150465915Y-106849412D01*
X150464721Y-107030073D01*
X150468722Y-107080220D01*
X150528471Y-107336622D01*
X150670639Y-107482276D01*
X150690374Y-107492624D01*
X150815127Y-107570579D01*
X150792357Y-107623053D01*
X150753874Y-107640080D01*
X150676636Y-107715652D01*
X150635216Y-107889763D01*
X150622058Y-108195942D01*
X150622000Y-108225401D01*
X150617522Y-108503824D01*
X150586920Y-108693447D01*
X150504442Y-108850582D01*
X150344336Y-109031544D01*
X150177500Y-109197417D01*
X149934968Y-109426627D01*
X149752290Y-109560492D01*
X149573685Y-109627372D01*
X149343375Y-109655628D01*
X149267333Y-109660192D01*
X148801666Y-109685667D01*
X148778453Y-111103833D01*
X148755239Y-112522000D01*
X151384000Y-112522000D01*
X151384000Y-111722663D01*
X151391465Y-111371574D01*
X151411507Y-111088428D01*
X151440593Y-110913014D01*
X151459073Y-110876929D01*
X151560587Y-110871832D01*
X151625792Y-111009624D01*
X151655915Y-111297300D01*
X151652181Y-111741852D01*
X151643451Y-111929333D01*
X151595666Y-112818333D01*
X143975666Y-112818333D01*
X143953161Y-110468833D01*
X143943214Y-109737789D01*
X143928801Y-109130163D01*
X143910370Y-108655966D01*
X143888374Y-108325212D01*
X143863264Y-108147911D01*
X143847327Y-108119333D01*
X143820087Y-108036283D01*
X143797799Y-107793473D01*
X143780833Y-107400416D01*
X143769554Y-106866624D01*
X143764332Y-106201608D01*
X143764000Y-105962908D01*
X143764774Y-105297999D01*
X143768145Y-104780094D01*
X143775683Y-104386865D01*
X143788960Y-104095988D01*
X143809546Y-103885136D01*
X143839013Y-103731982D01*
X143878932Y-103614199D01*
X143930874Y-103509462D01*
X143937482Y-103497613D01*
X144042500Y-103272076D01*
X144057095Y-103147736D01*
X143985989Y-103142191D01*
X143867817Y-103237855D01*
X143867817Y-103237855D01*
G37*
X143867817Y-103237855D02*
X143835915Y-103280112D01*
X143808835Y-103346984D01*
X143786099Y-103452012D01*
X143767229Y-103608740D01*
X143751748Y-103830707D01*
X143739176Y-104131456D01*
X143729037Y-104524529D01*
X143720851Y-105023467D01*
X143714141Y-105641811D01*
X143708430Y-106393104D01*
X143703238Y-107290887D01*
X143699725Y-107999433D01*
X143695760Y-109183391D01*
X143695933Y-110198544D01*
X143700250Y-111045370D01*
X143708717Y-111724349D01*
X143721342Y-112235958D01*
X143738130Y-112580676D01*
X143759088Y-112758980D01*
X143766203Y-112780117D01*
X143791998Y-112818722D01*
X143834137Y-112850797D01*
X143907296Y-112876944D01*
X144026155Y-112897770D01*
X144205392Y-112913878D01*
X144459686Y-112925873D01*
X144803714Y-112934359D01*
X145252155Y-112939941D01*
X145819688Y-112943223D01*
X146520990Y-112944809D01*
X147370741Y-112945305D01*
X147778278Y-112945333D01*
X148733151Y-112944442D01*
X149531336Y-112941538D01*
X150185471Y-112936273D01*
X150708193Y-112928300D01*
X151112139Y-112917274D01*
X151409948Y-112902845D01*
X151614256Y-112884669D01*
X151737702Y-112862397D01*
X151792922Y-112835683D01*
X151793425Y-112835091D01*
X151837223Y-112704663D01*
X151875865Y-112450727D01*
X151903178Y-112119103D01*
X151909626Y-111972629D01*
X151934333Y-111220410D01*
X152363654Y-111003372D01*
X152668091Y-110801571D01*
X152988072Y-110513698D01*
X153274638Y-110190868D01*
X153478833Y-109884194D01*
X153519105Y-109797005D01*
X153608536Y-109669303D01*
X153667272Y-109643333D01*
X153740054Y-109573640D01*
X153751991Y-109495167D01*
X153739689Y-109435003D01*
X153695990Y-109439592D01*
X153605970Y-109524592D01*
X153454705Y-109705660D01*
X153227273Y-109998453D01*
X153049981Y-110231714D01*
X152863155Y-110454905D01*
X152699463Y-110609631D01*
X152605481Y-110659333D01*
X152496687Y-110695584D01*
X152484666Y-110723332D01*
X152413395Y-110805163D01*
X152246908Y-110891311D01*
X152056198Y-110953703D01*
X151912258Y-110964270D01*
X151893980Y-110956890D01*
X151815167Y-110872687D01*
X151869414Y-110783025D01*
X152070160Y-110671150D01*
X152152775Y-110634289D01*
X152376081Y-110505701D01*
X152621049Y-110317557D01*
X152846779Y-110107849D01*
X153012373Y-109914572D01*
X153076929Y-109775790D01*
X153129879Y-109661187D01*
X153240390Y-109521790D01*
X153388168Y-109300145D01*
X153461235Y-109114167D01*
X153485628Y-108952442D01*
X153418165Y-108890656D01*
X153256843Y-108881333D01*
X153074177Y-108861865D01*
X153012953Y-108779460D01*
X153014831Y-108690833D01*
X152986387Y-108534700D01*
X152865666Y-108488166D01*
X152685418Y-108473719D01*
X152615900Y-108467000D01*
X152594764Y-108413267D01*
X152637066Y-108356400D01*
X152731929Y-108216971D01*
X152696537Y-108145402D01*
X152583478Y-108157177D01*
X152439383Y-108143154D01*
X152327778Y-107985835D01*
X152263765Y-107868996D01*
X152176785Y-107805800D01*
X152022242Y-107783494D01*
X151755543Y-107789323D01*
X151657467Y-107794119D01*
X151344078Y-107798239D01*
X151145138Y-107775902D01*
X151087666Y-107738333D01*
X151157867Y-107680852D01*
X151271805Y-107677041D01*
X151441048Y-107660705D01*
X151509636Y-107613541D01*
X151628359Y-107544550D01*
X151756406Y-107526667D01*
X151952094Y-107447307D01*
X151969340Y-107421758D01*
X151431945Y-107421758D01*
X151348722Y-107435316D01*
X151238908Y-107419749D01*
X151237998Y-107399667D01*
X151130000Y-107399667D01*
X151087666Y-107442000D01*
X151045333Y-107399667D01*
X151087666Y-107357333D01*
X151130000Y-107399667D01*
X151237998Y-107399667D01*
X151237597Y-107390847D01*
X151350914Y-107370636D01*
X151399875Y-107384163D01*
X151431945Y-107421758D01*
X151969340Y-107421758D01*
X152055324Y-107294378D01*
X152107882Y-107146153D01*
X150822137Y-107146153D01*
X150818032Y-107254886D01*
X150735018Y-107261105D01*
X150667949Y-107193850D01*
X150675800Y-107084955D01*
X150696414Y-107067336D01*
X150787241Y-107089103D01*
X150822137Y-107146153D01*
X152107882Y-107146153D01*
X152110532Y-107138680D01*
X152082523Y-107022671D01*
X151948560Y-106885403D01*
X151881612Y-106828711D01*
X151641894Y-106682570D01*
X151380233Y-106602237D01*
X151150357Y-106596806D01*
X151005996Y-106675371D01*
X151003000Y-106680000D01*
X150888788Y-106740510D01*
X150696559Y-106764667D01*
X150531204Y-106777550D01*
X150465915Y-106849412D01*
X150464721Y-107030073D01*
X150468722Y-107080220D01*
X150528471Y-107336622D01*
X150670639Y-107482276D01*
X150690374Y-107492624D01*
X150815127Y-107570579D01*
X150792357Y-107623053D01*
X150753874Y-107640080D01*
X150676636Y-107715652D01*
X150635216Y-107889763D01*
X150622058Y-108195942D01*
X150622000Y-108225401D01*
X150617522Y-108503824D01*
X150586920Y-108693447D01*
X150504442Y-108850582D01*
X150344336Y-109031544D01*
X150177500Y-109197417D01*
X149934968Y-109426627D01*
X149752290Y-109560492D01*
X149573685Y-109627372D01*
X149343375Y-109655628D01*
X149267333Y-109660192D01*
X148801666Y-109685667D01*
X148778453Y-111103833D01*
X148755239Y-112522000D01*
X151384000Y-112522000D01*
X151384000Y-111722663D01*
X151391465Y-111371574D01*
X151411507Y-111088428D01*
X151440593Y-110913014D01*
X151459073Y-110876929D01*
X151560587Y-110871832D01*
X151625792Y-111009624D01*
X151655915Y-111297300D01*
X151652181Y-111741852D01*
X151643451Y-111929333D01*
X151595666Y-112818333D01*
X143975666Y-112818333D01*
X143953161Y-110468833D01*
X143943214Y-109737789D01*
X143928801Y-109130163D01*
X143910370Y-108655966D01*
X143888374Y-108325212D01*
X143863264Y-108147911D01*
X143847327Y-108119333D01*
X143820087Y-108036283D01*
X143797799Y-107793473D01*
X143780833Y-107400416D01*
X143769554Y-106866624D01*
X143764332Y-106201608D01*
X143764000Y-105962908D01*
X143764774Y-105297999D01*
X143768145Y-104780094D01*
X143775683Y-104386865D01*
X143788960Y-104095988D01*
X143809546Y-103885136D01*
X143839013Y-103731982D01*
X143878932Y-103614199D01*
X143930874Y-103509462D01*
X143937482Y-103497613D01*
X144042500Y-103272076D01*
X144057095Y-103147736D01*
X143985989Y-103142191D01*
X143867817Y-103237855D01*
G36*
X150554329Y-99702561D02*
X150448612Y-99843035D01*
X150331347Y-100115823D01*
X150291591Y-100222740D01*
X150134016Y-100653846D01*
X150450057Y-100962452D01*
X150649869Y-101142894D01*
X150816161Y-101230401D01*
X151024710Y-101252670D01*
X151223216Y-101245029D01*
X151680333Y-101219000D01*
X151705528Y-100640476D01*
X151723588Y-100338400D01*
X151750202Y-100178070D01*
X151793948Y-100131898D01*
X151853695Y-100164010D01*
X151923617Y-100307006D01*
X151965451Y-100557255D01*
X151978175Y-100854854D01*
X151960762Y-101139899D01*
X151912190Y-101352488D01*
X151875067Y-101413733D01*
X151736618Y-101469152D01*
X151479659Y-101505410D01*
X151223533Y-101515333D01*
X150905655Y-101506018D01*
X150698292Y-101467065D01*
X150543133Y-101381961D01*
X150442834Y-101294246D01*
X150212069Y-101073160D01*
X149890661Y-101315413D01*
X149668570Y-101484767D01*
X149486867Y-101626653D01*
X149439460Y-101664955D01*
X149014327Y-102006189D01*
X148694601Y-102237412D01*
X148465054Y-102367445D01*
X148310460Y-102405112D01*
X148224418Y-102368951D01*
X148072363Y-102278277D01*
X147958623Y-102305057D01*
X147934493Y-102435154D01*
X147937548Y-102448002D01*
X147933341Y-102572005D01*
X147824269Y-102678853D01*
X147629923Y-102779677D01*
X147320407Y-102938788D01*
X147008056Y-103125061D01*
X146956407Y-103159341D01*
X146749390Y-103290570D01*
X146598861Y-103368591D01*
X146564607Y-103378000D01*
X146457477Y-103435745D01*
X146389440Y-103504068D01*
X146263320Y-103582489D01*
X146158257Y-103550995D01*
X146135245Y-103478836D01*
X146199199Y-103399386D01*
X146358862Y-103270228D01*
X146431578Y-103218919D01*
X146595861Y-103072076D01*
X146703124Y-102913735D01*
X146739976Y-102782416D01*
X146693031Y-102716637D01*
X146601194Y-102730954D01*
X146484191Y-102709735D01*
X146324917Y-102613332D01*
X146173920Y-102483588D01*
X146081747Y-102362347D01*
X146082340Y-102301438D01*
X146181472Y-102302101D01*
X146353457Y-102361588D01*
X146527905Y-102448420D01*
X146634421Y-102531120D01*
X146642666Y-102552001D01*
X146712513Y-102607579D01*
X146884914Y-102606424D01*
X147104165Y-102552028D01*
X147189016Y-102517743D01*
X147404666Y-102419486D01*
X147404666Y-101120743D01*
X147401930Y-100610099D01*
X147392416Y-100246943D01*
X147374169Y-100009499D01*
X147345233Y-99875990D01*
X147303654Y-99824641D01*
X147288033Y-99822000D01*
X147140056Y-99881744D01*
X147064703Y-99950562D01*
X146918265Y-100072228D01*
X146699942Y-100201135D01*
X146668207Y-100216643D01*
X146496461Y-100326860D01*
X146339369Y-100502571D01*
X146169140Y-100779482D01*
X146044871Y-101017535D01*
X145894177Y-101329522D01*
X145778913Y-101591523D01*
X145717079Y-101761635D01*
X145711333Y-101793947D01*
X145648821Y-101928368D01*
X145491170Y-102113256D01*
X145283212Y-102303776D01*
X145069777Y-102455090D01*
X145026863Y-102478500D01*
X144893076Y-102590707D01*
X144702911Y-102804874D01*
X144491481Y-103080469D01*
X144431037Y-103166333D01*
X144022479Y-103759000D01*
X144020239Y-105807170D01*
X144022975Y-106489577D01*
X144032487Y-107051949D01*
X144048316Y-107482525D01*
X144070000Y-107769546D01*
X144097077Y-107901249D01*
X144102666Y-107907667D01*
X144129636Y-108008620D01*
X144151900Y-108268471D01*
X144169081Y-108676839D01*
X144180803Y-109223344D01*
X144186689Y-109897604D01*
X144187333Y-110240997D01*
X144187333Y-112522000D01*
X148501597Y-112522000D01*
X148524632Y-110934500D01*
X148547666Y-109347000D01*
X149182344Y-109321703D01*
X149526211Y-109300482D01*
X149752487Y-109260414D01*
X149912867Y-109186686D01*
X150050178Y-109073030D01*
X150283333Y-108849652D01*
X150280333Y-107362659D01*
X150275482Y-106773462D01*
X150262562Y-106331507D01*
X150239972Y-106014829D01*
X150206106Y-105801458D01*
X150159362Y-105669430D01*
X150156333Y-105664000D01*
X150082278Y-105424002D01*
X150041112Y-105023758D01*
X150032333Y-104677034D01*
X150033243Y-104309615D01*
X150047024Y-104067851D01*
X150085092Y-103908066D01*
X150158863Y-103786587D01*
X150210420Y-103732489D01*
X146129911Y-103732489D01*
X146064644Y-103778813D01*
X145934306Y-103861665D01*
X145753662Y-104014946D01*
X145711333Y-104055333D01*
X145485948Y-104248552D01*
X145297192Y-104362676D01*
X145171839Y-104387905D01*
X145136662Y-104314440D01*
X145151941Y-104260075D01*
X145196770Y-104125107D01*
X145203333Y-104090742D01*
X145272457Y-104059249D01*
X145330333Y-104055333D01*
X145443122Y-104018092D01*
X145457333Y-103986589D01*
X145519246Y-103896579D01*
X145672721Y-103759709D01*
X145719611Y-103723934D01*
X145909976Y-103604462D01*
X146028353Y-103595584D01*
X146079445Y-103633928D01*
X146129911Y-103732489D01*
X150210420Y-103732489D01*
X150279752Y-103659741D01*
X150304500Y-103635768D01*
X150538870Y-103417874D01*
X150853151Y-103137168D01*
X151205487Y-102829827D01*
X151554024Y-102532028D01*
X151856908Y-102279948D01*
X152055002Y-102122727D01*
X152315333Y-101925787D01*
X152315333Y-101010631D01*
X152313702Y-100606553D01*
X152303892Y-100337115D01*
X152278527Y-100167626D01*
X152230232Y-100063394D01*
X152151631Y-99989730D01*
X152089277Y-99947357D01*
X151895442Y-99852814D01*
X151744675Y-99875085D01*
X151712202Y-99893553D01*
X151561009Y-99940147D01*
X151509928Y-99904933D01*
X151393909Y-99840292D01*
X151255987Y-99822000D01*
X151020977Y-99785964D01*
X150835354Y-99722696D01*
X150674556Y-99670436D01*
X150554329Y-99702561D01*
X150554329Y-99702561D01*
G37*
X150554329Y-99702561D02*
X150448612Y-99843035D01*
X150331347Y-100115823D01*
X150291591Y-100222740D01*
X150134016Y-100653846D01*
X150450057Y-100962452D01*
X150649869Y-101142894D01*
X150816161Y-101230401D01*
X151024710Y-101252670D01*
X151223216Y-101245029D01*
X151680333Y-101219000D01*
X151705528Y-100640476D01*
X151723588Y-100338400D01*
X151750202Y-100178070D01*
X151793948Y-100131898D01*
X151853695Y-100164010D01*
X151923617Y-100307006D01*
X151965451Y-100557255D01*
X151978175Y-100854854D01*
X151960762Y-101139899D01*
X151912190Y-101352488D01*
X151875067Y-101413733D01*
X151736618Y-101469152D01*
X151479659Y-101505410D01*
X151223533Y-101515333D01*
X150905655Y-101506018D01*
X150698292Y-101467065D01*
X150543133Y-101381961D01*
X150442834Y-101294246D01*
X150212069Y-101073160D01*
X149890661Y-101315413D01*
X149668570Y-101484767D01*
X149486867Y-101626653D01*
X149439460Y-101664955D01*
X149014327Y-102006189D01*
X148694601Y-102237412D01*
X148465054Y-102367445D01*
X148310460Y-102405112D01*
X148224418Y-102368951D01*
X148072363Y-102278277D01*
X147958623Y-102305057D01*
X147934493Y-102435154D01*
X147937548Y-102448002D01*
X147933341Y-102572005D01*
X147824269Y-102678853D01*
X147629923Y-102779677D01*
X147320407Y-102938788D01*
X147008056Y-103125061D01*
X146956407Y-103159341D01*
X146749390Y-103290570D01*
X146598861Y-103368591D01*
X146564607Y-103378000D01*
X146457477Y-103435745D01*
X146389440Y-103504068D01*
X146263320Y-103582489D01*
X146158257Y-103550995D01*
X146135245Y-103478836D01*
X146199199Y-103399386D01*
X146358862Y-103270228D01*
X146431578Y-103218919D01*
X146595861Y-103072076D01*
X146703124Y-102913735D01*
X146739976Y-102782416D01*
X146693031Y-102716637D01*
X146601194Y-102730954D01*
X146484191Y-102709735D01*
X146324917Y-102613332D01*
X146173920Y-102483588D01*
X146081747Y-102362347D01*
X146082340Y-102301438D01*
X146181472Y-102302101D01*
X146353457Y-102361588D01*
X146527905Y-102448420D01*
X146634421Y-102531120D01*
X146642666Y-102552001D01*
X146712513Y-102607579D01*
X146884914Y-102606424D01*
X147104165Y-102552028D01*
X147189016Y-102517743D01*
X147404666Y-102419486D01*
X147404666Y-101120743D01*
X147401930Y-100610099D01*
X147392416Y-100246943D01*
X147374169Y-100009499D01*
X147345233Y-99875990D01*
X147303654Y-99824641D01*
X147288033Y-99822000D01*
X147140056Y-99881744D01*
X147064703Y-99950562D01*
X146918265Y-100072228D01*
X146699942Y-100201135D01*
X146668207Y-100216643D01*
X146496461Y-100326860D01*
X146339369Y-100502571D01*
X146169140Y-100779482D01*
X146044871Y-101017535D01*
X145894177Y-101329522D01*
X145778913Y-101591523D01*
X145717079Y-101761635D01*
X145711333Y-101793947D01*
X145648821Y-101928368D01*
X145491170Y-102113256D01*
X145283212Y-102303776D01*
X145069777Y-102455090D01*
X145026863Y-102478500D01*
X144893076Y-102590707D01*
X144702911Y-102804874D01*
X144491481Y-103080469D01*
X144431037Y-103166333D01*
X144022479Y-103759000D01*
X144020239Y-105807170D01*
X144022975Y-106489577D01*
X144032487Y-107051949D01*
X144048316Y-107482525D01*
X144070000Y-107769546D01*
X144097077Y-107901249D01*
X144102666Y-107907667D01*
X144129636Y-108008620D01*
X144151900Y-108268471D01*
X144169081Y-108676839D01*
X144180803Y-109223344D01*
X144186689Y-109897604D01*
X144187333Y-110240997D01*
X144187333Y-112522000D01*
X148501597Y-112522000D01*
X148524632Y-110934500D01*
X148547666Y-109347000D01*
X149182344Y-109321703D01*
X149526211Y-109300482D01*
X149752487Y-109260414D01*
X149912867Y-109186686D01*
X150050178Y-109073030D01*
X150283333Y-108849652D01*
X150280333Y-107362659D01*
X150275482Y-106773462D01*
X150262562Y-106331507D01*
X150239972Y-106014829D01*
X150206106Y-105801458D01*
X150159362Y-105669430D01*
X150156333Y-105664000D01*
X150082278Y-105424002D01*
X150041112Y-105023758D01*
X150032333Y-104677034D01*
X150033243Y-104309615D01*
X150047024Y-104067851D01*
X150085092Y-103908066D01*
X150158863Y-103786587D01*
X150210420Y-103732489D01*
X146129911Y-103732489D01*
X146064644Y-103778813D01*
X145934306Y-103861665D01*
X145753662Y-104014946D01*
X145711333Y-104055333D01*
X145485948Y-104248552D01*
X145297192Y-104362676D01*
X145171839Y-104387905D01*
X145136662Y-104314440D01*
X145151941Y-104260075D01*
X145196770Y-104125107D01*
X145203333Y-104090742D01*
X145272457Y-104059249D01*
X145330333Y-104055333D01*
X145443122Y-104018092D01*
X145457333Y-103986589D01*
X145519246Y-103896579D01*
X145672721Y-103759709D01*
X145719611Y-103723934D01*
X145909976Y-103604462D01*
X146028353Y-103595584D01*
X146079445Y-103633928D01*
X146129911Y-103732489D01*
X150210420Y-103732489D01*
X150279752Y-103659741D01*
X150304500Y-103635768D01*
X150538870Y-103417874D01*
X150853151Y-103137168D01*
X151205487Y-102829827D01*
X151554024Y-102532028D01*
X151856908Y-102279948D01*
X152055002Y-102122727D01*
X152315333Y-101925787D01*
X152315333Y-101010631D01*
X152313702Y-100606553D01*
X152303892Y-100337115D01*
X152278527Y-100167626D01*
X152230232Y-100063394D01*
X152151631Y-99989730D01*
X152089277Y-99947357D01*
X151895442Y-99852814D01*
X151744675Y-99875085D01*
X151712202Y-99893553D01*
X151561009Y-99940147D01*
X151509928Y-99904933D01*
X151393909Y-99840292D01*
X151255987Y-99822000D01*
X151020977Y-99785964D01*
X150835354Y-99722696D01*
X150674556Y-99670436D01*
X150554329Y-99702561D01*
G36*
X152571793Y-111147096D02*
X152569333Y-111167333D01*
X152633762Y-111249540D01*
X152654000Y-111252000D01*
X152736206Y-111187571D01*
X152738666Y-111167333D01*
X152674237Y-111085127D01*
X152654000Y-111082667D01*
X152571793Y-111147096D01*
X152571793Y-111147096D01*
G37*
X152571793Y-111147096D02*
X152569333Y-111167333D01*
X152633762Y-111249540D01*
X152654000Y-111252000D01*
X152736206Y-111187571D01*
X152738666Y-111167333D01*
X152674237Y-111085127D01*
X152654000Y-111082667D01*
X152571793Y-111147096D01*
G36*
X153555254Y-110169778D02*
X153534776Y-110189795D01*
X153436023Y-110315111D01*
X153416000Y-110368122D01*
X153359498Y-110456282D01*
X153215908Y-110613140D01*
X153119666Y-110707150D01*
X152946452Y-110879631D01*
X152839731Y-111003466D01*
X152823333Y-111034648D01*
X152870266Y-111082606D01*
X152994175Y-111009328D01*
X153139572Y-110863694D01*
X153298198Y-110729319D01*
X153422167Y-110705909D01*
X153427820Y-110708972D01*
X153487087Y-110720248D01*
X153466510Y-110672563D01*
X153460907Y-110553620D01*
X153524329Y-110409997D01*
X153617718Y-110303585D01*
X153702016Y-110296274D01*
X153703236Y-110297458D01*
X153729267Y-110286624D01*
X153708585Y-110214428D01*
X153647353Y-110118908D01*
X153555254Y-110169778D01*
X153555254Y-110169778D01*
G37*
X153555254Y-110169778D02*
X153534776Y-110189795D01*
X153436023Y-110315111D01*
X153416000Y-110368122D01*
X153359498Y-110456282D01*
X153215908Y-110613140D01*
X153119666Y-110707150D01*
X152946452Y-110879631D01*
X152839731Y-111003466D01*
X152823333Y-111034648D01*
X152870266Y-111082606D01*
X152994175Y-111009328D01*
X153139572Y-110863694D01*
X153298198Y-110729319D01*
X153422167Y-110705909D01*
X153427820Y-110708972D01*
X153487087Y-110720248D01*
X153466510Y-110672563D01*
X153460907Y-110553620D01*
X153524329Y-110409997D01*
X153617718Y-110303585D01*
X153702016Y-110296274D01*
X153703236Y-110297458D01*
X153729267Y-110286624D01*
X153708585Y-110214428D01*
X153647353Y-110118908D01*
X153555254Y-110169778D01*
G36*
X153797000Y-109782049D02*
X153684962Y-109865155D01*
X153670000Y-109906392D01*
X153726744Y-109977776D01*
X153841824Y-109947466D01*
X153867555Y-109925555D01*
X153923996Y-109813008D01*
X153854806Y-109768302D01*
X153797000Y-109782049D01*
X153797000Y-109782049D01*
G37*
X153797000Y-109782049D02*
X153684962Y-109865155D01*
X153670000Y-109906392D01*
X153726744Y-109977776D01*
X153841824Y-109947466D01*
X153867555Y-109925555D01*
X153923996Y-109813008D01*
X153854806Y-109768302D01*
X153797000Y-109782049D01*
G36*
X153952222Y-109502222D02*
X153942089Y-109602702D01*
X153952222Y-109615111D01*
X154002556Y-109603489D01*
X154008666Y-109558667D01*
X153977688Y-109488976D01*
X153952222Y-109502222D01*
X153952222Y-109502222D01*
G37*
X153952222Y-109502222D02*
X153942089Y-109602702D01*
X153952222Y-109615111D01*
X154002556Y-109603489D01*
X154008666Y-109558667D01*
X153977688Y-109488976D01*
X153952222Y-109502222D01*
G36*
X154121555Y-109332889D02*
X154133178Y-109383223D01*
X154178000Y-109389333D01*
X154247690Y-109358355D01*
X154234444Y-109332889D01*
X154133965Y-109322756D01*
X154121555Y-109332889D01*
X154121555Y-109332889D01*
G37*
X154121555Y-109332889D02*
X154133178Y-109383223D01*
X154178000Y-109389333D01*
X154247690Y-109358355D01*
X154234444Y-109332889D01*
X154133965Y-109322756D01*
X154121555Y-109332889D01*
G36*
X154916407Y-108680894D02*
X154770170Y-108794037D01*
X154598725Y-108950860D01*
X154446013Y-109110185D01*
X154355975Y-109230834D01*
X154347333Y-109258137D01*
X154396065Y-109301940D01*
X154538160Y-109212563D01*
X154760110Y-109001478D01*
X154915441Y-108820604D01*
X154993989Y-108688820D01*
X154993497Y-108652608D01*
X154916407Y-108680894D01*
X154916407Y-108680894D01*
G37*
X154916407Y-108680894D02*
X154770170Y-108794037D01*
X154598725Y-108950860D01*
X154446013Y-109110185D01*
X154355975Y-109230834D01*
X154347333Y-109258137D01*
X154396065Y-109301940D01*
X154538160Y-109212563D01*
X154760110Y-109001478D01*
X154915441Y-108820604D01*
X154993989Y-108688820D01*
X154993497Y-108652608D01*
X154916407Y-108680894D01*
G36*
X153648833Y-106648071D02*
X153364682Y-106934611D01*
X153130947Y-107181015D01*
X152970990Y-107361883D01*
X152908172Y-107451815D01*
X152908000Y-107453569D01*
X152978122Y-107516904D01*
X153056166Y-107529359D01*
X153158004Y-107540334D01*
X153122438Y-107592874D01*
X153056166Y-107644526D01*
X152935785Y-107824331D01*
X152937223Y-108044660D01*
X153038726Y-108256251D01*
X153218543Y-108409842D01*
X153415370Y-108458000D01*
X153609070Y-108494809D01*
X153752635Y-108581969D01*
X153805272Y-108684581D01*
X153758778Y-108751792D01*
X153668608Y-108853625D01*
X153719427Y-108921805D01*
X153874058Y-108918011D01*
X154040686Y-108911116D01*
X154106892Y-109011656D01*
X154150050Y-109060551D01*
X154253294Y-109005491D01*
X154434974Y-108834320D01*
X154537833Y-108726219D01*
X154739950Y-108491468D01*
X154884352Y-108288459D01*
X154939996Y-108160871D01*
X154940000Y-108160297D01*
X154899848Y-108069884D01*
X154855333Y-108077000D01*
X154775185Y-108200400D01*
X154770666Y-108238208D01*
X154696699Y-108416027D01*
X154517377Y-108547025D01*
X154296571Y-108590447D01*
X154233762Y-108580805D01*
X154011802Y-108489104D01*
X153885073Y-108366970D01*
X153880192Y-108247558D01*
X153928853Y-108201001D01*
X154045581Y-108188523D01*
X154111180Y-108292120D01*
X154184754Y-108424306D01*
X154276093Y-108431262D01*
X154403776Y-108303443D01*
X154571060Y-108055833D01*
X154633163Y-107950000D01*
X154262666Y-107950000D01*
X154233780Y-108032465D01*
X154225330Y-108034667D01*
X154153044Y-107975338D01*
X154135666Y-107950000D01*
X154142379Y-107871981D01*
X154173003Y-107865333D01*
X154259221Y-107926794D01*
X154262666Y-107950000D01*
X154633163Y-107950000D01*
X154761385Y-107731492D01*
X154052655Y-107731492D01*
X153967773Y-107731400D01*
X153927519Y-107721452D01*
X153764691Y-107652378D01*
X153706017Y-107601113D01*
X153709473Y-107534846D01*
X153804702Y-107532665D01*
X153930915Y-107585181D01*
X154003138Y-107647005D01*
X154052655Y-107731492D01*
X154761385Y-107731492D01*
X154885147Y-107520586D01*
X154924390Y-107442000D01*
X153585333Y-107442000D01*
X153516757Y-107517114D01*
X153458333Y-107526667D01*
X153345661Y-107480949D01*
X153331333Y-107442000D01*
X153399910Y-107366885D01*
X153458333Y-107357333D01*
X153571005Y-107403051D01*
X153585333Y-107442000D01*
X154924390Y-107442000D01*
X155126360Y-107037549D01*
X155284476Y-106630491D01*
X155349273Y-106323184D01*
X155348466Y-106248044D01*
X155325261Y-106083244D01*
X155266800Y-105995222D01*
X155128979Y-105956249D01*
X154867691Y-105938595D01*
X154855333Y-105938002D01*
X154389666Y-105915671D01*
X153648833Y-106648071D01*
X153648833Y-106648071D01*
G37*
X153648833Y-106648071D02*
X153364682Y-106934611D01*
X153130947Y-107181015D01*
X152970990Y-107361883D01*
X152908172Y-107451815D01*
X152908000Y-107453569D01*
X152978122Y-107516904D01*
X153056166Y-107529359D01*
X153158004Y-107540334D01*
X153122438Y-107592874D01*
X153056166Y-107644526D01*
X152935785Y-107824331D01*
X152937223Y-108044660D01*
X153038726Y-108256251D01*
X153218543Y-108409842D01*
X153415370Y-108458000D01*
X153609070Y-108494809D01*
X153752635Y-108581969D01*
X153805272Y-108684581D01*
X153758778Y-108751792D01*
X153668608Y-108853625D01*
X153719427Y-108921805D01*
X153874058Y-108918011D01*
X154040686Y-108911116D01*
X154106892Y-109011656D01*
X154150050Y-109060551D01*
X154253294Y-109005491D01*
X154434974Y-108834320D01*
X154537833Y-108726219D01*
X154739950Y-108491468D01*
X154884352Y-108288459D01*
X154939996Y-108160871D01*
X154940000Y-108160297D01*
X154899848Y-108069884D01*
X154855333Y-108077000D01*
X154775185Y-108200400D01*
X154770666Y-108238208D01*
X154696699Y-108416027D01*
X154517377Y-108547025D01*
X154296571Y-108590447D01*
X154233762Y-108580805D01*
X154011802Y-108489104D01*
X153885073Y-108366970D01*
X153880192Y-108247558D01*
X153928853Y-108201001D01*
X154045581Y-108188523D01*
X154111180Y-108292120D01*
X154184754Y-108424306D01*
X154276093Y-108431262D01*
X154403776Y-108303443D01*
X154571060Y-108055833D01*
X154633163Y-107950000D01*
X154262666Y-107950000D01*
X154233780Y-108032465D01*
X154225330Y-108034667D01*
X154153044Y-107975338D01*
X154135666Y-107950000D01*
X154142379Y-107871981D01*
X154173003Y-107865333D01*
X154259221Y-107926794D01*
X154262666Y-107950000D01*
X154633163Y-107950000D01*
X154761385Y-107731492D01*
X154052655Y-107731492D01*
X153967773Y-107731400D01*
X153927519Y-107721452D01*
X153764691Y-107652378D01*
X153706017Y-107601113D01*
X153709473Y-107534846D01*
X153804702Y-107532665D01*
X153930915Y-107585181D01*
X154003138Y-107647005D01*
X154052655Y-107731492D01*
X154761385Y-107731492D01*
X154885147Y-107520586D01*
X154924390Y-107442000D01*
X153585333Y-107442000D01*
X153516757Y-107517114D01*
X153458333Y-107526667D01*
X153345661Y-107480949D01*
X153331333Y-107442000D01*
X153399910Y-107366885D01*
X153458333Y-107357333D01*
X153571005Y-107403051D01*
X153585333Y-107442000D01*
X154924390Y-107442000D01*
X155126360Y-107037549D01*
X155284476Y-106630491D01*
X155349273Y-106323184D01*
X155348466Y-106248044D01*
X155325261Y-106083244D01*
X155266800Y-105995222D01*
X155128979Y-105956249D01*
X154867691Y-105938595D01*
X154855333Y-105938002D01*
X154389666Y-105915671D01*
X153648833Y-106648071D01*
G36*
X155027127Y-108437762D02*
X155024666Y-108458000D01*
X155089096Y-108540206D01*
X155109333Y-108542667D01*
X155191540Y-108478237D01*
X155194000Y-108458000D01*
X155129571Y-108375793D01*
X155109333Y-108373333D01*
X155027127Y-108437762D01*
X155027127Y-108437762D01*
G37*
X155027127Y-108437762D02*
X155024666Y-108458000D01*
X155089096Y-108540206D01*
X155109333Y-108542667D01*
X155191540Y-108478237D01*
X155194000Y-108458000D01*
X155129571Y-108375793D01*
X155109333Y-108373333D01*
X155027127Y-108437762D01*
G36*
X155548731Y-106818450D02*
X155429969Y-106998988D01*
X155276229Y-107306815D01*
X155273357Y-107313141D01*
X155125341Y-107650906D01*
X155049236Y-107864607D01*
X155040797Y-107981425D01*
X155095783Y-108028540D01*
X155160725Y-108034667D01*
X155257144Y-108086278D01*
X155255011Y-108143524D01*
X155284618Y-108234473D01*
X155366736Y-108252381D01*
X155474244Y-108221917D01*
X155476828Y-108182148D01*
X155488054Y-108068183D01*
X155542545Y-107980431D01*
X155576788Y-107914722D01*
X155448000Y-107914722D01*
X155398646Y-108007440D01*
X155297096Y-107992656D01*
X155213403Y-107881208D01*
X155250252Y-107794842D01*
X155313944Y-107780667D01*
X155430576Y-107848836D01*
X155448000Y-107914722D01*
X155576788Y-107914722D01*
X155604366Y-107861805D01*
X155519682Y-107775207D01*
X155507500Y-107768266D01*
X155400708Y-107659013D01*
X155362605Y-107529245D01*
X155407782Y-107447155D01*
X155437701Y-107442000D01*
X155502635Y-107368217D01*
X155575563Y-107183505D01*
X155598032Y-107103333D01*
X155642474Y-106864347D01*
X155622803Y-106771478D01*
X155548731Y-106818450D01*
X155548731Y-106818450D01*
G37*
X155548731Y-106818450D02*
X155429969Y-106998988D01*
X155276229Y-107306815D01*
X155273357Y-107313141D01*
X155125341Y-107650906D01*
X155049236Y-107864607D01*
X155040797Y-107981425D01*
X155095783Y-108028540D01*
X155160725Y-108034667D01*
X155257144Y-108086278D01*
X155255011Y-108143524D01*
X155284618Y-108234473D01*
X155366736Y-108252381D01*
X155474244Y-108221917D01*
X155476828Y-108182148D01*
X155488054Y-108068183D01*
X155542545Y-107980431D01*
X155576788Y-107914722D01*
X155448000Y-107914722D01*
X155398646Y-108007440D01*
X155297096Y-107992656D01*
X155213403Y-107881208D01*
X155250252Y-107794842D01*
X155313944Y-107780667D01*
X155430576Y-107848836D01*
X155448000Y-107914722D01*
X155576788Y-107914722D01*
X155604366Y-107861805D01*
X155519682Y-107775207D01*
X155507500Y-107768266D01*
X155400708Y-107659013D01*
X155362605Y-107529245D01*
X155407782Y-107447155D01*
X155437701Y-107442000D01*
X155502635Y-107368217D01*
X155575563Y-107183505D01*
X155598032Y-107103333D01*
X155642474Y-106864347D01*
X155622803Y-106771478D01*
X155548731Y-106818450D01*
G36*
X155702041Y-107323857D02*
X155702000Y-107333344D01*
X155663302Y-107490957D01*
X155608049Y-107543872D01*
X155586289Y-107610314D01*
X155666635Y-107699094D01*
X155765754Y-107764754D01*
X155753297Y-107713458D01*
X155745675Y-107565094D01*
X155792723Y-107477036D01*
X155853579Y-107342864D01*
X155800012Y-107252145D01*
X155724268Y-107213147D01*
X155702041Y-107323857D01*
X155702041Y-107323857D01*
G37*
X155702041Y-107323857D02*
X155702000Y-107333344D01*
X155663302Y-107490957D01*
X155608049Y-107543872D01*
X155586289Y-107610314D01*
X155666635Y-107699094D01*
X155765754Y-107764754D01*
X155753297Y-107713458D01*
X155745675Y-107565094D01*
X155792723Y-107477036D01*
X155853579Y-107342864D01*
X155800012Y-107252145D01*
X155724268Y-107213147D01*
X155702041Y-107323857D01*
G36*
X151769417Y-105919934D02*
X151442940Y-105937757D01*
X151203159Y-105966197D01*
X151086613Y-106005469D01*
X151083427Y-106009527D01*
X150967828Y-106061358D01*
X150824430Y-106050247D01*
X150674373Y-106037444D01*
X150624893Y-106134917D01*
X150622000Y-106212720D01*
X150675186Y-106382388D01*
X150813780Y-106423777D01*
X151006332Y-106331159D01*
X151053766Y-106291369D01*
X151217258Y-106205621D01*
X151413738Y-106232670D01*
X151664035Y-106381010D01*
X151988979Y-106659137D01*
X152014541Y-106683196D01*
X152442333Y-107087709D01*
X152973443Y-106608688D01*
X153216270Y-106377674D01*
X153400276Y-106179744D01*
X153495662Y-106047837D01*
X153502610Y-106023833D01*
X153423312Y-105982497D01*
X153211467Y-105950480D01*
X152903614Y-105928000D01*
X152536295Y-105915271D01*
X152146049Y-105912510D01*
X151769417Y-105919934D01*
X151769417Y-105919934D01*
G37*
X151769417Y-105919934D02*
X151442940Y-105937757D01*
X151203159Y-105966197D01*
X151086613Y-106005469D01*
X151083427Y-106009527D01*
X150967828Y-106061358D01*
X150824430Y-106050247D01*
X150674373Y-106037444D01*
X150624893Y-106134917D01*
X150622000Y-106212720D01*
X150675186Y-106382388D01*
X150813780Y-106423777D01*
X151006332Y-106331159D01*
X151053766Y-106291369D01*
X151217258Y-106205621D01*
X151413738Y-106232670D01*
X151664035Y-106381010D01*
X151988979Y-106659137D01*
X152014541Y-106683196D01*
X152442333Y-107087709D01*
X152973443Y-106608688D01*
X153216270Y-106377674D01*
X153400276Y-106179744D01*
X153495662Y-106047837D01*
X153502610Y-106023833D01*
X153423312Y-105982497D01*
X153211467Y-105950480D01*
X152903614Y-105928000D01*
X152536295Y-105915271D01*
X152146049Y-105912510D01*
X151769417Y-105919934D01*
G36*
X161866283Y-92924000D02*
X161978749Y-93081983D01*
X162165490Y-93287883D01*
X162270194Y-93389666D01*
X162701282Y-93796576D01*
X163032195Y-94126531D01*
X163293475Y-94410219D01*
X163343775Y-94468451D01*
X163577217Y-94741900D01*
X163555442Y-100308783D01*
X163533666Y-105875667D01*
X155702000Y-105919691D01*
X155702000Y-106299845D01*
X155710433Y-106526859D01*
X155731763Y-106662784D01*
X155744333Y-106680000D01*
X155773159Y-106605853D01*
X155786521Y-106425294D01*
X155786636Y-106404833D01*
X155786605Y-106129667D01*
X159723636Y-106153271D01*
X163660666Y-106176875D01*
X163660666Y-94612112D01*
X162720050Y-93682223D01*
X162408490Y-93379248D01*
X162151371Y-93138974D01*
X161966384Y-92977113D01*
X161871221Y-92909374D01*
X161866283Y-92924000D01*
X161866283Y-92924000D01*
G37*
X161866283Y-92924000D02*
X161978749Y-93081983D01*
X162165490Y-93287883D01*
X162270194Y-93389666D01*
X162701282Y-93796576D01*
X163032195Y-94126531D01*
X163293475Y-94410219D01*
X163343775Y-94468451D01*
X163577217Y-94741900D01*
X163555442Y-100308783D01*
X163533666Y-105875667D01*
X155702000Y-105919691D01*
X155702000Y-106299845D01*
X155710433Y-106526859D01*
X155731763Y-106662784D01*
X155744333Y-106680000D01*
X155773159Y-106605853D01*
X155786521Y-106425294D01*
X155786636Y-106404833D01*
X155786605Y-106129667D01*
X159723636Y-106153271D01*
X163660666Y-106176875D01*
X163660666Y-94612112D01*
X162720050Y-93682223D01*
X162408490Y-93379248D01*
X162151371Y-93138974D01*
X161966384Y-92977113D01*
X161871221Y-92909374D01*
X161866283Y-92924000D01*
G36*
X159332287Y-106352954D02*
X158520602Y-106356275D01*
X157834027Y-106362596D01*
X157535767Y-106367327D01*
X157399592Y-106371754D01*
X157418252Y-106375788D01*
X157584500Y-106379340D01*
X157891085Y-106382321D01*
X158330760Y-106384639D01*
X158896276Y-106386207D01*
X159580384Y-106386935D01*
X159808333Y-106386976D01*
X160524767Y-106386508D01*
X161123211Y-106385177D01*
X161596643Y-106383072D01*
X161938043Y-106380283D01*
X162140389Y-106376898D01*
X162196660Y-106373007D01*
X162099833Y-106368700D01*
X161842888Y-106364064D01*
X161728694Y-106362564D01*
X161003039Y-106356098D01*
X160182001Y-106352895D01*
X159332287Y-106352954D01*
X159332287Y-106352954D01*
G37*
X159332287Y-106352954D02*
X158520602Y-106356275D01*
X157834027Y-106362596D01*
X157535767Y-106367327D01*
X157399592Y-106371754D01*
X157418252Y-106375788D01*
X157584500Y-106379340D01*
X157891085Y-106382321D01*
X158330760Y-106384639D01*
X158896276Y-106386207D01*
X159580384Y-106386935D01*
X159808333Y-106386976D01*
X160524767Y-106386508D01*
X161123211Y-106385177D01*
X161596643Y-106383072D01*
X161938043Y-106380283D01*
X162140389Y-106376898D01*
X162196660Y-106373007D01*
X162099833Y-106368700D01*
X161842888Y-106364064D01*
X161728694Y-106362564D01*
X161003039Y-106356098D01*
X160182001Y-106352895D01*
X159332287Y-106352954D01*
G36*
X152569333Y-102022271D02*
X152209500Y-102278731D01*
X151969012Y-102464764D01*
X151667755Y-102718081D01*
X151366136Y-102987686D01*
X151331307Y-103020095D01*
X151051516Y-103275628D01*
X150782762Y-103510633D01*
X150575853Y-103680875D01*
X150548140Y-103701939D01*
X150423934Y-103800191D01*
X150346292Y-103897077D01*
X150304276Y-104032992D01*
X150286946Y-104248333D01*
X150283363Y-104583495D01*
X150283333Y-104679839D01*
X150295069Y-105109285D01*
X150328825Y-105408891D01*
X150382424Y-105559744D01*
X150384933Y-105562400D01*
X150448383Y-105584027D01*
X150598524Y-105602658D01*
X150844581Y-105618462D01*
X151195781Y-105631605D01*
X151661351Y-105642256D01*
X152250518Y-105650583D01*
X152972507Y-105656752D01*
X153836546Y-105660933D01*
X154851861Y-105663293D01*
X155972933Y-105664000D01*
X161459333Y-105664000D01*
X161459333Y-104242717D01*
X160352515Y-104242717D01*
X160254559Y-104326974D01*
X160188472Y-104351940D01*
X160048569Y-104438046D01*
X159839440Y-104614244D01*
X159604199Y-104843924D01*
X159583524Y-104865645D01*
X159365315Y-105087372D01*
X159188628Y-105250429D01*
X159087244Y-105323939D01*
X159080610Y-105325333D01*
X159039948Y-105248568D01*
X159004820Y-105049802D01*
X158987058Y-104839323D01*
X158961922Y-104553304D01*
X158915174Y-104396910D01*
X158832751Y-104330599D01*
X158803500Y-104323189D01*
X158663610Y-104363061D01*
X158465960Y-104495240D01*
X158249417Y-104682546D01*
X158052849Y-104887797D01*
X157915122Y-105073814D01*
X157875105Y-105203414D01*
X157876995Y-105209485D01*
X157859206Y-105290129D01*
X157707325Y-105323115D01*
X157616058Y-105325333D01*
X157413012Y-105312228D01*
X157328130Y-105244781D01*
X157310680Y-105080797D01*
X157310666Y-105071333D01*
X157292173Y-104892910D01*
X157247623Y-104817350D01*
X157246892Y-104817333D01*
X157153885Y-104873588D01*
X156999000Y-105014144D01*
X156943381Y-105071333D01*
X156702405Y-105263147D01*
X156439224Y-105325012D01*
X156414490Y-105325333D01*
X156221355Y-105316662D01*
X156127144Y-105295411D01*
X156125333Y-105291642D01*
X156163719Y-105205163D01*
X156261736Y-105021520D01*
X156335980Y-104889475D01*
X156490345Y-104589207D01*
X156539739Y-104404351D01*
X156486469Y-104319305D01*
X156421666Y-104309333D01*
X156308995Y-104263616D01*
X156294666Y-104224667D01*
X156040666Y-104224667D01*
X155977495Y-104306886D01*
X155957721Y-104309333D01*
X155862959Y-104381372D01*
X155749070Y-104559566D01*
X155642675Y-104787036D01*
X155570392Y-105006899D01*
X155558738Y-105161885D01*
X155549909Y-105276489D01*
X155420615Y-105335560D01*
X155333016Y-105349435D01*
X155129342Y-105376849D01*
X155009274Y-105396272D01*
X155008497Y-105396450D01*
X154916854Y-105349789D01*
X154894144Y-105319634D01*
X154914337Y-105228517D01*
X154994981Y-105186905D01*
X155121160Y-105089985D01*
X155266728Y-104890782D01*
X155337795Y-104760201D01*
X155369486Y-104692322D01*
X154924231Y-104692322D01*
X154802282Y-104911261D01*
X154731507Y-104983685D01*
X154347909Y-105271098D01*
X153982958Y-105398209D01*
X153644514Y-105362331D01*
X153634591Y-105358608D01*
X153521602Y-105240754D01*
X153500666Y-105146941D01*
X153527795Y-105010836D01*
X153621059Y-105013308D01*
X153774952Y-105132025D01*
X153906255Y-105225478D01*
X154033087Y-105215594D01*
X154162619Y-105150521D01*
X154341367Y-104981328D01*
X154419024Y-104764065D01*
X154400188Y-104547290D01*
X154289457Y-104379558D01*
X154091429Y-104309424D01*
X154082966Y-104309333D01*
X153948046Y-104356784D01*
X153908770Y-104517172D01*
X153917680Y-104626833D01*
X153853740Y-104705619D01*
X153673711Y-104732667D01*
X153470922Y-104703299D01*
X153426459Y-104617633D01*
X153542205Y-104479327D01*
X153543000Y-104478667D01*
X153650591Y-104334519D01*
X153670000Y-104256633D01*
X153682061Y-104242717D01*
X153325181Y-104242717D01*
X153227226Y-104326974D01*
X153161139Y-104351940D01*
X153021235Y-104438046D01*
X152812106Y-104614244D01*
X152576865Y-104843924D01*
X152556190Y-104865645D01*
X152337350Y-105087473D01*
X152159225Y-105250555D01*
X152055932Y-105323967D01*
X152049052Y-105325333D01*
X152009504Y-105248742D01*
X151983213Y-105051071D01*
X151976666Y-104857009D01*
X151960411Y-104552329D01*
X151907087Y-104386423D01*
X151849666Y-104339951D01*
X151727915Y-104260969D01*
X151757781Y-104191190D01*
X151921712Y-104147197D01*
X152061333Y-104140000D01*
X152296818Y-104160971D01*
X152393853Y-104230488D01*
X152400000Y-104267000D01*
X152473601Y-104369143D01*
X152611666Y-104394000D01*
X152781905Y-104349839D01*
X152823333Y-104267000D01*
X152899061Y-104166174D01*
X153077333Y-104140000D01*
X153271339Y-104170583D01*
X153325181Y-104242717D01*
X153682061Y-104242717D01*
X153742415Y-104173081D01*
X153927103Y-104139124D01*
X154175231Y-104152220D01*
X154437965Y-104209828D01*
X154664833Y-104308405D01*
X154878674Y-104493993D01*
X154924231Y-104692322D01*
X155369486Y-104692322D01*
X155444049Y-104532617D01*
X155477332Y-104413360D01*
X155439795Y-104359000D01*
X155358962Y-104332722D01*
X155208863Y-104268884D01*
X155210761Y-104207039D01*
X155347657Y-104159867D01*
X155602555Y-104140046D01*
X155617333Y-104140000D01*
X155858821Y-104155229D01*
X156012098Y-104194168D01*
X156040666Y-104224667D01*
X156294666Y-104224667D01*
X156370813Y-104176369D01*
X156565509Y-104145714D01*
X156718000Y-104140000D01*
X156959569Y-104146835D01*
X157112837Y-104164310D01*
X157141333Y-104177971D01*
X157089636Y-104259031D01*
X156962804Y-104408314D01*
X156938919Y-104434351D01*
X156787439Y-104629913D01*
X156696673Y-104805684D01*
X156694484Y-104813446D01*
X156700535Y-104927266D01*
X156790730Y-104931301D01*
X156936451Y-104842094D01*
X157109080Y-104676186D01*
X157253493Y-104490321D01*
X157432342Y-104265089D01*
X157556460Y-104199536D01*
X157628028Y-104293861D01*
X157649333Y-104525997D01*
X157666433Y-104734513D01*
X157730332Y-104801314D01*
X157859928Y-104728250D01*
X158030333Y-104563333D01*
X158171400Y-104401276D01*
X158192986Y-104324897D01*
X158130840Y-104309333D01*
X158008352Y-104268089D01*
X157988000Y-104224667D01*
X158067666Y-104183579D01*
X158287097Y-104154436D01*
X158616935Y-104140649D01*
X158716725Y-104140000D01*
X159071390Y-104144257D01*
X159285041Y-104160538D01*
X159385866Y-104194106D01*
X159402049Y-104250227D01*
X159396715Y-104267000D01*
X159404343Y-104359438D01*
X159543294Y-104392865D01*
X159599324Y-104394000D01*
X159799017Y-104355801D01*
X159850666Y-104267000D01*
X159926395Y-104166174D01*
X160104666Y-104140000D01*
X160298672Y-104170583D01*
X160352515Y-104242717D01*
X161459333Y-104242717D01*
X161459333Y-103124000D01*
X159088666Y-103124000D01*
X159071116Y-103387598D01*
X159023388Y-103530904D01*
X158994130Y-103547333D01*
X158935284Y-103476217D01*
X158941331Y-103328993D01*
X158925749Y-103134077D01*
X158814335Y-103049781D01*
X158648281Y-103103887D01*
X158629459Y-103118639D01*
X158504278Y-103169064D01*
X158456207Y-103128111D01*
X158331927Y-103048228D01*
X158268753Y-103039333D01*
X158179548Y-103080881D01*
X158175453Y-103230694D01*
X158184967Y-103283338D01*
X158201485Y-103504738D01*
X158146235Y-103603085D01*
X158064297Y-103584494D01*
X158027504Y-103482114D01*
X158010771Y-103268687D01*
X158012607Y-103121160D01*
X158019045Y-103070277D01*
X157522693Y-103070277D01*
X157425464Y-103228968D01*
X157279133Y-103292037D01*
X157230453Y-103269199D01*
X157248081Y-103255008D01*
X156871435Y-103255008D01*
X156851049Y-103253016D01*
X156744813Y-103178830D01*
X156683618Y-103100124D01*
X156657435Y-102997000D01*
X156083000Y-102997000D01*
X156049532Y-103200809D01*
X155968411Y-103299605D01*
X155868560Y-103265525D01*
X155856846Y-103249700D01*
X154717407Y-103249700D01*
X154700027Y-103552865D01*
X154691090Y-103627767D01*
X154658298Y-103657054D01*
X154602714Y-103572682D01*
X154547422Y-103423994D01*
X154515504Y-103260331D01*
X154514830Y-103251000D01*
X154505768Y-102954667D01*
X154145249Y-102954667D01*
X154140429Y-103007015D01*
X154051000Y-103124000D01*
X153906922Y-103250570D01*
X153810246Y-103293333D01*
X153800670Y-103245718D01*
X153897601Y-103130482D01*
X153904495Y-103124000D01*
X154053389Y-103002170D01*
X154145249Y-102954667D01*
X154505768Y-102954667D01*
X154505364Y-102941478D01*
X154516394Y-102864487D01*
X153987908Y-102864487D01*
X153976327Y-102870000D01*
X153899061Y-102810396D01*
X153881666Y-102785333D01*
X153860092Y-102706179D01*
X153871673Y-102700667D01*
X153948938Y-102760270D01*
X153966333Y-102785333D01*
X153987908Y-102864487D01*
X154516394Y-102864487D01*
X154530072Y-102769022D01*
X154594799Y-102703751D01*
X154622500Y-102700604D01*
X154675205Y-102777085D01*
X154707987Y-102975612D01*
X154717407Y-103249700D01*
X155856846Y-103249700D01*
X155841783Y-103229351D01*
X155821623Y-103092853D01*
X155823656Y-103081667D01*
X155278666Y-103081667D01*
X155232949Y-103194338D01*
X155194000Y-103208667D01*
X155118885Y-103140090D01*
X155109333Y-103081667D01*
X155155051Y-102968995D01*
X155194000Y-102954667D01*
X155269114Y-103023243D01*
X155278666Y-103081667D01*
X155823656Y-103081667D01*
X155855082Y-102908771D01*
X155921219Y-102753333D01*
X155987037Y-102700667D01*
X156050882Y-102775266D01*
X156082263Y-102959863D01*
X156083000Y-102997000D01*
X156657435Y-102997000D01*
X156643459Y-102941957D01*
X156698736Y-102855397D01*
X156774387Y-102812209D01*
X156801317Y-102908958D01*
X156802666Y-102973011D01*
X156824248Y-103151063D01*
X156866166Y-103229833D01*
X156871435Y-103255008D01*
X157248081Y-103255008D01*
X157280964Y-103228537D01*
X157369067Y-103103422D01*
X157414234Y-102954667D01*
X157447587Y-102817126D01*
X157488373Y-102834211D01*
X157516909Y-102892245D01*
X157522693Y-103070277D01*
X158019045Y-103070277D01*
X158048980Y-102833724D01*
X158127586Y-102709623D01*
X158249374Y-102747967D01*
X158326666Y-102827667D01*
X158488101Y-102936086D01*
X158580666Y-102954667D01*
X158758207Y-102893599D01*
X158834666Y-102827667D01*
X158963164Y-102714215D01*
X159044066Y-102749829D01*
X159083040Y-102941120D01*
X159088666Y-103124000D01*
X161459333Y-103124000D01*
X161459333Y-101971617D01*
X159716302Y-101971617D01*
X159682200Y-102081491D01*
X159650187Y-102083907D01*
X159592596Y-101988727D01*
X159546466Y-101777463D01*
X159528316Y-101593345D01*
X159528416Y-101473000D01*
X158919333Y-101473000D01*
X158892999Y-101620137D01*
X158834666Y-101642333D01*
X158755906Y-101519476D01*
X158750636Y-101477997D01*
X158326666Y-101477997D01*
X158297047Y-101634705D01*
X158242000Y-101684667D01*
X158182997Y-101610981D01*
X158182136Y-101604997D01*
X157564666Y-101604997D01*
X157500088Y-101682386D01*
X157480000Y-101684667D01*
X157405695Y-101615751D01*
X157395333Y-101552670D01*
X157432648Y-101473000D01*
X156972000Y-101473000D01*
X156950734Y-101668867D01*
X156898445Y-101766774D01*
X156887333Y-101769333D01*
X156831371Y-101694904D01*
X156803398Y-101511890D01*
X156802666Y-101473000D01*
X156806719Y-101435663D01*
X156210000Y-101435663D01*
X156185023Y-101611833D01*
X156125333Y-101684667D01*
X154897666Y-101684667D01*
X154893796Y-101762810D01*
X154865327Y-101769333D01*
X154745635Y-101707547D01*
X154728333Y-101684667D01*
X154730350Y-101643928D01*
X154055507Y-101643928D01*
X154043557Y-101924053D01*
X154003736Y-102067902D01*
X153970840Y-102081398D01*
X153918870Y-101986988D01*
X153886729Y-101780016D01*
X153881666Y-101642798D01*
X153896104Y-101422417D01*
X153306758Y-101422417D01*
X153268485Y-101595112D01*
X153211606Y-101615015D01*
X153168402Y-101490842D01*
X153162000Y-101383336D01*
X153190435Y-101226610D01*
X153243258Y-101176667D01*
X153295604Y-101249533D01*
X153306758Y-101422417D01*
X153896104Y-101422417D01*
X153897631Y-101399119D01*
X153938250Y-101238035D01*
X153966333Y-101205327D01*
X154015592Y-101265282D01*
X154047465Y-101459046D01*
X154055507Y-101643928D01*
X154730350Y-101643928D01*
X154732203Y-101606523D01*
X154760673Y-101600000D01*
X154880364Y-101661786D01*
X154897666Y-101684667D01*
X156125333Y-101684667D01*
X156069744Y-101610149D01*
X156049323Y-101477202D01*
X155601498Y-101477202D01*
X155588899Y-101551975D01*
X155516855Y-101674187D01*
X155466067Y-101635187D01*
X155448000Y-101456067D01*
X155465019Y-101306035D01*
X155524343Y-101305521D01*
X155543909Y-101323375D01*
X155601498Y-101477202D01*
X156049323Y-101477202D01*
X156041540Y-101426538D01*
X156040666Y-101383336D01*
X156057774Y-101219000D01*
X154855333Y-101219000D01*
X154813000Y-101261333D01*
X154770666Y-101219000D01*
X154813000Y-101176667D01*
X154855333Y-101219000D01*
X156057774Y-101219000D01*
X156060722Y-101190688D01*
X156113776Y-101129414D01*
X156125333Y-101134333D01*
X156186333Y-101248789D01*
X156210000Y-101435663D01*
X156806719Y-101435663D01*
X156823932Y-101277132D01*
X156876222Y-101179226D01*
X156887333Y-101176667D01*
X156943295Y-101251095D01*
X156971269Y-101434110D01*
X156972000Y-101473000D01*
X157432648Y-101473000D01*
X157436379Y-101465035D01*
X157480000Y-101473000D01*
X157561437Y-101581243D01*
X157564666Y-101604997D01*
X158182136Y-101604997D01*
X158157367Y-101432962D01*
X158157333Y-101425670D01*
X158180263Y-101256413D01*
X158239095Y-101217330D01*
X158242000Y-101219000D01*
X158307539Y-101335707D01*
X158326666Y-101477997D01*
X158750636Y-101477997D01*
X158750000Y-101473000D01*
X158803677Y-101330981D01*
X158834666Y-101303667D01*
X158897084Y-101334034D01*
X158919333Y-101473000D01*
X159528416Y-101473000D01*
X159528536Y-101329263D01*
X159559504Y-101220043D01*
X159608123Y-101256990D01*
X159661295Y-101431407D01*
X159703370Y-101709562D01*
X159716302Y-101971617D01*
X161459333Y-101971617D01*
X161459333Y-100160667D01*
X152569333Y-100160667D01*
X152569333Y-102022271D01*
X152569333Y-102022271D01*
G37*
X152569333Y-102022271D02*
X152209500Y-102278731D01*
X151969012Y-102464764D01*
X151667755Y-102718081D01*
X151366136Y-102987686D01*
X151331307Y-103020095D01*
X151051516Y-103275628D01*
X150782762Y-103510633D01*
X150575853Y-103680875D01*
X150548140Y-103701939D01*
X150423934Y-103800191D01*
X150346292Y-103897077D01*
X150304276Y-104032992D01*
X150286946Y-104248333D01*
X150283363Y-104583495D01*
X150283333Y-104679839D01*
X150295069Y-105109285D01*
X150328825Y-105408891D01*
X150382424Y-105559744D01*
X150384933Y-105562400D01*
X150448383Y-105584027D01*
X150598524Y-105602658D01*
X150844581Y-105618462D01*
X151195781Y-105631605D01*
X151661351Y-105642256D01*
X152250518Y-105650583D01*
X152972507Y-105656752D01*
X153836546Y-105660933D01*
X154851861Y-105663293D01*
X155972933Y-105664000D01*
X161459333Y-105664000D01*
X161459333Y-104242717D01*
X160352515Y-104242717D01*
X160254559Y-104326974D01*
X160188472Y-104351940D01*
X160048569Y-104438046D01*
X159839440Y-104614244D01*
X159604199Y-104843924D01*
X159583524Y-104865645D01*
X159365315Y-105087372D01*
X159188628Y-105250429D01*
X159087244Y-105323939D01*
X159080610Y-105325333D01*
X159039948Y-105248568D01*
X159004820Y-105049802D01*
X158987058Y-104839323D01*
X158961922Y-104553304D01*
X158915174Y-104396910D01*
X158832751Y-104330599D01*
X158803500Y-104323189D01*
X158663610Y-104363061D01*
X158465960Y-104495240D01*
X158249417Y-104682546D01*
X158052849Y-104887797D01*
X157915122Y-105073814D01*
X157875105Y-105203414D01*
X157876995Y-105209485D01*
X157859206Y-105290129D01*
X157707325Y-105323115D01*
X157616058Y-105325333D01*
X157413012Y-105312228D01*
X157328130Y-105244781D01*
X157310680Y-105080797D01*
X157310666Y-105071333D01*
X157292173Y-104892910D01*
X157247623Y-104817350D01*
X157246892Y-104817333D01*
X157153885Y-104873588D01*
X156999000Y-105014144D01*
X156943381Y-105071333D01*
X156702405Y-105263147D01*
X156439224Y-105325012D01*
X156414490Y-105325333D01*
X156221355Y-105316662D01*
X156127144Y-105295411D01*
X156125333Y-105291642D01*
X156163719Y-105205163D01*
X156261736Y-105021520D01*
X156335980Y-104889475D01*
X156490345Y-104589207D01*
X156539739Y-104404351D01*
X156486469Y-104319305D01*
X156421666Y-104309333D01*
X156308995Y-104263616D01*
X156294666Y-104224667D01*
X156040666Y-104224667D01*
X155977495Y-104306886D01*
X155957721Y-104309333D01*
X155862959Y-104381372D01*
X155749070Y-104559566D01*
X155642675Y-104787036D01*
X155570392Y-105006899D01*
X155558738Y-105161885D01*
X155549909Y-105276489D01*
X155420615Y-105335560D01*
X155333016Y-105349435D01*
X155129342Y-105376849D01*
X155009274Y-105396272D01*
X155008497Y-105396450D01*
X154916854Y-105349789D01*
X154894144Y-105319634D01*
X154914337Y-105228517D01*
X154994981Y-105186905D01*
X155121160Y-105089985D01*
X155266728Y-104890782D01*
X155337795Y-104760201D01*
X155369486Y-104692322D01*
X154924231Y-104692322D01*
X154802282Y-104911261D01*
X154731507Y-104983685D01*
X154347909Y-105271098D01*
X153982958Y-105398209D01*
X153644514Y-105362331D01*
X153634591Y-105358608D01*
X153521602Y-105240754D01*
X153500666Y-105146941D01*
X153527795Y-105010836D01*
X153621059Y-105013308D01*
X153774952Y-105132025D01*
X153906255Y-105225478D01*
X154033087Y-105215594D01*
X154162619Y-105150521D01*
X154341367Y-104981328D01*
X154419024Y-104764065D01*
X154400188Y-104547290D01*
X154289457Y-104379558D01*
X154091429Y-104309424D01*
X154082966Y-104309333D01*
X153948046Y-104356784D01*
X153908770Y-104517172D01*
X153917680Y-104626833D01*
X153853740Y-104705619D01*
X153673711Y-104732667D01*
X153470922Y-104703299D01*
X153426459Y-104617633D01*
X153542205Y-104479327D01*
X153543000Y-104478667D01*
X153650591Y-104334519D01*
X153670000Y-104256633D01*
X153682061Y-104242717D01*
X153325181Y-104242717D01*
X153227226Y-104326974D01*
X153161139Y-104351940D01*
X153021235Y-104438046D01*
X152812106Y-104614244D01*
X152576865Y-104843924D01*
X152556190Y-104865645D01*
X152337350Y-105087473D01*
X152159225Y-105250555D01*
X152055932Y-105323967D01*
X152049052Y-105325333D01*
X152009504Y-105248742D01*
X151983213Y-105051071D01*
X151976666Y-104857009D01*
X151960411Y-104552329D01*
X151907087Y-104386423D01*
X151849666Y-104339951D01*
X151727915Y-104260969D01*
X151757781Y-104191190D01*
X151921712Y-104147197D01*
X152061333Y-104140000D01*
X152296818Y-104160971D01*
X152393853Y-104230488D01*
X152400000Y-104267000D01*
X152473601Y-104369143D01*
X152611666Y-104394000D01*
X152781905Y-104349839D01*
X152823333Y-104267000D01*
X152899061Y-104166174D01*
X153077333Y-104140000D01*
X153271339Y-104170583D01*
X153325181Y-104242717D01*
X153682061Y-104242717D01*
X153742415Y-104173081D01*
X153927103Y-104139124D01*
X154175231Y-104152220D01*
X154437965Y-104209828D01*
X154664833Y-104308405D01*
X154878674Y-104493993D01*
X154924231Y-104692322D01*
X155369486Y-104692322D01*
X155444049Y-104532617D01*
X155477332Y-104413360D01*
X155439795Y-104359000D01*
X155358962Y-104332722D01*
X155208863Y-104268884D01*
X155210761Y-104207039D01*
X155347657Y-104159867D01*
X155602555Y-104140046D01*
X155617333Y-104140000D01*
X155858821Y-104155229D01*
X156012098Y-104194168D01*
X156040666Y-104224667D01*
X156294666Y-104224667D01*
X156370813Y-104176369D01*
X156565509Y-104145714D01*
X156718000Y-104140000D01*
X156959569Y-104146835D01*
X157112837Y-104164310D01*
X157141333Y-104177971D01*
X157089636Y-104259031D01*
X156962804Y-104408314D01*
X156938919Y-104434351D01*
X156787439Y-104629913D01*
X156696673Y-104805684D01*
X156694484Y-104813446D01*
X156700535Y-104927266D01*
X156790730Y-104931301D01*
X156936451Y-104842094D01*
X157109080Y-104676186D01*
X157253493Y-104490321D01*
X157432342Y-104265089D01*
X157556460Y-104199536D01*
X157628028Y-104293861D01*
X157649333Y-104525997D01*
X157666433Y-104734513D01*
X157730332Y-104801314D01*
X157859928Y-104728250D01*
X158030333Y-104563333D01*
X158171400Y-104401276D01*
X158192986Y-104324897D01*
X158130840Y-104309333D01*
X158008352Y-104268089D01*
X157988000Y-104224667D01*
X158067666Y-104183579D01*
X158287097Y-104154436D01*
X158616935Y-104140649D01*
X158716725Y-104140000D01*
X159071390Y-104144257D01*
X159285041Y-104160538D01*
X159385866Y-104194106D01*
X159402049Y-104250227D01*
X159396715Y-104267000D01*
X159404343Y-104359438D01*
X159543294Y-104392865D01*
X159599324Y-104394000D01*
X159799017Y-104355801D01*
X159850666Y-104267000D01*
X159926395Y-104166174D01*
X160104666Y-104140000D01*
X160298672Y-104170583D01*
X160352515Y-104242717D01*
X161459333Y-104242717D01*
X161459333Y-103124000D01*
X159088666Y-103124000D01*
X159071116Y-103387598D01*
X159023388Y-103530904D01*
X158994130Y-103547333D01*
X158935284Y-103476217D01*
X158941331Y-103328993D01*
X158925749Y-103134077D01*
X158814335Y-103049781D01*
X158648281Y-103103887D01*
X158629459Y-103118639D01*
X158504278Y-103169064D01*
X158456207Y-103128111D01*
X158331927Y-103048228D01*
X158268753Y-103039333D01*
X158179548Y-103080881D01*
X158175453Y-103230694D01*
X158184967Y-103283338D01*
X158201485Y-103504738D01*
X158146235Y-103603085D01*
X158064297Y-103584494D01*
X158027504Y-103482114D01*
X158010771Y-103268687D01*
X158012607Y-103121160D01*
X158019045Y-103070277D01*
X157522693Y-103070277D01*
X157425464Y-103228968D01*
X157279133Y-103292037D01*
X157230453Y-103269199D01*
X157248081Y-103255008D01*
X156871435Y-103255008D01*
X156851049Y-103253016D01*
X156744813Y-103178830D01*
X156683618Y-103100124D01*
X156657435Y-102997000D01*
X156083000Y-102997000D01*
X156049532Y-103200809D01*
X155968411Y-103299605D01*
X155868560Y-103265525D01*
X155856846Y-103249700D01*
X154717407Y-103249700D01*
X154700027Y-103552865D01*
X154691090Y-103627767D01*
X154658298Y-103657054D01*
X154602714Y-103572682D01*
X154547422Y-103423994D01*
X154515504Y-103260331D01*
X154514830Y-103251000D01*
X154505768Y-102954667D01*
X154145249Y-102954667D01*
X154140429Y-103007015D01*
X154051000Y-103124000D01*
X153906922Y-103250570D01*
X153810246Y-103293333D01*
X153800670Y-103245718D01*
X153897601Y-103130482D01*
X153904495Y-103124000D01*
X154053389Y-103002170D01*
X154145249Y-102954667D01*
X154505768Y-102954667D01*
X154505364Y-102941478D01*
X154516394Y-102864487D01*
X153987908Y-102864487D01*
X153976327Y-102870000D01*
X153899061Y-102810396D01*
X153881666Y-102785333D01*
X153860092Y-102706179D01*
X153871673Y-102700667D01*
X153948938Y-102760270D01*
X153966333Y-102785333D01*
X153987908Y-102864487D01*
X154516394Y-102864487D01*
X154530072Y-102769022D01*
X154594799Y-102703751D01*
X154622500Y-102700604D01*
X154675205Y-102777085D01*
X154707987Y-102975612D01*
X154717407Y-103249700D01*
X155856846Y-103249700D01*
X155841783Y-103229351D01*
X155821623Y-103092853D01*
X155823656Y-103081667D01*
X155278666Y-103081667D01*
X155232949Y-103194338D01*
X155194000Y-103208667D01*
X155118885Y-103140090D01*
X155109333Y-103081667D01*
X155155051Y-102968995D01*
X155194000Y-102954667D01*
X155269114Y-103023243D01*
X155278666Y-103081667D01*
X155823656Y-103081667D01*
X155855082Y-102908771D01*
X155921219Y-102753333D01*
X155987037Y-102700667D01*
X156050882Y-102775266D01*
X156082263Y-102959863D01*
X156083000Y-102997000D01*
X156657435Y-102997000D01*
X156643459Y-102941957D01*
X156698736Y-102855397D01*
X156774387Y-102812209D01*
X156801317Y-102908958D01*
X156802666Y-102973011D01*
X156824248Y-103151063D01*
X156866166Y-103229833D01*
X156871435Y-103255008D01*
X157248081Y-103255008D01*
X157280964Y-103228537D01*
X157369067Y-103103422D01*
X157414234Y-102954667D01*
X157447587Y-102817126D01*
X157488373Y-102834211D01*
X157516909Y-102892245D01*
X157522693Y-103070277D01*
X158019045Y-103070277D01*
X158048980Y-102833724D01*
X158127586Y-102709623D01*
X158249374Y-102747967D01*
X158326666Y-102827667D01*
X158488101Y-102936086D01*
X158580666Y-102954667D01*
X158758207Y-102893599D01*
X158834666Y-102827667D01*
X158963164Y-102714215D01*
X159044066Y-102749829D01*
X159083040Y-102941120D01*
X159088666Y-103124000D01*
X161459333Y-103124000D01*
X161459333Y-101971617D01*
X159716302Y-101971617D01*
X159682200Y-102081491D01*
X159650187Y-102083907D01*
X159592596Y-101988727D01*
X159546466Y-101777463D01*
X159528316Y-101593345D01*
X159528416Y-101473000D01*
X158919333Y-101473000D01*
X158892999Y-101620137D01*
X158834666Y-101642333D01*
X158755906Y-101519476D01*
X158750636Y-101477997D01*
X158326666Y-101477997D01*
X158297047Y-101634705D01*
X158242000Y-101684667D01*
X158182997Y-101610981D01*
X158182136Y-101604997D01*
X157564666Y-101604997D01*
X157500088Y-101682386D01*
X157480000Y-101684667D01*
X157405695Y-101615751D01*
X157395333Y-101552670D01*
X157432648Y-101473000D01*
X156972000Y-101473000D01*
X156950734Y-101668867D01*
X156898445Y-101766774D01*
X156887333Y-101769333D01*
X156831371Y-101694904D01*
X156803398Y-101511890D01*
X156802666Y-101473000D01*
X156806719Y-101435663D01*
X156210000Y-101435663D01*
X156185023Y-101611833D01*
X156125333Y-101684667D01*
X154897666Y-101684667D01*
X154893796Y-101762810D01*
X154865327Y-101769333D01*
X154745635Y-101707547D01*
X154728333Y-101684667D01*
X154730350Y-101643928D01*
X154055507Y-101643928D01*
X154043557Y-101924053D01*
X154003736Y-102067902D01*
X153970840Y-102081398D01*
X153918870Y-101986988D01*
X153886729Y-101780016D01*
X153881666Y-101642798D01*
X153896104Y-101422417D01*
X153306758Y-101422417D01*
X153268485Y-101595112D01*
X153211606Y-101615015D01*
X153168402Y-101490842D01*
X153162000Y-101383336D01*
X153190435Y-101226610D01*
X153243258Y-101176667D01*
X153295604Y-101249533D01*
X153306758Y-101422417D01*
X153896104Y-101422417D01*
X153897631Y-101399119D01*
X153938250Y-101238035D01*
X153966333Y-101205327D01*
X154015592Y-101265282D01*
X154047465Y-101459046D01*
X154055507Y-101643928D01*
X154730350Y-101643928D01*
X154732203Y-101606523D01*
X154760673Y-101600000D01*
X154880364Y-101661786D01*
X154897666Y-101684667D01*
X156125333Y-101684667D01*
X156069744Y-101610149D01*
X156049323Y-101477202D01*
X155601498Y-101477202D01*
X155588899Y-101551975D01*
X155516855Y-101674187D01*
X155466067Y-101635187D01*
X155448000Y-101456067D01*
X155465019Y-101306035D01*
X155524343Y-101305521D01*
X155543909Y-101323375D01*
X155601498Y-101477202D01*
X156049323Y-101477202D01*
X156041540Y-101426538D01*
X156040666Y-101383336D01*
X156057774Y-101219000D01*
X154855333Y-101219000D01*
X154813000Y-101261333D01*
X154770666Y-101219000D01*
X154813000Y-101176667D01*
X154855333Y-101219000D01*
X156057774Y-101219000D01*
X156060722Y-101190688D01*
X156113776Y-101129414D01*
X156125333Y-101134333D01*
X156186333Y-101248789D01*
X156210000Y-101435663D01*
X156806719Y-101435663D01*
X156823932Y-101277132D01*
X156876222Y-101179226D01*
X156887333Y-101176667D01*
X156943295Y-101251095D01*
X156971269Y-101434110D01*
X156972000Y-101473000D01*
X157432648Y-101473000D01*
X157436379Y-101465035D01*
X157480000Y-101473000D01*
X157561437Y-101581243D01*
X157564666Y-101604997D01*
X158182136Y-101604997D01*
X158157367Y-101432962D01*
X158157333Y-101425670D01*
X158180263Y-101256413D01*
X158239095Y-101217330D01*
X158242000Y-101219000D01*
X158307539Y-101335707D01*
X158326666Y-101477997D01*
X158750636Y-101477997D01*
X158750000Y-101473000D01*
X158803677Y-101330981D01*
X158834666Y-101303667D01*
X158897084Y-101334034D01*
X158919333Y-101473000D01*
X159528416Y-101473000D01*
X159528536Y-101329263D01*
X159559504Y-101220043D01*
X159608123Y-101256990D01*
X159661295Y-101431407D01*
X159703370Y-101709562D01*
X159716302Y-101971617D01*
X161459333Y-101971617D01*
X161459333Y-100160667D01*
X152569333Y-100160667D01*
X152569333Y-102022271D01*
G36*
X159916251Y-94572667D02*
X159929019Y-95205192D01*
X159941876Y-95676903D01*
X159954530Y-95986622D01*
X159966686Y-96133167D01*
X159978053Y-96115360D01*
X159988336Y-95932021D01*
X159997241Y-95581970D01*
X160004475Y-95064028D01*
X160005767Y-94932500D01*
X160020000Y-93387333D01*
X161505405Y-93387333D01*
X162202036Y-94087602D01*
X162898667Y-94787870D01*
X162898667Y-100098935D01*
X162898666Y-105410000D01*
X162136666Y-105410000D01*
X162119095Y-102594833D01*
X162114364Y-101963038D01*
X162108755Y-101423105D01*
X162102535Y-100988167D01*
X162095969Y-100671360D01*
X162089325Y-100485818D01*
X162082868Y-100444673D01*
X162077447Y-100541667D01*
X162069738Y-100844970D01*
X162061159Y-101282974D01*
X162052256Y-101821050D01*
X162043580Y-102424571D01*
X162035678Y-103058909D01*
X162031519Y-103441575D01*
X162009666Y-105579484D01*
X163025666Y-105579334D01*
X162988354Y-94713918D01*
X162268891Y-93991214D01*
X161549427Y-93268509D01*
X160721214Y-93264421D01*
X159893000Y-93260333D01*
X159916251Y-94572667D01*
X159916251Y-94572667D01*
G37*
X159916251Y-94572667D02*
X159929019Y-95205192D01*
X159941876Y-95676903D01*
X159954530Y-95986622D01*
X159966686Y-96133167D01*
X159978053Y-96115360D01*
X159988336Y-95932021D01*
X159997241Y-95581970D01*
X160004475Y-95064028D01*
X160005767Y-94932500D01*
X160020000Y-93387333D01*
X161505405Y-93387333D01*
X162202036Y-94087602D01*
X162898667Y-94787870D01*
X162898667Y-100098935D01*
X162898666Y-105410000D01*
X162136666Y-105410000D01*
X162119095Y-102594833D01*
X162114364Y-101963038D01*
X162108755Y-101423105D01*
X162102535Y-100988167D01*
X162095969Y-100671360D01*
X162089325Y-100485818D01*
X162082868Y-100444673D01*
X162077447Y-100541667D01*
X162069738Y-100844970D01*
X162061159Y-101282974D01*
X162052256Y-101821050D01*
X162043580Y-102424571D01*
X162035678Y-103058909D01*
X162031519Y-103441575D01*
X162009666Y-105579484D01*
X163025666Y-105579334D01*
X162988354Y-94713918D01*
X162268891Y-93991214D01*
X161549427Y-93268509D01*
X160721214Y-93264421D01*
X159893000Y-93260333D01*
X159916251Y-94572667D01*
G36*
X144473115Y-101993020D02*
X144492559Y-102037721D01*
X144496720Y-102100892D01*
X144408492Y-102081024D01*
X144310187Y-102068065D01*
X144313024Y-102105881D01*
X144295428Y-102210861D01*
X144194766Y-102351265D01*
X144064795Y-102468474D01*
X143959273Y-102503865D01*
X143951412Y-102500213D01*
X143902566Y-102542973D01*
X143878101Y-102677518D01*
X143826676Y-102869042D01*
X143751101Y-102964430D01*
X143683962Y-103024639D01*
X143745490Y-103038037D01*
X143861937Y-102970051D01*
X143907209Y-102891167D01*
X143994670Y-102753472D01*
X144165112Y-102552219D01*
X144321406Y-102390799D01*
X144539145Y-102158044D01*
X144621763Y-102012804D01*
X144573071Y-101945786D01*
X144506892Y-101938667D01*
X144473115Y-101993020D01*
X144473115Y-101993020D01*
G37*
X144473115Y-101993020D02*
X144492559Y-102037721D01*
X144496720Y-102100892D01*
X144408492Y-102081024D01*
X144310187Y-102068065D01*
X144313024Y-102105881D01*
X144295428Y-102210861D01*
X144194766Y-102351265D01*
X144064795Y-102468474D01*
X143959273Y-102503865D01*
X143951412Y-102500213D01*
X143902566Y-102542973D01*
X143878101Y-102677518D01*
X143826676Y-102869042D01*
X143751101Y-102964430D01*
X143683962Y-103024639D01*
X143745490Y-103038037D01*
X143861937Y-102970051D01*
X143907209Y-102891167D01*
X143994670Y-102753472D01*
X144165112Y-102552219D01*
X144321406Y-102390799D01*
X144539145Y-102158044D01*
X144621763Y-102012804D01*
X144573071Y-101945786D01*
X144506892Y-101938667D01*
X144473115Y-101993020D01*
G36*
X145097557Y-102058537D02*
X144922687Y-102136654D01*
X144864666Y-102161528D01*
X144749684Y-102243032D01*
X144589599Y-102394081D01*
X144417297Y-102577708D01*
X144265659Y-102756946D01*
X144167571Y-102894828D01*
X144155915Y-102954386D01*
X144159148Y-102954667D01*
X144257209Y-102898453D01*
X144427182Y-102753580D01*
X144568333Y-102616000D01*
X144767643Y-102429134D01*
X144931121Y-102306134D01*
X144999791Y-102277333D01*
X145113667Y-102209092D01*
X145151999Y-102143258D01*
X145157182Y-102049133D01*
X145097557Y-102058537D01*
X145097557Y-102058537D01*
G37*
X145097557Y-102058537D02*
X144922687Y-102136654D01*
X144864666Y-102161528D01*
X144749684Y-102243032D01*
X144589599Y-102394081D01*
X144417297Y-102577708D01*
X144265659Y-102756946D01*
X144167571Y-102894828D01*
X144155915Y-102954386D01*
X144159148Y-102954667D01*
X144257209Y-102898453D01*
X144427182Y-102753580D01*
X144568333Y-102616000D01*
X144767643Y-102429134D01*
X144931121Y-102306134D01*
X144999791Y-102277333D01*
X145113667Y-102209092D01*
X145151999Y-102143258D01*
X145157182Y-102049133D01*
X145097557Y-102058537D01*
G36*
X149435746Y-93273836D02*
X147995598Y-93287340D01*
X147975299Y-97655346D01*
X147971807Y-98758550D01*
X147972285Y-99705010D01*
X147976706Y-100492731D01*
X147985038Y-101119718D01*
X147997254Y-101583976D01*
X148013323Y-101883508D01*
X148033217Y-102016321D01*
X148039666Y-102023367D01*
X148061033Y-101939159D01*
X148079391Y-101688295D01*
X148094687Y-101273424D01*
X148106871Y-100697199D01*
X148115888Y-99962269D01*
X148121688Y-99071286D01*
X148124218Y-98026900D01*
X148124333Y-97726525D01*
X148124333Y-93429667D01*
X149500166Y-93406403D01*
X149961336Y-93395035D01*
X150356754Y-93378477D01*
X150658303Y-93358460D01*
X150837867Y-93336712D01*
X150875947Y-93321736D01*
X150795857Y-93302343D01*
X150573942Y-93287056D01*
X150237680Y-93276788D01*
X149814549Y-93272454D01*
X149435746Y-93273836D01*
X149435746Y-93273836D01*
G37*
X149435746Y-93273836D02*
X147995598Y-93287340D01*
X147975299Y-97655346D01*
X147971807Y-98758550D01*
X147972285Y-99705010D01*
X147976706Y-100492731D01*
X147985038Y-101119718D01*
X147997254Y-101583976D01*
X148013323Y-101883508D01*
X148033217Y-102016321D01*
X148039666Y-102023367D01*
X148061033Y-101939159D01*
X148079391Y-101688295D01*
X148094687Y-101273424D01*
X148106871Y-100697199D01*
X148115888Y-99962269D01*
X148121688Y-99071286D01*
X148124218Y-98026900D01*
X148124333Y-97726525D01*
X148124333Y-93429667D01*
X149500166Y-93406403D01*
X149961336Y-93395035D01*
X150356754Y-93378477D01*
X150658303Y-93358460D01*
X150837867Y-93336712D01*
X150875947Y-93321736D01*
X150795857Y-93302343D01*
X150573942Y-93287056D01*
X150237680Y-93276788D01*
X149814549Y-93272454D01*
X149435746Y-93273836D01*
G36*
X144723555Y-101882222D02*
X144735178Y-101932556D01*
X144780000Y-101938667D01*
X144849690Y-101907688D01*
X144836444Y-101882222D01*
X144735965Y-101872089D01*
X144723555Y-101882222D01*
X144723555Y-101882222D01*
G37*
X144723555Y-101882222D02*
X144735178Y-101932556D01*
X144780000Y-101938667D01*
X144849690Y-101907688D01*
X144836444Y-101882222D01*
X144735965Y-101872089D01*
X144723555Y-101882222D01*
G36*
X145118666Y-101811667D02*
X145161000Y-101854000D01*
X145203333Y-101811667D01*
X145161000Y-101769333D01*
X145118666Y-101811667D01*
X145118666Y-101811667D01*
G37*
X145118666Y-101811667D02*
X145161000Y-101854000D01*
X145203333Y-101811667D01*
X145161000Y-101769333D01*
X145118666Y-101811667D01*
G36*
X144949333Y-101811667D02*
X144991666Y-101854000D01*
X145034000Y-101811667D01*
X144991666Y-101769333D01*
X144949333Y-101811667D01*
X144949333Y-101811667D01*
G37*
X144949333Y-101811667D02*
X144991666Y-101854000D01*
X145034000Y-101811667D01*
X144991666Y-101769333D01*
X144949333Y-101811667D01*
G36*
X148352154Y-101644204D02*
X148336000Y-101684667D01*
X148396767Y-101766910D01*
X148415670Y-101769333D01*
X148530337Y-101707789D01*
X148547666Y-101684667D01*
X148528473Y-101612183D01*
X148467997Y-101600000D01*
X148352154Y-101644204D01*
X148352154Y-101644204D01*
G37*
X148352154Y-101644204D02*
X148336000Y-101684667D01*
X148396767Y-101766910D01*
X148415670Y-101769333D01*
X148530337Y-101707789D01*
X148547666Y-101684667D01*
X148528473Y-101612183D01*
X148467997Y-101600000D01*
X148352154Y-101644204D01*
G36*
X145380302Y-101617632D02*
X145390679Y-101696371D01*
X145437311Y-101760105D01*
X145492643Y-101696030D01*
X145523711Y-101571385D01*
X145508145Y-101537922D01*
X145424445Y-101524019D01*
X145380302Y-101617632D01*
X145380302Y-101617632D01*
G37*
X145380302Y-101617632D02*
X145390679Y-101696371D01*
X145437311Y-101760105D01*
X145492643Y-101696030D01*
X145523711Y-101571385D01*
X145508145Y-101537922D01*
X145424445Y-101524019D01*
X145380302Y-101617632D01*
G36*
X148772415Y-101380248D02*
X148681521Y-101465499D01*
X148700167Y-101514509D01*
X148712003Y-101515333D01*
X148783616Y-101455196D01*
X148809751Y-101417585D01*
X148819731Y-101359648D01*
X148772415Y-101380248D01*
X148772415Y-101380248D01*
G37*
X148772415Y-101380248D02*
X148681521Y-101465499D01*
X148700167Y-101514509D01*
X148712003Y-101515333D01*
X148783616Y-101455196D01*
X148809751Y-101417585D01*
X148819731Y-101359648D01*
X148772415Y-101380248D01*
G36*
X145192998Y-101204183D02*
X145136906Y-101344480D01*
X145142779Y-101398335D01*
X145200532Y-101368150D01*
X145235207Y-101300393D01*
X145283176Y-101139626D01*
X145263481Y-101107551D01*
X145192998Y-101204183D01*
X145192998Y-101204183D01*
G37*
X145192998Y-101204183D02*
X145136906Y-101344480D01*
X145142779Y-101398335D01*
X145200532Y-101368150D01*
X145235207Y-101300393D01*
X145283176Y-101139626D01*
X145263481Y-101107551D01*
X145192998Y-101204183D01*
G36*
X145620026Y-101018904D02*
X145575697Y-101078636D01*
X145491190Y-101232778D01*
X145484171Y-101316393D01*
X145551522Y-101288050D01*
X145619807Y-101189484D01*
X145700115Y-101010798D01*
X145697969Y-100948362D01*
X145620026Y-101018904D01*
X145620026Y-101018904D01*
G37*
X145620026Y-101018904D02*
X145575697Y-101078636D01*
X145491190Y-101232778D01*
X145484171Y-101316393D01*
X145551522Y-101288050D01*
X145619807Y-101189484D01*
X145700115Y-101010798D01*
X145697969Y-100948362D01*
X145620026Y-101018904D01*
G36*
X149030252Y-100029728D02*
X149006851Y-100326419D01*
X148990278Y-100605167D01*
X148980460Y-100984788D01*
X149002199Y-101201867D01*
X149047216Y-101261531D01*
X149095193Y-101184441D01*
X149116062Y-100949780D01*
X149110213Y-100552849D01*
X149108891Y-100520697D01*
X149089857Y-100147448D01*
X149070946Y-99940819D01*
X149051347Y-99901387D01*
X149030252Y-100029728D01*
X149030252Y-100029728D01*
G37*
X149030252Y-100029728D02*
X149006851Y-100326419D01*
X148990278Y-100605167D01*
X148980460Y-100984788D01*
X149002199Y-101201867D01*
X149047216Y-101261531D01*
X149095193Y-101184441D01*
X149116062Y-100949780D01*
X149110213Y-100552849D01*
X149108891Y-100520697D01*
X149089857Y-100147448D01*
X149070946Y-99940819D01*
X149051347Y-99901387D01*
X149030252Y-100029728D01*
G36*
X145246266Y-100923636D02*
X145336822Y-100993822D01*
X145433867Y-101005600D01*
X145457333Y-100974058D01*
X145390920Y-100919682D01*
X145325936Y-100890361D01*
X145238536Y-100884444D01*
X145246266Y-100923636D01*
X145246266Y-100923636D01*
G37*
X145246266Y-100923636D02*
X145336822Y-100993822D01*
X145433867Y-101005600D01*
X145457333Y-100974058D01*
X145390920Y-100919682D01*
X145325936Y-100890361D01*
X145238536Y-100884444D01*
X145246266Y-100923636D01*
G36*
X146176112Y-99991430D02*
X145977720Y-100199332D01*
X145854334Y-100489869D01*
X145847287Y-100523714D01*
X145820320Y-100724801D01*
X145826850Y-100832359D01*
X145834497Y-100838000D01*
X145879502Y-100772712D01*
X145880666Y-100753977D01*
X145938451Y-100626830D01*
X146096497Y-100413579D01*
X146331848Y-100144270D01*
X146409833Y-100061488D01*
X146509227Y-99947587D01*
X146488500Y-99911265D01*
X146409833Y-99909483D01*
X146176112Y-99991430D01*
X146176112Y-99991430D01*
G37*
X146176112Y-99991430D02*
X145977720Y-100199332D01*
X145854334Y-100489869D01*
X145847287Y-100523714D01*
X145820320Y-100724801D01*
X145826850Y-100832359D01*
X145834497Y-100838000D01*
X145879502Y-100772712D01*
X145880666Y-100753977D01*
X145938451Y-100626830D01*
X146096497Y-100413579D01*
X146331848Y-100144270D01*
X146409833Y-100061488D01*
X146509227Y-99947587D01*
X146488500Y-99911265D01*
X146409833Y-99909483D01*
X146176112Y-99991430D01*
G36*
X149727215Y-100210275D02*
X149690666Y-100372333D01*
X149722598Y-100548168D01*
X149818267Y-100567142D01*
X149927733Y-100482400D01*
X150023076Y-100321255D01*
X149985412Y-100199093D01*
X149860000Y-100160667D01*
X149727215Y-100210275D01*
X149727215Y-100210275D01*
G37*
X149727215Y-100210275D02*
X149690666Y-100372333D01*
X149722598Y-100548168D01*
X149818267Y-100567142D01*
X149927733Y-100482400D01*
X150023076Y-100321255D01*
X149985412Y-100199093D01*
X149860000Y-100160667D01*
X149727215Y-100210275D01*
G36*
X145895065Y-99792320D02*
X145785123Y-99941503D01*
X145687068Y-100146810D01*
X145617932Y-100356691D01*
X145594746Y-100519599D01*
X145633491Y-100584000D01*
X145694168Y-100512167D01*
X145711333Y-100392635D01*
X145767136Y-100205490D01*
X145904189Y-99994765D01*
X145931567Y-99963757D01*
X146067479Y-99788713D01*
X146102212Y-99686176D01*
X146041045Y-99680947D01*
X145895065Y-99792320D01*
X145895065Y-99792320D01*
G37*
X145895065Y-99792320D02*
X145785123Y-99941503D01*
X145687068Y-100146810D01*
X145617932Y-100356691D01*
X145594746Y-100519599D01*
X145633491Y-100584000D01*
X145694168Y-100512167D01*
X145711333Y-100392635D01*
X145767136Y-100205490D01*
X145904189Y-99994765D01*
X145931567Y-99963757D01*
X146067479Y-99788713D01*
X146102212Y-99686176D01*
X146041045Y-99680947D01*
X145895065Y-99792320D01*
G36*
X151087666Y-99328613D02*
X150719284Y-99333842D01*
X150507984Y-99341275D01*
X150441513Y-99353279D01*
X150507620Y-99372221D01*
X150694053Y-99400466D01*
X150706666Y-99402214D01*
X151074294Y-99442596D01*
X151461927Y-99469825D01*
X151606466Y-99474960D01*
X151928915Y-99508639D01*
X152125257Y-99589765D01*
X152146000Y-99610333D01*
X152186138Y-99637718D01*
X152265962Y-99660949D01*
X152398211Y-99680354D01*
X152595627Y-99696262D01*
X152870949Y-99709001D01*
X153236918Y-99718902D01*
X153706275Y-99726291D01*
X154291760Y-99731499D01*
X155006114Y-99734854D01*
X155862078Y-99736685D01*
X156872390Y-99737320D01*
X157067033Y-99737333D01*
X158223672Y-99735851D01*
X159226003Y-99731432D01*
X160071780Y-99724116D01*
X160758752Y-99713941D01*
X161284673Y-99700947D01*
X161647293Y-99685174D01*
X161844364Y-99666662D01*
X161882666Y-99652667D01*
X161798386Y-99632320D01*
X161547045Y-99614690D01*
X161130898Y-99599815D01*
X160552195Y-99587736D01*
X159813189Y-99578491D01*
X158916134Y-99572121D01*
X157863281Y-99568665D01*
X157072849Y-99568000D01*
X156028980Y-99567483D01*
X155141678Y-99565721D01*
X154398180Y-99562395D01*
X153785722Y-99557185D01*
X153291541Y-99549773D01*
X152902872Y-99539839D01*
X152606953Y-99527064D01*
X152391019Y-99511131D01*
X152242307Y-99491719D01*
X152148054Y-99468510D01*
X152098682Y-99443693D01*
X151958741Y-99380704D01*
X151723311Y-99343320D01*
X151364121Y-99328321D01*
X151087666Y-99328613D01*
X151087666Y-99328613D01*
G37*
X151087666Y-99328613D02*
X150719284Y-99333842D01*
X150507984Y-99341275D01*
X150441513Y-99353279D01*
X150507620Y-99372221D01*
X150694053Y-99400466D01*
X150706666Y-99402214D01*
X151074294Y-99442596D01*
X151461927Y-99469825D01*
X151606466Y-99474960D01*
X151928915Y-99508639D01*
X152125257Y-99589765D01*
X152146000Y-99610333D01*
X152186138Y-99637718D01*
X152265962Y-99660949D01*
X152398211Y-99680354D01*
X152595627Y-99696262D01*
X152870949Y-99709001D01*
X153236918Y-99718902D01*
X153706275Y-99726291D01*
X154291760Y-99731499D01*
X155006114Y-99734854D01*
X155862078Y-99736685D01*
X156872390Y-99737320D01*
X157067033Y-99737333D01*
X158223672Y-99735851D01*
X159226003Y-99731432D01*
X160071780Y-99724116D01*
X160758752Y-99713941D01*
X161284673Y-99700947D01*
X161647293Y-99685174D01*
X161844364Y-99666662D01*
X161882666Y-99652667D01*
X161798386Y-99632320D01*
X161547045Y-99614690D01*
X161130898Y-99599815D01*
X160552195Y-99587736D01*
X159813189Y-99578491D01*
X158916134Y-99572121D01*
X157863281Y-99568665D01*
X157072849Y-99568000D01*
X156028980Y-99567483D01*
X155141678Y-99565721D01*
X154398180Y-99562395D01*
X153785722Y-99557185D01*
X153291541Y-99549773D01*
X152902872Y-99539839D01*
X152606953Y-99527064D01*
X152391019Y-99511131D01*
X152242307Y-99491719D01*
X152148054Y-99468510D01*
X152098682Y-99443693D01*
X151958741Y-99380704D01*
X151723311Y-99343320D01*
X151364121Y-99328321D01*
X151087666Y-99328613D01*
G36*
X149477985Y-99581918D02*
X149308843Y-99617822D01*
X149267333Y-99652667D01*
X149343885Y-99699033D01*
X149541358Y-99729786D01*
X149733000Y-99737333D01*
X149988015Y-99723415D01*
X150157156Y-99687511D01*
X150198666Y-99652667D01*
X150122115Y-99606300D01*
X149924642Y-99575547D01*
X149733000Y-99568000D01*
X149477985Y-99581918D01*
X149477985Y-99581918D01*
G37*
X149477985Y-99581918D02*
X149308843Y-99617822D01*
X149267333Y-99652667D01*
X149343885Y-99699033D01*
X149541358Y-99729786D01*
X149733000Y-99737333D01*
X149988015Y-99723415D01*
X150157156Y-99687511D01*
X150198666Y-99652667D01*
X150122115Y-99606300D01*
X149924642Y-99575547D01*
X149733000Y-99568000D01*
X149477985Y-99581918D01*
G36*
X146812000Y-99695000D02*
X146854333Y-99737333D01*
X146896666Y-99695000D01*
X146854333Y-99652667D01*
X146812000Y-99695000D01*
X146812000Y-99695000D01*
G37*
X146812000Y-99695000D02*
X146854333Y-99737333D01*
X146896666Y-99695000D01*
X146854333Y-99652667D01*
X146812000Y-99695000D01*
G36*
X147315504Y-92832745D02*
X147292206Y-92955066D01*
X147272708Y-93173687D01*
X147256558Y-93500681D01*
X147243303Y-93948121D01*
X147232491Y-94528079D01*
X147223668Y-95252629D01*
X147216381Y-96133843D01*
X147216055Y-96181363D01*
X147211107Y-97062218D01*
X147209589Y-97786595D01*
X147211815Y-98367322D01*
X147218097Y-98817226D01*
X147228750Y-99149134D01*
X147244087Y-99375873D01*
X147264421Y-99510270D01*
X147290067Y-99565152D01*
X147298833Y-99568029D01*
X147397736Y-99527610D01*
X147405240Y-99504500D01*
X147416155Y-98217210D01*
X147424106Y-97090779D01*
X147429016Y-96116754D01*
X147430806Y-95286687D01*
X147429397Y-94592125D01*
X147424712Y-94024619D01*
X147416672Y-93575717D01*
X147405199Y-93236969D01*
X147390214Y-92999924D01*
X147371639Y-92856132D01*
X147349396Y-92797142D01*
X147343055Y-92794653D01*
X147315504Y-92832745D01*
X147315504Y-92832745D01*
G37*
X147315504Y-92832745D02*
X147292206Y-92955066D01*
X147272708Y-93173687D01*
X147256558Y-93500681D01*
X147243303Y-93948121D01*
X147232491Y-94528079D01*
X147223668Y-95252629D01*
X147216381Y-96133843D01*
X147216055Y-96181363D01*
X147211107Y-97062218D01*
X147209589Y-97786595D01*
X147211815Y-98367322D01*
X147218097Y-98817226D01*
X147228750Y-99149134D01*
X147244087Y-99375873D01*
X147264421Y-99510270D01*
X147290067Y-99565152D01*
X147298833Y-99568029D01*
X147397736Y-99527610D01*
X147405240Y-99504500D01*
X147416155Y-98217210D01*
X147424106Y-97090779D01*
X147429016Y-96116754D01*
X147430806Y-95286687D01*
X147429397Y-94592125D01*
X147424712Y-94024619D01*
X147416672Y-93575717D01*
X147405199Y-93236969D01*
X147390214Y-92999924D01*
X147371639Y-92856132D01*
X147349396Y-92797142D01*
X147343055Y-92794653D01*
X147315504Y-92832745D01*
G36*
X147008121Y-93789416D02*
X147005430Y-93895333D01*
X146988540Y-94799356D01*
X146975551Y-95662986D01*
X146966472Y-96470979D01*
X146961312Y-97208089D01*
X146960077Y-97859071D01*
X146962778Y-98408680D01*
X146969422Y-98841669D01*
X146980016Y-99142795D01*
X146994570Y-99296810D01*
X147002500Y-99314063D01*
X147016101Y-99232421D01*
X147027766Y-98999662D01*
X147037245Y-98633996D01*
X147044290Y-98153630D01*
X147048650Y-97576773D01*
X147050077Y-96921634D01*
X147048321Y-96206420D01*
X147047429Y-96033167D01*
X147042919Y-95358715D01*
X147037694Y-94784552D01*
X147031961Y-94321288D01*
X147025929Y-93979533D01*
X147019806Y-93769896D01*
X147013801Y-93702987D01*
X147008121Y-93789416D01*
X147008121Y-93789416D01*
G37*
X147008121Y-93789416D02*
X147005430Y-93895333D01*
X146988540Y-94799356D01*
X146975551Y-95662986D01*
X146966472Y-96470979D01*
X146961312Y-97208089D01*
X146960077Y-97859071D01*
X146962778Y-98408680D01*
X146969422Y-98841669D01*
X146980016Y-99142795D01*
X146994570Y-99296810D01*
X147002500Y-99314063D01*
X147016101Y-99232421D01*
X147027766Y-98999662D01*
X147037245Y-98633996D01*
X147044290Y-98153630D01*
X147048650Y-97576773D01*
X147050077Y-96921634D01*
X147048321Y-96206420D01*
X147047429Y-96033167D01*
X147042919Y-95358715D01*
X147037694Y-94784552D01*
X147031961Y-94321288D01*
X147025929Y-93979533D01*
X147019806Y-93769896D01*
X147013801Y-93702987D01*
X147008121Y-93789416D01*
G36*
X154229040Y-96618911D02*
X153465793Y-96624611D01*
X153346603Y-96625915D01*
X153031734Y-96630415D01*
X152879255Y-96634642D01*
X152882220Y-96638517D01*
X153033686Y-96641963D01*
X153326707Y-96644902D01*
X153754340Y-96647255D01*
X154309640Y-96648943D01*
X154985663Y-96649889D01*
X155490333Y-96650069D01*
X156239803Y-96649642D01*
X156871630Y-96648426D01*
X157379072Y-96646497D01*
X157755386Y-96643934D01*
X157993828Y-96640816D01*
X158087656Y-96637219D01*
X158030126Y-96633222D01*
X157814496Y-96628903D01*
X157579936Y-96625887D01*
X156825811Y-96619676D01*
X155973192Y-96616443D01*
X155086220Y-96616188D01*
X154229040Y-96618911D01*
X154229040Y-96618911D01*
G37*
X154229040Y-96618911D02*
X153465793Y-96624611D01*
X153346603Y-96625915D01*
X153031734Y-96630415D01*
X152879255Y-96634642D01*
X152882220Y-96638517D01*
X153033686Y-96641963D01*
X153326707Y-96644902D01*
X153754340Y-96647255D01*
X154309640Y-96648943D01*
X154985663Y-96649889D01*
X155490333Y-96650069D01*
X156239803Y-96649642D01*
X156871630Y-96648426D01*
X157379072Y-96646497D01*
X157755386Y-96643934D01*
X157993828Y-96640816D01*
X158087656Y-96637219D01*
X158030126Y-96633222D01*
X157814496Y-96628903D01*
X157579936Y-96625887D01*
X156825811Y-96619676D01*
X155973192Y-96616443D01*
X155086220Y-96616188D01*
X154229040Y-96618911D01*
G36*
X151013612Y-93300849D02*
X150988807Y-93542366D01*
X150971474Y-93932003D01*
X150962168Y-94459215D01*
X150960666Y-94826667D01*
X150965027Y-95429369D01*
X150977738Y-95900657D01*
X150998246Y-96229986D01*
X151025994Y-96406809D01*
X151045333Y-96435333D01*
X151077054Y-96352484D01*
X151101859Y-96110967D01*
X151119192Y-95721330D01*
X151128499Y-95194118D01*
X151130000Y-94826667D01*
X151125639Y-94223964D01*
X151112928Y-93752676D01*
X151092421Y-93423347D01*
X151064673Y-93246524D01*
X151045333Y-93218000D01*
X151013612Y-93300849D01*
X151013612Y-93300849D01*
G37*
X151013612Y-93300849D02*
X150988807Y-93542366D01*
X150971474Y-93932003D01*
X150962168Y-94459215D01*
X150960666Y-94826667D01*
X150965027Y-95429369D01*
X150977738Y-95900657D01*
X150998246Y-96229986D01*
X151025994Y-96406809D01*
X151045333Y-96435333D01*
X151077054Y-96352484D01*
X151101859Y-96110967D01*
X151119192Y-95721330D01*
X151128499Y-95194118D01*
X151130000Y-94826667D01*
X151125639Y-94223964D01*
X151112928Y-93752676D01*
X151092421Y-93423347D01*
X151064673Y-93246524D01*
X151045333Y-93218000D01*
X151013612Y-93300849D01*
G36*
X151722666Y-96181333D02*
X155492990Y-96181333D01*
X156425146Y-96180420D01*
X157200640Y-96177438D01*
X157832134Y-96172024D01*
X158332289Y-96163818D01*
X158713770Y-96152456D01*
X158989237Y-96137576D01*
X159171354Y-96118816D01*
X159272782Y-96095814D01*
X159305174Y-96072250D01*
X159317870Y-95954248D01*
X159326150Y-95697876D01*
X159329632Y-95334049D01*
X159327946Y-94896082D01*
X158822145Y-94896082D01*
X158820788Y-95251778D01*
X158812750Y-95513639D01*
X158798616Y-95644912D01*
X158797729Y-95647470D01*
X158722063Y-95702771D01*
X158532212Y-95737769D01*
X158207560Y-95755048D01*
X157915049Y-95758000D01*
X157516959Y-95753348D01*
X157257758Y-95736360D01*
X157107179Y-95702491D01*
X157034958Y-95647196D01*
X157023392Y-95624075D01*
X157002692Y-95488647D01*
X156985979Y-95224210D01*
X156975154Y-94871077D01*
X156972000Y-94533775D01*
X156978023Y-94077518D01*
X156997915Y-93765900D01*
X157034407Y-93574595D01*
X157090233Y-93479276D01*
X157090473Y-93479077D01*
X157249186Y-93427842D01*
X157562041Y-93403019D01*
X158000639Y-93405210D01*
X158792333Y-93429667D01*
X158816238Y-94483303D01*
X158822145Y-94896082D01*
X159327946Y-94896082D01*
X159327936Y-94893680D01*
X159323683Y-94569416D01*
X159300333Y-93175667D01*
X155511500Y-93153628D01*
X151722666Y-93131590D01*
X151722666Y-96181333D01*
X151722666Y-96181333D01*
G37*
X151722666Y-96181333D02*
X155492990Y-96181333D01*
X156425146Y-96180420D01*
X157200640Y-96177438D01*
X157832134Y-96172024D01*
X158332289Y-96163818D01*
X158713770Y-96152456D01*
X158989237Y-96137576D01*
X159171354Y-96118816D01*
X159272782Y-96095814D01*
X159305174Y-96072250D01*
X159317870Y-95954248D01*
X159326150Y-95697876D01*
X159329632Y-95334049D01*
X159327946Y-94896082D01*
X158822145Y-94896082D01*
X158820788Y-95251778D01*
X158812750Y-95513639D01*
X158798616Y-95644912D01*
X158797729Y-95647470D01*
X158722063Y-95702771D01*
X158532212Y-95737769D01*
X158207560Y-95755048D01*
X157915049Y-95758000D01*
X157516959Y-95753348D01*
X157257758Y-95736360D01*
X157107179Y-95702491D01*
X157034958Y-95647196D01*
X157023392Y-95624075D01*
X157002692Y-95488647D01*
X156985979Y-95224210D01*
X156975154Y-94871077D01*
X156972000Y-94533775D01*
X156978023Y-94077518D01*
X156997915Y-93765900D01*
X157034407Y-93574595D01*
X157090233Y-93479276D01*
X157090473Y-93479077D01*
X157249186Y-93427842D01*
X157562041Y-93403019D01*
X158000639Y-93405210D01*
X158792333Y-93429667D01*
X158816238Y-94483303D01*
X158822145Y-94896082D01*
X159327946Y-94896082D01*
X159327936Y-94893680D01*
X159323683Y-94569416D01*
X159300333Y-93175667D01*
X155511500Y-93153628D01*
X151722666Y-93131590D01*
X151722666Y-96181333D01*
G36*
X163419765Y-94029710D02*
X163454318Y-94130973D01*
X163552876Y-94211992D01*
X163560182Y-94214616D01*
X163623931Y-94188164D01*
X163609332Y-94114075D01*
X163522818Y-93997620D01*
X163475219Y-93980000D01*
X163419765Y-94029710D01*
X163419765Y-94029710D01*
G37*
X163419765Y-94029710D02*
X163454318Y-94130973D01*
X163552876Y-94211992D01*
X163560182Y-94214616D01*
X163623931Y-94188164D01*
X163609332Y-94114075D01*
X163522818Y-93997620D01*
X163475219Y-93980000D01*
X163419765Y-94029710D01*
G36*
X162224725Y-92826811D02*
X162296222Y-92935478D01*
X162477719Y-93139015D01*
X162506497Y-93169638D01*
X162718542Y-93379985D01*
X162843091Y-93463602D01*
X162894943Y-93428705D01*
X162898666Y-93387333D01*
X162833579Y-93305920D01*
X162809003Y-93302667D01*
X162758147Y-93250930D01*
X162771067Y-93218970D01*
X162755348Y-93171842D01*
X162670231Y-93190126D01*
X162573306Y-93206647D01*
X162579627Y-93176585D01*
X162561929Y-93089910D01*
X162465064Y-92957067D01*
X162341260Y-92838701D01*
X162250712Y-92794667D01*
X162224725Y-92826811D01*
X162224725Y-92826811D01*
G37*
X162224725Y-92826811D02*
X162296222Y-92935478D01*
X162477719Y-93139015D01*
X162506497Y-93169638D01*
X162718542Y-93379985D01*
X162843091Y-93463602D01*
X162894943Y-93428705D01*
X162898666Y-93387333D01*
X162833579Y-93305920D01*
X162809003Y-93302667D01*
X162758147Y-93250930D01*
X162771067Y-93218970D01*
X162755348Y-93171842D01*
X162670231Y-93190126D01*
X162573306Y-93206647D01*
X162579627Y-93176585D01*
X162561929Y-93089910D01*
X162465064Y-92957067D01*
X162341260Y-92838701D01*
X162250712Y-92794667D01*
X162224725Y-92826811D01*
G36*
X159321509Y-104667542D02*
X159315225Y-104682056D01*
X159314146Y-104833706D01*
X159409463Y-104901612D01*
X159540222Y-104845555D01*
X159593415Y-104717144D01*
X159596666Y-104676222D01*
X159540047Y-104579189D01*
X159422282Y-104576835D01*
X159321509Y-104667542D01*
X159321509Y-104667542D01*
G37*
X159321509Y-104667542D02*
X159315225Y-104682056D01*
X159314146Y-104833706D01*
X159409463Y-104901612D01*
X159540222Y-104845555D01*
X159593415Y-104717144D01*
X159596666Y-104676222D01*
X159540047Y-104579189D01*
X159422282Y-104576835D01*
X159321509Y-104667542D01*
G36*
X152338905Y-104633919D02*
X152315333Y-104732667D01*
X152357704Y-104880166D01*
X152463121Y-104884966D01*
X152512889Y-104845555D01*
X152569873Y-104709952D01*
X152520907Y-104591765D01*
X152442333Y-104563333D01*
X152338905Y-104633919D01*
X152338905Y-104633919D01*
G37*
X152338905Y-104633919D02*
X152315333Y-104732667D01*
X152357704Y-104880166D01*
X152463121Y-104884966D01*
X152512889Y-104845555D01*
X152569873Y-104709952D01*
X152520907Y-104591765D01*
X152442333Y-104563333D01*
X152338905Y-104633919D01*
G36*
X157564688Y-94551500D02*
X157564709Y-95292333D01*
X157945688Y-95300452D01*
X158326666Y-95308571D01*
X158326666Y-94572667D01*
X158157333Y-94572667D01*
X158154221Y-94882302D01*
X158136097Y-95059513D01*
X158089786Y-95141198D01*
X158002108Y-95164254D01*
X157945666Y-95165333D01*
X157835082Y-95156618D01*
X157771793Y-95105873D01*
X157742620Y-94976201D01*
X157734385Y-94730702D01*
X157734000Y-94572667D01*
X157737112Y-94263031D01*
X157755236Y-94085820D01*
X157801547Y-94004135D01*
X157889225Y-93981079D01*
X157945666Y-93980000D01*
X158056251Y-93988715D01*
X158119540Y-94039460D01*
X158148713Y-94169132D01*
X158156948Y-94414631D01*
X158157333Y-94572667D01*
X158326666Y-94572667D01*
X158326666Y-93810667D01*
X157564666Y-93810667D01*
X157564688Y-94551500D01*
X157564688Y-94551500D01*
G37*
X157564688Y-94551500D02*
X157564709Y-95292333D01*
X157945688Y-95300452D01*
X158326666Y-95308571D01*
X158326666Y-94572667D01*
X158157333Y-94572667D01*
X158154221Y-94882302D01*
X158136097Y-95059513D01*
X158089786Y-95141198D01*
X158002108Y-95164254D01*
X157945666Y-95165333D01*
X157835082Y-95156618D01*
X157771793Y-95105873D01*
X157742620Y-94976201D01*
X157734385Y-94730702D01*
X157734000Y-94572667D01*
X157737112Y-94263031D01*
X157755236Y-94085820D01*
X157801547Y-94004135D01*
X157889225Y-93981079D01*
X157945666Y-93980000D01*
X158056251Y-93988715D01*
X158119540Y-94039460D01*
X158148713Y-94169132D01*
X158156948Y-94414631D01*
X158157333Y-94572667D01*
X158326666Y-94572667D01*
X158326666Y-93810667D01*
X157564666Y-93810667D01*
X157564688Y-94551500D01*
%LPC*%
D13*
X160020000Y-78740000D03*
D14*
X157480000Y-78740000D03*
X154940000Y-78740000D03*
D13*
X189230000Y-71120000D03*
D14*
X191770000Y-71120000D03*
X194310000Y-71120000D03*
X196850000Y-71120000D03*
D13*
X173990000Y-88900000D03*
D14*
X176530000Y-88900000D03*
X179070000Y-88900000D03*
X181610000Y-88900000D03*
D15*
X133350000Y-120650000D03*
D16*
X133350000Y-118110000D03*
X135890000Y-120650000D03*
X135890000Y-118110000D03*
X138430000Y-120650000D03*
X138430000Y-118110000D03*
X140970000Y-120650000D03*
X140970000Y-118110000D03*
X143510000Y-120650000D03*
X143510000Y-118110000D03*
X146050000Y-120650000D03*
X146050000Y-118110000D03*
X148590000Y-120650000D03*
X148590000Y-118110000D03*
X151130000Y-120650000D03*
X151130000Y-118110000D03*
X153670000Y-120650000D03*
X153670000Y-118110000D03*
X156210000Y-120650000D03*
X156210000Y-118110000D03*
X158750000Y-120650000D03*
X158750000Y-118110000D03*
X161290000Y-120650000D03*
X161290000Y-118110000D03*
X163830000Y-120650000D03*
X163830000Y-118110000D03*
X166370000Y-120650000D03*
X166370000Y-118110000D03*
X168910000Y-120650000D03*
X168910000Y-118110000D03*
X171450000Y-120650000D03*
X171450000Y-118110000D03*
X173990000Y-120650000D03*
X173990000Y-118110000D03*
D17*
X124460000Y-118110000D03*
D18*
X124460000Y-120650000D03*
D15*
X119380000Y-71120000D03*
D16*
X116840000Y-71120000D03*
X119380000Y-68580000D03*
X116840000Y-68580000D03*
X119380000Y-66040000D03*
X116840000Y-66040000D03*
D19*
X170140900Y-62522540D03*
X165140900Y-62522540D03*
D20*
X171140900Y-59822540D03*
X164140900Y-59822540D03*
D21*
X124460000Y-113030000D03*
X181610000Y-113030000D03*
X181610000Y-62230000D03*
X107950000Y-61722000D03*
D22*
X157139640Y-63080900D03*
X152740360Y-63080900D03*
D23*
X123046000Y-83674200D03*
X117348000Y-74803000D03*
X120747000Y-76581200D03*
X123210000Y-77371000D03*
X131607000Y-83077600D03*
X128651000Y-84836000D03*
X136779000Y-74041000D03*
X136906000Y-75565000D03*
X134816000Y-63599000D03*
X139304000Y-63599000D03*
X128342000Y-63439200D03*
X131191000Y-66421000D03*
X137087000Y-70788100D03*
X137322000Y-66367300D03*
X153478000Y-64719200D03*
X140095000Y-82150000D03*
X140049000Y-83750000D03*
X127000000Y-82720900D03*
X139726000Y-90130500D03*
X161185000Y-74045500D03*
X167736000Y-80544500D03*
X122603000Y-90065400D03*
X137643000Y-62684000D03*
X125470000Y-86347700D03*
X125046000Y-77879900D03*
X131264000Y-79654900D03*
X126432000Y-73828600D03*
X152402000Y-98236000D03*
X170651000Y-97700100D03*
X129489000Y-102689000D03*
X149120000Y-97163200D03*
X147010000Y-105325000D03*
X168016000Y-98711000D03*
X157776000Y-69333300D03*
X161525000Y-62571600D03*
X133171000Y-74061700D03*
X134290000Y-85412700D03*
X134061000Y-74199300D03*
X135439000Y-84571300D03*
X140360000Y-70702000D03*
X139048000Y-85412700D03*
X133192000Y-86241300D03*
X159151000Y-94438600D03*
X138304000Y-80422900D03*
X124840000Y-99179600D03*
X136004000Y-96671800D03*
X137857000Y-82640200D03*
X145354000Y-84138700D03*
X157853000Y-97094000D03*
X143174000Y-77961000D03*
X158931000Y-99024600D03*
X145354000Y-86454800D03*
X162353000Y-96847300D03*
X134996000Y-80487500D03*
X126309000Y-101600000D03*
X139911000Y-80137500D03*
X134620000Y-102720000D03*
M02*
