%TF.GenerationSoftware,KiCad,Pcbnew,4.0.2+dfsg1-stable*%
%TF.CreationDate,2019-02-28T19:11:37+01:00*%
%TF.ProjectId,usbavrfloppy,757362617672666C6F7070792E6B6963,rev?*%
%TF.FileFunction,Legend,Bot*%
%FSLAX46Y46*%
G04 Gerber Fmt 4.6, Leading zero omitted, Abs format (unit mm)*
G04 Created by KiCad (PCBNEW 4.0.2+dfsg1-stable) date Thu 28 Feb 2019 19:11:37 CET*
%MOMM*%
G01*
G04 APERTURE LIST*
%ADD10C,0.100000*%
%ADD11C,0.300000*%
%ADD12C,0.010000*%
%ADD13O,1.250000X0.950000*%
%ADD14O,1.000000X1.550000*%
%ADD15C,0.899160*%
%ADD16C,4.064000*%
%ADD17R,1.727200X1.727200*%
%ADD18O,1.727200X1.727200*%
%ADD19R,2.032000X2.032000*%
%ADD20O,2.032000X2.032000*%
%ADD21R,1.727200X2.032000*%
%ADD22O,1.727200X2.032000*%
%ADD23R,1.520000X1.520000*%
%ADD24C,1.520000*%
%ADD25C,0.600000*%
G04 APERTURE END LIST*
D10*
D11*
X120492857Y-61638571D02*
X120492857Y-60638571D01*
X120492857Y-60138571D02*
X120421428Y-60210000D01*
X120492857Y-60281429D01*
X120564285Y-60210000D01*
X120492857Y-60138571D01*
X120492857Y-60281429D01*
X121207143Y-60638571D02*
X121207143Y-61638571D01*
X121207143Y-60781429D02*
X121278571Y-60710000D01*
X121421429Y-60638571D01*
X121635714Y-60638571D01*
X121778571Y-60710000D01*
X121850000Y-60852857D01*
X121850000Y-61638571D01*
X123707143Y-61638571D02*
X123707143Y-60638571D01*
X123707143Y-60781429D02*
X123778571Y-60710000D01*
X123921429Y-60638571D01*
X124135714Y-60638571D01*
X124278571Y-60710000D01*
X124350000Y-60852857D01*
X124350000Y-61638571D01*
X124350000Y-60852857D02*
X124421429Y-60710000D01*
X124564286Y-60638571D01*
X124778571Y-60638571D01*
X124921429Y-60710000D01*
X124992857Y-60852857D01*
X124992857Y-61638571D01*
X126278571Y-61567143D02*
X126135714Y-61638571D01*
X125850000Y-61638571D01*
X125707143Y-61567143D01*
X125635714Y-61424286D01*
X125635714Y-60852857D01*
X125707143Y-60710000D01*
X125850000Y-60638571D01*
X126135714Y-60638571D01*
X126278571Y-60710000D01*
X126350000Y-60852857D01*
X126350000Y-60995714D01*
X125635714Y-61138571D01*
X126992857Y-61638571D02*
X126992857Y-60638571D01*
X126992857Y-60781429D02*
X127064285Y-60710000D01*
X127207143Y-60638571D01*
X127421428Y-60638571D01*
X127564285Y-60710000D01*
X127635714Y-60852857D01*
X127635714Y-61638571D01*
X127635714Y-60852857D02*
X127707143Y-60710000D01*
X127850000Y-60638571D01*
X128064285Y-60638571D01*
X128207143Y-60710000D01*
X128278571Y-60852857D01*
X128278571Y-61638571D01*
X129207143Y-61638571D02*
X129064285Y-61567143D01*
X128992857Y-61495714D01*
X128921428Y-61352857D01*
X128921428Y-60924286D01*
X128992857Y-60781429D01*
X129064285Y-60710000D01*
X129207143Y-60638571D01*
X129421428Y-60638571D01*
X129564285Y-60710000D01*
X129635714Y-60781429D01*
X129707143Y-60924286D01*
X129707143Y-61352857D01*
X129635714Y-61495714D01*
X129564285Y-61567143D01*
X129421428Y-61638571D01*
X129207143Y-61638571D01*
X130350000Y-61638571D02*
X130350000Y-60638571D01*
X130350000Y-60924286D02*
X130421428Y-60781429D01*
X130492857Y-60710000D01*
X130635714Y-60638571D01*
X130778571Y-60638571D01*
X131278571Y-61638571D02*
X131278571Y-60638571D01*
X131278571Y-60138571D02*
X131207142Y-60210000D01*
X131278571Y-60281429D01*
X131349999Y-60210000D01*
X131278571Y-60138571D01*
X131278571Y-60281429D01*
X132635714Y-61638571D02*
X132635714Y-60852857D01*
X132564285Y-60710000D01*
X132421428Y-60638571D01*
X132135714Y-60638571D01*
X131992857Y-60710000D01*
X132635714Y-61567143D02*
X132492857Y-61638571D01*
X132135714Y-61638571D01*
X131992857Y-61567143D01*
X131921428Y-61424286D01*
X131921428Y-61281429D01*
X131992857Y-61138571D01*
X132135714Y-61067143D01*
X132492857Y-61067143D01*
X132635714Y-60995714D01*
X133350000Y-61638571D02*
X133350000Y-60638571D01*
X133350000Y-60781429D02*
X133421428Y-60710000D01*
X133564286Y-60638571D01*
X133778571Y-60638571D01*
X133921428Y-60710000D01*
X133992857Y-60852857D01*
X133992857Y-61638571D01*
X133992857Y-60852857D02*
X134064286Y-60710000D01*
X134207143Y-60638571D01*
X134421428Y-60638571D01*
X134564286Y-60710000D01*
X134635714Y-60852857D01*
X134635714Y-61638571D01*
X136421428Y-61210000D02*
X137135714Y-61210000D01*
X136278571Y-61638571D02*
X136778571Y-60138571D01*
X137278571Y-61638571D01*
X137778571Y-61495714D02*
X137849999Y-61567143D01*
X137778571Y-61638571D01*
X137707142Y-61567143D01*
X137778571Y-61495714D01*
X137778571Y-61638571D01*
X138421428Y-61567143D02*
X138635714Y-61638571D01*
X138992857Y-61638571D01*
X139135714Y-61567143D01*
X139207143Y-61495714D01*
X139278571Y-61352857D01*
X139278571Y-61210000D01*
X139207143Y-61067143D01*
X139135714Y-60995714D01*
X138992857Y-60924286D01*
X138707143Y-60852857D01*
X138564285Y-60781429D01*
X138492857Y-60710000D01*
X138421428Y-60567143D01*
X138421428Y-60424286D01*
X138492857Y-60281429D01*
X138564285Y-60210000D01*
X138707143Y-60138571D01*
X139064285Y-60138571D01*
X139278571Y-60210000D01*
X139921428Y-61495714D02*
X139992856Y-61567143D01*
X139921428Y-61638571D01*
X139849999Y-61567143D01*
X139921428Y-61495714D01*
X139921428Y-61638571D01*
X140635714Y-61067143D02*
X141778571Y-61067143D01*
X143278571Y-60210000D02*
X143135714Y-60138571D01*
X142921428Y-60138571D01*
X142707143Y-60210000D01*
X142564285Y-60352857D01*
X142492857Y-60495714D01*
X142421428Y-60781429D01*
X142421428Y-60995714D01*
X142492857Y-61281429D01*
X142564285Y-61424286D01*
X142707143Y-61567143D01*
X142921428Y-61638571D01*
X143064285Y-61638571D01*
X143278571Y-61567143D01*
X143350000Y-61495714D01*
X143350000Y-60995714D01*
X143064285Y-60995714D01*
X143992857Y-61495714D02*
X144064285Y-61567143D01*
X143992857Y-61638571D01*
X143921428Y-61567143D01*
X143992857Y-61495714D01*
X143992857Y-61638571D01*
X144707143Y-61638571D02*
X144707143Y-60138571D01*
X145064286Y-60138571D01*
X145278571Y-60210000D01*
X145421429Y-60352857D01*
X145492857Y-60495714D01*
X145564286Y-60781429D01*
X145564286Y-60995714D01*
X145492857Y-61281429D01*
X145421429Y-61424286D01*
X145278571Y-61567143D01*
X145064286Y-61638571D01*
X144707143Y-61638571D01*
X146207143Y-61495714D02*
X146278571Y-61567143D01*
X146207143Y-61638571D01*
X146135714Y-61567143D01*
X146207143Y-61495714D01*
X146207143Y-61638571D01*
X138744286Y-93658571D02*
X138744286Y-95158571D01*
X138744286Y-93730000D02*
X138887143Y-93658571D01*
X139172857Y-93658571D01*
X139315714Y-93730000D01*
X139387143Y-93801429D01*
X139458572Y-93944286D01*
X139458572Y-94372857D01*
X139387143Y-94515714D01*
X139315714Y-94587143D01*
X139172857Y-94658571D01*
X138887143Y-94658571D01*
X138744286Y-94587143D01*
X140315715Y-94658571D02*
X140172857Y-94587143D01*
X140101429Y-94515714D01*
X140030000Y-94372857D01*
X140030000Y-93944286D01*
X140101429Y-93801429D01*
X140172857Y-93730000D01*
X140315715Y-93658571D01*
X140530000Y-93658571D01*
X140672857Y-93730000D01*
X140744286Y-93801429D01*
X140815715Y-93944286D01*
X140815715Y-94372857D01*
X140744286Y-94515714D01*
X140672857Y-94587143D01*
X140530000Y-94658571D01*
X140315715Y-94658571D01*
X141315715Y-93658571D02*
X141601429Y-94658571D01*
X141887143Y-93944286D01*
X142172858Y-94658571D01*
X142458572Y-93658571D01*
X143601429Y-94587143D02*
X143458572Y-94658571D01*
X143172858Y-94658571D01*
X143030001Y-94587143D01*
X142958572Y-94444286D01*
X142958572Y-93872857D01*
X143030001Y-93730000D01*
X143172858Y-93658571D01*
X143458572Y-93658571D01*
X143601429Y-93730000D01*
X143672858Y-93872857D01*
X143672858Y-94015714D01*
X142958572Y-94158571D01*
X144315715Y-94658571D02*
X144315715Y-93658571D01*
X144315715Y-93944286D02*
X144387143Y-93801429D01*
X144458572Y-93730000D01*
X144601429Y-93658571D01*
X144744286Y-93658571D01*
X145815714Y-94587143D02*
X145672857Y-94658571D01*
X145387143Y-94658571D01*
X145244286Y-94587143D01*
X145172857Y-94444286D01*
X145172857Y-93872857D01*
X145244286Y-93730000D01*
X145387143Y-93658571D01*
X145672857Y-93658571D01*
X145815714Y-93730000D01*
X145887143Y-93872857D01*
X145887143Y-94015714D01*
X145172857Y-94158571D01*
X147172857Y-94658571D02*
X147172857Y-93158571D01*
X147172857Y-94587143D02*
X147030000Y-94658571D01*
X146744286Y-94658571D01*
X146601428Y-94587143D01*
X146530000Y-94515714D01*
X146458571Y-94372857D01*
X146458571Y-93944286D01*
X146530000Y-93801429D01*
X146601428Y-93730000D01*
X146744286Y-93658571D01*
X147030000Y-93658571D01*
X147172857Y-93730000D01*
X149030000Y-94658571D02*
X149030000Y-93158571D01*
X149030000Y-93730000D02*
X149172857Y-93658571D01*
X149458571Y-93658571D01*
X149601428Y-93730000D01*
X149672857Y-93801429D01*
X149744286Y-93944286D01*
X149744286Y-94372857D01*
X149672857Y-94515714D01*
X149601428Y-94587143D01*
X149458571Y-94658571D01*
X149172857Y-94658571D01*
X149030000Y-94587143D01*
X150244286Y-93658571D02*
X150601429Y-94658571D01*
X150958571Y-93658571D02*
X150601429Y-94658571D01*
X150458571Y-95015714D01*
X150387143Y-95087143D01*
X150244286Y-95158571D01*
D12*
G36*
X160518444Y-97042284D02*
X159972834Y-97130311D01*
X159509140Y-97290106D01*
X159443218Y-97323859D01*
X158908229Y-97701184D01*
X158427745Y-98208116D01*
X158036807Y-98806053D01*
X157961328Y-98956424D01*
X157846104Y-99209285D01*
X157769412Y-99419674D01*
X157723444Y-99633505D01*
X157700389Y-99896688D01*
X157692437Y-100255135D01*
X157691667Y-100541666D01*
X157694959Y-100988607D01*
X157709310Y-101310638D01*
X157741430Y-101552126D01*
X157798031Y-101757438D01*
X157885824Y-101970941D01*
X157918578Y-102041796D01*
X158250491Y-102590582D01*
X158693706Y-103092998D01*
X159198782Y-103495895D01*
X159361795Y-103593158D01*
X159602523Y-103713303D01*
X159827206Y-103789389D01*
X160090958Y-103833294D01*
X160448895Y-103856896D01*
X160612667Y-103862749D01*
X161155565Y-103860960D01*
X161557627Y-103818119D01*
X161723300Y-103773853D01*
X162306698Y-103479196D01*
X162768780Y-103082774D01*
X163098246Y-102599752D01*
X163283792Y-102045292D01*
X163322000Y-101628877D01*
X163322000Y-101346000D01*
X162094333Y-101346000D01*
X161606702Y-101348417D01*
X161264465Y-101357317D01*
X161043732Y-101375172D01*
X160920612Y-101404452D01*
X160871213Y-101447629D01*
X160866667Y-101473000D01*
X160905680Y-101546743D01*
X161043981Y-101586335D01*
X161313459Y-101599749D01*
X161374667Y-101600000D01*
X161882667Y-101600000D01*
X161882535Y-102213833D01*
X161837242Y-102768387D01*
X161702356Y-103184332D01*
X161478968Y-103458855D01*
X161374667Y-103523740D01*
X161174955Y-103581645D01*
X160880619Y-103620585D01*
X160646354Y-103630751D01*
X160166351Y-103577205D01*
X159788382Y-103401784D01*
X159481310Y-103086241D01*
X159342667Y-102866723D01*
X159271107Y-102731952D01*
X159217245Y-102600494D01*
X159178055Y-102445758D01*
X159150512Y-102241157D01*
X159131593Y-101960101D01*
X159118272Y-101576002D01*
X159107524Y-101062271D01*
X159102251Y-100753333D01*
X159095025Y-100017259D01*
X159102643Y-99427543D01*
X159128463Y-98961603D01*
X159175840Y-98596855D01*
X159248133Y-98310713D01*
X159348698Y-98080594D01*
X159480892Y-97883914D01*
X159539108Y-97814394D01*
X159886987Y-97507676D01*
X160290344Y-97335901D01*
X160789382Y-97282002D01*
X160793009Y-97281999D01*
X161298894Y-97359609D01*
X161735516Y-97589498D01*
X162097813Y-97967254D01*
X162380724Y-98488464D01*
X162474095Y-98747319D01*
X162564132Y-98962240D01*
X162669549Y-99043492D01*
X162746871Y-99043653D01*
X162835411Y-99013503D01*
X162886167Y-98931929D01*
X162908787Y-98761669D01*
X162912915Y-98465462D01*
X162912504Y-98403833D01*
X162909508Y-98093264D01*
X162906229Y-97850064D01*
X162903337Y-97723062D01*
X162903123Y-97719071D01*
X162826562Y-97638573D01*
X162631625Y-97522005D01*
X162359888Y-97388883D01*
X162052924Y-97258724D01*
X161752307Y-97151045D01*
X161599760Y-97107215D01*
X161082057Y-97032445D01*
X160518444Y-97042284D01*
X160518444Y-97042284D01*
G37*
X160518444Y-97042284D02*
X159972834Y-97130311D01*
X159509140Y-97290106D01*
X159443218Y-97323859D01*
X158908229Y-97701184D01*
X158427745Y-98208116D01*
X158036807Y-98806053D01*
X157961328Y-98956424D01*
X157846104Y-99209285D01*
X157769412Y-99419674D01*
X157723444Y-99633505D01*
X157700389Y-99896688D01*
X157692437Y-100255135D01*
X157691667Y-100541666D01*
X157694959Y-100988607D01*
X157709310Y-101310638D01*
X157741430Y-101552126D01*
X157798031Y-101757438D01*
X157885824Y-101970941D01*
X157918578Y-102041796D01*
X158250491Y-102590582D01*
X158693706Y-103092998D01*
X159198782Y-103495895D01*
X159361795Y-103593158D01*
X159602523Y-103713303D01*
X159827206Y-103789389D01*
X160090958Y-103833294D01*
X160448895Y-103856896D01*
X160612667Y-103862749D01*
X161155565Y-103860960D01*
X161557627Y-103818119D01*
X161723300Y-103773853D01*
X162306698Y-103479196D01*
X162768780Y-103082774D01*
X163098246Y-102599752D01*
X163283792Y-102045292D01*
X163322000Y-101628877D01*
X163322000Y-101346000D01*
X162094333Y-101346000D01*
X161606702Y-101348417D01*
X161264465Y-101357317D01*
X161043732Y-101375172D01*
X160920612Y-101404452D01*
X160871213Y-101447629D01*
X160866667Y-101473000D01*
X160905680Y-101546743D01*
X161043981Y-101586335D01*
X161313459Y-101599749D01*
X161374667Y-101600000D01*
X161882667Y-101600000D01*
X161882535Y-102213833D01*
X161837242Y-102768387D01*
X161702356Y-103184332D01*
X161478968Y-103458855D01*
X161374667Y-103523740D01*
X161174955Y-103581645D01*
X160880619Y-103620585D01*
X160646354Y-103630751D01*
X160166351Y-103577205D01*
X159788382Y-103401784D01*
X159481310Y-103086241D01*
X159342667Y-102866723D01*
X159271107Y-102731952D01*
X159217245Y-102600494D01*
X159178055Y-102445758D01*
X159150512Y-102241157D01*
X159131593Y-101960101D01*
X159118272Y-101576002D01*
X159107524Y-101062271D01*
X159102251Y-100753333D01*
X159095025Y-100017259D01*
X159102643Y-99427543D01*
X159128463Y-98961603D01*
X159175840Y-98596855D01*
X159248133Y-98310713D01*
X159348698Y-98080594D01*
X159480892Y-97883914D01*
X159539108Y-97814394D01*
X159886987Y-97507676D01*
X160290344Y-97335901D01*
X160789382Y-97282002D01*
X160793009Y-97281999D01*
X161298894Y-97359609D01*
X161735516Y-97589498D01*
X162097813Y-97967254D01*
X162380724Y-98488464D01*
X162474095Y-98747319D01*
X162564132Y-98962240D01*
X162669549Y-99043492D01*
X162746871Y-99043653D01*
X162835411Y-99013503D01*
X162886167Y-98931929D01*
X162908787Y-98761669D01*
X162912915Y-98465462D01*
X162912504Y-98403833D01*
X162909508Y-98093264D01*
X162906229Y-97850064D01*
X162903337Y-97723062D01*
X162903123Y-97719071D01*
X162826562Y-97638573D01*
X162631625Y-97522005D01*
X162359888Y-97388883D01*
X162052924Y-97258724D01*
X161752307Y-97151045D01*
X161599760Y-97107215D01*
X161082057Y-97032445D01*
X160518444Y-97042284D01*
G36*
X166130729Y-97074869D02*
X166067070Y-97160047D01*
X165984969Y-97313281D01*
X165879064Y-97547629D01*
X165743989Y-97876147D01*
X165574381Y-98311892D01*
X165364875Y-98867923D01*
X165110107Y-99557295D01*
X164804713Y-100393067D01*
X164796850Y-100414666D01*
X164537447Y-101127695D01*
X164296847Y-101789763D01*
X164081051Y-102384305D01*
X163896059Y-102894756D01*
X163747871Y-103304552D01*
X163642488Y-103597129D01*
X163585909Y-103755921D01*
X163577762Y-103780166D01*
X163646447Y-103797938D01*
X163724167Y-103800902D01*
X163803990Y-103760274D01*
X163895501Y-103625292D01*
X164008816Y-103375635D01*
X164154050Y-102990983D01*
X164219406Y-102806069D01*
X164566479Y-101811666D01*
X166730935Y-101811666D01*
X167079217Y-102806500D01*
X167427498Y-103801333D01*
X168380416Y-103801333D01*
X168805644Y-103797514D01*
X169087408Y-103783859D01*
X169251455Y-103757068D01*
X169323527Y-103713841D01*
X169333333Y-103679201D01*
X169257228Y-103585479D01*
X169024327Y-103534759D01*
X168980294Y-103531034D01*
X168792683Y-103511378D01*
X168672631Y-103462222D01*
X168585239Y-103346737D01*
X168495608Y-103128091D01*
X168434169Y-102954666D01*
X168357885Y-102736747D01*
X168234548Y-102383810D01*
X168072842Y-101920734D01*
X167909179Y-101451833D01*
X166544801Y-101451833D01*
X166463563Y-101477508D01*
X166247665Y-101498206D01*
X165931760Y-101511548D01*
X165619305Y-101515333D01*
X164699276Y-101515333D01*
X165174805Y-100203310D01*
X165335709Y-99766239D01*
X165478525Y-99391233D01*
X165592862Y-99104553D01*
X165668332Y-98932462D01*
X165692667Y-98894241D01*
X165730577Y-98970465D01*
X165808310Y-99175019D01*
X165914812Y-99474725D01*
X166039028Y-99836404D01*
X166169904Y-100226876D01*
X166296386Y-100612964D01*
X166407418Y-100961488D01*
X166491947Y-101239269D01*
X166538918Y-101413129D01*
X166544801Y-101451833D01*
X167909179Y-101451833D01*
X167881453Y-101372399D01*
X167669066Y-100763682D01*
X167444364Y-100119465D01*
X167355395Y-99864333D01*
X167136275Y-99236586D01*
X166933067Y-98655664D01*
X166752992Y-98142113D01*
X166603270Y-97716480D01*
X166491123Y-97399310D01*
X166423771Y-97211151D01*
X166409078Y-97171690D01*
X166283317Y-97052866D01*
X166181312Y-97044690D01*
X166130729Y-97074869D01*
X166130729Y-97074869D01*
G37*
X166130729Y-97074869D02*
X166067070Y-97160047D01*
X165984969Y-97313281D01*
X165879064Y-97547629D01*
X165743989Y-97876147D01*
X165574381Y-98311892D01*
X165364875Y-98867923D01*
X165110107Y-99557295D01*
X164804713Y-100393067D01*
X164796850Y-100414666D01*
X164537447Y-101127695D01*
X164296847Y-101789763D01*
X164081051Y-102384305D01*
X163896059Y-102894756D01*
X163747871Y-103304552D01*
X163642488Y-103597129D01*
X163585909Y-103755921D01*
X163577762Y-103780166D01*
X163646447Y-103797938D01*
X163724167Y-103800902D01*
X163803990Y-103760274D01*
X163895501Y-103625292D01*
X164008816Y-103375635D01*
X164154050Y-102990983D01*
X164219406Y-102806069D01*
X164566479Y-101811666D01*
X166730935Y-101811666D01*
X167079217Y-102806500D01*
X167427498Y-103801333D01*
X168380416Y-103801333D01*
X168805644Y-103797514D01*
X169087408Y-103783859D01*
X169251455Y-103757068D01*
X169323527Y-103713841D01*
X169333333Y-103679201D01*
X169257228Y-103585479D01*
X169024327Y-103534759D01*
X168980294Y-103531034D01*
X168792683Y-103511378D01*
X168672631Y-103462222D01*
X168585239Y-103346737D01*
X168495608Y-103128091D01*
X168434169Y-102954666D01*
X168357885Y-102736747D01*
X168234548Y-102383810D01*
X168072842Y-101920734D01*
X167909179Y-101451833D01*
X166544801Y-101451833D01*
X166463563Y-101477508D01*
X166247665Y-101498206D01*
X165931760Y-101511548D01*
X165619305Y-101515333D01*
X164699276Y-101515333D01*
X165174805Y-100203310D01*
X165335709Y-99766239D01*
X165478525Y-99391233D01*
X165592862Y-99104553D01*
X165668332Y-98932462D01*
X165692667Y-98894241D01*
X165730577Y-98970465D01*
X165808310Y-99175019D01*
X165914812Y-99474725D01*
X166039028Y-99836404D01*
X166169904Y-100226876D01*
X166296386Y-100612964D01*
X166407418Y-100961488D01*
X166491947Y-101239269D01*
X166538918Y-101413129D01*
X166544801Y-101451833D01*
X167909179Y-101451833D01*
X167881453Y-101372399D01*
X167669066Y-100763682D01*
X167444364Y-100119465D01*
X167355395Y-99864333D01*
X167136275Y-99236586D01*
X166933067Y-98655664D01*
X166752992Y-98142113D01*
X166603270Y-97716480D01*
X166491123Y-97399310D01*
X166423771Y-97211151D01*
X166409078Y-97171690D01*
X166283317Y-97052866D01*
X166181312Y-97044690D01*
X166130729Y-97074869D01*
G36*
X154835197Y-100351166D02*
X154813000Y-103505000D01*
X154368500Y-103530591D01*
X154085095Y-103562795D01*
X153946875Y-103622637D01*
X153924000Y-103678757D01*
X153948004Y-103722729D01*
X154034003Y-103755093D01*
X154202976Y-103777491D01*
X154475902Y-103791566D01*
X154873760Y-103798959D01*
X155417531Y-103801311D01*
X155490333Y-103801333D01*
X156052086Y-103799462D01*
X156465537Y-103792752D01*
X156751688Y-103779556D01*
X156931541Y-103758229D01*
X157026097Y-103727124D01*
X157056359Y-103684594D01*
X157056667Y-103678558D01*
X157004370Y-103601046D01*
X156830485Y-103553290D01*
X156569833Y-103530391D01*
X156083000Y-103505000D01*
X156060764Y-100478166D01*
X156038528Y-97451333D01*
X156547597Y-97451333D01*
X156842922Y-97441616D01*
X157001631Y-97407161D01*
X157055611Y-97340015D01*
X157056667Y-97324333D01*
X157032127Y-97271418D01*
X156941801Y-97235159D01*
X156760633Y-97212661D01*
X156463565Y-97201031D01*
X156025539Y-97197374D01*
X155957031Y-97197333D01*
X154857394Y-97197333D01*
X154835197Y-100351166D01*
X154835197Y-100351166D01*
G37*
X154835197Y-100351166D02*
X154813000Y-103505000D01*
X154368500Y-103530591D01*
X154085095Y-103562795D01*
X153946875Y-103622637D01*
X153924000Y-103678757D01*
X153948004Y-103722729D01*
X154034003Y-103755093D01*
X154202976Y-103777491D01*
X154475902Y-103791566D01*
X154873760Y-103798959D01*
X155417531Y-103801311D01*
X155490333Y-103801333D01*
X156052086Y-103799462D01*
X156465537Y-103792752D01*
X156751688Y-103779556D01*
X156931541Y-103758229D01*
X157026097Y-103727124D01*
X157056359Y-103684594D01*
X157056667Y-103678558D01*
X157004370Y-103601046D01*
X156830485Y-103553290D01*
X156569833Y-103530391D01*
X156083000Y-103505000D01*
X156060764Y-100478166D01*
X156038528Y-97451333D01*
X156547597Y-97451333D01*
X156842922Y-97441616D01*
X157001631Y-97407161D01*
X157055611Y-97340015D01*
X157056667Y-97324333D01*
X157032127Y-97271418D01*
X156941801Y-97235159D01*
X156760633Y-97212661D01*
X156463565Y-97201031D01*
X156025539Y-97197374D01*
X155957031Y-97197333D01*
X154857394Y-97197333D01*
X154835197Y-100351166D01*
G36*
X151790052Y-97215322D02*
X151010770Y-97239666D01*
X150329552Y-99331004D01*
X150144332Y-99895674D01*
X149974416Y-100406184D01*
X149827266Y-100840709D01*
X149710347Y-101177427D01*
X149631121Y-101394514D01*
X149598159Y-101469622D01*
X149561152Y-101404925D01*
X149482278Y-101198492D01*
X149368439Y-100870745D01*
X149226538Y-100442106D01*
X149063479Y-99932998D01*
X148886164Y-99363843D01*
X148884097Y-99357118D01*
X148220209Y-97197333D01*
X146916382Y-97197333D01*
X146398763Y-97200462D01*
X146031696Y-97210890D01*
X145796498Y-97230174D01*
X145674484Y-97259872D01*
X145646971Y-97301543D01*
X145647467Y-97303166D01*
X145750751Y-97371244D01*
X145987397Y-97419517D01*
X146162523Y-97434391D01*
X146642667Y-97459783D01*
X146642667Y-100630558D01*
X146642892Y-101446128D01*
X146644138Y-102108332D01*
X146647255Y-102633137D01*
X146653098Y-103036512D01*
X146662519Y-103334423D01*
X146676370Y-103542838D01*
X146695504Y-103677725D01*
X146720775Y-103755051D01*
X146753034Y-103790783D01*
X146793135Y-103800889D01*
X146812000Y-103801333D01*
X146856488Y-103796904D01*
X146892459Y-103772725D01*
X146920861Y-103712453D01*
X146942645Y-103599748D01*
X146958759Y-103418268D01*
X146970152Y-103151672D01*
X146977773Y-102783620D01*
X146982571Y-102297769D01*
X146985495Y-101677780D01*
X146987494Y-100907310D01*
X146987779Y-100774500D01*
X146994225Y-97747666D01*
X147488963Y-99271666D01*
X147692993Y-99901993D01*
X147924155Y-100619110D01*
X148159460Y-101351525D01*
X148375921Y-102027744D01*
X148463833Y-102303386D01*
X148634733Y-102834666D01*
X148765759Y-103224609D01*
X148866076Y-103493954D01*
X148944849Y-103663442D01*
X149011243Y-103753812D01*
X149074422Y-103785805D01*
X149118559Y-103785052D01*
X149170049Y-103760361D01*
X149227564Y-103691479D01*
X149296648Y-103563664D01*
X149382840Y-103362175D01*
X149491685Y-103072270D01*
X149628724Y-102679207D01*
X149799499Y-102168245D01*
X150009553Y-101524643D01*
X150256761Y-100757538D01*
X150475719Y-100077692D01*
X150679320Y-99449686D01*
X150861621Y-98891536D01*
X151016681Y-98421257D01*
X151138556Y-98056862D01*
X151221306Y-97816366D01*
X151258986Y-97717785D01*
X151259851Y-97716593D01*
X151268878Y-97788862D01*
X151277180Y-98011938D01*
X151284515Y-98367295D01*
X151290639Y-98836407D01*
X151295312Y-99400750D01*
X151298290Y-100041797D01*
X151299333Y-100739222D01*
X151299333Y-103801333D01*
X152400000Y-103801333D01*
X152858407Y-103798502D01*
X153172592Y-103788085D01*
X153367605Y-103767190D01*
X153468491Y-103732927D01*
X153500299Y-103682406D01*
X153500667Y-103674333D01*
X153458860Y-103597744D01*
X153312164Y-103558313D01*
X153035000Y-103547333D01*
X152569333Y-103547333D01*
X152569333Y-97190978D01*
X151790052Y-97215322D01*
X151790052Y-97215322D01*
G37*
X151790052Y-97215322D02*
X151010770Y-97239666D01*
X150329552Y-99331004D01*
X150144332Y-99895674D01*
X149974416Y-100406184D01*
X149827266Y-100840709D01*
X149710347Y-101177427D01*
X149631121Y-101394514D01*
X149598159Y-101469622D01*
X149561152Y-101404925D01*
X149482278Y-101198492D01*
X149368439Y-100870745D01*
X149226538Y-100442106D01*
X149063479Y-99932998D01*
X148886164Y-99363843D01*
X148884097Y-99357118D01*
X148220209Y-97197333D01*
X146916382Y-97197333D01*
X146398763Y-97200462D01*
X146031696Y-97210890D01*
X145796498Y-97230174D01*
X145674484Y-97259872D01*
X145646971Y-97301543D01*
X145647467Y-97303166D01*
X145750751Y-97371244D01*
X145987397Y-97419517D01*
X146162523Y-97434391D01*
X146642667Y-97459783D01*
X146642667Y-100630558D01*
X146642892Y-101446128D01*
X146644138Y-102108332D01*
X146647255Y-102633137D01*
X146653098Y-103036512D01*
X146662519Y-103334423D01*
X146676370Y-103542838D01*
X146695504Y-103677725D01*
X146720775Y-103755051D01*
X146753034Y-103790783D01*
X146793135Y-103800889D01*
X146812000Y-103801333D01*
X146856488Y-103796904D01*
X146892459Y-103772725D01*
X146920861Y-103712453D01*
X146942645Y-103599748D01*
X146958759Y-103418268D01*
X146970152Y-103151672D01*
X146977773Y-102783620D01*
X146982571Y-102297769D01*
X146985495Y-101677780D01*
X146987494Y-100907310D01*
X146987779Y-100774500D01*
X146994225Y-97747666D01*
X147488963Y-99271666D01*
X147692993Y-99901993D01*
X147924155Y-100619110D01*
X148159460Y-101351525D01*
X148375921Y-102027744D01*
X148463833Y-102303386D01*
X148634733Y-102834666D01*
X148765759Y-103224609D01*
X148866076Y-103493954D01*
X148944849Y-103663442D01*
X149011243Y-103753812D01*
X149074422Y-103785805D01*
X149118559Y-103785052D01*
X149170049Y-103760361D01*
X149227564Y-103691479D01*
X149296648Y-103563664D01*
X149382840Y-103362175D01*
X149491685Y-103072270D01*
X149628724Y-102679207D01*
X149799499Y-102168245D01*
X150009553Y-101524643D01*
X150256761Y-100757538D01*
X150475719Y-100077692D01*
X150679320Y-99449686D01*
X150861621Y-98891536D01*
X151016681Y-98421257D01*
X151138556Y-98056862D01*
X151221306Y-97816366D01*
X151258986Y-97717785D01*
X151259851Y-97716593D01*
X151268878Y-97788862D01*
X151277180Y-98011938D01*
X151284515Y-98367295D01*
X151290639Y-98836407D01*
X151295312Y-99400750D01*
X151298290Y-100041797D01*
X151299333Y-100739222D01*
X151299333Y-103801333D01*
X152400000Y-103801333D01*
X152858407Y-103798502D01*
X153172592Y-103788085D01*
X153367605Y-103767190D01*
X153468491Y-103732927D01*
X153500299Y-103682406D01*
X153500667Y-103674333D01*
X153458860Y-103597744D01*
X153312164Y-103558313D01*
X153035000Y-103547333D01*
X152569333Y-103547333D01*
X152569333Y-97190978D01*
X151790052Y-97215322D01*
G36*
X143083649Y-97040117D02*
X143060435Y-97044732D01*
X143008923Y-97071842D01*
X142947007Y-97148048D01*
X142869021Y-97287017D01*
X142769299Y-97502415D01*
X142642176Y-97807907D01*
X142481986Y-98217161D01*
X142283062Y-98743841D01*
X142039738Y-99401615D01*
X141746350Y-100204149D01*
X141715941Y-100287666D01*
X141407706Y-101133883D01*
X141152510Y-101834313D01*
X140946015Y-102402484D01*
X140783883Y-102851924D01*
X140661773Y-103196162D01*
X140575348Y-103448726D01*
X140520268Y-103623144D01*
X140492195Y-103732946D01*
X140486790Y-103791658D01*
X140499714Y-103812810D01*
X140526628Y-103809930D01*
X140563194Y-103796546D01*
X140593326Y-103787949D01*
X140687153Y-103709427D01*
X140806271Y-103498643D01*
X140956476Y-103143891D01*
X141089787Y-102785333D01*
X141438570Y-101811666D01*
X143572184Y-101764442D01*
X143939433Y-102782887D01*
X144306682Y-103801333D01*
X145263008Y-103801333D01*
X145689095Y-103797535D01*
X145971683Y-103783951D01*
X146136483Y-103757298D01*
X146209203Y-103714293D01*
X146219333Y-103679201D01*
X146145005Y-103586631D01*
X145916055Y-103535884D01*
X145859500Y-103531034D01*
X145499667Y-103505000D01*
X144784189Y-101451933D01*
X143425333Y-101451933D01*
X143346379Y-101477441D01*
X143132329Y-101498045D01*
X142817400Y-101511410D01*
X142496521Y-101515333D01*
X141567708Y-101515333D01*
X141912581Y-100562833D01*
X142062437Y-100147959D01*
X142204270Y-99753555D01*
X142320578Y-99428389D01*
X142385966Y-99243806D01*
X142473346Y-99042651D01*
X142550527Y-98944677D01*
X142578346Y-98947472D01*
X142623232Y-99045401D01*
X142707958Y-99269682D01*
X142820718Y-99585407D01*
X142949704Y-99957663D01*
X143083110Y-100351539D01*
X143209129Y-100732124D01*
X143315955Y-101064507D01*
X143391780Y-101313776D01*
X143424799Y-101445021D01*
X143425333Y-101451933D01*
X144784189Y-101451933D01*
X144762024Y-101388333D01*
X144431914Y-100440787D01*
X144153035Y-99640679D01*
X143920552Y-98975665D01*
X143729629Y-98433403D01*
X143575430Y-98001547D01*
X143453120Y-97667755D01*
X143357864Y-97419683D01*
X143284825Y-97244987D01*
X143229168Y-97131323D01*
X143186058Y-97066348D01*
X143150658Y-97037718D01*
X143118134Y-97033089D01*
X143083649Y-97040117D01*
X143083649Y-97040117D01*
G37*
X143083649Y-97040117D02*
X143060435Y-97044732D01*
X143008923Y-97071842D01*
X142947007Y-97148048D01*
X142869021Y-97287017D01*
X142769299Y-97502415D01*
X142642176Y-97807907D01*
X142481986Y-98217161D01*
X142283062Y-98743841D01*
X142039738Y-99401615D01*
X141746350Y-100204149D01*
X141715941Y-100287666D01*
X141407706Y-101133883D01*
X141152510Y-101834313D01*
X140946015Y-102402484D01*
X140783883Y-102851924D01*
X140661773Y-103196162D01*
X140575348Y-103448726D01*
X140520268Y-103623144D01*
X140492195Y-103732946D01*
X140486790Y-103791658D01*
X140499714Y-103812810D01*
X140526628Y-103809930D01*
X140563194Y-103796546D01*
X140593326Y-103787949D01*
X140687153Y-103709427D01*
X140806271Y-103498643D01*
X140956476Y-103143891D01*
X141089787Y-102785333D01*
X141438570Y-101811666D01*
X143572184Y-101764442D01*
X143939433Y-102782887D01*
X144306682Y-103801333D01*
X145263008Y-103801333D01*
X145689095Y-103797535D01*
X145971683Y-103783951D01*
X146136483Y-103757298D01*
X146209203Y-103714293D01*
X146219333Y-103679201D01*
X146145005Y-103586631D01*
X145916055Y-103535884D01*
X145859500Y-103531034D01*
X145499667Y-103505000D01*
X144784189Y-101451933D01*
X143425333Y-101451933D01*
X143346379Y-101477441D01*
X143132329Y-101498045D01*
X142817400Y-101511410D01*
X142496521Y-101515333D01*
X141567708Y-101515333D01*
X141912581Y-100562833D01*
X142062437Y-100147959D01*
X142204270Y-99753555D01*
X142320578Y-99428389D01*
X142385966Y-99243806D01*
X142473346Y-99042651D01*
X142550527Y-98944677D01*
X142578346Y-98947472D01*
X142623232Y-99045401D01*
X142707958Y-99269682D01*
X142820718Y-99585407D01*
X142949704Y-99957663D01*
X143083110Y-100351539D01*
X143209129Y-100732124D01*
X143315955Y-101064507D01*
X143391780Y-101313776D01*
X143424799Y-101445021D01*
X143425333Y-101451933D01*
X144784189Y-101451933D01*
X144762024Y-101388333D01*
X144431914Y-100440787D01*
X144153035Y-99640679D01*
X143920552Y-98975665D01*
X143729629Y-98433403D01*
X143575430Y-98001547D01*
X143453120Y-97667755D01*
X143357864Y-97419683D01*
X143284825Y-97244987D01*
X143229168Y-97131323D01*
X143186058Y-97066348D01*
X143150658Y-97037718D01*
X143118134Y-97033089D01*
X143083649Y-97040117D01*
G36*
X156060651Y-94258306D02*
X155851951Y-94321446D01*
X155575332Y-94408747D01*
X155276114Y-94505538D01*
X154999620Y-94597147D01*
X154791170Y-94668903D01*
X154696086Y-94706133D01*
X154694882Y-94707034D01*
X154700646Y-94796597D01*
X154744504Y-95002418D01*
X154814020Y-95279133D01*
X154896757Y-95581381D01*
X154980280Y-95863802D01*
X155052152Y-96081032D01*
X155099936Y-96187711D01*
X155101201Y-96189068D01*
X155199673Y-96189433D01*
X155420139Y-96147916D01*
X155722824Y-96072674D01*
X155871333Y-96031122D01*
X156196546Y-95934651D01*
X156454272Y-95853552D01*
X156605261Y-95800381D01*
X156627654Y-95789178D01*
X156617316Y-95703384D01*
X156566778Y-95500967D01*
X156489142Y-95225138D01*
X156397510Y-94919109D01*
X156304983Y-94626091D01*
X156224665Y-94389293D01*
X156169656Y-94251928D01*
X156156111Y-94234000D01*
X156060651Y-94258306D01*
X156060651Y-94258306D01*
G37*
X156060651Y-94258306D02*
X155851951Y-94321446D01*
X155575332Y-94408747D01*
X155276114Y-94505538D01*
X154999620Y-94597147D01*
X154791170Y-94668903D01*
X154696086Y-94706133D01*
X154694882Y-94707034D01*
X154700646Y-94796597D01*
X154744504Y-95002418D01*
X154814020Y-95279133D01*
X154896757Y-95581381D01*
X154980280Y-95863802D01*
X155052152Y-96081032D01*
X155099936Y-96187711D01*
X155101201Y-96189068D01*
X155199673Y-96189433D01*
X155420139Y-96147916D01*
X155722824Y-96072674D01*
X155871333Y-96031122D01*
X156196546Y-95934651D01*
X156454272Y-95853552D01*
X156605261Y-95800381D01*
X156627654Y-95789178D01*
X156617316Y-95703384D01*
X156566778Y-95500967D01*
X156489142Y-95225138D01*
X156397510Y-94919109D01*
X156304983Y-94626091D01*
X156224665Y-94389293D01*
X156169656Y-94251928D01*
X156156111Y-94234000D01*
X156060651Y-94258306D01*
G36*
X133312597Y-87061226D02*
X133289020Y-87100833D01*
X133182445Y-87197774D01*
X133131278Y-87206667D01*
X133073433Y-87241090D01*
X133036822Y-87362169D01*
X133017461Y-87596613D01*
X133011367Y-87971133D01*
X133011333Y-88011000D01*
X133015466Y-88356633D01*
X133026576Y-88627866D01*
X133042726Y-88787927D01*
X133053666Y-88815333D01*
X133072856Y-88737175D01*
X133087507Y-88528702D01*
X133095310Y-88228921D01*
X133096000Y-88100467D01*
X133100473Y-87744113D01*
X133119774Y-87516791D01*
X133162723Y-87378311D01*
X133238142Y-87288478D01*
X133281392Y-87255748D01*
X133394227Y-87140527D01*
X133396800Y-87060447D01*
X133312597Y-87061226D01*
X133312597Y-87061226D01*
G37*
X133312597Y-87061226D02*
X133289020Y-87100833D01*
X133182445Y-87197774D01*
X133131278Y-87206667D01*
X133073433Y-87241090D01*
X133036822Y-87362169D01*
X133017461Y-87596613D01*
X133011367Y-87971133D01*
X133011333Y-88011000D01*
X133015466Y-88356633D01*
X133026576Y-88627866D01*
X133042726Y-88787927D01*
X133053666Y-88815333D01*
X133072856Y-88737175D01*
X133087507Y-88528702D01*
X133095310Y-88228921D01*
X133096000Y-88100467D01*
X133100473Y-87744113D01*
X133119774Y-87516791D01*
X133162723Y-87378311D01*
X133238142Y-87288478D01*
X133281392Y-87255748D01*
X133394227Y-87140527D01*
X133396800Y-87060447D01*
X133312597Y-87061226D01*
G36*
X124817817Y-79107855D02*
X124785915Y-79150112D01*
X124758835Y-79216984D01*
X124736099Y-79322012D01*
X124717229Y-79478740D01*
X124701748Y-79700707D01*
X124689176Y-80001456D01*
X124679037Y-80394529D01*
X124670851Y-80893467D01*
X124664141Y-81511811D01*
X124658430Y-82263104D01*
X124653238Y-83160887D01*
X124649725Y-83869433D01*
X124645760Y-85053391D01*
X124645933Y-86068544D01*
X124650250Y-86915370D01*
X124658717Y-87594349D01*
X124671342Y-88105958D01*
X124688130Y-88450676D01*
X124709088Y-88628980D01*
X124716203Y-88650117D01*
X124741998Y-88688722D01*
X124784137Y-88720797D01*
X124857296Y-88746944D01*
X124976155Y-88767770D01*
X125155392Y-88783878D01*
X125409686Y-88795873D01*
X125753714Y-88804359D01*
X126202155Y-88809941D01*
X126769688Y-88813223D01*
X127470990Y-88814809D01*
X128320741Y-88815305D01*
X128728278Y-88815333D01*
X129683151Y-88814442D01*
X130481336Y-88811538D01*
X131135471Y-88806273D01*
X131658193Y-88798300D01*
X132062139Y-88787274D01*
X132359948Y-88772845D01*
X132564256Y-88754669D01*
X132687702Y-88732397D01*
X132742922Y-88705683D01*
X132743425Y-88705091D01*
X132787223Y-88574663D01*
X132825865Y-88320727D01*
X132853178Y-87989103D01*
X132859626Y-87842629D01*
X132884333Y-87090410D01*
X133313654Y-86873372D01*
X133618091Y-86671571D01*
X133938072Y-86383698D01*
X134224638Y-86060868D01*
X134428833Y-85754194D01*
X134469105Y-85667005D01*
X134558536Y-85539303D01*
X134617272Y-85513333D01*
X134690054Y-85443640D01*
X134701991Y-85365167D01*
X134689689Y-85305003D01*
X134645990Y-85309592D01*
X134555970Y-85394592D01*
X134404705Y-85575660D01*
X134177273Y-85868453D01*
X133999981Y-86101714D01*
X133813155Y-86324905D01*
X133649463Y-86479631D01*
X133555481Y-86529333D01*
X133446687Y-86565584D01*
X133434666Y-86593332D01*
X133363395Y-86675163D01*
X133196908Y-86761311D01*
X133006198Y-86823703D01*
X132862258Y-86834270D01*
X132843980Y-86826890D01*
X132765167Y-86742687D01*
X132819414Y-86653025D01*
X133020160Y-86541150D01*
X133102775Y-86504289D01*
X133326081Y-86375701D01*
X133571049Y-86187557D01*
X133796779Y-85977849D01*
X133962373Y-85784572D01*
X134026929Y-85645790D01*
X134079879Y-85531187D01*
X134190390Y-85391790D01*
X134338168Y-85170145D01*
X134411235Y-84984167D01*
X134435628Y-84822442D01*
X134368165Y-84760656D01*
X134206843Y-84751333D01*
X134024177Y-84731865D01*
X133962953Y-84649460D01*
X133964831Y-84560833D01*
X133936387Y-84404700D01*
X133815666Y-84358166D01*
X133635418Y-84343719D01*
X133565900Y-84337000D01*
X133544764Y-84283267D01*
X133587066Y-84226400D01*
X133681929Y-84086971D01*
X133646537Y-84015402D01*
X133533478Y-84027177D01*
X133389383Y-84013154D01*
X133277778Y-83855835D01*
X133213765Y-83738996D01*
X133126785Y-83675800D01*
X132972242Y-83653494D01*
X132705543Y-83659323D01*
X132607467Y-83664119D01*
X132294078Y-83668239D01*
X132095138Y-83645902D01*
X132037666Y-83608333D01*
X132107867Y-83550852D01*
X132221805Y-83547041D01*
X132391048Y-83530705D01*
X132459636Y-83483541D01*
X132578359Y-83414550D01*
X132706406Y-83396667D01*
X132902094Y-83317307D01*
X132919340Y-83291758D01*
X132381945Y-83291758D01*
X132298722Y-83305316D01*
X132188908Y-83289749D01*
X132187998Y-83269667D01*
X132080000Y-83269667D01*
X132037666Y-83312000D01*
X131995333Y-83269667D01*
X132037666Y-83227333D01*
X132080000Y-83269667D01*
X132187998Y-83269667D01*
X132187597Y-83260847D01*
X132300914Y-83240636D01*
X132349875Y-83254163D01*
X132381945Y-83291758D01*
X132919340Y-83291758D01*
X133005324Y-83164378D01*
X133057882Y-83016153D01*
X131772137Y-83016153D01*
X131768032Y-83124886D01*
X131685018Y-83131105D01*
X131617949Y-83063850D01*
X131625800Y-82954955D01*
X131646414Y-82937336D01*
X131737241Y-82959103D01*
X131772137Y-83016153D01*
X133057882Y-83016153D01*
X133060532Y-83008680D01*
X133032523Y-82892671D01*
X132898560Y-82755403D01*
X132831612Y-82698711D01*
X132591894Y-82552570D01*
X132330233Y-82472237D01*
X132100357Y-82466806D01*
X131955996Y-82545371D01*
X131953000Y-82550000D01*
X131838788Y-82610510D01*
X131646559Y-82634667D01*
X131481204Y-82647550D01*
X131415915Y-82719412D01*
X131414721Y-82900073D01*
X131418722Y-82950220D01*
X131478471Y-83206622D01*
X131620639Y-83352276D01*
X131640374Y-83362624D01*
X131765127Y-83440579D01*
X131742357Y-83493053D01*
X131703874Y-83510080D01*
X131626636Y-83585652D01*
X131585216Y-83759763D01*
X131572058Y-84065942D01*
X131572000Y-84095401D01*
X131567522Y-84373824D01*
X131536920Y-84563447D01*
X131454442Y-84720582D01*
X131294336Y-84901544D01*
X131127500Y-85067417D01*
X130884968Y-85296627D01*
X130702290Y-85430492D01*
X130523685Y-85497372D01*
X130293375Y-85525628D01*
X130217333Y-85530192D01*
X129751666Y-85555667D01*
X129728453Y-86973833D01*
X129705239Y-88392000D01*
X132334000Y-88392000D01*
X132334000Y-87592663D01*
X132341465Y-87241574D01*
X132361507Y-86958428D01*
X132390593Y-86783014D01*
X132409073Y-86746929D01*
X132510587Y-86741832D01*
X132575792Y-86879624D01*
X132605915Y-87167300D01*
X132602181Y-87611852D01*
X132593451Y-87799333D01*
X132545666Y-88688333D01*
X124925666Y-88688333D01*
X124903161Y-86338833D01*
X124893214Y-85607789D01*
X124878801Y-85000163D01*
X124860370Y-84525966D01*
X124838374Y-84195212D01*
X124813264Y-84017911D01*
X124797327Y-83989333D01*
X124770087Y-83906283D01*
X124747799Y-83663473D01*
X124730833Y-83270416D01*
X124719554Y-82736624D01*
X124714332Y-82071608D01*
X124714000Y-81832908D01*
X124714774Y-81167999D01*
X124718145Y-80650094D01*
X124725683Y-80256865D01*
X124738960Y-79965988D01*
X124759546Y-79755136D01*
X124789013Y-79601982D01*
X124828932Y-79484199D01*
X124880874Y-79379462D01*
X124887482Y-79367613D01*
X124992500Y-79142076D01*
X125007095Y-79017736D01*
X124935989Y-79012191D01*
X124817817Y-79107855D01*
X124817817Y-79107855D01*
G37*
X124817817Y-79107855D02*
X124785915Y-79150112D01*
X124758835Y-79216984D01*
X124736099Y-79322012D01*
X124717229Y-79478740D01*
X124701748Y-79700707D01*
X124689176Y-80001456D01*
X124679037Y-80394529D01*
X124670851Y-80893467D01*
X124664141Y-81511811D01*
X124658430Y-82263104D01*
X124653238Y-83160887D01*
X124649725Y-83869433D01*
X124645760Y-85053391D01*
X124645933Y-86068544D01*
X124650250Y-86915370D01*
X124658717Y-87594349D01*
X124671342Y-88105958D01*
X124688130Y-88450676D01*
X124709088Y-88628980D01*
X124716203Y-88650117D01*
X124741998Y-88688722D01*
X124784137Y-88720797D01*
X124857296Y-88746944D01*
X124976155Y-88767770D01*
X125155392Y-88783878D01*
X125409686Y-88795873D01*
X125753714Y-88804359D01*
X126202155Y-88809941D01*
X126769688Y-88813223D01*
X127470990Y-88814809D01*
X128320741Y-88815305D01*
X128728278Y-88815333D01*
X129683151Y-88814442D01*
X130481336Y-88811538D01*
X131135471Y-88806273D01*
X131658193Y-88798300D01*
X132062139Y-88787274D01*
X132359948Y-88772845D01*
X132564256Y-88754669D01*
X132687702Y-88732397D01*
X132742922Y-88705683D01*
X132743425Y-88705091D01*
X132787223Y-88574663D01*
X132825865Y-88320727D01*
X132853178Y-87989103D01*
X132859626Y-87842629D01*
X132884333Y-87090410D01*
X133313654Y-86873372D01*
X133618091Y-86671571D01*
X133938072Y-86383698D01*
X134224638Y-86060868D01*
X134428833Y-85754194D01*
X134469105Y-85667005D01*
X134558536Y-85539303D01*
X134617272Y-85513333D01*
X134690054Y-85443640D01*
X134701991Y-85365167D01*
X134689689Y-85305003D01*
X134645990Y-85309592D01*
X134555970Y-85394592D01*
X134404705Y-85575660D01*
X134177273Y-85868453D01*
X133999981Y-86101714D01*
X133813155Y-86324905D01*
X133649463Y-86479631D01*
X133555481Y-86529333D01*
X133446687Y-86565584D01*
X133434666Y-86593332D01*
X133363395Y-86675163D01*
X133196908Y-86761311D01*
X133006198Y-86823703D01*
X132862258Y-86834270D01*
X132843980Y-86826890D01*
X132765167Y-86742687D01*
X132819414Y-86653025D01*
X133020160Y-86541150D01*
X133102775Y-86504289D01*
X133326081Y-86375701D01*
X133571049Y-86187557D01*
X133796779Y-85977849D01*
X133962373Y-85784572D01*
X134026929Y-85645790D01*
X134079879Y-85531187D01*
X134190390Y-85391790D01*
X134338168Y-85170145D01*
X134411235Y-84984167D01*
X134435628Y-84822442D01*
X134368165Y-84760656D01*
X134206843Y-84751333D01*
X134024177Y-84731865D01*
X133962953Y-84649460D01*
X133964831Y-84560833D01*
X133936387Y-84404700D01*
X133815666Y-84358166D01*
X133635418Y-84343719D01*
X133565900Y-84337000D01*
X133544764Y-84283267D01*
X133587066Y-84226400D01*
X133681929Y-84086971D01*
X133646537Y-84015402D01*
X133533478Y-84027177D01*
X133389383Y-84013154D01*
X133277778Y-83855835D01*
X133213765Y-83738996D01*
X133126785Y-83675800D01*
X132972242Y-83653494D01*
X132705543Y-83659323D01*
X132607467Y-83664119D01*
X132294078Y-83668239D01*
X132095138Y-83645902D01*
X132037666Y-83608333D01*
X132107867Y-83550852D01*
X132221805Y-83547041D01*
X132391048Y-83530705D01*
X132459636Y-83483541D01*
X132578359Y-83414550D01*
X132706406Y-83396667D01*
X132902094Y-83317307D01*
X132919340Y-83291758D01*
X132381945Y-83291758D01*
X132298722Y-83305316D01*
X132188908Y-83289749D01*
X132187998Y-83269667D01*
X132080000Y-83269667D01*
X132037666Y-83312000D01*
X131995333Y-83269667D01*
X132037666Y-83227333D01*
X132080000Y-83269667D01*
X132187998Y-83269667D01*
X132187597Y-83260847D01*
X132300914Y-83240636D01*
X132349875Y-83254163D01*
X132381945Y-83291758D01*
X132919340Y-83291758D01*
X133005324Y-83164378D01*
X133057882Y-83016153D01*
X131772137Y-83016153D01*
X131768032Y-83124886D01*
X131685018Y-83131105D01*
X131617949Y-83063850D01*
X131625800Y-82954955D01*
X131646414Y-82937336D01*
X131737241Y-82959103D01*
X131772137Y-83016153D01*
X133057882Y-83016153D01*
X133060532Y-83008680D01*
X133032523Y-82892671D01*
X132898560Y-82755403D01*
X132831612Y-82698711D01*
X132591894Y-82552570D01*
X132330233Y-82472237D01*
X132100357Y-82466806D01*
X131955996Y-82545371D01*
X131953000Y-82550000D01*
X131838788Y-82610510D01*
X131646559Y-82634667D01*
X131481204Y-82647550D01*
X131415915Y-82719412D01*
X131414721Y-82900073D01*
X131418722Y-82950220D01*
X131478471Y-83206622D01*
X131620639Y-83352276D01*
X131640374Y-83362624D01*
X131765127Y-83440579D01*
X131742357Y-83493053D01*
X131703874Y-83510080D01*
X131626636Y-83585652D01*
X131585216Y-83759763D01*
X131572058Y-84065942D01*
X131572000Y-84095401D01*
X131567522Y-84373824D01*
X131536920Y-84563447D01*
X131454442Y-84720582D01*
X131294336Y-84901544D01*
X131127500Y-85067417D01*
X130884968Y-85296627D01*
X130702290Y-85430492D01*
X130523685Y-85497372D01*
X130293375Y-85525628D01*
X130217333Y-85530192D01*
X129751666Y-85555667D01*
X129728453Y-86973833D01*
X129705239Y-88392000D01*
X132334000Y-88392000D01*
X132334000Y-87592663D01*
X132341465Y-87241574D01*
X132361507Y-86958428D01*
X132390593Y-86783014D01*
X132409073Y-86746929D01*
X132510587Y-86741832D01*
X132575792Y-86879624D01*
X132605915Y-87167300D01*
X132602181Y-87611852D01*
X132593451Y-87799333D01*
X132545666Y-88688333D01*
X124925666Y-88688333D01*
X124903161Y-86338833D01*
X124893214Y-85607789D01*
X124878801Y-85000163D01*
X124860370Y-84525966D01*
X124838374Y-84195212D01*
X124813264Y-84017911D01*
X124797327Y-83989333D01*
X124770087Y-83906283D01*
X124747799Y-83663473D01*
X124730833Y-83270416D01*
X124719554Y-82736624D01*
X124714332Y-82071608D01*
X124714000Y-81832908D01*
X124714774Y-81167999D01*
X124718145Y-80650094D01*
X124725683Y-80256865D01*
X124738960Y-79965988D01*
X124759546Y-79755136D01*
X124789013Y-79601982D01*
X124828932Y-79484199D01*
X124880874Y-79379462D01*
X124887482Y-79367613D01*
X124992500Y-79142076D01*
X125007095Y-79017736D01*
X124935989Y-79012191D01*
X124817817Y-79107855D01*
G36*
X131504329Y-75572561D02*
X131398612Y-75713035D01*
X131281347Y-75985823D01*
X131241591Y-76092740D01*
X131084016Y-76523846D01*
X131400057Y-76832452D01*
X131599869Y-77012894D01*
X131766161Y-77100401D01*
X131974710Y-77122670D01*
X132173216Y-77115029D01*
X132630333Y-77089000D01*
X132655528Y-76510476D01*
X132673588Y-76208400D01*
X132700202Y-76048070D01*
X132743948Y-76001898D01*
X132803695Y-76034010D01*
X132873617Y-76177006D01*
X132915451Y-76427255D01*
X132928175Y-76724854D01*
X132910762Y-77009899D01*
X132862190Y-77222488D01*
X132825067Y-77283733D01*
X132686618Y-77339152D01*
X132429659Y-77375410D01*
X132173533Y-77385333D01*
X131855655Y-77376018D01*
X131648292Y-77337065D01*
X131493133Y-77251961D01*
X131392834Y-77164246D01*
X131162069Y-76943160D01*
X130840661Y-77185413D01*
X130618570Y-77354767D01*
X130436867Y-77496653D01*
X130389460Y-77534955D01*
X129964327Y-77876189D01*
X129644601Y-78107412D01*
X129415054Y-78237445D01*
X129260460Y-78275112D01*
X129174418Y-78238951D01*
X129022363Y-78148277D01*
X128908623Y-78175057D01*
X128884493Y-78305154D01*
X128887548Y-78318002D01*
X128883341Y-78442005D01*
X128774269Y-78548853D01*
X128579923Y-78649677D01*
X128270407Y-78808788D01*
X127958056Y-78995061D01*
X127906407Y-79029341D01*
X127699390Y-79160570D01*
X127548861Y-79238591D01*
X127514607Y-79248000D01*
X127407477Y-79305745D01*
X127339440Y-79374068D01*
X127213320Y-79452489D01*
X127108257Y-79420995D01*
X127085245Y-79348836D01*
X127149199Y-79269386D01*
X127308862Y-79140228D01*
X127381578Y-79088919D01*
X127545861Y-78942076D01*
X127653124Y-78783735D01*
X127689976Y-78652416D01*
X127643031Y-78586637D01*
X127551194Y-78600954D01*
X127434191Y-78579735D01*
X127274917Y-78483332D01*
X127123920Y-78353588D01*
X127031747Y-78232347D01*
X127032340Y-78171438D01*
X127131472Y-78172101D01*
X127303457Y-78231588D01*
X127477905Y-78318420D01*
X127584421Y-78401120D01*
X127592666Y-78422001D01*
X127662513Y-78477579D01*
X127834914Y-78476424D01*
X128054165Y-78422028D01*
X128139016Y-78387743D01*
X128354666Y-78289486D01*
X128354666Y-76990743D01*
X128351930Y-76480099D01*
X128342416Y-76116943D01*
X128324169Y-75879499D01*
X128295233Y-75745990D01*
X128253654Y-75694641D01*
X128238033Y-75692000D01*
X128090056Y-75751744D01*
X128014703Y-75820562D01*
X127868265Y-75942228D01*
X127649942Y-76071135D01*
X127618207Y-76086643D01*
X127446461Y-76196860D01*
X127289369Y-76372571D01*
X127119140Y-76649482D01*
X126994871Y-76887535D01*
X126844177Y-77199522D01*
X126728913Y-77461523D01*
X126667079Y-77631635D01*
X126661333Y-77663947D01*
X126598821Y-77798368D01*
X126441170Y-77983256D01*
X126233212Y-78173776D01*
X126019777Y-78325090D01*
X125976863Y-78348500D01*
X125843076Y-78460707D01*
X125652911Y-78674874D01*
X125441481Y-78950469D01*
X125381037Y-79036333D01*
X124972479Y-79629000D01*
X124970239Y-81677170D01*
X124972975Y-82359577D01*
X124982487Y-82921949D01*
X124998316Y-83352525D01*
X125020000Y-83639546D01*
X125047077Y-83771249D01*
X125052666Y-83777667D01*
X125079636Y-83878620D01*
X125101900Y-84138471D01*
X125119081Y-84546839D01*
X125130803Y-85093344D01*
X125136689Y-85767604D01*
X125137333Y-86110997D01*
X125137333Y-88392000D01*
X129451597Y-88392000D01*
X129474632Y-86804500D01*
X129497666Y-85217000D01*
X130132344Y-85191703D01*
X130476211Y-85170482D01*
X130702487Y-85130414D01*
X130862867Y-85056686D01*
X131000178Y-84943030D01*
X131233333Y-84719652D01*
X131230333Y-83232659D01*
X131225482Y-82643462D01*
X131212562Y-82201507D01*
X131189972Y-81884829D01*
X131156106Y-81671458D01*
X131109362Y-81539430D01*
X131106333Y-81534000D01*
X131032278Y-81294002D01*
X130991112Y-80893758D01*
X130982333Y-80547034D01*
X130983243Y-80179615D01*
X130997024Y-79937851D01*
X131035092Y-79778066D01*
X131108863Y-79656587D01*
X131160420Y-79602489D01*
X127079911Y-79602489D01*
X127014644Y-79648813D01*
X126884306Y-79731665D01*
X126703662Y-79884946D01*
X126661333Y-79925333D01*
X126435948Y-80118552D01*
X126247192Y-80232676D01*
X126121839Y-80257905D01*
X126086662Y-80184440D01*
X126101941Y-80130075D01*
X126146770Y-79995107D01*
X126153333Y-79960742D01*
X126222457Y-79929249D01*
X126280333Y-79925333D01*
X126393122Y-79888092D01*
X126407333Y-79856589D01*
X126469246Y-79766579D01*
X126622721Y-79629709D01*
X126669611Y-79593934D01*
X126859976Y-79474462D01*
X126978353Y-79465584D01*
X127029445Y-79503928D01*
X127079911Y-79602489D01*
X131160420Y-79602489D01*
X131229752Y-79529741D01*
X131254500Y-79505768D01*
X131488870Y-79287874D01*
X131803151Y-79007168D01*
X132155487Y-78699827D01*
X132504024Y-78402028D01*
X132806908Y-78149948D01*
X133005002Y-77992727D01*
X133265333Y-77795787D01*
X133265333Y-76880631D01*
X133263702Y-76476553D01*
X133253892Y-76207115D01*
X133228527Y-76037626D01*
X133180232Y-75933394D01*
X133101631Y-75859730D01*
X133039277Y-75817357D01*
X132845442Y-75722814D01*
X132694675Y-75745085D01*
X132662202Y-75763553D01*
X132511009Y-75810147D01*
X132459928Y-75774933D01*
X132343909Y-75710292D01*
X132205987Y-75692000D01*
X131970977Y-75655964D01*
X131785354Y-75592696D01*
X131624556Y-75540436D01*
X131504329Y-75572561D01*
X131504329Y-75572561D01*
G37*
X131504329Y-75572561D02*
X131398612Y-75713035D01*
X131281347Y-75985823D01*
X131241591Y-76092740D01*
X131084016Y-76523846D01*
X131400057Y-76832452D01*
X131599869Y-77012894D01*
X131766161Y-77100401D01*
X131974710Y-77122670D01*
X132173216Y-77115029D01*
X132630333Y-77089000D01*
X132655528Y-76510476D01*
X132673588Y-76208400D01*
X132700202Y-76048070D01*
X132743948Y-76001898D01*
X132803695Y-76034010D01*
X132873617Y-76177006D01*
X132915451Y-76427255D01*
X132928175Y-76724854D01*
X132910762Y-77009899D01*
X132862190Y-77222488D01*
X132825067Y-77283733D01*
X132686618Y-77339152D01*
X132429659Y-77375410D01*
X132173533Y-77385333D01*
X131855655Y-77376018D01*
X131648292Y-77337065D01*
X131493133Y-77251961D01*
X131392834Y-77164246D01*
X131162069Y-76943160D01*
X130840661Y-77185413D01*
X130618570Y-77354767D01*
X130436867Y-77496653D01*
X130389460Y-77534955D01*
X129964327Y-77876189D01*
X129644601Y-78107412D01*
X129415054Y-78237445D01*
X129260460Y-78275112D01*
X129174418Y-78238951D01*
X129022363Y-78148277D01*
X128908623Y-78175057D01*
X128884493Y-78305154D01*
X128887548Y-78318002D01*
X128883341Y-78442005D01*
X128774269Y-78548853D01*
X128579923Y-78649677D01*
X128270407Y-78808788D01*
X127958056Y-78995061D01*
X127906407Y-79029341D01*
X127699390Y-79160570D01*
X127548861Y-79238591D01*
X127514607Y-79248000D01*
X127407477Y-79305745D01*
X127339440Y-79374068D01*
X127213320Y-79452489D01*
X127108257Y-79420995D01*
X127085245Y-79348836D01*
X127149199Y-79269386D01*
X127308862Y-79140228D01*
X127381578Y-79088919D01*
X127545861Y-78942076D01*
X127653124Y-78783735D01*
X127689976Y-78652416D01*
X127643031Y-78586637D01*
X127551194Y-78600954D01*
X127434191Y-78579735D01*
X127274917Y-78483332D01*
X127123920Y-78353588D01*
X127031747Y-78232347D01*
X127032340Y-78171438D01*
X127131472Y-78172101D01*
X127303457Y-78231588D01*
X127477905Y-78318420D01*
X127584421Y-78401120D01*
X127592666Y-78422001D01*
X127662513Y-78477579D01*
X127834914Y-78476424D01*
X128054165Y-78422028D01*
X128139016Y-78387743D01*
X128354666Y-78289486D01*
X128354666Y-76990743D01*
X128351930Y-76480099D01*
X128342416Y-76116943D01*
X128324169Y-75879499D01*
X128295233Y-75745990D01*
X128253654Y-75694641D01*
X128238033Y-75692000D01*
X128090056Y-75751744D01*
X128014703Y-75820562D01*
X127868265Y-75942228D01*
X127649942Y-76071135D01*
X127618207Y-76086643D01*
X127446461Y-76196860D01*
X127289369Y-76372571D01*
X127119140Y-76649482D01*
X126994871Y-76887535D01*
X126844177Y-77199522D01*
X126728913Y-77461523D01*
X126667079Y-77631635D01*
X126661333Y-77663947D01*
X126598821Y-77798368D01*
X126441170Y-77983256D01*
X126233212Y-78173776D01*
X126019777Y-78325090D01*
X125976863Y-78348500D01*
X125843076Y-78460707D01*
X125652911Y-78674874D01*
X125441481Y-78950469D01*
X125381037Y-79036333D01*
X124972479Y-79629000D01*
X124970239Y-81677170D01*
X124972975Y-82359577D01*
X124982487Y-82921949D01*
X124998316Y-83352525D01*
X125020000Y-83639546D01*
X125047077Y-83771249D01*
X125052666Y-83777667D01*
X125079636Y-83878620D01*
X125101900Y-84138471D01*
X125119081Y-84546839D01*
X125130803Y-85093344D01*
X125136689Y-85767604D01*
X125137333Y-86110997D01*
X125137333Y-88392000D01*
X129451597Y-88392000D01*
X129474632Y-86804500D01*
X129497666Y-85217000D01*
X130132344Y-85191703D01*
X130476211Y-85170482D01*
X130702487Y-85130414D01*
X130862867Y-85056686D01*
X131000178Y-84943030D01*
X131233333Y-84719652D01*
X131230333Y-83232659D01*
X131225482Y-82643462D01*
X131212562Y-82201507D01*
X131189972Y-81884829D01*
X131156106Y-81671458D01*
X131109362Y-81539430D01*
X131106333Y-81534000D01*
X131032278Y-81294002D01*
X130991112Y-80893758D01*
X130982333Y-80547034D01*
X130983243Y-80179615D01*
X130997024Y-79937851D01*
X131035092Y-79778066D01*
X131108863Y-79656587D01*
X131160420Y-79602489D01*
X127079911Y-79602489D01*
X127014644Y-79648813D01*
X126884306Y-79731665D01*
X126703662Y-79884946D01*
X126661333Y-79925333D01*
X126435948Y-80118552D01*
X126247192Y-80232676D01*
X126121839Y-80257905D01*
X126086662Y-80184440D01*
X126101941Y-80130075D01*
X126146770Y-79995107D01*
X126153333Y-79960742D01*
X126222457Y-79929249D01*
X126280333Y-79925333D01*
X126393122Y-79888092D01*
X126407333Y-79856589D01*
X126469246Y-79766579D01*
X126622721Y-79629709D01*
X126669611Y-79593934D01*
X126859976Y-79474462D01*
X126978353Y-79465584D01*
X127029445Y-79503928D01*
X127079911Y-79602489D01*
X131160420Y-79602489D01*
X131229752Y-79529741D01*
X131254500Y-79505768D01*
X131488870Y-79287874D01*
X131803151Y-79007168D01*
X132155487Y-78699827D01*
X132504024Y-78402028D01*
X132806908Y-78149948D01*
X133005002Y-77992727D01*
X133265333Y-77795787D01*
X133265333Y-76880631D01*
X133263702Y-76476553D01*
X133253892Y-76207115D01*
X133228527Y-76037626D01*
X133180232Y-75933394D01*
X133101631Y-75859730D01*
X133039277Y-75817357D01*
X132845442Y-75722814D01*
X132694675Y-75745085D01*
X132662202Y-75763553D01*
X132511009Y-75810147D01*
X132459928Y-75774933D01*
X132343909Y-75710292D01*
X132205987Y-75692000D01*
X131970977Y-75655964D01*
X131785354Y-75592696D01*
X131624556Y-75540436D01*
X131504329Y-75572561D01*
G36*
X133521793Y-87017096D02*
X133519333Y-87037333D01*
X133583762Y-87119540D01*
X133604000Y-87122000D01*
X133686206Y-87057571D01*
X133688666Y-87037333D01*
X133624237Y-86955127D01*
X133604000Y-86952667D01*
X133521793Y-87017096D01*
X133521793Y-87017096D01*
G37*
X133521793Y-87017096D02*
X133519333Y-87037333D01*
X133583762Y-87119540D01*
X133604000Y-87122000D01*
X133686206Y-87057571D01*
X133688666Y-87037333D01*
X133624237Y-86955127D01*
X133604000Y-86952667D01*
X133521793Y-87017096D01*
G36*
X134505254Y-86039778D02*
X134484776Y-86059795D01*
X134386023Y-86185111D01*
X134366000Y-86238122D01*
X134309498Y-86326282D01*
X134165908Y-86483140D01*
X134069666Y-86577150D01*
X133896452Y-86749631D01*
X133789731Y-86873466D01*
X133773333Y-86904648D01*
X133820266Y-86952606D01*
X133944175Y-86879328D01*
X134089572Y-86733694D01*
X134248198Y-86599319D01*
X134372167Y-86575909D01*
X134377820Y-86578972D01*
X134437087Y-86590248D01*
X134416510Y-86542563D01*
X134410907Y-86423620D01*
X134474329Y-86279997D01*
X134567718Y-86173585D01*
X134652016Y-86166274D01*
X134653236Y-86167458D01*
X134679267Y-86156624D01*
X134658585Y-86084428D01*
X134597353Y-85988908D01*
X134505254Y-86039778D01*
X134505254Y-86039778D01*
G37*
X134505254Y-86039778D02*
X134484776Y-86059795D01*
X134386023Y-86185111D01*
X134366000Y-86238122D01*
X134309498Y-86326282D01*
X134165908Y-86483140D01*
X134069666Y-86577150D01*
X133896452Y-86749631D01*
X133789731Y-86873466D01*
X133773333Y-86904648D01*
X133820266Y-86952606D01*
X133944175Y-86879328D01*
X134089572Y-86733694D01*
X134248198Y-86599319D01*
X134372167Y-86575909D01*
X134377820Y-86578972D01*
X134437087Y-86590248D01*
X134416510Y-86542563D01*
X134410907Y-86423620D01*
X134474329Y-86279997D01*
X134567718Y-86173585D01*
X134652016Y-86166274D01*
X134653236Y-86167458D01*
X134679267Y-86156624D01*
X134658585Y-86084428D01*
X134597353Y-85988908D01*
X134505254Y-86039778D01*
G36*
X134747000Y-85652049D02*
X134634962Y-85735155D01*
X134620000Y-85776392D01*
X134676744Y-85847776D01*
X134791824Y-85817466D01*
X134817555Y-85795555D01*
X134873996Y-85683008D01*
X134804806Y-85638302D01*
X134747000Y-85652049D01*
X134747000Y-85652049D01*
G37*
X134747000Y-85652049D02*
X134634962Y-85735155D01*
X134620000Y-85776392D01*
X134676744Y-85847776D01*
X134791824Y-85817466D01*
X134817555Y-85795555D01*
X134873996Y-85683008D01*
X134804806Y-85638302D01*
X134747000Y-85652049D01*
G36*
X134902222Y-85372222D02*
X134892089Y-85472702D01*
X134902222Y-85485111D01*
X134952556Y-85473489D01*
X134958666Y-85428667D01*
X134927688Y-85358976D01*
X134902222Y-85372222D01*
X134902222Y-85372222D01*
G37*
X134902222Y-85372222D02*
X134892089Y-85472702D01*
X134902222Y-85485111D01*
X134952556Y-85473489D01*
X134958666Y-85428667D01*
X134927688Y-85358976D01*
X134902222Y-85372222D01*
G36*
X135071555Y-85202889D02*
X135083178Y-85253223D01*
X135128000Y-85259333D01*
X135197690Y-85228355D01*
X135184444Y-85202889D01*
X135083965Y-85192756D01*
X135071555Y-85202889D01*
X135071555Y-85202889D01*
G37*
X135071555Y-85202889D02*
X135083178Y-85253223D01*
X135128000Y-85259333D01*
X135197690Y-85228355D01*
X135184444Y-85202889D01*
X135083965Y-85192756D01*
X135071555Y-85202889D01*
G36*
X135866407Y-84550894D02*
X135720170Y-84664037D01*
X135548725Y-84820860D01*
X135396013Y-84980185D01*
X135305975Y-85100834D01*
X135297333Y-85128137D01*
X135346065Y-85171940D01*
X135488160Y-85082563D01*
X135710110Y-84871478D01*
X135865441Y-84690604D01*
X135943989Y-84558820D01*
X135943497Y-84522608D01*
X135866407Y-84550894D01*
X135866407Y-84550894D01*
G37*
X135866407Y-84550894D02*
X135720170Y-84664037D01*
X135548725Y-84820860D01*
X135396013Y-84980185D01*
X135305975Y-85100834D01*
X135297333Y-85128137D01*
X135346065Y-85171940D01*
X135488160Y-85082563D01*
X135710110Y-84871478D01*
X135865441Y-84690604D01*
X135943989Y-84558820D01*
X135943497Y-84522608D01*
X135866407Y-84550894D01*
G36*
X134598833Y-82518071D02*
X134314682Y-82804611D01*
X134080947Y-83051015D01*
X133920990Y-83231883D01*
X133858172Y-83321815D01*
X133858000Y-83323569D01*
X133928122Y-83386904D01*
X134006166Y-83399359D01*
X134108004Y-83410334D01*
X134072438Y-83462874D01*
X134006166Y-83514526D01*
X133885785Y-83694331D01*
X133887223Y-83914660D01*
X133988726Y-84126251D01*
X134168543Y-84279842D01*
X134365370Y-84328000D01*
X134559070Y-84364809D01*
X134702635Y-84451969D01*
X134755272Y-84554581D01*
X134708778Y-84621792D01*
X134618608Y-84723625D01*
X134669427Y-84791805D01*
X134824058Y-84788011D01*
X134990686Y-84781116D01*
X135056892Y-84881656D01*
X135100050Y-84930551D01*
X135203294Y-84875491D01*
X135384974Y-84704320D01*
X135487833Y-84596219D01*
X135689950Y-84361468D01*
X135834352Y-84158459D01*
X135889996Y-84030871D01*
X135890000Y-84030297D01*
X135849848Y-83939884D01*
X135805333Y-83947000D01*
X135725185Y-84070400D01*
X135720666Y-84108208D01*
X135646699Y-84286027D01*
X135467377Y-84417025D01*
X135246571Y-84460447D01*
X135183762Y-84450805D01*
X134961802Y-84359104D01*
X134835073Y-84236970D01*
X134830192Y-84117558D01*
X134878853Y-84071001D01*
X134995581Y-84058523D01*
X135061180Y-84162120D01*
X135134754Y-84294306D01*
X135226093Y-84301262D01*
X135353776Y-84173443D01*
X135521060Y-83925833D01*
X135583163Y-83820000D01*
X135212666Y-83820000D01*
X135183780Y-83902465D01*
X135175330Y-83904667D01*
X135103044Y-83845338D01*
X135085666Y-83820000D01*
X135092379Y-83741981D01*
X135123003Y-83735333D01*
X135209221Y-83796794D01*
X135212666Y-83820000D01*
X135583163Y-83820000D01*
X135711385Y-83601492D01*
X135002655Y-83601492D01*
X134917773Y-83601400D01*
X134877519Y-83591452D01*
X134714691Y-83522378D01*
X134656017Y-83471113D01*
X134659473Y-83404846D01*
X134754702Y-83402665D01*
X134880915Y-83455181D01*
X134953138Y-83517005D01*
X135002655Y-83601492D01*
X135711385Y-83601492D01*
X135835147Y-83390586D01*
X135874390Y-83312000D01*
X134535333Y-83312000D01*
X134466757Y-83387114D01*
X134408333Y-83396667D01*
X134295661Y-83350949D01*
X134281333Y-83312000D01*
X134349910Y-83236885D01*
X134408333Y-83227333D01*
X134521005Y-83273051D01*
X134535333Y-83312000D01*
X135874390Y-83312000D01*
X136076360Y-82907549D01*
X136234476Y-82500491D01*
X136299273Y-82193184D01*
X136298466Y-82118044D01*
X136275261Y-81953244D01*
X136216800Y-81865222D01*
X136078979Y-81826249D01*
X135817691Y-81808595D01*
X135805333Y-81808002D01*
X135339666Y-81785671D01*
X134598833Y-82518071D01*
X134598833Y-82518071D01*
G37*
X134598833Y-82518071D02*
X134314682Y-82804611D01*
X134080947Y-83051015D01*
X133920990Y-83231883D01*
X133858172Y-83321815D01*
X133858000Y-83323569D01*
X133928122Y-83386904D01*
X134006166Y-83399359D01*
X134108004Y-83410334D01*
X134072438Y-83462874D01*
X134006166Y-83514526D01*
X133885785Y-83694331D01*
X133887223Y-83914660D01*
X133988726Y-84126251D01*
X134168543Y-84279842D01*
X134365370Y-84328000D01*
X134559070Y-84364809D01*
X134702635Y-84451969D01*
X134755272Y-84554581D01*
X134708778Y-84621792D01*
X134618608Y-84723625D01*
X134669427Y-84791805D01*
X134824058Y-84788011D01*
X134990686Y-84781116D01*
X135056892Y-84881656D01*
X135100050Y-84930551D01*
X135203294Y-84875491D01*
X135384974Y-84704320D01*
X135487833Y-84596219D01*
X135689950Y-84361468D01*
X135834352Y-84158459D01*
X135889996Y-84030871D01*
X135890000Y-84030297D01*
X135849848Y-83939884D01*
X135805333Y-83947000D01*
X135725185Y-84070400D01*
X135720666Y-84108208D01*
X135646699Y-84286027D01*
X135467377Y-84417025D01*
X135246571Y-84460447D01*
X135183762Y-84450805D01*
X134961802Y-84359104D01*
X134835073Y-84236970D01*
X134830192Y-84117558D01*
X134878853Y-84071001D01*
X134995581Y-84058523D01*
X135061180Y-84162120D01*
X135134754Y-84294306D01*
X135226093Y-84301262D01*
X135353776Y-84173443D01*
X135521060Y-83925833D01*
X135583163Y-83820000D01*
X135212666Y-83820000D01*
X135183780Y-83902465D01*
X135175330Y-83904667D01*
X135103044Y-83845338D01*
X135085666Y-83820000D01*
X135092379Y-83741981D01*
X135123003Y-83735333D01*
X135209221Y-83796794D01*
X135212666Y-83820000D01*
X135583163Y-83820000D01*
X135711385Y-83601492D01*
X135002655Y-83601492D01*
X134917773Y-83601400D01*
X134877519Y-83591452D01*
X134714691Y-83522378D01*
X134656017Y-83471113D01*
X134659473Y-83404846D01*
X134754702Y-83402665D01*
X134880915Y-83455181D01*
X134953138Y-83517005D01*
X135002655Y-83601492D01*
X135711385Y-83601492D01*
X135835147Y-83390586D01*
X135874390Y-83312000D01*
X134535333Y-83312000D01*
X134466757Y-83387114D01*
X134408333Y-83396667D01*
X134295661Y-83350949D01*
X134281333Y-83312000D01*
X134349910Y-83236885D01*
X134408333Y-83227333D01*
X134521005Y-83273051D01*
X134535333Y-83312000D01*
X135874390Y-83312000D01*
X136076360Y-82907549D01*
X136234476Y-82500491D01*
X136299273Y-82193184D01*
X136298466Y-82118044D01*
X136275261Y-81953244D01*
X136216800Y-81865222D01*
X136078979Y-81826249D01*
X135817691Y-81808595D01*
X135805333Y-81808002D01*
X135339666Y-81785671D01*
X134598833Y-82518071D01*
G36*
X135977127Y-84307762D02*
X135974666Y-84328000D01*
X136039096Y-84410206D01*
X136059333Y-84412667D01*
X136141540Y-84348237D01*
X136144000Y-84328000D01*
X136079571Y-84245793D01*
X136059333Y-84243333D01*
X135977127Y-84307762D01*
X135977127Y-84307762D01*
G37*
X135977127Y-84307762D02*
X135974666Y-84328000D01*
X136039096Y-84410206D01*
X136059333Y-84412667D01*
X136141540Y-84348237D01*
X136144000Y-84328000D01*
X136079571Y-84245793D01*
X136059333Y-84243333D01*
X135977127Y-84307762D01*
G36*
X136498731Y-82688450D02*
X136379969Y-82868988D01*
X136226229Y-83176815D01*
X136223357Y-83183141D01*
X136075341Y-83520906D01*
X135999236Y-83734607D01*
X135990797Y-83851425D01*
X136045783Y-83898540D01*
X136110725Y-83904667D01*
X136207144Y-83956278D01*
X136205011Y-84013524D01*
X136234618Y-84104473D01*
X136316736Y-84122381D01*
X136424244Y-84091917D01*
X136426828Y-84052148D01*
X136438054Y-83938183D01*
X136492545Y-83850431D01*
X136526788Y-83784722D01*
X136398000Y-83784722D01*
X136348646Y-83877440D01*
X136247096Y-83862656D01*
X136163403Y-83751208D01*
X136200252Y-83664842D01*
X136263944Y-83650667D01*
X136380576Y-83718836D01*
X136398000Y-83784722D01*
X136526788Y-83784722D01*
X136554366Y-83731805D01*
X136469682Y-83645207D01*
X136457500Y-83638266D01*
X136350708Y-83529013D01*
X136312605Y-83399245D01*
X136357782Y-83317155D01*
X136387701Y-83312000D01*
X136452635Y-83238217D01*
X136525563Y-83053505D01*
X136548032Y-82973333D01*
X136592474Y-82734347D01*
X136572803Y-82641478D01*
X136498731Y-82688450D01*
X136498731Y-82688450D01*
G37*
X136498731Y-82688450D02*
X136379969Y-82868988D01*
X136226229Y-83176815D01*
X136223357Y-83183141D01*
X136075341Y-83520906D01*
X135999236Y-83734607D01*
X135990797Y-83851425D01*
X136045783Y-83898540D01*
X136110725Y-83904667D01*
X136207144Y-83956278D01*
X136205011Y-84013524D01*
X136234618Y-84104473D01*
X136316736Y-84122381D01*
X136424244Y-84091917D01*
X136426828Y-84052148D01*
X136438054Y-83938183D01*
X136492545Y-83850431D01*
X136526788Y-83784722D01*
X136398000Y-83784722D01*
X136348646Y-83877440D01*
X136247096Y-83862656D01*
X136163403Y-83751208D01*
X136200252Y-83664842D01*
X136263944Y-83650667D01*
X136380576Y-83718836D01*
X136398000Y-83784722D01*
X136526788Y-83784722D01*
X136554366Y-83731805D01*
X136469682Y-83645207D01*
X136457500Y-83638266D01*
X136350708Y-83529013D01*
X136312605Y-83399245D01*
X136357782Y-83317155D01*
X136387701Y-83312000D01*
X136452635Y-83238217D01*
X136525563Y-83053505D01*
X136548032Y-82973333D01*
X136592474Y-82734347D01*
X136572803Y-82641478D01*
X136498731Y-82688450D01*
G36*
X136652041Y-83193857D02*
X136652000Y-83203344D01*
X136613302Y-83360957D01*
X136558049Y-83413872D01*
X136536289Y-83480314D01*
X136616635Y-83569094D01*
X136715754Y-83634754D01*
X136703297Y-83583458D01*
X136695675Y-83435094D01*
X136742723Y-83347036D01*
X136803579Y-83212864D01*
X136750012Y-83122145D01*
X136674268Y-83083147D01*
X136652041Y-83193857D01*
X136652041Y-83193857D01*
G37*
X136652041Y-83193857D02*
X136652000Y-83203344D01*
X136613302Y-83360957D01*
X136558049Y-83413872D01*
X136536289Y-83480314D01*
X136616635Y-83569094D01*
X136715754Y-83634754D01*
X136703297Y-83583458D01*
X136695675Y-83435094D01*
X136742723Y-83347036D01*
X136803579Y-83212864D01*
X136750012Y-83122145D01*
X136674268Y-83083147D01*
X136652041Y-83193857D01*
G36*
X132719417Y-81789934D02*
X132392940Y-81807757D01*
X132153159Y-81836197D01*
X132036613Y-81875469D01*
X132033427Y-81879527D01*
X131917828Y-81931358D01*
X131774430Y-81920247D01*
X131624373Y-81907444D01*
X131574893Y-82004917D01*
X131572000Y-82082720D01*
X131625186Y-82252388D01*
X131763780Y-82293777D01*
X131956332Y-82201159D01*
X132003766Y-82161369D01*
X132167258Y-82075621D01*
X132363738Y-82102670D01*
X132614035Y-82251010D01*
X132938979Y-82529137D01*
X132964541Y-82553196D01*
X133392333Y-82957709D01*
X133923443Y-82478688D01*
X134166270Y-82247674D01*
X134350276Y-82049744D01*
X134445662Y-81917837D01*
X134452610Y-81893833D01*
X134373312Y-81852497D01*
X134161467Y-81820480D01*
X133853614Y-81798000D01*
X133486295Y-81785271D01*
X133096049Y-81782510D01*
X132719417Y-81789934D01*
X132719417Y-81789934D01*
G37*
X132719417Y-81789934D02*
X132392940Y-81807757D01*
X132153159Y-81836197D01*
X132036613Y-81875469D01*
X132033427Y-81879527D01*
X131917828Y-81931358D01*
X131774430Y-81920247D01*
X131624373Y-81907444D01*
X131574893Y-82004917D01*
X131572000Y-82082720D01*
X131625186Y-82252388D01*
X131763780Y-82293777D01*
X131956332Y-82201159D01*
X132003766Y-82161369D01*
X132167258Y-82075621D01*
X132363738Y-82102670D01*
X132614035Y-82251010D01*
X132938979Y-82529137D01*
X132964541Y-82553196D01*
X133392333Y-82957709D01*
X133923443Y-82478688D01*
X134166270Y-82247674D01*
X134350276Y-82049744D01*
X134445662Y-81917837D01*
X134452610Y-81893833D01*
X134373312Y-81852497D01*
X134161467Y-81820480D01*
X133853614Y-81798000D01*
X133486295Y-81785271D01*
X133096049Y-81782510D01*
X132719417Y-81789934D01*
G36*
X142816283Y-68794000D02*
X142928749Y-68951983D01*
X143115490Y-69157883D01*
X143220194Y-69259666D01*
X143651282Y-69666576D01*
X143982195Y-69996531D01*
X144243475Y-70280219D01*
X144293775Y-70338451D01*
X144527217Y-70611900D01*
X144505442Y-76178783D01*
X144483666Y-81745667D01*
X136652000Y-81789691D01*
X136652000Y-82169845D01*
X136660433Y-82396859D01*
X136681763Y-82532784D01*
X136694333Y-82550000D01*
X136723159Y-82475853D01*
X136736521Y-82295294D01*
X136736636Y-82274833D01*
X136736605Y-81999667D01*
X140673636Y-82023271D01*
X144610666Y-82046875D01*
X144610666Y-70482112D01*
X143670050Y-69552223D01*
X143358490Y-69249248D01*
X143101371Y-69008974D01*
X142916384Y-68847113D01*
X142821221Y-68779374D01*
X142816283Y-68794000D01*
X142816283Y-68794000D01*
G37*
X142816283Y-68794000D02*
X142928749Y-68951983D01*
X143115490Y-69157883D01*
X143220194Y-69259666D01*
X143651282Y-69666576D01*
X143982195Y-69996531D01*
X144243475Y-70280219D01*
X144293775Y-70338451D01*
X144527217Y-70611900D01*
X144505442Y-76178783D01*
X144483666Y-81745667D01*
X136652000Y-81789691D01*
X136652000Y-82169845D01*
X136660433Y-82396859D01*
X136681763Y-82532784D01*
X136694333Y-82550000D01*
X136723159Y-82475853D01*
X136736521Y-82295294D01*
X136736636Y-82274833D01*
X136736605Y-81999667D01*
X140673636Y-82023271D01*
X144610666Y-82046875D01*
X144610666Y-70482112D01*
X143670050Y-69552223D01*
X143358490Y-69249248D01*
X143101371Y-69008974D01*
X142916384Y-68847113D01*
X142821221Y-68779374D01*
X142816283Y-68794000D01*
G36*
X140282287Y-82222954D02*
X139470602Y-82226275D01*
X138784027Y-82232596D01*
X138485767Y-82237327D01*
X138349592Y-82241754D01*
X138368252Y-82245788D01*
X138534500Y-82249340D01*
X138841085Y-82252321D01*
X139280760Y-82254639D01*
X139846276Y-82256207D01*
X140530384Y-82256935D01*
X140758333Y-82256976D01*
X141474767Y-82256508D01*
X142073211Y-82255177D01*
X142546643Y-82253072D01*
X142888043Y-82250283D01*
X143090389Y-82246898D01*
X143146660Y-82243007D01*
X143049833Y-82238700D01*
X142792888Y-82234064D01*
X142678694Y-82232564D01*
X141953039Y-82226098D01*
X141132001Y-82222895D01*
X140282287Y-82222954D01*
X140282287Y-82222954D01*
G37*
X140282287Y-82222954D02*
X139470602Y-82226275D01*
X138784027Y-82232596D01*
X138485767Y-82237327D01*
X138349592Y-82241754D01*
X138368252Y-82245788D01*
X138534500Y-82249340D01*
X138841085Y-82252321D01*
X139280760Y-82254639D01*
X139846276Y-82256207D01*
X140530384Y-82256935D01*
X140758333Y-82256976D01*
X141474767Y-82256508D01*
X142073211Y-82255177D01*
X142546643Y-82253072D01*
X142888043Y-82250283D01*
X143090389Y-82246898D01*
X143146660Y-82243007D01*
X143049833Y-82238700D01*
X142792888Y-82234064D01*
X142678694Y-82232564D01*
X141953039Y-82226098D01*
X141132001Y-82222895D01*
X140282287Y-82222954D01*
G36*
X133519333Y-77892271D02*
X133159500Y-78148731D01*
X132919012Y-78334764D01*
X132617755Y-78588081D01*
X132316136Y-78857686D01*
X132281307Y-78890095D01*
X132001516Y-79145628D01*
X131732762Y-79380633D01*
X131525853Y-79550875D01*
X131498140Y-79571939D01*
X131373934Y-79670191D01*
X131296292Y-79767077D01*
X131254276Y-79902992D01*
X131236946Y-80118333D01*
X131233363Y-80453495D01*
X131233333Y-80549839D01*
X131245069Y-80979285D01*
X131278825Y-81278891D01*
X131332424Y-81429744D01*
X131334933Y-81432400D01*
X131398383Y-81454027D01*
X131548524Y-81472658D01*
X131794581Y-81488462D01*
X132145781Y-81501605D01*
X132611351Y-81512256D01*
X133200518Y-81520583D01*
X133922507Y-81526752D01*
X134786546Y-81530933D01*
X135801861Y-81533293D01*
X136922933Y-81534000D01*
X142409333Y-81534000D01*
X142409333Y-80112717D01*
X141302515Y-80112717D01*
X141204559Y-80196974D01*
X141138472Y-80221940D01*
X140998569Y-80308046D01*
X140789440Y-80484244D01*
X140554199Y-80713924D01*
X140533524Y-80735645D01*
X140315315Y-80957372D01*
X140138628Y-81120429D01*
X140037244Y-81193939D01*
X140030610Y-81195333D01*
X139989948Y-81118568D01*
X139954820Y-80919802D01*
X139937058Y-80709323D01*
X139911922Y-80423304D01*
X139865174Y-80266910D01*
X139782751Y-80200599D01*
X139753500Y-80193189D01*
X139613610Y-80233061D01*
X139415960Y-80365240D01*
X139199417Y-80552546D01*
X139002849Y-80757797D01*
X138865122Y-80943814D01*
X138825105Y-81073414D01*
X138826995Y-81079485D01*
X138809206Y-81160129D01*
X138657325Y-81193115D01*
X138566058Y-81195333D01*
X138363012Y-81182228D01*
X138278130Y-81114781D01*
X138260680Y-80950797D01*
X138260666Y-80941333D01*
X138242173Y-80762910D01*
X138197623Y-80687350D01*
X138196892Y-80687333D01*
X138103885Y-80743588D01*
X137949000Y-80884144D01*
X137893381Y-80941333D01*
X137652405Y-81133147D01*
X137389224Y-81195012D01*
X137364490Y-81195333D01*
X137171355Y-81186662D01*
X137077144Y-81165411D01*
X137075333Y-81161642D01*
X137113719Y-81075163D01*
X137211736Y-80891520D01*
X137285980Y-80759475D01*
X137440345Y-80459207D01*
X137489739Y-80274351D01*
X137436469Y-80189305D01*
X137371666Y-80179333D01*
X137258995Y-80133616D01*
X137244666Y-80094667D01*
X136990666Y-80094667D01*
X136927495Y-80176886D01*
X136907721Y-80179333D01*
X136812959Y-80251372D01*
X136699070Y-80429566D01*
X136592675Y-80657036D01*
X136520392Y-80876899D01*
X136508738Y-81031885D01*
X136499909Y-81146489D01*
X136370615Y-81205560D01*
X136283016Y-81219435D01*
X136079342Y-81246849D01*
X135959274Y-81266272D01*
X135958497Y-81266450D01*
X135866854Y-81219789D01*
X135844144Y-81189634D01*
X135864337Y-81098517D01*
X135944981Y-81056905D01*
X136071160Y-80959985D01*
X136216728Y-80760782D01*
X136287795Y-80630201D01*
X136319486Y-80562322D01*
X135874231Y-80562322D01*
X135752282Y-80781261D01*
X135681507Y-80853685D01*
X135297909Y-81141098D01*
X134932958Y-81268209D01*
X134594514Y-81232331D01*
X134584591Y-81228608D01*
X134471602Y-81110754D01*
X134450666Y-81016941D01*
X134477795Y-80880836D01*
X134571059Y-80883308D01*
X134724952Y-81002025D01*
X134856255Y-81095478D01*
X134983087Y-81085594D01*
X135112619Y-81020521D01*
X135291367Y-80851328D01*
X135369024Y-80634065D01*
X135350188Y-80417290D01*
X135239457Y-80249558D01*
X135041429Y-80179424D01*
X135032966Y-80179333D01*
X134898046Y-80226784D01*
X134858770Y-80387172D01*
X134867680Y-80496833D01*
X134803740Y-80575619D01*
X134623711Y-80602667D01*
X134420922Y-80573299D01*
X134376459Y-80487633D01*
X134492205Y-80349327D01*
X134493000Y-80348667D01*
X134600591Y-80204519D01*
X134620000Y-80126633D01*
X134632061Y-80112717D01*
X134275181Y-80112717D01*
X134177226Y-80196974D01*
X134111139Y-80221940D01*
X133971235Y-80308046D01*
X133762106Y-80484244D01*
X133526865Y-80713924D01*
X133506190Y-80735645D01*
X133287350Y-80957473D01*
X133109225Y-81120555D01*
X133005932Y-81193967D01*
X132999052Y-81195333D01*
X132959504Y-81118742D01*
X132933213Y-80921071D01*
X132926666Y-80727009D01*
X132910411Y-80422329D01*
X132857087Y-80256423D01*
X132799666Y-80209951D01*
X132677915Y-80130969D01*
X132707781Y-80061190D01*
X132871712Y-80017197D01*
X133011333Y-80010000D01*
X133246818Y-80030971D01*
X133343853Y-80100488D01*
X133350000Y-80137000D01*
X133423601Y-80239143D01*
X133561666Y-80264000D01*
X133731905Y-80219839D01*
X133773333Y-80137000D01*
X133849061Y-80036174D01*
X134027333Y-80010000D01*
X134221339Y-80040583D01*
X134275181Y-80112717D01*
X134632061Y-80112717D01*
X134692415Y-80043081D01*
X134877103Y-80009124D01*
X135125231Y-80022220D01*
X135387965Y-80079828D01*
X135614833Y-80178405D01*
X135828674Y-80363993D01*
X135874231Y-80562322D01*
X136319486Y-80562322D01*
X136394049Y-80402617D01*
X136427332Y-80283360D01*
X136389795Y-80229000D01*
X136308962Y-80202722D01*
X136158863Y-80138884D01*
X136160761Y-80077039D01*
X136297657Y-80029867D01*
X136552555Y-80010046D01*
X136567333Y-80010000D01*
X136808821Y-80025229D01*
X136962098Y-80064168D01*
X136990666Y-80094667D01*
X137244666Y-80094667D01*
X137320813Y-80046369D01*
X137515509Y-80015714D01*
X137668000Y-80010000D01*
X137909569Y-80016835D01*
X138062837Y-80034310D01*
X138091333Y-80047971D01*
X138039636Y-80129031D01*
X137912804Y-80278314D01*
X137888919Y-80304351D01*
X137737439Y-80499913D01*
X137646673Y-80675684D01*
X137644484Y-80683446D01*
X137650535Y-80797266D01*
X137740730Y-80801301D01*
X137886451Y-80712094D01*
X138059080Y-80546186D01*
X138203493Y-80360321D01*
X138382342Y-80135089D01*
X138506460Y-80069536D01*
X138578028Y-80163861D01*
X138599333Y-80395997D01*
X138616433Y-80604513D01*
X138680332Y-80671314D01*
X138809928Y-80598250D01*
X138980333Y-80433333D01*
X139121400Y-80271276D01*
X139142986Y-80194897D01*
X139080840Y-80179333D01*
X138958352Y-80138089D01*
X138938000Y-80094667D01*
X139017666Y-80053579D01*
X139237097Y-80024436D01*
X139566935Y-80010649D01*
X139666725Y-80010000D01*
X140021390Y-80014257D01*
X140235041Y-80030538D01*
X140335866Y-80064106D01*
X140352049Y-80120227D01*
X140346715Y-80137000D01*
X140354343Y-80229438D01*
X140493294Y-80262865D01*
X140549324Y-80264000D01*
X140749017Y-80225801D01*
X140800666Y-80137000D01*
X140876395Y-80036174D01*
X141054666Y-80010000D01*
X141248672Y-80040583D01*
X141302515Y-80112717D01*
X142409333Y-80112717D01*
X142409333Y-78994000D01*
X140038666Y-78994000D01*
X140021116Y-79257598D01*
X139973388Y-79400904D01*
X139944130Y-79417333D01*
X139885284Y-79346217D01*
X139891331Y-79198993D01*
X139875749Y-79004077D01*
X139764335Y-78919781D01*
X139598281Y-78973887D01*
X139579459Y-78988639D01*
X139454278Y-79039064D01*
X139406207Y-78998111D01*
X139281927Y-78918228D01*
X139218753Y-78909333D01*
X139129548Y-78950881D01*
X139125453Y-79100694D01*
X139134967Y-79153338D01*
X139151485Y-79374738D01*
X139096235Y-79473085D01*
X139014297Y-79454494D01*
X138977504Y-79352114D01*
X138960771Y-79138687D01*
X138962607Y-78991160D01*
X138969045Y-78940277D01*
X138472693Y-78940277D01*
X138375464Y-79098968D01*
X138229133Y-79162037D01*
X138180453Y-79139199D01*
X138198081Y-79125008D01*
X137821435Y-79125008D01*
X137801049Y-79123016D01*
X137694813Y-79048830D01*
X137633618Y-78970124D01*
X137607435Y-78867000D01*
X137033000Y-78867000D01*
X136999532Y-79070809D01*
X136918411Y-79169605D01*
X136818560Y-79135525D01*
X136806846Y-79119700D01*
X135667407Y-79119700D01*
X135650027Y-79422865D01*
X135641090Y-79497767D01*
X135608298Y-79527054D01*
X135552714Y-79442682D01*
X135497422Y-79293994D01*
X135465504Y-79130331D01*
X135464830Y-79121000D01*
X135455768Y-78824667D01*
X135095249Y-78824667D01*
X135090429Y-78877015D01*
X135001000Y-78994000D01*
X134856922Y-79120570D01*
X134760246Y-79163333D01*
X134750670Y-79115718D01*
X134847601Y-79000482D01*
X134854495Y-78994000D01*
X135003389Y-78872170D01*
X135095249Y-78824667D01*
X135455768Y-78824667D01*
X135455364Y-78811478D01*
X135466394Y-78734487D01*
X134937908Y-78734487D01*
X134926327Y-78740000D01*
X134849061Y-78680396D01*
X134831666Y-78655333D01*
X134810092Y-78576179D01*
X134821673Y-78570667D01*
X134898938Y-78630270D01*
X134916333Y-78655333D01*
X134937908Y-78734487D01*
X135466394Y-78734487D01*
X135480072Y-78639022D01*
X135544799Y-78573751D01*
X135572500Y-78570604D01*
X135625205Y-78647085D01*
X135657987Y-78845612D01*
X135667407Y-79119700D01*
X136806846Y-79119700D01*
X136791783Y-79099351D01*
X136771623Y-78962853D01*
X136773656Y-78951667D01*
X136228666Y-78951667D01*
X136182949Y-79064338D01*
X136144000Y-79078667D01*
X136068885Y-79010090D01*
X136059333Y-78951667D01*
X136105051Y-78838995D01*
X136144000Y-78824667D01*
X136219114Y-78893243D01*
X136228666Y-78951667D01*
X136773656Y-78951667D01*
X136805082Y-78778771D01*
X136871219Y-78623333D01*
X136937037Y-78570667D01*
X137000882Y-78645266D01*
X137032263Y-78829863D01*
X137033000Y-78867000D01*
X137607435Y-78867000D01*
X137593459Y-78811957D01*
X137648736Y-78725397D01*
X137724387Y-78682209D01*
X137751317Y-78778958D01*
X137752666Y-78843011D01*
X137774248Y-79021063D01*
X137816166Y-79099833D01*
X137821435Y-79125008D01*
X138198081Y-79125008D01*
X138230964Y-79098537D01*
X138319067Y-78973422D01*
X138364234Y-78824667D01*
X138397587Y-78687126D01*
X138438373Y-78704211D01*
X138466909Y-78762245D01*
X138472693Y-78940277D01*
X138969045Y-78940277D01*
X138998980Y-78703724D01*
X139077586Y-78579623D01*
X139199374Y-78617967D01*
X139276666Y-78697667D01*
X139438101Y-78806086D01*
X139530666Y-78824667D01*
X139708207Y-78763599D01*
X139784666Y-78697667D01*
X139913164Y-78584215D01*
X139994066Y-78619829D01*
X140033040Y-78811120D01*
X140038666Y-78994000D01*
X142409333Y-78994000D01*
X142409333Y-77841617D01*
X140666302Y-77841617D01*
X140632200Y-77951491D01*
X140600187Y-77953907D01*
X140542596Y-77858727D01*
X140496466Y-77647463D01*
X140478316Y-77463345D01*
X140478416Y-77343000D01*
X139869333Y-77343000D01*
X139842999Y-77490137D01*
X139784666Y-77512333D01*
X139705906Y-77389476D01*
X139700636Y-77347997D01*
X139276666Y-77347997D01*
X139247047Y-77504705D01*
X139192000Y-77554667D01*
X139132997Y-77480981D01*
X139132136Y-77474997D01*
X138514666Y-77474997D01*
X138450088Y-77552386D01*
X138430000Y-77554667D01*
X138355695Y-77485751D01*
X138345333Y-77422670D01*
X138382648Y-77343000D01*
X137922000Y-77343000D01*
X137900734Y-77538867D01*
X137848445Y-77636774D01*
X137837333Y-77639333D01*
X137781371Y-77564904D01*
X137753398Y-77381890D01*
X137752666Y-77343000D01*
X137756719Y-77305663D01*
X137160000Y-77305663D01*
X137135023Y-77481833D01*
X137075333Y-77554667D01*
X135847666Y-77554667D01*
X135843796Y-77632810D01*
X135815327Y-77639333D01*
X135695635Y-77577547D01*
X135678333Y-77554667D01*
X135680350Y-77513928D01*
X135005507Y-77513928D01*
X134993557Y-77794053D01*
X134953736Y-77937902D01*
X134920840Y-77951398D01*
X134868870Y-77856988D01*
X134836729Y-77650016D01*
X134831666Y-77512798D01*
X134846104Y-77292417D01*
X134256758Y-77292417D01*
X134218485Y-77465112D01*
X134161606Y-77485015D01*
X134118402Y-77360842D01*
X134112000Y-77253336D01*
X134140435Y-77096610D01*
X134193258Y-77046667D01*
X134245604Y-77119533D01*
X134256758Y-77292417D01*
X134846104Y-77292417D01*
X134847631Y-77269119D01*
X134888250Y-77108035D01*
X134916333Y-77075327D01*
X134965592Y-77135282D01*
X134997465Y-77329046D01*
X135005507Y-77513928D01*
X135680350Y-77513928D01*
X135682203Y-77476523D01*
X135710673Y-77470000D01*
X135830364Y-77531786D01*
X135847666Y-77554667D01*
X137075333Y-77554667D01*
X137019744Y-77480149D01*
X136999323Y-77347202D01*
X136551498Y-77347202D01*
X136538899Y-77421975D01*
X136466855Y-77544187D01*
X136416067Y-77505187D01*
X136398000Y-77326067D01*
X136415019Y-77176035D01*
X136474343Y-77175521D01*
X136493909Y-77193375D01*
X136551498Y-77347202D01*
X136999323Y-77347202D01*
X136991540Y-77296538D01*
X136990666Y-77253336D01*
X137007774Y-77089000D01*
X135805333Y-77089000D01*
X135763000Y-77131333D01*
X135720666Y-77089000D01*
X135763000Y-77046667D01*
X135805333Y-77089000D01*
X137007774Y-77089000D01*
X137010722Y-77060688D01*
X137063776Y-76999414D01*
X137075333Y-77004333D01*
X137136333Y-77118789D01*
X137160000Y-77305663D01*
X137756719Y-77305663D01*
X137773932Y-77147132D01*
X137826222Y-77049226D01*
X137837333Y-77046667D01*
X137893295Y-77121095D01*
X137921269Y-77304110D01*
X137922000Y-77343000D01*
X138382648Y-77343000D01*
X138386379Y-77335035D01*
X138430000Y-77343000D01*
X138511437Y-77451243D01*
X138514666Y-77474997D01*
X139132136Y-77474997D01*
X139107367Y-77302962D01*
X139107333Y-77295670D01*
X139130263Y-77126413D01*
X139189095Y-77087330D01*
X139192000Y-77089000D01*
X139257539Y-77205707D01*
X139276666Y-77347997D01*
X139700636Y-77347997D01*
X139700000Y-77343000D01*
X139753677Y-77200981D01*
X139784666Y-77173667D01*
X139847084Y-77204034D01*
X139869333Y-77343000D01*
X140478416Y-77343000D01*
X140478536Y-77199263D01*
X140509504Y-77090043D01*
X140558123Y-77126990D01*
X140611295Y-77301407D01*
X140653370Y-77579562D01*
X140666302Y-77841617D01*
X142409333Y-77841617D01*
X142409333Y-76030667D01*
X133519333Y-76030667D01*
X133519333Y-77892271D01*
X133519333Y-77892271D01*
G37*
X133519333Y-77892271D02*
X133159500Y-78148731D01*
X132919012Y-78334764D01*
X132617755Y-78588081D01*
X132316136Y-78857686D01*
X132281307Y-78890095D01*
X132001516Y-79145628D01*
X131732762Y-79380633D01*
X131525853Y-79550875D01*
X131498140Y-79571939D01*
X131373934Y-79670191D01*
X131296292Y-79767077D01*
X131254276Y-79902992D01*
X131236946Y-80118333D01*
X131233363Y-80453495D01*
X131233333Y-80549839D01*
X131245069Y-80979285D01*
X131278825Y-81278891D01*
X131332424Y-81429744D01*
X131334933Y-81432400D01*
X131398383Y-81454027D01*
X131548524Y-81472658D01*
X131794581Y-81488462D01*
X132145781Y-81501605D01*
X132611351Y-81512256D01*
X133200518Y-81520583D01*
X133922507Y-81526752D01*
X134786546Y-81530933D01*
X135801861Y-81533293D01*
X136922933Y-81534000D01*
X142409333Y-81534000D01*
X142409333Y-80112717D01*
X141302515Y-80112717D01*
X141204559Y-80196974D01*
X141138472Y-80221940D01*
X140998569Y-80308046D01*
X140789440Y-80484244D01*
X140554199Y-80713924D01*
X140533524Y-80735645D01*
X140315315Y-80957372D01*
X140138628Y-81120429D01*
X140037244Y-81193939D01*
X140030610Y-81195333D01*
X139989948Y-81118568D01*
X139954820Y-80919802D01*
X139937058Y-80709323D01*
X139911922Y-80423304D01*
X139865174Y-80266910D01*
X139782751Y-80200599D01*
X139753500Y-80193189D01*
X139613610Y-80233061D01*
X139415960Y-80365240D01*
X139199417Y-80552546D01*
X139002849Y-80757797D01*
X138865122Y-80943814D01*
X138825105Y-81073414D01*
X138826995Y-81079485D01*
X138809206Y-81160129D01*
X138657325Y-81193115D01*
X138566058Y-81195333D01*
X138363012Y-81182228D01*
X138278130Y-81114781D01*
X138260680Y-80950797D01*
X138260666Y-80941333D01*
X138242173Y-80762910D01*
X138197623Y-80687350D01*
X138196892Y-80687333D01*
X138103885Y-80743588D01*
X137949000Y-80884144D01*
X137893381Y-80941333D01*
X137652405Y-81133147D01*
X137389224Y-81195012D01*
X137364490Y-81195333D01*
X137171355Y-81186662D01*
X137077144Y-81165411D01*
X137075333Y-81161642D01*
X137113719Y-81075163D01*
X137211736Y-80891520D01*
X137285980Y-80759475D01*
X137440345Y-80459207D01*
X137489739Y-80274351D01*
X137436469Y-80189305D01*
X137371666Y-80179333D01*
X137258995Y-80133616D01*
X137244666Y-80094667D01*
X136990666Y-80094667D01*
X136927495Y-80176886D01*
X136907721Y-80179333D01*
X136812959Y-80251372D01*
X136699070Y-80429566D01*
X136592675Y-80657036D01*
X136520392Y-80876899D01*
X136508738Y-81031885D01*
X136499909Y-81146489D01*
X136370615Y-81205560D01*
X136283016Y-81219435D01*
X136079342Y-81246849D01*
X135959274Y-81266272D01*
X135958497Y-81266450D01*
X135866854Y-81219789D01*
X135844144Y-81189634D01*
X135864337Y-81098517D01*
X135944981Y-81056905D01*
X136071160Y-80959985D01*
X136216728Y-80760782D01*
X136287795Y-80630201D01*
X136319486Y-80562322D01*
X135874231Y-80562322D01*
X135752282Y-80781261D01*
X135681507Y-80853685D01*
X135297909Y-81141098D01*
X134932958Y-81268209D01*
X134594514Y-81232331D01*
X134584591Y-81228608D01*
X134471602Y-81110754D01*
X134450666Y-81016941D01*
X134477795Y-80880836D01*
X134571059Y-80883308D01*
X134724952Y-81002025D01*
X134856255Y-81095478D01*
X134983087Y-81085594D01*
X135112619Y-81020521D01*
X135291367Y-80851328D01*
X135369024Y-80634065D01*
X135350188Y-80417290D01*
X135239457Y-80249558D01*
X135041429Y-80179424D01*
X135032966Y-80179333D01*
X134898046Y-80226784D01*
X134858770Y-80387172D01*
X134867680Y-80496833D01*
X134803740Y-80575619D01*
X134623711Y-80602667D01*
X134420922Y-80573299D01*
X134376459Y-80487633D01*
X134492205Y-80349327D01*
X134493000Y-80348667D01*
X134600591Y-80204519D01*
X134620000Y-80126633D01*
X134632061Y-80112717D01*
X134275181Y-80112717D01*
X134177226Y-80196974D01*
X134111139Y-80221940D01*
X133971235Y-80308046D01*
X133762106Y-80484244D01*
X133526865Y-80713924D01*
X133506190Y-80735645D01*
X133287350Y-80957473D01*
X133109225Y-81120555D01*
X133005932Y-81193967D01*
X132999052Y-81195333D01*
X132959504Y-81118742D01*
X132933213Y-80921071D01*
X132926666Y-80727009D01*
X132910411Y-80422329D01*
X132857087Y-80256423D01*
X132799666Y-80209951D01*
X132677915Y-80130969D01*
X132707781Y-80061190D01*
X132871712Y-80017197D01*
X133011333Y-80010000D01*
X133246818Y-80030971D01*
X133343853Y-80100488D01*
X133350000Y-80137000D01*
X133423601Y-80239143D01*
X133561666Y-80264000D01*
X133731905Y-80219839D01*
X133773333Y-80137000D01*
X133849061Y-80036174D01*
X134027333Y-80010000D01*
X134221339Y-80040583D01*
X134275181Y-80112717D01*
X134632061Y-80112717D01*
X134692415Y-80043081D01*
X134877103Y-80009124D01*
X135125231Y-80022220D01*
X135387965Y-80079828D01*
X135614833Y-80178405D01*
X135828674Y-80363993D01*
X135874231Y-80562322D01*
X136319486Y-80562322D01*
X136394049Y-80402617D01*
X136427332Y-80283360D01*
X136389795Y-80229000D01*
X136308962Y-80202722D01*
X136158863Y-80138884D01*
X136160761Y-80077039D01*
X136297657Y-80029867D01*
X136552555Y-80010046D01*
X136567333Y-80010000D01*
X136808821Y-80025229D01*
X136962098Y-80064168D01*
X136990666Y-80094667D01*
X137244666Y-80094667D01*
X137320813Y-80046369D01*
X137515509Y-80015714D01*
X137668000Y-80010000D01*
X137909569Y-80016835D01*
X138062837Y-80034310D01*
X138091333Y-80047971D01*
X138039636Y-80129031D01*
X137912804Y-80278314D01*
X137888919Y-80304351D01*
X137737439Y-80499913D01*
X137646673Y-80675684D01*
X137644484Y-80683446D01*
X137650535Y-80797266D01*
X137740730Y-80801301D01*
X137886451Y-80712094D01*
X138059080Y-80546186D01*
X138203493Y-80360321D01*
X138382342Y-80135089D01*
X138506460Y-80069536D01*
X138578028Y-80163861D01*
X138599333Y-80395997D01*
X138616433Y-80604513D01*
X138680332Y-80671314D01*
X138809928Y-80598250D01*
X138980333Y-80433333D01*
X139121400Y-80271276D01*
X139142986Y-80194897D01*
X139080840Y-80179333D01*
X138958352Y-80138089D01*
X138938000Y-80094667D01*
X139017666Y-80053579D01*
X139237097Y-80024436D01*
X139566935Y-80010649D01*
X139666725Y-80010000D01*
X140021390Y-80014257D01*
X140235041Y-80030538D01*
X140335866Y-80064106D01*
X140352049Y-80120227D01*
X140346715Y-80137000D01*
X140354343Y-80229438D01*
X140493294Y-80262865D01*
X140549324Y-80264000D01*
X140749017Y-80225801D01*
X140800666Y-80137000D01*
X140876395Y-80036174D01*
X141054666Y-80010000D01*
X141248672Y-80040583D01*
X141302515Y-80112717D01*
X142409333Y-80112717D01*
X142409333Y-78994000D01*
X140038666Y-78994000D01*
X140021116Y-79257598D01*
X139973388Y-79400904D01*
X139944130Y-79417333D01*
X139885284Y-79346217D01*
X139891331Y-79198993D01*
X139875749Y-79004077D01*
X139764335Y-78919781D01*
X139598281Y-78973887D01*
X139579459Y-78988639D01*
X139454278Y-79039064D01*
X139406207Y-78998111D01*
X139281927Y-78918228D01*
X139218753Y-78909333D01*
X139129548Y-78950881D01*
X139125453Y-79100694D01*
X139134967Y-79153338D01*
X139151485Y-79374738D01*
X139096235Y-79473085D01*
X139014297Y-79454494D01*
X138977504Y-79352114D01*
X138960771Y-79138687D01*
X138962607Y-78991160D01*
X138969045Y-78940277D01*
X138472693Y-78940277D01*
X138375464Y-79098968D01*
X138229133Y-79162037D01*
X138180453Y-79139199D01*
X138198081Y-79125008D01*
X137821435Y-79125008D01*
X137801049Y-79123016D01*
X137694813Y-79048830D01*
X137633618Y-78970124D01*
X137607435Y-78867000D01*
X137033000Y-78867000D01*
X136999532Y-79070809D01*
X136918411Y-79169605D01*
X136818560Y-79135525D01*
X136806846Y-79119700D01*
X135667407Y-79119700D01*
X135650027Y-79422865D01*
X135641090Y-79497767D01*
X135608298Y-79527054D01*
X135552714Y-79442682D01*
X135497422Y-79293994D01*
X135465504Y-79130331D01*
X135464830Y-79121000D01*
X135455768Y-78824667D01*
X135095249Y-78824667D01*
X135090429Y-78877015D01*
X135001000Y-78994000D01*
X134856922Y-79120570D01*
X134760246Y-79163333D01*
X134750670Y-79115718D01*
X134847601Y-79000482D01*
X134854495Y-78994000D01*
X135003389Y-78872170D01*
X135095249Y-78824667D01*
X135455768Y-78824667D01*
X135455364Y-78811478D01*
X135466394Y-78734487D01*
X134937908Y-78734487D01*
X134926327Y-78740000D01*
X134849061Y-78680396D01*
X134831666Y-78655333D01*
X134810092Y-78576179D01*
X134821673Y-78570667D01*
X134898938Y-78630270D01*
X134916333Y-78655333D01*
X134937908Y-78734487D01*
X135466394Y-78734487D01*
X135480072Y-78639022D01*
X135544799Y-78573751D01*
X135572500Y-78570604D01*
X135625205Y-78647085D01*
X135657987Y-78845612D01*
X135667407Y-79119700D01*
X136806846Y-79119700D01*
X136791783Y-79099351D01*
X136771623Y-78962853D01*
X136773656Y-78951667D01*
X136228666Y-78951667D01*
X136182949Y-79064338D01*
X136144000Y-79078667D01*
X136068885Y-79010090D01*
X136059333Y-78951667D01*
X136105051Y-78838995D01*
X136144000Y-78824667D01*
X136219114Y-78893243D01*
X136228666Y-78951667D01*
X136773656Y-78951667D01*
X136805082Y-78778771D01*
X136871219Y-78623333D01*
X136937037Y-78570667D01*
X137000882Y-78645266D01*
X137032263Y-78829863D01*
X137033000Y-78867000D01*
X137607435Y-78867000D01*
X137593459Y-78811957D01*
X137648736Y-78725397D01*
X137724387Y-78682209D01*
X137751317Y-78778958D01*
X137752666Y-78843011D01*
X137774248Y-79021063D01*
X137816166Y-79099833D01*
X137821435Y-79125008D01*
X138198081Y-79125008D01*
X138230964Y-79098537D01*
X138319067Y-78973422D01*
X138364234Y-78824667D01*
X138397587Y-78687126D01*
X138438373Y-78704211D01*
X138466909Y-78762245D01*
X138472693Y-78940277D01*
X138969045Y-78940277D01*
X138998980Y-78703724D01*
X139077586Y-78579623D01*
X139199374Y-78617967D01*
X139276666Y-78697667D01*
X139438101Y-78806086D01*
X139530666Y-78824667D01*
X139708207Y-78763599D01*
X139784666Y-78697667D01*
X139913164Y-78584215D01*
X139994066Y-78619829D01*
X140033040Y-78811120D01*
X140038666Y-78994000D01*
X142409333Y-78994000D01*
X142409333Y-77841617D01*
X140666302Y-77841617D01*
X140632200Y-77951491D01*
X140600187Y-77953907D01*
X140542596Y-77858727D01*
X140496466Y-77647463D01*
X140478316Y-77463345D01*
X140478416Y-77343000D01*
X139869333Y-77343000D01*
X139842999Y-77490137D01*
X139784666Y-77512333D01*
X139705906Y-77389476D01*
X139700636Y-77347997D01*
X139276666Y-77347997D01*
X139247047Y-77504705D01*
X139192000Y-77554667D01*
X139132997Y-77480981D01*
X139132136Y-77474997D01*
X138514666Y-77474997D01*
X138450088Y-77552386D01*
X138430000Y-77554667D01*
X138355695Y-77485751D01*
X138345333Y-77422670D01*
X138382648Y-77343000D01*
X137922000Y-77343000D01*
X137900734Y-77538867D01*
X137848445Y-77636774D01*
X137837333Y-77639333D01*
X137781371Y-77564904D01*
X137753398Y-77381890D01*
X137752666Y-77343000D01*
X137756719Y-77305663D01*
X137160000Y-77305663D01*
X137135023Y-77481833D01*
X137075333Y-77554667D01*
X135847666Y-77554667D01*
X135843796Y-77632810D01*
X135815327Y-77639333D01*
X135695635Y-77577547D01*
X135678333Y-77554667D01*
X135680350Y-77513928D01*
X135005507Y-77513928D01*
X134993557Y-77794053D01*
X134953736Y-77937902D01*
X134920840Y-77951398D01*
X134868870Y-77856988D01*
X134836729Y-77650016D01*
X134831666Y-77512798D01*
X134846104Y-77292417D01*
X134256758Y-77292417D01*
X134218485Y-77465112D01*
X134161606Y-77485015D01*
X134118402Y-77360842D01*
X134112000Y-77253336D01*
X134140435Y-77096610D01*
X134193258Y-77046667D01*
X134245604Y-77119533D01*
X134256758Y-77292417D01*
X134846104Y-77292417D01*
X134847631Y-77269119D01*
X134888250Y-77108035D01*
X134916333Y-77075327D01*
X134965592Y-77135282D01*
X134997465Y-77329046D01*
X135005507Y-77513928D01*
X135680350Y-77513928D01*
X135682203Y-77476523D01*
X135710673Y-77470000D01*
X135830364Y-77531786D01*
X135847666Y-77554667D01*
X137075333Y-77554667D01*
X137019744Y-77480149D01*
X136999323Y-77347202D01*
X136551498Y-77347202D01*
X136538899Y-77421975D01*
X136466855Y-77544187D01*
X136416067Y-77505187D01*
X136398000Y-77326067D01*
X136415019Y-77176035D01*
X136474343Y-77175521D01*
X136493909Y-77193375D01*
X136551498Y-77347202D01*
X136999323Y-77347202D01*
X136991540Y-77296538D01*
X136990666Y-77253336D01*
X137007774Y-77089000D01*
X135805333Y-77089000D01*
X135763000Y-77131333D01*
X135720666Y-77089000D01*
X135763000Y-77046667D01*
X135805333Y-77089000D01*
X137007774Y-77089000D01*
X137010722Y-77060688D01*
X137063776Y-76999414D01*
X137075333Y-77004333D01*
X137136333Y-77118789D01*
X137160000Y-77305663D01*
X137756719Y-77305663D01*
X137773932Y-77147132D01*
X137826222Y-77049226D01*
X137837333Y-77046667D01*
X137893295Y-77121095D01*
X137921269Y-77304110D01*
X137922000Y-77343000D01*
X138382648Y-77343000D01*
X138386379Y-77335035D01*
X138430000Y-77343000D01*
X138511437Y-77451243D01*
X138514666Y-77474997D01*
X139132136Y-77474997D01*
X139107367Y-77302962D01*
X139107333Y-77295670D01*
X139130263Y-77126413D01*
X139189095Y-77087330D01*
X139192000Y-77089000D01*
X139257539Y-77205707D01*
X139276666Y-77347997D01*
X139700636Y-77347997D01*
X139700000Y-77343000D01*
X139753677Y-77200981D01*
X139784666Y-77173667D01*
X139847084Y-77204034D01*
X139869333Y-77343000D01*
X140478416Y-77343000D01*
X140478536Y-77199263D01*
X140509504Y-77090043D01*
X140558123Y-77126990D01*
X140611295Y-77301407D01*
X140653370Y-77579562D01*
X140666302Y-77841617D01*
X142409333Y-77841617D01*
X142409333Y-76030667D01*
X133519333Y-76030667D01*
X133519333Y-77892271D01*
G36*
X140866251Y-70442667D02*
X140879019Y-71075192D01*
X140891876Y-71546903D01*
X140904530Y-71856622D01*
X140916686Y-72003167D01*
X140928053Y-71985360D01*
X140938336Y-71802021D01*
X140947241Y-71451970D01*
X140954475Y-70934028D01*
X140955767Y-70802500D01*
X140970000Y-69257333D01*
X142455405Y-69257333D01*
X143152036Y-69957602D01*
X143848667Y-70657870D01*
X143848667Y-75968935D01*
X143848666Y-81280000D01*
X143086666Y-81280000D01*
X143069095Y-78464833D01*
X143064364Y-77833038D01*
X143058755Y-77293105D01*
X143052535Y-76858167D01*
X143045969Y-76541360D01*
X143039325Y-76355818D01*
X143032868Y-76314673D01*
X143027447Y-76411667D01*
X143019738Y-76714970D01*
X143011159Y-77152974D01*
X143002256Y-77691050D01*
X142993580Y-78294571D01*
X142985678Y-78928909D01*
X142981519Y-79311575D01*
X142959666Y-81449484D01*
X143975666Y-81449334D01*
X143938354Y-70583918D01*
X143218891Y-69861214D01*
X142499427Y-69138509D01*
X141671214Y-69134421D01*
X140843000Y-69130333D01*
X140866251Y-70442667D01*
X140866251Y-70442667D01*
G37*
X140866251Y-70442667D02*
X140879019Y-71075192D01*
X140891876Y-71546903D01*
X140904530Y-71856622D01*
X140916686Y-72003167D01*
X140928053Y-71985360D01*
X140938336Y-71802021D01*
X140947241Y-71451970D01*
X140954475Y-70934028D01*
X140955767Y-70802500D01*
X140970000Y-69257333D01*
X142455405Y-69257333D01*
X143152036Y-69957602D01*
X143848667Y-70657870D01*
X143848667Y-75968935D01*
X143848666Y-81280000D01*
X143086666Y-81280000D01*
X143069095Y-78464833D01*
X143064364Y-77833038D01*
X143058755Y-77293105D01*
X143052535Y-76858167D01*
X143045969Y-76541360D01*
X143039325Y-76355818D01*
X143032868Y-76314673D01*
X143027447Y-76411667D01*
X143019738Y-76714970D01*
X143011159Y-77152974D01*
X143002256Y-77691050D01*
X142993580Y-78294571D01*
X142985678Y-78928909D01*
X142981519Y-79311575D01*
X142959666Y-81449484D01*
X143975666Y-81449334D01*
X143938354Y-70583918D01*
X143218891Y-69861214D01*
X142499427Y-69138509D01*
X141671214Y-69134421D01*
X140843000Y-69130333D01*
X140866251Y-70442667D01*
G36*
X125423115Y-77863020D02*
X125442559Y-77907721D01*
X125446720Y-77970892D01*
X125358492Y-77951024D01*
X125260187Y-77938065D01*
X125263024Y-77975881D01*
X125245428Y-78080861D01*
X125144766Y-78221265D01*
X125014795Y-78338474D01*
X124909273Y-78373865D01*
X124901412Y-78370213D01*
X124852566Y-78412973D01*
X124828101Y-78547518D01*
X124776676Y-78739042D01*
X124701101Y-78834430D01*
X124633962Y-78894639D01*
X124695490Y-78908037D01*
X124811937Y-78840051D01*
X124857209Y-78761167D01*
X124944670Y-78623472D01*
X125115112Y-78422219D01*
X125271406Y-78260799D01*
X125489145Y-78028044D01*
X125571763Y-77882804D01*
X125523071Y-77815786D01*
X125456892Y-77808667D01*
X125423115Y-77863020D01*
X125423115Y-77863020D01*
G37*
X125423115Y-77863020D02*
X125442559Y-77907721D01*
X125446720Y-77970892D01*
X125358492Y-77951024D01*
X125260187Y-77938065D01*
X125263024Y-77975881D01*
X125245428Y-78080861D01*
X125144766Y-78221265D01*
X125014795Y-78338474D01*
X124909273Y-78373865D01*
X124901412Y-78370213D01*
X124852566Y-78412973D01*
X124828101Y-78547518D01*
X124776676Y-78739042D01*
X124701101Y-78834430D01*
X124633962Y-78894639D01*
X124695490Y-78908037D01*
X124811937Y-78840051D01*
X124857209Y-78761167D01*
X124944670Y-78623472D01*
X125115112Y-78422219D01*
X125271406Y-78260799D01*
X125489145Y-78028044D01*
X125571763Y-77882804D01*
X125523071Y-77815786D01*
X125456892Y-77808667D01*
X125423115Y-77863020D01*
G36*
X126047557Y-77928537D02*
X125872687Y-78006654D01*
X125814666Y-78031528D01*
X125699684Y-78113032D01*
X125539599Y-78264081D01*
X125367297Y-78447708D01*
X125215659Y-78626946D01*
X125117571Y-78764828D01*
X125105915Y-78824386D01*
X125109148Y-78824667D01*
X125207209Y-78768453D01*
X125377182Y-78623580D01*
X125518333Y-78486000D01*
X125717643Y-78299134D01*
X125881121Y-78176134D01*
X125949791Y-78147333D01*
X126063667Y-78079092D01*
X126101999Y-78013258D01*
X126107182Y-77919133D01*
X126047557Y-77928537D01*
X126047557Y-77928537D01*
G37*
X126047557Y-77928537D02*
X125872687Y-78006654D01*
X125814666Y-78031528D01*
X125699684Y-78113032D01*
X125539599Y-78264081D01*
X125367297Y-78447708D01*
X125215659Y-78626946D01*
X125117571Y-78764828D01*
X125105915Y-78824386D01*
X125109148Y-78824667D01*
X125207209Y-78768453D01*
X125377182Y-78623580D01*
X125518333Y-78486000D01*
X125717643Y-78299134D01*
X125881121Y-78176134D01*
X125949791Y-78147333D01*
X126063667Y-78079092D01*
X126101999Y-78013258D01*
X126107182Y-77919133D01*
X126047557Y-77928537D01*
G36*
X130385746Y-69143836D02*
X128945598Y-69157340D01*
X128925299Y-73525346D01*
X128921807Y-74628550D01*
X128922285Y-75575010D01*
X128926706Y-76362731D01*
X128935038Y-76989718D01*
X128947254Y-77453976D01*
X128963323Y-77753508D01*
X128983217Y-77886321D01*
X128989666Y-77893367D01*
X129011033Y-77809159D01*
X129029391Y-77558295D01*
X129044687Y-77143424D01*
X129056871Y-76567199D01*
X129065888Y-75832269D01*
X129071688Y-74941286D01*
X129074218Y-73896900D01*
X129074333Y-73596525D01*
X129074333Y-69299667D01*
X130450166Y-69276403D01*
X130911336Y-69265035D01*
X131306754Y-69248477D01*
X131608303Y-69228460D01*
X131787867Y-69206712D01*
X131825947Y-69191736D01*
X131745857Y-69172343D01*
X131523942Y-69157056D01*
X131187680Y-69146788D01*
X130764549Y-69142454D01*
X130385746Y-69143836D01*
X130385746Y-69143836D01*
G37*
X130385746Y-69143836D02*
X128945598Y-69157340D01*
X128925299Y-73525346D01*
X128921807Y-74628550D01*
X128922285Y-75575010D01*
X128926706Y-76362731D01*
X128935038Y-76989718D01*
X128947254Y-77453976D01*
X128963323Y-77753508D01*
X128983217Y-77886321D01*
X128989666Y-77893367D01*
X129011033Y-77809159D01*
X129029391Y-77558295D01*
X129044687Y-77143424D01*
X129056871Y-76567199D01*
X129065888Y-75832269D01*
X129071688Y-74941286D01*
X129074218Y-73896900D01*
X129074333Y-73596525D01*
X129074333Y-69299667D01*
X130450166Y-69276403D01*
X130911336Y-69265035D01*
X131306754Y-69248477D01*
X131608303Y-69228460D01*
X131787867Y-69206712D01*
X131825947Y-69191736D01*
X131745857Y-69172343D01*
X131523942Y-69157056D01*
X131187680Y-69146788D01*
X130764549Y-69142454D01*
X130385746Y-69143836D01*
G36*
X125673555Y-77752222D02*
X125685178Y-77802556D01*
X125730000Y-77808667D01*
X125799690Y-77777688D01*
X125786444Y-77752222D01*
X125685965Y-77742089D01*
X125673555Y-77752222D01*
X125673555Y-77752222D01*
G37*
X125673555Y-77752222D02*
X125685178Y-77802556D01*
X125730000Y-77808667D01*
X125799690Y-77777688D01*
X125786444Y-77752222D01*
X125685965Y-77742089D01*
X125673555Y-77752222D01*
G36*
X126068666Y-77681667D02*
X126111000Y-77724000D01*
X126153333Y-77681667D01*
X126111000Y-77639333D01*
X126068666Y-77681667D01*
X126068666Y-77681667D01*
G37*
X126068666Y-77681667D02*
X126111000Y-77724000D01*
X126153333Y-77681667D01*
X126111000Y-77639333D01*
X126068666Y-77681667D01*
G36*
X125899333Y-77681667D02*
X125941666Y-77724000D01*
X125984000Y-77681667D01*
X125941666Y-77639333D01*
X125899333Y-77681667D01*
X125899333Y-77681667D01*
G37*
X125899333Y-77681667D02*
X125941666Y-77724000D01*
X125984000Y-77681667D01*
X125941666Y-77639333D01*
X125899333Y-77681667D01*
G36*
X129302154Y-77514204D02*
X129286000Y-77554667D01*
X129346767Y-77636910D01*
X129365670Y-77639333D01*
X129480337Y-77577789D01*
X129497666Y-77554667D01*
X129478473Y-77482183D01*
X129417997Y-77470000D01*
X129302154Y-77514204D01*
X129302154Y-77514204D01*
G37*
X129302154Y-77514204D02*
X129286000Y-77554667D01*
X129346767Y-77636910D01*
X129365670Y-77639333D01*
X129480337Y-77577789D01*
X129497666Y-77554667D01*
X129478473Y-77482183D01*
X129417997Y-77470000D01*
X129302154Y-77514204D01*
G36*
X126330302Y-77487632D02*
X126340679Y-77566371D01*
X126387311Y-77630105D01*
X126442643Y-77566030D01*
X126473711Y-77441385D01*
X126458145Y-77407922D01*
X126374445Y-77394019D01*
X126330302Y-77487632D01*
X126330302Y-77487632D01*
G37*
X126330302Y-77487632D02*
X126340679Y-77566371D01*
X126387311Y-77630105D01*
X126442643Y-77566030D01*
X126473711Y-77441385D01*
X126458145Y-77407922D01*
X126374445Y-77394019D01*
X126330302Y-77487632D01*
G36*
X129722415Y-77250248D02*
X129631521Y-77335499D01*
X129650167Y-77384509D01*
X129662003Y-77385333D01*
X129733616Y-77325196D01*
X129759751Y-77287585D01*
X129769731Y-77229648D01*
X129722415Y-77250248D01*
X129722415Y-77250248D01*
G37*
X129722415Y-77250248D02*
X129631521Y-77335499D01*
X129650167Y-77384509D01*
X129662003Y-77385333D01*
X129733616Y-77325196D01*
X129759751Y-77287585D01*
X129769731Y-77229648D01*
X129722415Y-77250248D01*
G36*
X126142998Y-77074183D02*
X126086906Y-77214480D01*
X126092779Y-77268335D01*
X126150532Y-77238150D01*
X126185207Y-77170393D01*
X126233176Y-77009626D01*
X126213481Y-76977551D01*
X126142998Y-77074183D01*
X126142998Y-77074183D01*
G37*
X126142998Y-77074183D02*
X126086906Y-77214480D01*
X126092779Y-77268335D01*
X126150532Y-77238150D01*
X126185207Y-77170393D01*
X126233176Y-77009626D01*
X126213481Y-76977551D01*
X126142998Y-77074183D01*
G36*
X126570026Y-76888904D02*
X126525697Y-76948636D01*
X126441190Y-77102778D01*
X126434171Y-77186393D01*
X126501522Y-77158050D01*
X126569807Y-77059484D01*
X126650115Y-76880798D01*
X126647969Y-76818362D01*
X126570026Y-76888904D01*
X126570026Y-76888904D01*
G37*
X126570026Y-76888904D02*
X126525697Y-76948636D01*
X126441190Y-77102778D01*
X126434171Y-77186393D01*
X126501522Y-77158050D01*
X126569807Y-77059484D01*
X126650115Y-76880798D01*
X126647969Y-76818362D01*
X126570026Y-76888904D01*
G36*
X129980252Y-75899728D02*
X129956851Y-76196419D01*
X129940278Y-76475167D01*
X129930460Y-76854788D01*
X129952199Y-77071867D01*
X129997216Y-77131531D01*
X130045193Y-77054441D01*
X130066062Y-76819780D01*
X130060213Y-76422849D01*
X130058891Y-76390697D01*
X130039857Y-76017448D01*
X130020946Y-75810819D01*
X130001347Y-75771387D01*
X129980252Y-75899728D01*
X129980252Y-75899728D01*
G37*
X129980252Y-75899728D02*
X129956851Y-76196419D01*
X129940278Y-76475167D01*
X129930460Y-76854788D01*
X129952199Y-77071867D01*
X129997216Y-77131531D01*
X130045193Y-77054441D01*
X130066062Y-76819780D01*
X130060213Y-76422849D01*
X130058891Y-76390697D01*
X130039857Y-76017448D01*
X130020946Y-75810819D01*
X130001347Y-75771387D01*
X129980252Y-75899728D01*
G36*
X126196266Y-76793636D02*
X126286822Y-76863822D01*
X126383867Y-76875600D01*
X126407333Y-76844058D01*
X126340920Y-76789682D01*
X126275936Y-76760361D01*
X126188536Y-76754444D01*
X126196266Y-76793636D01*
X126196266Y-76793636D01*
G37*
X126196266Y-76793636D02*
X126286822Y-76863822D01*
X126383867Y-76875600D01*
X126407333Y-76844058D01*
X126340920Y-76789682D01*
X126275936Y-76760361D01*
X126188536Y-76754444D01*
X126196266Y-76793636D01*
G36*
X127126112Y-75861430D02*
X126927720Y-76069332D01*
X126804334Y-76359869D01*
X126797287Y-76393714D01*
X126770320Y-76594801D01*
X126776850Y-76702359D01*
X126784497Y-76708000D01*
X126829502Y-76642712D01*
X126830666Y-76623977D01*
X126888451Y-76496830D01*
X127046497Y-76283579D01*
X127281848Y-76014270D01*
X127359833Y-75931488D01*
X127459227Y-75817587D01*
X127438500Y-75781265D01*
X127359833Y-75779483D01*
X127126112Y-75861430D01*
X127126112Y-75861430D01*
G37*
X127126112Y-75861430D02*
X126927720Y-76069332D01*
X126804334Y-76359869D01*
X126797287Y-76393714D01*
X126770320Y-76594801D01*
X126776850Y-76702359D01*
X126784497Y-76708000D01*
X126829502Y-76642712D01*
X126830666Y-76623977D01*
X126888451Y-76496830D01*
X127046497Y-76283579D01*
X127281848Y-76014270D01*
X127359833Y-75931488D01*
X127459227Y-75817587D01*
X127438500Y-75781265D01*
X127359833Y-75779483D01*
X127126112Y-75861430D01*
G36*
X130677215Y-76080275D02*
X130640666Y-76242333D01*
X130672598Y-76418168D01*
X130768267Y-76437142D01*
X130877733Y-76352400D01*
X130973076Y-76191255D01*
X130935412Y-76069093D01*
X130810000Y-76030667D01*
X130677215Y-76080275D01*
X130677215Y-76080275D01*
G37*
X130677215Y-76080275D02*
X130640666Y-76242333D01*
X130672598Y-76418168D01*
X130768267Y-76437142D01*
X130877733Y-76352400D01*
X130973076Y-76191255D01*
X130935412Y-76069093D01*
X130810000Y-76030667D01*
X130677215Y-76080275D01*
G36*
X126845065Y-75662320D02*
X126735123Y-75811503D01*
X126637068Y-76016810D01*
X126567932Y-76226691D01*
X126544746Y-76389599D01*
X126583491Y-76454000D01*
X126644168Y-76382167D01*
X126661333Y-76262635D01*
X126717136Y-76075490D01*
X126854189Y-75864765D01*
X126881567Y-75833757D01*
X127017479Y-75658713D01*
X127052212Y-75556176D01*
X126991045Y-75550947D01*
X126845065Y-75662320D01*
X126845065Y-75662320D01*
G37*
X126845065Y-75662320D02*
X126735123Y-75811503D01*
X126637068Y-76016810D01*
X126567932Y-76226691D01*
X126544746Y-76389599D01*
X126583491Y-76454000D01*
X126644168Y-76382167D01*
X126661333Y-76262635D01*
X126717136Y-76075490D01*
X126854189Y-75864765D01*
X126881567Y-75833757D01*
X127017479Y-75658713D01*
X127052212Y-75556176D01*
X126991045Y-75550947D01*
X126845065Y-75662320D01*
G36*
X132037666Y-75198613D02*
X131669284Y-75203842D01*
X131457984Y-75211275D01*
X131391513Y-75223279D01*
X131457620Y-75242221D01*
X131644053Y-75270466D01*
X131656666Y-75272214D01*
X132024294Y-75312596D01*
X132411927Y-75339825D01*
X132556466Y-75344960D01*
X132878915Y-75378639D01*
X133075257Y-75459765D01*
X133096000Y-75480333D01*
X133136138Y-75507718D01*
X133215962Y-75530949D01*
X133348211Y-75550354D01*
X133545627Y-75566262D01*
X133820949Y-75579001D01*
X134186918Y-75588902D01*
X134656275Y-75596291D01*
X135241760Y-75601499D01*
X135956114Y-75604854D01*
X136812078Y-75606685D01*
X137822390Y-75607320D01*
X138017033Y-75607333D01*
X139173672Y-75605851D01*
X140176003Y-75601432D01*
X141021780Y-75594116D01*
X141708752Y-75583941D01*
X142234673Y-75570947D01*
X142597293Y-75555174D01*
X142794364Y-75536662D01*
X142832666Y-75522667D01*
X142748386Y-75502320D01*
X142497045Y-75484690D01*
X142080898Y-75469815D01*
X141502195Y-75457736D01*
X140763189Y-75448491D01*
X139866134Y-75442121D01*
X138813281Y-75438665D01*
X138022849Y-75438000D01*
X136978980Y-75437483D01*
X136091678Y-75435721D01*
X135348180Y-75432395D01*
X134735722Y-75427185D01*
X134241541Y-75419773D01*
X133852872Y-75409839D01*
X133556953Y-75397064D01*
X133341019Y-75381131D01*
X133192307Y-75361719D01*
X133098054Y-75338510D01*
X133048682Y-75313693D01*
X132908741Y-75250704D01*
X132673311Y-75213320D01*
X132314121Y-75198321D01*
X132037666Y-75198613D01*
X132037666Y-75198613D01*
G37*
X132037666Y-75198613D02*
X131669284Y-75203842D01*
X131457984Y-75211275D01*
X131391513Y-75223279D01*
X131457620Y-75242221D01*
X131644053Y-75270466D01*
X131656666Y-75272214D01*
X132024294Y-75312596D01*
X132411927Y-75339825D01*
X132556466Y-75344960D01*
X132878915Y-75378639D01*
X133075257Y-75459765D01*
X133096000Y-75480333D01*
X133136138Y-75507718D01*
X133215962Y-75530949D01*
X133348211Y-75550354D01*
X133545627Y-75566262D01*
X133820949Y-75579001D01*
X134186918Y-75588902D01*
X134656275Y-75596291D01*
X135241760Y-75601499D01*
X135956114Y-75604854D01*
X136812078Y-75606685D01*
X137822390Y-75607320D01*
X138017033Y-75607333D01*
X139173672Y-75605851D01*
X140176003Y-75601432D01*
X141021780Y-75594116D01*
X141708752Y-75583941D01*
X142234673Y-75570947D01*
X142597293Y-75555174D01*
X142794364Y-75536662D01*
X142832666Y-75522667D01*
X142748386Y-75502320D01*
X142497045Y-75484690D01*
X142080898Y-75469815D01*
X141502195Y-75457736D01*
X140763189Y-75448491D01*
X139866134Y-75442121D01*
X138813281Y-75438665D01*
X138022849Y-75438000D01*
X136978980Y-75437483D01*
X136091678Y-75435721D01*
X135348180Y-75432395D01*
X134735722Y-75427185D01*
X134241541Y-75419773D01*
X133852872Y-75409839D01*
X133556953Y-75397064D01*
X133341019Y-75381131D01*
X133192307Y-75361719D01*
X133098054Y-75338510D01*
X133048682Y-75313693D01*
X132908741Y-75250704D01*
X132673311Y-75213320D01*
X132314121Y-75198321D01*
X132037666Y-75198613D01*
G36*
X130427985Y-75451918D02*
X130258843Y-75487822D01*
X130217333Y-75522667D01*
X130293885Y-75569033D01*
X130491358Y-75599786D01*
X130683000Y-75607333D01*
X130938015Y-75593415D01*
X131107156Y-75557511D01*
X131148666Y-75522667D01*
X131072115Y-75476300D01*
X130874642Y-75445547D01*
X130683000Y-75438000D01*
X130427985Y-75451918D01*
X130427985Y-75451918D01*
G37*
X130427985Y-75451918D02*
X130258843Y-75487822D01*
X130217333Y-75522667D01*
X130293885Y-75569033D01*
X130491358Y-75599786D01*
X130683000Y-75607333D01*
X130938015Y-75593415D01*
X131107156Y-75557511D01*
X131148666Y-75522667D01*
X131072115Y-75476300D01*
X130874642Y-75445547D01*
X130683000Y-75438000D01*
X130427985Y-75451918D01*
G36*
X127762000Y-75565000D02*
X127804333Y-75607333D01*
X127846666Y-75565000D01*
X127804333Y-75522667D01*
X127762000Y-75565000D01*
X127762000Y-75565000D01*
G37*
X127762000Y-75565000D02*
X127804333Y-75607333D01*
X127846666Y-75565000D01*
X127804333Y-75522667D01*
X127762000Y-75565000D01*
G36*
X128265504Y-68702745D02*
X128242206Y-68825066D01*
X128222708Y-69043687D01*
X128206558Y-69370681D01*
X128193303Y-69818121D01*
X128182491Y-70398079D01*
X128173668Y-71122629D01*
X128166381Y-72003843D01*
X128166055Y-72051363D01*
X128161107Y-72932218D01*
X128159589Y-73656595D01*
X128161815Y-74237322D01*
X128168097Y-74687226D01*
X128178750Y-75019134D01*
X128194087Y-75245873D01*
X128214421Y-75380270D01*
X128240067Y-75435152D01*
X128248833Y-75438029D01*
X128347736Y-75397610D01*
X128355240Y-75374500D01*
X128366155Y-74087210D01*
X128374106Y-72960779D01*
X128379016Y-71986754D01*
X128380806Y-71156687D01*
X128379397Y-70462125D01*
X128374712Y-69894619D01*
X128366672Y-69445717D01*
X128355199Y-69106969D01*
X128340214Y-68869924D01*
X128321639Y-68726132D01*
X128299396Y-68667142D01*
X128293055Y-68664653D01*
X128265504Y-68702745D01*
X128265504Y-68702745D01*
G37*
X128265504Y-68702745D02*
X128242206Y-68825066D01*
X128222708Y-69043687D01*
X128206558Y-69370681D01*
X128193303Y-69818121D01*
X128182491Y-70398079D01*
X128173668Y-71122629D01*
X128166381Y-72003843D01*
X128166055Y-72051363D01*
X128161107Y-72932218D01*
X128159589Y-73656595D01*
X128161815Y-74237322D01*
X128168097Y-74687226D01*
X128178750Y-75019134D01*
X128194087Y-75245873D01*
X128214421Y-75380270D01*
X128240067Y-75435152D01*
X128248833Y-75438029D01*
X128347736Y-75397610D01*
X128355240Y-75374500D01*
X128366155Y-74087210D01*
X128374106Y-72960779D01*
X128379016Y-71986754D01*
X128380806Y-71156687D01*
X128379397Y-70462125D01*
X128374712Y-69894619D01*
X128366672Y-69445717D01*
X128355199Y-69106969D01*
X128340214Y-68869924D01*
X128321639Y-68726132D01*
X128299396Y-68667142D01*
X128293055Y-68664653D01*
X128265504Y-68702745D01*
G36*
X127958121Y-69659416D02*
X127955430Y-69765333D01*
X127938540Y-70669356D01*
X127925551Y-71532986D01*
X127916472Y-72340979D01*
X127911312Y-73078089D01*
X127910077Y-73729071D01*
X127912778Y-74278680D01*
X127919422Y-74711669D01*
X127930016Y-75012795D01*
X127944570Y-75166810D01*
X127952500Y-75184063D01*
X127966101Y-75102421D01*
X127977766Y-74869662D01*
X127987245Y-74503996D01*
X127994290Y-74023630D01*
X127998650Y-73446773D01*
X128000077Y-72791634D01*
X127998321Y-72076420D01*
X127997429Y-71903167D01*
X127992919Y-71228715D01*
X127987694Y-70654552D01*
X127981961Y-70191288D01*
X127975929Y-69849533D01*
X127969806Y-69639896D01*
X127963801Y-69572987D01*
X127958121Y-69659416D01*
X127958121Y-69659416D01*
G37*
X127958121Y-69659416D02*
X127955430Y-69765333D01*
X127938540Y-70669356D01*
X127925551Y-71532986D01*
X127916472Y-72340979D01*
X127911312Y-73078089D01*
X127910077Y-73729071D01*
X127912778Y-74278680D01*
X127919422Y-74711669D01*
X127930016Y-75012795D01*
X127944570Y-75166810D01*
X127952500Y-75184063D01*
X127966101Y-75102421D01*
X127977766Y-74869662D01*
X127987245Y-74503996D01*
X127994290Y-74023630D01*
X127998650Y-73446773D01*
X128000077Y-72791634D01*
X127998321Y-72076420D01*
X127997429Y-71903167D01*
X127992919Y-71228715D01*
X127987694Y-70654552D01*
X127981961Y-70191288D01*
X127975929Y-69849533D01*
X127969806Y-69639896D01*
X127963801Y-69572987D01*
X127958121Y-69659416D01*
G36*
X135179040Y-72488911D02*
X134415793Y-72494611D01*
X134296603Y-72495915D01*
X133981734Y-72500415D01*
X133829255Y-72504642D01*
X133832220Y-72508517D01*
X133983686Y-72511963D01*
X134276707Y-72514902D01*
X134704340Y-72517255D01*
X135259640Y-72518943D01*
X135935663Y-72519889D01*
X136440333Y-72520069D01*
X137189803Y-72519642D01*
X137821630Y-72518426D01*
X138329072Y-72516497D01*
X138705386Y-72513934D01*
X138943828Y-72510816D01*
X139037656Y-72507219D01*
X138980126Y-72503222D01*
X138764496Y-72498903D01*
X138529936Y-72495887D01*
X137775811Y-72489676D01*
X136923192Y-72486443D01*
X136036220Y-72486188D01*
X135179040Y-72488911D01*
X135179040Y-72488911D01*
G37*
X135179040Y-72488911D02*
X134415793Y-72494611D01*
X134296603Y-72495915D01*
X133981734Y-72500415D01*
X133829255Y-72504642D01*
X133832220Y-72508517D01*
X133983686Y-72511963D01*
X134276707Y-72514902D01*
X134704340Y-72517255D01*
X135259640Y-72518943D01*
X135935663Y-72519889D01*
X136440333Y-72520069D01*
X137189803Y-72519642D01*
X137821630Y-72518426D01*
X138329072Y-72516497D01*
X138705386Y-72513934D01*
X138943828Y-72510816D01*
X139037656Y-72507219D01*
X138980126Y-72503222D01*
X138764496Y-72498903D01*
X138529936Y-72495887D01*
X137775811Y-72489676D01*
X136923192Y-72486443D01*
X136036220Y-72486188D01*
X135179040Y-72488911D01*
G36*
X131963612Y-69170849D02*
X131938807Y-69412366D01*
X131921474Y-69802003D01*
X131912168Y-70329215D01*
X131910666Y-70696667D01*
X131915027Y-71299369D01*
X131927738Y-71770657D01*
X131948246Y-72099986D01*
X131975994Y-72276809D01*
X131995333Y-72305333D01*
X132027054Y-72222484D01*
X132051859Y-71980967D01*
X132069192Y-71591330D01*
X132078499Y-71064118D01*
X132080000Y-70696667D01*
X132075639Y-70093964D01*
X132062928Y-69622676D01*
X132042421Y-69293347D01*
X132014673Y-69116524D01*
X131995333Y-69088000D01*
X131963612Y-69170849D01*
X131963612Y-69170849D01*
G37*
X131963612Y-69170849D02*
X131938807Y-69412366D01*
X131921474Y-69802003D01*
X131912168Y-70329215D01*
X131910666Y-70696667D01*
X131915027Y-71299369D01*
X131927738Y-71770657D01*
X131948246Y-72099986D01*
X131975994Y-72276809D01*
X131995333Y-72305333D01*
X132027054Y-72222484D01*
X132051859Y-71980967D01*
X132069192Y-71591330D01*
X132078499Y-71064118D01*
X132080000Y-70696667D01*
X132075639Y-70093964D01*
X132062928Y-69622676D01*
X132042421Y-69293347D01*
X132014673Y-69116524D01*
X131995333Y-69088000D01*
X131963612Y-69170849D01*
G36*
X132672666Y-72051333D02*
X136442990Y-72051333D01*
X137375146Y-72050420D01*
X138150640Y-72047438D01*
X138782134Y-72042024D01*
X139282289Y-72033818D01*
X139663770Y-72022456D01*
X139939237Y-72007576D01*
X140121354Y-71988816D01*
X140222782Y-71965814D01*
X140255174Y-71942250D01*
X140267870Y-71824248D01*
X140276150Y-71567876D01*
X140279632Y-71204049D01*
X140277946Y-70766082D01*
X139772145Y-70766082D01*
X139770788Y-71121778D01*
X139762750Y-71383639D01*
X139748616Y-71514912D01*
X139747729Y-71517470D01*
X139672063Y-71572771D01*
X139482212Y-71607769D01*
X139157560Y-71625048D01*
X138865049Y-71628000D01*
X138466959Y-71623348D01*
X138207758Y-71606360D01*
X138057179Y-71572491D01*
X137984958Y-71517196D01*
X137973392Y-71494075D01*
X137952692Y-71358647D01*
X137935979Y-71094210D01*
X137925154Y-70741077D01*
X137922000Y-70403775D01*
X137928023Y-69947518D01*
X137947915Y-69635900D01*
X137984407Y-69444595D01*
X138040233Y-69349276D01*
X138040473Y-69349077D01*
X138199186Y-69297842D01*
X138512041Y-69273019D01*
X138950639Y-69275210D01*
X139742333Y-69299667D01*
X139766238Y-70353303D01*
X139772145Y-70766082D01*
X140277946Y-70766082D01*
X140277936Y-70763680D01*
X140273683Y-70439416D01*
X140250333Y-69045667D01*
X136461500Y-69023628D01*
X132672666Y-69001590D01*
X132672666Y-72051333D01*
X132672666Y-72051333D01*
G37*
X132672666Y-72051333D02*
X136442990Y-72051333D01*
X137375146Y-72050420D01*
X138150640Y-72047438D01*
X138782134Y-72042024D01*
X139282289Y-72033818D01*
X139663770Y-72022456D01*
X139939237Y-72007576D01*
X140121354Y-71988816D01*
X140222782Y-71965814D01*
X140255174Y-71942250D01*
X140267870Y-71824248D01*
X140276150Y-71567876D01*
X140279632Y-71204049D01*
X140277946Y-70766082D01*
X139772145Y-70766082D01*
X139770788Y-71121778D01*
X139762750Y-71383639D01*
X139748616Y-71514912D01*
X139747729Y-71517470D01*
X139672063Y-71572771D01*
X139482212Y-71607769D01*
X139157560Y-71625048D01*
X138865049Y-71628000D01*
X138466959Y-71623348D01*
X138207758Y-71606360D01*
X138057179Y-71572491D01*
X137984958Y-71517196D01*
X137973392Y-71494075D01*
X137952692Y-71358647D01*
X137935979Y-71094210D01*
X137925154Y-70741077D01*
X137922000Y-70403775D01*
X137928023Y-69947518D01*
X137947915Y-69635900D01*
X137984407Y-69444595D01*
X138040233Y-69349276D01*
X138040473Y-69349077D01*
X138199186Y-69297842D01*
X138512041Y-69273019D01*
X138950639Y-69275210D01*
X139742333Y-69299667D01*
X139766238Y-70353303D01*
X139772145Y-70766082D01*
X140277946Y-70766082D01*
X140277936Y-70763680D01*
X140273683Y-70439416D01*
X140250333Y-69045667D01*
X136461500Y-69023628D01*
X132672666Y-69001590D01*
X132672666Y-72051333D01*
G36*
X144369765Y-69899710D02*
X144404318Y-70000973D01*
X144502876Y-70081992D01*
X144510182Y-70084616D01*
X144573931Y-70058164D01*
X144559332Y-69984075D01*
X144472818Y-69867620D01*
X144425219Y-69850000D01*
X144369765Y-69899710D01*
X144369765Y-69899710D01*
G37*
X144369765Y-69899710D02*
X144404318Y-70000973D01*
X144502876Y-70081992D01*
X144510182Y-70084616D01*
X144573931Y-70058164D01*
X144559332Y-69984075D01*
X144472818Y-69867620D01*
X144425219Y-69850000D01*
X144369765Y-69899710D01*
G36*
X143174725Y-68696811D02*
X143246222Y-68805478D01*
X143427719Y-69009015D01*
X143456497Y-69039638D01*
X143668542Y-69249985D01*
X143793091Y-69333602D01*
X143844943Y-69298705D01*
X143848666Y-69257333D01*
X143783579Y-69175920D01*
X143759003Y-69172667D01*
X143708147Y-69120930D01*
X143721067Y-69088970D01*
X143705348Y-69041842D01*
X143620231Y-69060126D01*
X143523306Y-69076647D01*
X143529627Y-69046585D01*
X143511929Y-68959910D01*
X143415064Y-68827067D01*
X143291260Y-68708701D01*
X143200712Y-68664667D01*
X143174725Y-68696811D01*
X143174725Y-68696811D01*
G37*
X143174725Y-68696811D02*
X143246222Y-68805478D01*
X143427719Y-69009015D01*
X143456497Y-69039638D01*
X143668542Y-69249985D01*
X143793091Y-69333602D01*
X143844943Y-69298705D01*
X143848666Y-69257333D01*
X143783579Y-69175920D01*
X143759003Y-69172667D01*
X143708147Y-69120930D01*
X143721067Y-69088970D01*
X143705348Y-69041842D01*
X143620231Y-69060126D01*
X143523306Y-69076647D01*
X143529627Y-69046585D01*
X143511929Y-68959910D01*
X143415064Y-68827067D01*
X143291260Y-68708701D01*
X143200712Y-68664667D01*
X143174725Y-68696811D01*
G36*
X140271509Y-80537542D02*
X140265225Y-80552056D01*
X140264146Y-80703706D01*
X140359463Y-80771612D01*
X140490222Y-80715555D01*
X140543415Y-80587144D01*
X140546666Y-80546222D01*
X140490047Y-80449189D01*
X140372282Y-80446835D01*
X140271509Y-80537542D01*
X140271509Y-80537542D01*
G37*
X140271509Y-80537542D02*
X140265225Y-80552056D01*
X140264146Y-80703706D01*
X140359463Y-80771612D01*
X140490222Y-80715555D01*
X140543415Y-80587144D01*
X140546666Y-80546222D01*
X140490047Y-80449189D01*
X140372282Y-80446835D01*
X140271509Y-80537542D01*
G36*
X133288905Y-80503919D02*
X133265333Y-80602667D01*
X133307704Y-80750166D01*
X133413121Y-80754966D01*
X133462889Y-80715555D01*
X133519873Y-80579952D01*
X133470907Y-80461765D01*
X133392333Y-80433333D01*
X133288905Y-80503919D01*
X133288905Y-80503919D01*
G37*
X133288905Y-80503919D02*
X133265333Y-80602667D01*
X133307704Y-80750166D01*
X133413121Y-80754966D01*
X133462889Y-80715555D01*
X133519873Y-80579952D01*
X133470907Y-80461765D01*
X133392333Y-80433333D01*
X133288905Y-80503919D01*
G36*
X138514688Y-70421500D02*
X138514709Y-71162333D01*
X138895688Y-71170452D01*
X139276666Y-71178571D01*
X139276666Y-70442667D01*
X139107333Y-70442667D01*
X139104221Y-70752302D01*
X139086097Y-70929513D01*
X139039786Y-71011198D01*
X138952108Y-71034254D01*
X138895666Y-71035333D01*
X138785082Y-71026618D01*
X138721793Y-70975873D01*
X138692620Y-70846201D01*
X138684385Y-70600702D01*
X138684000Y-70442667D01*
X138687112Y-70133031D01*
X138705236Y-69955820D01*
X138751547Y-69874135D01*
X138839225Y-69851079D01*
X138895666Y-69850000D01*
X139006251Y-69858715D01*
X139069540Y-69909460D01*
X139098713Y-70039132D01*
X139106948Y-70284631D01*
X139107333Y-70442667D01*
X139276666Y-70442667D01*
X139276666Y-69680667D01*
X138514666Y-69680667D01*
X138514688Y-70421500D01*
X138514688Y-70421500D01*
G37*
X138514688Y-70421500D02*
X138514709Y-71162333D01*
X138895688Y-71170452D01*
X139276666Y-71178571D01*
X139276666Y-70442667D01*
X139107333Y-70442667D01*
X139104221Y-70752302D01*
X139086097Y-70929513D01*
X139039786Y-71011198D01*
X138952108Y-71034254D01*
X138895666Y-71035333D01*
X138785082Y-71026618D01*
X138721793Y-70975873D01*
X138692620Y-70846201D01*
X138684385Y-70600702D01*
X138684000Y-70442667D01*
X138687112Y-70133031D01*
X138705236Y-69955820D01*
X138751547Y-69874135D01*
X138839225Y-69851079D01*
X138895666Y-69850000D01*
X139006251Y-69858715D01*
X139069540Y-69909460D01*
X139098713Y-70039132D01*
X139106948Y-70284631D01*
X139107333Y-70442667D01*
X139276666Y-70442667D01*
X139276666Y-69680667D01*
X138514666Y-69680667D01*
X138514688Y-70421500D01*
%LPC*%
D13*
X170140900Y-62522540D03*
X165140900Y-62522540D03*
D14*
X171140900Y-59822540D03*
X164140900Y-59822540D03*
D15*
X157139640Y-63080900D03*
X152740360Y-63080900D03*
D16*
X107950000Y-61722000D03*
X181610000Y-62230000D03*
X181610000Y-113030000D03*
X124460000Y-113030000D03*
D17*
X119380000Y-71120000D03*
D18*
X116840000Y-71120000D03*
X119380000Y-68580000D03*
X116840000Y-68580000D03*
X119380000Y-66040000D03*
X116840000Y-66040000D03*
D19*
X124460000Y-118110000D03*
D20*
X124460000Y-120650000D03*
D21*
X173990000Y-88900000D03*
D22*
X176530000Y-88900000D03*
X179070000Y-88900000D03*
X181610000Y-88900000D03*
D21*
X189230000Y-71120000D03*
D22*
X191770000Y-71120000D03*
X194310000Y-71120000D03*
X196850000Y-71120000D03*
D21*
X160020000Y-78740000D03*
D22*
X157480000Y-78740000D03*
X154940000Y-78740000D03*
D23*
X133350000Y-120650000D03*
D24*
X133350000Y-118110000D03*
X135890000Y-120650000D03*
X135890000Y-118110000D03*
X138430000Y-120650000D03*
X138430000Y-118110000D03*
X140970000Y-120650000D03*
X140970000Y-118110000D03*
X143510000Y-120650000D03*
X143510000Y-118110000D03*
X146050000Y-120650000D03*
X146050000Y-118110000D03*
X148590000Y-120650000D03*
X148590000Y-118110000D03*
X151130000Y-120650000D03*
X151130000Y-118110000D03*
X153670000Y-120650000D03*
X153670000Y-118110000D03*
X156210000Y-120650000D03*
X156210000Y-118110000D03*
X158750000Y-120650000D03*
X158750000Y-118110000D03*
X161290000Y-120650000D03*
X161290000Y-118110000D03*
X163830000Y-120650000D03*
X163830000Y-118110000D03*
X166370000Y-120650000D03*
X166370000Y-118110000D03*
X168910000Y-120650000D03*
X168910000Y-118110000D03*
X171450000Y-120650000D03*
X171450000Y-118110000D03*
X173990000Y-120650000D03*
X173990000Y-118110000D03*
D25*
X123046000Y-83674200D03*
X117348000Y-74803000D03*
X120747000Y-76581200D03*
X123210000Y-77371000D03*
X131607000Y-83077600D03*
X128651000Y-84836000D03*
X136779000Y-74041000D03*
X136906000Y-75565000D03*
X134816000Y-63599000D03*
X139304000Y-63599000D03*
X128342000Y-63439200D03*
X131191000Y-66421000D03*
X137087000Y-70788100D03*
X137322000Y-66367300D03*
X153478000Y-64719200D03*
X140095000Y-82150000D03*
X140049000Y-83750000D03*
X127000000Y-82720900D03*
X139726000Y-90130500D03*
X161185000Y-74045500D03*
X167736000Y-80544500D03*
X122603000Y-90065400D03*
X137643000Y-62684000D03*
X125470000Y-86347700D03*
X125046000Y-77879900D03*
X131264000Y-79654900D03*
X126432000Y-73828600D03*
X152402000Y-98236000D03*
X170651000Y-97700100D03*
X129489000Y-102689000D03*
X149120000Y-97163200D03*
X147010000Y-105325000D03*
X168016000Y-98711000D03*
X157776000Y-69333300D03*
X161525000Y-62571600D03*
X133171000Y-74061700D03*
X134290000Y-85412700D03*
X134061000Y-74199300D03*
X135439000Y-84571300D03*
X140360000Y-70702000D03*
X139048000Y-85412700D03*
X133192000Y-86241300D03*
X159151000Y-94438600D03*
X138304000Y-80422900D03*
X124840000Y-99179600D03*
X136004000Y-96671800D03*
X137857000Y-82640200D03*
X145354000Y-84138700D03*
X157853000Y-97094000D03*
X143174000Y-77961000D03*
X158931000Y-99024600D03*
X145354000Y-86454800D03*
X162353000Y-96847300D03*
X134996000Y-80487500D03*
X126309000Y-101600000D03*
X139911000Y-80137500D03*
X134620000Y-102720000D03*
M02*
